solid working_stargate_mk2_base_l_1
facet normal 1.151763404851558e-13 -0.9413913287444843 -0.33731641846298344
  outer loop
    vertex 6.1736394530719565 20.302283753172457 6.589739301211408
    vertex -2.4368919310047836 21.0443798737889 4.518678377974095
    vertex 6.173639453071726 21.04437987379091 4.518678377973887
  endloop
endfacet
facet normal 1.151763404851558e-13 -0.9413913287444843 -0.33731641846298344
  outer loop
    vertex -2.4368919310047836 21.0443798737889 4.518678377974095
    vertex 6.1736394530719565 20.302283753172457 6.589739301211408
    vertex -2.4368919310045065 20.302283753171185 6.589739301212072
  endloop
endfacet
facet normal -1.3107009768425065e-13 0.9413913287444843 0.33731641846298344
  outer loop
    vertex -2.776535358683719 17.919864872500195 4.518678377976555
    vertex 6.173639453072349 17.177768751883917 6.589739301213896
    vertex 6.173639453071818 17.91986487250239 4.518678377976284
  endloop
endfacet
facet normal -1.3107009768425065e-13 0.9413913287444843 0.33731641846298344
  outer loop
    vertex 6.173639453072349 17.177768751883917 6.589739301213896
    vertex -2.776535358683719 17.919864872500195 4.518678377976555
    vertex -2.776535358683835 17.17776875188225 6.589739301215057
  endloop
endfacet
facet normal -1.0 -1.3621803957863415e-13 5.701833708217445e-14
  outer loop
    vertex 15.865390028377695 25.11357125639215 6.589739301211982
    vertex 15.865390028376494 25.41255856009423 4.359905002281238
    vertex 15.86539002837788 24.613571256393023 6.589739301212017
  endloop
endfacet
facet normal -1.0 -1.3621803957863415e-13 5.701833708217445e-14
  outer loop
    vertex 15.865390028376494 25.41255856009423 4.359905002281238
    vertex 15.865390028377695 25.11357125639215 6.589739301211982
    vertex 15.865390028377579 27.46704957825285 7.433030347370659
  endloop
endfacet
facet normal -1.0 -1.3621803957863415e-13 5.701833708217445e-14
  outer loop
    vertex 15.865390028376494 25.41255856009423 4.359905002281238
    vertex 15.865390028377579 27.46704957825285 7.433030347370659
    vertex 15.865390028376563 28.209145698872945 5.361969424131943
  endloop
endfacet
facet normal -1.3238478031423045e-13 0.941391328744484 0.3373164184629844
  outer loop
    vertex -1.9682430479941921 25.412558560091433 4.35990500228205
    vertex 15.86539002837788 24.613571256393023 6.589739301212017
    vertex 15.865390028376494 25.41255856009423 4.359905002281238
  endloop
endfacet
facet normal -1.3238478031423045e-13 0.941391328744484 0.3373164184629844
  outer loop
    vertex 15.86539002837788 24.613571256393023 6.589739301212017
    vertex -1.9682430479941921 25.412558560091433 4.35990500228205
    vertex -1.9682430479937763 24.61357125639037 6.589739301212395
  endloop
endfacet
facet normal -1.0 -1.7970773276706262e-13 5.334660685467278e-14
  outer loop
    vertex 6.1736394530719565 20.302283753172457 6.589739301211408
    vertex 6.173639453071818 17.91986487250239 4.518678377976284
    vertex 6.173639453072349 17.177768751883917 6.589739301213896
  endloop
endfacet
facet normal -1.0 -1.7970773276706262e-13 5.334660685467278e-14
  outer loop
    vertex 6.173639453071818 17.91986487250239 4.518678377976284
    vertex 6.1736394530719565 20.302283753172457 6.589739301211408
    vertex 6.173639453071726 21.04437987379091 4.518678377973887
  endloop
endfacet
facet normal 4.571460241427384e-14 6.01740879346832e-13 1.0
  outer loop
    vertex 6.173639453071818 17.91986487250239 4.518678377976284
    vertex -2.4368919310047836 21.0443798737889 4.518678377974095
    vertex -2.776535358683719 17.919864872500195 4.518678377976555
  endloop
endfacet
facet normal 4.571460241427384e-14 6.01740879346832e-13 1.0
  outer loop
    vertex -2.4368919310047836 21.0443798737889 4.518678377974095
    vertex 6.173639453071818 17.91986487250239 4.518678377976284
    vertex 6.173639453071726 21.04437987379091 4.518678377973887
  endloop
endfacet
facet normal -1.1603779560951834e-13 0.9413913287444807 0.3373164184629932
  outer loop
    vertex -1.9138916642555779 37.35265177149366 -1.155058271251619e-13
    vertex 20.211265316028783 33.86750992323923 9.726423428611387
    vertex 20.211265316027166 37.3526517714971 -1.8942955648526547e-12
  endloop
endfacet
facet normal -1.1603779560951834e-13 0.9413913287444807 0.3373164184629932
  outer loop
    vertex 20.211265316028783 33.86750992323923 9.726423428611387
    vertex -1.9138916642555779 37.35265177149366 -1.155058271251619e-13
    vertex -1.9138916642543304 33.867509923236064 9.726423428612957
  endloop
endfacet
facet normal -1.0 -2.516488517158774e-13 1.3182278624689193e-13
  outer loop
    vertex -1.9138916642532215 28.209145698870262 5.361969424132896
    vertex -1.9138916642533832 26.79361573741678 1.9010279910722352
    vertex -1.9138916642527364 25.855667377009304 4.518678377974912
  endloop
endfacet
facet normal -1.0 -2.516488517158774e-13 1.3182278624689193e-13
  outer loop
    vertex -1.9138916642533832 26.79361573741678 1.9010279910722352
    vertex -1.9138916642532215 28.209145698870262 5.361969424132896
    vertex -1.913891664253545 27.548198171094146 1.90102799107257
  endloop
endfacet
facet normal 3.0301686183388177e-13 -0.9413913287444822 -0.3373164184629892
  outer loop
    vertex -0.34326117862388433 11.964232490861427 6.589739301212262
    vertex -3.3432611786236643 13.644276971886196 1.901027991072599
    vertex -0.3432611786240692 13.644276971887605 1.9010279910713803
  endloop
endfacet
facet normal 3.0301686183388177e-13 -0.9413913287444822 -0.3373164184629892
  outer loop
    vertex -3.3432611786236643 13.644276971886196 1.901027991072599
    vertex -0.34326117862388433 11.964232490861427 6.589739301212262
    vertex -3.3432611786236177 11.964232490859903 6.589739301212077
  endloop
endfacet
facet normal -9.118713629393083e-14 0.9413913287444794 0.33731641846299704
  outer loop
    vertex -14.71126531602962 31.54136426827309 3.257264324929565e-12
    vertex -1.9138916642535682 28.71744446259688 7.88106796060748
    vertex -1.9138916642547232 31.541364268274823 1.7730144463712349e-12
  endloop
endfacet
facet normal -9.118713629393083e-14 0.9413913287444794 0.33731641846299704
  outer loop
    vertex -1.9138916642535682 28.71744446259688 7.88106796060748
    vertex -14.71126531602962 31.54136426827309 3.257264324929565e-12
    vertex -14.711265316029342 30.86019382005941 1.9010279910724777
  endloop
endfacet
facet normal -9.118713629393083e-14 0.9413913287444794 0.33731641846299704
  outer loop
    vertex -1.9138916642535682 28.71744446259688 7.88106796060748
    vertex -14.711265316029342 30.86019382005941 1.9010279910724777
    vertex -14.711265316028927 29.430980828581415 5.889712334505991
  endloop
endfacet
facet normal -9.118713629393083e-14 0.9413913287444794 0.33731641846299704
  outer loop
    vertex -1.9138916642535682 28.71744446259688 7.88106796060748
    vertex -14.711265316028927 29.430980828581415 5.889712334505991
    vertex -20.211265316029223 29.430980828580513 5.889712334506508
  endloop
endfacet
facet normal -9.118713629393083e-14 0.9413913287444794 0.33731641846299704
  outer loop
    vertex -1.9138916642535682 28.71744446259688 7.88106796060748
    vertex -20.211265316029223 29.430980828580513 5.889712334506508
    vertex -17.71126531602852 28.41903157319206 8.71388632073917
  endloop
endfacet
facet normal -9.118713629393083e-14 0.9413913287444794 0.33731641846299704
  outer loop
    vertex -17.71126531602852 28.41903157319206 8.71388632073917
    vertex -20.211265316029223 29.430980828580513 5.889712334506508
    vertex -18.099493883682413 28.401790905834506 8.76200201823779
  endloop
endfacet
facet normal -9.118713629393083e-14 0.9413913287444794 0.33731641846299704
  outer loop
    vertex -18.099493883682413 28.401790905834506 8.76200201823779
    vertex -20.211265316029223 29.430980828580513 5.889712334506508
    vertex -18.461265316028662 28.351243826751215 8.903070105463524
  endloop
endfacet
facet normal -9.118713629393083e-14 0.9413913287444794 0.33731641846299704
  outer loop
    vertex -18.461265316028662 28.351243826751215 8.903070105463524
    vertex -20.211265316029223 29.430980828580513 5.889712334506508
    vertex -18.771925487808534 28.27083503584838 9.12747702539807
  endloop
endfacet
facet normal -9.118713629393083e-14 0.9413913287444794 0.33731641846299704
  outer loop
    vertex -18.771925487808534 28.27083503584838 9.12747702539807
    vertex -20.211265316029223 29.430980828580513 5.889712334506508
    vertex -19.010303421705306 28.16604425934457 9.41992981729787
  endloop
endfacet
facet normal -9.118713629393083e-14 0.9413913287444794 0.33731641846299704
  outer loop
    vertex -19.010303421705306 28.16604425934457 9.41992981729787
    vertex -20.211265316029223 29.430980828580513 5.889712334506508
    vertex -19.160154055462105 28.044012815483097 9.760498306696391
  endloop
endfacet
facet normal -9.118713629393083e-14 0.9413913287444794 0.33731641846299704
  outer loop
    vertex -19.160154055462105 28.044012815483097 9.760498306696391
    vertex -20.211265316029223 29.430980828580513 5.889712334506508
    vertex -20.211265316028367 26.732449480876276 13.420842964462778
  endloop
endfacet
facet normal -9.118713629393083e-14 0.9413913287444794 0.33731641846299704
  outer loop
    vertex -19.160154055462105 28.044012815483097 9.760498306696391
    vertex -20.211265316028367 26.732449480876276 13.420842964462778
    vertex -19.211265316028527 27.91305694549697 10.125973313856896
  endloop
endfacet
facet normal -9.118713629393083e-14 0.9413913287444794 0.33731641846299704
  outer loop
    vertex -19.211265316028527 27.91305694549697 10.125973313856896
    vertex -20.211265316028367 26.732449480876276 13.420842964462778
    vertex -19.16015405546206 27.78210107551116 10.491448321016806
  endloop
endfacet
facet normal -9.118713629393083e-14 0.9413913287444794 0.33731641846299704
  outer loop
    vertex -19.16015405546206 27.78210107551116 10.491448321016806
    vertex -20.211265316028367 26.732449480876276 13.420842964462778
    vertex -19.01030342170491 27.66006963164994 10.832016810414986
  endloop
endfacet
facet normal -9.118713629393083e-14 0.9413913287444794 0.33731641846299704
  outer loop
    vertex -19.01030342170491 27.66006963164994 10.832016810414986
    vertex -20.211265316028367 26.732449480876276 13.420842964462778
    vertex -18.77192548780798 27.55527885514588 11.124469602315227
  endloop
endfacet
facet normal -9.118713629393083e-14 0.9413913287444794 0.33731641846299704
  outer loop
    vertex -18.77192548780798 27.55527885514588 11.124469602315227
    vertex -20.211265316028367 26.732449480876276 13.420842964462778
    vertex -18.46126531602799 27.474870064243433 11.348876522249345
  endloop
endfacet
facet normal -9.118713629393083e-14 0.9413913287444794 0.33731641846299704
  outer loop
    vertex -18.46126531602799 27.474870064243433 11.348876522249345
    vertex -20.211265316028367 26.732449480876276 13.420842964462778
    vertex -18.099493883681674 27.424322985160142 11.489944609474906
  endloop
endfacet
facet normal -9.118713629393083e-14 0.9413913287444794 0.33731641846299704
  outer loop
    vertex -18.099493883681674 27.424322985160142 11.489944609474906
    vertex -20.211265316028367 26.732449480876276 13.420842964462778
    vertex -17.711265316027806 27.407082317802914 11.538060306973252
  endloop
endfacet
facet normal -9.118713629393083e-14 0.9413913287444794 0.33731641846299704
  outer loop
    vertex -17.711265316027806 27.407082317802914 11.538060306973252
    vertex -20.211265316028367 26.732449480876276 13.420842964462778
    vertex -12.711265316028479 26.73244948087743 13.420842964462498
  endloop
endfacet
facet normal -9.118713629393083e-14 0.9413913287444794 0.33731641846299704
  outer loop
    vertex -1.9138916642535682 28.71744446259688 7.88106796060748
    vertex -16.65060514424855 28.27083503584884 9.127477025397594
    vertex -12.711265316028479 26.73244948087743 13.420842964462498
  endloop
endfacet
facet normal -9.118713629393083e-14 0.9413913287444794 0.33731641846299704
  outer loop
    vertex -16.65060514424855 28.27083503584884 9.127477025397594
    vertex -1.9138916642535682 28.71744446259688 7.88106796060748
    vertex -16.961265316028427 28.351243826751517 8.903070105463174
  endloop
endfacet
facet normal -9.118713629393083e-14 0.9413913287444794 0.33731641846299704
  outer loop
    vertex -16.961265316028427 28.351243826751517 8.903070105463174
    vertex -1.9138916642535682 28.71744446259688 7.88106796060748
    vertex -17.323036748374676 28.401790905834762 8.762002018237592
  endloop
endfacet
facet normal -9.118713629393083e-14 0.9413913287444794 0.33731641846299704
  outer loop
    vertex -17.323036748374676 28.401790905834762 8.762002018237592
    vertex -1.9138916642535682 28.71744446259688 7.88106796060748
    vertex -17.71126531602852 28.41903157319206 8.71388632073917
  endloop
endfacet
facet normal -9.118713629393083e-14 0.9413913287444794 0.33731641846299704
  outer loop
    vertex -12.711265316028479 26.73244948087743 13.420842964462498
    vertex -16.65060514424855 28.27083503584884 9.127477025397594
    vertex -16.412227210351507 28.166044259345032 9.419929817297533
  endloop
endfacet
facet normal -9.118713629393083e-14 0.9413913287444794 0.33731641846299704
  outer loop
    vertex -12.711265316028479 26.73244948087743 13.420842964462498
    vertex -16.412227210351507 28.166044259345032 9.419929817297533
    vertex -16.262376576594384 28.044012815483814 9.76049830669571
  endloop
endfacet
facet normal -9.118713629393083e-14 0.9413913287444794 0.33731641846299704
  outer loop
    vertex -12.711265316028479 26.73244948087743 13.420842964462498
    vertex -16.262376576594384 28.044012815483814 9.76049830669571
    vertex -16.21126531602801 27.91305694549794 10.12597331385551
  endloop
endfacet
facet normal -9.118713629393083e-14 0.9413913287444794 0.33731641846299704
  outer loop
    vertex -12.711265316028479 26.73244948087743 13.420842964462498
    vertex -16.21126531602801 27.91305694549794 10.12597331385551
    vertex -16.2623765765942 27.782101075511623 10.491448321016634
  endloop
endfacet
facet normal -9.118713629393083e-14 0.9413913287444794 0.33731641846299704
  outer loop
    vertex -12.711265316028479 26.73244948087743 13.420842964462498
    vertex -16.2623765765942 27.782101075511623 10.491448321016634
    vertex -16.41222721035116 27.6600696316504 10.832016810414649
  endloop
endfacet
facet normal -9.118713629393083e-14 0.9413913287444794 0.33731641846299704
  outer loop
    vertex -12.711265316028479 26.73244948087743 13.420842964462498
    vertex -16.41222721035116 27.6600696316504 10.832016810414649
    vertex -16.650605144247905 27.555278855146526 11.12446960231442
  endloop
endfacet
facet normal -9.118713629393083e-14 0.9413913287444794 0.33731641846299704
  outer loop
    vertex -12.711265316028479 26.73244948087743 13.420842964462498
    vertex -16.650605144247905 27.555278855146526 11.12446960231442
    vertex -16.96126531602794 27.474870064243735 11.348876522249087
  endloop
endfacet
facet normal -9.118713629393083e-14 0.9413913287444794 0.33731641846299704
  outer loop
    vertex -12.711265316028479 26.73244948087743 13.420842964462498
    vertex -16.96126531602794 27.474870064243735 11.348876522249087
    vertex -17.323036748373983 27.42432298516035 11.489944609474701
  endloop
endfacet
facet normal -9.118713629393083e-14 0.9413913287444794 0.33731641846299704
  outer loop
    vertex -12.711265316028479 26.73244948087743 13.420842964462498
    vertex -17.323036748373983 27.42432298516035 11.489944609474701
    vertex -17.711265316027806 27.407082317802914 11.538060306973252
  endloop
endfacet
facet normal 0.5855126720215263 -0.7631513575665093 -0.27345002531835005
  outer loop
    vertex 20.21126531602809 27.4747861856351 0.0
    vertex 0.827764165420564 11.92201072840242 1.9010279910728012
    vertex -14.711265316025946 0.6811704482136544 2.2350377548718822e-12
  endloop
endfacet
facet normal 0.5855126720215263 -0.7631513575665093 -0.27345002531835005
  outer loop
    vertex 0.827764165420564 11.92201072840242 1.9010279910728012
    vertex 20.21126531602809 27.4747861856351 0.0
    vertex 20.21126531603001 25.113571256392863 6.589739301211532
  endloop
endfacet
facet normal 0.5855126720215263 -0.7631513575665093 -0.27345002531835005
  outer loop
    vertex -14.711265316025946 0.6811704482136544 2.2350377548718822e-12
    vertex 0.827764165420564 11.92201072840242 1.9010279910728012
    vertex -14.71126531602456 0.0 1.9010279910725354
  endloop
endfacet
facet normal 0.5855126720215263 -0.7631513575665093 -0.27345002531835005
  outer loop
    vertex 0.827764165420564 11.92201072840242 1.9010279910728012
    vertex 20.21126531603001 25.113571256392863 6.589739301211532
    vertex 0.8277641654212108 10.24196624737608 6.589739301212453
  endloop
endfacet
facet normal -0.8106632537017159 -0.5511965523110802 -0.19750303749088582
  outer loop
    vertex -0.34326117862388433 11.964232490861427 6.589739301212262
    vertex 0.827764165420564 11.92201072840242 1.9010279910728012
    vertex 0.8277641654212108 10.24196624737608 6.589739301212453
  endloop
endfacet
facet normal -0.8106632537017159 -0.5511965523110802 -0.19750303749088582
  outer loop
    vertex 0.827764165420564 11.92201072840242 1.9010279910728012
    vertex -0.34326117862388433 11.964232490861427 6.589739301212262
    vertex -0.3432611786240692 13.644276971887605 1.9010279910713803
  endloop
endfacet
facet normal -1.0891404809115404e-13 -4.7184478546638044e-15 -1.0
  outer loop
    vertex 20.211265316027166 37.3526517714971 -1.8942955648526547e-12
    vertex -1.9138916642547232 31.541364268274823 1.7730144463712349e-12
    vertex -1.9138916642555779 37.35265177149366 -1.155058271251619e-13
  endloop
endfacet
facet normal -1.0891404809115404e-13 -4.7184478546638044e-15 -1.0
  outer loop
    vertex -1.9138916642547232 31.541364268274823 1.7730144463712349e-12
    vertex -14.711265316025946 0.6811704482136544 2.2350377548718822e-12
    vertex -14.71126531602962 31.54136426827309 3.257264324929565e-12
  endloop
endfacet
facet normal -1.0891404809115404e-13 -4.7184478546638044e-15 -1.0
  outer loop
    vertex -14.711265316025946 0.6811704482136544 2.2350377548718822e-12
    vertex -1.9138916642547232 31.541364268274823 1.7730144463712349e-12
    vertex 20.21126531602809 27.4747861856351 0.0
  endloop
endfacet
facet normal -1.0891404809115404e-13 -4.7184478546638044e-15 -1.0
  outer loop
    vertex 20.21126531602809 27.4747861856351 0.0
    vertex -1.9138916642547232 31.541364268274823 1.7730144463712349e-12
    vertex 20.211265316027166 37.3526517714971 -1.8942955648526547e-12
  endloop
endfacet
facet normal 4.2966800428422634e-14 -1.3600232051661323e-14 1.0
  outer loop
    vertex -14.71126531602456 0.0 1.9010279910725354
    vertex -12.711265316029127 27.548198171092597 1.9010279910730956
    vertex -14.71126531602895 27.54819817109234 1.9010279910730494
  endloop
endfacet
facet normal 4.2966800428422634e-14 -1.3600232051661323e-14 1.0
  outer loop
    vertex -12.711265316029127 27.548198171092597 1.9010279910730956
    vertex -14.71126531602456 0.0 1.9010279910725354
    vertex -3.3432611786236643 13.644276971886196 1.901027991072599
  endloop
endfacet
facet normal 4.2966800428422634e-14 -1.3600232051661323e-14 1.0
  outer loop
    vertex -3.3432611786236643 13.644276971886196 1.901027991072599
    vertex -14.71126531602456 0.0 1.9010279910725354
    vertex 0.827764165420564 11.92201072840242 1.9010279910728012
  endloop
endfacet
facet normal 4.2966800428422634e-14 -1.3600232051661323e-14 1.0
  outer loop
    vertex -3.3432611786236643 13.644276971886196 1.901027991072599
    vertex 0.827764165420564 11.92201072840242 1.9010279910728012
    vertex -0.3432611786240692 13.644276971887605 1.9010279910713803
  endloop
endfacet
facet normal 4.2966800428422634e-14 -1.3600232051661323e-14 1.0
  outer loop
    vertex -3.3432611786236643 13.644276971886196 1.901027991072599
    vertex -1.913891664253545 27.548198171094146 1.90102799107257
    vertex -12.711265316029127 27.548198171092597 1.9010279910730956
  endloop
endfacet
facet normal 4.2966800428422634e-14 -1.3600232051661323e-14 1.0
  outer loop
    vertex -1.913891664253545 27.548198171094146 1.90102799107257
    vertex -3.3432611786236643 13.644276971886196 1.901027991072599
    vertex -1.9138916642533832 26.79361573741678 1.9010279910722352
  endloop
endfacet
facet normal -1.0 -1.4019109836057262e-13 1.1948561567802627e-13
  outer loop
    vertex -14.71126531602895 27.54819817109234 1.9010279910730494
    vertex -14.711265316025946 0.6811704482136544 2.2350377548718822e-12
    vertex -14.71126531602456 0.0 1.9010279910725354
  endloop
endfacet
facet normal -1.0 -1.4019109836057262e-13 1.1948561567802627e-13
  outer loop
    vertex -14.711265316025946 0.6811704482136544 2.2350377548718822e-12
    vertex -14.71126531602895 27.54819817109234 1.9010279910730494
    vertex -14.71126531602962 31.54136426827309 3.257264324929565e-12
  endloop
endfacet
facet normal -1.0 -1.4019109836057262e-13 1.1948561567802627e-13
  outer loop
    vertex -14.71126531602962 31.54136426827309 3.257264324929565e-12
    vertex -14.71126531602895 27.54819817109234 1.9010279910730494
    vertex -14.71126531602844 27.548198171092412 5.215079497580094
  endloop
endfacet
facet normal -1.0 -1.4019109836057262e-13 1.1948561567802627e-13
  outer loop
    vertex -14.71126531602962 31.54136426827309 3.257264324929565e-12
    vertex -14.71126531602844 27.548198171092412 5.215079497580094
    vertex -14.711265316029342 30.86019382005941 1.9010279910724777
  endloop
endfacet
facet normal -1.0 -1.4019109836057262e-13 1.1948561567802627e-13
  outer loop
    vertex -14.711265316029342 30.86019382005941 1.9010279910724777
    vertex -14.71126531602844 27.548198171092412 5.215079497580094
    vertex -14.711265316028927 29.430980828581415 5.889712334505991
  endloop
endfacet
facet normal 9.226992181116386e-14 -0.3373164184629971 0.9413913287444794
  outer loop
    vertex -20.21126531602809 24.84966682338732 12.746210127536793
    vertex -12.711265316028479 26.73244948087743 13.420842964462498
    vertex -20.211265316028367 26.732449480876276 13.420842964462778
  endloop
endfacet
facet normal 9.226992181116386e-14 -0.3373164184629971 0.9413913287444794
  outer loop
    vertex -12.711265316028479 26.73244948087743 13.420842964462498
    vertex -20.21126531602809 24.84966682338732 12.746210127536793
    vertex -12.711265316028248 24.849666823388453 12.746210127536507
  endloop
endfacet
facet normal -1.0 -1.4828238873885008e-13 6.369284795025194e-14
  outer loop
    vertex -20.211265316028367 26.732449480876276 13.420842964462778
    vertex -20.21126531602883 27.548198171091443 5.215079497580784
    vertex -20.21126531602809 24.84966682338732 12.746210127536793
  endloop
endfacet
facet normal -1.0 -1.4828238873885008e-13 6.369284795025194e-14
  outer loop
    vertex -20.21126531602883 27.548198171091443 5.215079497580784
    vertex -20.211265316028367 26.732449480876276 13.420842964462778
    vertex -20.211265316029223 29.430980828580513 5.889712334506508
  endloop
endfacet
facet normal -1.4350671439761484e-13 0.3373164184629971 -0.9413913287444794
  outer loop
    vertex -14.711265316028927 29.430980828581415 5.889712334505991
    vertex -20.21126531602883 27.548198171091443 5.215079497580784
    vertex -20.211265316029223 29.430980828580513 5.889712334506508
  endloop
endfacet
facet normal -1.4350671439761484e-13 0.3373164184629971 -0.9413913287444794
  outer loop
    vertex -20.21126531602883 27.548198171091443 5.215079497580784
    vertex -14.711265316028927 29.430980828581415 5.889712334505991
    vertex -14.71126531602844 27.548198171092412 5.215079497580094
  endloop
endfacet
facet normal -0.13052619221998418 -0.33443062974217386 0.9333375954255806
  outer loop
    vertex -17.71126531602822 26.53624891570308 8.039253483813182
    vertex -17.323036748374676 28.401790905834762 8.762002018237592
    vertex -17.71126531602852 28.41903157319206 8.71388632073917
  endloop
endfacet
facet normal -0.13052619221998418 -0.33443062974217386 0.9333375954255806
  outer loop
    vertex -17.323036748374676 28.401790905834762 8.762002018237592
    vertex -17.71126531602822 26.53624891570308 8.039253483813182
    vertex -17.323036748374445 26.51900824834578 8.087369181311601
  endloop
endfacet
facet normal -0.9933992365264508 0.10798524622488477 0.038692938198278584
  outer loop
    vertex -1.9682430479937763 24.61357125639037 6.589739301212395
    vertex -2.4368919310047836 21.0443798737889 4.518678377974095
    vertex -2.4368919310045065 20.302283753171185 6.589739301212072
  endloop
endfacet
facet normal -0.9933992365264508 0.10798524622488477 0.038692938198278584
  outer loop
    vertex -2.776535358683835 17.17776875188225 6.589739301215057
    vertex -3.3432611786236643 13.644276971886196 1.901027991072599
    vertex -3.3432611786236177 11.964232490859903 6.589739301212077
  endloop
endfacet
facet normal -0.9933992365264508 0.10798524622488477 0.038692938198278584
  outer loop
    vertex -3.3432611786236643 13.644276971886196 1.901027991072599
    vertex -2.776535358683835 17.17776875188225 6.589739301215057
    vertex -2.776535358683719 17.919864872500195 4.518678377976555
  endloop
endfacet
facet normal -0.9933992365264508 0.10798524622488477 0.038692938198278584
  outer loop
    vertex -3.3432611786236643 13.644276971886196 1.901027991072599
    vertex -2.776535358683719 17.919864872500195 4.518678377976555
    vertex -1.9138916642533832 26.79361573741678 1.9010279910722352
  endloop
endfacet
facet normal -0.9933992365264508 0.10798524622488477 0.038692938198278584
  outer loop
    vertex -1.9138916642533832 26.79361573741678 1.9010279910722352
    vertex -2.776535358683719 17.919864872500195 4.518678377976555
    vertex -2.4368919310047836 21.0443798737889 4.518678377974095
  endloop
endfacet
facet normal -0.9933992365264508 0.10798524622488477 0.038692938198278584
  outer loop
    vertex -1.9138916642533832 26.79361573741678 1.9010279910722352
    vertex -2.4368919310047836 21.0443798737889 4.518678377974095
    vertex -1.9682430479941921 25.412558560091433 4.35990500228205
  endloop
endfacet
facet normal -0.9933992365264508 0.10798524622488477 0.038692938198278584
  outer loop
    vertex -1.9682430479941921 25.412558560091433 4.35990500228205
    vertex -2.4368919310047836 21.0443798737889 4.518678377974095
    vertex -1.9682430479937763 24.61357125639037 6.589739301212395
  endloop
endfacet
facet normal -0.9933992365264508 0.10798524622488477 0.038692938198278584
  outer loop
    vertex -1.9138916642533832 26.79361573741678 1.9010279910722352
    vertex -1.9682430479941921 25.412558560091433 4.35990500228205
    vertex -1.9138916642527364 25.855667377009304 4.518678377974912
  endloop
endfacet
facet normal 0.9238795325114655 -0.12908540481027048 0.3602548648823008
  outer loop
    vertex -19.010303421705004 26.283261601855568 8.745296980371974
    vertex -19.160154055462105 28.044012815483097 9.760498306696391
    vertex -19.16015405546169 26.161230157994165 9.08586546977032
  endloop
endfacet
facet normal 0.9238795325114655 -0.12908540481027048 0.3602548648823008
  outer loop
    vertex -19.160154055462105 28.044012815483097 9.760498306696391
    vertex -19.010303421705004 26.283261601855568 8.745296980371974
    vertex -19.010303421705306 28.16604425934457 9.41992981729787
  endloop
endfacet
facet normal 0.38268343236489094 0.31163973499804565 -0.8697321807106908
  outer loop
    vertex -18.099493883681674 27.424322985160142 11.489944609474906
    vertex -18.46126531602776 25.592087406754477 10.674243685323367
    vertex -18.46126531602799 27.474870064243433 11.348876522249345
  endloop
endfacet
facet normal 0.38268343236489094 0.31163973499804565 -0.8697321807106908
  outer loop
    vertex -18.46126531602776 25.592087406754477 10.674243685323367
    vertex -18.099493883681674 27.424322985160142 11.489944609474906
    vertex -18.09949388368126 25.541540327671164 10.815311772548915
  endloop
endfacet
facet normal -0.7933533402913228 0.205345224931511 -0.5730827305428318
  outer loop
    vertex -16.650605144247905 27.555278855146526 11.12446960231442
    vertex -16.412227210350768 25.7772869741614 10.157383973488763
    vertex -16.650605144247674 25.672496197657548 10.449836765388431
  endloop
endfacet
facet normal -0.7933533402913228 0.205345224931511 -0.5730827305428318
  outer loop
    vertex -16.412227210350768 25.7772869741614 10.157383973488763
    vertex -16.650605144247905 27.555278855146526 11.12446960231442
    vertex -16.41222721035116 27.6600696316504 10.832016810414649
  endloop
endfacet
facet normal 0.057479990201009704 -0.9806247041883496 0.1872731701606081
  outer loop
    vertex -1.9138916642532215 28.209145698870262 5.361969424132896
    vertex -12.711265316028943 27.548198171092665 5.21507949758003
    vertex -1.913891664253545 27.548198171094146 1.90102799107257
  endloop
endfacet
facet normal 0.4785507009659612 -0.2961840280814377 0.8265979966794266
  outer loop
    vertex -12.711265316028248 24.849666823388453 12.746210127536507
    vertex -1.9138916642535682 28.71744446259688 7.88106796060748
    vertex -12.711265316028479 26.73244948087743 13.420842964462498
  endloop
endfacet
facet normal 0.4785507009659612 -0.2961840280814377 0.8265979966794266
  outer loop
    vertex -1.9138916642535682 28.71744446259688 7.88106796060748
    vertex -12.711265316028248 24.849666823388453 12.746210127536507
    vertex -1.913891664253083 27.467049578250336 7.433030347371167
  endloop
endfacet
facet normal 0.13052619222063136 -0.3344306297421161 0.9333375954255108
  outer loop
    vertex -18.099493883682182 26.51900824834553 8.0873691813118
    vertex -17.71126531602852 28.41903157319206 8.71388632073917
    vertex -18.099493883682413 28.401790905834506 8.76200201823779
  endloop
endfacet
facet normal 0.13052619222063136 -0.3344306297421161 0.9333375954255108
  outer loop
    vertex -17.71126531602852 28.41903157319206 8.71388632073917
    vertex -18.099493883682182 26.51900824834553 8.0873691813118
    vertex -17.71126531602822 26.53624891570308 8.039253483813182
  endloop
endfacet
facet normal 0.3826834323653005 -0.3116397349979033 0.8697321807105617
  outer loop
    vertex -18.46126531602841 26.468461169262238 8.228437268537535
    vertex -18.099493883682413 28.401790905834506 8.76200201823779
    vertex -18.461265316028662 28.351243826751215 8.903070105463524
  endloop
endfacet
facet normal 0.3826834323653005 -0.3116397349979033 0.8697321807105617
  outer loop
    vertex -18.099493883682413 28.401790905834506 8.76200201823779
    vertex -18.46126531602841 26.468461169262238 8.228437268537535
    vertex -18.099493883682182 26.51900824834553 8.0873691813118
  endloop
endfacet
facet normal 0.13052619221969147 0.3344306297421869 -0.933337595425617
  outer loop
    vertex -17.711265316027806 27.407082317802914 11.538060306973252
    vertex -18.09949388368126 25.541540327671164 10.815311772548915
    vertex -18.099493883681674 27.424322985160142 11.489944609474906
  endloop
endfacet
facet normal 0.13052619221969147 0.3344306297421869 -0.933337595425617
  outer loop
    vertex -18.09949388368126 25.541540327671164 10.815311772548915
    vertex -17.711265316027806 27.407082317802914 11.538060306973252
    vertex -17.711265316027575 25.524299660313932 10.863427470047263
  endloop
endfacet
facet normal -0.3826834323653247 0.31163973499789993 -0.8697321807105522
  outer loop
    vertex -16.96126531602794 27.474870064243735 11.348876522249087
    vertex -17.323036748373752 25.54154032767137 10.81531177254871
    vertex -17.323036748373983 27.42432298516035 11.489944609474701
  endloop
endfacet
facet normal -0.3826834323653247 0.31163973499789993 -0.8697321807105522
  outer loop
    vertex -17.323036748373752 25.54154032767137 10.81531177254871
    vertex -16.96126531602794 27.474870064243735 11.348876522249087
    vertex -16.96126531602748 25.59208740675478 10.674243685323017
  endloop
endfacet
facet normal -0.608761429008804 0.2676111073226055 -0.746855955180601
  outer loop
    vertex -16.650605144247905 27.555278855146526 11.12446960231442
    vertex -16.96126531602748 25.59208740675478 10.674243685323017
    vertex -16.96126531602794 27.474870064243735 11.348876522249087
  endloop
endfacet
facet normal -0.608761429008804 0.2676111073226055 -0.746855955180601
  outer loop
    vertex -16.96126531602748 25.59208740675478 10.674243685323017
    vertex -16.650605144247905 27.555278855146526 11.12446960231442
    vertex -16.650605144247674 25.672496197657548 10.449836765388431
  endloop
endfacet
facet normal 0.6087614290083416 0.2676111073228606 -0.7468559551808864
  outer loop
    vertex -18.46126531602799 27.474870064243433 11.348876522249345
    vertex -18.771925487807657 25.6724961976569 10.449836765389236
    vertex -18.77192548780798 27.55527885514588 11.124469602315227
  endloop
endfacet
facet normal 0.6087614290083416 0.2676111073228606 -0.7468559551808864
  outer loop
    vertex -18.771925487807657 25.6724961976569 10.449836765389236
    vertex -18.46126531602799 27.474870064243433 11.348876522249345
    vertex -18.46126531602776 25.592087406754477 10.674243685323367
  endloop
endfacet
facet normal 0.991444861373833 -0.04402862767511257 0.12287622552987011
  outer loop
    vertex -19.16015405546169 26.161230157994165 9.08586546977032
    vertex -19.211265316028527 27.91305694549697 10.125973313856896
    vertex -19.211265316028157 26.030274288007988 9.451340476930993
  endloop
endfacet
facet normal 0.991444861373833 -0.04402862767511257 0.12287622552987011
  outer loop
    vertex -19.211265316028527 27.91305694549697 10.125973313856896
    vertex -19.16015405546169 26.161230157994165 9.08586546977032
    vertex -19.160154055462105 28.044012815483097 9.760498306696391
  endloop
endfacet
facet normal -0.991444861373866 0.044028627675028215 -0.12287622552963469
  outer loop
    vertex -16.2623765765942 27.782101075511623 10.491448321016634
    vertex -16.21126531602764 26.03027428800889 9.451340476929694
    vertex -16.262376576593738 25.899318418022713 9.816815484090471
  endloop
endfacet
facet normal -0.991444861373866 0.044028627675028215 -0.12287622552963469
  outer loop
    vertex -16.21126531602764 26.03027428800889 9.451340476929694
    vertex -16.2623765765942 27.782101075511623 10.491448321016634
    vertex -16.21126531602801 27.91305694549794 10.12597331385551
  endloop
endfacet
facet normal -0.9238795325111114 -0.12908540481076425 0.3602548648830319
  outer loop
    vertex -16.262376576594384 28.044012815483814 9.76049830669571
    vertex -16.41222721035102 26.283261601856008 8.745296980371728
    vertex -16.26237657659397 26.161230157994833 9.08586546976973
  endloop
endfacet
facet normal -0.9238795325111114 -0.12908540481076425 0.3602548648830319
  outer loop
    vertex -16.41222721035102 26.283261601856008 8.745296980371728
    vertex -16.262376576594384 28.044012815483814 9.76049830669571
    vertex -16.412227210351507 28.166044259345032 9.419929817297533
  endloop
endfacet
facet normal -0.7933533402911109 -0.20534522493178045 0.5730827305430282
  outer loop
    vertex -16.412227210351507 28.166044259345032 9.419929817297533
    vertex -16.650605144248228 26.388052378359955 8.452844188471337
    vertex -16.41222721035102 26.283261601856008 8.745296980371728
  endloop
endfacet
facet normal -0.7933533402911109 -0.20534522493178045 0.5730827305430282
  outer loop
    vertex -16.650605144248228 26.388052378359955 8.452844188471337
    vertex -16.412227210351507 28.166044259345032 9.419929817297533
    vertex -16.65060514424855 28.27083503584884 9.127477025397594
  endloop
endfacet
facet normal -0.6087614290084792 -0.267611107322825 0.7468559551807872
  outer loop
    vertex -16.961265316027987 26.46846116926256 8.228437268537196
    vertex -16.65060514424855 28.27083503584884 9.127477025397594
    vertex -16.961265316028427 28.351243826751517 8.903070105463174
  endloop
endfacet
facet normal -0.6087614290084792 -0.267611107322825 0.7468559551807872
  outer loop
    vertex -16.65060514424855 28.27083503584884 9.127477025397594
    vertex -16.961265316027987 26.46846116926256 8.228437268537196
    vertex -16.650605144248228 26.388052378359955 8.452844188471337
  endloop
endfacet
facet normal 0.608761429008804 -0.2676111073226055 0.746855955180601
  outer loop
    vertex -18.77192548780812 26.388052378359422 8.452844188472087
    vertex -18.461265316028662 28.351243826751215 8.903070105463524
    vertex -18.771925487808534 28.27083503584838 9.12747702539807
  endloop
endfacet
facet normal 0.608761429008804 -0.2676111073226055 0.746855955180601
  outer loop
    vertex -18.461265316028662 28.351243826751215 8.903070105463524
    vertex -18.77192548780812 26.388052378359422 8.452844188472087
    vertex -18.46126531602841 26.468461169262238 8.228437268537535
  endloop
endfacet
facet normal 0.9914448613737986 0.04402862767542102 -0.12287622553003669
  outer loop
    vertex -19.211265316028157 26.030274288007988 9.451340476930993
    vertex -19.16015405546206 27.78210107551116 10.491448321016806
    vertex -19.16015405546178 25.899318418022204 9.816815484090828
  endloop
endfacet
facet normal 0.9914448613737986 0.04402862767542102 -0.12287622553003669
  outer loop
    vertex -19.16015405546206 27.78210107551116 10.491448321016806
    vertex -19.211265316028157 26.030274288007988 9.451340476930993
    vertex -19.211265316028527 27.91305694549697 10.125973313856896
  endloop
endfacet
facet normal -0.9238795325113692 0.1290854048103489 -0.3602548648825197
  outer loop
    vertex -16.41222721035116 27.6600696316504 10.832016810414649
    vertex -16.262376576593738 25.899318418022713 9.816815484090471
    vertex -16.412227210350768 25.7772869741614 10.157383973488763
  endloop
endfacet
facet normal -0.9238795325113692 0.1290854048103489 -0.3602548648825197
  outer loop
    vertex -16.262376576593738 25.899318418022713 9.816815484090471
    vertex -16.41222721035116 27.6600696316504 10.832016810414649
    vertex -16.2623765765942 27.782101075511623 10.491448321016634
  endloop
endfacet
facet normal -0.9914448613737986 -0.04402862767542102 0.12287622553003669
  outer loop
    vertex -16.21126531602801 27.91305694549794 10.12597331385551
    vertex -16.26237657659397 26.161230157994833 9.08586546976973
    vertex -16.21126531602764 26.03027428800889 9.451340476929694
  endloop
endfacet
facet normal -0.9914448613737986 -0.04402862767542102 0.12287622553003669
  outer loop
    vertex -16.26237657659397 26.161230157994833 9.08586546976973
    vertex -16.21126531602801 27.91305694549794 10.12597331385551
    vertex -16.262376576594384 28.044012815483814 9.76049830669571
  endloop
endfacet
facet normal 0.7933533402914204 -0.20534522493146798 0.5730827305427119
  outer loop
    vertex -18.77192548780812 26.388052378359422 8.452844188472087
    vertex -19.010303421705306 28.16604425934457 9.41992981729787
    vertex -19.010303421705004 26.283261601855568 8.745296980371974
  endloop
endfacet
facet normal 0.7933533402914204 -0.20534522493146798 0.5730827305427119
  outer loop
    vertex -19.010303421705306 28.16604425934457 9.41992981729787
    vertex -18.77192548780812 26.388052378359422 8.452844188472087
    vertex -18.771925487808534 28.27083503584838 9.12747702539807
  endloop
endfacet
facet normal 0.7933533402912382 0.20534522493172458 -0.5730827305428722
  outer loop
    vertex -19.01030342170447 25.777286974160962 10.157383973488997
    vertex -18.77192548780798 27.55527885514588 11.124469602315227
    vertex -18.771925487807657 25.6724961976569 10.449836765389236
  endloop
endfacet
facet normal 0.7933533402912382 0.20534522493172458 -0.5730827305428722
  outer loop
    vertex -18.77192548780798 27.55527885514588 11.124469602315227
    vertex -19.01030342170447 25.777286974160962 10.157383973488997
    vertex -19.01030342170491 27.66006963164994 10.832016810414986
  endloop
endfacet
facet normal -0.38268343236489094 -0.31163973499804565 0.8697321807106908
  outer loop
    vertex -17.323036748374445 26.51900824834578 8.087369181311601
    vertex -16.961265316028427 28.351243826751517 8.903070105463174
    vertex -17.323036748374676 28.401790905834762 8.762002018237592
  endloop
endfacet
facet normal -0.38268343236489094 -0.31163973499804565 0.8697321807106908
  outer loop
    vertex -16.961265316028427 28.351243826751517 8.903070105463174
    vertex -17.323036748374445 26.51900824834578 8.087369181311601
    vertex -16.961265316027987 26.46846116926256 8.228437268537196
  endloop
endfacet
facet normal 1.0590510957722686e-13 -1.0 9.103828801929242e-15
  outer loop
    vertex -12.711265316029127 27.548198171092597 1.9010279910730956
    vertex -14.71126531602844 27.548198171092412 5.215079497580094
    vertex -14.71126531602895 27.54819817109234 1.9010279910730494
  endloop
endfacet
facet normal 1.0590510957722686e-13 -1.0 9.103828801929242e-15
  outer loop
    vertex -14.71126531602844 27.548198171092412 5.215079497580094
    vertex -12.711265316029127 27.548198171092597 1.9010279910730956
    vertex -12.711265316028943 27.548198171092665 5.21507949758003
  endloop
endfacet
facet normal 0.9238795325111114 0.12908540481076425 -0.3602548648830319
  outer loop
    vertex -19.16015405546178 25.899318418022204 9.816815484090828
    vertex -19.01030342170491 27.66006963164994 10.832016810414986
    vertex -19.01030342170447 25.777286974160962 10.157383973488997
  endloop
endfacet
facet normal 0.9238795325111114 0.12908540481076425 -0.3602548648830319
  outer loop
    vertex -19.01030342170491 27.66006963164994 10.832016810414986
    vertex -19.16015405546178 25.899318418022204 9.816815484090828
    vertex -19.16015405546206 27.78210107551116 10.491448321016806
  endloop
endfacet
facet normal -1.0 -1.6485852861997036e-13 7.252460472655244e-14
  outer loop
    vertex -1.9138916642543304 33.867509923236064 9.726423428612957
    vertex -1.9138916642547232 31.541364268274823 1.7730144463712349e-12
    vertex -1.9138916642535682 28.71744446259688 7.88106796060748
  endloop
endfacet
facet normal -1.0 -1.6485852861997036e-13 7.252460472655244e-14
  outer loop
    vertex -1.9138916642547232 31.541364268274823 1.7730144463712349e-12
    vertex -1.9138916642543304 33.867509923236064 9.726423428612957
    vertex -1.9138916642555779 37.35265177149366 -1.155058271251619e-13
  endloop
endfacet
facet normal -0.13052619222038858 0.3344306297421269 -0.9333375954255408
  outer loop
    vertex -17.323036748373983 27.42432298516035 11.489944609474701
    vertex -17.711265316027575 25.524299660313932 10.863427470047263
    vertex -17.711265316027806 27.407082317802914 11.538060306973252
  endloop
endfacet
facet normal -0.13052619222038858 0.3344306297421269 -0.9333375954255408
  outer loop
    vertex -17.711265316027575 25.524299660313932 10.863427470047263
    vertex -17.323036748373983 27.42432298516035 11.489944609474701
    vertex -17.323036748373752 25.54154032767137 10.81531177254871
  endloop
endfacet
facet normal 1.2175500117280554e-13 -0.9413913287444783 -0.3373164184630002
  outer loop
    vertex -12.711265316028248 24.849666823388453 12.746210127536507
    vertex -14.71126531602844 27.548198171092412 5.215079497580094
    vertex -12.711265316028943 27.548198171092665 5.21507949758003
  endloop
endfacet
facet normal 1.2175500117280554e-13 -0.9413913287444783 -0.3373164184630002
  outer loop
    vertex -14.71126531602844 27.548198171092412 5.215079497580094
    vertex -12.711265316028248 24.849666823388453 12.746210127536507
    vertex -16.650605144248228 26.388052378359955 8.452844188471337
  endloop
endfacet
facet normal 1.2175500117280554e-13 -0.9413913287444783 -0.3373164184630002
  outer loop
    vertex -14.71126531602844 27.548198171092412 5.215079497580094
    vertex -16.650605144248228 26.388052378359955 8.452844188471337
    vertex -20.21126531602883 27.548198171091443 5.215079497580784
  endloop
endfacet
facet normal 1.2175500117280554e-13 -0.9413913287444783 -0.3373164184630002
  outer loop
    vertex -20.21126531602883 27.548198171091443 5.215079497580784
    vertex -16.650605144248228 26.388052378359955 8.452844188471337
    vertex -16.961265316027987 26.46846116926256 8.228437268537196
  endloop
endfacet
facet normal 1.2175500117280554e-13 -0.9413913287444783 -0.3373164184630002
  outer loop
    vertex -20.21126531602883 27.548198171091443 5.215079497580784
    vertex -16.961265316027987 26.46846116926256 8.228437268537196
    vertex -17.323036748374445 26.51900824834578 8.087369181311601
  endloop
endfacet
facet normal 1.2175500117280554e-13 -0.9413913287444783 -0.3373164184630002
  outer loop
    vertex -20.21126531602883 27.548198171091443 5.215079497580784
    vertex -17.323036748374445 26.51900824834578 8.087369181311601
    vertex -17.71126531602822 26.53624891570308 8.039253483813182
  endloop
endfacet
facet normal 1.2175500117280554e-13 -0.9413913287444783 -0.3373164184630002
  outer loop
    vertex -16.650605144248228 26.388052378359955 8.452844188471337
    vertex -12.711265316028248 24.849666823388453 12.746210127536507
    vertex -16.41222721035102 26.283261601856008 8.745296980371728
  endloop
endfacet
facet normal 1.2175500117280554e-13 -0.9413913287444783 -0.3373164184630002
  outer loop
    vertex -16.41222721035102 26.283261601856008 8.745296980371728
    vertex -12.711265316028248 24.849666823388453 12.746210127536507
    vertex -16.26237657659397 26.161230157994833 9.08586546976973
  endloop
endfacet
facet normal 1.2175500117280554e-13 -0.9413913287444783 -0.3373164184630002
  outer loop
    vertex -16.26237657659397 26.161230157994833 9.08586546976973
    vertex -12.711265316028248 24.849666823388453 12.746210127536507
    vertex -16.21126531602764 26.03027428800889 9.451340476929694
  endloop
endfacet
facet normal 1.2175500117280554e-13 -0.9413913287444783 -0.3373164184630002
  outer loop
    vertex -16.21126531602764 26.03027428800889 9.451340476929694
    vertex -12.711265316028248 24.849666823388453 12.746210127536507
    vertex -16.262376576593738 25.899318418022713 9.816815484090471
  endloop
endfacet
facet normal 1.2175500117280554e-13 -0.9413913287444783 -0.3373164184630002
  outer loop
    vertex -16.262376576593738 25.899318418022713 9.816815484090471
    vertex -12.711265316028248 24.849666823388453 12.746210127536507
    vertex -16.412227210350768 25.7772869741614 10.157383973488763
  endloop
endfacet
facet normal 1.2175500117280554e-13 -0.9413913287444783 -0.3373164184630002
  outer loop
    vertex -16.412227210350768 25.7772869741614 10.157383973488763
    vertex -12.711265316028248 24.849666823388453 12.746210127536507
    vertex -16.650605144247674 25.672496197657548 10.449836765388431
  endloop
endfacet
facet normal 1.2175500117280554e-13 -0.9413913287444783 -0.3373164184630002
  outer loop
    vertex -16.650605144247674 25.672496197657548 10.449836765388431
    vertex -12.711265316028248 24.849666823388453 12.746210127536507
    vertex -16.96126531602748 25.59208740675478 10.674243685323017
  endloop
endfacet
facet normal 1.2175500117280554e-13 -0.9413913287444783 -0.3373164184630002
  outer loop
    vertex -16.96126531602748 25.59208740675478 10.674243685323017
    vertex -12.711265316028248 24.849666823388453 12.746210127536507
    vertex -17.323036748373752 25.54154032767137 10.81531177254871
  endloop
endfacet
facet normal 1.2175500117280554e-13 -0.9413913287444783 -0.3373164184630002
  outer loop
    vertex -17.323036748373752 25.54154032767137 10.81531177254871
    vertex -12.711265316028248 24.849666823388453 12.746210127536507
    vertex -17.711265316027575 25.524299660313932 10.863427470047263
  endloop
endfacet
facet normal 1.2175500117280554e-13 -0.9413913287444783 -0.3373164184630002
  outer loop
    vertex -20.21126531602883 27.548198171091443 5.215079497580784
    vertex -19.16015405546169 26.161230157994165 9.08586546977032
    vertex -20.21126531602809 24.84966682338732 12.746210127536793
  endloop
endfacet
facet normal 1.2175500117280554e-13 -0.9413913287444783 -0.3373164184630002
  outer loop
    vertex -19.16015405546169 26.161230157994165 9.08586546977032
    vertex -20.21126531602883 27.548198171091443 5.215079497580784
    vertex -19.010303421705004 26.283261601855568 8.745296980371974
  endloop
endfacet
facet normal 1.2175500117280554e-13 -0.9413913287444783 -0.3373164184630002
  outer loop
    vertex -19.010303421705004 26.283261601855568 8.745296980371974
    vertex -20.21126531602883 27.548198171091443 5.215079497580784
    vertex -18.77192548780812 26.388052378359422 8.452844188472087
  endloop
endfacet
facet normal 1.2175500117280554e-13 -0.9413913287444783 -0.3373164184630002
  outer loop
    vertex -18.77192548780812 26.388052378359422 8.452844188472087
    vertex -20.21126531602883 27.548198171091443 5.215079497580784
    vertex -18.46126531602841 26.468461169262238 8.228437268537535
  endloop
endfacet
facet normal 1.2175500117280554e-13 -0.9413913287444783 -0.3373164184630002
  outer loop
    vertex -18.46126531602841 26.468461169262238 8.228437268537535
    vertex -20.21126531602883 27.548198171091443 5.215079497580784
    vertex -18.099493883682182 26.51900824834553 8.0873691813118
  endloop
endfacet
facet normal 1.2175500117280554e-13 -0.9413913287444783 -0.3373164184630002
  outer loop
    vertex -18.099493883682182 26.51900824834553 8.0873691813118
    vertex -20.21126531602883 27.548198171091443 5.215079497580784
    vertex -17.71126531602822 26.53624891570308 8.039253483813182
  endloop
endfacet
facet normal 1.2175500117280554e-13 -0.9413913287444783 -0.3373164184630002
  outer loop
    vertex -20.21126531602809 24.84966682338732 12.746210127536793
    vertex -19.16015405546169 26.161230157994165 9.08586546977032
    vertex -19.211265316028157 26.030274288007988 9.451340476930993
  endloop
endfacet
facet normal 1.2175500117280554e-13 -0.9413913287444783 -0.3373164184630002
  outer loop
    vertex -20.21126531602809 24.84966682338732 12.746210127536793
    vertex -19.211265316028157 26.030274288007988 9.451340476930993
    vertex -19.16015405546178 25.899318418022204 9.816815484090828
  endloop
endfacet
facet normal 1.2175500117280554e-13 -0.9413913287444783 -0.3373164184630002
  outer loop
    vertex -20.21126531602809 24.84966682338732 12.746210127536793
    vertex -19.16015405546178 25.899318418022204 9.816815484090828
    vertex -19.01030342170447 25.777286974160962 10.157383973488997
  endloop
endfacet
facet normal 1.2175500117280554e-13 -0.9413913287444783 -0.3373164184630002
  outer loop
    vertex -20.21126531602809 24.84966682338732 12.746210127536793
    vertex -19.01030342170447 25.777286974160962 10.157383973488997
    vertex -18.771925487807657 25.6724961976569 10.449836765389236
  endloop
endfacet
facet normal 1.2175500117280554e-13 -0.9413913287444783 -0.3373164184630002
  outer loop
    vertex -20.21126531602809 24.84966682338732 12.746210127536793
    vertex -18.771925487807657 25.6724961976569 10.449836765389236
    vertex -18.46126531602776 25.592087406754477 10.674243685323367
  endloop
endfacet
facet normal 1.2175500117280554e-13 -0.9413913287444783 -0.3373164184630002
  outer loop
    vertex -20.21126531602809 24.84966682338732 12.746210127536793
    vertex -18.46126531602776 25.592087406754477 10.674243685323367
    vertex -18.09949388368126 25.541540327671164 10.815311772548915
  endloop
endfacet
facet normal 1.2175500117280554e-13 -0.9413913287444783 -0.3373164184630002
  outer loop
    vertex -20.21126531602809 24.84966682338732 12.746210127536793
    vertex -18.09949388368126 25.541540327671164 10.815311772548915
    vertex -17.711265316027575 25.524299660313932 10.863427470047263
  endloop
endfacet
facet normal 1.2175500117280554e-13 -0.9413913287444783 -0.3373164184630002
  outer loop
    vertex -20.21126531602809 24.84966682338732 12.746210127536793
    vertex -17.711265316027575 25.524299660313932 10.863427470047263
    vertex -12.711265316028248 24.849666823388453 12.746210127536507
  endloop
endfacet
facet normal 0.06209494536515648 -0.9395746759156723 -0.3366654810610345
  outer loop
    vertex -1.9138916642532215 28.209145698870262 5.361969424132896
    vertex -12.711265316028248 24.849666823388453 12.746210127536507
    vertex -12.711265316028943 27.548198171092665 5.21507949758003
  endloop
endfacet
facet normal 0.06209494536515648 -0.9395746759156723 -0.3366654810610345
  outer loop
    vertex -12.711265316028248 24.849666823388453 12.746210127536507
    vertex -1.9138916642532215 28.209145698870262 5.361969424132896
    vertex -1.913891664253083 27.467049578250336 7.433030347371167
  endloop
endfacet
facet normal 1.4605354970523469e-13 -1.0 1.8873791418628062e-14
  outer loop
    vertex -12.711265316028943 27.548198171092665 5.21507949758003
    vertex -12.711265316029127 27.548198171092597 1.9010279910730956
    vertex -1.913891664253545 27.548198171094146 1.90102799107257
  endloop
endfacet
facet normal 1.0 1.2826063869789583e-13 -1.3640895178351484e-13
  outer loop
    vertex 20.21126531602809 27.4747861856351 0.0
    vertex 20.211265316028783 33.86750992323923 9.726423428611387
    vertex 20.21126531603001 25.113571256392863 6.589739301211532
  endloop
endfacet
facet normal 1.0 1.2826063869789583e-13 -1.3640895178351484e-13
  outer loop
    vertex 20.211265316028783 33.86750992323923 9.726423428611387
    vertex 20.21126531602809 27.4747861856351 0.0
    vertex 20.211265316027166 37.3526517714971 -1.8942955648526547e-12
  endloop
endfacet
facet normal 9.215889950869274e-14 -0.33731641846293275 0.9413913287445024
  outer loop
    vertex -1.9138916642535682 28.71744446259688 7.88106796060748
    vertex 20.211265316028783 33.86750992323923 9.726423428611387
    vertex -1.9138916642543304 33.867509923236064 9.726423428612957
  endloop
endfacet
facet normal 9.215889950869274e-14 -0.33731641846293275 0.9413913287445024
  outer loop
    vertex 20.211265316028783 33.86750992323923 9.726423428611387
    vertex -1.9138916642535682 28.71744446259688 7.88106796060748
    vertex -1.913891664253083 27.467049578250336 7.433030347371167
  endloop
endfacet
facet normal 9.215889950869274e-14 -0.33731641846293275 0.9413913287445024
  outer loop
    vertex 20.211265316028783 33.86750992323923 9.726423428611387
    vertex -1.913891664253083 27.467049578250336 7.433030347371167
    vertex 15.865390028377579 27.46704957825285 7.433030347370659
  endloop
endfacet
facet normal 9.215889950869274e-14 -0.33731641846293275 0.9413913287445024
  outer loop
    vertex 20.211265316028783 33.86750992323923 9.726423428611387
    vertex 15.865390028377579 27.46704957825285 7.433030347370659
    vertex 15.865390028377695 25.11357125639215 6.589739301211982
  endloop
endfacet
facet normal 9.215889950869274e-14 -0.33731641846293275 0.9413913287445024
  outer loop
    vertex 20.211265316028783 33.86750992323923 9.726423428611387
    vertex 15.865390028377695 25.11357125639215 6.589739301211982
    vertex 20.21126531603001 25.113571256392863 6.589739301211532
  endloop
endfacet
facet normal 3.741568530529263e-14 1.3433698597960387e-14 1.0
  outer loop
    vertex -0.34326117862388433 11.964232490861427 6.589739301212262
    vertex -2.776535358683835 17.17776875188225 6.589739301215057
    vertex -3.3432611786236177 11.964232490859903 6.589739301212077
  endloop
endfacet
facet normal 3.741568530529263e-14 1.3433698597960387e-14 1.0
  outer loop
    vertex -2.776535358683835 17.17776875188225 6.589739301215057
    vertex -0.34326117862388433 11.964232490861427 6.589739301212262
    vertex 6.173639453072349 17.177768751883917 6.589739301213896
  endloop
endfacet
facet normal 3.741568530529263e-14 1.3433698597960387e-14 1.0
  outer loop
    vertex 6.173639453072349 17.177768751883917 6.589739301213896
    vertex -0.34326117862388433 11.964232490861427 6.589739301212262
    vertex 0.8277641654212108 10.24196624737608 6.589739301212453
  endloop
endfacet
facet normal 3.741568530529263e-14 1.3433698597960387e-14 1.0
  outer loop
    vertex 6.173639453072349 17.177768751883917 6.589739301213896
    vertex 0.8277641654212108 10.24196624737608 6.589739301212453
    vertex 20.21126531603001 25.113571256392863 6.589739301211532
  endloop
endfacet
facet normal 3.741568530529263e-14 1.3433698597960387e-14 1.0
  outer loop
    vertex 6.173639453072349 17.177768751883917 6.589739301213896
    vertex 20.21126531603001 25.113571256392863 6.589739301211532
    vertex 15.86539002837788 24.613571256393023 6.589739301212017
  endloop
endfacet
facet normal 3.741568530529263e-14 1.3433698597960387e-14 1.0
  outer loop
    vertex 20.21126531603001 25.113571256392863 6.589739301211532
    vertex 15.865390028377695 25.11357125639215 6.589739301211982
    vertex 15.86539002837788 24.613571256393023 6.589739301212017
  endloop
endfacet
facet normal 3.741568530529263e-14 1.3433698597960387e-14 1.0
  outer loop
    vertex 6.1736394530719565 20.302283753172457 6.589739301211408
    vertex -1.9682430479937763 24.61357125639037 6.589739301212395
    vertex -2.4368919310045065 20.302283753171185 6.589739301212072
  endloop
endfacet
facet normal 3.741568530529263e-14 1.3433698597960387e-14 1.0
  outer loop
    vertex -1.9682430479937763 24.61357125639037 6.589739301212395
    vertex 6.1736394530719565 20.302283753172457 6.589739301211408
    vertex 15.86539002837788 24.613571256393023 6.589739301212017
  endloop
endfacet
facet normal 3.741568530529263e-14 1.3433698597960387e-14 1.0
  outer loop
    vertex 15.86539002837788 24.613571256393023 6.589739301212017
    vertex 6.1736394530719565 20.302283753172457 6.589739301211408
    vertex 6.173639453072349 17.177768751883917 6.589739301213896
  endloop
endfacet
facet normal 1.062864874971007e-13 -0.3373164184633279 0.9413913287443608
  outer loop
    vertex 15.865390028376494 25.41255856009423 4.359905002281238
    vertex -1.9138916642527364 25.855667377009304 4.518678377974912
    vertex -1.9682430479941921 25.412558560091433 4.35990500228205
  endloop
endfacet
facet normal 1.062864874971007e-13 -0.3373164184633279 0.9413913287443608
  outer loop
    vertex -1.9138916642527364 25.855667377009304 4.518678377974912
    vertex 15.865390028376563 28.209145698872945 5.361969424131943
    vertex -1.9138916642532215 28.209145698870262 5.361969424132896
  endloop
endfacet
facet normal 1.062864874971007e-13 -0.3373164184633279 0.9413913287443608
  outer loop
    vertex 15.865390028376563 28.209145698872945 5.361969424131943
    vertex -1.9138916642527364 25.855667377009304 4.518678377974912
    vertex 15.865390028376494 25.41255856009423 4.359905002281238
  endloop
endfacet
facet normal 1.2330926563258487e-13 -0.9413913287444381 -0.3373164184631121
  outer loop
    vertex 15.865390028377579 27.46704957825285 7.433030347370659
    vertex -1.9138916642532215 28.209145698870262 5.361969424132896
    vertex 15.865390028376563 28.209145698872945 5.361969424131943
  endloop
endfacet
facet normal 1.2330926563258487e-13 -0.9413913287444381 -0.3373164184631121
  outer loop
    vertex -1.9138916642532215 28.209145698870262 5.361969424132896
    vertex 15.865390028377579 27.46704957825285 7.433030347370659
    vertex -1.913891664253083 27.467049578250336 7.433030347371167
  endloop
endfacet
endsolid working_stargate_mk2_base_l_1
Working Stargate Mk2
www.glitch.org.uk