solid working_stargate_mk2_base_r_1
facet normal 6.873595496260029e-16 0.33731641846297084 -0.9413913287444888
  outer loop
    vertex 14.711265316028278 29.43098082858153 5.889712334502933
    vertex 20.211265316028484 27.54819817109255 5.215079497577308
    vertex 14.711265316028094 27.548198171092505 5.215079497577088
  endloop
endfacet
facet normal 6.873595496260029e-16 0.33731641846297084 -0.9413913287444888
  outer loop
    vertex 20.211265316028484 27.54819817109255 5.215079497577308
    vertex 14.711265316028278 29.43098082858153 5.889712334502933
    vertex 20.211265316028577 29.430980828581646 5.889712334502979
  endloop
endfacet
facet normal 4.021899844246067e-14 6.296074772649268e-13 1.0
  outer loop
    vertex -6.173639453070478 17.919864872498625 4.5186783779753394
    vertex 2.4368919310055692 21.044379873786728 4.518678377972325
    vertex -6.17363945307094 21.044379873787143 4.518678377972856
  endloop
endfacet
facet normal 4.021899844246067e-14 6.296074772649268e-13 1.0
  outer loop
    vertex 2.4368919310055692 21.044379873786728 4.518678377972325
    vertex -6.173639453070478 17.919864872498625 4.5186783779753394
    vertex 2.7765353586850594 17.91986487249807 4.518678377974846
  endloop
endfacet
facet normal 0.8106632537018 -0.5511965523109369 -0.19750303749094011
  outer loop
    vertex -0.8277641654183462 11.922010728399579 1.901027991071571
    vertex 0.3432611786264948 11.964232490858908 6.589739301210937
    vertex -0.8277641654182769 10.241966247373377 6.589739301211274
  endloop
endfacet
facet normal 0.8106632537018 -0.5511965523109369 -0.19750303749094011
  outer loop
    vertex 0.3432611786264948 11.964232490858908 6.589739301210937
    vertex -0.8277641654183462 11.922010728399579 1.901027991071571
    vertex 0.34326117862596345 13.644276971884972 1.9010279910699943
  endloop
endfacet
facet normal 1.0 -6.807578866807625e-14 4.588918539004884e-14
  outer loop
    vertex 1.9138916642528752 26.793615737414424 1.9010279910703467
    vertex 1.9138916642527595 28.209145698868 5.361969424130973
    vertex 1.913891664252644 25.85566737700704 4.518678377973059
  endloop
endfacet
facet normal 1.0 -6.807578866807625e-14 4.588918539004884e-14
  outer loop
    vertex 1.9138916642527595 28.209145698868 5.361969424130973
    vertex 1.9138916642528752 26.793615737414424 1.9010279910703467
    vertex 1.9138916642528983 27.548198171091812 1.9010279910706642
  endloop
endfacet
facet normal -1.5918958655627786e-13 -0.9413913287444916 -0.33731641846296295
  outer loop
    vertex 3.3432611786255584 13.644276971884095 1.901027991070953
    vertex 0.3432611786264948 11.964232490858908 6.589739301210937
    vertex 0.34326117862596345 13.644276971884972 1.9010279910699943
  endloop
endfacet
facet normal -1.5918958655627786e-13 -0.9413913287444916 -0.33731641846296295
  outer loop
    vertex 0.3432611786264948 11.964232490858908 6.589739301210937
    vertex 3.3432611786255584 13.644276971884095 1.901027991070953
    vertex 3.3432611786262285 11.964232490857961 6.589739301210495
  endloop
endfacet
facet normal 1.0 4.338196468722818e-14 3.355201482118008e-14
  outer loop
    vertex 14.711265316030058 0.681170448213585 -2.3101165425032376e-14
    vertex 14.711265316028301 27.54819817109234 1.9010279910700405
    vertex 14.711265316028973 0.0 1.9010279910703005
  endloop
endfacet
facet normal 1.0 4.338196468722818e-14 3.355201482118008e-14
  outer loop
    vertex 14.711265316028301 27.54819817109234 1.9010279910700405
    vertex 14.711265316030058 0.681170448213585 -2.3101165425032376e-14
    vertex 14.71126531602807 31.541364268273043 1.4438228390645236e-13
  endloop
endfacet
facet normal 1.0 4.338196468722818e-14 3.355201482118008e-14
  outer loop
    vertex 14.711265316028301 27.54819817109234 1.9010279910700405
    vertex 14.71126531602807 31.541364268273043 1.4438228390645236e-13
    vertex 14.711265316028094 27.548198171092505 5.215079497577088
  endloop
endfacet
facet normal 1.0 4.338196468722818e-14 3.355201482118008e-14
  outer loop
    vertex 14.711265316028094 27.548198171092505 5.215079497577088
    vertex 14.71126531602807 31.541364268273043 1.4438228390645236e-13
    vertex 14.711265316028094 30.86019382005941 1.9010279910693764
  endloop
endfacet
facet normal 1.0 4.338196468722818e-14 3.355201482118008e-14
  outer loop
    vertex 14.711265316028094 27.548198171092505 5.215079497577088
    vertex 14.711265316028094 30.86019382005941 1.9010279910693764
    vertex 14.711265316028278 29.43098082858153 5.889712334502933
  endloop
endfacet
facet normal 0.1305261922201258 -0.3344306297421239 0.9333375954255788
  outer loop
    vertex 17.323036748374513 26.519008248346452 8.087369181308398
    vertex 17.71126531602829 28.41903157319282 8.713886320735892
    vertex 17.323036748374466 28.401790905835455 8.762002018234337
  endloop
endfacet
facet normal 0.1305261922201258 -0.3344306297421239 0.9333375954255788
  outer loop
    vertex 17.71126531602829 28.41903157319282 8.713886320735892
    vertex 17.323036748374513 26.519008248346452 8.087369181308398
    vertex 17.71126531602829 26.53624891570382 8.039253483809953
  endloop
endfacet
facet normal 2.0518009645000415e-14 -0.9413913287444475 -0.33731641846308585
  outer loop
    vertex 1.9138916642529213 27.46704957824816 7.433030347369273
    vertex -15.865390028377025 28.20914569886742 5.361969424131553
    vertex 1.9138916642527595 28.209145698868 5.361969424130973
  endloop
endfacet
facet normal 2.0518009645000415e-14 -0.9413913287444475 -0.33731641846308585
  outer loop
    vertex -15.865390028377025 28.20914569886742 5.361969424131553
    vertex 1.9138916642529213 27.46704957824816 7.433030347369273
    vertex -15.86539002837774 27.4670495782474 7.433030347370287
  endloop
endfacet
facet normal -0.13052619222048975 -0.334430629742114 0.9333375954255313
  outer loop
    vertex 18.09949388368225 26.51900824834636 8.087369181308542
    vertex 17.71126531602829 28.41903157319282 8.713886320735892
    vertex 17.71126531602829 26.53624891570382 8.039253483809953
  endloop
endfacet
facet normal -0.13052619222048975 -0.334430629742114 0.9333375954255313
  outer loop
    vertex 17.71126531602829 28.41903157319282 8.713886320735892
    vertex 18.09949388368225 26.51900824834636 8.087369181308542
    vertex 18.099493883682204 28.401790905835337 8.762002018234481
  endloop
endfacet
facet normal 5.066045533928625e-14 -0.3373164184629065 0.9413913287445118
  outer loop
    vertex -15.865390028377487 25.113571256386674 6.589739301211662
    vertex -15.86539002837774 27.4670495782474 7.433030347370287
    vertex -20.2112653160298 25.113571256386603 6.5897393012115835
  endloop
endfacet
facet normal 5.066045533928625e-14 -0.3373164184629065 0.9413913287445118
  outer loop
    vertex -20.211265316029916 33.867509923233015 9.726423428611202
    vertex -15.86539002837774 27.4670495782474 7.433030347370287
    vertex 1.9138916642531985 33.86750992323392 9.726423428610879
  endloop
endfacet
facet normal 5.066045533928625e-14 -0.3373164184629065 0.9413913287445118
  outer loop
    vertex -15.86539002837774 27.4670495782474 7.433030347370287
    vertex -20.211265316029916 33.867509923233015 9.726423428611202
    vertex -20.2112653160298 25.113571256386603 6.5897393012115835
  endloop
endfacet
facet normal 5.066045533928625e-14 -0.3373164184629065 0.9413913287445118
  outer loop
    vertex 1.9138916642531985 33.86750992323392 9.726423428610879
    vertex -15.86539002837774 27.4670495782474 7.433030347370287
    vertex 1.9138916642529213 27.46704957824816 7.433030347369273
  endloop
endfacet
facet normal 5.066045533928625e-14 -0.3373164184629065 0.9413913287445118
  outer loop
    vertex 1.9138916642531985 33.86750992323392 9.726423428610879
    vertex 1.9138916642529213 27.46704957824816 7.433030347369273
    vertex 1.9138916642532215 28.717444462594685 7.8810679606055505
  endloop
endfacet
facet normal 3.653286735093866e-14 -0.3373164184633016 0.9413913287443703
  outer loop
    vertex 1.968243047994146 25.41255856008917 4.359905002280199
    vertex 1.913891664252644 25.85566737700704 4.518678377973059
    vertex -15.86539002837654 25.412558560088687 4.359905002280923
  endloop
endfacet
facet normal 3.653286735093866e-14 -0.3373164184633016 0.9413913287443703
  outer loop
    vertex -15.86539002837654 25.412558560088687 4.359905002280923
    vertex 1.9138916642527595 28.209145698868 5.361969424130973
    vertex -15.865390028377025 28.20914569886742 5.361969424131553
  endloop
endfacet
facet normal 3.653286735093866e-14 -0.3373164184633016 0.9413913287443703
  outer loop
    vertex 1.9138916642527595 28.209145698868 5.361969424130973
    vertex -15.86539002837654 25.412558560088687 4.359905002280923
    vertex 1.913891664252644 25.85566737700704 4.518678377973059
  endloop
endfacet
facet normal 4.851791555154987e-14 4.130029651605664e-14 1.0
  outer loop
    vertex -0.8277641654182769 10.241966247373377 6.589739301211274
    vertex -15.865390028377579 24.613571256387548 6.589739301211725
    vertex -20.2112653160298 25.113571256386603 6.5897393012115835
  endloop
endfacet
facet normal 4.851791555154987e-14 4.130029651605664e-14 1.0
  outer loop
    vertex -15.865390028377579 24.613571256387548 6.589739301211725
    vertex -0.8277641654182769 10.241966247373377 6.589739301211274
    vertex -6.173639453070686 17.177768751880198 6.5897393012129815
  endloop
endfacet
facet normal 4.851791555154987e-14 4.130029651605664e-14 1.0
  outer loop
    vertex -15.865390028377579 24.613571256387548 6.589739301211725
    vertex -6.173639453070686 17.177768751880198 6.5897393012129815
    vertex -6.173639453070871 20.302283753168762 6.5897393012103995
  endloop
endfacet
facet normal 4.851791555154987e-14 4.130029651605664e-14 1.0
  outer loop
    vertex -6.173639453070686 17.177768751880198 6.5897393012129815
    vertex -0.8277641654182769 10.241966247373377 6.589739301211274
    vertex 2.776535358685498 17.177768751880198 6.58973930121336
  endloop
endfacet
facet normal 4.851791555154987e-14 4.130029651605664e-14 1.0
  outer loop
    vertex 2.776535358685498 17.177768751880198 6.58973930121336
    vertex -0.8277641654182769 10.241966247373377 6.589739301211274
    vertex 0.3432611786264948 11.964232490858908 6.589739301210937
  endloop
endfacet
facet normal 4.851791555154987e-14 4.130029651605664e-14 1.0
  outer loop
    vertex 2.776535358685498 17.177768751880198 6.58973930121336
    vertex 0.3432611786264948 11.964232490858908 6.589739301210937
    vertex 3.3432611786262285 11.964232490857961 6.589739301210495
  endloop
endfacet
facet normal 4.851791555154987e-14 4.130029651605664e-14 1.0
  outer loop
    vertex -6.173639453070871 20.302283753168762 6.5897393012103995
    vertex 1.9682430479940767 24.613571256388173 6.589739301210573
    vertex -15.865390028377579 24.613571256387548 6.589739301211725
  endloop
endfacet
facet normal 4.851791555154987e-14 4.130029651605664e-14 1.0
  outer loop
    vertex 1.9682430479940767 24.613571256388173 6.589739301210573
    vertex -6.173639453070871 20.302283753168762 6.5897393012103995
    vertex 2.4368919310055923 20.30228375316906 6.589739301210325
  endloop
endfacet
facet normal 4.851791555154987e-14 4.130029651605664e-14 1.0
  outer loop
    vertex -15.865390028377487 25.113571256386674 6.589739301211662
    vertex -20.2112653160298 25.113571256386603 6.5897393012115835
    vertex -15.865390028377579 24.613571256387548 6.589739301211725
  endloop
endfacet
facet normal 1.0 4.735502346916491e-14 -2.891526377467186e-14
  outer loop
    vertex -15.86539002837654 25.412558560088687 4.359905002280923
    vertex -15.865390028377487 25.113571256386674 6.589739301211662
    vertex -15.865390028377579 24.613571256387548 6.589739301211725
  endloop
endfacet
facet normal 1.0 4.735502346916491e-14 -2.891526377467186e-14
  outer loop
    vertex -15.865390028377487 25.113571256386674 6.589739301211662
    vertex -15.86539002837654 25.412558560088687 4.359905002280923
    vertex -15.86539002837774 27.4670495782474 7.433030347370287
  endloop
endfacet
facet normal 1.0 4.735502346916491e-14 -2.891526377467186e-14
  outer loop
    vertex -15.86539002837774 27.4670495782474 7.433030347370287
    vertex -15.86539002837654 25.412558560088687 4.359905002280923
    vertex -15.865390028377025 28.20914569886742 5.361969424131553
  endloop
endfacet
facet normal 2.8650934792448997e-14 -0.9413913287444937 -0.3373164184629572
  outer loop
    vertex 2.4368919310055923 20.30228375316906 6.589739301210325
    vertex -6.17363945307094 21.044379873787143 4.518678377972856
    vertex 2.4368919310055692 21.044379873786728 4.518678377972325
  endloop
endfacet
facet normal 2.8650934792448997e-14 -0.9413913287444937 -0.3373164184629572
  outer loop
    vertex -6.17363945307094 21.044379873787143 4.518678377972856
    vertex 2.4368919310055923 20.30228375316906 6.589739301210325
    vertex -6.173639453070871 20.302283753168762 6.5897393012103995
  endloop
endfacet
facet normal -2.778947966808496e-14 0.9413913287444902 0.33731641846296695
  outer loop
    vertex -20.211265316029777 37.352651771490635 -2.1657342585967854e-12
    vertex 1.9138916642531985 33.86750992323392 9.726423428610879
    vertex 1.9138916642529675 37.35265177149126 -2.2927906684344635e-12
  endloop
endfacet
facet normal -2.778947966808496e-14 0.9413913287444902 0.33731641846296695
  outer loop
    vertex 1.9138916642531985 33.86750992323392 9.726423428610879
    vertex -20.211265316029777 37.352651771490635 -2.1657342585967854e-12
    vertex -20.211265316029916 33.867509923233015 9.726423428611202
  endloop
endfacet
facet normal -0.5855126720214098 -0.7631513575666247 -0.27345002531827844
  outer loop
    vertex 14.711265316028973 0.0 1.9010279910703005
    vertex -20.211265316028875 27.47478618562863 0.0
    vertex 14.711265316030058 0.681170448213585 -2.3101165425032376e-14
  endloop
endfacet
facet normal -0.5855126720214098 -0.7631513575666247 -0.27345002531827844
  outer loop
    vertex -20.211265316028875 27.47478618562863 0.0
    vertex 14.711265316028973 0.0 1.9010279910703005
    vertex -0.8277641654183462 11.922010728399579 1.901027991071571
  endloop
endfacet
facet normal -0.5855126720214098 -0.7631513575666247 -0.27345002531827844
  outer loop
    vertex -20.211265316028875 27.47478618562863 0.0
    vertex -0.8277641654183462 11.922010728399579 1.901027991071571
    vertex -20.2112653160298 25.113571256386603 6.5897393012115835
  endloop
endfacet
facet normal -0.5855126720214098 -0.7631513575666247 -0.27345002531827844
  outer loop
    vertex -20.2112653160298 25.113571256386603 6.5897393012115835
    vertex -0.8277641654183462 11.922010728399579 1.901027991071571
    vertex -0.8277641654182769 10.241966247373377 6.589739301211274
  endloop
endfacet
facet normal 0.9933992365264342 0.10798524622506822 0.03869293819819021
  outer loop
    vertex 3.3432611786255584 13.644276971884095 1.901027991070953
    vertex 2.776535358685498 17.177768751880198 6.58973930121336
    vertex 3.3432611786262285 11.964232490857961 6.589739301210495
  endloop
endfacet
facet normal 0.9933992365264342 0.10798524622506822 0.03869293819819021
  outer loop
    vertex 2.776535358685498 17.177768751880198 6.58973930121336
    vertex 3.3432611786255584 13.644276971884095 1.901027991070953
    vertex 2.7765353586850594 17.91986487249807 4.518678377974846
  endloop
endfacet
facet normal 0.9933992365264342 0.10798524622506822 0.03869293819819021
  outer loop
    vertex 2.7765353586850594 17.91986487249807 4.518678377974846
    vertex 3.3432611786255584 13.644276971884095 1.901027991070953
    vertex 1.9138916642528752 26.793615737414424 1.9010279910703467
  endloop
endfacet
facet normal 0.9933992365264342 0.10798524622506822 0.03869293819819021
  outer loop
    vertex 2.7765353586850594 17.91986487249807 4.518678377974846
    vertex 1.9138916642528752 26.793615737414424 1.9010279910703467
    vertex 2.4368919310055692 21.044379873786728 4.518678377972325
  endloop
endfacet
facet normal 0.9933992365264342 0.10798524622506822 0.03869293819819021
  outer loop
    vertex 2.4368919310055692 21.044379873786728 4.518678377972325
    vertex 1.9138916642528752 26.793615737414424 1.9010279910703467
    vertex 1.968243047994146 25.41255856008917 4.359905002280199
  endloop
endfacet
facet normal 0.9933992365264342 0.10798524622506822 0.03869293819819021
  outer loop
    vertex 2.4368919310055692 21.044379873786728 4.518678377972325
    vertex 1.968243047994146 25.41255856008917 4.359905002280199
    vertex 1.9682430479940767 24.613571256388173 6.589739301210573
  endloop
endfacet
facet normal 0.9933992365264342 0.10798524622506822 0.03869293819819021
  outer loop
    vertex 1.968243047994146 25.41255856008917 4.359905002280199
    vertex 1.9138916642528752 26.793615737414424 1.9010279910703467
    vertex 1.913891664252644 25.85566737700704 4.518678377973059
  endloop
endfacet
facet normal 0.9933992365264342 0.10798524622506822 0.03869293819819021
  outer loop
    vertex 1.9682430479940767 24.613571256388173 6.589739301210573
    vertex 2.4368919310055923 20.30228375316906 6.589739301210325
    vertex 2.4368919310055692 21.044379873786728 4.518678377972325
  endloop
endfacet
facet normal 2.2980447234309942e-14 -3.2696068075209446e-14 -1.0
  outer loop
    vertex 1.9138916642529675 37.35265177149126 -2.2927906684344635e-12
    vertex -20.211265316028875 27.47478618562863 0.0
    vertex -20.211265316029777 37.352651771490635 -2.1657342585967854e-12
  endloop
endfacet
facet normal 2.2980447234309942e-14 -3.2696068075209446e-14 -1.0
  outer loop
    vertex -20.211265316028875 27.47478618562863 0.0
    vertex 1.9138916642529675 37.35265177149126 -2.2927906684344635e-12
    vertex 1.9138916642531754 31.54136426827242 -2.5411281967535613e-13
  endloop
endfacet
facet normal 2.2980447234309942e-14 -3.2696068075209446e-14 -1.0
  outer loop
    vertex -20.211265316028875 27.47478618562863 0.0
    vertex 1.9138916642531754 31.54136426827242 -2.5411281967535613e-13
    vertex 14.711265316030058 0.681170448213585 -2.3101165425032376e-14
  endloop
endfacet
facet normal 2.2980447234309942e-14 -3.2696068075209446e-14 -1.0
  outer loop
    vertex 14.711265316030058 0.681170448213585 -2.3101165425032376e-14
    vertex 1.9138916642531754 31.54136426827242 -2.5411281967535613e-13
    vertex 14.71126531602807 31.541364268273043 1.4438228390645236e-13
  endloop
endfacet
facet normal 4.296680042842484e-14 1.4266365866433905e-14 1.0
  outer loop
    vertex 14.711265316028973 0.0 1.9010279910703005
    vertex 0.34326117862596345 13.644276971884972 1.9010279910699943
    vertex -0.8277641654183462 11.922010728399579 1.901027991071571
  endloop
endfacet
facet normal 4.296680042842484e-14 1.4266365866433905e-14 1.0
  outer loop
    vertex 0.34326117862596345 13.644276971884972 1.9010279910699943
    vertex 14.711265316028973 0.0 1.9010279910703005
    vertex 3.3432611786255584 13.644276971884095 1.901027991070953
  endloop
endfacet
facet normal 4.296680042842484e-14 1.4266365866433905e-14 1.0
  outer loop
    vertex 3.3432611786255584 13.644276971884095 1.901027991070953
    vertex 14.711265316028973 0.0 1.9010279910703005
    vertex 12.711265316028479 27.54819817109225 1.9010279910702543
  endloop
endfacet
facet normal 4.296680042842484e-14 1.4266365866433905e-14 1.0
  outer loop
    vertex 12.711265316028479 27.54819817109225 1.9010279910702543
    vertex 14.711265316028973 0.0 1.9010279910703005
    vertex 14.711265316028301 27.54819817109234 1.9010279910700405
  endloop
endfacet
facet normal 4.296680042842484e-14 1.4266365866433905e-14 1.0
  outer loop
    vertex 3.3432611786255584 13.644276971884095 1.901027991070953
    vertex 1.9138916642528983 27.548198171091812 1.9010279910706642
    vertex 1.9138916642528752 26.793615737414424 1.9010279910703467
  endloop
endfacet
facet normal 4.296680042842484e-14 1.4266365866433905e-14 1.0
  outer loop
    vertex 1.9138916642528983 27.548198171091812 1.9010279910706642
    vertex 3.3432611786255584 13.644276971884095 1.901027991070953
    vertex 12.711265316028479 27.54819817109225 1.9010279910702543
  endloop
endfacet
facet normal -1.1442494963374184e-14 0.9413913287444934 0.3373164184629581
  outer loop
    vertex -15.86539002837654 25.412558560088687 4.359905002280923
    vertex 1.9682430479940767 24.613571256388173 6.589739301210573
    vertex 1.968243047994146 25.41255856008917 4.359905002280199
  endloop
endfacet
facet normal -1.1442494963374184e-14 0.9413913287444934 0.3373164184629581
  outer loop
    vertex 1.9682430479940767 24.613571256388173 6.589739301210573
    vertex -15.86539002837654 25.412558560088687 4.359905002280923
    vertex -15.865390028377579 24.613571256387548 6.589739301211725
  endloop
endfacet
facet normal -1.2757177593354135e-14 0.9413913287444937 0.3373164184629572
  outer loop
    vertex -6.173639453070478 17.919864872498625 4.5186783779753394
    vertex 2.776535358685498 17.177768751880198 6.58973930121336
    vertex 2.7765353586850594 17.91986487249807 4.518678377974846
  endloop
endfacet
facet normal -1.2757177593354135e-14 0.9413913287444937 0.3373164184629572
  outer loop
    vertex 2.776535358685498 17.177768751880198 6.58973930121336
    vertex -6.173639453070478 17.919864872498625 4.5186783779753394
    vertex -6.173639453070686 17.177768751880198 6.5897393012129815
  endloop
endfacet
facet normal 1.0 3.8653302807363086e-15 -3.2586994002172304e-14
  outer loop
    vertex -6.173639453070478 17.919864872498625 4.5186783779753394
    vertex -6.173639453070871 20.302283753168762 6.5897393012103995
    vertex -6.173639453070686 17.177768751880198 6.5897393012129815
  endloop
endfacet
facet normal 1.0 3.8653302807363086e-15 -3.2586994002172304e-14
  outer loop
    vertex -6.173639453070871 20.302283753168762 6.5897393012103995
    vertex -6.173639453070478 17.919864872498625 4.5186783779753394
    vertex -6.17363945307094 21.044379873787143 4.518678377972856
  endloop
endfacet
facet normal -5.2640138983671877e-14 0.9413913287444888 0.3373164184629708
  outer loop
    vertex 1.9138916642532215 28.717444462594685 7.8810679606055505
    vertex 17.323036748374466 28.401790905835455 8.762002018234337
    vertex 17.71126531602829 28.41903157319282 8.713886320735892
  endloop
endfacet
facet normal -5.2640138983671877e-14 0.9413913287444888 0.3373164184629708
  outer loop
    vertex 17.323036748374466 28.401790905835455 8.762002018234337
    vertex 1.9138916642532215 28.717444462594685 7.8810679606055505
    vertex 16.961265316028218 28.351243826752164 8.903070105459951
  endloop
endfacet
facet normal -5.2640138983671877e-14 0.9413913287444888 0.3373164184629708
  outer loop
    vertex 16.961265316028218 28.351243826752164 8.903070105459951
    vertex 1.9138916642532215 28.717444462594685 7.8810679606055505
    vertex 16.650605144248413 28.270835035849395 9.127477025394409
  endloop
endfacet
facet normal -5.2640138983671877e-14 0.9413913287444888 0.3373164184629708
  outer loop
    vertex 16.650605144248413 28.270835035849395 9.127477025394409
    vertex 1.9138916642532215 28.717444462594685 7.8810679606055505
    vertex 12.711265316028989 26.732449480877385 13.420842964459693
  endloop
endfacet
facet normal -5.2640138983671877e-14 0.9413913287444888 0.3373164184629708
  outer loop
    vertex 16.650605144248413 28.270835035849395 9.127477025394409
    vertex 12.711265316028989 26.732449480877385 13.420842964459693
    vertex 16.41222721035139 28.166044259345565 9.419929817294369
  endloop
endfacet
facet normal -5.2640138983671877e-14 0.9413913287444888 0.3373164184629708
  outer loop
    vertex 16.41222721035139 28.166044259345565 9.419929817294369
    vertex 12.711265316028989 26.732449480877385 13.420842964459693
    vertex 16.262376576594338 28.044012815484322 9.76049830669256
  endloop
endfacet
facet normal -5.2640138983671877e-14 0.9413913287444888 0.3373164184629708
  outer loop
    vertex 16.262376576594338 28.044012815484322 9.76049830669256
    vertex 12.711265316028989 26.732449480877385 13.420842964459693
    vertex 16.21126531602801 27.913056945498468 10.125973313852377
  endloop
endfacet
facet normal -5.2640138983671877e-14 0.9413913287444888 0.3373164184629708
  outer loop
    vertex 16.21126531602801 27.913056945498468 10.125973313852377
    vertex 12.711265316028989 26.732449480877385 13.420842964459693
    vertex 16.262376576594267 27.782101075512177 10.491448321013488
  endloop
endfacet
facet normal -5.2640138983671877e-14 0.9413913287444888 0.3373164184629708
  outer loop
    vertex 16.262376576594267 27.782101075512177 10.491448321013488
    vertex 12.711265316028989 26.732449480877385 13.420842964459693
    vertex 16.41222721035125 27.66006963165098 10.832016810411496
  endloop
endfacet
facet normal -5.2640138983671877e-14 0.9413913287444888 0.3373164184629708
  outer loop
    vertex 16.41222721035125 27.66006963165098 10.832016810411496
    vertex 12.711265316028989 26.732449480877385 13.420842964459693
    vertex 16.65060514424807 27.555278855147126 11.124469602311258
  endloop
endfacet
facet normal -5.2640138983671877e-14 0.9413913287444888 0.3373164184629708
  outer loop
    vertex 16.65060514424807 27.555278855147126 11.124469602311258
    vertex 12.711265316028989 26.732449480877385 13.420842964459693
    vertex 16.961265316028125 27.47487006424445 11.348876522245895
  endloop
endfacet
facet normal -5.2640138983671877e-14 0.9413913287444888 0.3373164184629708
  outer loop
    vertex 16.961265316028125 27.47487006424445 11.348876522245895
    vertex 12.711265316028989 26.732449480877385 13.420842964459693
    vertex 17.32303674837419 27.424322985161112 11.489944609471475
  endloop
endfacet
facet normal -5.2640138983671877e-14 0.9413913287444888 0.3373164184629708
  outer loop
    vertex 17.32303674837419 27.424322985161112 11.489944609471475
    vertex 12.711265316028989 26.732449480877385 13.420842964459693
    vertex 17.711265316028012 27.407082317803745 11.53806030696999
  endloop
endfacet
facet normal -5.2640138983671877e-14 0.9413913287444888 0.3373164184629708
  outer loop
    vertex 17.711265316028012 27.407082317803745 11.53806030696999
    vertex 12.711265316028989 26.732449480877385 13.420842964459693
    vertex 20.211265316028875 26.732449480877616 13.42084296445933
  endloop
endfacet
facet normal -5.2640138983671877e-14 0.9413913287444888 0.3373164184629708
  outer loop
    vertex 1.9138916642532215 28.717444462594685 7.8810679606055505
    vertex 14.71126531602807 31.541364268273043 1.4438228390645236e-13
    vertex 1.9138916642531754 31.54136426827242 -2.5411281967535613e-13
  endloop
endfacet
facet normal -5.2640138983671877e-14 0.9413913287444888 0.3373164184629708
  outer loop
    vertex 14.71126531602807 31.541364268273043 1.4438228390645236e-13
    vertex 1.9138916642532215 28.717444462594685 7.8810679606055505
    vertex 14.711265316028094 30.86019382005941 1.9010279910693764
  endloop
endfacet
facet normal -5.2640138983671877e-14 0.9413913287444888 0.3373164184629708
  outer loop
    vertex 14.711265316028094 30.86019382005941 1.9010279910693764
    vertex 1.9138916642532215 28.717444462594685 7.8810679606055505
    vertex 14.711265316028278 29.43098082858153 5.889712334502933
  endloop
endfacet
facet normal -5.2640138983671877e-14 0.9413913287444888 0.3373164184629708
  outer loop
    vertex 14.711265316028278 29.43098082858153 5.889712334502933
    vertex 1.9138916642532215 28.717444462594685 7.8810679606055505
    vertex 20.211265316028577 29.430980828581646 5.889712334502979
  endloop
endfacet
facet normal -5.2640138983671877e-14 0.9413913287444888 0.3373164184629708
  outer loop
    vertex 20.211265316028577 29.430980828581646 5.889712334502979
    vertex 1.9138916642532215 28.717444462594685 7.8810679606055505
    vertex 17.71126531602829 28.41903157319282 8.713886320735892
  endloop
endfacet
facet normal -5.2640138983671877e-14 0.9413913287444888 0.3373164184629708
  outer loop
    vertex 20.211265316028577 29.430980828581646 5.889712334502979
    vertex 17.71126531602829 28.41903157319282 8.713886320735892
    vertex 18.099493883682204 28.401790905835337 8.762002018234481
  endloop
endfacet
facet normal -5.2640138983671877e-14 0.9413913287444888 0.3373164184629708
  outer loop
    vertex 20.211265316028577 29.430980828581646 5.889712334502979
    vertex 18.099493883682204 28.401790905835337 8.762002018234481
    vertex 18.461265316028456 28.351243826752118 8.903070105460186
  endloop
endfacet
facet normal -5.2640138983671877e-14 0.9413913287444888 0.3373164184629708
  outer loop
    vertex 20.211265316028577 29.430980828581646 5.889712334502979
    vertex 18.461265316028456 28.351243826752118 8.903070105460186
    vertex 18.771925487808396 28.270835035849327 9.127477025394697
  endloop
endfacet
facet normal -5.2640138983671877e-14 0.9413913287444888 0.3373164184629708
  outer loop
    vertex 20.211265316028577 29.430980828581646 5.889712334502979
    vertex 18.771925487808396 28.270835035849327 9.127477025394697
    vertex 19.01030342170519 28.166044259345565 9.419929817294484
  endloop
endfacet
facet normal -5.2640138983671877e-14 0.9413913287444888 0.3373164184629708
  outer loop
    vertex 20.211265316028577 29.430980828581646 5.889712334502979
    vertex 19.01030342170519 28.166044259345565 9.419929817294484
    vertex 19.16015405546206 28.044012815484137 9.760498306692993
  endloop
endfacet
facet normal -5.2640138983671877e-14 0.9413913287444888 0.3373164184629708
  outer loop
    vertex 20.211265316028577 29.430980828581646 5.889712334502979
    vertex 19.16015405546206 28.044012815484137 9.760498306692993
    vertex 20.211265316028875 26.732449480877616 13.42084296445933
  endloop
endfacet
facet normal -5.2640138983671877e-14 0.9413913287444888 0.3373164184629708
  outer loop
    vertex 20.211265316028875 26.732449480877616 13.42084296445933
    vertex 19.16015405546206 28.044012815484137 9.760498306692993
    vertex 19.211265316028527 27.91305694549803 10.125973313853489
  endloop
endfacet
facet normal -5.2640138983671877e-14 0.9413913287444888 0.3373164184629708
  outer loop
    vertex 20.211265316028875 26.732449480877616 13.42084296445933
    vertex 19.211265316028527 27.91305694549803 10.125973313853489
    vertex 19.160154055462126 27.782101075512223 10.491448321013419
  endloop
endfacet
facet normal -5.2640138983671877e-14 0.9413913287444888 0.3373164184629708
  outer loop
    vertex 20.211265316028875 26.732449480877616 13.42084296445933
    vertex 19.160154055462126 27.782101075512223 10.491448321013419
    vertex 19.010303421705004 27.66006963165098 10.832016810411611
  endloop
endfacet
facet normal -5.2640138983671877e-14 0.9413913287444888 0.3373164184629708
  outer loop
    vertex 20.211265316028875 26.732449480877616 13.42084296445933
    vertex 19.010303421705004 27.66006963165098 10.832016810411611
    vertex 18.771925487808144 27.555278855146874 11.124469602311882
  endloop
endfacet
facet normal -5.2640138983671877e-14 0.9413913287444888 0.3373164184629708
  outer loop
    vertex 20.211265316028875 26.732449480877616 13.42084296445933
    vertex 18.771925487808144 27.555278855146874 11.124469602311882
    vertex 18.46126531602818 27.474870064244403 11.34887652224603
  endloop
endfacet
facet normal -5.2640138983671877e-14 0.9413913287444888 0.3373164184629708
  outer loop
    vertex 20.211265316028875 26.732449480877616 13.42084296445933
    vertex 18.46126531602818 27.474870064244403 11.34887652224603
    vertex 18.09949388368188 27.42432298516102 11.48994460947162
  endloop
endfacet
facet normal -5.2640138983671877e-14 0.9413913287444888 0.3373164184629708
  outer loop
    vertex 20.211265316028875 26.732449480877616 13.42084296445933
    vertex 18.09949388368188 27.42432298516102 11.48994460947162
    vertex 17.711265316028012 27.407082317803745 11.53806030696999
  endloop
endfacet
facet normal 5.0549433036824965e-14 -0.33731641846297084 0.9413913287444888
  outer loop
    vertex 12.711265316029035 24.849666823388407 12.746210127533756
    vertex 20.211265316028875 26.732449480877616 13.42084296445933
    vertex 12.711265316028989 26.732449480877385 13.420842964459693
  endloop
endfacet
facet normal 5.0549433036824965e-14 -0.33731641846297084 0.9413913287444888
  outer loop
    vertex 20.211265316028875 26.732449480877616 13.42084296445933
    vertex 12.711265316029035 24.849666823388407 12.746210127533756
    vertex 20.211265316028875 24.84966682338866 12.746210127533404
  endloop
endfacet
facet normal -1.0 -5.531242434990543e-14 -5.047535092666831e-14
  outer loop
    vertex -20.211265316029916 33.867509923233015 9.726423428611202
    vertex -20.211265316028875 27.47478618562863 0.0
    vertex -20.2112653160298 25.113571256386603 6.5897393012115835
  endloop
endfacet
facet normal -1.0 -5.531242434990543e-14 -5.047535092666831e-14
  outer loop
    vertex -20.211265316028875 27.47478618562863 0.0
    vertex -20.211265316029916 33.867509923233015 9.726423428611202
    vertex -20.211265316029777 37.352651771490635 -2.1657342585967854e-12
  endloop
endfacet
facet normal 1.0 3.529067430894915e-14 -2.2240752906594024e-14
  outer loop
    vertex 20.211265316028484 27.54819817109255 5.215079497577308
    vertex 20.211265316028875 26.732449480877616 13.42084296445933
    vertex 20.211265316028875 24.84966682338866 12.746210127533404
  endloop
endfacet
facet normal 1.0 3.529067430894915e-14 -2.2240752906594024e-14
  outer loop
    vertex 20.211265316028875 26.732449480877616 13.42084296445933
    vertex 20.211265316028484 27.54819817109255 5.215079497577308
    vertex 20.211265316028577 29.430980828581646 5.889712334502979
  endloop
endfacet
facet normal -0.3826834323651685 -0.3116397349979493 0.8697321807106032
  outer loop
    vertex 18.09949388368225 26.51900824834636 8.087369181308542
    vertex 18.461265316028456 28.351243826752118 8.903070105460186
    vertex 18.099493883682204 28.401790905835337 8.762002018234481
  endloop
endfacet
facet normal -0.3826834323651685 -0.3116397349979493 0.8697321807106032
  outer loop
    vertex 18.461265316028456 28.351243826752118 8.903070105460186
    vertex 18.09949388368225 26.51900824834636 8.087369181308542
    vertex 18.461265316028502 26.468461169263115 8.228437268534249
  endloop
endfacet
facet normal 0.9914448613738474 0.04402862767520679 -0.12287622552972112
  outer loop
    vertex 16.211265316027916 26.030274288009398 9.451340476926612
    vertex 16.262376576594267 27.782101075512177 10.491448321013488
    vertex 16.262376576594082 25.899318418023245 9.816815484087378
  endloop
endfacet
facet normal 0.9914448613738474 0.04402862767520679 -0.12287622552972112
  outer loop
    vertex 16.262376576594267 27.782101075512177 10.491448321013488
    vertex 16.211265316027916 26.030274288009398 9.451340476926612
    vertex 16.21126531602801 27.913056945498468 10.125973313852377
  endloop
endfacet
facet normal 3.7519513342566805e-14 -1.0 4.6851411639181455e-14
  outer loop
    vertex 12.711265316028594 27.548198171092388 5.215079497577204
    vertex 1.9138916642528983 27.548198171091812 1.9010279910706642
    vertex 12.711265316028479 27.54819817109225 1.9010279910702543
  endloop
endfacet
facet normal -0.38268343236502295 0.31163973499795117 -0.8697321807106668
  outer loop
    vertex 18.09949388368188 27.42432298516102 11.48994460947162
    vertex 18.461265316028225 25.592087406755425 10.674243685320098
    vertex 18.099493883681742 25.541540327672042 10.815311772545682
  endloop
endfacet
facet normal -0.38268343236502295 0.31163973499795117 -0.8697321807106668
  outer loop
    vertex 18.461265316028225 25.592087406755425 10.674243685320098
    vertex 18.09949388368188 27.42432298516102 11.48994460947162
    vertex 18.46126531602818 27.474870064244403 11.34887652224603
  endloop
endfacet
facet normal 0.7933533402912358 0.20534522493164065 -0.5730827305429057
  outer loop
    vertex 16.41222721035116 25.777286974161953 10.157383973485656
    vertex 16.65060514424807 27.555278855147126 11.124469602311258
    vertex 16.65060514424809 25.672496197658123 10.44983676538532
  endloop
endfacet
facet normal 0.7933533402912358 0.20534522493164065 -0.5730827305429057
  outer loop
    vertex 16.65060514424807 27.555278855147126 11.124469602311258
    vertex 16.41222721035116 25.777286974161953 10.157383973485656
    vertex 16.41222721035125 27.66006963165098 10.832016810411496
  endloop
endfacet
facet normal -0.062094945365012935 -0.9395746759156931 -0.33666548106100297
  outer loop
    vertex 12.711265316029035 24.849666823388407 12.746210127533756
    vertex 1.9138916642527595 28.209145698868 5.361969424130973
    vertex 12.711265316028594 27.548198171092388 5.215079497577204
  endloop
endfacet
facet normal -0.062094945365012935 -0.9395746759156931 -0.33666548106100297
  outer loop
    vertex 1.9138916642527595 28.209145698868 5.361969424130973
    vertex 12.711265316029035 24.849666823388407 12.746210127533756
    vertex 1.9138916642529213 27.46704957824816 7.433030347369273
  endloop
endfacet
facet normal -0.05747999020081358 -0.9806247041883548 0.18727317016064043
  outer loop
    vertex 1.9138916642527595 28.209145698868 5.361969424130973
    vertex 1.9138916642528983 27.548198171091812 1.9010279910706642
    vertex 12.711265316028594 27.548198171092388 5.215079497577204
  endloop
endfacet
facet normal -0.13052619221983308 0.33443062974213694 -0.9333375954256151
  outer loop
    vertex 18.09949388368188 27.42432298516102 11.48994460947162
    vertex 17.711265316028058 25.524299660314743 10.863427470044051
    vertex 17.711265316028012 27.407082317803745 11.53806030696999
  endloop
endfacet
facet normal -0.13052619221983308 0.33443062974213694 -0.9333375954256151
  outer loop
    vertex 17.711265316028058 25.524299660314743 10.863427470044051
    vertex 18.09949388368188 27.42432298516102 11.48994460947162
    vertex 18.099493883681742 25.541540327672042 10.815311772545682
  endloop
endfacet
facet normal 0.9238795325113144 0.12908540481050843 -0.3602548648826026
  outer loop
    vertex 16.262376576594082 25.899318418023245 9.816815484087378
    vertex 16.41222721035125 27.66006963165098 10.832016810411496
    vertex 16.41222721035116 25.777286974161953 10.157383973485656
  endloop
endfacet
facet normal 0.9238795325113144 0.12908540481050843 -0.3602548648826026
  outer loop
    vertex 16.41222721035125 27.66006963165098 10.832016810411496
    vertex 16.262376576594082 25.899318418023245 9.816815484087378
    vertex 16.262376576594267 27.782101075512177 10.491448321013488
  endloop
endfacet
facet normal -0.9914448613738173 0.04402862767523559 -0.1228762255299527
  outer loop
    vertex 19.160154055462126 27.782101075512223 10.491448321013419
    vertex 19.211265316028435 26.03027428800905 9.451340476927655
    vertex 19.160154055462126 25.899318418023245 9.816815484087487
  endloop
endfacet
facet normal -0.9914448613738173 0.04402862767523559 -0.1228762255299527
  outer loop
    vertex 19.211265316028435 26.03027428800905 9.451340476927655
    vertex 19.160154055462126 27.782101075512223 10.491448321013419
    vertex 19.211265316028527 27.91305694549803 10.125973313853489
  endloop
endfacet
facet normal 1.0 1.8714534427829114e-14 -1.3408996130293061e-14
  outer loop
    vertex 1.9138916642531754 31.54136426827242 -2.5411281967535613e-13
    vertex 1.9138916642531985 33.86750992323392 9.726423428610879
    vertex 1.9138916642532215 28.717444462594685 7.8810679606055505
  endloop
endfacet
facet normal 1.0 1.8714534427829114e-14 -1.3408996130293061e-14
  outer loop
    vertex 1.9138916642531985 33.86750992323392 9.726423428610879
    vertex 1.9138916642531754 31.54136426827242 -2.5411281967535613e-13
    vertex 1.9138916642529675 37.35265177149126 -2.2927906684344635e-12
  endloop
endfacet
facet normal -0.6087614290086907 -0.26761110732269644 0.7468559551806607
  outer loop
    vertex 18.461265316028502 26.468461169263115 8.228437268534249
    vertex 18.771925487808396 28.270835035849327 9.127477025394697
    vertex 18.461265316028456 28.351243826752118 8.903070105460186
  endloop
endfacet
facet normal -0.6087614290086907 -0.26761110732269644 0.7468559551806607
  outer loop
    vertex 18.771925487808396 28.270835035849327 9.127477025394697
    vertex 18.461265316028502 26.468461169263115 8.228437268534249
    vertex 18.771925487808257 26.38805237836037 8.45284418846877
  endloop
endfacet
facet normal -0.7933533402913251 0.205345224931563 -0.5730827305428098
  outer loop
    vertex 18.771925487808144 27.555278855146874 11.124469602311882
    vertex 19.010303421704865 25.777286974161978 10.157383973485674
    vertex 18.771925487808073 25.672496197657892 10.449836765385944
  endloop
endfacet
facet normal -0.7933533402913251 0.205345224931563 -0.5730827305428098
  outer loop
    vertex 19.010303421704865 25.777286974161978 10.157383973485674
    vertex 18.771925487808144 27.555278855146874 11.124469602311882
    vertex 19.010303421705004 27.66006963165098 10.832016810411611
  endloop
endfacet
facet normal 0.38268343236502295 -0.31163973499795117 0.8697321807106668
  outer loop
    vertex 17.323036748374513 26.519008248346452 8.087369181308398
    vertex 16.961265316028218 28.351243826752164 8.903070105459951
    vertex 16.96126531602808 26.468461169263183 8.22843726853402
  endloop
endfacet
facet normal 0.38268343236502295 -0.31163973499795117 0.8697321807106668
  outer loop
    vertex 16.961265316028218 28.351243826752164 8.903070105459951
    vertex 17.323036748374513 26.519008248346452 8.087369181308398
    vertex 17.323036748374466 28.401790905835455 8.762002018234337
  endloop
endfacet
facet normal 2.2072274104796696e-14 -0.9413913287444877 -0.33731641846297394
  outer loop
    vertex 20.211265316028484 27.54819817109255 5.215079497577308
    vertex 18.09949388368225 26.51900824834636 8.087369181308542
    vertex 17.71126531602829 26.53624891570382 8.039253483809953
  endloop
endfacet
facet normal 2.2072274104796696e-14 -0.9413913287444877 -0.33731641846297394
  outer loop
    vertex 18.09949388368225 26.51900824834636 8.087369181308542
    vertex 20.211265316028484 27.54819817109255 5.215079497577308
    vertex 18.461265316028502 26.468461169263115 8.228437268534249
  endloop
endfacet
facet normal 2.2072274104796696e-14 -0.9413913287444877 -0.33731641846297394
  outer loop
    vertex 18.461265316028502 26.468461169263115 8.228437268534249
    vertex 20.211265316028484 27.54819817109255 5.215079497577308
    vertex 18.771925487808257 26.38805237836037 8.45284418846877
  endloop
endfacet
facet normal 2.2072274104796696e-14 -0.9413913287444877 -0.33731641846297394
  outer loop
    vertex 18.771925487808257 26.38805237836037 8.45284418846877
    vertex 20.211265316028484 27.54819817109255 5.215079497577308
    vertex 19.01030342170519 26.283261601856537 8.745296980368638
  endloop
endfacet
facet normal 2.2072274104796696e-14 -0.9413913287444877 -0.33731641846297394
  outer loop
    vertex 19.01030342170519 26.283261601856537 8.745296980368638
    vertex 20.211265316028484 27.54819817109255 5.215079497577308
    vertex 19.16015405546192 26.161230157995202 9.085865469766974
  endloop
endfacet
facet normal 2.2072274104796696e-14 -0.9413913287444877 -0.33731641846297394
  outer loop
    vertex 19.16015405546192 26.161230157995202 9.085865469766974
    vertex 20.211265316028484 27.54819817109255 5.215079497577308
    vertex 20.211265316028875 24.84966682338866 12.746210127533404
  endloop
endfacet
facet normal 2.2072274104796696e-14 -0.9413913287444877 -0.33731641846297394
  outer loop
    vertex 19.16015405546192 26.161230157995202 9.085865469766974
    vertex 20.211265316028875 24.84966682338866 12.746210127533404
    vertex 19.211265316028435 26.03027428800905 9.451340476927655
  endloop
endfacet
facet normal 2.2072274104796696e-14 -0.9413913287444877 -0.33731641846297394
  outer loop
    vertex 19.211265316028435 26.03027428800905 9.451340476927655
    vertex 20.211265316028875 24.84966682338866 12.746210127533404
    vertex 19.160154055462126 25.899318418023245 9.816815484087487
  endloop
endfacet
facet normal 2.2072274104796696e-14 -0.9413913287444877 -0.33731641846297394
  outer loop
    vertex 19.160154055462126 25.899318418023245 9.816815484087487
    vertex 20.211265316028875 24.84966682338866 12.746210127533404
    vertex 19.010303421704865 25.777286974161978 10.157383973485674
  endloop
endfacet
facet normal 2.2072274104796696e-14 -0.9413913287444877 -0.33731641846297394
  outer loop
    vertex 19.010303421704865 25.777286974161978 10.157383973485674
    vertex 20.211265316028875 24.84966682338866 12.746210127533404
    vertex 18.771925487808073 25.672496197657892 10.449836765385944
  endloop
endfacet
facet normal 2.2072274104796696e-14 -0.9413913287444877 -0.33731641846297394
  outer loop
    vertex 18.771925487808073 25.672496197657892 10.449836765385944
    vertex 20.211265316028875 24.84966682338866 12.746210127533404
    vertex 18.461265316028225 25.592087406755425 10.674243685320098
  endloop
endfacet
facet normal 2.2072274104796696e-14 -0.9413913287444877 -0.33731641846297394
  outer loop
    vertex 18.461265316028225 25.592087406755425 10.674243685320098
    vertex 20.211265316028875 24.84966682338866 12.746210127533404
    vertex 18.099493883681742 25.541540327672042 10.815311772545682
  endloop
endfacet
facet normal 2.2072274104796696e-14 -0.9413913287444877 -0.33731641846297394
  outer loop
    vertex 18.099493883681742 25.541540327672042 10.815311772545682
    vertex 20.211265316028875 24.84966682338866 12.746210127533404
    vertex 17.711265316028058 25.524299660314743 10.863427470044051
  endloop
endfacet
facet normal 2.2072274104796696e-14 -0.9413913287444877 -0.33731641846297394
  outer loop
    vertex 20.211265316028484 27.54819817109255 5.215079497577308
    vertex 12.711265316028594 27.548198171092388 5.215079497577204
    vertex 14.711265316028094 27.548198171092505 5.215079497577088
  endloop
endfacet
facet normal 2.2072274104796696e-14 -0.9413913287444877 -0.33731641846297394
  outer loop
    vertex 12.711265316028594 27.548198171092388 5.215079497577204
    vertex 20.211265316028484 27.54819817109255 5.215079497577308
    vertex 16.650605144248367 26.38805237836053 8.452844188468205
  endloop
endfacet
facet normal 2.2072274104796696e-14 -0.9413913287444877 -0.33731641846297394
  outer loop
    vertex 12.711265316028594 27.548198171092388 5.215079497577204
    vertex 16.650605144248367 26.38805237836053 8.452844188468205
    vertex 12.711265316029035 24.849666823388407 12.746210127533756
  endloop
endfacet
facet normal 2.2072274104796696e-14 -0.9413913287444877 -0.33731641846297394
  outer loop
    vertex 16.650605144248367 26.38805237836053 8.452844188468205
    vertex 20.211265316028484 27.54819817109255 5.215079497577308
    vertex 16.96126531602808 26.468461169263183 8.22843726853402
  endloop
endfacet
facet normal 2.2072274104796696e-14 -0.9413913287444877 -0.33731641846297394
  outer loop
    vertex 16.96126531602808 26.468461169263183 8.22843726853402
    vertex 20.211265316028484 27.54819817109255 5.215079497577308
    vertex 17.323036748374513 26.519008248346452 8.087369181308398
  endloop
endfacet
facet normal 2.2072274104796696e-14 -0.9413913287444877 -0.33731641846297394
  outer loop
    vertex 17.323036748374513 26.519008248346452 8.087369181308398
    vertex 20.211265316028484 27.54819817109255 5.215079497577308
    vertex 17.71126531602829 26.53624891570382 8.039253483809953
  endloop
endfacet
facet normal 2.2072274104796696e-14 -0.9413913287444877 -0.33731641846297394
  outer loop
    vertex 12.711265316029035 24.849666823388407 12.746210127533756
    vertex 16.650605144248367 26.38805237836053 8.452844188468205
    vertex 16.412227210351205 26.283261601856516 8.74529698036861
  endloop
endfacet
facet normal 2.2072274104796696e-14 -0.9413913287444877 -0.33731641846297394
  outer loop
    vertex 12.711265316029035 24.849666823388407 12.746210127533756
    vertex 16.412227210351205 26.283261601856516 8.74529698036861
    vertex 16.2623765765942 26.16123015799534 9.085865469766627
  endloop
endfacet
facet normal 2.2072274104796696e-14 -0.9413913287444877 -0.33731641846297394
  outer loop
    vertex 12.711265316029035 24.849666823388407 12.746210127533756
    vertex 16.2623765765942 26.16123015799534 9.085865469766627
    vertex 16.211265316027916 26.030274288009398 9.451340476926612
  endloop
endfacet
facet normal 2.2072274104796696e-14 -0.9413913287444877 -0.33731641846297394
  outer loop
    vertex 12.711265316029035 24.849666823388407 12.746210127533756
    vertex 16.211265316027916 26.030274288009398 9.451340476926612
    vertex 16.262376576594082 25.899318418023245 9.816815484087378
  endloop
endfacet
facet normal 2.2072274104796696e-14 -0.9413913287444877 -0.33731641846297394
  outer loop
    vertex 12.711265316029035 24.849666823388407 12.746210127533756
    vertex 16.262376576594082 25.899318418023245 9.816815484087378
    vertex 16.41222721035116 25.777286974161953 10.157383973485656
  endloop
endfacet
facet normal 2.2072274104796696e-14 -0.9413913287444877 -0.33731641846297394
  outer loop
    vertex 12.711265316029035 24.849666823388407 12.746210127533756
    vertex 16.41222721035116 25.777286974161953 10.157383973485656
    vertex 16.65060514424809 25.672496197658123 10.44983676538532
  endloop
endfacet
facet normal 2.2072274104796696e-14 -0.9413913287444877 -0.33731641846297394
  outer loop
    vertex 12.711265316029035 24.849666823388407 12.746210127533756
    vertex 16.65060514424809 25.672496197658123 10.44983676538532
    vertex 16.96126531602794 25.59208740675547 10.674243685319864
  endloop
endfacet
facet normal 2.2072274104796696e-14 -0.9413913287444877 -0.33731641846297394
  outer loop
    vertex 12.711265316029035 24.849666823388407 12.746210127533756
    vertex 16.96126531602794 25.59208740675547 10.674243685319864
    vertex 17.323036748374236 25.54154032767211 10.815311772545536
  endloop
endfacet
facet normal 2.2072274104796696e-14 -0.9413913287444877 -0.33731641846297394
  outer loop
    vertex 12.711265316029035 24.849666823388407 12.746210127533756
    vertex 17.323036748374236 25.54154032767211 10.815311772545536
    vertex 17.711265316028058 25.524299660314743 10.863427470044051
  endloop
endfacet
facet normal 2.2072274104796696e-14 -0.9413913287444877 -0.33731641846297394
  outer loop
    vertex 12.711265316029035 24.849666823388407 12.746210127533756
    vertex 17.711265316028058 25.524299660314743 10.863427470044051
    vertex 20.211265316028875 24.84966682338866 12.746210127533404
  endloop
endfacet
facet normal 0.3826834323651927 0.3116397349979459 -0.8697321807105938
  outer loop
    vertex 16.961265316028125 27.47487006424445 11.348876522245895
    vertex 17.323036748374236 25.54154032767211 10.815311772545536
    vertex 16.96126531602794 25.59208740675547 10.674243685319864
  endloop
endfacet
facet normal 0.3826834323651927 0.3116397349979459 -0.8697321807105938
  outer loop
    vertex 17.323036748374236 25.54154032767211 10.815311772545536
    vertex 16.961265316028125 27.47487006424445 11.348876522245895
    vertex 17.32303674837419 27.424322985161112 11.489944609471475
  endloop
endfacet
facet normal 0.6087614290086907 0.26761110732269644 -0.7468559551806607
  outer loop
    vertex 16.961265316028125 27.47487006424445 11.348876522245895
    vertex 16.65060514424809 25.672496197658123 10.44983676538532
    vertex 16.65060514424807 27.555278855147126 11.124469602311258
  endloop
endfacet
facet normal 0.6087614290086907 0.26761110732269644 -0.7468559551806607
  outer loop
    vertex 16.65060514424809 25.672496197658123 10.44983676538532
    vertex 16.961265316028125 27.47487006424445 11.348876522245895
    vertex 16.96126531602794 25.59208740675547 10.674243685319864
  endloop
endfacet
facet normal 0.9238795325111661 -0.12908540481058461 0.36025486488295616
  outer loop
    vertex 16.412227210351205 26.283261601856516 8.74529698036861
    vertex 16.262376576594338 28.044012815484322 9.76049830669256
    vertex 16.2623765765942 26.16123015799534 9.085865469766627
  endloop
endfacet
facet normal 0.9238795325111661 -0.12908540481058461 0.36025486488295616
  outer loop
    vertex 16.262376576594338 28.044012815484322 9.76049830669256
    vertex 16.412227210351205 26.283261601856516 8.74529698036861
    vertex 16.41222721035139 28.166044259345565 9.419929817294369
  endloop
endfacet
facet normal 0.6087614290085925 -0.26761110732269244 0.7468559551807423
  outer loop
    vertex 16.96126531602808 26.468461169263183 8.22843726853402
    vertex 16.650605144248413 28.270835035849395 9.127477025394409
    vertex 16.650605144248367 26.38805237836053 8.452844188468205
  endloop
endfacet
facet normal 0.6087614290085925 -0.26761110732269244 0.7468559551807423
  outer loop
    vertex 16.650605144248413 28.270835035849395 9.127477025394409
    vertex 16.96126531602808 26.468461169263183 8.22843726853402
    vertex 16.961265316028218 28.351243826752164 8.903070105459951
  endloop
endfacet
facet normal -0.7933533402913334 -0.20534522493159763 0.5730827305427857
  outer loop
    vertex 19.01030342170519 28.166044259345565 9.419929817294484
    vertex 18.771925487808257 26.38805237836037 8.45284418846877
    vertex 19.01030342170519 26.283261601856537 8.745296980368638
  endloop
endfacet
facet normal -0.7933533402913334 -0.20534522493159763 0.5730827305427857
  outer loop
    vertex 18.771925487808257 26.38805237836037 8.45284418846877
    vertex 19.01030342170519 28.166044259345565 9.419929817294484
    vertex 18.771925487808396 28.270835035849327 9.127477025394697
  endloop
endfacet
facet normal 0.9914448613738173 -0.04402862767523559 0.1228762255299527
  outer loop
    vertex 16.2623765765942 26.16123015799534 9.085865469766627
    vertex 16.21126531602801 27.913056945498468 10.125973313852377
    vertex 16.211265316027916 26.030274288009398 9.451340476926612
  endloop
endfacet
facet normal 0.9914448613738173 -0.04402862767523559 0.1228762255299527
  outer loop
    vertex 16.21126531602801 27.913056945498468 10.125973313852377
    vertex 16.2623765765942 26.16123015799534 9.085865469766627
    vertex 16.262376576594338 28.044012815484322 9.76049830669256
  endloop
endfacet
facet normal -0.47855070096583574 -0.2961840280815025 0.8265979966794761
  outer loop
    vertex 12.711265316029035 24.849666823388407 12.746210127533756
    vertex 1.9138916642532215 28.717444462594685 7.8810679606055505
    vertex 1.9138916642529213 27.46704957824816 7.433030347369273
  endloop
endfacet
facet normal -0.47855070096583574 -0.2961840280815025 0.8265979966794761
  outer loop
    vertex 1.9138916642532215 28.717444462594685 7.8810679606055505
    vertex 12.711265316029035 24.849666823388407 12.746210127533756
    vertex 12.711265316028989 26.732449480877385 13.420842964459693
  endloop
endfacet
facet normal -0.9914448613738144 -0.04402862767529114 0.12287622552995654
  outer loop
    vertex 19.211265316028527 27.91305694549803 10.125973313853489
    vertex 19.16015405546192 26.161230157995202 9.085865469766974
    vertex 19.211265316028435 26.03027428800905 9.451340476927655
  endloop
endfacet
facet normal -0.9914448613738144 -0.04402862767529114 0.12287622552995654
  outer loop
    vertex 19.16015405546192 26.161230157995202 9.085865469766974
    vertex 19.211265316028527 27.91305694549803 10.125973313853489
    vertex 19.16015405546206 28.044012815484137 9.760498306692993
  endloop
endfacet
facet normal -0.9238795325111661 0.12908540481058461 -0.36025486488295616
  outer loop
    vertex 19.010303421705004 27.66006963165098 10.832016810411611
    vertex 19.160154055462126 25.899318418023245 9.816815484087487
    vertex 19.010303421704865 25.777286974161978 10.157383973485674
  endloop
endfacet
facet normal -0.9238795325111661 0.12908540481058461 -0.36025486488295616
  outer loop
    vertex 19.160154055462126 25.899318418023245 9.816815484087487
    vertex 19.010303421705004 27.66006963165098 10.832016810411611
    vertex 19.160154055462126 27.782101075512223 10.491448321013419
  endloop
endfacet
facet normal 0.13052619222024697 0.3344306297421248 -0.9333375954255614
  outer loop
    vertex 17.711265316028012 27.407082317803745 11.53806030696999
    vertex 17.323036748374236 25.54154032767211 10.815311772545536
    vertex 17.32303674837419 27.424322985161112 11.489944609471475
  endloop
endfacet
facet normal 0.13052619222024697 0.3344306297421248 -0.9333375954255614
  outer loop
    vertex 17.323036748374236 25.54154032767211 10.815311772545536
    vertex 17.711265316028012 27.407082317803745 11.53806030696999
    vertex 17.711265316028058 25.524299660314743 10.863427470044051
  endloop
endfacet
facet normal 7.766795347057379e-14 -1.0 3.697042672001667e-14
  outer loop
    vertex 14.711265316028094 27.548198171092505 5.215079497577088
    vertex 12.711265316028479 27.54819817109225 1.9010279910702543
    vertex 14.711265316028301 27.54819817109234 1.9010279910700405
  endloop
endfacet
facet normal 7.766795347057379e-14 -1.0 3.697042672001667e-14
  outer loop
    vertex 12.711265316028479 27.54819817109225 1.9010279910702543
    vertex 14.711265316028094 27.548198171092505 5.215079497577088
    vertex 12.711265316028594 27.548198171092388 5.215079497577204
  endloop
endfacet
facet normal -0.608761429008455 0.267611107322728 -0.7468559551808417
  outer loop
    vertex 18.771925487808144 27.555278855146874 11.124469602311882
    vertex 18.461265316028225 25.592087406755425 10.674243685320098
    vertex 18.46126531602818 27.474870064244403 11.34887652224603
  endloop
endfacet
facet normal -0.608761429008455 0.267611107322728 -0.7468559551808417
  outer loop
    vertex 18.461265316028225 25.592087406755425 10.674243685320098
    vertex 18.771925487808144 27.555278855146874 11.124469602311882
    vertex 18.771925487808073 25.672496197657892 10.449836765385944
  endloop
endfacet
facet normal 0.7933533402911979 -0.20534522493161883 0.5730827305429658
  outer loop
    vertex 16.650605144248367 26.38805237836053 8.452844188468205
    vertex 16.41222721035139 28.166044259345565 9.419929817294369
    vertex 16.412227210351205 26.283261601856516 8.74529698036861
  endloop
endfacet
facet normal 0.7933533402911979 -0.20534522493161883 0.5730827305429658
  outer loop
    vertex 16.41222721035139 28.166044259345565 9.419929817294369
    vertex 16.650605144248367 26.38805237836053 8.452844188468205
    vertex 16.650605144248413 28.270835035849395 9.127477025394409
  endloop
endfacet
facet normal -0.9238795325114109 -0.12908540481043002 0.3602548648823838
  outer loop
    vertex 19.16015405546206 28.044012815484137 9.760498306692993
    vertex 19.01030342170519 26.283261601856537 8.745296980368638
    vertex 19.16015405546192 26.161230157995202 9.085865469766974
  endloop
endfacet
facet normal -0.9238795325114109 -0.12908540481043002 0.3602548648823838
  outer loop
    vertex 19.01030342170519 26.283261601856537 8.745296980368638
    vertex 19.16015405546206 28.044012815484137 9.760498306692993
    vertex 19.01030342170519 28.166044259345565 9.419929817294484
  endloop
endfacet
endsolid working_stargate_mk2_base_r_1
Working Stargate Mk2
www.glitch.org.uk