solid working_stargate_mk2_chevron_2_b
facet normal -0.8729062319302067 -0.4878880099545473 6.851479666204006e-13
  outer loop
    vertex -2.3855696727038485 2.4789959527655676 -1.4048396224097813e-12
    vertex -1.8504201283603046 1.5215316110745793 2.0140088762185364
    vertex -2.3855696727003344 2.478995952766766 2.01400887621824
  endloop
endfacet
facet normal -0.8729062319302067 -0.4878880099545473 6.851479666204006e-13
  outer loop
    vertex -1.8504201283603046 1.5215316110745793 2.0140088762185364
    vertex -2.3855696727038485 2.4789959527655676 -1.4048396224097813e-12
    vertex -1.8504201283607695 1.5215316110733117 -1.0164512787014245e-12
  endloop
endfacet
facet normal -0.8729062319314499 -0.48788800995232307 7.531266375174773e-13
  outer loop
    vertex -5.010919225923806 7.176147633597178 -3.143202320643468e-12
    vertex -4.523031215970258 6.303241401667029 2.0140088762169084
    vertex -5.010919225921309 7.176147633598399 2.014008876216491
  endloop
endfacet
facet normal -0.8729062319314499 -0.48788800995232307 7.531266375174773e-13
  outer loop
    vertex -4.523031215970258 6.303241401667029 2.0140088762169084
    vertex -5.010919225923806 7.176147633597178 -3.143202320643468e-12
    vertex -4.523031215970722 6.303241401665854 -2.7259375201538204e-12
  endloop
endfacet
facet normal -0.8729062319314499 -0.48788800995232307 7.531266375174773e-13
  outer loop
    vertex -4.523031215970722 6.303241401665854 -2.7259375201538204e-12
    vertex -5.010919225923806 7.176147633597178 -3.143202320643468e-12
    vertex -4.7669752209474945 6.739694517631711 -2.934569920398644e-12
  endloop
endfacet
facet normal -0.34904880170348646 -0.10519305103923936 0.9311816987260951
  outer loop
    vertex 2.949969049569761 2.4789959527673697 4.01400887621719
    vertex -2.3855696727003344 2.478995952766766 2.01400887621824
    vertex 3.2385206643375737 1.521531611074969 4.014008876217994
  endloop
endfacet
facet normal 0.749926055669935 0.2260056744670799 0.621717255781126
  outer loop
    vertex 1.3085278531503615 13.427367224618923 2.0140088762106485
    vertex -0.6380999174762966 14.384831566313334 4.014008876210616
    vertex -0.34954830270802195 13.427367224620518 4.014008876211165
  endloop
endfacet
facet normal 0.749926055669935 0.2260056744670799 0.621717255781126
  outer loop
    vertex -0.6380999174762966 14.384831566313334 4.014008876210616
    vertex 1.3085278531503615 13.427367224618923 2.0140088762106485
    vertex 1.0199762383784832 14.384831566311515 2.0140088762102493
  endloop
endfacet
facet normal -0.3583625118359572 -0.20029731298260875 0.9118428025282485
  outer loop
    vertex -2.3855696727003344 2.478995952766766 2.01400887621824
    vertex -1.8504201283603046 1.5215316110745793 2.0140088762185364
    vertex 3.2385206643375737 1.521531611074969 4.014008876217994
  endloop
endfacet
facet normal 4.327094238472967e-14 1.0 -5.112013758341901e-13
  outer loop
    vertex -9.040023761617865 14.384831566311254 2.0140088762124773
    vertex 1.0199762383778335 14.38483156631052 -9.430328873349935e-12
    vertex -9.040023761619347 14.384831566311693 -7.167858484535827e-12
  endloop
endfacet
facet normal 4.327094238472967e-14 1.0 -5.112013758341901e-13
  outer loop
    vertex 1.0199762383778335 14.38483156631052 -9.430328873349935e-12
    vertex -9.040023761617865 14.384831566311254 2.0140088762124773
    vertex -0.6380999174762966 14.384831566313334 4.014008876210616
  endloop
endfacet
facet normal 4.327094238472967e-14 1.0 -5.112013758341901e-13
  outer loop
    vertex 1.0199762383778335 14.38483156631052 -9.430328873349935e-12
    vertex -0.6380999174762966 14.384831566313334 4.014008876210616
    vertex 1.0199762383784832 14.384831566311515 2.0140088762102493
  endloop
endfacet
facet normal -0.8729062319301638 -0.487888009954624 1.0256020057942951e-12
  outer loop
    vertex -6.359722375357255 9.589362655831783 -4.285988097763038e-12
    vertex -5.9450175668950305 8.847392358692652 2.014008876215703
    vertex -6.359722375356606 9.589362655833003 2.0140088762153483
  endloop
endfacet
facet normal -0.8729062319301638 -0.487888009954624 1.0256020057942951e-12
  outer loop
    vertex -5.9450175668950305 8.847392358692652 2.014008876215703
    vertex -6.359722375357255 9.589362655831783 -4.285988097763038e-12
    vertex -5.871834365401582 8.71645642390314 2.014008876215754
  endloop
endfacet
facet normal -0.8729062319301638 -0.487888009954624 1.0256020057942951e-12
  outer loop
    vertex -5.871834365401582 8.71645642390314 2.014008876215754
    vertex -6.359722375357255 9.589362655831783 -4.285988097763038e-12
    vertex -5.871834365401955 8.71645642390201 -3.8680013858538585e-12
  endloop
endfacet
facet normal -0.8729062319301638 -0.487888009954624 1.0256020057942951e-12
  outer loop
    vertex -5.871834365401955 8.71645642390201 -3.8680013858538585e-12
    vertex -6.359722375357255 9.589362655831783 -4.285988097763038e-12
    vertex -6.115778370380482 9.152909539867219 -4.076633786098682e-12
  endloop
endfacet
facet normal 0.7499260556699766 0.2260056744671202 0.6217172557810611
  outer loop
    vertex 4.896596820197895 1.5215316110734676 2.014008876217685
    vertex 2.949969049569761 2.4789959527673697 4.01400887621719
    vertex 3.2385206643375737 1.521531611074969 4.014008876217994
  endloop
endfacet
facet normal 0.7499260556699766 0.2260056744671202 0.6217172557810611
  outer loop
    vertex 2.949969049569761 2.4789959527673697 4.01400887621719
    vertex 4.896596820197895 1.5215316110734676 2.014008876217685
    vertex 4.608045205425834 2.4789959527659864 2.0140088762171473
  endloop
endfacet
facet normal 1.3086753902763547e-13 1.0 -5.936129956916327e-13
  outer loop
    vertex 2.949969049569761 2.4789959527673697 4.01400887621719
    vertex -1.385569672701246 2.4789959527662666 1.253210985457259
    vertex -2.3855696727003344 2.478995952766766 2.01400887621824
  endloop
endfacet
facet normal 1.3086753902763547e-13 1.0 -5.936129956916327e-13
  outer loop
    vertex -1.385569672701246 2.4789959527662666 1.253210985457259
    vertex 2.949969049569761 2.4789959527673697 4.01400887621719
    vertex 2.569605204870909 2.478995952766518 2.8149738788485057
  endloop
endfacet
facet normal 1.3086753902763547e-13 1.0 -5.936129956916327e-13
  outer loop
    vertex 2.569605204870909 2.478995952766518 2.8149738788485057
    vertex 2.949969049569761 2.4789959527673697 4.01400887621719
    vertex 3.6080452054288052 2.4789959527659517 1.6930626034792529
  endloop
endfacet
facet normal 1.3086753902763547e-13 1.0 -5.936129956916327e-13
  outer loop
    vertex 3.6080452054288052 2.4789959527659517 1.6930626034792529
    vertex 2.949969049569761 2.4789959527673697 4.01400887621719
    vertex 4.608045205425834 2.4789959527659864 2.0140088762171473
  endloop
endfacet
facet normal 1.3086753902763547e-13 1.0 -5.936129956916327e-13
  outer loop
    vertex 3.6080452054288052 2.4789959527659517 1.6930626034792529
    vertex 4.608045205425834 2.4789959527659864 2.0140088762171473
    vertex 4.608045205425185 2.4789959527647882 -2.741097659963998e-12
  endloop
endfacet
facet normal 1.3086753902763547e-13 1.0 -5.936129956916327e-13
  outer loop
    vertex 4.608045205425185 2.4789959527647882 -2.741097659963998e-12
    vertex 3.6080452054275836 2.478995952764716 -2.510086005713674e-12
    vertex 3.6080452054288052 2.4789959527659517 1.6930626034792529
  endloop
endfacet
facet normal 1.3086753902763547e-13 1.0 -5.936129956916327e-13
  outer loop
    vertex -2.3855696727003344 2.478995952766766 2.01400887621824
    vertex -1.38556967270135 2.4789959527657355 -2.0285710888856555e-12
    vertex -2.3855696727038485 2.4789959527655676 -1.4048396224097813e-12
  endloop
endfacet
facet normal 1.3086753902763547e-13 1.0 -5.936129956916327e-13
  outer loop
    vertex -1.38556967270135 2.4789959527657355 -2.0285710888856555e-12
    vertex -2.3855696727003344 2.478995952766766 2.01400887621824
    vertex -1.385569672701246 2.4789959527662666 1.253210985457259
  endloop
endfacet
facet normal -1.5382140006175841e-13 -1.0 6.02947689835431e-13
  outer loop
    vertex -0.8504201283618746 1.5215316110728294 -1.1658869425446028e-12
    vertex -1.8504201283603046 1.5215316110745793 2.0140088762185364
    vertex -1.8504201283607695 1.5215316110733117 -1.0164512787014245e-12
  endloop
endfacet
facet normal -1.5382140006175841e-13 -1.0 6.02947689835431e-13
  outer loop
    vertex -1.8504201283603046 1.5215316110745793 2.0140088762185364
    vertex -0.8504201283618746 1.5215316110728294 -1.1658869425446028e-12
    vertex -0.8504201283619556 1.5215316110738228 1.2532109854577171
  endloop
endfacet
facet normal -1.5382140006175841e-13 -1.0 6.02947689835431e-13
  outer loop
    vertex -0.8504201283619556 1.5215316110738228 1.2532109854577171
    vertex 3.2385206643375737 1.521531611074969 4.014008876217994
    vertex -1.8504201283603046 1.5215316110745793 2.0140088762185364
  endloop
endfacet
facet normal -1.5382140006175841e-13 -1.0 6.02947689835431e-13
  outer loop
    vertex 3.2385206643375737 1.521531611074969 4.014008876217994
    vertex -0.8504201283619556 1.5215316110738228 1.2532109854577171
    vertex 2.858156819639091 1.5215316110737707 2.814973878849309
  endloop
endfacet
facet normal -1.5382140006175841e-13 -1.0 6.02947689835431e-13
  outer loop
    vertex 3.2385206643375737 1.521531611074969 4.014008876217994
    vertex 2.858156819639091 1.5215316110737707 2.814973878849309
    vertex 3.8965968201961556 1.5215316110733637 1.693062603479814
  endloop
endfacet
facet normal -1.5382140006175841e-13 -1.0 6.02947689835431e-13
  outer loop
    vertex 3.2385206643375737 1.521531611074969 4.014008876217994
    vertex 3.8965968201961556 1.5215316110733637 1.693062603479814
    vertex 4.896596820197895 1.5215316110734676 2.014008876217685
  endloop
endfacet
facet normal -1.5382140006175841e-13 -1.0 6.02947689835431e-13
  outer loop
    vertex 4.896596820197895 1.5215316110734676 2.014008876217685
    vertex 3.8965968201961556 1.5215316110733637 1.693062603479814
    vertex 3.896596820195858 1.5215316110723356 -1.8221044228994288e-12
  endloop
endfacet
facet normal -1.5382140006175841e-13 -1.0 6.02947689835431e-13
  outer loop
    vertex 4.896596820197895 1.5215316110734676 2.014008876217685
    vertex 3.896596820195858 1.5215316110723356 -1.8221044228994288e-12
    vertex 4.896596820196229 1.5215316110724078 -2.0646666598622685e-12
  endloop
endfacet
facet normal -0.872906231931775 -0.48788800995174114 6.909040503938444e-13
  outer loop
    vertex -9.040023761617865 14.384831566311254 2.0140088762124773
    vertex -8.504874217281722 13.427367224619392 -6.167289257064112e-12
    vertex -8.504874217281442 13.427367224620612 2.014008876213432
  endloop
endfacet
facet normal -0.872906231931775 -0.48788800995174114 6.909040503938444e-13
  outer loop
    vertex -8.504874217281722 13.427367224619392 -6.167289257064112e-12
    vertex -9.040023761617865 14.384831566311254 2.0140088762124773
    vertex -9.040023761619347 14.384831566311693 -7.167858484535827e-12
  endloop
endfacet
facet normal 1.453281939233842e-13 1.0 -5.673849040233455e-13
  outer loop
    vertex -6.359722375356606 9.589362655833003 2.0140088762153483
    vertex -5.359722375355034 9.589362655831604 -4.539379006018862e-12
    vertex -6.359722375357255 9.589362655831783 -4.285988097763038e-12
  endloop
endfacet
facet normal 1.453281939233842e-13 1.0 -5.673849040233455e-13
  outer loop
    vertex -5.359722375355034 9.589362655831604 -4.539379006018862e-12
    vertex -6.359722375356606 9.589362655833003 2.0140088762153483
    vertex -5.359722375353636 9.589362655832296 1.2532109854541706
  endloop
endfacet
facet normal 1.453281939233842e-13 1.0 -5.673849040233455e-13
  outer loop
    vertex -5.359722375353636 9.589362655832296 1.2532109854541706
    vertex -6.359722375356606 9.589362655833003 2.0140088762153483
    vertex 0.8071134836343863 9.589362655832906 4.014008876213611
  endloop
endfacet
facet normal 1.819100425847756e-13 1.0 -5.997767548458115e-13
  outer loop
    vertex -3.748624215139924 4.917708895670903 2.0140088762170394
    vertex -2.7486242151417706 4.917708895669592 -2.801738219204708e-12
    vertex -3.748624215140573 4.917708895669774 -2.594549641798949e-12
  endloop
endfacet
facet normal 1.819100425847756e-13 1.0 -5.997767548458115e-13
  outer loop
    vertex -2.7486242151417706 4.917708895669592 -2.801738219204708e-12
    vertex -3.748624215139924 4.917708895670903 2.0140088762170394
    vertex -2.7486242151413895 4.917708895670423 1.2532109854560929
  endloop
endfacet
facet normal 1.819100425847756e-13 1.0 -5.997767548458115e-13
  outer loop
    vertex -2.7486242151413895 4.917708895670423 1.2532109854560929
    vertex -3.748624215139924 4.917708895670903 2.0140088762170394
    vertex 2.2150126371014736 4.917708895670923 4.014008876215683
  endloop
endfacet
facet normal 2.0394796962360165e-13 1.0 -5.275326812890298e-13
  outer loop
    vertex 3.8603471283073123 4.959987950550293 2.0140088762152586
    vertex 2.860347128308435 4.959987950550439 1.6930626034776648
    vertex 1.8219071277619043 4.959987950551124 2.8149738788472063
  endloop
endfacet
facet normal 2.0394796962360165e-13 1.0 -5.275326812890298e-13
  outer loop
    vertex 2.860347128308435 4.959987950550439 1.6930626034776648
    vertex 3.8603471283072173 4.959987950549278 -4.6404466047533786e-12
    vertex 2.8603471283078603 4.9599879505493885 -4.3870556964975545e-12
  endloop
endfacet
facet normal 2.0394796962360165e-13 1.0 -5.275326812890298e-13
  outer loop
    vertex 3.8603471283072173 4.959987950549278 -4.6404466047533786e-12
    vertex 2.860347128308435 4.959987950550439 1.6930626034776648
    vertex 3.8603471283073123 4.959987950550293 2.0140088762152586
  endloop
endfacet
facet normal 2.0394796962360165e-13 1.0 -5.275326812890298e-13
  outer loop
    vertex 3.8603471283072173 4.959987950549278 -4.6404466047533786e-12
    vertex 3.8603471283073123 4.959987950550293 2.0140088762152586
    vertex 3.860347128307448 4.959987950549885 0.999999999995767
  endloop
endfacet
facet normal -0.023957076416568336 0.9987846743493123 0.04307241314935673
  outer loop
    vertex 2.2150126371014736 4.917708895670923 4.014008876215683
    vertex 1.8219071277619043 4.959987950551124 2.8149738788472063
    vertex -2.7486242151413895 4.917708895670423 1.2532109854560929
  endloop
endfacet
facet normal -0.028110421330363164 -0.9992661391957496 -0.026018979023983792
  outer loop
    vertex 1.740999589614426 8.674177369020368 1.693062603476026
    vertex 1.095665098403214 8.631898314139647 4.014008876214148
    vertex 0.7025595890738092 8.674177369021049 2.814973878845556
  endloop
endfacet
facet normal -0.0053666412948096456 0.9998457866286491 0.016721307429463327
  outer loop
    vertex 3.1797200633499685 7.218426688477465 2.0140088762140564
    vertex 2.1797200633492433 7.218426688477337 1.693062603476485
    vertex 1.5343855721446842 7.17614763359865 4.014008876214469
  endloop
endfacet
facet normal 0.005366641294809674 -0.9998457866286496 -0.01672130742944216
  outer loop
    vertex 3.468271678119258 6.260962346784253 2.014008876214571
    vertex 1.8229371869149904 6.218683291905646 4.014008876214984
    vertex 2.468271678120658 6.260962346784311 1.6930626034770002
  endloop
endfacet
facet normal -8.867906409188308e-14 -1.0 5.782378327841123e-13
  outer loop
    vertex 3.468271678118793 6.260962346783078 -5.3746305184176885e-12
    vertex 2.468271678120658 6.260962346784311 1.6930626034770002
    vertex 2.4682716781202685 6.260962346783282 -5.1096890274493485e-12
  endloop
endfacet
facet normal -8.867906409188308e-14 -1.0 5.782378327841123e-13
  outer loop
    vertex 2.468271678120658 6.260962346784311 1.6930626034770002
    vertex 3.468271678118793 6.260962346783078 -5.3746305184176885e-12
    vertex 3.468271678119258 6.260962346784253 2.014008876214571
  endloop
endfacet
facet normal -1.569577801063429e-13 -1.0 5.231743759514991e-13
  outer loop
    vertex 2.740999589610436 8.674177369019228 -6.244533778954064e-12
    vertex 1.740999589614426 8.674177369020368 1.693062603476026
    vertex 1.7409995896135741 8.674177369019294 -5.944940539848175e-12
  endloop
endfacet
facet normal -1.569577801063429e-13 -1.0 5.231743759514991e-13
  outer loop
    vertex 1.740999589614426 8.674177369020368 1.693062603476026
    vertex 2.740999589610436 8.674177369019228 -6.244533778954064e-12
    vertex 2.7409995896118247 8.674177369020171 2.0140088762132735
  endloop
endfacet
facet normal -0.01017591185963533 -0.9998587659023421 -0.013375315550311417
  outer loop
    vertex -0.06696498595606772 11.227593475324218 2.814973878844056
    vertex -7.322629995341885 11.312151585085942 2.014008876214524
    vertex -6.322629995342705 11.312151585085417 1.2532109854533466
  endloop
endfacet
facet normal -0.01848233690512056 0.9989764821560407 0.041284274508188556
  outer loop
    vertex 0.8071134836343863 9.589362655832906 4.014008876213611
    vertex 0.41400797430673736 9.631641710713776 2.8149738788450644
    vertex -5.359722375353636 9.589362655832296 1.2532109854541706
  endloop
endfacet
facet normal -6.566969190653197e-14 -1.0 5.555392010849593e-13
  outer loop
    vertex -5.871834365401955 8.71645642390201 -3.8680013858538585e-12
    vertex -4.8718343654031395 8.716456423902637 1.253210985454588
    vertex -5.871834365401582 8.71645642390314 2.014008876215754
  endloop
endfacet
facet normal -6.566969190653197e-14 -1.0 5.555392010849593e-13
  outer loop
    vertex -4.8718343654031395 8.716456423902637 1.253210985454588
    vertex -5.871834365401955 8.71645642390201 -3.8680013858538585e-12
    vertex -4.8718343654037986 8.716456423901944 -4.110563622816699e-12
  endloop
endfacet
facet normal -0.26791548369453966 -0.0807418533252919 0.9600531478612618
  outer loop
    vertex 1.0701817691013589 8.716456423903187 4.014008876214103
    vertex -6.359722375356606 9.589362655833003 2.0140088762153483
    vertex 1.095665098403214 8.631898314139647 4.014008876214148
  endloop
endfacet
facet normal -0.26791548369453966 -0.0807418533252919 0.9600531478612618
  outer loop
    vertex -6.359722375356606 9.589362655833003 2.0140088762153483
    vertex 1.0701817691013589 8.716456423903187 4.014008876214103
    vertex 0.8071134836343863 9.589362655832906 4.014008876213611
  endloop
endfacet
facet normal -2.297884105217381e-13 -1.0 5.883798650008384e-13
  outer loop
    vertex -6.322629995342994 11.312151585084608 -5.3746305184176885e-12
    vertex -7.322629995341885 11.312151585085942 2.014008876214524
    vertex -7.322629995343921 11.31215158508472 -5.1096890274493485e-12
  endloop
endfacet
facet normal -2.297884105217381e-13 -1.0 5.883798650008384e-13
  outer loop
    vertex -7.322629995341885 11.312151585085942 2.014008876214524
    vertex -6.322629995342994 11.312151585084608 -5.3746305184176885e-12
    vertex -6.322629995342705 11.312151585085417 1.2532109854533466
  endloop
endfacet
facet normal 9.384160115638635e-14 1.0 -5.942684938795241e-13
  outer loop
    vertex 3.1797200633499685 7.218426688477465 2.0140088762140564
    vertex 2.179720063349593 7.2184266884764945 -5.474254294313141e-12
    vertex 2.1797200633492433 7.218426688477337 1.693062603476485
  endloop
endfacet
facet normal 9.384160115638635e-14 1.0 -5.942684938795241e-13
  outer loop
    vertex 2.179720063349593 7.2184266884764945 -5.474254294313141e-12
    vertex 3.1797200633499685 7.218426688477465 2.0140088762140564
    vertex 3.179720063349504 7.218426688476243 -5.739195785281481e-12
  endloop
endfacet
facet normal 0.005366641294769317 -0.9998457866286461 -0.016721307429662522
  outer loop
    vertex 4.14889874307734 4.002523608857288 2.014008876215797
    vertex 2.5035642518728882 3.9602445539782885 4.014008876216198
    vertex 3.148898743080035 4.002523608857692 1.69306260347818
  endloop
endfacet
facet normal -0.02095623378378858 0.9988939199148308 0.042092434270105276
  outer loop
    vertex 1.5343855721446842 7.17614763359865 4.014008876214469
    vertex 1.1412800628081645 7.218426688478158 2.814973878846027
    vertex -4.010919225922312 7.176147633597919 1.2532109854553248
  endloop
endfacet
facet normal -0.2743608750391405 -0.15334680454279867 0.9493212668977083
  outer loop
    vertex -6.359722375356606 9.589362655833003 2.0140088762153483
    vertex -5.871834365401582 8.71645642390314 2.014008876215754
    vertex 1.095665098403214 8.631898314139647 4.014008876214148
  endloop
endfacet
facet normal -0.2743608750391405 -0.15334680454279867 0.9493212668977083
  outer loop
    vertex -5.871834365401582 8.71645642390314 2.014008876215754
    vertex -6.359722375356606 9.589362655833003 2.0140088762153483
    vertex -5.9450175668950305 8.847392358692652 2.014008876215703
  endloop
endfacet
facet normal 1.6234236177575927e-13 1.0 -5.909626570419994e-13
  outer loop
    vertex -7.810518005295062 12.185057817017658 2.0140088762141186
    vertex -6.810518005296805 12.18505781701704 1.253210985452941
    vertex -7.810518005295526 12.185057817016435 -5.526953827938996e-12
  endloop
endfacet
facet normal 1.6234236177575927e-13 1.0 -5.909626570419994e-13
  outer loop
    vertex -6.810518005296805 12.18505781701704 1.253210985452941
    vertex -7.810518005295062 12.185057817017658 2.0140088762141186
    vertex 0.024847243947714093 12.185057817017519 4.014008876211799
  endloop
endfacet
facet normal 1.6234236177575927e-13 1.0 -5.909626570419994e-13
  outer loop
    vertex -7.810518005295526 12.185057817016435 -5.526953827938996e-12
    vertex -6.810518005296805 12.18505781701704 1.253210985452941
    vertex -6.810518005297278 12.185057817016324 -5.792617230326868e-12
  endloop
endfacet
facet normal 1.6234236177575927e-13 1.0 -5.909626570419994e-13
  outer loop
    vertex -6.810518005296805 12.18505781701704 1.253210985452941
    vertex 0.024847243947714093 12.185057817017519 4.014008876211799
    vertex -0.35551660072397123 12.185057817016805 2.814973878843541
  endloop
endfacet
facet normal 1.6234236177575927e-13 1.0 -5.909626570419994e-13
  outer loop
    vertex -0.35551660072397123 12.185057817016805 2.814973878843541
    vertex 0.024847243947714093 12.185057817017519 4.014008876211799
    vertex 0.6829233998032468 12.18505781701619 1.693062603474
  endloop
endfacet
facet normal 1.6234236177575927e-13 1.0 -5.909626570419994e-13
  outer loop
    vertex 0.6829233998032468 12.18505781701619 1.693062603474
    vertex 0.024847243947714093 12.185057817017519 4.014008876211799
    vertex 1.6829233998039723 12.185057817016204 2.014008876211317
  endloop
endfacet
facet normal 1.6234236177575927e-13 1.0 -5.909626570419994e-13
  outer loop
    vertex 0.6829233998032468 12.18505781701619 1.693062603474
    vertex 1.6829233998039723 12.185057817016204 2.014008876211317
    vertex 0.682923399802857 12.185057817015116 -7.92514356362517e-12
  endloop
endfacet
facet normal 1.6234236177575927e-13 1.0 -5.909626570419994e-13
  outer loop
    vertex 0.682923399802857 12.185057817015116 -7.92514356362517e-12
    vertex 1.6829233998039723 12.185057817016204 2.014008876211317
    vertex 1.6829233998032302 12.185057817014961 -8.213186220018542e-12
  endloop
endfacet
facet normal -0.006034686440125245 -0.9999503313425955 -0.007932049382287669
  outer loop
    vertex 1.4298316775747744 6.26096234678511 2.8149738788465184
    vertex -4.523031215970258 6.303241401667029 2.0140088762169084
    vertex -3.523031215971446 6.303241401666204 1.2532109854557423
  endloop
endfacet
facet normal -0.0027459544552777375 -0.9994064459851948 -0.034339706716449044
  outer loop
    vertex 2.5035642518728882 3.9602445539782885 4.014008876216198
    vertex -3.260736205187672 4.044802663738379 2.014008876217457
    vertex 2.1104587425263888 4.002523608858212 2.8149738788477094
  endloop
endfacet
facet normal -0.2983968351550242 -0.1667810731025939 0.9397570975652232
  outer loop
    vertex -5.010919225921309 7.176147633598399 2.014008876216491
    vertex -4.523031215970258 6.303241401667029 2.0140088762169084
    vertex 1.8229371869149904 6.218683291905646 4.014008876214984
  endloop
endfacet
facet normal 0.012267011546955628 0.9994372795280839 0.03121930039590322
  outer loop
    vertex 3.8603471283073123 4.959987950550293 2.0140088762152586
    vertex 1.8219071277619043 4.959987950551124 2.8149738788472063
    vertex 2.2150126371014736 4.917708895670923 4.014008876215683
  endloop
endfacet
facet normal -0.23609785284911486 -0.13196069333213153 0.962727468858836
  outer loop
    vertex -9.040023761617865 14.384831566311254 2.0140088762124773
    vertex -8.504874217281442 13.427367224620612 2.014008876213432
    vertex -0.34954830270802195 13.427367224620518 4.014008876211165
  endloop
endfacet
facet normal -0.23315578878621745 -0.13031630390368365 0.9636680129029705
  outer loop
    vertex -7.504874217281797 13.427367224619902 1.2532109854523583
    vertex -6.810518005296805 12.18505781701704 1.253210985452941
    vertex -0.35551660072397123 12.185057817016805 2.814973878843541
  endloop
endfacet
facet normal 1.0 -4.281575094467546e-13 -1.993125043868975e-13
  outer loop
    vertex -2.62336021745044 11.282195508204452 -6.59105126032955e-12
    vertex -2.6233602174488895 13.793340286198912 0.9999999999919109
    vertex -2.623360217450302 11.282195508205058 0.9999999999934357
  endloop
endfacet
facet normal 1.0 -4.281575094467546e-13 -1.993125043868975e-13
  outer loop
    vertex -2.6233602174488895 13.793340286198912 0.9999999999919109
    vertex -2.62336021745044 11.282195508204452 -6.59105126032955e-12
    vertex -2.6233602174491195 13.793340286198307 -8.092627012956654e-12
  endloop
endfacet
facet normal -1.484645739679453e-13 -1.0 5.889195740299592e-13
  outer loop
    vertex -8.504874217281442 13.427367224620612 2.014008876213432
    vertex -7.504874217281797 13.427367224619902 1.2532109854523583
    vertex -0.34954830270802195 13.427367224620518 4.014008876211165
  endloop
endfacet
facet normal -1.484645739679453e-13 -1.0 5.889195740299592e-13
  outer loop
    vertex -7.504874217281797 13.427367224619902 1.2532109854523583
    vertex -8.504874217281442 13.427367224620612 2.014008876213432
    vertex -8.504874217281722 13.427367224619392 -6.167289257064112e-12
  endloop
endfacet
facet normal -1.484645739679453e-13 -1.0 5.889195740299592e-13
  outer loop
    vertex -7.504874217281797 13.427367224619902 1.2532109854523583
    vertex -8.504874217281722 13.427367224619392 -6.167289257064112e-12
    vertex -7.5048742172833816 13.427367224619278 -6.4098514940269525e-12
  endloop
endfacet
facet normal -1.484645739679453e-13 -1.0 5.889195740299592e-13
  outer loop
    vertex -0.34954830270802195 13.427367224620518 4.014008876211165
    vertex -7.504874217281797 13.427367224619902 1.2532109854523583
    vertex -6.53291781809011 13.427367224619891 1.4883721175904603
  endloop
endfacet
facet normal -1.484645739679453e-13 -1.0 5.889195740299592e-13
  outer loop
    vertex -0.34954830270802195 13.427367224620518 4.014008876211165
    vertex -6.53291781809011 13.427367224619891 1.4883721175904603
    vertex -5.833109210671458 13.42736722461977 1.6576881327298887
  endloop
endfacet
facet normal -1.484645739679453e-13 -1.0 5.889195740299592e-13
  outer loop
    vertex -0.34954830270802195 13.427367224620518 4.014008876211165
    vertex -5.833109210671458 13.42736722461977 1.6576881327298887
    vertex -0.7299121473715757 13.42736722461985 2.8149738788428733
  endloop
endfacet
facet normal -1.484645739679453e-13 -1.0 5.889195740299592e-13
  outer loop
    vertex -0.34954830270802195 13.427367224620518 4.014008876211165
    vertex -0.7299121473715757 13.42736722461985 2.8149738788428733
    vertex 0.3085278531488968 13.427367224619028 1.6930626034733318
  endloop
endfacet
facet normal -1.484645739679453e-13 -1.0 5.889195740299592e-13
  outer loop
    vertex -0.34954830270802195 13.427367224620518 4.014008876211165
    vertex 0.3085278531488968 13.427367224619028 1.6930626034733318
    vertex 1.3085278531503615 13.427367224618923 2.0140088762106485
  endloop
endfacet
facet normal -1.484645739679453e-13 -1.0 5.889195740299592e-13
  outer loop
    vertex 1.3085278531503615 13.427367224618923 2.0140088762106485
    vertex 0.3085278531488968 13.427367224619028 1.6930626034733318
    vertex 0.3085278531492462 13.427367224618092 -8.673765705680125e-12
  endloop
endfacet
facet normal -1.484645739679453e-13 -1.0 5.889195740299592e-13
  outer loop
    vertex 1.3085278531503615 13.427367224618923 2.0140088762106485
    vertex 0.3085278531492462 13.427367224618092 -8.673765705680125e-12
    vertex 1.3085278531507283 13.42736722461791 -8.973358944786013e-12
  endloop
endfacet
facet normal -0.8729062319313773 -0.48788800995245296 7.0756351512122e-13
  outer loop
    vertex -3.5230312159709034 6.303241401665603 -3.013980176547193e-12
    vertex -2.7486242151413895 4.917708895670423 1.2532109854560929
    vertex -3.523031215971446 6.303241401666204 1.2532109854557423
  endloop
endfacet
facet normal -0.8729062319313773 -0.48788800995245296 7.0756351512122e-13
  outer loop
    vertex -2.7486242151413895 4.917708895670423 1.2532109854560929
    vertex -3.5230312159709034 6.303241401665603 -3.013980176547193e-12
    vertex -2.7486242151417706 4.917708895669592 -2.801738219204708e-12
  endloop
endfacet
facet normal -0.872906231930829 -0.48788800995343373 6.218917486588235e-13
  outer loop
    vertex -7.5048742172833816 13.427367224619278 -6.4098514940269525e-12
    vertex -6.810518005296805 12.18505781701704 1.253210985452941
    vertex -7.504874217281797 13.427367224619902 1.2532109854523583
  endloop
endfacet
facet normal -0.872906231930829 -0.48788800995343373 6.218917486588235e-13
  outer loop
    vertex -6.810518005296805 12.18505781701704 1.253210985452941
    vertex -7.5048742172833816 13.427367224619278 -6.4098514940269525e-12
    vertex -6.810518005297278 12.185057817016324 -5.792617230326868e-12
  endloop
endfacet
facet normal 0.7165637248852694 0.21595124841486593 0.6632506965594599
  outer loop
    vertex 2.569605204870909 2.478995952766518 2.8149738788485057
    vertex 3.148898743080035 4.002523608857692 1.69306260347818
    vertex 2.1104587425263888 4.002523608858212 2.8149738788477094
  endloop
endfacet
facet normal 0.7165637248852694 0.21595124841486593 0.6632506965594599
  outer loop
    vertex 3.148898743080035 4.002523608857692 1.69306260347818
    vertex 2.569605204870909 2.478995952766518 2.8149738788485057
    vertex 3.6080452054288052 2.4789959527659517 1.6930626034792529
  endloop
endfacet
facet normal -4.116429419553399e-13 -1.0 5.829795709663749e-13
  outer loop
    vertex 4.148898743076875 4.002523608856159 -3.860060360239003e-12
    vertex 3.148898743080035 4.002523608857692 1.69306260347818
    vertex 3.14889874307946 4.002523608856642 -3.629770617408212e-12
  endloop
endfacet
facet normal -4.116429419553399e-13 -1.0 5.829795709663749e-13
  outer loop
    vertex 3.148898743080035 4.002523608857692 1.69306260347818
    vertex 4.148898743076875 4.002523608856159 -3.860060360239003e-12
    vertex 4.14889874307734 4.002523608857288 2.014008876215797
  endloop
endfacet
facet normal -2.84437063019025e-13 -6.13665696865988e-13 -1.0
  outer loop
    vertex -2.623360217450302 11.282195508205058 0.9999999999934357
    vertex -0.024505453163730363 13.793340286198687 0.9999999999911616
    vertex -0.024505453166622337 11.282195508204603 0.999999999992686
  endloop
endfacet
facet normal -2.84437063019025e-13 -6.13665696865988e-13 -1.0
  outer loop
    vertex -0.024505453163730363 13.793340286198687 0.9999999999911616
    vertex -2.623360217450302 11.282195508205058 0.9999999999934357
    vertex -2.6233602174488895 13.793340286198912 0.9999999999919109
  endloop
endfacet
facet normal -0.8729062319311537 -0.4878880099528527 5.553848670792714e-13
  outer loop
    vertex -0.8504201283618746 1.5215316110728294 -1.1658869425446028e-12
    vertex 2.8010163077851757e-13 7.291305337275844e-13 1.2000000000000046
    vertex -0.8504201283619556 1.5215316110738228 1.2532109854577171
  endloop
endfacet
facet normal -0.8729062319311537 -0.4878880099528527 5.553848670792714e-13
  outer loop
    vertex 2.8010163077851757e-13 7.291305337275844e-13 1.2000000000000046
    vertex -0.8504201283618746 1.5215316110728294 -1.1658869425446028e-12
    vertex 4.33146851719357e-15 0.0 0.0
  endloop
endfacet
facet normal -0.006581042468287517 -0.9999409303455329 -0.008650184954134861
  outer loop
    vertex 2.1104587425263888 4.002523608858212 2.8149738788477094
    vertex -3.260736205187672 4.044802663738379 2.014008876217457
    vertex -2.260736205188582 4.044802663737945 1.2532109854565106
  endloop
endfacet
facet normal -0.3247244620262309 -0.18149620860141896 0.928231194274942
  outer loop
    vertex -3.748624215139924 4.917708895670903 2.0140088762170394
    vertex -3.260736205187672 4.044802663738379 2.014008876217457
    vertex 2.5035642518728882 3.9602445539782885 4.014008876216198
  endloop
endfacet
facet normal -0.2910979587711083 -0.08772837003058905 0.9526624331267977
  outer loop
    vertex 1.7974538576140593 6.303241401667154 4.0140088762149375
    vertex -5.010919225921309 7.176147633598399 2.014008876216491
    vertex 1.8229371869149904 6.218683291905646 4.014008876214984
  endloop
endfacet
facet normal -0.2910979587711083 -0.08772837003058905 0.9526624331267977
  outer loop
    vertex -5.010919225921309 7.176147633598399 2.014008876216491
    vertex 1.7974538576140593 6.303241401667154 4.0140088762149375
    vertex 1.5343855721446842 7.17614763359865 4.014008876214469
  endloop
endfacet
facet normal 1.5371037775930122e-13 1.0 -5.798746289669356e-13
  outer loop
    vertex 1.4524479748394072 9.631641710712861 1.6930626034755112
    vertex 2.4524479748406844 9.631641710711792 -6.5744472976803075e-12
    vertex 1.452447974838925 9.63164171071181 -6.18244939687429e-12
  endloop
endfacet
facet normal 1.5371037775930122e-13 1.0 -5.798746289669356e-13
  outer loop
    vertex 2.4524479748406844 9.631641710711792 -6.5744472976803075e-12
    vertex 1.4524479748394072 9.631641710712861 1.6930626034755112
    vertex 2.4524479748407795 9.631641710712898 2.0140088762127473
  endloop
endfacet
facet normal -0.24663885259442975 -0.07432970198544518 0.9662527473666805
  outer loop
    vertex -7.810518005295062 12.185057817017658 2.0140088762141186
    vertex 0.3133988587125683 11.22759347532341 4.014008876212314
    vertex 0.024847243947714093 12.185057817017519 4.014008876211799
  endloop
endfacet
facet normal -0.012076036643148677 -0.9999197438565136 0.0038308203974733957
  outer loop
    vertex 0.3133988587125683 11.22759347532341 4.014008876212314
    vertex -7.322629995341885 11.312151585085942 2.014008876214524
    vertex -0.06696498595606772 11.227593475324218 2.814973878844056
  endloop
endfacet
facet normal -0.2522989589273927 -0.14101587602524066 0.9573190471483308
  outer loop
    vertex -7.810518005295062 12.185057817017658 2.0140088762141186
    vertex -7.322629995341885 11.312151585085942 2.014008876214524
    vertex 0.3133988587125683 11.22759347532341 4.014008876212314
  endloop
endfacet
facet normal 5.6649129831483725e-14 -1.0 2.9183800678313013e-13
  outer loop
    vertex 1.9714750145729818 11.227593475322719 -7.559856385341845e-12
    vertex 0.9714750145740149 11.227593475323813 1.6930626034745146
    vertex 0.9714750145733478 11.227593475322784 -7.364218390648602e-12
  endloop
endfacet
facet normal 5.6649129831483725e-14 -1.0 2.9183800678313013e-13
  outer loop
    vertex 0.9714750145740149 11.227593475323813 1.6930626034745146
    vertex 0.3133988587125683 11.22759347532341 4.014008876212314
    vertex -0.06696498595606772 11.227593475324218 2.814973878844056
  endloop
endfacet
facet normal 5.6649129831483725e-14 -1.0 2.9183800678313013e-13
  outer loop
    vertex 0.3133988587125683 11.22759347532341 4.014008876212314
    vertex 0.9714750145740149 11.227593475323813 1.6930626034745146
    vertex 1.9714750145754796 11.227593475324033 2.0140088762118316
  endloop
endfacet
facet normal 5.6649129831483725e-14 -1.0 2.9183800678313013e-13
  outer loop
    vertex 1.9714750145754796 11.227593475324033 2.0140088762118316
    vertex 0.9714750145740149 11.227593475323813 1.6930626034745146
    vertex 1.9714750145729818 11.227593475322719 -7.559856385341845e-12
  endloop
endfacet
facet normal -0.3165117193824516 -0.09538733062360606 0.9437804769383966
  outer loop
    vertex 2.478080922572327 4.044802663738688 4.0140088762161525
    vertex -3.748624215139924 4.917708895670903 2.0140088762170394
    vertex 2.5035642518728882 3.9602445539782885 4.014008876216198
  endloop
endfacet
facet normal -0.3165117193824516 -0.09538733062360606 0.9437804769383966
  outer loop
    vertex -3.748624215139924 4.917708895670903 2.0140088762170394
    vertex 2.478080922572327 4.044802663738688 4.0140088762161525
    vertex 2.2150126371014736 4.917708895670923 4.014008876215683
  endloop
endfacet
facet normal 0.7499260556700571 0.22600567446514583 0.6217172557816818
  outer loop
    vertex 1.9714750145754796 11.227593475324033 2.0140088762118316
    vertex 0.024847243947714093 12.185057817017519 4.014008876211799
    vertex 0.3133988587125683 11.22759347532341 4.014008876212314
  endloop
endfacet
facet normal 0.7499260556700571 0.22600567446514583 0.6217172557816818
  outer loop
    vertex 0.024847243947714093 12.185057817017519 4.014008876211799
    vertex 1.9714750145754796 11.227593475324033 2.0140088762118316
    vertex 1.6829233998039723 12.185057817016204 2.014008876211317
  endloop
endfacet
facet normal -0.0024652526350388043 -0.9994040144213202 -0.034431649510229506
  outer loop
    vertex 1.8229371869149904 6.218683291905646 4.014008876214984
    vertex -4.523031215970258 6.303241401667029 2.0140088762169084
    vertex 1.4298316775747744 6.26096234678511 2.8149738788465184
  endloop
endfacet
facet normal -1.0 4.553579735492008e-13 -1.2355775413953008e-12
  outer loop
    vertex -0.024505453163961372 13.793340286198081 -8.841971066431142e-12
    vertex -0.024505453166622337 11.282195508204603 0.999999999992686
    vertex -0.024505453163730363 13.793340286198687 0.9999999999911616
  endloop
endfacet
facet normal -1.0 4.553579735492008e-13 -1.2355775413953008e-12
  outer loop
    vertex -0.024505453166622337 11.282195508204603 0.999999999992686
    vertex -0.024505453163961372 13.793340286198081 -8.841971066431142e-12
    vertex -0.0245054531638964 11.282195508203996 -7.2133389039663595e-12
  endloop
endfacet
facet normal 0.028110421328942627 0.9992661391958197 0.02601897902282091
  outer loop
    vertex 2.1797200633492433 7.218426688477337 1.693062603476485
    vertex 1.1412800628081645 7.218426688478158 2.814973878846027
    vertex 1.5343855721446842 7.17614763359865 4.014008876214469
  endloop
endfacet
facet normal -0.8729062319311773 -0.4878880099528106 6.187804199808766e-13
  outer loop
    vertex -2.2607362051901645 4.0448026637372525 -2.3844734187150605e-12
    vertex -1.385569672701246 2.4789959527662666 1.253210985457259
    vertex -2.260736205188582 4.044802663737945 1.2532109854565106
  endloop
endfacet
facet normal -0.8729062319311773 -0.4878880099528106 6.187804199808766e-13
  outer loop
    vertex -1.385569672701246 2.4789959527662666 1.253210985457259
    vertex -2.2607362051901645 4.0448026637372525 -2.3844734187150605e-12
    vertex -1.38556967270135 2.4789959527657355 -2.0285710888856555e-12
  endloop
endfacet
facet normal -2.237654506131494e-13 -1.0 5.763758553652334e-13
  outer loop
    vertex -3.5230312159709034 6.303241401665603 -3.013980176547193e-12
    vertex -4.523031215970258 6.303241401667029 2.0140088762169084
    vertex -4.523031215970722 6.303241401665854 -2.7259375201538204e-12
  endloop
endfacet
facet normal -2.237654506131494e-13 -1.0 5.763758553652334e-13
  outer loop
    vertex -4.523031215970258 6.303241401667029 2.0140088762169084
    vertex -3.5230312159709034 6.303241401665603 -3.013980176547193e-12
    vertex -3.523031215971446 6.303241401666204 1.2532109854557423
  endloop
endfacet
facet normal -0.8729062319309121 -0.487888009953285 1.1225135999970216e-12
  outer loop
    vertex -4.8718343654037986 8.716456423901944 -4.110563622816699e-12
    vertex -4.010919225922312 7.176147633597919 1.2532109854553248
    vertex -4.8718343654031395 8.716456423902637 1.253210985454588
  endloop
endfacet
facet normal -0.8729062319309121 -0.487888009953285 1.1225135999970216e-12
  outer loop
    vertex -4.010919225922312 7.176147633597919 1.2532109854553248
    vertex -4.8718343654037986 8.716456423901944 -4.110563622816699e-12
    vertex -4.01091922592565 7.176147633597134 -3.4081438116118078e-12
  endloop
endfacet
facet normal 0.7499260556703969 0.22600567446668823 0.6217172557807111
  outer loop
    vertex 3.468271678119258 6.260962346784253 2.014008876214571
    vertex 1.7974538576140593 6.303241401667154 4.0140088762149375
    vertex 1.8229371869149904 6.218683291905646 4.014008876214984
  endloop
endfacet
facet normal 0.7499260556703969 0.22600567446668823 0.6217172557807111
  outer loop
    vertex 1.7974538576140593 6.303241401667154 4.0140088762149375
    vertex 3.468271678119258 6.260962346784253 2.014008876214571
    vertex 1.5343855721446842 7.17614763359865 4.014008876214469
  endloop
endfacet
facet normal 0.7499260556703969 0.22600567446668823 0.6217172557807111
  outer loop
    vertex 1.5343855721446842 7.17614763359865 4.014008876214469
    vertex 3.468271678119258 6.260962346784253 2.014008876214571
    vertex 3.1797200633499685 7.218426688477465 2.0140088762140564
  endloop
endfacet
facet normal -1.139366379020945e-13 -1.0 6.254240925319604e-13
  outer loop
    vertex -0.024505453163961372 13.793340286198081 -8.841971066431142e-12
    vertex -2.6233602174488895 13.793340286198912 0.9999999999919109
    vertex -2.6233602174491195 13.793340286198307 -8.092627012956654e-12
  endloop
endfacet
facet normal -1.139366379020945e-13 -1.0 6.254240925319604e-13
  outer loop
    vertex -2.6233602174488895 13.793340286198912 0.9999999999919109
    vertex -0.024505453163961372 13.793340286198081 -8.841971066431142e-12
    vertex -0.024505453163730363 13.793340286198687 0.9999999999911616
  endloop
endfacet
facet normal -0.8729062319310206 -0.48788800995309095 5.616096147136683e-13
  outer loop
    vertex -6.322629995342994 11.312151585084608 -5.3746305184176885e-12
    vertex -5.359722375353636 9.589362655832296 1.2532109854541706
    vertex -6.322629995342705 11.312151585085417 1.2532109854533466
  endloop
endfacet
facet normal -0.8729062319310206 -0.48788800995309095 5.616096147136683e-13
  outer loop
    vertex -5.359722375353636 9.589362655832296 1.2532109854541706
    vertex -6.322629995342994 11.312151585084608 -5.3746305184176885e-12
    vertex -5.359722375355034 9.589362655831604 -4.539379006018862e-12
  endloop
endfacet
facet normal -0.0055429697276967544 -0.9999580959181256 -0.007285732248357734
  outer loop
    vertex 0.7025595890738092 8.674177369021049 2.814973878845556
    vertex -5.871834365401582 8.71645642390314 2.014008876215754
    vertex -4.8718343654031395 8.716456423902637 1.253210985454588
  endloop
endfacet
facet normal -0.8729062319315265 -0.4878880099521857 5.317233245453574e-13
  outer loop
    vertex -7.810518005295526 12.185057817016435 -5.526953827938996e-12
    vertex -7.322629995341885 11.312151585085942 2.014008876214524
    vertex -7.810518005295062 12.185057817017658 2.0140088762141186
  endloop
endfacet
facet normal -0.8729062319315265 -0.4878880099521857 5.317233245453574e-13
  outer loop
    vertex -7.322629995341885 11.312151585085942 2.014008876214524
    vertex -7.810518005295526 12.185057817016435 -5.526953827938996e-12
    vertex -7.322629995343921 11.31215158508472 -5.1096890274493485e-12
  endloop
endfacet
facet normal 0.7499260556699763 0.22600567446646583 0.6217172557812994
  outer loop
    vertex 2.7409995896118247 8.674177369020171 2.0140088762132735
    vertex 1.0701817691013589 8.716456423903187 4.014008876214103
    vertex 1.095665098403214 8.631898314139647 4.014008876214148
  endloop
endfacet
facet normal 0.7499260556699763 0.22600567446646583 0.6217172557812994
  outer loop
    vertex 1.0701817691013589 8.716456423903187 4.014008876214103
    vertex 2.7409995896118247 8.674177369020171 2.0140088762132735
    vertex 0.8071134836343863 9.589362655832906 4.014008876213611
  endloop
endfacet
facet normal 0.7499260556699763 0.22600567446646583 0.6217172557812994
  outer loop
    vertex 0.8071134836343863 9.589362655832906 4.014008876213611
    vertex 2.7409995896118247 8.674177369020171 2.0140088762132735
    vertex 2.4524479748407795 9.631641710712898 2.0140088762127473
  endloop
endfacet
facet normal -0.002222491063953829 -0.9994018411962156 -0.03451116264464269
  outer loop
    vertex 1.095665098403214 8.631898314139647 4.014008876214148
    vertex -5.871834365401582 8.71645642390314 2.014008876215754
    vertex 0.7025595890738092 8.674177369021049 2.814973878845556
  endloop
endfacet
facet normal 0.005366641295047428 -0.999845786628637 -0.01672130743011843
  outer loop
    vertex 2.7409995896118247 8.674177369020171 2.0140088762132735
    vertex 1.095665098403214 8.631898314139647 4.014008876214148
    vertex 1.740999589614426 8.674177369020368 1.693062603476026
  endloop
endfacet
facet normal 0.7499260556703394 0.22600567446708728 0.6217172557806355
  outer loop
    vertex 4.14889874307734 4.002523608857288 2.014008876215797
    vertex 2.478080922572327 4.044802663738688 4.0140088762161525
    vertex 2.5035642518728882 3.9602445539782885 4.014008876216198
  endloop
endfacet
facet normal 0.7499260556703394 0.22600567446708728 0.6217172557806355
  outer loop
    vertex 2.478080922572327 4.044802663738688 4.0140088762161525
    vertex 4.14889874307734 4.002523608857288 2.014008876215797
    vertex 2.2150126371014736 4.917708895670923 4.014008876215683
  endloop
endfacet
facet normal 0.7499260556703394 0.22600567446708728 0.6217172557806355
  outer loop
    vertex 2.2150126371014736 4.917708895670923 4.014008876215683
    vertex 4.14889874307734 4.002523608857288 2.014008876215797
    vertex 4.13615707842618 4.044802663737142 2.014008876215774
  endloop
endfacet
facet normal 0.7499260556703394 0.22600567446708728 0.6217172557806355
  outer loop
    vertex 2.2150126371014736 4.917708895670923 4.014008876215683
    vertex 4.13615707842618 4.044802663737142 2.014008876215774
    vertex 3.8603471283073123 4.959987950550293 2.0140088762152586
  endloop
endfacet
facet normal -0.02811042132887974 -0.9992661391958172 -0.026018979022990905
  outer loop
    vertex 3.148898743080035 4.002523608857692 1.69306260347818
    vertex 2.5035642518728882 3.9602445539782885 4.014008876216198
    vertex 2.1104587425263888 4.002523608858212 2.8149738788477094
  endloop
endfacet
facet normal -0.8729062319316787 -0.4878880099519132 6.563254709368285e-13
  outer loop
    vertex -3.748624215140573 4.917708895669774 -2.594549641798949e-12
    vertex -3.260736205187672 4.044802663738379 2.014008876217457
    vertex -3.748624215139924 4.917708895670903 2.0140088762170394
  endloop
endfacet
facet normal -0.8729062319316787 -0.4878880099519132 6.563254709368285e-13
  outer loop
    vertex -3.260736205187672 4.044802663738379 2.014008876217457
    vertex -3.748624215140573 4.917708895669774 -2.594549641798949e-12
    vertex -3.260736205187674 4.04480266373725 -2.1657342585967854e-12
  endloop
endfacet
facet normal -0.8729062319316787 -0.4878880099519132 6.563254709368285e-13
  outer loop
    vertex -3.260736205187674 4.04480266373725 -2.1657342585967854e-12
    vertex -3.748624215140573 4.917708895669774 -2.594549641798949e-12
    vertex -3.50468021016611 4.481255779703498 -2.3859172415541253e-12
  endloop
endfacet
facet normal -0.028110421328946936 -0.9992661391958201 -0.02601897902280367
  outer loop
    vertex 2.468271678120658 6.260962346784311 1.6930626034770002
    vertex 1.8229371869149904 6.218683291905646 4.014008876214984
    vertex 1.4298316775747744 6.26096234678511 2.8149738788465184
  endloop
endfacet
facet normal -0.23100846354297222 -0.06961916206948397 0.9704577590211014
  outer loop
    vertex -0.6380999174762966 14.384831566313334 4.014008876210616
    vertex -9.040023761617865 14.384831566311254 2.0140088762124773
    vertex -0.34954830270802195 13.427367224620518 4.014008876211165
  endloop
endfacet
facet normal -5.2041704279253884e-14 -1.0 5.741087225409789e-13
  outer loop
    vertex -3.260736205187674 4.04480266373725 -2.1657342585967854e-12
    vertex -2.260736205188582 4.044802663737945 1.2532109854565106
    vertex -3.260736205187672 4.044802663738379 2.014008876217457
  endloop
endfacet
facet normal -5.2041704279253884e-14 -1.0 5.741087225409789e-13
  outer loop
    vertex -2.260736205188582 4.044802663737945 1.2532109854565106
    vertex -3.260736205187674 4.04480266373725 -2.1657342585967854e-12
    vertex -2.2607362051901645 4.0448026637372525 -2.3844734187150605e-12
  endloop
endfacet
facet normal -0.38548328976146534 -0.1161733350091539 0.915372268286258
  outer loop
    vertex -0.8504201283619556 1.5215316110738228 1.2532109854577171
    vertex 3.316701732676155 6.540517460962292e-13 2.8149738788501155
    vertex 2.858156819639091 1.5215316110737707 2.814973878849309
  endloop
endfacet
facet normal -0.22411577859433884 -0.06754190938668514 0.9722192182123609
  outer loop
    vertex -0.7299121473715757 13.42736722461985 2.8149738788428733
    vertex -7.504874217281797 13.427367224619902 1.2532109854523583
    vertex -0.35551660072397123 12.185057817016805 2.814973878843541
  endloop
endfacet
facet normal -0.33559731514599445 -0.10113916830111533 0.9365603614835292
  outer loop
    vertex -2.260736205188582 4.044802663737945 1.2532109854565106
    vertex 2.569605204870909 2.478995952766518 2.8149738788485057
    vertex 2.1104587425263888 4.002523608858212 2.8149738788477094
  endloop
endfacet
facet normal 0.957464341692933 0.2885516147702497 -5.192273502705463e-13
  outer loop
    vertex 2.860347128308435 4.959987950550439 1.6930626034776648
    vertex 2.4682716781202685 6.260962346783282 -5.1096890274493485e-12
    vertex 2.468271678120658 6.260962346784311 1.6930626034770002
  endloop
endfacet
facet normal 0.957464341692933 0.2885516147702497 -5.192273502705463e-13
  outer loop
    vertex 2.4682716781202685 6.260962346783282 -5.1096890274493485e-12
    vertex 2.860347128308435 4.959987950550439 1.6930626034776648
    vertex 2.8603471283078603 4.9599879505493885 -4.3870556964975545e-12
  endloop
endfacet
facet normal 1.6336931807353272e-13 1.0 -6.118911942930444e-13
  outer loop
    vertex -0.024505453166622337 11.282195508204603 0.999999999992686
    vertex -2.62336021745044 11.282195508204452 -6.59105126032955e-12
    vertex -2.623360217450302 11.282195508205058 0.9999999999934357
  endloop
endfacet
facet normal 1.6336931807353272e-13 1.0 -6.118911942930444e-13
  outer loop
    vertex -2.62336021745044 11.282195508204452 -6.59105126032955e-12
    vertex -0.024505453166622337 11.282195508204603 0.999999999992686
    vertex -0.0245054531638964 11.282195508203996 -7.2133389039663595e-12
  endloop
endfacet
facet normal -0.3001978847878731 -0.09047082030457369 0.9495768850610805
  outer loop
    vertex -3.523031215971446 6.303241401666204 1.2532109854557423
    vertex 1.8219071277619043 4.959987950551124 2.8149738788472063
    vertex 1.4298316775747744 6.26096234678511 2.8149738788465184
  endloop
endfacet
facet normal 0.9574643416923091 0.28855161477231966 -5.002664303937302e-13
  outer loop
    vertex 1.3085278531503615 13.427367224618923 2.0140088762106485
    vertex 1.0199762383778335 14.38483156631052 -9.430328873349935e-12
    vertex 1.0199762383784832 14.384831566311515 2.0140088762102493
  endloop
endfacet
facet normal 0.9574643416923091 0.28855161477231966 -5.002664303937302e-13
  outer loop
    vertex 1.0199762383778335 14.38483156631052 -9.430328873349935e-12
    vertex 1.3085278531503615 13.427367224618923 2.0140088762106485
    vertex 1.3085278531507283 13.42736722461791 -8.973358944786013e-12
  endloop
endfacet
facet normal 0.95746434169316 0.2885516147694969 -4.60911298623309e-13
  outer loop
    vertex 3.468271678118793 6.260962346783078 -5.3746305184176885e-12
    vertex 3.1797200633499685 7.218426688477465 2.0140088762140564
    vertex 3.468271678119258 6.260962346784253 2.014008876214571
  endloop
endfacet
facet normal 0.95746434169316 0.2885516147694969 -4.60911298623309e-13
  outer loop
    vertex 3.1797200633499685 7.218426688477465 2.0140088762140564
    vertex 3.468271678118793 6.260962346783078 -5.3746305184176885e-12
    vertex 3.179720063349504 7.218426688476243 -5.739195785281481e-12
  endloop
endfacet
facet normal 7.068234886269754e-13 -1.0 -2.372728376056146e-12
  outer loop
    vertex -0.7299121473715757 13.42736722461985 2.8149738788428733
    vertex -6.53291781809011 13.427367224619891 1.4883721175904603
    vertex -7.504874217281797 13.427367224619902 1.2532109854523583
  endloop
endfacet
facet normal 7.068234886269754e-13 -1.0 -2.372728376056146e-12
  outer loop
    vertex -6.53291781809011 13.427367224619891 1.4883721175904603
    vertex -0.7299121473715757 13.42736722461985 2.8149738788428733
    vertex -5.833109210671458 13.42736722461977 1.6576881327298887
  endloop
endfacet
facet normal 1.2675971383653343e-13 1.0 -5.458638789264703e-13
  outer loop
    vertex -5.010919225921309 7.176147633598399 2.014008876216491
    vertex -4.01091922592565 7.176147633597134 -3.4081438116118078e-12
    vertex -5.010919225923806 7.176147633597178 -3.143202320643468e-12
  endloop
endfacet
facet normal 1.2675971383653343e-13 1.0 -5.458638789264703e-13
  outer loop
    vertex -4.01091922592565 7.176147633597134 -3.4081438116118078e-12
    vertex -5.010919225921309 7.176147633598399 2.014008876216491
    vertex -4.010919225922312 7.176147633597919 1.2532109854553248
  endloop
endfacet
facet normal 1.2675971383653343e-13 1.0 -5.458638789264703e-13
  outer loop
    vertex -4.010919225922312 7.176147633597919 1.2532109854553248
    vertex -5.010919225921309 7.176147633598399 2.014008876216491
    vertex 1.5343855721446842 7.17614763359865 4.014008876214469
  endloop
endfacet
facet normal -0.3167713510480354 -0.17705102612307036 0.9318309102535558
  outer loop
    vertex -3.523031215971446 6.303241401666204 1.2532109854557423
    vertex -2.7486242151413895 4.917708895670423 1.2532109854560929
    vertex 1.8219071277619043 4.959987950551124 2.8149738788472063
  endloop
endfacet
facet normal 0.9574643416928722 0.28855161477045116 -7.135918333964677e-13
  outer loop
    vertex 2.1797200633492433 7.218426688477337 1.693062603476485
    vertex 1.7409995896135741 8.674177369019294 -5.944940539848175e-12
    vertex 1.740999589614426 8.674177369020368 1.693062603476026
  endloop
endfacet
facet normal 0.9574643416928722 0.28855161477045116 -7.135918333964677e-13
  outer loop
    vertex 1.7409995896135741 8.674177369019294 -5.944940539848175e-12
    vertex 2.1797200633492433 7.218426688477337 1.693062603476485
    vertex 2.179720063349593 7.2184266884764945 -5.474254294313141e-12
  endloop
endfacet
facet normal -0.4219897406351697 -0.2661684896216916 0.866648137326314
  outer loop
    vertex -0.8504201283619556 1.5215316110738228 1.2532109854577171
    vertex 2.8010163077851757e-13 7.291305337275844e-13 1.2000000000000046
    vertex 3.316701732676155 6.540517460962292e-13 2.8149738788501155
  endloop
endfacet
facet normal 0.7165637248920989 0.21595124841650531 0.6632506965515479
  outer loop
    vertex 1.4524479748394072 9.631641710712861 1.6930626034755112
    vertex -0.06696498595606772 11.227593475324218 2.814973878844056
    vertex 0.41400797430673736 9.631641710713776 2.8149738788450644
  endloop
endfacet
facet normal 0.7165637248920989 0.21595124841650531 0.6632506965515479
  outer loop
    vertex -0.06696498595606772 11.227593475324218 2.814973878844056
    vertex 1.4524479748394072 9.631641710712861 1.6930626034755112
    vertex 0.9714750145740149 11.227593475323813 1.6930626034745146
  endloop
endfacet
facet normal 0.9574643416929196 0.2885516147702941 -2.4948719035875253e-13
  outer loop
    vertex 2.740999589610436 8.674177369019228 -6.244533778954064e-12
    vertex 2.4524479748407795 9.631641710712898 2.0140088762127473
    vertex 2.7409995896118247 8.674177369020171 2.0140088762132735
  endloop
endfacet
facet normal 0.9574643416929196 0.2885516147702941 -2.4948719035875253e-13
  outer loop
    vertex 2.4524479748407795 9.631641710712898 2.0140088762127473
    vertex 2.740999589610436 8.674177369019228 -6.244533778954064e-12
    vertex 2.4524479748406844 9.631641710711792 -6.5744472976803075e-12
  endloop
endfacet
facet normal 0.7165637248875257 0.21595124841554633 0.6632506965568007
  outer loop
    vertex 1.8219071277619043 4.959987950551124 2.8149738788472063
    vertex 2.468271678120658 6.260962346784311 1.6930626034770002
    vertex 1.4298316775747744 6.26096234678511 2.8149738788465184
  endloop
endfacet
facet normal 0.7165637248875257 0.21595124841554633 0.6632506965568007
  outer loop
    vertex 2.468271678120658 6.260962346784311 1.6930626034770002
    vertex 1.8219071277619043 4.959987950551124 2.8149738788472063
    vertex 2.860347128308435 4.959987950550439 1.6930626034776648
  endloop
endfacet
facet normal 0.716563724884599 0.21595124841416552 0.6632506965604124
  outer loop
    vertex 3.316701732676155 6.540517460962292e-13 2.8149738788501155
    vertex 3.8965968201961556 1.5215316110733637 1.693062603479814
    vertex 2.858156819639091 1.5215316110737707 2.814973878849309
  endloop
endfacet
facet normal 0.716563724884599 0.21595124841416552 0.6632506965604124
  outer loop
    vertex 3.8965968201961556 1.5215316110733637 1.693062603479814
    vertex 3.316701732676155 6.540517460962292e-13 2.8149738788501155
    vertex 4.355141733232667 6.208438207977452e-14 1.6930626034806202
  endloop
endfacet
facet normal 0.9574643416931076 0.2885516147696707 -7.048824216513672e-13
  outer loop
    vertex 1.452447974838925 9.63164171071181 -6.18244939687429e-12
    vertex 0.9714750145740149 11.227593475323813 1.6930626034745146
    vertex 1.4524479748394072 9.631641710712861 1.6930626034755112
  endloop
endfacet
facet normal 0.9574643416931076 0.2885516147696707 -7.048824216513672e-13
  outer loop
    vertex 0.9714750145740149 11.227593475323813 1.6930626034745146
    vertex 1.452447974838925 9.63164171071181 -6.18244939687429e-12
    vertex 0.9714750145733478 11.227593475322784 -7.364218390648602e-12
  endloop
endfacet
facet normal -0.2425033435365084 -0.07308338108954666 0.9673938948443569
  outer loop
    vertex -6.322629995342705 11.312151585085417 1.2532109854533466
    vertex 0.41400797430673736 9.631641710713776 2.8149738788450644
    vertex -0.06696498595606772 11.227593475324218 2.814973878844056
  endloop
endfacet
facet normal -0.28518376565104603 -0.15939597496793897 0.9451259931739838
  outer loop
    vertex -4.8718343654031395 8.716456423902637 1.253210985454588
    vertex -4.010919225922312 7.176147633597919 1.2532109854553248
    vertex 1.1412800628081645 7.218426688478158 2.814973878846027
  endloop
endfacet
facet normal 0.7165637248893364 0.21595124841599422 0.6632506965546988
  outer loop
    vertex 1.1412800628081645 7.218426688478158 2.814973878846027
    vertex 1.740999589614426 8.674177369020368 1.693062603476026
    vertex 0.7025595890738092 8.674177369021049 2.814973878845556
  endloop
endfacet
facet normal 0.7165637248893364 0.21595124841599422 0.6632506965546988
  outer loop
    vertex 1.740999589614426 8.674177369020368 1.693062603476026
    vertex 1.1412800628081645 7.218426688478158 2.814973878846027
    vertex 2.1797200633492433 7.218426688477337 1.693062603476485
  endloop
endfacet
facet normal -0.25741239166375873 -0.14387389494042258 0.9555308278504759
  outer loop
    vertex -6.322629995342705 11.312151585085417 1.2532109854533466
    vertex -5.359722375353636 9.589362655832296 1.2532109854541706
    vertex 0.41400797430673736 9.631641710713776 2.8149738788450644
  endloop
endfacet
facet normal -0.35976843256669644 -0.20108311544519905 0.9111159397197237
  outer loop
    vertex -2.260736205188582 4.044802663737945 1.2532109854565106
    vertex -1.385569672701246 2.4789959527662666 1.253210985457259
    vertex 2.569605204870909 2.478995952766518 2.8149738788485057
  endloop
endfacet
facet normal 0.9574643416930374 0.28855161476990304 1.3608244861719636e-12
  outer loop
    vertex 4.355141733232667 6.208438207977452e-14 1.6930626034806202
    vertex 3.896596820195858 1.5215316110723356 -1.8221044228994288e-12
    vertex 3.8965968201961556 1.5215316110733637 1.693062603479814
  endloop
endfacet
facet normal 0.9574643416930374 0.28855161476990304 1.3608244861719636e-12
  outer loop
    vertex 3.896596820195858 1.5215316110723356 -1.8221044228994288e-12
    vertex 4.355141733232667 6.208438207977452e-14 1.6930626034806202
    vertex 4.355141733234585 -4.187086233287118e-14 -9.926282018568599e-13
  endloop
endfacet
facet normal 0.7165637248944805 0.2159512484174938 0.6632506965486529
  outer loop
    vertex 0.6829233998032468 12.18505781701619 1.693062603474
    vertex -0.7299121473715757 13.42736722461985 2.8149738788428733
    vertex -0.35551660072397123 12.185057817016805 2.814973878843541
  endloop
endfacet
facet normal 0.7165637248944805 0.2159512484174938 0.6632506965486529
  outer loop
    vertex -0.7299121473715757 13.42736722461985 2.8149738788428733
    vertex 0.6829233998032468 12.18505781701619 1.693062603474
    vertex 0.3085278531488968 13.427367224619028 1.6930626034733318
  endloop
endfacet
facet normal -0.26945933329484045 -0.08120712422457467 0.9595817165179183
  outer loop
    vertex -4.8718343654031395 8.716456423902637 1.253210985454588
    vertex 1.1412800628081645 7.218426688478158 2.814973878846027
    vertex 0.7025595890738092 8.674177369021049 2.814973878845556
  endloop
endfacet
facet normal 0.957464341692747 0.2885516147708669 -5.925591541484595e-13
  outer loop
    vertex 3.6080452054275836 2.478995952764716 -2.510086005713674e-12
    vertex 3.148898743080035 4.002523608857692 1.69306260347818
    vertex 3.6080452054288052 2.4789959527659517 1.6930626034792529
  endloop
endfacet
facet normal 0.957464341692747 0.2885516147708669 -5.925591541484595e-13
  outer loop
    vertex 3.148898743080035 4.002523608857692 1.69306260347818
    vertex 3.6080452054275836 2.478995952764716 -2.510086005713674e-12
    vertex 3.14889874307946 4.002523608856642 -3.629770617408212e-12
  endloop
endfacet
facet normal 0.9574643416926585 0.28855161477116065 -4.1220794889253607e-13
  outer loop
    vertex 0.682923399802857 12.185057817015116 -7.92514356362517e-12
    vertex 0.3085278531488968 13.427367224619028 1.6930626034733318
    vertex 0.6829233998032468 12.18505781701619 1.693062603474
  endloop
endfacet
facet normal 0.9574643416926585 0.28855161477116065 -4.1220794889253607e-13
  outer loop
    vertex 0.3085278531488968 13.427367224619028 1.6930626034733318
    vertex 0.682923399802857 12.185057817015116 -7.92514356362517e-12
    vertex 0.3085278531492462 13.427367224618092 -8.673765705680125e-12
  endloop
endfacet
facet normal 0.9574643416926585 0.28855161477116065 -4.1220794889253607e-13
  outer loop
    vertex 0.3085278531492462 13.427367224618092 -8.673765705680125e-12
    vertex 0.682923399802857 12.185057817015116 -7.92514356362517e-12
    vertex 0.47549454683677245 12.873342754561525 -8.525773864676011e-12
  endloop
endfacet
facet normal 0.9574643416927089 0.28855161477099334 -6.575094361135623e-13
  outer loop
    vertex 4.896596820196229 1.5215316110724078 -2.0646666598622685e-12
    vertex 4.608045205425834 2.4789959527659864 2.0140088762171473
    vertex 4.896596820197895 1.5215316110734676 2.014008876217685
  endloop
endfacet
facet normal 0.9574643416927089 0.28855161477099334 -6.575094361135623e-13
  outer loop
    vertex 4.608045205425834 2.4789959527659864 2.0140088762171473
    vertex 4.896596820196229 1.5215316110724078 -2.0646666598622685e-12
    vertex 4.608045205425185 2.4789959527647882 -2.741097659963998e-12
  endloop
endfacet
facet normal 0.9574643416931407 0.28855161476956065 -3.056239978976021e-14
  outer loop
    vertex 4.148898743076875 4.002523608856159 -3.860060360239003e-12
    vertex 4.13615707842618 4.044802663737142 2.014008876215774
    vertex 4.14889874307734 4.002523608857288 2.014008876215797
  endloop
endfacet
facet normal 0.9574643416931407 0.28855161476956065 -3.056239978976021e-14
  outer loop
    vertex 4.13615707842618 4.044802663737142 2.014008876215774
    vertex 4.148898743076875 4.002523608856159 -3.860060360239003e-12
    vertex 3.8603471283073123 4.959987950550293 2.0140088762152586
  endloop
endfacet
facet normal 0.9574643416931407 0.28855161476956065 -3.056239978976021e-14
  outer loop
    vertex 3.8603471283073123 4.959987950550293 2.0140088762152586
    vertex 4.148898743076875 4.002523608856159 -3.860060360239003e-12
    vertex 3.860347128307448 4.959987950549885 0.999999999995767
  endloop
endfacet
facet normal 0.9574643416931407 0.28855161476956065 -3.056239978976021e-14
  outer loop
    vertex 3.860347128307448 4.959987950549885 0.999999999995767
    vertex 4.148898743076875 4.002523608856159 -3.860060360239003e-12
    vertex 3.8603471283072173 4.959987950549278 -4.6404466047533786e-12
  endloop
endfacet
facet normal 0.9574643416929058 0.2885516147703401 -8.463441618395189e-13
  outer loop
    vertex 1.9714750145729818 11.227593475322719 -7.559856385341845e-12
    vertex 1.6829233998039723 12.185057817016204 2.014008876211317
    vertex 1.9714750145754796 11.227593475324033 2.0140088762118316
  endloop
endfacet
facet normal 0.9574643416929058 0.2885516147703401 -8.463441618395189e-13
  outer loop
    vertex 1.6829233998039723 12.185057817016204 2.014008876211317
    vertex 1.9714750145729818 11.227593475322719 -7.559856385341845e-12
    vertex 1.6829233998032302 12.185057817014961 -8.213186220018542e-12
  endloop
endfacet
facet normal -1.4538370507461442e-13 -1.0 5.718493990773532e-13
  outer loop
    vertex -6.504874217283286 13.427367224618935 -6.709444733132841e-12
    vertex -3.623360217450845 13.427367224619232 1.199999999992873
    vertex -6.504874217283655 13.427367224619662 1.1999999999935373
  endloop
endfacet
facet normal -1.4538370507461442e-13 -1.0 5.718493990773532e-13
  outer loop
    vertex -3.623360217450845 13.427367224619232 1.199999999992873
    vertex -6.504874217283286 13.427367224618935 -6.709444733132841e-12
    vertex -3.6233602174509367 13.427367224618575 -7.616887387484893e-12
  endloop
endfacet
facet normal -1.0 -1.8568480086839022e-14 1.2284066279878687e-13
  outer loop
    vertex -3.6233602174509367 13.427367224618575 -7.616887387484893e-12
    vertex -3.6233602174506947 10.28219550820529 1.1999999999947824
    vertex -3.623360217450845 13.427367224619232 1.199999999992873
  endloop
endfacet
facet normal -1.0 -1.8568480086839022e-14 1.2284066279878687e-13
  outer loop
    vertex -3.6233602174506947 10.28219550820529 1.1999999999947824
    vertex -3.6233602174509367 13.427367224618575 -7.616887387484893e-12
    vertex -3.623360217450879 10.28219550820456 -5.753634013672126e-12
  endloop
endfacet
facet normal -1.586508702188815e-13 -1.0 5.871189770484392e-13
  outer loop
    vertex -3.623360217450879 10.28219550820456 -5.753634013672126e-12
    vertex 0.2563901786523321 10.2821955082047 1.1999999999938875
    vertex -3.6233602174506947 10.28219550820529 1.1999999999947824
  endloop
endfacet
facet normal -1.586508702188815e-13 -1.0 5.871189770484392e-13
  outer loop
    vertex 0.2563901786523321 10.2821955082047 1.1999999999938875
    vertex -3.623360217450879 10.28219550820456 -5.753634013672126e-12
    vertex 0.25639017865214875 10.282195508203973 -6.659632845185115e-12
  endloop
endfacet
facet normal -0.957464341692858 -0.28855161477049884 2.3207169896153433e-13
  outer loop
    vertex 0.25639017865214875 10.282195508203973 -6.659632845185115e-12
    vertex 3.3551417332347655 4.30259206041228e-13 1.1999999999992308
    vertex 0.2563901786523321 10.2821955082047 1.1999999999938875
  endloop
endfacet
facet normal -0.957464341692858 -0.28855161477049884 2.3207169896153433e-13
  outer loop
    vertex 3.3551417332347655 4.30259206041228e-13 1.1999999999992308
    vertex 0.25639017865214875 10.282195508203973 -6.659632845185115e-12
    vertex 3.355141733234767 -2.1657342585967854e-14 -9.34875288294279e-13
  endloop
endfacet
facet normal -2.655426226815109e-13 -6.172640827961644e-13 -1.0
  outer loop
    vertex -7.810518005295526 12.185057817016435 -5.526953827938996e-12
    vertex -6.322629995342994 11.312151585084608 -5.3746305184176885e-12
    vertex -7.322629995343921 11.31215158508472 -5.1096890274493485e-12
  endloop
endfacet
facet normal -2.655426226815109e-13 -6.172640827961644e-13 -1.0
  outer loop
    vertex -0.8504201283618746 1.5215316110728294 -1.1658869425446028e-12
    vertex 0.9999999999999155 -2.021351974690333e-14 -2.302897428307915e-13
    vertex 4.33146851719357e-15 0.0 0.0
  endloop
endfacet
facet normal -2.655426226815109e-13 -6.172640827961644e-13 -1.0
  outer loop
    vertex 0.9999999999999155 -2.021351974690333e-14 -2.302897428307915e-13
    vertex -0.8504201283618746 1.5215316110728294 -1.1658869425446028e-12
    vertex -6.504874217283286 13.427367224618935 -6.709444733132841e-12
  endloop
endfacet
facet normal -2.655426226815109e-13 -6.172640827961644e-13 -1.0
  outer loop
    vertex -6.504874217283286 13.427367224618935 -6.709444733132841e-12
    vertex -0.8504201283618746 1.5215316110728294 -1.1658869425446028e-12
    vertex -1.38556967270135 2.4789959527657355 -2.0285710888856555e-12
  endloop
endfacet
facet normal -2.655426226815109e-13 -6.172640827961644e-13 -1.0
  outer loop
    vertex -1.38556967270135 2.4789959527657355 -2.0285710888856555e-12
    vertex -0.8504201283618746 1.5215316110728294 -1.1658869425446028e-12
    vertex -1.8504201283607695 1.5215316110733117 -1.0164512787014245e-12
  endloop
endfacet
facet normal -2.655426226815109e-13 -6.172640827961644e-13 -1.0
  outer loop
    vertex -1.38556967270135 2.4789959527657355 -2.0285710888856555e-12
    vertex -1.8504201283607695 1.5215316110733117 -1.0164512787014245e-12
    vertex -2.3855696727038485 2.4789959527655676 -1.4048396224097813e-12
  endloop
endfacet
facet normal -2.655426226815109e-13 -6.172640827961644e-13 -1.0
  outer loop
    vertex -6.504874217283286 13.427367224618935 -6.709444733132841e-12
    vertex -1.38556967270135 2.4789959527657355 -2.0285710888856555e-12
    vertex -2.2607362051901645 4.0448026637372525 -2.3844734187150605e-12
  endloop
endfacet
facet normal -2.655426226815109e-13 -6.172640827961644e-13 -1.0
  outer loop
    vertex -6.504874217283286 13.427367224618935 -6.709444733132841e-12
    vertex -2.2607362051901645 4.0448026637372525 -2.3844734187150605e-12
    vertex -2.7486242151417706 4.917708895669592 -2.801738219204708e-12
  endloop
endfacet
facet normal -2.655426226815109e-13 -6.172640827961644e-13 -1.0
  outer loop
    vertex -2.7486242151417706 4.917708895669592 -2.801738219204708e-12
    vertex -2.2607362051901645 4.0448026637372525 -2.3844734187150605e-12
    vertex -3.50468021016611 4.481255779703498 -2.3859172415541253e-12
  endloop
endfacet
facet normal -2.655426226815109e-13 -6.172640827961644e-13 -1.0
  outer loop
    vertex -6.504874217283286 13.427367224618935 -6.709444733132841e-12
    vertex -2.7486242151417706 4.917708895669592 -2.801738219204708e-12
    vertex -3.5230312159709034 6.303241401665603 -3.013980176547193e-12
  endloop
endfacet
facet normal -2.655426226815109e-13 -6.172640827961644e-13 -1.0
  outer loop
    vertex -6.504874217283286 13.427367224618935 -6.709444733132841e-12
    vertex -3.5230312159709034 6.303241401665603 -3.013980176547193e-12
    vertex -4.01091922592565 7.176147633597134 -3.4081438116118078e-12
  endloop
endfacet
facet normal -2.655426226815109e-13 -6.172640827961644e-13 -1.0
  outer loop
    vertex -4.01091922592565 7.176147633597134 -3.4081438116118078e-12
    vertex -3.5230312159709034 6.303241401665603 -3.013980176547193e-12
    vertex -4.523031215970722 6.303241401665854 -2.7259375201538204e-12
  endloop
endfacet
facet normal -2.655426226815109e-13 -6.172640827961644e-13 -1.0
  outer loop
    vertex -4.01091922592565 7.176147633597134 -3.4081438116118078e-12
    vertex -4.523031215970722 6.303241401665854 -2.7259375201538204e-12
    vertex -4.7669752209474945 6.739694517631711 -2.934569920398644e-12
  endloop
endfacet
facet normal -2.655426226815109e-13 -6.172640827961644e-13 -1.0
  outer loop
    vertex -4.01091922592565 7.176147633597134 -3.4081438116118078e-12
    vertex -4.7669752209474945 6.739694517631711 -2.934569920398644e-12
    vertex -5.010919225923806 7.176147633597178 -3.143202320643468e-12
  endloop
endfacet
facet normal -2.655426226815109e-13 -6.172640827961644e-13 -1.0
  outer loop
    vertex -6.504874217283286 13.427367224618935 -6.709444733132841e-12
    vertex -4.01091922592565 7.176147633597134 -3.4081438116118078e-12
    vertex -4.8718343654037986 8.716456423901944 -4.110563622816699e-12
  endloop
endfacet
facet normal -2.655426226815109e-13 -6.172640827961644e-13 -1.0
  outer loop
    vertex -6.504874217283286 13.427367224618935 -6.709444733132841e-12
    vertex -4.8718343654037986 8.716456423901944 -4.110563622816699e-12
    vertex -5.359722375355034 9.589362655831604 -4.539379006018862e-12
  endloop
endfacet
facet normal -2.655426226815109e-13 -6.172640827961644e-13 -1.0
  outer loop
    vertex -5.359722375355034 9.589362655831604 -4.539379006018862e-12
    vertex -4.8718343654037986 8.716456423901944 -4.110563622816699e-12
    vertex -6.115778370380482 9.152909539867219 -4.076633786098682e-12
  endloop
endfacet
facet normal -2.655426226815109e-13 -6.172640827961644e-13 -1.0
  outer loop
    vertex -6.504874217283286 13.427367224618935 -6.709444733132841e-12
    vertex -5.359722375355034 9.589362655831604 -4.539379006018862e-12
    vertex -6.322629995342994 11.312151585084608 -5.3746305184176885e-12
  endloop
endfacet
facet normal -2.655426226815109e-13 -6.172640827961644e-13 -1.0
  outer loop
    vertex -6.504874217283286 13.427367224618935 -6.709444733132841e-12
    vertex -6.322629995342994 11.312151585084608 -5.3746305184176885e-12
    vertex -6.810518005297278 12.185057817016324 -5.792617230326868e-12
  endloop
endfacet
facet normal -2.655426226815109e-13 -6.172640827961644e-13 -1.0
  outer loop
    vertex -6.810518005297278 12.185057817016324 -5.792617230326868e-12
    vertex -6.322629995342994 11.312151585084608 -5.3746305184176885e-12
    vertex -7.810518005295526 12.185057817016435 -5.526953827938996e-12
  endloop
endfacet
facet normal -2.655426226815109e-13 -6.172640827961644e-13 -1.0
  outer loop
    vertex -6.504874217283286 13.427367224618935 -6.709444733132841e-12
    vertex -6.810518005297278 12.185057817016324 -5.792617230326868e-12
    vertex -7.5048742172833816 13.427367224619278 -6.4098514940269525e-12
  endloop
endfacet
facet normal -2.655426226815109e-13 -6.172640827961644e-13 -1.0
  outer loop
    vertex -6.504874217283286 13.427367224618935 -6.709444733132841e-12
    vertex -7.5048742172833816 13.427367224619278 -6.4098514940269525e-12
    vertex -3.6233602174509367 13.427367224618575 -7.616887387484893e-12
  endloop
endfacet
facet normal -2.655426226815109e-13 -6.172640827961644e-13 -1.0
  outer loop
    vertex -0.024505453163961372 13.793340286198081 -8.841971066431142e-12
    vertex 0.682923399802857 12.185057817015116 -7.92514356362517e-12
    vertex -0.0245054531638964 11.282195508203996 -7.2133389039663595e-12
  endloop
endfacet
facet normal -2.655426226815109e-13 -6.172640827961644e-13 -1.0
  outer loop
    vertex 0.682923399802857 12.185057817015116 -7.92514356362517e-12
    vertex -0.024505453163961372 13.793340286198081 -8.841971066431142e-12
    vertex 0.47549454683677245 12.873342754561525 -8.525773864676011e-12
  endloop
endfacet
facet normal -2.655426226815109e-13 -6.172640827961644e-13 -1.0
  outer loop
    vertex 0.47549454683677245 12.873342754561525 -8.525773864676011e-12
    vertex -0.024505453163961372 13.793340286198081 -8.841971066431142e-12
    vertex 0.3085278531492462 13.427367224618092 -8.673765705680125e-12
  endloop
endfacet
facet normal -2.655426226815109e-13 -6.172640827961644e-13 -1.0
  outer loop
    vertex -9.040023761619347 14.384831566311693 -7.167858484535827e-12
    vertex -7.5048742172833816 13.427367224619278 -6.4098514940269525e-12
    vertex -8.504874217281722 13.427367224619392 -6.167289257064112e-12
  endloop
endfacet
facet normal -2.655426226815109e-13 -6.172640827961644e-13 -1.0
  outer loop
    vertex -7.5048742172833816 13.427367224619278 -6.4098514940269525e-12
    vertex -9.040023761619347 14.384831566311693 -7.167858484535827e-12
    vertex -2.6233602174491195 13.793340286198307 -8.092627012956654e-12
  endloop
endfacet
facet normal -2.655426226815109e-13 -6.172640827961644e-13 -1.0
  outer loop
    vertex -2.6233602174491195 13.793340286198307 -8.092627012956654e-12
    vertex -9.040023761619347 14.384831566311693 -7.167858484535827e-12
    vertex -0.024505453163961372 13.793340286198081 -8.841971066431142e-12
  endloop
endfacet
facet normal -2.655426226815109e-13 -6.172640827961644e-13 -1.0
  outer loop
    vertex 0.3085278531492462 13.427367224618092 -8.673765705680125e-12
    vertex 1.0199762383778335 14.38483156631052 -9.430328873349935e-12
    vertex 1.3085278531507283 13.42736722461791 -8.973358944786013e-12
  endloop
endfacet
facet normal -2.655426226815109e-13 -6.172640827961644e-13 -1.0
  outer loop
    vertex 1.0199762383778335 14.38483156631052 -9.430328873349935e-12
    vertex 0.3085278531492462 13.427367224618092 -8.673765705680125e-12
    vertex -0.024505453163961372 13.793340286198081 -8.841971066431142e-12
  endloop
endfacet
facet normal -2.655426226815109e-13 -6.172640827961644e-13 -1.0
  outer loop
    vertex 1.0199762383778335 14.38483156631052 -9.430328873349935e-12
    vertex -0.024505453163961372 13.793340286198081 -8.841971066431142e-12
    vertex -9.040023761619347 14.384831566311693 -7.167858484535827e-12
  endloop
endfacet
facet normal -2.655426226815109e-13 -6.172640827961644e-13 -1.0
  outer loop
    vertex -3.623360217450879 10.28219550820456 -5.753634013672126e-12
    vertex -2.62336021745044 11.282195508204452 -6.59105126032955e-12
    vertex 0.25639017865214875 10.282195508203973 -6.659632845185115e-12
  endloop
endfacet
facet normal -2.655426226815109e-13 -6.172640827961644e-13 -1.0
  outer loop
    vertex -2.62336021745044 11.282195508204452 -6.59105126032955e-12
    vertex -3.623360217450879 10.28219550820456 -5.753634013672126e-12
    vertex -3.6233602174509367 13.427367224618575 -7.616887387484893e-12
  endloop
endfacet
facet normal -2.655426226815109e-13 -6.172640827961644e-13 -1.0
  outer loop
    vertex 0.25639017865214875 10.282195508203973 -6.659632845185115e-12
    vertex -2.62336021745044 11.282195508204452 -6.59105126032955e-12
    vertex 0.9714750145733478 11.227593475322784 -7.364218390648602e-12
  endloop
endfacet
facet normal -2.655426226815109e-13 -6.172640827961644e-13 -1.0
  outer loop
    vertex 0.9714750145733478 11.227593475322784 -7.364218390648602e-12
    vertex -2.62336021745044 11.282195508204452 -6.59105126032955e-12
    vertex 1.9714750145729818 11.227593475322719 -7.559856385341845e-12
  endloop
endfacet
facet normal -2.655426226815109e-13 -6.172640827961644e-13 -1.0
  outer loop
    vertex 1.9714750145729818 11.227593475322719 -7.559856385341845e-12
    vertex -2.62336021745044 11.282195508204452 -6.59105126032955e-12
    vertex -0.0245054531638964 11.282195508203996 -7.2133389039663595e-12
  endloop
endfacet
facet normal -2.655426226815109e-13 -6.172640827961644e-13 -1.0
  outer loop
    vertex -2.62336021745044 11.282195508204452 -6.59105126032955e-12
    vertex -3.6233602174509367 13.427367224618575 -7.616887387484893e-12
    vertex -2.6233602174491195 13.793340286198307 -8.092627012956654e-12
  endloop
endfacet
facet normal -2.655426226815109e-13 -6.172640827961644e-13 -1.0
  outer loop
    vertex -2.6233602174491195 13.793340286198307 -8.092627012956654e-12
    vertex -3.6233602174509367 13.427367224618575 -7.616887387484893e-12
    vertex -7.5048742172833816 13.427367224619278 -6.4098514940269525e-12
  endloop
endfacet
facet normal -2.655426226815109e-13 -6.172640827961644e-13 -1.0
  outer loop
    vertex -0.0245054531638964 11.282195508203996 -7.2133389039663595e-12
    vertex 1.6829233998032302 12.185057817014961 -8.213186220018542e-12
    vertex 1.9714750145729818 11.227593475322719 -7.559856385341845e-12
  endloop
endfacet
facet normal -2.655426226815109e-13 -6.172640827961644e-13 -1.0
  outer loop
    vertex 1.6829233998032302 12.185057817014961 -8.213186220018542e-12
    vertex -0.0245054531638964 11.282195508203996 -7.2133389039663595e-12
    vertex 0.682923399802857 12.185057817015116 -7.92514356362517e-12
  endloop
endfacet
facet normal -2.655426226815109e-13 -6.172640827961644e-13 -1.0
  outer loop
    vertex -3.50468021016611 4.481255779703498 -2.3859172415541253e-12
    vertex -2.2607362051901645 4.0448026637372525 -2.3844734187150605e-12
    vertex -3.260736205187674 4.04480266373725 -2.1657342585967854e-12
  endloop
endfacet
facet normal -2.655426226815109e-13 -6.172640827961644e-13 -1.0
  outer loop
    vertex -3.748624215140573 4.917708895669774 -2.594549641798949e-12
    vertex -2.7486242151417706 4.917708895669592 -2.801738219204708e-12
    vertex -3.50468021016611 4.481255779703498 -2.3859172415541253e-12
  endloop
endfacet
facet normal -2.655426226815109e-13 -6.172640827961644e-13 -1.0
  outer loop
    vertex -6.115778370380482 9.152909539867219 -4.076633786098682e-12
    vertex -4.8718343654037986 8.716456423901944 -4.110563622816699e-12
    vertex -5.871834365401955 8.71645642390201 -3.8680013858538585e-12
  endloop
endfacet
facet normal -2.655426226815109e-13 -6.172640827961644e-13 -1.0
  outer loop
    vertex -6.359722375357255 9.589362655831783 -4.285988097763038e-12
    vertex -5.359722375355034 9.589362655831604 -4.539379006018862e-12
    vertex -6.115778370380482 9.152909539867219 -4.076633786098682e-12
  endloop
endfacet
facet normal -2.655426226815109e-13 -6.172640827961644e-13 -1.0
  outer loop
    vertex 3.179720063349504 7.218426688476243 -5.739195785281481e-12
    vertex 3.468271678118793 6.260962346783078 -5.3746305184176885e-12
    vertex 2.4682716781202685 6.260962346783282 -5.1096890274493485e-12
  endloop
endfacet
facet normal -2.655426226815109e-13 -6.172640827961644e-13 -1.0
  outer loop
    vertex 0.25639017865214875 10.282195508203973 -6.659632845185115e-12
    vertex 4.355141733234585 -4.187086233287118e-14 -9.926282018568599e-13
    vertex 3.355141733234767 -2.1657342585967854e-14 -9.34875288294279e-13
  endloop
endfacet
facet normal -2.655426226815109e-13 -6.172640827961644e-13 -1.0
  outer loop
    vertex 4.355141733234585 -4.187086233287118e-14 -9.926282018568599e-13
    vertex 0.25639017865214875 10.282195508203973 -6.659632845185115e-12
    vertex 3.896596820195858 1.5215316110723356 -1.8221044228994288e-12
  endloop
endfacet
facet normal -2.655426226815109e-13 -6.172640827961644e-13 -1.0
  outer loop
    vertex 3.896596820195858 1.5215316110723356 -1.8221044228994288e-12
    vertex 0.25639017865214875 10.282195508203973 -6.659632845185115e-12
    vertex 3.6080452054275836 2.478995952764716 -2.510086005713674e-12
  endloop
endfacet
facet normal -2.655426226815109e-13 -6.172640827961644e-13 -1.0
  outer loop
    vertex 3.896596820195858 1.5215316110723356 -1.8221044228994288e-12
    vertex 3.6080452054275836 2.478995952764716 -2.510086005713674e-12
    vertex 4.896596820196229 1.5215316110724078 -2.0646666598622685e-12
  endloop
endfacet
facet normal -2.655426226815109e-13 -6.172640827961644e-13 -1.0
  outer loop
    vertex 3.6080452054275836 2.478995952764716 -2.510086005713674e-12
    vertex 0.25639017865214875 10.282195508203973 -6.659632845185115e-12
    vertex 3.14889874307946 4.002523608856642 -3.629770617408212e-12
  endloop
endfacet
facet normal -2.655426226815109e-13 -6.172640827961644e-13 -1.0
  outer loop
    vertex 3.14889874307946 4.002523608856642 -3.629770617408212e-12
    vertex 0.25639017865214875 10.282195508203973 -6.659632845185115e-12
    vertex 2.8603471283078603 4.9599879505493885 -4.3870556964975545e-12
  endloop
endfacet
facet normal -2.655426226815109e-13 -6.172640827961644e-13 -1.0
  outer loop
    vertex 2.8603471283078603 4.9599879505493885 -4.3870556964975545e-12
    vertex 0.25639017865214875 10.282195508203973 -6.659632845185115e-12
    vertex 2.4682716781202685 6.260962346783282 -5.1096890274493485e-12
  endloop
endfacet
facet normal -2.655426226815109e-13 -6.172640827961644e-13 -1.0
  outer loop
    vertex 2.4682716781202685 6.260962346783282 -5.1096890274493485e-12
    vertex 0.25639017865214875 10.282195508203973 -6.659632845185115e-12
    vertex 2.179720063349593 7.2184266884764945 -5.474254294313141e-12
  endloop
endfacet
facet normal -2.655426226815109e-13 -6.172640827961644e-13 -1.0
  outer loop
    vertex 2.4682716781202685 6.260962346783282 -5.1096890274493485e-12
    vertex 2.179720063349593 7.2184266884764945 -5.474254294313141e-12
    vertex 3.179720063349504 7.218426688476243 -5.739195785281481e-12
  endloop
endfacet
facet normal -2.655426226815109e-13 -6.172640827961644e-13 -1.0
  outer loop
    vertex 2.179720063349593 7.2184266884764945 -5.474254294313141e-12
    vertex 0.25639017865214875 10.282195508203973 -6.659632845185115e-12
    vertex 1.7409995896135741 8.674177369019294 -5.944940539848175e-12
  endloop
endfacet
facet normal -2.655426226815109e-13 -6.172640827961644e-13 -1.0
  outer loop
    vertex 1.7409995896135741 8.674177369019294 -5.944940539848175e-12
    vertex 0.25639017865214875 10.282195508203973 -6.659632845185115e-12
    vertex 2.740999589610436 8.674177369019228 -6.244533778954064e-12
  endloop
endfacet
facet normal -2.655426226815109e-13 -6.172640827961644e-13 -1.0
  outer loop
    vertex 2.740999589610436 8.674177369019228 -6.244533778954064e-12
    vertex 0.25639017865214875 10.282195508203973 -6.659632845185115e-12
    vertex 1.452447974838925 9.63164171071181 -6.18244939687429e-12
  endloop
endfacet
facet normal -2.655426226815109e-13 -6.172640827961644e-13 -1.0
  outer loop
    vertex 1.452447974838925 9.63164171071181 -6.18244939687429e-12
    vertex 0.25639017865214875 10.282195508203973 -6.659632845185115e-12
    vertex 0.9714750145733478 11.227593475322784 -7.364218390648602e-12
  endloop
endfacet
facet normal -2.655426226815109e-13 -6.172640827961644e-13 -1.0
  outer loop
    vertex 2.4524479748406844 9.631641710711792 -6.5744472976803075e-12
    vertex 2.740999589610436 8.674177369019228 -6.244533778954064e-12
    vertex 1.452447974838925 9.63164171071181 -6.18244939687429e-12
  endloop
endfacet
facet normal -2.655426226815109e-13 -6.172640827961644e-13 -1.0
  outer loop
    vertex 3.14889874307946 4.002523608856642 -3.629770617408212e-12
    vertex 3.8603471283072173 4.959987950549278 -4.6404466047533786e-12
    vertex 4.148898743076875 4.002523608856159 -3.860060360239003e-12
  endloop
endfacet
facet normal -2.655426226815109e-13 -6.172640827961644e-13 -1.0
  outer loop
    vertex 3.8603471283072173 4.959987950549278 -4.6404466047533786e-12
    vertex 3.14889874307946 4.002523608856642 -3.629770617408212e-12
    vertex 2.8603471283078603 4.9599879505493885 -4.3870556964975545e-12
  endloop
endfacet
facet normal -2.655426226815109e-13 -6.172640827961644e-13 -1.0
  outer loop
    vertex 4.608045205425185 2.4789959527647882 -2.741097659963998e-12
    vertex 4.896596820196229 1.5215316110724078 -2.0646666598622685e-12
    vertex 3.6080452054275836 2.478995952764716 -2.510086005713674e-12
  endloop
endfacet
facet normal -7.904787935332615e-14 -1.0 2.9117820784637205e-13
  outer loop
    vertex 0.9999999999999155 -2.021351974690333e-14 -2.302897428307915e-13
    vertex 2.8010163077851757e-13 7.291305337275844e-13 1.2000000000000046
    vertex 4.33146851719357e-15 0.0 0.0
  endloop
endfacet
facet normal -7.904787935332615e-14 -1.0 2.9117820784637205e-13
  outer loop
    vertex 2.8010163077851757e-13 7.291305337275844e-13 1.2000000000000046
    vertex 0.9999999999999155 -2.021351974690333e-14 -2.302897428307915e-13
    vertex 1.0000000000003761 4.3170302888029254e-13 1.1999999999997857
  endloop
endfacet
facet normal -7.904787935332615e-14 -1.0 2.9117820784637205e-13
  outer loop
    vertex 2.8010163077851757e-13 7.291305337275844e-13 1.2000000000000046
    vertex 1.0000000000003761 4.3170302888029254e-13 1.1999999999997857
    vertex 3.316701732676155 6.540517460962292e-13 2.8149738788501155
  endloop
endfacet
facet normal -7.904787935332615e-14 -1.0 2.9117820784637205e-13
  outer loop
    vertex 3.316701732676155 6.540517460962292e-13 2.8149738788501155
    vertex 1.0000000000003761 4.3170302888029254e-13 1.1999999999997857
    vertex 3.3551417332347655 4.30259206041228e-13 1.1999999999992308
  endloop
endfacet
facet normal -7.904787935332615e-14 -1.0 2.9117820784637205e-13
  outer loop
    vertex 3.316701732676155 6.540517460962292e-13 2.8149738788501155
    vertex 3.3551417332347655 4.30259206041228e-13 1.1999999999992308
    vertex 4.355141733232667 6.208438207977452e-14 1.6930626034806202
  endloop
endfacet
facet normal -7.904787935332615e-14 -1.0 2.9117820784637205e-13
  outer loop
    vertex 4.355141733232667 6.208438207977452e-14 1.6930626034806202
    vertex 3.3551417332347655 4.30259206041228e-13 1.1999999999992308
    vertex 3.355141733234767 -2.1657342585967854e-14 -9.34875288294279e-13
  endloop
endfacet
facet normal -7.904787935332615e-14 -1.0 2.9117820784637205e-13
  outer loop
    vertex 4.355141733232667 6.208438207977452e-14 1.6930626034806202
    vertex 3.355141733234767 -2.1657342585967854e-14 -9.34875288294279e-13
    vertex 4.355141733234585 -4.187086233287118e-14 -9.926282018568599e-13
  endloop
endfacet
facet normal 0.8729062319311285 0.4878880099528979 -2.2095230439208873e-13
  outer loop
    vertex 1.0000000000003761 4.3170302888029254e-13 1.1999999999997857
    vertex -6.504874217283286 13.427367224618935 -6.709444733132841e-12
    vertex -6.504874217283655 13.427367224619662 1.1999999999935373
  endloop
endfacet
facet normal 0.8729062319311285 0.4878880099528979 -2.2095230439208873e-13
  outer loop
    vertex -6.504874217283286 13.427367224618935 -6.709444733132841e-12
    vertex 1.0000000000003761 4.3170302888029254e-13 1.1999999999997857
    vertex 0.9999999999999155 -2.021351974690333e-14 -2.302897428307915e-13
  endloop
endfacet
facet normal -2.2723591119304094e-13 -5.911771016845248e-13 -1.0
  outer loop
    vertex -6.504874217283655 13.427367224619662 1.1999999999935373
    vertex 3.3551417332347655 4.30259206041228e-13 1.1999999999992308
    vertex 1.0000000000003761 4.3170302888029254e-13 1.1999999999997857
  endloop
endfacet
facet normal -2.2723591119304094e-13 -5.911771016845248e-13 -1.0
  outer loop
    vertex 3.3551417332347655 4.30259206041228e-13 1.1999999999992308
    vertex -6.504874217283655 13.427367224619662 1.1999999999935373
    vertex -3.6233602174506947 10.28219550820529 1.1999999999947824
  endloop
endfacet
facet normal -2.2723591119304094e-13 -5.911771016845248e-13 -1.0
  outer loop
    vertex -3.6233602174506947 10.28219550820529 1.1999999999947824
    vertex -6.504874217283655 13.427367224619662 1.1999999999935373
    vertex -3.623360217450845 13.427367224619232 1.199999999992873
  endloop
endfacet
facet normal -2.2723591119304094e-13 -5.911771016845248e-13 -1.0
  outer loop
    vertex 0.2563901786523321 10.2821955082047 1.1999999999938875
    vertex 3.3551417332347655 4.30259206041228e-13 1.1999999999992308
    vertex -3.6233602174506947 10.28219550820529 1.1999999999947824
  endloop
endfacet
facet normal 0.02811042133010895 0.9992661391957652 0.026018979023656436
  outer loop
    vertex 1.4524479748394072 9.631641710712861 1.6930626034755112
    vertex 0.41400797430673736 9.631641710713776 2.8149738788450644
    vertex 0.8071134836343863 9.589362655832906 4.014008876213611
  endloop
endfacet
facet normal -0.005366641294906345 0.9998457866286408 0.016721307429943513
  outer loop
    vertex 2.4524479748407795 9.631641710712898 2.0140088762127473
    vertex 1.4524479748394072 9.631641710712861 1.6930626034755112
    vertex 0.8071134836343863 9.589362655832906 4.014008876213611
  endloop
endfacet
endsolid working_stargate_mk2_chevron_2_b
Working Stargate Mk2
www.glitch.org.uk