solid working_stargate_mk2_chevron_3_c
facet normal 1.0 -3.020658723151821e-11 -2.6562193969231523e-13
  outer loop
    vertex -2.6698452626931215 10.731620790529137 1.0873790756704693e-12
    vertex -2.669845262618298 13.231620790529094 1.0000000000012095
    vertex -2.669845262692857 10.731620790529131 1.0000000000010794
  endloop
endfacet
facet normal 1.0 -3.020658723151821e-11 -2.6562193969231523e-13
  outer loop
    vertex -2.669845262618298 13.231620790529094 1.0000000000012095
    vertex -2.6698452626931215 10.731620790529137 1.0873790756704693e-12
    vertex -2.6698452626186087 13.231620790529147 1.2173231311862763e-12
  endloop
endfacet
facet normal -1.0 2.940461762968023e-11 3.101696823344938e-13
  outer loop
    vertex -0.07099049833419045 13.23162079045063 2.479765726093319e-13
    vertex -0.07099049840746843 10.731620790450663 1.0000000000002718
    vertex -0.07099049833374106 13.231620790450625 1.0000000000004017
  endloop
endfacet
facet normal -1.0 2.940461762968023e-11 3.101696823344938e-13
  outer loop
    vertex -0.07099049840746843 10.731620790450663 1.0000000000002718
    vertex -0.07099049833419045 13.23162079045063 2.479765726093319e-13
    vertex -0.07099049840768681 10.731620790450714 2.797406750687514e-13
  endloop
endfacet
facet normal 3.019656746872099e-11 1.0 6.253420534657799e-14
  outer loop
    vertex -0.07099049840746843 10.731620790450663 1.0000000000002718
    vertex -2.6698452626931215 10.731620790529137 1.0873790756704693e-12
    vertex -2.669845262692857 10.731620790529131 1.0000000000010794
  endloop
endfacet
facet normal 3.019656746872099e-11 1.0 6.253420534657799e-14
  outer loop
    vertex -2.6698452626931215 10.731620790529137 1.0873790756704693e-12
    vertex -0.07099049840746843 10.731620790450663 1.0000000000002718
    vertex -0.07099049840768681 10.731620790450714 2.797406750687514e-13
  endloop
endfacet
facet normal -3.111389972388171e-13 5.265648532160397e-14 -1.0
  outer loop
    vertex -2.669845262618298 13.231620790529094 1.0000000000012095
    vertex -0.07099049840746843 10.731620790450663 1.0000000000002718
    vertex -2.669845262692857 10.731620790529131 1.0000000000010794
  endloop
endfacet
facet normal -3.111389972388171e-13 5.265648532160397e-14 -1.0
  outer loop
    vertex -0.07099049840746843 10.731620790450663 1.0000000000002718
    vertex -2.669845262618298 13.231620790529094 1.0000000000012095
    vertex -0.07099049833374106 13.231620790450625 1.0000000000004017
  endloop
endfacet
facet normal -0.8729062319458502 -0.48788800992655834 1.3059042619709478e-13
  outer loop
    vertex -7.3954668891212885 13.231620790671967 3.009468230175116e-12
    vertex 8.200913725886493e-13 7.796643330948427e-14 1.1491102805054902
    vertex -7.395466889121422 13.23162079067181 1.2068915066667616
  endloop
endfacet
facet normal -0.8729062319458502 -0.48788800992655834 1.3059042619709478e-13
  outer loop
    vertex 8.200913725886493e-13 7.796643330948427e-14 1.1491102805054902
    vertex -7.3954668891212885 13.231620790671967 3.009468230175116e-12
    vertex 1.0828671292983925e-15 0.0 1.8047785488306544e-16
  endloop
endfacet
facet normal -3.9776836758408605e-13 6.4196566736805785e-15 -1.0
  outer loop
    vertex -7.3954668891212885 13.231620790671967 3.009468230175116e-12
    vertex 1.0000000000002816 -3.014702087966725e-11 -4.145576326664013e-13
    vertex 1.0828671292983925e-15 0.0 1.8047785488306544e-16
  endloop
endfacet
facet normal -3.9776836758408605e-13 6.4196566736805785e-15 -1.0
  outer loop
    vertex 1.0000000000002816 -3.014702087966725e-11 -4.145576326664013e-13
    vertex -7.3954668891212885 13.231620790671967 3.009468230175116e-12
    vertex -6.395466889121747 13.231620790641681 2.6293818677913804e-12
  endloop
endfacet
facet normal 0.9574643417015309 0.28855161474172036 -2.56360886899052e-13
  outer loop
    vertex 4.179801526192452 -1.2617856555152685e-10 -1.7147200992440048e-12
    vertex 0.19217986919869898 13.231620790442644 1.6930626034821832
    vertex 4.179801526192977 -1.2624209375644567e-10 1.6930626034803604
  endloop
endfacet
facet normal 0.9574643417015309 0.28855161474172036 -2.56360886899052e-13
  outer loop
    vertex 0.19217986919869898 13.231620790442644 1.6930626034821832
    vertex 4.179801526192452 -1.2617856555152685e-10 -1.7147200992440048e-12
    vertex 0.1921798691982189 13.23162079044278 1.0846719078472233e-13
  endloop
endfacet
facet normal -3.6194451121193595e-13 3.09934620899141e-14 -1.0
  outer loop
    vertex -3.669845262618335 13.231620790559386 1.5974094935700121e-12
    vertex -2.6698452626931215 10.731620790529137 1.0873790756704693e-12
    vertex -3.669845262724196 9.731620790559328 1.346184319572785e-12
  endloop
endfacet
facet normal -3.6194451121193595e-13 3.09934620899141e-14 -1.0
  outer loop
    vertex -2.6698452626931215 10.731620790529137 1.0873790756704693e-12
    vertex -3.669845262618335 13.231620790559386 1.5974094935700121e-12
    vertex -2.6698452626186087 13.231620790529147 1.2173231311862763e-12
  endloop
endfacet
facet normal -3.6194451121193595e-13 3.09934620899141e-14 -1.0
  outer loop
    vertex 0.24697701162795868 9.73162079044079 -6.749871772626647e-14
    vertex 4.179801526192452 -1.2617856555152685e-10 -1.7147200992440048e-12
    vertex 3.179801526192308 -9.600844350643456e-11 -1.3115325714352365e-12
  endloop
endfacet
facet normal -3.6194451121193595e-13 3.09934620899141e-14 -1.0
  outer loop
    vertex 4.179801526192452 -1.2617856555152685e-10 -1.7147200992440048e-12
    vertex 0.24697701162795868 9.73162079044079 -6.749871772626647e-14
    vertex 0.1921798691982189 13.23162079044278 1.0846719078472233e-13
  endloop
endfacet
facet normal -3.6194451121193595e-13 3.09934620899141e-14 -1.0
  outer loop
    vertex 0.1921798691982189 13.23162079044278 1.0846719078472233e-13
    vertex 0.24697701162795868 9.73162079044079 -6.749871772626647e-14
    vertex -0.07099049840768681 10.731620790450714 2.797406750687514e-13
  endloop
endfacet
facet normal -3.6194451121193595e-13 3.09934620899141e-14 -1.0
  outer loop
    vertex -0.07099049840768681 10.731620790450714 2.797406750687514e-13
    vertex 0.24697701162795868 9.73162079044079 -6.749871772626647e-14
    vertex -3.669845262724196 9.731620790559328 1.346184319572785e-12
  endloop
endfacet
facet normal -3.6194451121193595e-13 3.09934620899141e-14 -1.0
  outer loop
    vertex -0.07099049840768681 10.731620790450714 2.797406750687514e-13
    vertex -3.669845262724196 9.731620790559328 1.346184319572785e-12
    vertex -2.6698452626931215 10.731620790529137 1.0873790756704693e-12
  endloop
endfacet
facet normal -3.6194451121193595e-13 3.09934620899141e-14 -1.0
  outer loop
    vertex 0.1921798691982189 13.23162079044278 1.0846719078472233e-13
    vertex -0.07099049840768681 10.731620790450714 2.797406750687514e-13
    vertex -0.07099049833419045 13.23162079045063 2.479765726093319e-13
  endloop
endfacet
facet normal -1.0 3.023570283033901e-11 1.302643043056356e-13
  outer loop
    vertex -3.669845262618286 13.231620790559207 1.2000000000015094
    vertex -3.669845262724196 9.731620790559328 1.346184319572785e-12
    vertex -3.6698452627240545 9.731620790559196 1.2000000000013507
  endloop
endfacet
facet normal -1.0 3.023570283033901e-11 1.302643043056356e-13
  outer loop
    vertex -3.669845262724196 9.731620790559328 1.346184319572785e-12
    vertex -3.669845262618286 13.231620790559207 1.2000000000015094
    vertex -3.669845262618335 13.231620790559386 1.5974094935700121e-12
  endloop
endfacet
facet normal 0.872906231945848 0.48788800992656256 -6.388131094285199e-14
  outer loop
    vertex 1.0000000000002816 -3.014702087966725e-11 -4.145576326664013e-13
    vertex -6.395466889121605 13.231620790641575 1.2000000000023565
    vertex 1.0000000000004237 -3.027985258086119e-11 1.1999999999993933
  endloop
endfacet
facet normal 0.872906231945848 0.48788800992656256 -6.388131094285199e-14
  outer loop
    vertex -6.395466889121605 13.231620790641575 1.2000000000023565
    vertex 1.0000000000002816 -3.014702087966725e-11 -4.145576326664013e-13
    vertex -6.395466889121747 13.231620790641681 2.6293818677913804e-12
  endloop
endfacet
facet normal -0.21940173237609303 -0.12685317211678915 0.9673526515983082
  outer loop
    vertex -0.7462601313250867 13.23162079047088 2.714973878851788
    vertex -7.395466889121422 13.23162079067181 1.2068915066667616
    vertex 8.200913725886493e-13 7.796643330948427e-14 1.1491102805054902
  endloop
endfacet
facet normal -0.21940173237609303 -0.12685317211678915 0.9673526515983082
  outer loop
    vertex -7.395466889121422 13.23162079067181 1.2068915066667616
    vertex -0.7462601313250867 13.23162079047088 2.714973878851788
    vertex -0.8078201308012223 13.231620790472808 2.7010116795363817
  endloop
endfacet
facet normal -3.0235008940948615e-11 -1.0 -1.1827802479629074e-14
  outer loop
    vertex -3.669845262724196 9.731620790559328 1.346184319572785e-12
    vertex 0.24697701162782332 9.731620790440864 1.2000000000001332
    vertex -3.6698452627240545 9.731620790559196 1.2000000000013507
  endloop
endfacet
facet normal -3.0235008940948615e-11 -1.0 -1.1827802479629074e-14
  outer loop
    vertex 0.24697701162782332 9.731620790440864 1.2000000000001332
    vertex -3.669845262724196 9.731620790559328 1.346184319572785e-12
    vertex 0.24697701162795868 9.73162079044079 -6.749871772626647e-14
  endloop
endfacet
facet normal 0.7190462500245354 0.21669940851134928 0.6603134533511223
  outer loop
    vertex 4.179801526192977 -1.2624209375644567e-10 1.6930626034803604
    vertex -0.7462601313250867 13.23162079047088 2.714973878851788
    vertex 3.241361525629364 -9.796337963052792e-11 2.7149738788499533
  endloop
endfacet
facet normal 0.7190462500245354 0.21669940851134928 0.6603134533511223
  outer loop
    vertex -0.7462601313250867 13.23162079047088 2.714973878851788
    vertex 4.179801526192977 -1.2624209375644567e-10 1.6930626034803604
    vertex 0.19217986919869898 13.231620790442644 1.6930626034821832
  endloop
endfacet
facet normal -0.4312995037994595 -0.12998099546594802 0.8927965495229141
  outer loop
    vertex -0.7462601313250867 13.23162079047088 2.714973878851788
    vertex 8.200913725886493e-13 7.796643330948427e-14 1.1491102805054902
    vertex 3.241361525629364 -9.796337963052792e-11 2.7149738788499533
  endloop
endfacet
facet normal -0.9574643417015308 -0.28855161474172075 -5.051220004260562e-14
  outer loop
    vertex 0.24697701162795868 9.73162079044079 -6.749871772626647e-14
    vertex 3.1798015261923114 -9.616437637305352e-11 1.1999999999986928
    vertex 0.24697701162782332 9.731620790440864 1.2000000000001332
  endloop
endfacet
facet normal -0.9574643417015308 -0.28855161474172075 -5.051220004260562e-14
  outer loop
    vertex 3.1798015261923114 -9.616437637305352e-11 1.1999999999986928
    vertex 0.24697701162795868 9.73162079044079 -6.749871772626647e-14
    vertex 3.179801526192308 -9.600844350643456e-11 -1.3115325714352365e-12
  endloop
endfacet
facet normal -3.0205782319825364e-11 -1.0 -4.106837936871083e-14
  outer loop
    vertex 1.0000000000002816 -3.014702087966725e-11 -4.145576326664013e-13
    vertex 8.200913725886493e-13 7.796643330948427e-14 1.1491102805054902
    vertex 1.0828671292983925e-15 0.0 1.8047785488306544e-16
  endloop
endfacet
facet normal -3.0205782319825364e-11 -1.0 -4.106837936871083e-14
  outer loop
    vertex 8.200913725886493e-13 7.796643330948427e-14 1.1491102805054902
    vertex 1.0000000000002816 -3.014702087966725e-11 -4.145576326664013e-13
    vertex 1.0000000000004237 -3.027985258086119e-11 1.1999999999993933
  endloop
endfacet
facet normal -3.0205782319825364e-11 -1.0 -4.106837936871083e-14
  outer loop
    vertex 1.0000000000004237 -3.027985258086119e-11 1.1999999999993933
    vertex 3.241361525629364 -9.796337963052792e-11 2.7149738788499533
    vertex 8.200913725886493e-13 7.796643330948427e-14 1.1491102805054902
  endloop
endfacet
facet normal -3.0205782319825364e-11 -1.0 -4.106837936871083e-14
  outer loop
    vertex 3.241361525629364 -9.796337963052792e-11 2.7149738788499533
    vertex 1.0000000000004237 -3.027985258086119e-11 1.1999999999993933
    vertex 3.1798015261923114 -9.616437637305352e-11 1.1999999999986928
  endloop
endfacet
facet normal -3.0205782319825364e-11 -1.0 -4.106837936871083e-14
  outer loop
    vertex 3.241361525629364 -9.796337963052792e-11 2.7149738788499533
    vertex 3.1798015261923114 -9.616437637305352e-11 1.1999999999986928
    vertex 3.179801526192308 -9.600844350643456e-11 -1.3115325714352365e-12
  endloop
endfacet
facet normal -3.0205782319825364e-11 -1.0 -4.106837936871083e-14
  outer loop
    vertex 3.241361525629364 -9.796337963052792e-11 2.7149738788499533
    vertex 3.179801526192308 -9.600844350643456e-11 -1.3115325714352365e-12
    vertex 4.179801526192452 -1.2617856555152685e-10 -1.7147200992440048e-12
  endloop
endfacet
facet normal -3.0205782319825364e-11 -1.0 -4.106837936871083e-14
  outer loop
    vertex 3.241361525629364 -9.796337963052792e-11 2.7149738788499533
    vertex 4.179801526192452 -1.2617856555152685e-10 -1.7147200992440048e-12
    vertex 4.179801526192977 -1.2624209375644567e-10 1.6930626034803604
  endloop
endfacet
facet normal -3.108242491302552e-13 5.144542756583059e-14 -1.0
  outer loop
    vertex 1.0000000000004237 -3.027985258086119e-11 1.1999999999993933
    vertex 0.24697701162782332 9.731620790440864 1.2000000000001332
    vertex 3.1798015261923114 -9.616437637305352e-11 1.1999999999986928
  endloop
endfacet
facet normal -3.108242491302552e-13 5.144542756583059e-14 -1.0
  outer loop
    vertex 0.24697701162782332 9.731620790440864 1.2000000000001332
    vertex 1.0000000000004237 -3.027985258086119e-11 1.1999999999993933
    vertex -3.6698452627240545 9.731620790559196 1.2000000000013507
  endloop
endfacet
facet normal -3.108242491302552e-13 5.144542756583059e-14 -1.0
  outer loop
    vertex -3.6698452627240545 9.731620790559196 1.2000000000013507
    vertex 1.0000000000004237 -3.027985258086119e-11 1.1999999999993933
    vertex -6.395466889121605 13.231620790641575 1.2000000000023565
  endloop
endfacet
facet normal -3.108242491302552e-13 5.144542756583059e-14 -1.0
  outer loop
    vertex -3.6698452627240545 9.731620790559196 1.2000000000013507
    vertex -6.395466889121605 13.231620790641575 1.2000000000023565
    vertex -3.669845262618286 13.231620790559207 1.2000000000015094
  endloop
endfacet
facet normal 3.0202174094995345e-11 1.0 7.055989547626549e-14
  outer loop
    vertex -7.395466889121422 13.23162079067181 1.2068915066667616
    vertex -6.395466889121605 13.231620790641575 1.2000000000023565
    vertex -7.3954668891212885 13.231620790671967 3.009468230175116e-12
  endloop
endfacet
facet normal 3.0202174094995345e-11 1.0 7.055989547626549e-14
  outer loop
    vertex -6.395466889121605 13.231620790641575 1.2000000000023565
    vertex -7.395466889121422 13.23162079067181 1.2068915066667616
    vertex -0.8078201308012223 13.231620790472808 2.7010116795363817
  endloop
endfacet
facet normal 3.0202174094995345e-11 1.0 7.055989547626549e-14
  outer loop
    vertex -6.395466889121605 13.231620790641575 1.2000000000023565
    vertex -0.8078201308012223 13.231620790472808 2.7010116795363817
    vertex -3.669845262618286 13.231620790559207 1.2000000000015094
  endloop
endfacet
facet normal 3.0202174094995345e-11 1.0 7.055989547626549e-14
  outer loop
    vertex -3.669845262618286 13.231620790559207 1.2000000000015094
    vertex -0.8078201308012223 13.231620790472808 2.7010116795363817
    vertex -2.669845262618298 13.231620790529094 1.0000000000012095
  endloop
endfacet
facet normal 3.0202174094995345e-11 1.0 7.055989547626549e-14
  outer loop
    vertex -3.669845262618286 13.231620790559207 1.2000000000015094
    vertex -2.669845262618298 13.231620790529094 1.0000000000012095
    vertex -3.669845262618335 13.231620790559386 1.5974094935700121e-12
  endloop
endfacet
facet normal 3.0202174094995345e-11 1.0 7.055989547626549e-14
  outer loop
    vertex -2.669845262618298 13.231620790529094 1.0000000000012095
    vertex -0.8078201308012223 13.231620790472808 2.7010116795363817
    vertex -0.07099049833374106 13.231620790450625 1.0000000000004017
  endloop
endfacet
facet normal 3.0202174094995345e-11 1.0 7.055989547626549e-14
  outer loop
    vertex -0.07099049833374106 13.231620790450625 1.0000000000004017
    vertex -0.8078201308012223 13.231620790472808 2.7010116795363817
    vertex -0.7462601313250867 13.23162079047088 2.714973878851788
  endloop
endfacet
facet normal 3.0202174094995345e-11 1.0 7.055989547626549e-14
  outer loop
    vertex -0.07099049833374106 13.231620790450625 1.0000000000004017
    vertex -0.7462601313250867 13.23162079047088 2.714973878851788
    vertex 0.19217986919869898 13.231620790442644 1.6930626034821832
  endloop
endfacet
facet normal 3.0202174094995345e-11 1.0 7.055989547626549e-14
  outer loop
    vertex -0.07099049833374106 13.231620790450625 1.0000000000004017
    vertex 0.1921798691982189 13.23162079044278 1.0846719078472233e-13
    vertex -0.07099049833419045 13.23162079045063 2.479765726093319e-13
  endloop
endfacet
facet normal 3.0202174094995345e-11 1.0 7.055989547626549e-14
  outer loop
    vertex 0.1921798691982189 13.23162079044278 1.0846719078472233e-13
    vertex -0.07099049833374106 13.231620790450625 1.0000000000004017
    vertex 0.19217986919869898 13.231620790442644 1.6930626034821832
  endloop
endfacet
facet normal 3.0202174094995345e-11 1.0 7.055989547626549e-14
  outer loop
    vertex -2.6698452626186087 13.231620790529147 1.2173231311862763e-12
    vertex -3.669845262618335 13.231620790559386 1.5974094935700121e-12
    vertex -2.669845262618298 13.231620790529094 1.0000000000012095
  endloop
endfacet
facet normal 3.0202174094995345e-11 1.0 7.055989547626549e-14
  outer loop
    vertex -6.395466889121747 13.231620790641681 2.6293818677913804e-12
    vertex -7.3954668891212885 13.231620790671967 3.009468230175116e-12
    vertex -6.395466889121605 13.231620790641575 1.2000000000023565
  endloop
endfacet
endsolid working_stargate_mk2_chevron_3_c
Working Stargate Mk2
www.glitch.org.uk