solid working_stargate_mk2_chevron_2_a
facet normal 0.8729062318471552 -0.487888010103139 -1.1536474987616329e-12
  outer loop
    vertex 3.8300000000000645 -6.587925592269714e-10 -6.362927251757355e-12
    vertex 10.53849538639705 12.002523750363478 2.014008876198632
    vertex 3.830000000000024 -6.587373013757389e-10 2.014008876213271
  endloop
endfacet
facet normal 0.8729062318471552 -0.487888010103139 -1.1536474987616329e-12
  outer loop
    vertex 10.53849538639705 12.002523750363478 2.014008876198632
    vertex 3.8300000000000645 -6.587925592269714e-10 -6.362927251757355e-12
    vertex 10.538495386394688 12.002523750363169 -2.1013397599745077e-11
  endloop
endfacet
facet normal -0.8810874340508641 -0.18690011299499718 0.4344574562832609
  outer loop
    vertex 8.974918273452203e-10 5.209348916585671 3.241020122569398
    vertex 0.5000000000013937 -8.56178523105089e-11 2.0140088762191706
    vertex 0.5000000008019154 4.649087140289972 4.014008876217041
  endloop
endfacet
facet normal -0.8810874340508641 -0.18690011299499718 0.4344574562832609
  outer loop
    vertex 0.5000000000013937 -8.56178523105089e-11 2.0140088762191706
    vertex 8.974918273452203e-10 5.209348916585671 3.241020122569398
    vertex 1.4438228390645236e-14 8.891766769786211e-14 1.0000000000003675
  endloop
endfacet
facet normal -0.7499260556301298 0.22600567459594778 0.6217172557822938
  outer loop
    vertex 4.18335365316394 12.002523751457096 2.0140088762098385
    vertex 3.625320114630861 4.649087139752867 4.014008876211785
    vertex 5.841429809024292 12.002523751172046 4.014008876207063
  endloop
endfacet
facet normal -0.7499260556301298 0.22600567459594778 0.6217172557822938
  outer loop
    vertex 3.625320114630861 4.649087139752867 4.014008876211785
    vertex 4.18335365316394 12.002523751457096 2.0140088762098385
    vertex 2.40411043001472 6.0986859176013555 2.0140088762138424
  endloop
endfacet
facet normal -0.9574643416431684 0.2885516149353776 1.5096418044173562e-12
  outer loop
    vertex 4.183353653160562 12.00252375145644 -9.818717217058292e-12
    vertex 2.40411043001472 6.0986859176013555 2.0140088762138424
    vertex 4.18335365316394 12.002523751457096 2.0140088762098385
  endloop
endfacet
facet normal -0.9574643416431684 0.2885516149353776 1.5096418044173562e-12
  outer loop
    vertex 2.40411043001472 6.0986859176013555 2.0140088762138424
    vertex 4.183353653160562 12.00252375145644 -9.818717217058292e-12
    vertex 2.404110430011249 6.098685917600237 -5.768794153482304e-12
  endloop
endfacet
facet normal 0.38905998393868896 -0.11725124559614712 0.9137201290897444
  outer loop
    vertex 5.841429809024292 12.002523751172046 4.014008876207063
    vertex 3.625320114630861 4.649087139752867 4.014008876211785
    vertex 10.53849538639705 12.002523750363478 2.014008876198632
  endloop
endfacet
facet normal -6.644769733919302e-11 -0.39517657947343754 0.9186051769044598
  outer loop
    vertex 3.625320114630861 4.649087139752867 4.014008876211785
    vertex 0.5000000000013937 -8.56178523105089e-11 2.0140088762191706
    vertex 3.830000000000024 -6.587373013757389e-10 2.014008876213271
  endloop
endfacet
facet normal -6.644769733919302e-11 -0.39517657947343754 0.9186051769044598
  outer loop
    vertex 0.5000000000013937 -8.56178523105089e-11 2.0140088762191706
    vertex 3.625320114630861 4.649087139752867 4.014008876211785
    vertex 0.5000000008019154 4.649087140289972 4.014008876217041
  endloop
endfacet
facet normal 0.5524247044968599 -0.3087632783164042 0.7742688059226357
  outer loop
    vertex 10.53849538639705 12.002523750363478 2.014008876198632
    vertex 3.625320114630861 4.649087139752867 4.014008876211785
    vertex 3.830000000000024 -6.587373013757389e-10 2.014008876213271
  endloop
endfacet
facet normal -1.7198856228084535e-10 -1.0 2.1667657889894622e-13
  outer loop
    vertex 3.1027398176853196 5.0986859174802275 -6.7765824951493414e-12
    vertex -3.1027398159292296 5.098685918547766 1.200000000003629
    vertex -3.1027398159312423 5.098685918547491 3.6247172374714865e-12
  endloop
endfacet
facet normal -1.7198856228084535e-10 -1.0 2.1667657889894622e-13
  outer loop
    vertex -3.1027398159292296 5.098685918547766 1.200000000003629
    vertex 3.1027398176853196 5.0986859174802275 -6.7765824951493414e-12
    vertex 3.1027398176871475 5.098685917480481 1.1999999999932278
  endloop
endfacet
facet normal -1.7200296742459006e-10 -1.0 1.0229006980836578e-13
  outer loop
    vertex -3.8300000000000645 6.587918390479531e-10 6.362927251757355e-12
    vertex 1.4438228390645236e-14 8.891766769786211e-14 1.0000000000003675
    vertex -3.8299999999933596 6.587777934017515e-10 2.0140088762259967
  endloop
endfacet
facet normal -1.7200296742459006e-10 -1.0 1.0229006980836578e-13
  outer loop
    vertex 1.4438228390645236e-14 8.891766769786211e-14 1.0000000000003675
    vertex -3.8300000000000645 6.587918390479531e-10 6.362927251757355e-12
    vertex 3.8300000000000645 -6.587925592269714e-10 -6.362927251757355e-12
  endloop
endfacet
facet normal -1.7200296742459006e-10 -1.0 1.0229006980836578e-13
  outer loop
    vertex -3.8299999999933596 6.587777934017515e-10 2.0140088762259967
    vertex 1.4438228390645236e-14 8.891766769786211e-14 1.0000000000003675
    vertex -0.4999999999938973 8.643223337811652e-11 2.0140088762208483
  endloop
endfacet
facet normal -1.7200296742459006e-10 -1.0 1.0229006980836578e-13
  outer loop
    vertex 1.4438228390645236e-14 8.891766769786211e-14 1.0000000000003675
    vertex 3.8300000000000645 -6.587925592269714e-10 -6.362927251757355e-12
    vertex 0.5000000000013937 -8.56178523105089e-11 2.0140088762191706
  endloop
endfacet
facet normal -1.7200296742459006e-10 -1.0 1.0229006980836578e-13
  outer loop
    vertex 0.5000000000013937 -8.56178523105089e-11 2.0140088762191706
    vertex 3.8300000000000645 -6.587925592269714e-10 -6.362927251757355e-12
    vertex 3.830000000000024 -6.587373013757389e-10 2.014008876213271
  endloop
endfacet
facet normal 1.7199291990621695e-10 1.0 -2.593206029970427e-13
  outer loop
    vertex 3.388923733454193 0.9999999994170764 1.1999999999945863
    vertex -3.388923733108637 1.0000000005825127 5.8510920553089815e-12
    vertex -3.3889237331066244 1.0000000005828116 1.2000000000058557
  endloop
endfacet
facet normal 1.7199291990621695e-10 1.0 -2.593206029970427e-13
  outer loop
    vertex -3.388923733108637 1.0000000005825127 5.8510920553089815e-12
    vertex 3.388923733454193 0.9999999994170764 1.1999999999945863
    vertex 3.3889237334521805 0.9999999994167544 -5.417945203589624e-12
  endloop
endfacet
facet normal 1.7200119106774994e-10 1.0 -5.347029159033125e-13
  outer loop
    vertex 2.40411043001472 6.0986859176013555 2.0140088762138424
    vertex -2.4041104279131607 6.098685918427211 2.3570407847728347e-12
    vertex -2.4041104279098744 6.098685918428342 2.0140088762219683
  endloop
endfacet
facet normal 1.7200119106774994e-10 1.0 -5.347029159033125e-13
  outer loop
    vertex -2.4041104279131607 6.098685918427211 2.3570407847728347e-12
    vertex 2.40411043001472 6.0986859176013555 2.0140088762138424
    vertex 2.404110430011249 6.098685917600237 -5.768794153482304e-12
  endloop
endfacet
facet normal 1.4025238322917527e-10 0.8096876267145652 0.5868610969772446
  outer loop
    vertex -0.49999999918958693 4.649087140461975 4.014008876218684
    vertex -2.4041104279098744 6.098685918428342 2.0140088762219683
    vertex -3.6253201130183474 4.649087141000028 4.01400887622394
  endloop
endfacet
facet normal 1.4025238322917527e-10 0.8096876267145652 0.5868610969772446
  outer loop
    vertex -2.4041104279098744 6.098685918428342 2.0140088762219683
    vertex -0.49999999918958693 4.649087140461975 4.014008876218684
    vertex 8.974918273452203e-10 5.209348916585671 3.241020122569398
  endloop
endfacet
facet normal 1.4025238322917527e-10 0.8096876267145652 0.5868610969772446
  outer loop
    vertex -2.4041104279098744 6.098685918428342 2.0140088762219683
    vertex 8.974918273452203e-10 5.209348916585671 3.241020122569398
    vertex 2.40411043001472 6.0986859176013555 2.0140088762138424
  endloop
endfacet
facet normal 1.4025238322917527e-10 0.8096876267145652 0.5868610969772446
  outer loop
    vertex 2.40411043001472 6.0986859176013555 2.0140088762138424
    vertex 8.974918273452203e-10 5.209348916585671 3.241020122569398
    vertex 0.5000000008019154 4.649087140289972 4.014008876217041
  endloop
endfacet
facet normal 1.4025238322917527e-10 0.8096876267145652 0.5868610969772446
  outer loop
    vertex 2.40411043001472 6.0986859176013555 2.0140088762138424
    vertex 0.5000000008019154 4.649087140289972 4.014008876217041
    vertex 3.625320114630861 4.649087139752867 4.014008876211785
  endloop
endfacet
facet normal 0.8810874339905493 -0.18690011329588466 0.4344574562761411
  outer loop
    vertex -0.4999999999938973 8.643223337811652e-11 2.0140088762208483
    vertex 8.974918273452203e-10 5.209348916585671 3.241020122569398
    vertex -0.49999999918958693 4.649087140461975 4.014008876218684
  endloop
endfacet
facet normal 0.8810874339905493 -0.18690011329588466 0.4344574562761411
  outer loop
    vertex 8.974918273452203e-10 5.209348916585671 3.241020122569398
    vertex -0.4999999999938973 8.643223337811652e-11 2.0140088762208483
    vertex 1.4438228390645236e-14 8.891766769786211e-14 1.0000000000003675
  endloop
endfacet
facet normal -0.8729062320149925 -0.48788800980285213 1.7757860138411209e-12
  outer loop
    vertex -10.538495382265728 12.002523753988495 1.437614400856546e-11
    vertex -3.8299999999933596 6.587777934017515e-10 2.0140088762259967
    vertex -10.538495382261054 12.002523753988758 2.0140088762340334
  endloop
endfacet
facet normal -0.8729062320149925 -0.48788800980285213 1.7757860138411209e-12
  outer loop
    vertex -3.8299999999933596 6.587777934017515e-10 2.0140088762259967
    vertex -10.538495382265728 12.002523753988495 1.437614400856546e-11
    vertex -3.8300000000000645 6.587918390479531e-10 6.362927251757355e-12
  endloop
endfacet
facet normal 0.7499260557099644 0.22600567433796742 0.6217172557797765
  outer loop
    vertex -3.6253201130183474 4.649087141000028 4.01400887622394
    vertex -4.18335364902748 12.002523752896144 2.014008876223843
    vertex -5.841429804881769 12.002523753181496 4.014008876226633
  endloop
endfacet
facet normal 0.7499260557099644 0.22600567433796742 0.6217172557797765
  outer loop
    vertex -4.18335364902748 12.002523752896144 2.014008876223843
    vertex -3.6253201130183474 4.649087141000028 4.01400887622394
    vertex -2.4041104279098744 6.098685918428342 2.0140088762219683
  endloop
endfacet
facet normal 0.9574643417424324 0.2885516146060018 -1.7035648689639119e-12
  outer loop
    vertex -2.4041104279098744 6.098685918428342 2.0140088762219683
    vertex -4.183353649030859 12.002523752895534 4.186364321867586e-12
    vertex -4.18335364902748 12.002523752896144 2.014008876223843
  endloop
endfacet
facet normal 0.9574643417424324 0.2885516146060018 -1.7035648689639119e-12
  outer loop
    vertex -4.183353649030859 12.002523752895534 4.186364321867586e-12
    vertex -2.4041104279098744 6.098685918428342 2.0140088762219683
    vertex -2.4041104279131607 6.098685918427211 2.3570407847728347e-12
  endloop
endfacet
facet normal -0.38905998397595754 -0.11725124546230732 0.9137201290910502
  outer loop
    vertex -5.841429804881769 12.002523753181496 4.014008876226633
    vertex -10.538495382261054 12.002523753988758 2.0140088762340334
    vertex -3.6253201130183474 4.649087141000028 4.01400887622394
  endloop
endfacet
facet normal -6.641326654764178e-11 -0.39517657947343726 0.91860517690446
  outer loop
    vertex -0.4999999999938973 8.643223337811652e-11 2.0140088762208483
    vertex -3.6253201130183474 4.649087141000028 4.01400887622394
    vertex -3.8299999999933596 6.587777934017515e-10 2.0140088762259967
  endloop
endfacet
facet normal -6.641326654764178e-11 -0.39517657947343726 0.91860517690446
  outer loop
    vertex -3.6253201130183474 4.649087141000028 4.01400887622394
    vertex -0.4999999999938973 8.643223337811652e-11 2.0140088762208483
    vertex -0.49999999918958693 4.649087140461975 4.014008876218684
  endloop
endfacet
facet normal 0.8729062320151042 0.48788800980265273 -1.046233356819539e-12
  outer loop
    vertex -3.388923733108637 1.0000000005825127 5.8510920553089815e-12
    vertex -9.00334583808831 11.045059412031714 1.2000000000125353
    vertex -3.3889237331066244 1.0000000005828116 1.2000000000058557
  endloop
endfacet
facet normal 0.8729062320151042 0.48788800980265273 -1.046233356819539e-12
  outer loop
    vertex -9.00334583808831 11.045059412031714 1.2000000000125353
    vertex -3.388923733108637 1.0000000005825127 5.8510920553089815e-12
    vertex -9.00334583808866 11.045059412031392 1.2542489002953516e-11
  endloop
endfacet
facet normal -0.5524247046004798 -0.3087632781263655 0.7742688059244884
  outer loop
    vertex -10.538495382261054 12.002523753988758 2.0140088762340334
    vertex -3.8299999999933596 6.587777934017515e-10 2.0140088762259967
    vertex -3.6253201130183474 4.649087141000028 4.01400887622394
  endloop
endfacet
facet normal -0.9574643417424299 -0.28855161460601025 1.6444443366127816e-12
  outer loop
    vertex -4.8948020344246315 11.045059411324788 5.3017174650449305e-12
    vertex -3.1027398159292296 5.098685918547766 1.200000000003629
    vertex -4.894802034422711 11.04505941132511 1.200000000005618
  endloop
endfacet
facet normal -0.9574643417424299 -0.28855161460601025 1.6444443366127816e-12
  outer loop
    vertex -3.1027398159292296 5.098685918547766 1.200000000003629
    vertex -4.8948020344246315 11.045059411324788 5.3017174650449305e-12
    vertex -3.1027398159312423 5.098685918547491 3.6247172374714865e-12
  endloop
endfacet
facet normal -1.7202478330702366e-10 -1.0 2.7056675628019116e-13
  outer loop
    vertex -9.00334583808866 11.045059412031392 1.2542489002953516e-11
    vertex -8.003345838087567 11.04505941185971 1.2000000000108457
    vertex -9.00334583808831 11.045059412031714 1.2000000000125353
  endloop
endfacet
facet normal -1.7202478330702366e-10 -1.0 2.7056675628019116e-13
  outer loop
    vertex -8.003345838087567 11.04505941185971 1.2000000000108457
    vertex -9.00334583808866 11.045059412031392 1.2542489002953516e-11
    vertex -8.003345838089581 11.045059411859365 1.0840943787115976e-11
  endloop
endfacet
facet normal -1.7190435186442742e-10 -1.0 2.777439755390379e-13
  outer loop
    vertex -4.8948020344246315 11.045059411324788 5.3017174650449305e-12
    vertex -5.894802034422252 11.045059411497022 1.200000000007296
    vertex -5.894802034424266 11.045059411496677 6.9794396040379066e-12
  endloop
endfacet
facet normal -1.7190435186442742e-10 -1.0 2.777439755390379e-13
  outer loop
    vertex -5.894802034422252 11.045059411497022 1.200000000007296
    vertex -4.8948020344246315 11.045059411324788 5.3017174650449305e-12
    vertex -4.894802034422711 11.04505941132511 1.200000000005618
  endloop
endfacet
facet normal 0.8729062320149735 0.48788800980288644 -1.601208440567716e-12
  outer loop
    vertex -8.003345838087567 11.04505941185971 1.2000000000108457
    vertex -8.538495382265259 12.002523753644509 1.1482001127660623e-11
    vertex -8.538495382263244 12.002523753644866 1.2000000000114983
  endloop
endfacet
facet normal 0.8729062320149735 0.48788800980288644 -1.601208440567716e-12
  outer loop
    vertex -8.538495382265259 12.002523753644509 1.1482001127660623e-11
    vertex -8.003345838087567 11.04505941185971 1.2000000000108457
    vertex -8.003345838089581 11.045059411859365 1.0840943787115976e-11
  endloop
endfacet
facet normal 1.720659725812374e-10 1.0 -1.7684534120663715e-13
  outer loop
    vertex 10.53849538639705 12.002523750363478 2.014008876198632
    vertex 6.183353653161196 12.002523751113008 1.1999999999868414
    vertex 5.841429809024292 12.002523751172046 4.014008876207063
  endloop
endfacet
facet normal 1.720659725812374e-10 1.0 -1.7684534120663715e-13
  outer loop
    vertex 6.183353653161196 12.002523751113008 1.1999999999868414
    vertex 10.53849538639705 12.002523750363478 2.014008876198632
    vertex 8.538495386396969 12.002523750707592 1.1999999999830397
  endloop
endfacet
facet normal 1.720659725812374e-10 1.0 -1.7684534120663715e-13
  outer loop
    vertex 8.538495386396969 12.002523750707592 1.1999999999830397
    vertex 10.53849538639705 12.002523750363478 2.014008876198632
    vertex 8.538495386394958 12.002523750707201 -1.7149005770988877e-11
  endloop
endfacet
facet normal 1.720659725812374e-10 1.0 -1.7684534120663715e-13
  outer loop
    vertex 8.538495386394958 12.002523750707201 -1.7149005770988877e-11
    vertex 10.53849538639705 12.002523750363478 2.014008876198632
    vertex 10.538495386394688 12.002523750363169 -2.1013397599745077e-11
  endloop
endfacet
facet normal 1.720659725812374e-10 1.0 -1.7684534120663715e-13
  outer loop
    vertex 5.841429809024292 12.002523751172046 4.014008876207063
    vertex 4.183353653160562 12.00252375145644 -9.818717217058292e-12
    vertex 4.18335365316394 12.002523751457096 2.0140088762098385
  endloop
endfacet
facet normal 1.720659725812374e-10 1.0 -1.7684534120663715e-13
  outer loop
    vertex 4.183353653160562 12.00252375145644 -9.818717217058292e-12
    vertex 5.841429809024292 12.002523751172046 4.014008876207063
    vertex 6.183353653159183 12.002523751112628 -1.3347420235731987e-11
  endloop
endfacet
facet normal 1.720659725812374e-10 1.0 -1.7684534120663715e-13
  outer loop
    vertex 6.183353653159183 12.002523751112628 -1.3347420235731987e-11
    vertex 5.841429809024292 12.002523751172046 4.014008876207063
    vertex 6.183353653161196 12.002523751113008 1.1999999999868414
  endloop
endfacet
facet normal -1.6753257417882366e-12 -2.0192867948633136e-13 -1.0
  outer loop
    vertex -6.183353649030314 12.002523753239775 7.368549859165795e-12
    vertex -4.8948020344246315 11.045059411324788 5.3017174650449305e-12
    vertex -5.894802034424266 11.045059411496677 6.9794396040379066e-12
  endloop
endfacet
facet normal -1.6753257417882366e-12 -2.0192867948633136e-13 -1.0
  outer loop
    vertex -4.8948020344246315 11.045059411324788 5.3017174650449305e-12
    vertex -6.183353649030314 12.002523753239775 7.368549859165795e-12
    vertex -4.183353649030859 12.002523752895534 4.186364321867586e-12
  endloop
endfacet
facet normal -1.6753257417882366e-12 -2.0192867948633136e-13 -1.0
  outer loop
    vertex -3.1027398159312423 5.098685918547491 3.6247172374714865e-12
    vertex -2.4041104279131607 6.098685918427211 2.3570407847728347e-12
    vertex 3.1027398176853196 5.0986859174802275 -6.7765824951493414e-12
  endloop
endfacet
facet normal -1.6753257417882366e-12 -2.0192867948633136e-13 -1.0
  outer loop
    vertex -2.4041104279131607 6.098685918427211 2.3570407847728347e-12
    vertex -3.1027398159312423 5.098685918547491 3.6247172374714865e-12
    vertex -4.8948020344246315 11.045059411324788 5.3017174650449305e-12
  endloop
endfacet
facet normal -1.6753257417882366e-12 -2.0192867948633136e-13 -1.0
  outer loop
    vertex -2.4041104279131607 6.098685918427211 2.3570407847728347e-12
    vertex -4.8948020344246315 11.045059411324788 5.3017174650449305e-12
    vertex -4.183353649030859 12.002523752895534 4.186364321867586e-12
  endloop
endfacet
facet normal -1.6753257417882366e-12 -2.0192867948633136e-13 -1.0
  outer loop
    vertex 3.1027398176853196 5.0986859174802275 -6.7765824951493414e-12
    vertex 2.404110430011249 6.098685917600237 -5.768794153482304e-12
    vertex 4.894802038224311 11.045059409640938 -1.1090003226854605e-11
  endloop
endfacet
facet normal -1.6753257417882366e-12 -2.0192867948633136e-13 -1.0
  outer loop
    vertex 2.404110430011249 6.098685917600237 -5.768794153482304e-12
    vertex 3.1027398176853196 5.0986859174802275 -6.7765824951493414e-12
    vertex -2.4041104279131607 6.098685918427211 2.3570407847728347e-12
  endloop
endfacet
facet normal -1.6753257417882366e-12 -2.0192867948633136e-13 -1.0
  outer loop
    vertex 4.894802038224311 11.045059409640938 -1.1090003226854605e-11
    vertex 2.404110430011249 6.098685917600237 -5.768794153482304e-12
    vertex 4.183353653160562 12.00252375145644 -9.818717217058292e-12
  endloop
endfacet
facet normal -1.6753257417882366e-12 -2.0192867948633136e-13 -1.0
  outer loop
    vertex 4.894802038224311 11.045059409640938 -1.1090003226854605e-11
    vertex 6.183353653159183 12.002523751112628 -1.3347420235731987e-11
    vertex 5.894802038223575 11.045059409468772 -1.2768447277267114e-11
  endloop
endfacet
facet normal -1.6753257417882366e-12 -2.0192867948633136e-13 -1.0
  outer loop
    vertex 6.183353653159183 12.002523751112628 -1.3347420235731987e-11
    vertex 4.894802038224311 11.045059409640938 -1.1090003226854605e-11
    vertex 4.183353653160562 12.00252375145644 -9.818717217058292e-12
  endloop
endfacet
facet normal -1.67718861193951e-12 -2.645157125180535e-13 -1.0
  outer loop
    vertex -10.538495382265728 12.002523753988495 1.437614400856546e-11
    vertex -3.388923733108637 1.0000000005825127 5.8510920553089815e-12
    vertex -3.8300000000000645 6.587918390479531e-10 6.362927251757355e-12
  endloop
endfacet
facet normal -1.67718861193951e-12 -2.645157125180535e-13 -1.0
  outer loop
    vertex -3.388923733108637 1.0000000005825127 5.8510920553089815e-12
    vertex -10.538495382265728 12.002523753988495 1.437614400856546e-11
    vertex -9.00334583808866 11.045059412031392 1.2542489002953516e-11
  endloop
endfacet
facet normal -1.67718861193951e-12 -2.645157125180535e-13 -1.0
  outer loop
    vertex -9.00334583808866 11.045059412031392 1.2542489002953516e-11
    vertex -8.538495382265259 12.002523753644509 1.1482001127660623e-11
    vertex -8.003345838089581 11.045059411859365 1.0840943787115976e-11
  endloop
endfacet
facet normal -1.67718861193951e-12 -2.645157125180535e-13 -1.0
  outer loop
    vertex -8.538495382265259 12.002523753644509 1.1482001127660623e-11
    vertex -9.00334583808866 11.045059412031392 1.2542489002953516e-11
    vertex -10.538495382265728 12.002523753988495 1.437614400856546e-11
  endloop
endfacet
facet normal -1.67718861193951e-12 -2.645157125180535e-13 -1.0
  outer loop
    vertex 8.538495386394958 12.002523750707201 -1.7149005770988877e-11
    vertex 9.003345841888708 11.045059408934137 -1.7707043298287318e-11
    vertex 8.003345841889905 11.045059409106118 -1.5983118828444276e-11
  endloop
endfacet
facet normal -1.67718861193951e-12 -2.645157125180535e-13 -1.0
  outer loop
    vertex 9.003345841888708 11.045059408934137 -1.7707043298287318e-11
    vertex 8.538495386394958 12.002523750707201 -1.7149005770988877e-11
    vertex 10.538495386394688 12.002523750363169 -2.1013397599745077e-11
  endloop
endfacet
facet normal -1.67718861193951e-12 -2.645157125180535e-13 -1.0
  outer loop
    vertex 3.8300000000000645 -6.587925592269714e-10 -6.362927251757355e-12
    vertex 3.3889237334521805 0.9999999994167544 -5.417945203589624e-12
    vertex 10.538495386394688 12.002523750363169 -2.1013397599745077e-11
  endloop
endfacet
facet normal -1.67718861193951e-12 -2.645157125180535e-13 -1.0
  outer loop
    vertex 3.3889237334521805 0.9999999994167544 -5.417945203589624e-12
    vertex 3.8300000000000645 -6.587925592269714e-10 -6.362927251757355e-12
    vertex -3.8300000000000645 6.587918390479531e-10 6.362927251757355e-12
  endloop
endfacet
facet normal -1.67718861193951e-12 -2.645157125180535e-13 -1.0
  outer loop
    vertex 3.3889237334521805 0.9999999994167544 -5.417945203589624e-12
    vertex -3.8300000000000645 6.587918390479531e-10 6.362927251757355e-12
    vertex -3.388923733108637 1.0000000005825127 5.8510920553089815e-12
  endloop
endfacet
facet normal -1.67718861193951e-12 -2.645157125180535e-13 -1.0
  outer loop
    vertex 10.538495386394688 12.002523750363169 -2.1013397599745077e-11
    vertex 3.3889237334521805 0.9999999994167544 -5.417945203589624e-12
    vertex 9.003345841888708 11.045059408934137 -1.7707043298287318e-11
  endloop
endfacet
facet normal -0.9574643417424357 -0.2885516146059916 1.687116954122108e-12
  outer loop
    vertex -6.183353649030314 12.002523753239775 7.368549859165795e-12
    vertex -5.894802034422252 11.045059411497022 1.200000000007296
    vertex -6.183353649028301 12.002523753240132 1.200000000007535
  endloop
endfacet
facet normal -0.9574643417424357 -0.2885516146059916 1.687116954122108e-12
  outer loop
    vertex -5.894802034422252 11.045059411497022 1.200000000007296
    vertex -6.183353649030314 12.002523753239775 7.368549859165795e-12
    vertex -5.894802034424266 11.045059411496677 6.9794396040379066e-12
  endloop
endfacet
facet normal 1.7193782508862005e-10 1.0 -1.8236587046415728e-13
  outer loop
    vertex -5.841429804881769 12.002523753181496 4.014008876226633
    vertex -8.538495382263244 12.002523753644866 1.2000000000114983
    vertex -10.538495382261054 12.002523753988758 2.0140088762340334
  endloop
endfacet
facet normal 1.7193782508862005e-10 1.0 -1.8236587046415728e-13
  outer loop
    vertex -8.538495382263244 12.002523753644866 1.2000000000114983
    vertex -5.841429804881769 12.002523753181496 4.014008876226633
    vertex -6.183353649028301 12.002523753240132 1.200000000007535
  endloop
endfacet
facet normal 1.7193782508862005e-10 1.0 -1.8236587046415728e-13
  outer loop
    vertex -6.183353649028301 12.002523753240132 1.200000000007535
    vertex -5.841429804881769 12.002523753181496 4.014008876226633
    vertex -6.183353649030314 12.002523753239775 7.368549859165795e-12
  endloop
endfacet
facet normal 1.7193782508862005e-10 1.0 -1.8236587046415728e-13
  outer loop
    vertex -6.183353649030314 12.002523753239775 7.368549859165795e-12
    vertex -5.841429804881769 12.002523753181496 4.014008876226633
    vertex -4.183353649030859 12.002523752895534 4.186364321867586e-12
  endloop
endfacet
facet normal 1.7193782508862005e-10 1.0 -1.8236587046415728e-13
  outer loop
    vertex -4.183353649030859 12.002523752895534 4.186364321867586e-12
    vertex -5.841429804881769 12.002523753181496 4.014008876226633
    vertex -4.18335364902748 12.002523752896144 2.014008876223843
  endloop
endfacet
facet normal 1.7193782508862005e-10 1.0 -1.8236587046415728e-13
  outer loop
    vertex -10.538495382261054 12.002523753988758 2.0140088762340334
    vertex -8.538495382265259 12.002523753644509 1.1482001127660623e-11
    vertex -10.538495382265728 12.002523753988495 1.437614400856546e-11
  endloop
endfacet
facet normal 1.7193782508862005e-10 1.0 -1.8236587046415728e-13
  outer loop
    vertex -8.538495382265259 12.002523753644509 1.1482001127660623e-11
    vertex -10.538495382261054 12.002523753988758 2.0140088762340334
    vertex -8.538495382263244 12.002523753644866 1.2000000000114983
  endloop
endfacet
facet normal -1.6741587170421122e-12 -2.5211048826055693e-13 -1.0
  outer loop
    vertex -3.3889237331066244 1.0000000005828116 1.2000000000058557
    vertex -3.1027398159292296 5.098685918547766 1.200000000003629
    vertex 3.388923733454193 0.9999999994170764 1.1999999999945863
  endloop
endfacet
facet normal -1.6741587170421122e-12 -2.5211048826055693e-13 -1.0
  outer loop
    vertex -3.1027398159292296 5.098685918547766 1.200000000003629
    vertex -3.3889237331066244 1.0000000005828116 1.2000000000058557
    vertex -9.00334583808831 11.045059412031714 1.2000000000125353
  endloop
endfacet
facet normal -1.6741587170421122e-12 -2.5211048826055693e-13 -1.0
  outer loop
    vertex -3.1027398159292296 5.098685918547766 1.200000000003629
    vertex -9.00334583808831 11.045059412031714 1.2000000000125353
    vertex -5.894802034422252 11.045059411497022 1.200000000007296
  endloop
endfacet
facet normal -1.6741587170421122e-12 -2.5211048826055693e-13 -1.0
  outer loop
    vertex -5.894802034422252 11.045059411497022 1.200000000007296
    vertex -9.00334583808831 11.045059412031714 1.2000000000125353
    vertex -8.003345838087567 11.04505941185971 1.2000000000108457
  endloop
endfacet
facet normal -1.6741587170421122e-12 -2.5211048826055693e-13 -1.0
  outer loop
    vertex -5.894802034422252 11.045059411497022 1.200000000007296
    vertex -8.003345838087567 11.04505941185971 1.2000000000108457
    vertex -6.183353649028301 12.002523753240132 1.200000000007535
  endloop
endfacet
facet normal -1.6741587170421122e-12 -2.5211048826055693e-13 -1.0
  outer loop
    vertex -6.183353649028301 12.002523753240132 1.200000000007535
    vertex -8.003345838087567 11.04505941185971 1.2000000000108457
    vertex -8.538495382263244 12.002523753644866 1.2000000000114983
  endloop
endfacet
facet normal -1.6741587170421122e-12 -2.5211048826055693e-13 -1.0
  outer loop
    vertex -4.894802034422711 11.04505941132511 1.200000000005618
    vertex -3.1027398159292296 5.098685918547766 1.200000000003629
    vertex -5.894802034422252 11.045059411497022 1.200000000007296
  endloop
endfacet
facet normal -1.6741587170421122e-12 -2.5211048826055693e-13 -1.0
  outer loop
    vertex 4.894802038226416 11.045059409641283 1.199999999989226
    vertex 5.8948020382255875 11.045059409469129 1.1999999999875481
    vertex 3.1027398176871475 5.098685917480481 1.1999999999932278
  endloop
endfacet
facet normal -1.6741587170421122e-12 -2.5211048826055693e-13 -1.0
  outer loop
    vertex 3.388923733454193 0.9999999994170764 1.1999999999945863
    vertex 3.1027398176871475 5.098685917480481 1.1999999999932278
    vertex 9.003345841891088 11.045059408934447 1.1999999999822857
  endloop
endfacet
facet normal -1.6741587170421122e-12 -2.5211048826055693e-13 -1.0
  outer loop
    vertex 3.1027398176871475 5.098685917480481 1.1999999999932278
    vertex 3.388923733454193 0.9999999994170764 1.1999999999945863
    vertex -3.1027398159292296 5.098685918547766 1.200000000003629
  endloop
endfacet
facet normal -1.6741587170421122e-12 -2.5211048826055693e-13 -1.0
  outer loop
    vertex 9.003345841891088 11.045059408934447 1.1999999999822857
    vertex 3.1027398176871475 5.098685917480481 1.1999999999932278
    vertex 5.8948020382255875 11.045059409469129 1.1999999999875481
  endloop
endfacet
facet normal -1.6741587170421122e-12 -2.5211048826055693e-13 -1.0
  outer loop
    vertex 9.003345841891088 11.045059408934447 1.1999999999822857
    vertex 5.8948020382255875 11.045059409469129 1.1999999999875481
    vertex 8.003345841891916 11.045059409106463 1.1999999999840216
  endloop
endfacet
facet normal -1.6741587170421122e-12 -2.5211048826055693e-13 -1.0
  outer loop
    vertex 8.003345841891916 11.045059409106463 1.1999999999840216
    vertex 5.8948020382255875 11.045059409469129 1.1999999999875481
    vertex 6.183353653161196 12.002523751113008 1.1999999999868414
  endloop
endfacet
facet normal -1.6741587170421122e-12 -2.5211048826055693e-13 -1.0
  outer loop
    vertex 8.003345841891916 11.045059409106463 1.1999999999840216
    vertex 6.183353653161196 12.002523751113008 1.1999999999868414
    vertex 8.538495386396969 12.002523750707592 1.1999999999830397
  endloop
endfacet
facet normal 0.9574643416431683 -0.28855161493537784 -1.50646390696975e-12
  outer loop
    vertex 3.1027398176871475 5.098685917480481 1.1999999999932278
    vertex 4.894802038224311 11.045059409640938 -1.1090003226854605e-11
    vertex 4.894802038226416 11.045059409641283 1.199999999989226
  endloop
endfacet
facet normal 0.9574643416431683 -0.28855161493537784 -1.50646390696975e-12
  outer loop
    vertex 4.894802038224311 11.045059409640938 -1.1090003226854605e-11
    vertex 3.1027398176871475 5.098685917480481 1.1999999999932278
    vertex 3.1027398176853196 5.0986859174802275 -6.7765824951493414e-12
  endloop
endfacet
facet normal -1.7214604741688832e-10 -1.0 2.824170112444292e-13
  outer loop
    vertex 5.894802038223575 11.045059409468772 -1.2768447277267114e-11
    vertex 4.894802038226416 11.045059409641283 1.199999999989226
    vertex 4.894802038224311 11.045059409640938 -1.1090003226854605e-11
  endloop
endfacet
facet normal -1.7214604741688832e-10 -1.0 2.824170112444292e-13
  outer loop
    vertex 4.894802038226416 11.045059409641283 1.199999999989226
    vertex 5.894802038223575 11.045059409468772 -1.2768447277267114e-11
    vertex 5.8948020382255875 11.045059409469129 1.1999999999875481
  endloop
endfacet
facet normal 0.9574643416431659 -0.2885516149353856 -1.5192105696947538e-12
  outer loop
    vertex 5.8948020382255875 11.045059409469129 1.1999999999875481
    vertex 6.183353653159183 12.002523751112628 -1.3347420235731987e-11
    vertex 6.183353653161196 12.002523751113008 1.1999999999868414
  endloop
endfacet
facet normal 0.9574643416431659 -0.2885516149353856 -1.5192105696947538e-12
  outer loop
    vertex 6.183353653159183 12.002523751112628 -1.3347420235731987e-11
    vertex 5.8948020382255875 11.045059409469129 1.1999999999875481
    vertex 5.894802038223575 11.045059409468772 -1.2768447277267114e-11
  endloop
endfacet
facet normal -0.8729062318471613 0.48788801010312816 1.3117640563479296e-12
  outer loop
    vertex 8.538495386394958 12.002523750707201 -1.7149005770988877e-11
    vertex 8.003345841891916 11.045059409106463 1.1999999999840216
    vertex 8.538495386396969 12.002523750707592 1.1999999999830397
  endloop
endfacet
facet normal -0.8729062318471613 0.48788801010312816 1.3117640563479296e-12
  outer loop
    vertex 8.003345841891916 11.045059409106463 1.1999999999840216
    vertex 8.538495386394958 12.002523750707201 -1.7149005770988877e-11
    vertex 8.003345841889905 11.045059409106118 -1.5983118828444276e-11
  endloop
endfacet
facet normal -1.719991371551548e-10 -1.0 2.821928492799246e-13
  outer loop
    vertex 9.003345841888708 11.045059408934137 -1.7707043298287318e-11
    vertex 8.003345841891916 11.045059409106463 1.1999999999840216
    vertex 8.003345841889905 11.045059409106118 -1.5983118828444276e-11
  endloop
endfacet
facet normal -1.719991371551548e-10 -1.0 2.821928492799246e-13
  outer loop
    vertex 8.003345841891916 11.045059409106463 1.1999999999840216
    vertex 9.003345841888708 11.045059408934137 -1.7707043298287318e-11
    vertex 9.003345841891088 11.045059408934447 1.1999999999822857
  endloop
endfacet
facet normal -0.8729062318472568 0.4878880101029572 1.5694195467892548e-12
  outer loop
    vertex 9.003345841891088 11.045059408934447 1.1999999999822857
    vertex 3.3889237334521805 0.9999999994167544 -5.417945203589624e-12
    vertex 3.388923733454193 0.9999999994170764 1.1999999999945863
  endloop
endfacet
facet normal -0.8729062318472568 0.4878880101029572 1.5694195467892548e-12
  outer loop
    vertex 3.3889237334521805 0.9999999994167544 -5.417945203589624e-12
    vertex 9.003345841891088 11.045059408934447 1.1999999999822857
    vertex 9.003345841888708 11.045059408934137 -1.7707043298287318e-11
  endloop
endfacet
endsolid working_stargate_mk2_chevron_2_a
Working Stargate Mk2
www.glitch.org.uk