solid working_stargate_mk2_chevron_4
facet normal -7.046911685695255e-13 4.781090587765994e-13 1.0
  outer loop
    vertex -6.005416024739804 15.074534450683874 3.5140088762081203
    vertex 3.6745291254192123e-13 15.169828158983284 3.5140088762123103
    vertex -6.376975635671379 16.30985618911241 3.5140088762072663
  endloop
endfacet
facet normal -7.046911685695255e-13 4.781090587765994e-13 1.0
  outer loop
    vertex 6.376975635672336 16.309856189109823 3.5140088762162565
    vertex -6.376975635671379 16.30985618911241 3.5140088762072663
    vertex 3.6745291254192123e-13 15.169828158983284 3.5140088762123103
  endloop
endfacet
facet normal -7.046911685695255e-13 4.781090587765994e-13 1.0
  outer loop
    vertex 3.6745291254192123e-13 15.169828158983284 3.5140088762123103
    vertex 6.0054160247401365 15.07453445068136 3.514008876216582
    vertex 6.376975635672336 16.309856189109823 3.5140088762162565
  endloop
endfacet
facet normal -7.340297751263131e-13 -0.26575192561466354 0.9640414482957143
  outer loop
    vertex 4.785867731364555 12.682257081165236 0.49999999999724654
    vertex 5.50547896090473 15.082467432598406 1.1616525917005354
    vertex -4.785867731361018 12.682257081167224 0.4999999999904958
  endloop
endfacet
facet normal -7.340297751263131e-13 -0.26575192561466354 0.9640414482957143
  outer loop
    vertex -5.505478960900991 15.082467432600655 1.1616525916927776
    vertex -4.785867731361018 12.682257081167224 0.4999999999904958
    vertex 5.50547896090473 15.082467432598406 1.1616525917005354
  endloop
endfacet
facet normal -7.340297751263131e-13 -0.26575192561466354 0.9640414482957143
  outer loop
    vertex 2.1910011582804145e-12 15.169828158983576 1.1857348355673842
    vertex -5.505478960900991 15.082467432600655 1.1616525916927776
    vertex 5.50547896090473 15.082467432598406 1.1616525917005354
  endloop
endfacet
facet normal -0.9578759043147228 0.2871824366726699 -9.411629032793602e-13
  outer loop
    vertex 5.50547896090473 15.082467432598406 1.1616525917005354
    vertex 4.785867731364555 12.682257081165236 0.49999999999724654
    vertex 5.505478960903502 15.08246743259909 2.514008876216212
  endloop
endfacet
facet normal -0.9576608217347786 0.28789735624442087 -0.0009288604534369748
  outer loop
    vertex 5.505478960903502 15.08246743259909 2.514008876216212
    vertex 4.785867731364555 12.682257081165236 0.49999999999724654
    vertex 4.783914291111582 12.682257081166318 2.5140088762168618
  endloop
endfacet
facet normal -0.9576612348611858 0.28789748044077895 -8.948631360031088e-13
  outer loop
    vertex 4.783914291111582 12.682257081166318 2.5140088762168618
    vertex 1.1216159834472712 0.5000000000001632 0.5000000000005208
    vertex 1.1216159834457624 0.500000000000818 2.5140088762201405
  endloop
endfacet
facet normal -0.9576184749450543 0.28803818104284 -0.0009288193801704791
  outer loop
    vertex 4.785867731364555 12.682257081165236 0.49999999999724654
    vertex 1.1216159834472712 0.5000000000001632 0.5000000000005208
    vertex 4.783914291111582 12.682257081166318 2.5140088762168618
  endloop
endfacet
facet normal -7.0484887110751e-13 4.808969827128478e-13 1.0
  outer loop
    vertex 1.1216159834457624 0.500000000000818 2.5140088762201405
    vertex -1.1216159834492145 0.5000000000015642 2.51400887621855
    vertex -1.471303184956129 2.283055267462897e-12 2.5140088762185444
  endloop
endfacet
facet normal -7.0484887110751e-13 4.808969827128478e-13 1.0
  outer loop
    vertex -5.285867731361743 12.682257081167684 2.514008876209755
    vertex -1.471303184956129 2.283055267462897e-12 2.5140088762185444
    vertex -1.1216159834492145 0.5000000000015642 2.51400887621855
  endloop
endfacet
facet normal -7.0484887110751e-13 4.808969827128478e-13 1.0
  outer loop
    vertex -4.783914291110231 12.682257081168393 2.5140088762101143
    vertex -5.285867731361743 12.682257081167684 2.514008876209755
    vertex -1.1216159834492145 0.5000000000015642 2.51400887621855
  endloop
endfacet
facet normal -7.0484887110751e-13 4.808969827128478e-13 1.0
  outer loop
    vertex -6.005416024738915 15.074534450683327 2.514008876208112
    vertex -5.285867731361743 12.682257081167684 2.514008876209755
    vertex -4.783914291110231 12.682257081168393 2.5140088762101143
  endloop
endfacet
facet normal -7.0484887110751e-13 4.808969827128478e-13 1.0
  outer loop
    vertex -5.505478960901666 15.082467432601398 2.5140088762084543
    vertex -6.005416024738915 15.074534450683327 2.514008876208112
    vertex -4.783914291110231 12.682257081168393 2.5140088762101143
  endloop
endfacet
facet normal -7.0484887110751e-13 4.808969827128478e-13 1.0
  outer loop
    vertex 5.285867731362448 12.682257081165496 2.5140088762172095
    vertex 1.1216159834457624 0.500000000000818 2.5140088762201405
    vertex 1.4713031849526834 1.475883968715992e-12 2.5140088762206236
  endloop
endfacet
facet normal -7.0484887110751e-13 4.808969827128478e-13 1.0
  outer loop
    vertex -1.471303184956129 2.283055267462897e-12 2.5140088762185444
    vertex 1.4713031849526834 1.475883968715992e-12 2.5140088762206236
    vertex 1.1216159834457624 0.500000000000818 2.5140088762201405
  endloop
endfacet
facet normal -7.0484887110751e-13 4.808969827128478e-13 1.0
  outer loop
    vertex 4.783914291111582 12.682257081166318 2.5140088762168618
    vertex 1.1216159834457624 0.500000000000818 2.5140088762201405
    vertex 5.285867731362448 12.682257081165496 2.5140088762172095
  endloop
endfacet
facet normal -7.0484887110751e-13 4.808969827128478e-13 1.0
  outer loop
    vertex 6.005416024740656 15.074534450680845 2.5140088762165735
    vertex 4.783914291111582 12.682257081166318 2.5140088762168618
    vertex 5.285867731362448 12.682257081165496 2.5140088762172095
  endloop
endfacet
facet normal -7.0484887110751e-13 4.808969827128478e-13 1.0
  outer loop
    vertex 5.505478960903502 15.08246743259909 2.514008876216212
    vertex 4.783914291111582 12.682257081166318 2.5140088762168618
    vertex 6.005416024740656 15.074534450680845 2.5140088762165735
  endloop
endfacet
facet normal 0.9576205578689214 -0.28803275360072467 8.095589768143752e-13
  outer loop
    vertex 5.285867731365232 12.682257081164733 -2.403359142227134e-12
    vertex 6.376975635674014 16.309856189108217 0.9999999999966181
    vertex 1.4713031849547293 -4.122853356161728e-13 1.0397866857241138e-12
  endloop
endfacet
facet normal 0.9576205578689214 -0.28803275360072467 8.095589768143752e-13
  outer loop
    vertex 1.4713031849526834 1.475883968715992e-12 2.5140088762206236
    vertex 1.4713031849547293 -4.122853356161728e-13 1.0397866857241138e-12
    vertex 6.376975635674014 16.309856189108217 0.9999999999966181
  endloop
endfacet
facet normal 0.9576205578689214 -0.28803275360072467 8.095589768143752e-13
  outer loop
    vertex 5.285867731362448 12.682257081165496 2.5140088762172095
    vertex 1.4713031849526834 1.475883968715992e-12 2.5140088762206236
    vertex 6.376975635674014 16.309856189108217 0.9999999999966181
  endloop
endfacet
facet normal 0.9576205578689214 -0.28803275360072467 8.095589768143752e-13
  outer loop
    vertex 6.376975635672336 16.309856189109823 3.5140088762162565
    vertex 6.005416024740656 15.074534450680845 2.5140088762165735
    vertex 6.376975635674014 16.309856189108217 0.9999999999966181
  endloop
endfacet
facet normal 0.9576205578689214 -0.28803275360072467 8.095589768143752e-13
  outer loop
    vertex 5.285867731362448 12.682257081165496 2.5140088762172095
    vertex 6.376975635674014 16.309856189108217 0.9999999999966181
    vertex 6.005416024740656 15.074534450680845 2.5140088762165735
  endloop
endfacet
facet normal 0.9576205578689214 -0.28803275360072467 8.095589768143752e-13
  outer loop
    vertex 6.0054160247401365 15.07453445068136 3.514008876216582
    vertex 6.005416024740656 15.074534450680845 2.5140088762165735
    vertex 6.376975635672336 16.309856189109823 3.5140088762162565
  endloop
endfacet
facet normal 2.0408674750224868e-13 1.0 -6.023045789173029e-13
  outer loop
    vertex -6.376975635671379 16.30985618911241 3.5140088762072663
    vertex 6.376975635672336 16.309856189109823 3.5140088762162565
    vertex -6.376975635669518 16.309856189110842 0.9999999999876309
  endloop
endfacet
facet normal 2.0408674750224868e-13 1.0 -6.023045789173029e-13
  outer loop
    vertex 6.376975635674014 16.309856189108217 0.9999999999966181
    vertex -6.376975635669518 16.309856189110842 0.9999999999876309
    vertex 6.376975635672336 16.309856189109823 3.5140088762162565
  endloop
endfacet
facet normal 7.050773915685785e-13 -4.880320750148407e-13 -1.0
  outer loop
    vertex 1.4713031849547293 -4.122853356161728e-13 1.0397866857241138e-12
    vertex -1.4713031849547293 4.1221183719962183e-13 -1.0397866857241124e-12
    vertex 5.285867731365232 12.682257081164733 -2.403359142227134e-12
  endloop
endfacet
facet normal 7.050773915685785e-13 -4.880320750148407e-13 -1.0
  outer loop
    vertex -5.285867731360805 12.682257081166899 -9.857840151567335e-12
    vertex 5.285867731365232 12.682257081164733 -2.403359142227134e-12
    vertex -1.4713031849547293 4.1221183719962183e-13 -1.0397866857241124e-12
  endloop
endfacet
facet normal -2.8024804699159104e-13 -1.0 6.827341275216053e-13
  outer loop
    vertex -1.4713031849547293 4.1221183719962183e-13 -1.0397866857241124e-12
    vertex 1.4713031849547293 -4.122853356161728e-13 1.0397866857241138e-12
    vertex -1.471303184956129 2.283055267462897e-12 2.5140088762185444
  endloop
endfacet
facet normal -2.8024804699159104e-13 -1.0 6.827341275216053e-13
  outer loop
    vertex 1.4713031849526834 1.475883968715992e-12 2.5140088762206236
    vertex -1.471303184956129 2.283055267462897e-12 2.5140088762185444
    vertex 1.4713031849547293 -4.122853356161728e-13 1.0397866857241138e-12
  endloop
endfacet
facet normal -7.051641801500812e-13 4.803539914891062e-13 1.0
  outer loop
    vertex 1.1216159834472712 0.5000000000001632 0.5000000000005208
    vertex 4.785867731364555 12.682257081165236 0.49999999999724654
    vertex -1.1216159834477968 0.5000000000008517 0.49999999999893346
  endloop
endfacet
facet normal -7.051641801500812e-13 4.803539914891062e-13 1.0
  outer loop
    vertex -4.785867731361018 12.682257081167224 0.4999999999904958
    vertex -1.1216159834477968 0.5000000000008517 0.49999999999893346
    vertex 4.785867731364555 12.682257081165236 0.49999999999724654
  endloop
endfacet
facet normal 7.34050591808025e-13 0.26575192561465333 -0.9640414482957171
  outer loop
    vertex 5.285867731365232 12.682257081164733 -2.403359142227134e-12
    vertex -5.285867731360805 12.682257081166899 -9.857840151567335e-12
    vertex 6.376975635674014 16.309856189108217 0.9999999999966181
  endloop
endfacet
facet normal 7.34050591808025e-13 0.26575192561465333 -0.9640414482957171
  outer loop
    vertex -6.376975635669518 16.309856189110842 0.9999999999876309
    vertex 6.376975635674014 16.309856189108217 0.9999999999966181
    vertex -5.285867731360805 12.682257081166899 -9.857840151567335e-12
  endloop
endfacet
facet normal -0.9576205578690243 -0.288032753600383 -5.383252837372255e-13
  outer loop
    vertex -5.285867731361743 12.682257081167684 2.514008876209755
    vertex -6.005416024738915 15.074534450683327 2.514008876208112
    vertex -6.376975635669518 16.309856189110842 0.9999999999876309
  endloop
endfacet
facet normal -0.9576205578690243 -0.288032753600383 -5.383252837372255e-13
  outer loop
    vertex -6.376975635671379 16.30985618911241 3.5140088762072663
    vertex -6.376975635669518 16.309856189110842 0.9999999999876309
    vertex -6.005416024738915 15.074534450683327 2.514008876208112
  endloop
endfacet
facet normal -0.9576205578690243 -0.288032753600383 -5.383252837372255e-13
  outer loop
    vertex -6.005416024739804 15.074534450683874 3.5140088762081203
    vertex -6.376975635671379 16.30985618911241 3.5140088762072663
    vertex -6.005416024738915 15.074534450683327 2.514008876208112
  endloop
endfacet
facet normal -0.9576205578690243 -0.288032753600383 -5.383252837372255e-13
  outer loop
    vertex -5.285867731360805 12.682257081166899 -9.857840151567335e-12
    vertex -1.4713031849547293 4.1221183719962183e-13 -1.0397866857241124e-12
    vertex -6.376975635669518 16.309856189110842 0.9999999999876309
  endloop
endfacet
facet normal -0.9576205578690243 -0.288032753600383 -5.383252837372255e-13
  outer loop
    vertex -1.471303184956129 2.283055267462897e-12 2.5140088762185444
    vertex -6.376975635669518 16.309856189110842 0.9999999999876309
    vertex -1.4713031849547293 4.1221183719962183e-13 -1.0397866857241124e-12
  endloop
endfacet
facet normal -0.9576205578690243 -0.288032753600383 -5.383252837372255e-13
  outer loop
    vertex -5.285867731361743 12.682257081167684 2.514008876209755
    vertex -6.376975635669518 16.309856189110842 0.9999999999876309
    vertex -1.471303184956129 2.283055267462897e-12 2.5140088762185444
  endloop
endfacet
facet normal 0.9578759043148254 0.28718243667232823 4.0708076628080353e-13
  outer loop
    vertex -4.785867731361018 12.682257081167224 0.4999999999904958
    vertex -5.505478960900991 15.082467432600655 1.1616525916927776
    vertex -5.505478960901666 15.082467432601398 2.5140088762084543
  endloop
endfacet
facet normal 0.9576608217348824 0.2878973562440792 -0.0009288604520890327
  outer loop
    vertex -4.783914291110231 12.682257081168393 2.5140088762101143
    vertex -4.785867731361018 12.682257081167224 0.4999999999904958
    vertex -5.505478960901666 15.082467432601398 2.5140088762084543
  endloop
endfacet
facet normal 0.9576184749451582 0.2880381810424985 -0.0009288193788225967
  outer loop
    vertex -1.1216159834477968 0.5000000000008517 0.49999999999893346
    vertex -4.785867731361018 12.682257081167224 0.4999999999904958
    vertex -4.783914291110231 12.682257081168393 2.5140088762101143
  endloop
endfacet
facet normal 0.9576612348612885 0.28789748044043734 4.5307837883066983e-13
  outer loop
    vertex -1.1216159834477968 0.5000000000008517 0.49999999999893346
    vertex -4.783914291110231 12.682257081168393 2.5140088762101143
    vertex -1.1216159834492145 0.5000000000015642 2.51400887621855
  endloop
endfacet
facet normal 3.1963320878999984e-13 1.0 -4.432528117066202e-13
  outer loop
    vertex -1.1216159834477968 0.5000000000008517 0.49999999999893346
    vertex -1.1216159834492145 0.5000000000015642 2.51400887621855
    vertex 1.1216159834472712 0.5000000000001632 0.5000000000005208
  endloop
endfacet
facet normal 3.1963320878999984e-13 1.0 -4.432528117066202e-13
  outer loop
    vertex 1.1216159834457624 0.500000000000818 2.5140088762201405
    vertex 1.1216159834472712 0.5000000000001632 0.5000000000005208
    vertex -1.1216159834492145 0.5000000000015642 2.51400887621855
  endloop
endfacet
facet normal -0.015865963834807824 -0.9998741276738752 1.0151115575511688e-14
  outer loop
    vertex 3.6745291254192123e-13 15.169828158983284 3.5140088762123103
    vertex 2.1910011582804145e-12 15.169828158983576 1.1857348355673842
    vertex 6.0054160247401365 15.07453445068136 3.514008876216582
  endloop
endfacet
facet normal -0.015865963834807824 -0.9998741276738752 1.0151115575511688e-14
  outer loop
    vertex 5.505478960903502 15.08246743259909 2.514008876216212
    vertex 6.0054160247401365 15.07453445068136 3.514008876216582
    vertex 2.1910011582804145e-12 15.169828158983576 1.1857348355673842
  endloop
endfacet
facet normal -0.015865963834807824 -0.9998741276738752 1.0151115575511688e-14
  outer loop
    vertex 6.005416024740656 15.074534450680845 2.5140088762165735
    vertex 6.0054160247401365 15.07453445068136 3.514008876216582
    vertex 5.505478960903502 15.08246743259909 2.514008876216212
  endloop
endfacet
facet normal -0.015865963834807824 -0.9998741276738752 1.0151115575511688e-14
  outer loop
    vertex 5.505478960903502 15.08246743259909 2.514008876216212
    vertex 2.1910011582804145e-12 15.169828158983576 1.1857348355673842
    vertex 5.50547896090473 15.082467432598406 1.1616525917005354
  endloop
endfacet
facet normal 0.015865963834393003 -0.9998741276738817 4.119813667832551e-14
  outer loop
    vertex -6.005416024739804 15.074534450683874 3.5140088762081203
    vertex -6.005416024738915 15.074534450683327 2.514008876208112
    vertex 3.6745291254192123e-13 15.169828158983284 3.5140088762123103
  endloop
endfacet
facet normal 0.015865963834393003 -0.9998741276738817 4.119813667832551e-14
  outer loop
    vertex -5.505478960901666 15.082467432601398 2.5140088762084543
    vertex 3.6745291254192123e-13 15.169828158983284 3.5140088762123103
    vertex -6.005416024738915 15.074534450683327 2.514008876208112
  endloop
endfacet
facet normal 0.015865963834393003 -0.9998741276738817 4.119813667832551e-14
  outer loop
    vertex -5.505478960900991 15.082467432600655 1.1616525916927776
    vertex 2.1910011582804145e-12 15.169828158983576 1.1857348355673842
    vertex -5.505478960901666 15.082467432601398 2.5140088762084543
  endloop
endfacet
facet normal 0.015865963834393003 -0.9998741276738817 4.119813667832551e-14
  outer loop
    vertex 3.6745291254192123e-13 15.169828158983284 3.5140088762123103
    vertex -5.505478960901666 15.082467432601398 2.5140088762084543
    vertex 2.1910011582804145e-12 15.169828158983576 1.1857348355673842
  endloop
endfacet
endsolid working_stargate_mk2_chevron_4
Working Stargate Mk2
www.glitch.org.uk