solid working_stargate_mk2_chevron_2_c
facet normal 0.8729062319311741 -0.48788800995281606 4.5184188391041954e-13
  outer loop
    vertex 1.3855696727011797 2.478995952765751 -2.536796728236368e-12
    vertex 2.260736205190208 4.044802663738137 1.2532109854556157
    vertex 1.3855696727020343 2.478995952766369 1.2532109854567508
  endloop
endfacet
facet normal 0.8729062319311741 -0.48788800995281606 4.5184188391041954e-13
  outer loop
    vertex 2.260736205190208 4.044802663738137 1.2532109854556157
    vertex 1.3855696727011797 2.478995952765751 -2.536796728236368e-12
    vertex 2.2607362051905544 4.044802663737266 -3.279643578935065e-12
  endloop
endfacet
facet normal -0.7165637248943124 0.2159512484175693 0.66325069654881
  outer loop
    vertex -0.3085278531480276 13.427367224619301 1.6930626034718732
    vertex 0.3555166007246542 12.185057817017128 2.814973878842048
    vertex 0.7299121473723568 13.427367224620168 2.814973878841154
  endloop
endfacet
facet normal -0.7165637248943124 0.2159512484175693 0.66325069654881
  outer loop
    vertex 0.3555166007246542 12.185057817017128 2.814973878842048
    vertex -0.3085278531480276 13.427367224619301 1.6930626034718732
    vertex -0.6829233998019213 12.185057817016308 1.6930626034727674
  endloop
endfacet
facet normal 0.8729062319309089 -0.48788800995329074 9.555750639266824e-13
  outer loop
    vertex 4.0109192259253215 7.176147633597135 -5.1804363465635105e-12
    vertex 4.871834365404331 8.71645642390288 1.253210985452436
    vertex 4.010919225923589 7.1761476335981 1.2532109854535531
  endloop
endfacet
facet normal 0.8729062319309089 -0.48788800995329074 9.555750639266824e-13
  outer loop
    vertex 4.871834365404331 8.71645642390288 1.253210985452436
    vertex 4.0109192259253215 7.176147633597135 -5.1804363465635105e-12
    vertex 4.871834365404492 8.716456423901985 -6.262581564442371e-12
  endloop
endfacet
facet normal -0.7165637248919309 0.21595124841658053 0.663250696551705
  outer loop
    vertex 0.06696498595711305 11.227593475324497 2.8149738788427143
    vertex -1.4524479748389294 9.631641710713211 1.6930626034747904
    vertex -0.41400797430560826 9.63164171071415 2.8149738788441057
  endloop
endfacet
facet normal -0.7165637248919309 0.21595124841658053 0.663250696551705
  outer loop
    vertex -1.4524479748389294 9.631641710713211 1.6930626034747904
    vertex 0.06696498595711305 11.227593475324497 2.8149738788427143
    vertex -0.9714750145740827 11.227593475323976 1.6930626034734568
  endloop
endfacet
facet normal -0.7165637248891681 0.21595124841606936 0.663250696554856
  outer loop
    vertex -1.7409995896130255 8.674177369020603 1.6930626034755025
    vertex -1.1412800628067696 7.218426688478607 2.8149738788456466
    vertex -0.7025595890719424 8.67417736902138 2.814973878844772
  endloop
endfacet
facet normal -0.7165637248891681 0.21595124841606936 0.663250696554856
  outer loop
    vertex -1.1412800628067696 7.218426688478607 2.8149738788456466
    vertex -1.7409995896130255 8.674177369020603 1.6930626034755025
    vertex -2.1797200633489617 7.218426688477646 1.693062603476366
  endloop
endfacet
facet normal 0.8729062319308262 -0.4878880099534388 4.5495321258852e-13
  outer loop
    vertex 6.810518005297994 12.1850578170164 -8.81237269823032e-12
    vertex 7.5048742172832 13.427367224620017 1.2532109854490088
    vertex 6.8105180052978325 12.185057817017226 1.2532109854499096
  endloop
endfacet
facet normal 0.8729062319308262 -0.4878880099534388 4.5495321258852e-13
  outer loop
    vertex 7.5048742172832 13.427367224620017 1.2532109854490088
    vertex 6.810518005297994 12.1850578170164 -8.81237269823032e-12
    vertex 7.504874217283455 13.427367224619237 -9.758798569237114e-12
  endloop
endfacet
facet normal 0.8729062319311507 -0.48788800995285836 3.884463310088251e-13
  outer loop
    vertex -7.507878763135522e-14 9.023892744153272e-13 1.2000000000000044
    vertex 0.8504201283624377 1.5215316110729897 -1.4380475477082653e-12
    vertex 0.8504201283631077 1.521531611073954 1.253210985457445
  endloop
endfacet
facet normal 0.8729062319311507 -0.48788800995285836 3.884463310088251e-13
  outer loop
    vertex 0.8504201283624377 1.5215316110729897 -1.4380475477082653e-12
    vertex -7.507878763135522e-14 9.023892744153272e-13 1.2000000000000044
    vertex -5.775291356258094e-15 0.0 0.0
  endloop
endfacet
facet normal -0.9574643416928706 0.288551614770457 -5.041879668991677e-13
  outer loop
    vertex -1.7409995896124133 8.674177369019374 -6.468326319009066e-12
    vertex -2.1797200633489617 7.218426688477646 1.693062603476366
    vertex -1.7409995896130255 8.674177369020603 1.6930626034755025
  endloop
endfacet
facet normal -0.9574643416928706 0.288551614770457 -5.041879668991677e-13
  outer loop
    vertex -2.1797200633489617 7.218426688477646 1.693062603476366
    vertex -1.7409995896124133 8.674177369019374 -6.468326319009066e-12
    vertex -2.1797200633489964 7.218426688476485 -5.6164708439609966e-12
  endloop
endfacet
facet normal 0.8729062319313744 -0.4878880099524583 5.406249790506747e-13
  outer loop
    vertex 2.7486242151420957 4.917708895670587 1.2532109854549824
    vertex 3.5230312159720474 6.303241401665607 -4.5704211970587494e-12
    vertex 3.523031215972348 6.303241401666456 1.253210985454186
  endloop
endfacet
facet normal 0.8729062319313744 -0.4878880099524583 5.406249790506747e-13
  outer loop
    vertex 3.5230312159720474 6.303241401665607 -4.5704211970587494e-12
    vertex 2.7486242151420957 4.917708895670587 1.2532109854549824
    vertex 2.7486242151423497 4.917708895669622 -3.912037982445326e-12
  endloop
endfacet
facet normal 0.8729062319310176 -0.4878880099530964 3.9467107864328054e-13
  outer loop
    vertex 5.359722375355363 9.58936265583162 -6.906526550665149e-12
    vertex 6.32262999534308 11.312151585085493 1.253210985450554
    vertex 5.359722375354462 9.589362655832469 1.2532109854518032
  endloop
endfacet
facet normal 0.8729062319310176 -0.4878880099530964 3.9467107864328054e-13
  outer loop
    vertex 6.32262999534308 11.312151585085493 1.253210985450554
    vertex 5.359722375355363 9.58936265583162 -6.906526550665149e-12
    vertex 6.322629995343612 11.312151585084598 -8.167705800588009e-12
  endloop
endfacet
facet normal -0.9574643416930358 0.2885516147699089 1.5702283526693618e-12
  outer loop
    vertex -3.896596820194833 1.5215316110724064 -1.0077883416670374e-12
    vertex -4.355141733231873 3.39298367180163e-13 1.6930626034817122
    vertex -3.896596820194429 1.5215316110735673 1.6930626034806286
  endloop
endfacet
facet normal -0.9574643416930358 0.2885516147699089 1.5702283526693618e-12
  outer loop
    vertex -4.355141733231873 3.39298367180163e-13 1.6930626034817122
    vertex -3.896596820194833 1.5215316110724064 -1.0077883416670374e-12
    vertex -4.355141733233386 8.66293703438714e-15 9.962377589545212e-14
  endloop
endfacet
facet normal -0.9574643416931056 0.2885516147696766 -4.95478555153925e-13
  outer loop
    vertex -0.9714750145740827 11.227593475323976 1.6930626034734568
    vertex -1.4524479748390564 9.631641710711959 -6.903638904987019e-12
    vertex -1.4524479748389294 9.631641710713211 1.6930626034747904
  endloop
endfacet
facet normal -0.9574643416931056 0.2885516147696766 -4.95478555153925e-13
  outer loop
    vertex -1.4524479748390564 9.631641710711959 -6.903638904987019e-12
    vertex -0.9714750145740827 11.227593475323976 1.6930626034734568
    vertex -0.9714750145733781 11.227593475322816 -8.421818620263366e-12
  endloop
endfacet
facet normal -0.9574643416927072 0.28855161477099894 -4.48105569616361e-13
  outer loop
    vertex -4.608045205425317 2.4789959527662537 2.014008876218038
    vertex -4.896596820195299 1.5215316110724844 -9.991254046326502e-13
    vertex -4.896596820196737 1.5215316110737376 2.0140088762187505
  endloop
endfacet
facet normal -0.9574643416927072 0.28855161477099894 -4.48105569616361e-13
  outer loop
    vertex -4.896596820195299 1.5215316110724844 -9.991254046326502e-13
    vertex -4.608045205425317 2.4789959527662537 2.014008876218038
    vertex -4.6080452054251735 2.478995952764885 -1.8495370568416546e-12
  endloop
endfacet
facet normal -0.9574643416929177 0.2885516147702999 -4.008332386142389e-14
  outer loop
    vertex -2.4524479748393864 9.631641710713108 2.014008876212208
    vertex -2.7409995896098325 8.674177369019336 -6.494315130112227e-12
    vertex -2.7409995896109933 8.67417736902038 2.0140088762130124
  endloop
endfacet
facet normal -0.9574643416929177 0.2885516147702999 -4.008332386142389e-14
  outer loop
    vertex -2.7409995896098325 8.674177369019336 -6.494315130112227e-12
    vertex -2.4524479748393864 9.631641710713108 2.014008876212208
    vertex -2.452447974840905 9.631641710711762 -7.114437039490439e-12
  endloop
endfacet
facet normal -0.957464341693139 0.2885516147695659 1.788414667077021e-13
  outer loop
    vertex -3.860347128306316 4.959987950550531 2.014008876215802
    vertex -4.148898743076814 4.002523608857599 2.014008876216514
    vertex -4.136157078425377 4.044802663737361 2.014008876216484
  endloop
endfacet
facet normal -0.957464341693139 0.2885516147695659 1.788414667077021e-13
  outer loop
    vertex -4.148898743076814 4.002523608857599 2.014008876216514
    vertex -3.860347128306316 4.959987950550531 2.014008876215802
    vertex -4.1488987430763 4.002523608856369 -3.1424804092239354e-12
  endloop
endfacet
facet normal -0.957464341693139 0.2885516147695659 1.788414667077021e-13
  outer loop
    vertex -4.1488987430763 4.002523608856369 -3.1424804092239354e-12
    vertex -3.860347128306316 4.959987950550531 2.014008876215802
    vertex -3.860347128306891 4.959987950550014 0.9999999999963103
  endloop
endfacet
facet normal -0.957464341693139 0.2885516147695659 1.788414667077021e-13
  outer loop
    vertex -4.1488987430763 4.002523608856369 -3.1424804092239354e-12
    vertex -3.860347128306891 4.959987950550014 0.9999999999963103
    vertex -3.860347128306911 4.9599879505493005 -4.097569217265118e-12
  endloop
endfacet
facet normal 0.8729062319314467 -0.48788800995232867 5.861881014468999e-13
  outer loop
    vertex 4.523031215971127 6.303241401665923 -4.532881803243071e-12
    vertex 5.0109192259222235 7.176147633598565 2.014008876214468
    vertex 4.523031215971352 6.303241401667314 2.014008876215101
  endloop
endfacet
facet normal 0.8729062319314467 -0.48788800995232867 5.861881014468999e-13
  outer loop
    vertex 5.0109192259222235 7.176147633598565 2.014008876214468
    vertex 4.523031215971127 6.303241401665923 -4.532881803243071e-12
    vertex 5.010919225923384 7.176147633597219 -5.165998118172865e-12
  endloop
endfacet
facet normal 0.8729062319314467 -0.48788800995232867 5.861881014468999e-13
  outer loop
    vertex 5.010919225923384 7.176147633597219 -5.165998118172865e-12
    vertex 4.523031215971127 6.303241401665923 -4.532881803243071e-12
    vertex 4.7669752209486385 6.739694517631594 -4.849079004998202e-12
  endloop
endfacet
facet normal 0.8729062319302037 -0.48788800995455256 5.182094305503722e-13
  outer loop
    vertex 1.850420128361188 1.5215316110747859 2.0140088762180137
    vertex 2.3855696727044173 2.47899595276567 -2.1642904357577207e-12
    vertex 2.3855696727011315 2.4789959527669696 2.0140088762174813
  endloop
endfacet
facet normal 0.8729062319302037 -0.48788800995455256 5.182094305503722e-13
  outer loop
    vertex 2.3855696727044173 2.47899595276567 -2.1642904357577207e-12
    vertex 1.850420128361188 1.5215316110747859 2.0140088762180137
    vertex 1.8504201283611477 1.5215316110733246 -1.5391151464427821e-12
  endloop
endfacet
facet normal 0.34904880170371927 -0.10519305103914212 0.9311816987260189
  outer loop
    vertex -2.9499690495683737 2.4789959527679315 4.014008876217769
    vertex -3.238520664336189 1.5215316110754384 4.014008876218644
    vertex 2.3855696727011315 2.4789959527669696 2.0140088762174813
  endloop
endfacet
facet normal -3.741451592987962e-14 1.0 -6.178286094605206e-13
  outer loop
    vertex 0.6380999174769217 14.384831566313737 4.014008876208817
    vertex -1.0199762383770135 14.384831566310556 -1.0812789241754217e-11
    vertex -1.0199762383776199 14.3848315663119 2.014008876208867
  endloop
endfacet
facet normal -3.741451592987962e-14 1.0 -6.178286094605206e-13
  outer loop
    vertex -1.0199762383770135 14.384831566310556 -1.0812789241754217e-11
    vertex 0.6380999174769217 14.384831566313737 4.014008876208817
    vertex 9.04002376162063 14.384831566311664 -1.0923963600362185e-11
  endloop
endfacet
facet normal -3.741451592987962e-14 1.0 -6.178286094605206e-13
  outer loop
    vertex 9.04002376162063 14.384831566311664 -1.0923963600362185e-11
    vertex 0.6380999174769217 14.384831566313737 4.014008876208817
    vertex 9.040023761618174 14.384831566311462 2.0140088762087447
  endloop
endfacet
facet normal -0.749926055669777 0.22600567446715059 0.6217172557812908
  outer loop
    vertex 0.6380999174769217 14.384831566313737 4.014008876208817
    vertex -1.3085278531496887 13.42736722461936 2.014008876209441
    vertex 0.34954830270910336 13.427367224620966 4.014008876209542
  endloop
endfacet
facet normal -0.749926055669777 0.22600567446715059 0.6217172557812908
  outer loop
    vertex -1.3085278531496887 13.42736722461936 2.014008876209441
    vertex 0.6380999174769217 14.384831566313737 4.014008876208817
    vertex -1.0199762383776199 14.3848315663119 2.014008876208867
  endloop
endfacet
facet normal 0.3583625118361849 -0.20029731298251383 0.91184280252818
  outer loop
    vertex 2.3855696727011315 2.4789959527669696 2.0140088762174813
    vertex -3.238520664336189 1.5215316110754384 4.014008876218644
    vertex 1.850420128361188 1.5215316110747859 2.0140088762180137
  endloop
endfacet
facet normal 0.8729062319301608 -0.4878880099546294 8.586634697242862e-13
  outer loop
    vertex 5.871834365402133 8.716456423903368 2.0140088762133517
    vertex 6.35972237535707 9.58936265583314 2.01400887621273
    vertex 5.945017566895954 8.847392358692927 2.0140088762132677
  endloop
endfacet
facet normal 0.8729062319301608 -0.4878880099546294 8.586634697242862e-13
  outer loop
    vertex 6.35972237535707 9.58936265583314 2.01400887621273
    vertex 5.871834365402133 8.716456423903368 2.0140088762133517
    vertex 6.359722375357122 9.589362655831772 -6.903638904987019e-12
  endloop
endfacet
facet normal 0.8729062319301608 -0.4878880099546294 8.586634697242862e-13
  outer loop
    vertex 6.359722375357122 9.589362655831772 -6.903638904987019e-12
    vertex 5.871834365402133 8.716456423903368 2.0140088762133517
    vertex 5.871834365402093 8.716456423901954 -6.271244501476758e-12
  endloop
endfacet
facet normal 0.8729062319301608 -0.4878880099546294 8.586634697242862e-13
  outer loop
    vertex 6.359722375357122 9.589362655831772 -6.903638904987019e-12
    vertex 5.871834365402093 8.716456423901954 -6.271244501476758e-12
    vertex 6.11577837038035 9.152909539867187 -6.587441703231888e-12
  endloop
endfacet
facet normal -1.2501111257280613e-13 1.0 -7.002402293179411e-13
  outer loop
    vertex -3.6080452054276644 2.4789959527646914 -1.8466494111635254e-12
    vertex -4.6080452054251735 2.478995952764885 -1.8495370568416546e-12
    vertex -3.608045205427722 2.4789959527661525 1.693062603479916
  endloop
endfacet
facet normal -1.2501111257280613e-13 1.0 -7.002402293179411e-13
  outer loop
    vertex -2.9499690495683737 2.4789959527679315 4.014008876217769
    vertex -4.6080452054251735 2.478995952764885 -1.8495370568416546e-12
    vertex -4.608045205425317 2.4789959527662537 2.014008876218038
  endloop
endfacet
facet normal -1.2501111257280613e-13 1.0 -7.002402293179411e-13
  outer loop
    vertex -4.6080452054251735 2.478995952764885 -1.8495370568416546e-12
    vertex -2.9499690495683737 2.4789959527679315 4.014008876217769
    vertex -3.608045205427722 2.4789959527661525 1.693062603479916
  endloop
endfacet
facet normal -1.2501111257280613e-13 1.0 -7.002402293179411e-13
  outer loop
    vertex -3.608045205427722 2.4789959527661525 1.693062603479916
    vertex -2.9499690495683737 2.4789959527679315 4.014008876217769
    vertex -2.569605204869637 2.4789959527669034 2.8149738788489893
  endloop
endfacet
facet normal -1.2501111257280613e-13 1.0 -7.002402293179411e-13
  outer loop
    vertex -2.569605204869637 2.4789959527669034 2.8149738788489893
    vertex -2.9499690495683737 2.4789959527679315 4.014008876217769
    vertex 2.3855696727011315 2.4789959527669696 2.0140088762174813
  endloop
endfacet
facet normal -1.2501111257280613e-13 1.0 -7.002402293179411e-13
  outer loop
    vertex -2.569605204869637 2.4789959527669034 2.8149738788489893
    vertex 2.3855696727011315 2.4789959527669696 2.0140088762174813
    vertex 1.3855696727020343 2.478995952766369 1.2532109854567508
  endloop
endfacet
facet normal -1.2501111257280613e-13 1.0 -7.002402293179411e-13
  outer loop
    vertex 1.3855696727020343 2.478995952766369 1.2532109854567508
    vertex 2.3855696727044173 2.47899595276567 -2.1642904357577207e-12
    vertex 1.3855696727011797 2.478995952765751 -2.536796728236368e-12
  endloop
endfacet
facet normal -1.2501111257280613e-13 1.0 -7.002402293179411e-13
  outer loop
    vertex 2.3855696727044173 2.47899595276567 -2.1642904357577207e-12
    vertex 1.3855696727020343 2.478995952766369 1.2532109854567508
    vertex 2.3855696727011315 2.4789959527669696 2.0140088762174813
  endloop
endfacet
facet normal -0.749926055669819 0.22600567446719083 0.6217172557812256
  outer loop
    vertex -2.9499690495683737 2.4789959527679315 4.014008876217769
    vertex -4.896596820196737 1.5215316110737376 2.0140088762187505
    vertex -3.238520664336189 1.5215316110754384 4.014008876218644
  endloop
endfacet
facet normal -0.749926055669819 0.22600567446719083 0.6217172557812256
  outer loop
    vertex -4.896596820196737 1.5215316110737376 2.0140088762187505
    vertex -2.9499690495683737 2.4789959527679315 4.014008876217769
    vertex -4.608045205425317 2.4789959527662537 2.014008876218038
  endloop
endfacet
facet normal 0.8729062319317717 -0.4878880099517469 5.23965514323124e-13
  outer loop
    vertex 8.504874217282257 13.427367224619365 -9.732809758133953e-12
    vertex 9.040023761618174 14.384831566311462 2.0140088762087447
    vertex 8.50487421728239 13.42736722462085 2.014008876209855
  endloop
endfacet
facet normal 0.8729062319317717 -0.4878880099517469 5.23965514323124e-13
  outer loop
    vertex 9.040023761618174 14.384831566311462 2.0140088762087447
    vertex 8.504874217282257 13.427367224619365 -9.732809758133953e-12
    vertex 9.04002376162063 14.384831566311664 -1.0923963600362185e-11
  endloop
endfacet
facet normal 1.4796497360693145e-13 -1.0 7.095749234617337e-13
  outer loop
    vertex 1.8504201283611477 1.5215316110733246 -1.5391151464427821e-12
    vertex 0.8504201283631077 1.521531611073954 1.253210985457445
    vertex 0.8504201283624377 1.5215316110729897 -1.4380475477082653e-12
  endloop
endfacet
facet normal 1.4796497360693145e-13 -1.0 7.095749234617337e-13
  outer loop
    vertex -4.896596820195299 1.5215316110724844 -9.991254046326502e-13
    vertex -3.238520664336189 1.5215316110754384 4.014008876218644
    vertex -4.896596820196737 1.5215316110737376 2.0140088762187505
  endloop
endfacet
facet normal 1.4796497360693145e-13 -1.0 7.095749234617337e-13
  outer loop
    vertex -3.238520664336189 1.5215316110754384 4.014008876218644
    vertex -4.896596820195299 1.5215316110724844 -9.991254046326502e-13
    vertex -3.896596820194429 1.5215316110735673 1.6930626034806286
  endloop
endfacet
facet normal 1.4796497360693145e-13 -1.0 7.095749234617337e-13
  outer loop
    vertex -3.896596820194429 1.5215316110735673 1.6930626034806286
    vertex -4.896596820195299 1.5215316110724844 -9.991254046326502e-13
    vertex -3.896596820194833 1.5215316110724064 -1.0077883416670374e-12
  endloop
endfacet
facet normal 1.4796497360693145e-13 -1.0 7.095749234617337e-13
  outer loop
    vertex -3.238520664336189 1.5215316110754384 4.014008876218644
    vertex -3.896596820194429 1.5215316110735673 1.6930626034806286
    vertex -2.858156819638284 1.5215316110741794 2.8149738788498633
  endloop
endfacet
facet normal 1.4796497360693145e-13 -1.0 7.095749234617337e-13
  outer loop
    vertex -3.238520664336189 1.5215316110754384 4.014008876218644
    vertex -2.858156819638284 1.5215316110741794 2.8149738788498633
    vertex 1.850420128361188 1.5215316110747859 2.0140088762180137
  endloop
endfacet
facet normal 1.4796497360693145e-13 -1.0 7.095749234617337e-13
  outer loop
    vertex 1.850420128361188 1.5215316110747859 2.0140088762180137
    vertex -2.858156819638284 1.5215316110741794 2.8149738788498633
    vertex 0.8504201283631077 1.521531611073954 1.253210985457445
  endloop
endfacet
facet normal 1.4796497360693145e-13 -1.0 7.095749234617337e-13
  outer loop
    vertex 1.850420128361188 1.5215316110747859 2.0140088762180137
    vertex 0.8504201283631077 1.521531611073954 1.253210985457445
    vertex 1.8504201283611477 1.5215316110733246 -1.5391151464427821e-12
  endloop
endfacet
facet normal -0.7165637248844318 0.2159512484142404 0.6632506965605688
  outer loop
    vertex -3.896596820194429 1.5215316110735673 1.6930626034806286
    vertex -3.3167017326756354 9.962377589545213e-13 2.8149738788509473
    vertex -2.858156819638284 1.5215316110741794 2.8149738788498633
  endloop
endfacet
facet normal -0.7165637248844318 0.2159512484142404 0.6632506965605688
  outer loop
    vertex -3.3167017326756354 9.962377589545213e-13 2.8149738788509473
    vertex -3.896596820194429 1.5215316110735673 1.6930626034806286
    vertex -4.355141733231873 3.39298367180163e-13 1.6930626034817122
  endloop
endfacet
facet normal -1.9834134334929633e-13 1.0 -6.3415991491532e-13
  outer loop
    vertex -1.821907127760618 4.959987950551507 2.814973878847238
    vertex -2.8603471283074273 4.9599879505507065 1.6930626034779572
    vertex -3.860347128306316 4.959987950550531 2.014008876215802
  endloop
endfacet
facet normal -1.9834134334929633e-13 1.0 -6.3415991491532e-13
  outer loop
    vertex -3.860347128306316 4.959987950550531 2.014008876215802
    vertex -3.860347128306911 4.9599879505493005 -4.097569217265118e-12
    vertex -3.860347128306891 4.959987950550014 0.9999999999963103
  endloop
endfacet
facet normal -1.9834134334929633e-13 1.0 -6.3415991491532e-13
  outer loop
    vertex -3.860347128306911 4.9599879505493005 -4.097569217265118e-12
    vertex -3.860347128306316 4.959987950550531 2.014008876215802
    vertex -2.860347128307277 4.959987950549476 -4.094681571586988e-12
  endloop
endfacet
facet normal -1.9834134334929633e-13 1.0 -6.3415991491532e-13
  outer loop
    vertex -2.860347128307277 4.959987950549476 -4.094681571586988e-12
    vertex -3.860347128306316 4.959987950550531 2.014008876215802
    vertex -2.8603471283074273 4.9599879505507065 1.6930626034779572
  endloop
endfacet
facet normal 0.3854832897616945 -0.11617333500905878 0.9153722682861737
  outer loop
    vertex 0.8504201283631077 1.521531611073954 1.253210985457445
    vertex -2.858156819638284 1.5215316110741794 2.8149738788498633
    vertex -3.3167017326756354 9.962377589545213e-13 2.8149738788509473
  endloop
endfacet
facet normal -1.3947176746854827e-13 1.0 -6.740121376496504e-13
  outer loop
    vertex 6.35972237535707 9.58936265583314 2.01400887621273
    vertex 5.359722375354462 9.589362655832469 1.2532109854518032
    vertex -0.8071134836326811 9.58936265583343 4.014008876212755
  endloop
endfacet
facet normal -1.3947176746854827e-13 1.0 -6.740121376496504e-13
  outer loop
    vertex 5.359722375354462 9.589362655832469 1.2532109854518032
    vertex 6.35972237535707 9.58936265583314 2.01400887621273
    vertex 5.359722375355363 9.58936265583162 -6.906526550665149e-12
  endloop
endfacet
facet normal -1.3947176746854827e-13 1.0 -6.740121376496504e-13
  outer loop
    vertex 5.359722375355363 9.58936265583162 -6.906526550665149e-12
    vertex 6.35972237535707 9.58936265583314 2.01400887621273
    vertex 6.359722375357122 9.589362655831772 -6.903638904987019e-12
  endloop
endfacet
facet normal 0.31677135104826815 -0.17705102612297283 0.9318309102534951
  outer loop
    vertex 3.523031215972348 6.303241401666456 1.253210985454186
    vertex -1.821907127760618 4.959987950551507 2.814973878847238
    vertex 2.7486242151420957 4.917708895670587 1.2532109854549824
  endloop
endfacet
facet normal 0.02395707641658524 0.9987846743493167 0.043072413149244204
  outer loop
    vertex 2.7486242151420957 4.917708895670587 1.2532109854549824
    vertex -1.821907127760618 4.959987950551507 2.814973878847238
    vertex -2.2150126370998855 4.9177088956714785 4.014008876215818
  endloop
endfacet
facet normal -1.7605361612994783e-13 1.0 -7.06403988472107e-13
  outer loop
    vertex 3.748624215140453 4.917708895671213 2.0140088762156783
    vertex 2.7486242151420957 4.917708895670587 1.2532109854549824
    vertex -2.2150126370998855 4.9177088956714785 4.014008876215818
  endloop
endfacet
facet normal -1.7605361612994783e-13 1.0 -7.06403988472107e-13
  outer loop
    vertex 2.7486242151420957 4.917708895670587 1.2532109854549824
    vertex 3.748624215140453 4.917708895671213 2.0140088762156783
    vertex 2.7486242151423497 4.917708895669622 -3.912037982445326e-12
  endloop
endfacet
facet normal -1.7605361612994783e-13 1.0 -7.06403988472107e-13
  outer loop
    vertex 2.7486242151423497 4.917708895669622 -3.912037982445326e-12
    vertex 3.748624215140453 4.917708895671213 2.0140088762156783
    vertex 3.7486242151405973 4.917708895669798 -3.955352667617262e-12
  endloop
endfacet
facet normal 0.00536664129481957 0.999845786628651 0.016721307429355382
  outer loop
    vertex -1.5343855721423438 7.176147633599018 4.0140088762141914
    vertex -2.1797200633489617 7.218426688477646 1.693062603476366
    vertex -3.1797200633492366 7.21842668847777 2.0140088762141644
  endloop
endfacet
facet normal -0.005366641294819598 -0.9998457866286513 -0.016721307429334212
  outer loop
    vertex -1.8229371869132116 6.218683291906179 4.014008876214881
    vertex -3.4682716781188105 6.260962346784583 2.014008876214877
    vertex -2.4682716781191827 6.260962346784436 1.693062603477055
  endloop
endfacet
facet normal 8.276712648581862e-14 -1.0 6.848650664104314e-13
  outer loop
    vertex -3.468271678118574 6.260962346783284 -5.069261987955542e-12
    vertex -2.4682716781191827 6.260962346784436 1.693062603477055
    vertex -3.4682716781188105 6.260962346784583 2.014008876214877
  endloop
endfacet
facet normal 8.276712648581862e-14 -1.0 6.848650664104314e-13
  outer loop
    vertex -2.4682716781191827 6.260962346784436 1.693062603477055
    vertex -3.468271678118574 6.260962346783284 -5.069261987955542e-12
    vertex -2.4682716781193097 6.260962346783252 -5.054101848145365e-12
  endloop
endfacet
facet normal 0.005366641294916687 0.9998457866286424 0.016721307429835564
  outer loop
    vertex -0.8071134836326811 9.58936265583343 4.014008876212755
    vertex -1.4524479748389294 9.631641710713211 1.6930626034747904
    vertex -2.4524479748393864 9.631641710713108 2.014008876212208
  endloop
endfacet
facet normal 1.511291092271115e-13 -1.0 6.29801609577801e-13
  outer loop
    vertex -2.7409995896098325 8.674177369019336 -6.494315130112227e-12
    vertex -1.7409995896130255 8.674177369020603 1.6930626034755025
    vertex -2.7409995896109933 8.67417736902038 2.0140088762130124
  endloop
endfacet
facet normal 1.511291092271115e-13 -1.0 6.29801609577801e-13
  outer loop
    vertex -1.7409995896130255 8.674177369020603 1.6930626034755025
    vertex -2.7409995896098325 8.674177369019336 -6.494315130112227e-12
    vertex -1.7409995896124133 8.674177369019374 -6.468326319009066e-12
  endloop
endfacet
facet normal 0.010175911859626083 -0.9998587659023436 -0.013375315550207387
  outer loop
    vertex 7.322629995343101 11.312151585086186 2.0140088762114807
    vertex 0.06696498595711305 11.227593475324497 2.8149738788427143
    vertex 6.32262999534308 11.312151585085493 1.253210985450554
  endloop
endfacet
facet normal 0.028110421330350455 -0.9992661391957526 -0.026018979023884295
  outer loop
    vertex -0.7025595890719424 8.67417736902138 2.814973878844772
    vertex -1.095665098401233 8.631898314140198 4.014008876213468
    vertex -1.7409995896130255 8.674177369020603 1.6930626034755025
  endloop
endfacet
facet normal 2.2393198406690748e-13 -1.0 6.950070986271221e-13
  outer loop
    vertex 6.322629995343612 11.312151585084598 -8.167705800588009e-12
    vertex 7.322629995343101 11.312151585086186 2.0140088762114807
    vertex 6.32262999534308 11.312151585085493 1.253210985450554
  endloop
endfacet
facet normal 2.2393198406690748e-13 -1.0 6.950070986271221e-13
  outer loop
    vertex 7.322629995343101 11.312151585086186 2.0140088762114807
    vertex 6.322629995343612 11.312151585084598 -8.167705800588009e-12
    vertex 7.3226299953443545 11.312151585084887 -8.153267572197364e-12
  endloop
endfacet
facet normal -8.798517470155719e-14 1.0 -7.008957275058419e-13
  outer loop
    vertex -2.1797200633489617 7.218426688477646 1.693062603476366
    vertex -3.179720063348723 7.218426688476308 -5.619358489639125e-12
    vertex -3.1797200633492366 7.21842668847777 2.0140088762141644
  endloop
endfacet
facet normal -8.798517470155719e-14 1.0 -7.008957275058419e-13
  outer loop
    vertex -3.179720063348723 7.218426688476308 -5.619358489639125e-12
    vertex -2.1797200633489617 7.218426688477646 1.693062603476366
    vertex -2.1797200633489964 7.218426688476485 -5.6164708439609966e-12
  endloop
endfacet
facet normal 0.018482336905137096 0.998976482156045 0.04128427450807739
  outer loop
    vertex 5.359722375354462 9.589362655832469 1.2532109854518032
    vertex -0.41400797430560826 9.63164171071415 2.8149738788441057
    vertex -0.8071134836326811 9.58936265583343 4.014008876212755
  endloop
endfacet
facet normal 5.978550987607743e-14 -1.0 6.621664347112841e-13
  outer loop
    vertex 4.871834365404492 8.716456423901985 -6.262581564442371e-12
    vertex 5.871834365402133 8.716456423903368 2.0140088762133517
    vertex 4.871834365404331 8.71645642390288 1.253210985452436
  endloop
endfacet
facet normal 5.978550987607743e-14 -1.0 6.621664347112841e-13
  outer loop
    vertex 5.871834365402133 8.716456423903368 2.0140088762133517
    vertex 4.871834365404492 8.716456423901985 -6.262581564442371e-12
    vertex 5.871834365402093 8.716456423901954 -6.271244501476758e-12
  endloop
endfacet
facet normal 0.26791548369478 -0.08074185332519132 0.9600531478612032
  outer loop
    vertex 6.35972237535707 9.58936265583314 2.01400887621273
    vertex -1.0701817691003048 8.716456423903692 4.014008876213406
    vertex -1.095665098401233 8.631898314140198 4.014008876213468
  endloop
endfacet
facet normal 0.26791548369478 -0.08074185332519132 0.9600531478612032
  outer loop
    vertex -1.0701817691003048 8.716456423903692 4.014008876213406
    vertex 6.35972237535707 9.58936265583314 2.01400887621273
    vertex -0.8071134836326811 9.58936265583343 4.014008876212755
  endloop
endfacet
facet normal -1.4785395130446845e-13 1.0 -6.865018625932385e-13
  outer loop
    vertex -2.4524479748393864 9.631641710713108 2.014008876212208
    vertex -1.4524479748390564 9.631641710711959 -6.903638904987019e-12
    vertex -2.452447974840905 9.631641710711762 -7.114437039490439e-12
  endloop
endfacet
facet normal -1.4785395130446845e-13 1.0 -6.865018625932385e-13
  outer loop
    vertex -1.4524479748390564 9.631641710711959 -6.903638904987019e-12
    vertex -2.4524479748393864 9.631641710713108 2.014008876212208
    vertex -1.4524479748389294 9.631641710713211 1.6930626034747904
  endloop
endfacet
facet normal 0.020956233783805123 0.998893919914835 0.04209243426999348
  outer loop
    vertex 4.010919225923589 7.1761476335981 1.2532109854535531
    vertex -1.1412800628067696 7.218426688478607 2.8149738788456466
    vertex -1.5343855721423438 7.176147633599018 4.0140088762141914
  endloop
endfacet
facet normal 0.005542969727689067 -0.9999580959181265 -0.0072857322482525
  outer loop
    vertex 5.871834365402133 8.716456423903368 2.0140088762133517
    vertex -0.7025595890719424 8.67417736902138 2.814973878844772
    vertex 4.871834365404331 8.71645642390288 1.253210985452436
  endloop
endfacet
facet normal 0.012076036643143781 -0.9999197438565132 0.0038308203975769843
  outer loop
    vertex 7.322629995343101 11.312151585086186 2.0140088762114807
    vertex -0.3133988587119619 11.227593475323815 4.014008876211068
    vertex 0.06696498595711305 11.227593475324497 2.8149738788427143
  endloop
endfacet
facet normal 0.8729062319315234 -0.48788800995219134 3.647847884747463e-13
  outer loop
    vertex 7.322629995343101 11.312151585086186 2.0140088762114807
    vertex 7.810518005296242 12.185057817016576 -8.80948505255219e-12
    vertex 7.81051800529619 12.185057817017922 2.0140088762108594
  endloop
endfacet
facet normal 0.8729062319315234 -0.48788800995219134 3.647847884747463e-13
  outer loop
    vertex 7.810518005296242 12.185057817016576 -8.80948505255219e-12
    vertex 7.322629995343101 11.312151585086186 2.0140088762114807
    vertex 7.3226299953443545 11.312151585084887 -8.153267572197364e-12
  endloop
endfacet
facet normal -0.005366641295057712 -0.9998457866286387 -0.016721307430010487
  outer loop
    vertex -1.095665098401233 8.631898314140198 4.014008876213468
    vertex -2.7409995896109933 8.67417736902038 2.0140088762130124
    vertex -1.7409995896130255 8.674177369020603 1.6930626034755025
  endloop
endfacet
facet normal -0.7499260556701818 0.22600567446715802 0.6217172557808
  outer loop
    vertex -3.860347128306316 4.959987950550531 2.014008876215802
    vertex -2.478080922570928 4.044802663739154 4.014008876216446
    vertex -2.2150126370998855 4.9177088956714785 4.014008876215818
  endloop
endfacet
facet normal -0.7499260556701818 0.22600567446715802 0.6217172557808
  outer loop
    vertex -2.478080922570928 4.044802663739154 4.014008876216446
    vertex -3.860347128306316 4.959987950550531 2.014008876215802
    vertex -2.5035642518720467 3.9602445539787547 4.014008876216507
  endloop
endfacet
facet normal -0.7499260556701818 0.22600567446715802 0.6217172557808
  outer loop
    vertex -2.5035642518720467 3.9602445539787547 4.014008876216507
    vertex -3.860347128306316 4.959987950550531 2.014008876215802
    vertex -4.136157078425377 4.044802663737361 2.014008876216484
  endloop
endfacet
facet normal -0.7499260556701818 0.22600567446715802 0.6217172557808
  outer loop
    vertex -4.148898743076814 4.002523608857599 2.014008876216514
    vertex -2.5035642518720467 3.9602445539787547 4.014008876216507
    vertex -4.136157078425377 4.044802663737361 2.014008876216484
  endloop
endfacet
facet normal 0.23315578878645835 -0.13031630390358248 0.9636680129029259
  outer loop
    vertex 7.5048742172832 13.427367224620017 1.2532109854490088
    vertex 0.3555166007246542 12.185057817017128 2.814973878842048
    vertex 6.8105180052978325 12.185057817017226 1.2532109854499096
  endloop
endfacet
facet normal -0.7499260556698184 0.22600567446653658 0.6217172557814641
  outer loop
    vertex -1.0701817691003048 8.716456423903692 4.014008876213406
    vertex -1.095665098401233 8.631898314140198 4.014008876213468
    vertex -0.8071134836326811 9.58936265583343 4.014008876212755
  endloop
endfacet
facet normal -0.7499260556698184 0.22600567446653658 0.6217172557814641
  outer loop
    vertex -2.7409995896109933 8.67417736902038 2.0140088762130124
    vertex -0.8071134836326811 9.58936265583343 4.014008876212755
    vertex -1.095665098401233 8.631898314140198 4.014008876213468
  endloop
endfacet
facet normal -0.7499260556698184 0.22600567446653658 0.6217172557814641
  outer loop
    vertex -2.4524479748393864 9.631641710713108 2.014008876212208
    vertex -0.8071134836326811 9.58936265583343 4.014008876212755
    vertex -2.7409995896109933 8.67417736902038 2.0140088762130124
  endloop
endfacet
facet normal 0.300197884788111 -0.09047082030447427 0.9495768850610149
  outer loop
    vertex 3.523031215972348 6.303241401666456 1.253210985454186
    vertex -1.4298316775740336 6.260962346785534 2.814973878846313
    vertex -1.821907127760618 4.959987950551507 2.814973878847238
  endloop
endfacet
facet normal 0.8729062319316757 -0.4878880099519189 4.893869348661501e-13
  outer loop
    vertex 3.2607362051881554 4.044802663737138 -3.3114076813944848e-12
    vertex 3.748624215140453 4.917708895671213 2.0140088762156783
    vertex 3.2607362051885658 4.0448026637385075 2.0140088762163115
  endloop
endfacet
facet normal 0.8729062319316757 -0.4878880099519189 4.893869348661501e-13
  outer loop
    vertex 3.748624215140453 4.917708895671213 2.0140088762156783
    vertex 3.2607362051881554 4.044802663737138 -3.3114076813944848e-12
    vertex 3.7486242151405973 4.917708895669798 -3.955352667617262e-12
  endloop
endfacet
facet normal 0.8729062319316757 -0.4878880099519189 4.893869348661501e-13
  outer loop
    vertex 3.7486242151405973 4.917708895669798 -3.955352667617262e-12
    vertex 3.2607362051881554 4.044802663737138 -3.3114076813944848e-12
    vertex 3.504680210165858 4.4812557797034565 -3.639155465862131e-12
  endloop
endfacet
facet normal 0.3355973151462286 -0.10113916830101742 0.9365603614834558
  outer loop
    vertex 2.260736205190208 4.044802663738137 1.2532109854556157
    vertex -2.1104587425251067 4.0025236088586436 2.8149738788479155
    vertex -2.569605204869637 2.4789959527669034 2.8149738788489893
  endloop
endfacet
facet normal -7.128464485362446e-13 -1.0 -2.2661011424296257e-12
  outer loop
    vertex 7.5048742172832 13.427367224620017 1.2532109854490088
    vertex 5.833109210672227 13.427367224619937 1.657688132726866
    vertex 0.7299121473723568 13.427367224620168 2.814973878841154
  endloop
endfacet
facet normal -7.128464485362446e-13 -1.0 -2.2661011424296257e-12
  outer loop
    vertex 5.833109210672227 13.427367224619937 1.657688132726866
    vertex 7.5048742172832 13.427367224620017 1.2532109854490088
    vertex 6.53291781809111 13.427367224620127 1.4883721175873315
  endloop
endfacet
facet normal -0.0053666412947796565 -0.9998457866286479 -0.01672130742955457
  outer loop
    vertex -2.5035642518720467 3.9602445539787547 4.014008876216507
    vertex -4.148898743076814 4.002523608857599 2.014008876216514
    vertex -3.148898743079219 4.002523608857937 1.6930626034786462
  endloop
endfacet
facet normal 0.002222491063939157 -0.9994018411962192 -0.03451116264453667
  outer loop
    vertex 5.871834365402133 8.716456423903368 2.0140088762133517
    vertex -1.095665098401233 8.631898314140198 4.014008876213468
    vertex -0.7025595890719424 8.67417736902138 2.814973878844772
  endloop
endfacet
facet normal 4.057587599248923e-13 -1.0 6.896068045926129e-13
  outer loop
    vertex -4.1488987430763 4.002523608856369 -3.1424804092239354e-12
    vertex -3.148898743079219 4.002523608857937 1.6930626034786462
    vertex -4.148898743076814 4.002523608857599 2.014008876216514
  endloop
endfacet
facet normal 4.057587599248923e-13 -1.0 6.896068045926129e-13
  outer loop
    vertex -3.148898743079219 4.002523608857937 1.6930626034786462
    vertex -4.1488987430763 4.002523608856369 -3.1424804092239354e-12
    vertex -3.1488987430787914 4.002523608856637 -3.162693928970839e-12
  endloop
endfacet
facet normal -0.028110421330096547 0.9992661391957681 0.02601897902355694
  outer loop
    vertex -0.41400797430560826 9.63164171071415 2.8149738788441057
    vertex -1.4524479748389294 9.631641710713211 1.6930626034747904
    vertex -0.8071134836326811 9.58936265583343 4.014008876212755
  endloop
endfacet
facet normal 0.22411577859458232 -0.06754190938658283 0.9722192182123118
  outer loop
    vertex 0.7299121473723568 13.427367224620168 2.814973878841154
    vertex 0.3555166007246542 12.185057817017128 2.814973878842048
    vertex 7.5048742172832 13.427367224620017 1.2532109854490088
  endloop
endfacet
facet normal 0.25229895892763193 -0.14101587602514012 0.9573190471482824
  outer loop
    vertex 7.81051800529619 12.185057817017922 2.0140088762108594
    vertex -0.3133988587119619 11.227593475323815 4.014008876211068
    vertex 7.322629995343101 11.312151585086186 2.0140088762114807
  endloop
endfacet
facet normal -1.209032873816921e-13 1.0 -6.524911125527798e-13
  outer loop
    vertex 5.0109192259222235 7.176147633598565 2.014008876214468
    vertex 4.010919225923589 7.1761476335981 1.2532109854535531
    vertex -1.5343855721423438 7.176147633599018 4.0140088762141914
  endloop
endfacet
facet normal -1.209032873816921e-13 1.0 -6.524911125527798e-13
  outer loop
    vertex 4.010919225923589 7.1761476335981 1.2532109854535531
    vertex 5.0109192259222235 7.176147633598565 2.014008876214468
    vertex 4.0109192259253215 7.176147633597135 -5.1804363465635105e-12
  endloop
endfacet
facet normal -1.209032873816921e-13 1.0 -6.524911125527798e-13
  outer loop
    vertex 4.0109192259253215 7.176147633597135 -5.1804363465635105e-12
    vertex 5.0109192259222235 7.176147633598565 2.014008876214468
    vertex 5.010919225923384 7.176147633597219 -5.165998118172865e-12
  endloop
endfacet
facet normal 0.02811042132886706 -0.99926613919582 -0.026018979022891416
  outer loop
    vertex -2.1104587425251067 4.0025236088586436 2.8149738788479155
    vertex -2.5035642518720467 3.9602445539787547 4.014008876216507
    vertex -3.148898743079219 4.002523608857937 1.6930626034786462
  endloop
endfacet
facet normal -0.012267011546941839 0.9994372795280873 0.03121930039579972
  outer loop
    vertex -1.821907127760618 4.959987950551507 2.814973878847238
    vertex -3.860347128306316 4.959987950550531 2.014008876215802
    vertex -2.2150126370998855 4.9177088956714785 4.014008876215818
  endloop
endfacet
facet normal -0.7499260556702397 0.22600567446675893 0.621717255780875
  outer loop
    vertex -3.1797200633492366 7.21842668847777 2.0140088762141644
    vertex -1.79745385761237 6.3032414016676634 4.01400887621482
    vertex -1.5343855721423438 7.176147633599018 4.0140088762141914
  endloop
endfacet
facet normal -0.7499260556702397 0.22600567446675893 0.621717255780875
  outer loop
    vertex -1.79745385761237 6.3032414016676634 4.01400887621482
    vertex -3.1797200633492366 7.21842668847777 2.0140088762141644
    vertex -1.8229371869132116 6.218683291906179 4.014008876214881
  endloop
endfacet
facet normal -0.7499260556702397 0.22600567446675893 0.621717255780875
  outer loop
    vertex -1.8229371869132116 6.218683291906179 4.014008876214881
    vertex -3.1797200633492366 7.21842668847777 2.0140088762141644
    vertex -3.4682716781188105 6.260962346784583 2.014008876214877
  endloop
endfacet
facet normal 0.2466388525946714 -0.0743297019853437 0.9662527473666268
  outer loop
    vertex 7.81051800529619 12.185057817017922 2.0140088762108594
    vertex -0.024847243946730848 12.18505781701797 4.014008876210402
    vertex -0.3133988587119619 11.227593475323815 4.014008876211068
  endloop
endfacet
facet normal 0.2743608750393782 -0.15334680454269897 0.9493212668976556
  outer loop
    vertex 5.871834365402133 8.716456423903368 2.0140088762133517
    vertex 6.35972237535707 9.58936265583314 2.01400887621273
    vertex -1.095665098401233 8.631898314140198 4.014008876213468
  endloop
endfacet
facet normal 0.2743608750393782 -0.15334680454269897 0.9493212668976556
  outer loop
    vertex 6.35972237535707 9.58936265583314 2.01400887621273
    vertex 5.871834365402133 8.716456423903368 2.0140088762133517
    vertex 5.945017566895954 8.847392358692927 2.0140088762132677
  endloop
endfacet
facet normal 0.02811042132893442 -0.9992661391958231 -0.026018979022704166
  outer loop
    vertex -1.4298316775740336 6.260962346785534 2.814973878846313
    vertex -1.8229371869132116 6.218683291906179 4.014008876214881
    vertex -2.4682716781191827 6.260962346784436 1.693062603477055
  endloop
endfacet
facet normal -6.261657858885147e-14 -1.0 3.9846524040948567e-13
  outer loop
    vertex -0.9714750145733781 11.227593475322816 -8.421818620263366e-12
    vertex -0.9714750145740827 11.227593475323976 1.6930626034734568
    vertex -1.9714750145722728 11.2275934753228 -8.366953352378913e-12
  endloop
endfacet
facet normal -6.261657858885147e-14 -1.0 3.9846524040948567e-13
  outer loop
    vertex -1.9714750145722728 11.2275934753228 -8.366953352378913e-12
    vertex -0.3133988587119619 11.227593475323815 4.014008876211068
    vertex -1.9714750145745426 11.227593475324262 2.0140088762110246
  endloop
endfacet
facet normal -6.261657858885147e-14 -1.0 3.9846524040948567e-13
  outer loop
    vertex -0.3133988587119619 11.227593475323815 4.014008876211068
    vertex -1.9714750145722728 11.2275934753228 -8.366953352378913e-12
    vertex -0.9714750145740827 11.227593475323976 1.6930626034734568
  endloop
endfacet
facet normal -6.261657858885147e-14 -1.0 3.9846524040948567e-13
  outer loop
    vertex -0.3133988587119619 11.227593475323815 4.014008876211068
    vertex -0.9714750145740827 11.227593475323976 1.6930626034734568
    vertex 0.06696498595711305 11.227593475324497 2.8149738788427143
  endloop
endfacet
facet normal 0.31651171938268785 -0.09538733062350725 0.9437804769383272
  outer loop
    vertex 3.748624215140453 4.917708895671213 2.0140088762156783
    vertex -2.478080922570928 4.044802663739154 4.014008876216446
    vertex -2.5035642518720467 3.9602445539787547 4.014008876216507
  endloop
endfacet
facet normal 0.31651171938268785 -0.09538733062350725 0.9437804769383272
  outer loop
    vertex -2.478080922570928 4.044802663739154 4.014008876216446
    vertex 3.748624215140453 4.917708895671213 2.0140088762156783
    vertex -2.2150126370998855 4.9177088956714785 4.014008876215818
  endloop
endfacet
facet normal -0.02811042132893028 0.9992661391958226 0.026018979022721406
  outer loop
    vertex -1.1412800628067696 7.218426688478607 2.8149738788456466
    vertex -2.1797200633489617 7.218426688477646 1.693062603476366
    vertex -1.5343855721423438 7.176147633599018 4.0140088762141914
  endloop
endfacet
facet normal 0.0065810424682794305 -0.9999409303455339 -0.00865018495402989
  outer loop
    vertex 3.2607362051885658 4.0448026637385075 2.0140088762163115
    vertex -2.1104587425251067 4.0025236088586436 2.8149738788479155
    vertex 2.260736205190208 4.044802663738137 1.2532109854556157
  endloop
endfacet
facet normal 0.23100846354321516 -0.06961916206938197 0.9704577590210509
  outer loop
    vertex 0.6380999174769217 14.384831566313737 4.014008876208817
    vertex 0.34954830270910336 13.427367224620966 4.014008876209542
    vertex 9.040023761618174 14.384831566311462 2.0140088762087447
  endloop
endfacet
facet normal 0.32472446202646277 -0.1814962086013219 0.92823119427488
  outer loop
    vertex 3.748624215140453 4.917708895671213 2.0140088762156783
    vertex -2.5035642518720467 3.9602445539787547 4.014008876216507
    vertex 3.2607362051885658 4.0448026637385075 2.0140088762163115
  endloop
endfacet
facet normal -0.7499260556698997 0.22600567446521647 0.6217172557818461
  outer loop
    vertex -1.6829233998029356 12.185057817016501 2.014008876210335
    vertex -0.3133988587119619 11.227593475323815 4.014008876211068
    vertex -0.024847243946730848 12.18505781701797 4.014008876210402
  endloop
endfacet
facet normal -0.7499260556698997 0.22600567446521647 0.6217172557818461
  outer loop
    vertex -0.3133988587119619 11.227593475323815 4.014008876211068
    vertex -1.6829233998029356 12.185057817016501 2.014008876210335
    vertex -1.9714750145745426 11.227593475324262 2.0140088762110246
  endloop
endfacet
facet normal 0.00274595445526322 -0.9994064459851985 -0.03433970671634316
  outer loop
    vertex 3.2607362051885658 4.0448026637385075 2.0140088762163115
    vertex -2.5035642518720467 3.9602445539787547 4.014008876216507
    vertex -2.1104587425251067 4.0025236088586436 2.8149738788479155
  endloop
endfacet
facet normal 0.23609785284935553 -0.13196069333203062 0.9627274688587908
  outer loop
    vertex 9.040023761618174 14.384831566311462 2.0140088762087447
    vertex 0.34954830270910336 13.427367224620966 4.014008876209542
    vertex 8.50487421728239 13.42736722462085 2.014008876209855
  endloop
endfacet
facet normal 0.2574123916639979 -0.14387389494032224 0.9555308278504266
  outer loop
    vertex 6.32262999534308 11.312151585085493 1.253210985450554
    vertex -0.41400797430560826 9.63164171071415 2.8149738788441057
    vertex 5.359722375354462 9.589362655832469 1.2532109854518032
  endloop
endfacet
facet normal 0.2425033435367505 -0.07308338108944494 0.9673938948443037
  outer loop
    vertex 6.32262999534308 11.312151585085493 1.253210985450554
    vertex 0.06696498595711305 11.227593475324497 2.8149738788427143
    vertex -0.41400797430560826 9.63164171071415 2.8149738788441057
  endloop
endfacet
facet normal -1.5648593532092927e-13 1.0 -6.975898906683001e-13
  outer loop
    vertex -0.024847243946730848 12.18505781701797 4.014008876210402
    vertex -1.6829233998026065 12.18505781701504 -9.194985750582418e-12
    vertex -1.6829233998029356 12.185057817016501 2.014008876210335
  endloop
endfacet
facet normal -1.5648593532092927e-13 1.0 -6.975898906683001e-13
  outer loop
    vertex -1.6829233998026065 12.18505781701504 -9.194985750582418e-12
    vertex -0.024847243946730848 12.18505781701797 4.014008876210402
    vertex -0.6829233998019213 12.185057817016308 1.6930626034727674
  endloop
endfacet
facet normal -1.5648593532092927e-13 1.0 -6.975898906683001e-13
  outer loop
    vertex -0.6829233998019213 12.185057817016308 1.6930626034727674
    vertex -0.024847243946730848 12.18505781701797 4.014008876210402
    vertex 0.3555166007246542 12.185057817017128 2.814973878842048
  endloop
endfacet
facet normal -1.5648593532092927e-13 1.0 -6.975898906683001e-13
  outer loop
    vertex 0.3555166007246542 12.185057817017128 2.814973878842048
    vertex -0.024847243946730848 12.18505781701797 4.014008876210402
    vertex 7.81051800529619 12.185057817017922 2.0140088762108594
  endloop
endfacet
facet normal -1.5648593532092927e-13 1.0 -6.975898906683001e-13
  outer loop
    vertex 0.3555166007246542 12.185057817017128 2.814973878842048
    vertex 7.81051800529619 12.185057817017922 2.0140088762108594
    vertex 6.8105180052978325 12.185057817017226 1.2532109854499096
  endloop
endfacet
facet normal -1.5648593532092927e-13 1.0 -6.975898906683001e-13
  outer loop
    vertex 6.8105180052978325 12.185057817017226 1.2532109854499096
    vertex 7.81051800529619 12.185057817017922 2.0140088762108594
    vertex 6.810518005297994 12.1850578170164 -8.81237269823032e-12
  endloop
endfacet
facet normal -1.5648593532092927e-13 1.0 -6.975898906683001e-13
  outer loop
    vertex 6.810518005297994 12.1850578170164 -8.81237269823032e-12
    vertex 7.81051800529619 12.185057817017922 2.0140088762108594
    vertex 7.810518005296242 12.185057817016576 -8.80948505255219e-12
  endloop
endfacet
facet normal -1.5648593532092927e-13 1.0 -6.975898906683001e-13
  outer loop
    vertex -0.682923399801956 12.185057817015078 -9.157446356766741e-12
    vertex -1.6829233998026065 12.18505781701504 -9.194985750582418e-12
    vertex -0.6829233998019213 12.185057817016308 1.6930626034727674
  endloop
endfacet
facet normal 4.618527782441964e-14 -1.0 6.807359561673072e-13
  outer loop
    vertex 2.2607362051905544 4.044802663737266 -3.279643578935065e-12
    vertex 3.2607362051885658 4.0448026637385075 2.0140088762163115
    vertex 2.260736205190208 4.044802663738137 1.2532109854556157
  endloop
endfacet
facet normal 4.618527782441964e-14 -1.0 6.807359561673072e-13
  outer loop
    vertex 3.2607362051885658 4.0448026637385075 2.0140088762163115
    vertex 2.2607362051905544 4.044802663737266 -3.279643578935065e-12
    vertex 3.2607362051881554 4.044802663737138 -3.3114076813944848e-12
  endloop
endfacet
facet normal 0.0024652526350240965 -0.9994040144213238 -0.03443164951012356
  outer loop
    vertex 4.523031215971352 6.303241401667314 2.014008876215101
    vertex -1.8229371869132116 6.218683291906179 4.014008876214881
    vertex -1.4298316775740336 6.260962346785534 2.814973878846313
  endloop
endfacet
facet normal 2.1790902415831573e-13 -1.0 6.830030889915187e-13
  outer loop
    vertex 4.523031215971127 6.303241401665923 -4.532881803243071e-12
    vertex 3.523031215972348 6.303241401666456 1.253210985454186
    vertex 3.5230312159720474 6.303241401665607 -4.5704211970587494e-12
  endloop
endfacet
facet normal 2.1790902415831573e-13 -1.0 6.830030889915187e-13
  outer loop
    vertex 3.523031215972348 6.303241401666456 1.253210985454186
    vertex 4.523031215971127 6.303241401665923 -4.532881803243071e-12
    vertex 4.523031215971352 6.303241401667314 2.014008876215101
  endloop
endfacet
facet normal 0.006034686440117337 -0.9999503313425964 -0.007932049382182551
  outer loop
    vertex 4.523031215971352 6.303241401667314 2.014008876215101
    vertex -1.4298316775740336 6.260962346785534 2.814973878846313
    vertex 3.523031215972348 6.303241401666456 1.253210985454186
  endloop
endfacet
facet normal 0.29109795877134625 -0.08772837003048928 0.952662433126734
  outer loop
    vertex 5.0109192259222235 7.176147633598565 2.014008876214468
    vertex -1.79745385761237 6.3032414016676634 4.01400887621482
    vertex -1.8229371869132116 6.218683291906179 4.014008876214881
  endloop
endfacet
facet normal 0.29109795877134625 -0.08772837003048928 0.952662433126734
  outer loop
    vertex -1.79745385761237 6.3032414016676634 4.01400887621482
    vertex 5.0109192259222235 7.176147633598565 2.014008876214468
    vertex -1.5343855721423438 7.176147633599018 4.0140088762141914
  endloop
endfacet
facet normal 0.29839683515525894 -0.16678107310249546 0.9397570975651661
  outer loop
    vertex 5.0109192259222235 7.176147633598565 2.014008876214468
    vertex -1.8229371869132116 6.218683291906179 4.014008876214881
    vertex 4.523031215971352 6.303241401667314 2.014008876215101
  endloop
endfacet
facet normal 0.2694593332950802 -0.08120712422447415 0.9595817165178596
  outer loop
    vertex 4.871834365404331 8.71645642390288 1.253210985452436
    vertex -0.7025595890719424 8.67417736902138 2.814973878844772
    vertex -1.1412800628067696 7.218426688478607 2.8149738788456466
  endloop
endfacet
facet normal 0.28518376565128234 -0.15939597496783975 0.9451259931739293
  outer loop
    vertex 4.871834365404331 8.71645642390288 1.253210985452436
    vertex -1.1412800628067696 7.218426688478607 2.8149738788456466
    vertex 4.010919225923589 7.1761476335981 1.2532109854535531
  endloop
endfacet
facet normal 1.4260814751311476e-13 -1.0 6.955468076562633e-13
  outer loop
    vertex -0.30852785314898634 13.427367224618072 -1.0132748684554826e-11
    vertex -1.3085278531496887 13.42736722461936 2.014008876209441
    vertex -1.308527853149729 13.427367224618013 -1.018183866108302e-11
  endloop
endfacet
facet normal 1.4260814751311476e-13 -1.0 6.955468076562633e-13
  outer loop
    vertex -1.3085278531496887 13.42736722461936 2.014008876209441
    vertex -0.30852785314898634 13.427367224618072 -1.0132748684554826e-11
    vertex -0.3085278531480276 13.427367224619301 1.6930626034718732
  endloop
endfacet
facet normal 1.4260814751311476e-13 -1.0 6.955468076562633e-13
  outer loop
    vertex -1.3085278531496887 13.42736722461936 2.014008876209441
    vertex -0.3085278531480276 13.427367224619301 1.6930626034718732
    vertex 0.34954830270910336 13.427367224620966 4.014008876209542
  endloop
endfacet
facet normal 1.4260814751311476e-13 -1.0 6.955468076562633e-13
  outer loop
    vertex 0.34954830270910336 13.427367224620966 4.014008876209542
    vertex -0.3085278531480276 13.427367224619301 1.6930626034718732
    vertex 0.7299121473723568 13.427367224620168 2.814973878841154
  endloop
endfacet
facet normal 1.4260814751311476e-13 -1.0 6.955468076562633e-13
  outer loop
    vertex 0.34954830270910336 13.427367224620966 4.014008876209542
    vertex 0.7299121473723568 13.427367224620168 2.814973878841154
    vertex 8.50487421728239 13.42736722462085 2.014008876209855
  endloop
endfacet
facet normal 1.4260814751311476e-13 -1.0 6.955468076562633e-13
  outer loop
    vertex 8.50487421728239 13.42736722462085 2.014008876209855
    vertex 0.7299121473723568 13.427367224620168 2.814973878841154
    vertex 5.833109210672227 13.427367224619937 1.657688132726866
  endloop
endfacet
facet normal 1.4260814751311476e-13 -1.0 6.955468076562633e-13
  outer loop
    vertex 8.50487421728239 13.42736722462085 2.014008876209855
    vertex 5.833109210672227 13.427367224619937 1.657688132726866
    vertex 6.53291781809111 13.427367224620127 1.4883721175873315
  endloop
endfacet
facet normal 1.4260814751311476e-13 -1.0 6.955468076562633e-13
  outer loop
    vertex 8.50487421728239 13.42736722462085 2.014008876209855
    vertex 6.53291781809111 13.427367224620127 1.4883721175873315
    vertex 7.5048742172832 13.427367224620017 1.2532109854490088
  endloop
endfacet
facet normal 1.4260814751311476e-13 -1.0 6.955468076562633e-13
  outer loop
    vertex 8.50487421728239 13.42736722462085 2.014008876209855
    vertex 7.5048742172832 13.427367224620017 1.2532109854490088
    vertex 7.504874217283455 13.427367224619237 -9.758798569237114e-12
  endloop
endfacet
facet normal 1.4260814751311476e-13 -1.0 6.955468076562633e-13
  outer loop
    vertex 8.50487421728239 13.42736722462085 2.014008876209855
    vertex 7.504874217283455 13.427367224619237 -9.758798569237114e-12
    vertex 8.504874217282257 13.427367224619365 -9.732809758133953e-12
  endloop
endfacet
facet normal 0.359768432566924 -0.20108311544510402 0.9111159397196549
  outer loop
    vertex 2.260736205190208 4.044802663738137 1.2532109854556157
    vertex -2.569605204869637 2.4789959527669034 2.8149738788489893
    vertex 1.3855696727020343 2.478995952766369 1.2532109854567508
  endloop
endfacet
facet normal 0.4219897406353863 -0.266168489621602 0.8666481373262362
  outer loop
    vertex 0.8504201283631077 1.521531611073954 1.253210985457445
    vertex -3.3167017326756354 9.962377589545213e-13 2.8149738788509473
    vertex -7.507878763135522e-14 9.023892744153272e-13 1.2000000000000044
  endloop
endfacet
facet normal -0.9574643416929315 0.2885516147702552 -3.0982348377320937e-13
  outer loop
    vertex -2.4682716781193097 6.260962346783252 -5.054101848145365e-12
    vertex -2.8603471283074273 4.9599879505507065 1.6930626034779572
    vertex -2.4682716781191827 6.260962346784436 1.693062603477055
  endloop
endfacet
facet normal -0.9574643416929315 0.2885516147702552 -3.0982348377320937e-13
  outer loop
    vertex -2.8603471283074273 4.9599879505507065 1.6930626034779572
    vertex -2.4682716781193097 6.260962346783252 -5.054101848145365e-12
    vertex -2.860347128307277 4.959987950549476 -4.094681571586988e-12
  endloop
endfacet
facet normal -0.9574643416929041 0.2885516147703456 -6.36940295342198e-13
  outer loop
    vertex -1.6829233998026065 12.18505781701504 -9.194985750582418e-12
    vertex -1.9714750145745426 11.227593475324262 2.0140088762110246
    vertex -1.6829233998029356 12.185057817016501 2.014008876210335
  endloop
endfacet
facet normal -0.9574643416929041 0.2885516147703456 -6.36940295342198e-13
  outer loop
    vertex -1.9714750145745426 11.227593475324262 2.0140088762110246
    vertex -1.6829233998026065 12.18505781701504 -9.194985750582418e-12
    vertex -1.9714750145722728 11.2275934753228 -8.366953352378913e-12
  endloop
endfacet
facet normal -0.7165637248851018 0.2159512484149408 0.6632506965596167
  outer loop
    vertex -3.148898743079219 4.002523608857937 1.6930626034786462
    vertex -2.569605204869637 2.4789959527669034 2.8149738788489893
    vertex -2.1104587425251067 4.0025236088586436 2.8149738788479155
  endloop
endfacet
facet normal -0.7165637248851018 0.2159512484149408 0.6632506965596167
  outer loop
    vertex -2.569605204869637 2.4789959527669034 2.8149738788489893
    vertex -3.148898743079219 4.002523608857937 1.6930626034786462
    vertex -3.608045205427722 2.4789959527661525 1.693062603479916
  endloop
endfacet
facet normal -0.9574643416927453 0.2885516147708726 -3.831552876512352e-13
  outer loop
    vertex -3.148898743079219 4.002523608857937 1.6930626034786462
    vertex -3.6080452054276644 2.4789959527646914 -1.8466494111635254e-12
    vertex -3.608045205427722 2.4789959527661525 1.693062603479916
  endloop
endfacet
facet normal -0.9574643416927453 0.2885516147708726 -3.831552876512352e-13
  outer loop
    vertex -3.6080452054276644 2.4789959527646914 -1.8466494111635254e-12
    vertex -3.148898743079219 4.002523608857937 1.6930626034786462
    vertex -3.1488987430787914 4.002523608856637 -3.162693928970839e-12
  endloop
endfacet
facet normal -0.7165637248873574 0.2159512484156221 0.6632506965569581
  outer loop
    vertex -2.4682716781191827 6.260962346784436 1.693062603477055
    vertex -1.821907127760618 4.959987950551507 2.814973878847238
    vertex -1.4298316775740336 6.260962346785534 2.814973878846313
  endloop
endfacet
facet normal -0.7165637248873574 0.2159512484156221 0.6632506965569581
  outer loop
    vertex -1.821907127760618 4.959987950551507 2.814973878847238
    vertex -2.4682716781191827 6.260962346784436 1.693062603477055
    vertex -2.8603471283074273 4.9599879505507065 1.6930626034779572
  endloop
endfacet
facet normal -0.9574643416923075 0.28855161477232544 -2.908625638967707e-13
  outer loop
    vertex -1.0199762383770135 14.384831566310556 -1.0812789241754217e-11
    vertex -1.3085278531496887 13.42736722461936 2.014008876209441
    vertex -1.0199762383776199 14.3848315663119 2.014008876208867
  endloop
endfacet
facet normal -0.9574643416923075 0.28855161477232544 -2.908625638967707e-13
  outer loop
    vertex -1.3085278531496887 13.42736722461936 2.014008876209441
    vertex -1.0199762383770135 14.384831566310556 -1.0812789241754217e-11
    vertex -1.308527853149729 13.427367224618013 -1.018183866108302e-11
  endloop
endfacet
facet normal -0.957464341693158 0.2885516147695028 -2.5150743212583517e-13
  outer loop
    vertex -3.1797200633492366 7.21842668847777 2.0140088762141644
    vertex -3.468271678118574 6.260962346783284 -5.069261987955542e-12
    vertex -3.4682716781188105 6.260962346784583 2.014008876214877
  endloop
endfacet
facet normal -0.957464341693158 0.2885516147695028 -2.5150743212583517e-13
  outer loop
    vertex -3.468271678118574 6.260962346783284 -5.069261987955542e-12
    vertex -3.1797200633492366 7.21842668847777 2.0140088762141644
    vertex -3.179720063348723 7.218426688476308 -5.619358489639125e-12
  endloop
endfacet
facet normal 1.755111627154498e-14 -7.313778172216588e-13 -1.0
  outer loop
    vertex -4.6080452054251735 2.478995952764885 -1.8495370568416546e-12
    vertex -3.6080452054276644 2.4789959527646914 -1.8466494111635254e-12
    vertex -4.896596820195299 1.5215316110724844 -9.991254046326502e-13
  endloop
endfacet
facet normal 1.755111627154498e-14 -7.313778172216588e-13 -1.0
  outer loop
    vertex -3.860347128306911 4.9599879505493005 -4.097569217265118e-12
    vertex -3.1488987430787914 4.002523608856637 -3.162693928970839e-12
    vertex -4.1488987430763 4.002523608856369 -3.1424804092239354e-12
  endloop
endfacet
facet normal 1.755111627154498e-14 -7.313778172216588e-13 -1.0
  outer loop
    vertex 3.504680210165858 4.4812557797034565 -3.639155465862131e-12
    vertex 3.2607362051881554 4.044802663737138 -3.3114076813944848e-12
    vertex 2.2607362051905544 4.044802663737266 -3.279643578935065e-12
  endloop
endfacet
facet normal 1.755111627154498e-14 -7.313778172216588e-13 -1.0
  outer loop
    vertex 6.11577837038035 9.152909539867187 -6.587441703231888e-12
    vertex 5.871834365402093 8.716456423901954 -6.271244501476758e-12
    vertex 4.871834365404492 8.716456423901985 -6.262581564442371e-12
  endloop
endfacet
facet normal 1.755111627154498e-14 -7.313778172216588e-13 -1.0
  outer loop
    vertex -1.9714750145722728 11.2275934753228 -8.366953352378913e-12
    vertex -0.028371388755477754 11.300927002627311 -9.013064072860288e-12
    vertex 2.571628611247304 11.300927002627661 -9.262123512598919e-12
  endloop
endfacet
facet normal 1.755111627154498e-14 -7.313778172216588e-13 -1.0
  outer loop
    vertex -0.028371388755477754 11.300927002627311 -9.013064072860288e-12
    vertex -1.9714750145722728 11.2275934753228 -8.366953352378913e-12
    vertex -1.6829233998026065 12.18505781701504 -9.194985750582418e-12
  endloop
endfacet
facet normal 1.755111627154498e-14 -7.313778172216588e-13 -1.0
  outer loop
    vertex -0.028371388755477754 11.300927002627311 -9.013064072860288e-12
    vertex -1.6829233998026065 12.18505781701504 -9.194985750582418e-12
    vertex -0.682923399801956 12.185057817015078 -9.157446356766741e-12
  endloop
endfacet
facet normal 1.755111627154498e-14 -7.313778172216588e-13 -1.0
  outer loop
    vertex -0.9999999999989005 3.320792529848404e-14 8.66293703438714e-15
    vertex 0.8504201283624377 1.5215316110729897 -1.4380475477082653e-12
    vertex -5.775291356258094e-15 0.0 0.0
  endloop
endfacet
facet normal 1.755111627154498e-14 -7.313778172216588e-13 -1.0
  outer loop
    vertex 0.8504201283624377 1.5215316110729897 -1.4380475477082653e-12
    vertex -0.9999999999989005 3.320792529848404e-14 8.66293703438714e-15
    vertex 6.504874217283729 13.427367224618898 -9.819439128477824e-12
  endloop
endfacet
facet normal 1.755111627154498e-14 -7.313778172216588e-13 -1.0
  outer loop
    vertex 0.8504201283624377 1.5215316110729897 -1.4380475477082653e-12
    vertex 6.504874217283729 13.427367224618898 -9.819439128477824e-12
    vertex 1.3855696727011797 2.478995952765751 -2.536796728236368e-12
  endloop
endfacet
facet normal 1.755111627154498e-14 -7.313778172216588e-13 -1.0
  outer loop
    vertex 0.8504201283624377 1.5215316110729897 -1.4380475477082653e-12
    vertex 1.3855696727011797 2.478995952765751 -2.536796728236368e-12
    vertex 1.8504201283611477 1.5215316110733246 -1.5391151464427821e-12
  endloop
endfacet
facet normal 1.755111627154498e-14 -7.313778172216588e-13 -1.0
  outer loop
    vertex 1.8504201283611477 1.5215316110733246 -1.5391151464427821e-12
    vertex 1.3855696727011797 2.478995952765751 -2.536796728236368e-12
    vertex 2.3855696727044173 2.47899595276567 -2.1642904357577207e-12
  endloop
endfacet
facet normal 1.755111627154498e-14 -7.313778172216588e-13 -1.0
  outer loop
    vertex 1.3855696727011797 2.478995952765751 -2.536796728236368e-12
    vertex 6.504874217283729 13.427367224618898 -9.819439128477824e-12
    vertex 2.2607362051905544 4.044802663737266 -3.279643578935065e-12
  endloop
endfacet
facet normal 1.755111627154498e-14 -7.313778172216588e-13 -1.0
  outer loop
    vertex 2.2607362051905544 4.044802663737266 -3.279643578935065e-12
    vertex 6.504874217283729 13.427367224618898 -9.819439128477824e-12
    vertex 2.7486242151423497 4.917708895669622 -3.912037982445326e-12
  endloop
endfacet
facet normal 1.755111627154498e-14 -7.313778172216588e-13 -1.0
  outer loop
    vertex 2.2607362051905544 4.044802663737266 -3.279643578935065e-12
    vertex 2.7486242151423497 4.917708895669622 -3.912037982445326e-12
    vertex 3.504680210165858 4.4812557797034565 -3.639155465862131e-12
  endloop
endfacet
facet normal 1.755111627154498e-14 -7.313778172216588e-13 -1.0
  outer loop
    vertex 2.7486242151423497 4.917708895669622 -3.912037982445326e-12
    vertex 6.504874217283729 13.427367224618898 -9.819439128477824e-12
    vertex 3.5230312159720474 6.303241401665607 -4.5704211970587494e-12
  endloop
endfacet
facet normal 1.755111627154498e-14 -7.313778172216588e-13 -1.0
  outer loop
    vertex 3.5230312159720474 6.303241401665607 -4.5704211970587494e-12
    vertex 6.504874217283729 13.427367224618898 -9.819439128477824e-12
    vertex 4.0109192259253215 7.176147633597135 -5.1804363465635105e-12
  endloop
endfacet
facet normal 1.755111627154498e-14 -7.313778172216588e-13 -1.0
  outer loop
    vertex 3.5230312159720474 6.303241401665607 -4.5704211970587494e-12
    vertex 4.0109192259253215 7.176147633597135 -5.1804363465635105e-12
    vertex 4.523031215971127 6.303241401665923 -4.532881803243071e-12
  endloop
endfacet
facet normal 1.755111627154498e-14 -7.313778172216588e-13 -1.0
  outer loop
    vertex 4.523031215971127 6.303241401665923 -4.532881803243071e-12
    vertex 4.0109192259253215 7.176147633597135 -5.1804363465635105e-12
    vertex 4.7669752209486385 6.739694517631594 -4.849079004998202e-12
  endloop
endfacet
facet normal 1.755111627154498e-14 -7.313778172216588e-13 -1.0
  outer loop
    vertex 4.7669752209486385 6.739694517631594 -4.849079004998202e-12
    vertex 4.0109192259253215 7.176147633597135 -5.1804363465635105e-12
    vertex 5.010919225923384 7.176147633597219 -5.165998118172865e-12
  endloop
endfacet
facet normal 1.755111627154498e-14 -7.313778172216588e-13 -1.0
  outer loop
    vertex 4.0109192259253215 7.176147633597135 -5.1804363465635105e-12
    vertex 6.504874217283729 13.427367224618898 -9.819439128477824e-12
    vertex 4.871834365404492 8.716456423901985 -6.262581564442371e-12
  endloop
endfacet
facet normal 1.755111627154498e-14 -7.313778172216588e-13 -1.0
  outer loop
    vertex 4.871834365404492 8.716456423901985 -6.262581564442371e-12
    vertex 6.504874217283729 13.427367224618898 -9.819439128477824e-12
    vertex 5.359722375355363 9.58936265583162 -6.906526550665149e-12
  endloop
endfacet
facet normal 1.755111627154498e-14 -7.313778172216588e-13 -1.0
  outer loop
    vertex 4.871834365404492 8.716456423901985 -6.262581564442371e-12
    vertex 5.359722375355363 9.58936265583162 -6.906526550665149e-12
    vertex 6.11577837038035 9.152909539867187 -6.587441703231888e-12
  endloop
endfacet
facet normal 1.755111627154498e-14 -7.313778172216588e-13 -1.0
  outer loop
    vertex 5.359722375355363 9.58936265583162 -6.906526550665149e-12
    vertex 6.504874217283729 13.427367224618898 -9.819439128477824e-12
    vertex 6.322629995343612 11.312151585084598 -8.167705800588009e-12
  endloop
endfacet
facet normal 1.755111627154498e-14 -7.313778172216588e-13 -1.0
  outer loop
    vertex 6.322629995343612 11.312151585084598 -8.167705800588009e-12
    vertex 6.504874217283729 13.427367224618898 -9.819439128477824e-12
    vertex 6.810518005297994 12.1850578170164 -8.81237269823032e-12
  endloop
endfacet
facet normal 1.755111627154498e-14 -7.313778172216588e-13 -1.0
  outer loop
    vertex 6.322629995343612 11.312151585084598 -8.167705800588009e-12
    vertex 6.810518005297994 12.1850578170164 -8.81237269823032e-12
    vertex 7.3226299953443545 11.312151585084887 -8.153267572197364e-12
  endloop
endfacet
facet normal 1.755111627154498e-14 -7.313778172216588e-13 -1.0
  outer loop
    vertex 6.810518005297994 12.1850578170164 -8.81237269823032e-12
    vertex 6.504874217283729 13.427367224618898 -9.819439128477824e-12
    vertex 7.504874217283455 13.427367224619237 -9.758798569237114e-12
  endloop
endfacet
facet normal 1.755111627154498e-14 -7.313778172216588e-13 -1.0
  outer loop
    vertex 7.504874217283455 13.427367224619237 -9.758798569237114e-12
    vertex 6.504874217283729 13.427367224618898 -9.819439128477824e-12
    vertex 3.6233602174509185 13.427367224618534 -1.0062001365440664e-11
  endloop
endfacet
facet normal 1.755111627154498e-14 -7.313778172216588e-13 -1.0
  outer loop
    vertex -4.355141733233386 8.66293703438714e-15 9.962377589545212e-14
    vertex -0.25639017865144414 10.282195508203928 -7.738168505966313e-12
    vertex -3.355141733234491 -1.4438228390645235e-15 -9.384848453919403e-14
  endloop
endfacet
facet normal 1.755111627154498e-14 -7.313778172216588e-13 -1.0
  outer loop
    vertex -0.25639017865144414 10.282195508203928 -7.738168505966313e-12
    vertex -4.355141733233386 8.66293703438714e-15 9.962377589545212e-14
    vertex -3.896596820194833 1.5215316110724064 -1.0077883416670374e-12
  endloop
endfacet
facet normal 1.755111627154498e-14 -7.313778172216588e-13 -1.0
  outer loop
    vertex -0.25639017865144414 10.282195508203928 -7.738168505966313e-12
    vertex -3.896596820194833 1.5215316110724064 -1.0077883416670374e-12
    vertex -3.6080452054276644 2.4789959527646914 -1.8466494111635254e-12
  endloop
endfacet
facet normal 1.755111627154498e-14 -7.313778172216588e-13 -1.0
  outer loop
    vertex -3.6080452054276644 2.4789959527646914 -1.8466494111635254e-12
    vertex -3.896596820194833 1.5215316110724064 -1.0077883416670374e-12
    vertex -4.896596820195299 1.5215316110724844 -9.991254046326502e-13
  endloop
endfacet
facet normal 1.755111627154498e-14 -7.313778172216588e-13 -1.0
  outer loop
    vertex -0.25639017865144414 10.282195508203928 -7.738168505966313e-12
    vertex -3.6080452054276644 2.4789959527646914 -1.8466494111635254e-12
    vertex -3.1488987430787914 4.002523608856637 -3.162693928970839e-12
  endloop
endfacet
facet normal 1.755111627154498e-14 -7.313778172216588e-13 -1.0
  outer loop
    vertex -0.25639017865144414 10.282195508203928 -7.738168505966313e-12
    vertex -3.1488987430787914 4.002523608856637 -3.162693928970839e-12
    vertex -2.860347128307277 4.959987950549476 -4.094681571586988e-12
  endloop
endfacet
facet normal 1.755111627154498e-14 -7.313778172216588e-13 -1.0
  outer loop
    vertex -2.860347128307277 4.959987950549476 -4.094681571586988e-12
    vertex -3.1488987430787914 4.002523608856637 -3.162693928970839e-12
    vertex -3.860347128306911 4.9599879505493005 -4.097569217265118e-12
  endloop
endfacet
facet normal 1.755111627154498e-14 -7.313778172216588e-13 -1.0
  outer loop
    vertex -0.25639017865144414 10.282195508203928 -7.738168505966313e-12
    vertex -2.860347128307277 4.959987950549476 -4.094681571586988e-12
    vertex -2.4682716781193097 6.260962346783252 -5.054101848145365e-12
  endloop
endfacet
facet normal 1.755111627154498e-14 -7.313778172216588e-13 -1.0
  outer loop
    vertex -0.25639017865144414 10.282195508203928 -7.738168505966313e-12
    vertex -2.4682716781193097 6.260962346783252 -5.054101848145365e-12
    vertex -2.1797200633489964 7.218426688476485 -5.6164708439609966e-12
  endloop
endfacet
facet normal 1.755111627154498e-14 -7.313778172216588e-13 -1.0
  outer loop
    vertex -2.1797200633489964 7.218426688476485 -5.6164708439609966e-12
    vertex -2.4682716781193097 6.260962346783252 -5.054101848145365e-12
    vertex -3.468271678118574 6.260962346783284 -5.069261987955542e-12
  endloop
endfacet
facet normal 1.755111627154498e-14 -7.313778172216588e-13 -1.0
  outer loop
    vertex -2.1797200633489964 7.218426688476485 -5.6164708439609966e-12
    vertex -3.468271678118574 6.260962346783284 -5.069261987955542e-12
    vertex -3.179720063348723 7.218426688476308 -5.619358489639125e-12
  endloop
endfacet
facet normal 1.755111627154498e-14 -7.313778172216588e-13 -1.0
  outer loop
    vertex -0.25639017865144414 10.282195508203928 -7.738168505966313e-12
    vertex -2.1797200633489964 7.218426688476485 -5.6164708439609966e-12
    vertex -1.7409995896124133 8.674177369019374 -6.468326319009066e-12
  endloop
endfacet
facet normal 1.755111627154498e-14 -7.313778172216588e-13 -1.0
  outer loop
    vertex -0.25639017865144414 10.282195508203928 -7.738168505966313e-12
    vertex -1.7409995896124133 8.674177369019374 -6.468326319009066e-12
    vertex -2.7409995896098325 8.674177369019336 -6.494315130112227e-12
  endloop
endfacet
facet normal 1.755111627154498e-14 -7.313778172216588e-13 -1.0
  outer loop
    vertex -0.25639017865144414 10.282195508203928 -7.738168505966313e-12
    vertex -2.7409995896098325 8.674177369019336 -6.494315130112227e-12
    vertex -1.4524479748390564 9.631641710711959 -6.903638904987019e-12
  endloop
endfacet
facet normal 1.755111627154498e-14 -7.313778172216588e-13 -1.0
  outer loop
    vertex -1.4524479748390564 9.631641710711959 -6.903638904987019e-12
    vertex -2.7409995896098325 8.674177369019336 -6.494315130112227e-12
    vertex -2.452447974840905 9.631641710711762 -7.114437039490439e-12
  endloop
endfacet
facet normal 1.755111627154498e-14 -7.313778172216588e-13 -1.0
  outer loop
    vertex -0.25639017865144414 10.282195508203928 -7.738168505966313e-12
    vertex -1.4524479748390564 9.631641710711959 -6.903638904987019e-12
    vertex -0.9714750145733781 11.227593475322816 -8.421818620263366e-12
  endloop
endfacet
facet normal 1.755111627154498e-14 -7.313778172216588e-13 -1.0
  outer loop
    vertex -0.25639017865144414 10.282195508203928 -7.738168505966313e-12
    vertex -0.9714750145733781 11.227593475322816 -8.421818620263366e-12
    vertex 3.6233602174514905 10.282195508204612 -7.782205102557782e-12
  endloop
endfacet
facet normal 1.755111627154498e-14 -7.313778172216588e-13 -1.0
  outer loop
    vertex 3.6233602174514905 10.282195508204612 -7.782205102557782e-12
    vertex -0.9714750145733781 11.227593475322816 -8.421818620263366e-12
    vertex 2.571628611247304 11.300927002627661 -9.262123512598919e-12
  endloop
endfacet
facet normal 1.755111627154498e-14 -7.313778172216588e-13 -1.0
  outer loop
    vertex 3.6233602174514905 10.282195508204612 -7.782205102557782e-12
    vertex 2.571628611247304 11.300927002627661 -9.262123512598919e-12
    vertex 3.6233602174509185 13.427367224618534 -1.0062001365440664e-11
  endloop
endfacet
facet normal 1.755111627154498e-14 -7.313778172216588e-13 -1.0
  outer loop
    vertex 2.571628611247304 11.300927002627661 -9.262123512598919e-12
    vertex -0.9714750145733781 11.227593475322816 -8.421818620263366e-12
    vertex -1.9714750145722728 11.2275934753228 -8.366953352378913e-12
  endloop
endfacet
facet normal 1.755111627154498e-14 -7.313778172216588e-13 -1.0
  outer loop
    vertex 3.6233602174509185 13.427367224618534 -1.0062001365440664e-11
    vertex 2.571628611247304 11.300927002627661 -9.262123512598919e-12
    vertex 2.5716286112477427 13.900927002626656 -1.1417751011322251e-11
  endloop
endfacet
facet normal 1.755111627154498e-14 -7.313778172216588e-13 -1.0
  outer loop
    vertex 3.6233602174509185 13.427367224618534 -1.0062001365440664e-11
    vertex 2.5716286112477427 13.900927002626656 -1.1417751011322251e-11
    vertex 7.504874217283455 13.427367224619237 -9.758798569237114e-12
  endloop
endfacet
facet normal 1.755111627154498e-14 -7.313778172216588e-13 -1.0
  outer loop
    vertex -0.682923399801956 12.185057817015078 -9.157446356766741e-12
    vertex -0.028371388754669213 13.90092700262621 -1.118096406571567e-11
    vertex -0.028371388755477754 11.300927002627311 -9.013064072860288e-12
  endloop
endfacet
facet normal 1.755111627154498e-14 -7.313778172216588e-13 -1.0
  outer loop
    vertex -0.028371388754669213 13.90092700262621 -1.118096406571567e-11
    vertex -0.682923399801956 12.185057817015078 -9.157446356766741e-12
    vertex -0.30852785314898634 13.427367224618072 -1.0132748684554826e-11
  endloop
endfacet
facet normal 1.755111627154498e-14 -7.313778172216588e-13 -1.0
  outer loop
    vertex -0.028371388754669213 13.90092700262621 -1.118096406571567e-11
    vertex -0.30852785314898634 13.427367224618072 -1.0132748684554826e-11
    vertex -1.308527853149729 13.427367224618013 -1.018183866108302e-11
  endloop
endfacet
facet normal 1.755111627154498e-14 -7.313778172216588e-13 -1.0
  outer loop
    vertex -0.028371388754669213 13.90092700262621 -1.118096406571567e-11
    vertex -1.308527853149729 13.427367224618013 -1.018183866108302e-11
    vertex -1.0199762383770135 14.384831566310556 -1.0812789241754217e-11
  endloop
endfacet
facet normal 1.755111627154498e-14 -7.313778172216588e-13 -1.0
  outer loop
    vertex -0.028371388754669213 13.90092700262621 -1.118096406571567e-11
    vertex -1.0199762383770135 14.384831566310556 -1.0812789241754217e-11
    vertex 2.5716286112477427 13.900927002626656 -1.1417751011322251e-11
  endloop
endfacet
facet normal 1.755111627154498e-14 -7.313778172216588e-13 -1.0
  outer loop
    vertex 2.5716286112477427 13.900927002626656 -1.1417751011322251e-11
    vertex -1.0199762383770135 14.384831566310556 -1.0812789241754217e-11
    vertex 9.04002376162063 14.384831566311664 -1.0923963600362185e-11
  endloop
endfacet
facet normal 1.755111627154498e-14 -7.313778172216588e-13 -1.0
  outer loop
    vertex 7.504874217283455 13.427367224619237 -9.758798569237114e-12
    vertex 9.04002376162063 14.384831566311664 -1.0923963600362185e-11
    vertex 8.504874217282257 13.427367224619365 -9.732809758133953e-12
  endloop
endfacet
facet normal 1.755111627154498e-14 -7.313778172216588e-13 -1.0
  outer loop
    vertex 9.04002376162063 14.384831566311664 -1.0923963600362185e-11
    vertex 7.504874217283455 13.427367224619237 -9.758798569237114e-12
    vertex 2.5716286112477427 13.900927002626656 -1.1417751011322251e-11
  endloop
endfacet
facet normal 1.755111627154498e-14 -7.313778172216588e-13 -1.0
  outer loop
    vertex 7.810518005296242 12.185057817016576 -8.80948505255219e-12
    vertex 7.3226299953443545 11.312151585084887 -8.153267572197364e-12
    vertex 6.810518005297994 12.1850578170164 -8.81237269823032e-12
  endloop
endfacet
facet normal 1.755111627154498e-14 -7.313778172216588e-13 -1.0
  outer loop
    vertex 6.359722375357122 9.589362655831772 -6.903638904987019e-12
    vertex 6.11577837038035 9.152909539867187 -6.587441703231888e-12
    vertex 5.359722375355363 9.58936265583162 -6.906526550665149e-12
  endloop
endfacet
facet normal 1.755111627154498e-14 -7.313778172216588e-13 -1.0
  outer loop
    vertex 3.7486242151405973 4.917708895669798 -3.955352667617262e-12
    vertex 3.504680210165858 4.4812557797034565 -3.639155465862131e-12
    vertex 2.7486242151423497 4.917708895669622 -3.912037982445326e-12
  endloop
endfacet
facet normal -4.423734473347354e-14 -1.0082219232935303e-12 -1.0
  outer loop
    vertex -0.02837138875213386 11.300927002628024 0.999999999991337
    vertex 2.57162861124776 13.900927002627366 0.9999999999885855
    vertex 2.571628611247136 11.300927002628397 0.9999999999913425
  endloop
endfacet
facet normal -4.423734473347354e-14 -1.0082219232935303e-12 -1.0
  outer loop
    vertex 2.57162861124776 13.900927002627366 0.9999999999885855
    vertex -0.02837138875213386 11.300927002628024 0.999999999991337
    vertex -0.028371388754651887 13.900927002626927 0.9999999999888229
  endloop
endfacet
facet normal 1.5196177649558287e-13 -1.0 7.508488940995552e-13
  outer loop
    vertex 2.5716286112477427 13.900927002626656 -1.1417751011322251e-11
    vertex -0.028371388754651887 13.900927002626927 0.9999999999888229
    vertex -0.028371388754669213 13.90092700262621 -1.118096406571567e-11
  endloop
endfacet
facet normal 1.5196177649558287e-13 -1.0 7.508488940995552e-13
  outer loop
    vertex -0.028371388754651887 13.900927002626927 0.9999999999888229
    vertex 2.5716286112477427 13.900927002626656 -1.1417751011322251e-11
    vertex 2.57162861124776 13.900927002627366 0.9999999999885855
  endloop
endfacet
facet normal -1.0 2.0755619445360327e-13 -7.831737224173222e-14
  outer loop
    vertex 2.57162861124776 13.900927002627366 0.9999999999885855
    vertex 2.571628611247304 11.300927002627661 -9.262123512598919e-12
    vertex 2.571628611247136 11.300927002628397 0.9999999999913425
  endloop
endfacet
facet normal -1.0 2.0755619445360327e-13 -7.831737224173222e-14
  outer loop
    vertex 2.571628611247304 11.300927002627661 -9.262123512598919e-12
    vertex 2.57162861124776 13.900927002627366 0.9999999999885855
    vertex 2.5716286112477427 13.900927002626656 -1.1417751011322251e-11
  endloop
endfacet
facet normal 1.0 4.264644193334009e-13 -1.0532628160646297e-12
  outer loop
    vertex -0.028371388755477754 11.300927002627311 -9.013064072860288e-12
    vertex -0.028371388754651887 13.900927002626927 0.9999999999888229
    vertex -0.02837138875213386 11.300927002628024 0.999999999991337
  endloop
endfacet
facet normal 1.0 4.264644193334009e-13 -1.0532628160646297e-12
  outer loop
    vertex -0.028371388754651887 13.900927002626927 0.9999999999888229
    vertex -0.028371388755477754 11.300927002627311 -9.013064072860288e-12
    vertex -0.028371388754669213 13.90092700262621 -1.118096406571567e-11
  endloop
endfacet
facet normal -1.5332179970074833e-13 1.0 -7.350668030034367e-13
  outer loop
    vertex -0.02837138875213386 11.300927002628024 0.999999999991337
    vertex 2.571628611247304 11.300927002627661 -9.262123512598919e-12
    vertex -0.028371388755477754 11.300927002627311 -9.013064072860288e-12
  endloop
endfacet
facet normal -1.5332179970074833e-13 1.0 -7.350668030034367e-13
  outer loop
    vertex 2.571628611247304 11.300927002627661 -9.262123512598919e-12
    vertex -0.02837138875213386 11.300927002628024 0.999999999991337
    vertex 2.571628611247136 11.300927002628397 0.9999999999913425
  endloop
endfacet
facet normal -0.9574643416926389 0.28855161477122515 9.935465369859683e-14
  outer loop
    vertex -0.30852785314898634 13.427367224618072 -1.0132748684554826e-11
    vertex -0.6829233998019213 12.185057817016308 1.6930626034727674
    vertex -0.3085278531480276 13.427367224619301 1.6930626034718732
  endloop
endfacet
facet normal -0.9574643416926389 0.28855161477122515 9.935465369859683e-14
  outer loop
    vertex -0.6829233998019213 12.185057817016308 1.6930626034727674
    vertex -0.30852785314898634 13.427367224618072 -1.0132748684554826e-11
    vertex -0.682923399801956 12.185057817015078 -9.157446356766741e-12
  endloop
endfacet
facet normal 6.561973187047381e-13 -1.0 1.96041828208356e-12
  outer loop
    vertex 3.6233602174509185 13.427367224618534 -1.0062001365440664e-11
    vertex 6.50487421727793 13.427367224622778 1.1999999999904387
    vertex 3.6233602174508492 13.427367224619388 1.1999999999904394
  endloop
endfacet
facet normal 6.561973187047381e-13 -1.0 1.96041828208356e-12
  outer loop
    vertex 6.50487421727793 13.427367224622778 1.1999999999904387
    vertex 3.6233602174509185 13.427367224618534 -1.0062001365440664e-11
    vertex 6.504874217283729 13.427367224618898 -9.819439128477824e-12
  endloop
endfacet
facet normal 1.5187850976873474e-13 -1.0 6.913409840729083e-13
  outer loop
    vertex 3.6233602174514905 10.282195508204612 -7.782205102557782e-12
    vertex -0.2563901786463388 10.282195508204875 1.1999999999931898
    vertex -0.25639017865144414 10.282195508203928 -7.738168505966313e-12
  endloop
endfacet
facet normal 1.5187850976873474e-13 -1.0 6.913409840729083e-13
  outer loop
    vertex -0.2563901786463388 10.282195508204875 1.1999999999931898
    vertex 3.6233602174514905 10.282195508204612 -7.782205102557782e-12
    vertex 3.6233602174514212 10.28219550820542 1.1999999999928228
  endloop
endfacet
facet normal 1.0 1.6495138588373418e-13 5.2950470955064225e-14
  outer loop
    vertex 3.6233602174514905 10.282195508204612 -7.782205102557782e-12
    vertex 3.6233602174508492 13.427367224619388 1.1999999999904394
    vertex 3.6233602174514212 10.28219550820542 1.1999999999928228
  endloop
endfacet
facet normal 1.0 1.6495138588373418e-13 5.2950470955064225e-14
  outer loop
    vertex 3.6233602174508492 13.427367224619388 1.1999999999904394
    vertex 3.6233602174514905 10.282195508204612 -7.782205102557782e-12
    vertex 3.6233602174509185 13.427367224618534 -1.0062001365440664e-11
  endloop
endfacet
facet normal 7.602252161121462e-14 -1.0 3.8456749627069056e-13
  outer loop
    vertex -3.355141733234491 -1.4438228390645235e-15 -9.384848453919403e-14
    vertex -4.355141733231873 3.39298367180163e-13 1.6930626034817122
    vertex -4.355141733233386 8.66293703438714e-15 9.962377589545212e-14
  endloop
endfacet
facet normal 7.602252161121462e-14 -1.0 3.8456749627069056e-13
  outer loop
    vertex -4.355141733231873 3.39298367180163e-13 1.6930626034817122
    vertex -3.355141733234491 -1.4438228390645235e-15 -9.384848453919403e-14
    vertex -3.355141733234191 3.69618646800518e-13 1.1999999999994135
  endloop
endfacet
facet normal 7.602252161121462e-14 -1.0 3.8456749627069056e-13
  outer loop
    vertex -4.355141733231873 3.39298367180163e-13 1.6930626034817122
    vertex -3.355141733234191 3.69618646800518e-13 1.1999999999994135
    vertex -3.3167017326756354 9.962377589545213e-13 2.8149738788509473
  endloop
endfacet
facet normal 7.602252161121462e-14 -1.0 3.8456749627069056e-13
  outer loop
    vertex -3.3167017326756354 9.962377589545213e-13 2.8149738788509473
    vertex -3.355141733234191 3.69618646800518e-13 1.1999999999994135
    vertex -0.999999999999709 5.659785529132932e-13 1.2000000000000246
  endloop
endfacet
facet normal 7.602252161121462e-14 -1.0 3.8456749627069056e-13
  outer loop
    vertex -3.3167017326756354 9.962377589545213e-13 2.8149738788509473
    vertex -0.999999999999709 5.659785529132932e-13 1.2000000000000246
    vertex -7.507878763135522e-14 9.023892744153272e-13 1.2000000000000044
  endloop
endfacet
facet normal 7.602252161121462e-14 -1.0 3.8456749627069056e-13
  outer loop
    vertex -7.507878763135522e-14 9.023892744153272e-13 1.2000000000000044
    vertex -0.999999999999709 5.659785529132932e-13 1.2000000000000246
    vertex -0.9999999999989005 3.320792529848404e-14 8.66293703438714e-15
  endloop
endfacet
facet normal 7.602252161121462e-14 -1.0 3.8456749627069056e-13
  outer loop
    vertex -7.507878763135522e-14 9.023892744153272e-13 1.2000000000000044
    vertex -0.9999999999989005 3.320792529848404e-14 8.66293703438714e-15
    vertex -5.775291356258094e-15 0.0 0.0
  endloop
endfacet
facet normal 0.9574643416927872 -0.2885516147707331 -1.8766177456005814e-12
  outer loop
    vertex -3.355141733234191 3.69618646800518e-13 1.1999999999994135
    vertex -0.25639017865144414 10.282195508203928 -7.738168505966313e-12
    vertex -0.2563901786463388 10.282195508204875 1.1999999999931898
  endloop
endfacet
facet normal 0.9574643416927872 -0.2885516147707331 -1.8766177456005814e-12
  outer loop
    vertex -0.25639017865144414 10.282195508203928 -7.738168505966313e-12
    vertex -3.355141733234191 3.69618646800518e-13 1.1999999999994135
    vertex -3.355141733234491 -1.4438228390645235e-15 -9.384848453919403e-14
  endloop
endfacet
facet normal -0.8729062319312517 0.4878880099526777 -3.232750516029959e-12
  outer loop
    vertex 6.504874217283729 13.427367224618898 -9.819439128477824e-12
    vertex -0.999999999999709 5.659785529132932e-13 1.2000000000000246
    vertex 6.50487421727793 13.427367224622778 1.1999999999904387
  endloop
endfacet
facet normal -0.8729062319312517 0.4878880099526777 -3.232750516029959e-12
  outer loop
    vertex -0.999999999999709 5.659785529132932e-13 1.2000000000000246
    vertex 6.504874217283729 13.427367224618898 -9.819439128477824e-12
    vertex -0.9999999999989005 3.320792529848404e-14 8.66293703438714e-15
  endloop
endfacet
facet normal -4.5525553496653215e-14 -6.580828724177625e-13 -1.0
  outer loop
    vertex -0.2563901786463388 10.282195508204875 1.1999999999931898
    vertex 3.6233602174514212 10.28219550820542 1.1999999999928228
    vertex -3.355141733234191 3.69618646800518e-13 1.1999999999994135
  endloop
endfacet
facet normal -4.5525553496653215e-14 -6.580828724177625e-13 -1.0
  outer loop
    vertex -3.355141733234191 3.69618646800518e-13 1.1999999999994135
    vertex 6.50487421727793 13.427367224622778 1.1999999999904387
    vertex -0.999999999999709 5.659785529132932e-13 1.2000000000000246
  endloop
endfacet
facet normal -4.5525553496653215e-14 -6.580828724177625e-13 -1.0
  outer loop
    vertex 6.50487421727793 13.427367224622778 1.1999999999904387
    vertex -3.355141733234191 3.69618646800518e-13 1.1999999999994135
    vertex 3.6233602174514212 10.28219550820542 1.1999999999928228
  endloop
endfacet
facet normal -4.5525553496653215e-14 -6.580828724177625e-13 -1.0
  outer loop
    vertex 6.50487421727793 13.427367224622778 1.1999999999904387
    vertex 3.6233602174514212 10.28219550820542 1.1999999999928228
    vertex 3.6233602174508492 13.427367224619388 1.1999999999904394
  endloop
endfacet
endsolid working_stargate_mk2_chevron_2_c
Working Stargate Mk2
www.glitch.org.uk