solid working_stargate_mk2_chevron_3_b
facet normal 7.563394355258385e-14 1.0 -1.2062331738735822e-13
  outer loop
    vertex 2.5698452630178026 10.731620790448478 0.9999999999984304
    vertex 2.569845263017688 10.7316207904484 -1.4577196338905196e-12
    vertex -0.02746871804411029 10.731620790448765 0.9999999999986822
  endloop
endfacet
facet normal 7.563394355258385e-14 1.0 -1.2062331738735822e-13
  outer loop
    vertex -0.02746871804413267 10.731620790448572 -1.3445600188788375e-12
    vertex -0.02746871804411029 10.731620790448765 0.9999999999986822
    vertex 2.569845263017688 10.7316207904484 -1.4577196338905196e-12
  endloop
endfacet
facet normal -1.246864404291556e-13 -7.648021349397853e-14 -1.0
  outer loop
    vertex 2.5698452630178026 10.731620790448478 0.9999999999984304
    vertex -0.02746871804411029 10.731620790448765 0.9999999999986822
    vertex 2.569845263017972 13.23162079044844 0.9999999999982374
  endloop
endfacet
facet normal -1.246864404291556e-13 -7.648021349397853e-14 -1.0
  outer loop
    vertex -0.02746871804431062 13.231620790448705 0.9999999999984894
    vertex 2.569845263017972 13.23162079044844 0.9999999999982374
    vertex -0.02746871804411029 10.731620790448765 0.9999999999986822
  endloop
endfacet
facet normal 0.8729062319310952 -0.48788800995295734 -1.7785820058654063e-13
  outer loop
    vertex 7.395466889522062 13.231620790448309 1.2068915066618713
    vertex -2.699948709050659e-13 2.281240085721947e-13 1.1491102805054902
    vertex 7.395466889521184 13.231620790448309 -1.880759725736425e-12
  endloop
endfacet
facet normal 0.8729062319310952 -0.48788800995295734 -1.7785820058654063e-13
  outer loop
    vertex 1.4077272680879104e-14 0.0 1.8047785488306544e-16
    vertex 7.395466889521184 13.231620790448309 -1.880759725736425e-12
    vertex -2.699948709050659e-13 2.281240085721947e-13 1.1491102805054902
  endloop
endfacet
facet normal -0.7190462500177008 0.21669940853318043 0.6603134533514003
  outer loop
    vertex -3.241361525628147 3.69618646800518e-13 2.7149738788513327
    vertex 0.7462601317263226 13.23162079044864 2.7149738788497273
    vertex -4.179801526192195 3.8405687519116323e-13 1.6930626034821388
  endloop
endfacet
facet normal -0.7190462500177008 0.21669940853318043 0.6603134533514003
  outer loop
    vertex -0.19217986879775947 13.231620790448627 1.6930626034805216
    vertex -4.179801526192195 3.8405687519116323e-13 1.6930626034821388
    vertex 0.7462601317263226 13.23162079044864 2.7149738788497273
  endloop
endfacet
facet normal -2.7767457671914638e-14 -1.2271704214452275e-13 -1.0
  outer loop
    vertex 1.4077272680879104e-14 0.0 1.8047785488306544e-16
    vertex -1.0000000000002203 9.529230737825855e-14 1.1009149147866991e-14
    vertex 7.395466889521184 13.231620790448309 -1.880759725736425e-12
  endloop
endfacet
facet normal -2.7767457671914638e-14 -1.2271704214452275e-13 -1.0
  outer loop
    vertex 6.395466889521643 13.231620790448266 -1.8354597841607755e-12
    vertex 7.395466889521184 13.231620790448309 -1.880759725736425e-12
    vertex -1.0000000000002203 9.529230737825855e-14 1.1009149147866991e-14
  endloop
endfacet
facet normal -0.9574643416928044 0.2885516147706764 1.1381188892989892e-13
  outer loop
    vertex -4.179801526192195 3.8405687519116323e-13 1.6930626034821388
    vertex -0.19217986879775947 13.231620790448627 1.6930626034805216
    vertex -4.179801526192389 2.281240085721947e-13 6.406963848348823e-14
  endloop
endfacet
facet normal -0.9574643416928044 0.2885516147706764 1.1381188892989892e-13
  outer loop
    vertex -0.19217986879790747 13.23162079044859 -1.5531924191236612e-12
    vertex -4.179801526192389 2.281240085721947e-13 6.406963848348823e-14
    vertex -0.19217986879775947 13.231620790448627 1.6930626034805216
  endloop
endfacet
facet normal -5.2997970046771804e-14 -1.0376405055409709e-13 -1.0
  outer loop
    vertex 3.5698452630184283 9.7316207904483 -1.4259555314311e-12
    vertex 2.569845263017688 10.7316207904484 -1.4577196338905196e-12
    vertex 3.5698452630179993 13.231620790448405 -1.707500985048682e-12
  endloop
endfacet
facet normal -5.2997970046771804e-14 -1.0376405055409709e-13 -1.0
  outer loop
    vertex 2.569845263017857 13.231620790448362 -1.6506504607605164e-12
    vertex 3.5698452630179993 13.231620790448405 -1.707500985048682e-12
    vertex 2.569845263017688 10.7316207904484 -1.4577196338905196e-12
  endloop
endfacet
facet normal -5.2997970046771804e-14 -1.0376405055409709e-13 -1.0
  outer loop
    vertex -3.1798015261922465 1.5593286661896854e-13 4.169038447798812e-14
    vertex -4.179801526192389 2.281240085721947e-13 6.406963848348823e-14
    vertex -0.24697701133344951 9.731620790448257 -1.2535991800177725e-12
  endloop
endfacet
facet normal -5.2997970046771804e-14 -1.0376405055409709e-13 -1.0
  outer loop
    vertex -0.19217986879790747 13.23162079044859 -1.5531924191236612e-12
    vertex -0.24697701133344951 9.731620790448257 -1.2535991800177725e-12
    vertex -4.179801526192389 2.281240085721947e-13 6.406963848348823e-14
  endloop
endfacet
facet normal -5.2997970046771804e-14 -1.0376405055409709e-13 -1.0
  outer loop
    vertex -0.02746871804413267 10.731620790448572 -1.3445600188788375e-12
    vertex -0.24697701133344951 9.731620790448257 -1.2535991800177725e-12
    vertex -0.19217986879790747 13.23162079044859 -1.5531924191236612e-12
  endloop
endfacet
facet normal -5.2997970046771804e-14 -1.0376405055409709e-13 -1.0
  outer loop
    vertex 3.5698452630184283 9.7316207904483 -1.4259555314311e-12
    vertex -0.24697701133344951 9.731620790448257 -1.2535991800177725e-12
    vertex -0.02746871804413267 10.731620790448572 -1.3445600188788375e-12
  endloop
endfacet
facet normal -5.2997970046771804e-14 -1.0376405055409709e-13 -1.0
  outer loop
    vertex 2.569845263017688 10.7316207904484 -1.4577196338905196e-12
    vertex 3.5698452630184283 9.7316207904483 -1.4259555314311e-12
    vertex -0.02746871804413267 10.731620790448572 -1.3445600188788375e-12
  endloop
endfacet
facet normal -5.2997970046771804e-14 -1.0376405055409709e-13 -1.0
  outer loop
    vertex -0.02746871804410199 13.231620790448488 -1.5373103678939513e-12
    vertex -0.02746871804413267 10.731620790448572 -1.3445600188788375e-12
    vertex -0.19217986879790747 13.23162079044859 -1.5531924191236612e-12
  endloop
endfacet
facet normal -0.8729062319310976 0.4878880099529532 1.4638656939619043e-14
  outer loop
    vertex 6.395466889521503 13.231620790448266 1.1999999999981688
    vertex 6.395466889521643 13.231620790448266 -1.8354597841607755e-12
    vertex -0.9999999999999899 9.529230737825855e-14 1.2000000000000153
  endloop
endfacet
facet normal -0.8729062319310976 0.4878880099529532 1.4638656939619043e-14
  outer loop
    vertex -1.0000000000002203 9.529230737825855e-14 1.1009149147866991e-14
    vertex -0.9999999999999899 9.529230737825855e-14 1.2000000000000153
    vertex 6.395466889521643 13.231620790448266 -1.8354597841607755e-12
  endloop
endfacet
facet normal 0.21940173237266838 -0.1268531721232995 0.9673526515982311
  outer loop
    vertex -2.699948709050659e-13 2.281240085721947e-13 1.1491102805054902
    vertex 7.395466889522062 13.231620790448309 1.2068915066618713
    vertex 0.7462601317263226 13.23162079044864 2.7149738788497273
  endloop
endfacet
facet normal 0.21940173237266838 -0.1268531721232995 0.9673526515982311
  outer loop
    vertex 0.807820131202591 13.231620790448703 2.701011679534295
    vertex 0.7462601317263226 13.23162079044864 2.7149738788497273
    vertex 7.395466889522062 13.231620790448309 1.2068915066618713
  endloop
endfacet
facet normal 0.4312995037959085 -0.12998099547887623 0.8927965495227473
  outer loop
    vertex -3.241361525628147 3.69618646800518e-13 2.7149738788513327
    vertex -2.699948709050659e-13 2.281240085721947e-13 1.1491102805054902
    vertex 0.7462601317263226 13.23162079044864 2.7149738788497273
  endloop
endfacet
facet normal 1.0 -9.464651284857668e-15 9.407479534964519e-13
  outer loop
    vertex -0.02746871804431062 13.231620790448705 0.9999999999984894
    vertex -0.02746871804411029 10.731620790448765 0.9999999999986822
    vertex -0.02746871804410199 13.231620790448488 -1.5373103678939513e-12
  endloop
endfacet
facet normal 1.0 -9.464651284857668e-15 9.407479534964519e-13
  outer loop
    vertex -0.02746871804413267 10.731620790448572 -1.3445600188788375e-12
    vertex -0.02746871804410199 13.231620790448488 -1.5373103678939513e-12
    vertex -0.02746871804411029 10.731620790448765 0.9999999999986822
  endloop
endfacet
facet normal -1.0 8.337774914935819e-14 1.150723933864203e-13
  outer loop
    vertex 2.5698452630178026 10.731620790448478 0.9999999999984304
    vertex 2.569845263017972 13.23162079044844 0.9999999999982374
    vertex 2.569845263017688 10.7316207904484 -1.4577196338905196e-12
  endloop
endfacet
facet normal -1.0 8.337774914935819e-14 1.150723933864203e-13
  outer loop
    vertex 2.569845263017857 13.231620790448362 -1.6506504607605164e-12
    vertex 2.569845263017688 10.7316207904484 -1.4577196338905196e-12
    vertex 2.569845263017972 13.23162079044844 0.9999999999982374
  endloop
endfacet
facet normal 1.0 1.1712852909781243e-14 -1.830604459896904e-13
  outer loop
    vertex 3.5698452630181836 13.231620790448405 1.1999999999982622
    vertex 3.5698452630183803 9.7316207904483 1.1999999999985322
    vertex 3.5698452630179993 13.231620790448405 -1.707500985048682e-12
  endloop
endfacet
facet normal 1.0 1.1712852909781243e-14 -1.830604459896904e-13
  outer loop
    vertex 3.5698452630184283 9.7316207904483 -1.4259555314311e-12
    vertex 3.5698452630179993 13.231620790448405 -1.707500985048682e-12
    vertex 3.5698452630183803 9.7316207904483 1.1999999999985322
  endloop
endfacet
facet normal -3.821942762272044e-14 -1.0 8.275034560421687e-14
  outer loop
    vertex 1.4077272680879104e-14 0.0 1.8047785488306544e-16
    vertex -2.699948709050659e-13 2.281240085721947e-13 1.1491102805054902
    vertex -1.0000000000002203 9.529230737825855e-14 1.1009149147866991e-14
  endloop
endfacet
facet normal -3.821942762272044e-14 -1.0 8.275034560421687e-14
  outer loop
    vertex -0.9999999999999899 9.529230737825855e-14 1.2000000000000153
    vertex -1.0000000000002203 9.529230737825855e-14 1.1009149147866991e-14
    vertex -2.699948709050659e-13 2.281240085721947e-13 1.1491102805054902
  endloop
endfacet
facet normal -3.821942762272044e-14 -1.0 8.275034560421687e-14
  outer loop
    vertex -3.1798015261922465 1.5593286661896854e-13 4.169038447798812e-14
    vertex -3.179801526192247 1.5593286661896854e-13 1.2000000000002655
    vertex -4.179801526192389 2.281240085721947e-13 6.406963848348823e-14
  endloop
endfacet
facet normal -3.821942762272044e-14 -1.0 8.275034560421687e-14
  outer loop
    vertex -3.241361525628147 3.69618646800518e-13 2.7149738788513327
    vertex -4.179801526192389 2.281240085721947e-13 6.406963848348823e-14
    vertex -3.179801526192247 1.5593286661896854e-13 1.2000000000002655
  endloop
endfacet
facet normal -3.821942762272044e-14 -1.0 8.275034560421687e-14
  outer loop
    vertex -4.179801526192195 3.8405687519116323e-13 1.6930626034821388
    vertex -4.179801526192389 2.281240085721947e-13 6.406963848348823e-14
    vertex -3.241361525628147 3.69618646800518e-13 2.7149738788513327
  endloop
endfacet
facet normal -3.821942762272044e-14 -1.0 8.275034560421687e-14
  outer loop
    vertex -2.699948709050659e-13 2.281240085721947e-13 1.1491102805054902
    vertex -3.241361525628147 3.69618646800518e-13 2.7149738788513327
    vertex -0.9999999999999899 9.529230737825855e-14 1.2000000000000153
  endloop
endfacet
facet normal -3.821942762272044e-14 -1.0 8.275034560421687e-14
  outer loop
    vertex -3.179801526192247 1.5593286661896854e-13 1.2000000000002655
    vertex -0.9999999999999899 9.529230737825855e-14 1.2000000000000153
    vertex -3.241361525628147 3.69618646800518e-13 2.7149738788513327
  endloop
endfacet
facet normal 0.9574643416928038 -0.28855161477067803 7.346374886889583e-14
  outer loop
    vertex -3.179801526192247 1.5593286661896854e-13 1.2000000000002655
    vertex -3.1798015261922465 1.5593286661896854e-13 4.169038447798812e-14
    vertex -0.24697701133354263 9.731620790448535 1.1999999999989701
  endloop
endfacet
facet normal 0.9574643416928038 -0.28855161477067803 7.346374886889583e-14
  outer loop
    vertex -0.24697701133344951 9.731620790448257 -1.2535991800177725e-12
    vertex -0.24697701133354263 9.731620790448535 1.1999999999989701
    vertex -3.1798015261922465 1.5593286661896854e-13 4.169038447798812e-14
  endloop
endfacet
facet normal -2.1732615707033523e-14 -1.0 1.1178667224430042e-13
  outer loop
    vertex 3.5698452630184283 9.7316207904483 -1.4259555314311e-12
    vertex 3.5698452630183803 9.7316207904483 1.1999999999985322
    vertex -0.24697701133344951 9.731620790448257 -1.2535991800177725e-12
  endloop
endfacet
facet normal -2.1732615707033523e-14 -1.0 1.1178667224430042e-13
  outer loop
    vertex -0.24697701133354263 9.731620790448535 1.1999999999989701
    vertex -0.24697701133344951 9.731620790448257 -1.2535991800177725e-12
    vertex 3.5698452630183803 9.7316207904483 1.1999999999985322
  endloop
endfacet
facet normal 4.568567746332813e-14 1.0 -5.220547590203423e-14
  outer loop
    vertex 7.395466889521184 13.231620790448309 -1.880759725736425e-12
    vertex 6.395466889521503 13.231620790448266 1.1999999999981688
    vertex 7.395466889522062 13.231620790448309 1.2068915066618713
  endloop
endfacet
facet normal 4.568567746332813e-14 1.0 -5.220547590203423e-14
  outer loop
    vertex 0.807820131202591 13.231620790448703 2.701011679534295
    vertex 7.395466889522062 13.231620790448309 1.2068915066618713
    vertex 6.395466889521503 13.231620790448266 1.1999999999981688
  endloop
endfacet
facet normal 4.568567746332813e-14 1.0 -5.220547590203423e-14
  outer loop
    vertex 6.395466889521643 13.231620790448266 -1.8354597841607755e-12
    vertex 6.395466889521503 13.231620790448266 1.1999999999981688
    vertex 7.395466889521184 13.231620790448309 -1.880759725736425e-12
  endloop
endfacet
facet normal 4.568567746332813e-14 1.0 -5.220547590203423e-14
  outer loop
    vertex 3.5698452630181836 13.231620790448405 1.1999999999982622
    vertex 0.807820131202591 13.231620790448703 2.701011679534295
    vertex 6.395466889521503 13.231620790448266 1.1999999999981688
  endloop
endfacet
facet normal 4.568567746332813e-14 1.0 -5.220547590203423e-14
  outer loop
    vertex 2.569845263017972 13.23162079044844 0.9999999999982374
    vertex 0.807820131202591 13.231620790448703 2.701011679534295
    vertex 3.5698452630181836 13.231620790448405 1.1999999999982622
  endloop
endfacet
facet normal 4.568567746332813e-14 1.0 -5.220547590203423e-14
  outer loop
    vertex 3.5698452630179993 13.231620790448405 -1.707500985048682e-12
    vertex 2.569845263017972 13.23162079044844 0.9999999999982374
    vertex 3.5698452630181836 13.231620790448405 1.1999999999982622
  endloop
endfacet
facet normal 4.568567746332813e-14 1.0 -5.220547590203423e-14
  outer loop
    vertex -0.02746871804431062 13.231620790448705 0.9999999999984894
    vertex 0.807820131202591 13.231620790448703 2.701011679534295
    vertex 2.569845263017972 13.23162079044844 0.9999999999982374
  endloop
endfacet
facet normal 4.568567746332813e-14 1.0 -5.220547590203423e-14
  outer loop
    vertex 0.7462601317263226 13.23162079044864 2.7149738788497273
    vertex 0.807820131202591 13.231620790448703 2.701011679534295
    vertex -0.02746871804431062 13.231620790448705 0.9999999999984894
  endloop
endfacet
facet normal 4.568567746332813e-14 1.0 -5.220547590203423e-14
  outer loop
    vertex -0.19217986879775947 13.231620790448627 1.6930626034805216
    vertex 0.7462601317263226 13.23162079044864 2.7149738788497273
    vertex -0.02746871804431062 13.231620790448705 0.9999999999984894
  endloop
endfacet
facet normal 4.568567746332813e-14 1.0 -5.220547590203423e-14
  outer loop
    vertex -0.19217986879790747 13.23162079044859 -1.5531924191236612e-12
    vertex -0.19217986879775947 13.231620790448627 1.6930626034805216
    vertex -0.02746871804431062 13.231620790448705 0.9999999999984894
  endloop
endfacet
facet normal 4.568567746332813e-14 1.0 -5.220547590203423e-14
  outer loop
    vertex -0.02746871804431062 13.231620790448705 0.9999999999984894
    vertex -0.02746871804410199 13.231620790448488 -1.5373103678939513e-12
    vertex -0.19217986879790747 13.23162079044859 -1.5531924191236612e-12
  endloop
endfacet
facet normal 4.568567746332813e-14 1.0 -5.220547590203423e-14
  outer loop
    vertex 2.569845263017972 13.23162079044844 0.9999999999982374
    vertex 3.5698452630179993 13.231620790448405 -1.707500985048682e-12
    vertex 2.569845263017857 13.231620790448362 -1.6506504607605164e-12
  endloop
endfacet
facet normal -7.728104079222427e-14 -1.0564068261407184e-13 -1.0
  outer loop
    vertex -0.9999999999999899 9.529230737825855e-14 1.2000000000000153
    vertex 3.5698452630183803 9.7316207904483 1.1999999999985322
    vertex 6.395466889521503 13.231620790448266 1.1999999999981688
  endloop
endfacet
facet normal -7.728104079222427e-14 -1.0564068261407184e-13 -1.0
  outer loop
    vertex 3.5698452630181836 13.231620790448405 1.1999999999982622
    vertex 6.395466889521503 13.231620790448266 1.1999999999981688
    vertex 3.5698452630183803 9.7316207904483 1.1999999999985322
  endloop
endfacet
facet normal -7.728104079222427e-14 -1.0564068261407184e-13 -1.0
  outer loop
    vertex -3.179801526192247 1.5593286661896854e-13 1.2000000000002655
    vertex -0.24697701133354263 9.731620790448535 1.1999999999989701
    vertex -0.9999999999999899 9.529230737825855e-14 1.2000000000000153
  endloop
endfacet
facet normal -7.728104079222427e-14 -1.0564068261407184e-13 -1.0
  outer loop
    vertex 3.5698452630183803 9.7316207904483 1.1999999999985322
    vertex -0.9999999999999899 9.529230737825855e-14 1.2000000000000153
    vertex -0.24697701133354263 9.731620790448535 1.1999999999989701
  endloop
endfacet
endsolid working_stargate_mk2_chevron_3_b
Working Stargate Mk2
www.glitch.org.uk