solid STL generated by MeshLab
  facet normal -0.000000e+000 0.000000e+000 1.000000e+000
    outer loop
      vertex  1.593972e+001 1.145309e+000 7.000000e+000
      vertex  4.190000e+001 -5.610000e+000 7.000000e+000
      vertex  1.611400e+001 1.180000e+000 7.000000e+000
    endloop
  endfacet
  facet normal -2.518307e-001 -9.677713e-001 0.000000e+000
    outer loop
      vertex  4.190000e+001 -5.610000e+000 0.000000e+000
      vertex  1.593972e+001 1.145309e+000 7.000000e+000
      vertex  1.593972e+001 1.145309e+000 0.000000e+000
    endloop
  endfacet
  facet normal 1.952287e-001 -9.807577e-001 0.000000e+000
    outer loop
      vertex  1.611400e+001 1.180000e+000 -1.000000e-003
      vertex  1.611400e+001 1.180000e+000 0.000000e+000
      vertex  1.593972e+001 1.145309e+000 0.000000e+000
    endloop
  endfacet
  facet normal 1.952291e-001 -9.807577e-001 6.871986e-005
    outer loop
      vertex  1.611400e+001 1.180000e+000 -1.000000e-003
      vertex  1.593972e+001 1.145309e+000 0.000000e+000
      vertex  1.420000e+001 7.990000e-001 -1.000000e-003
    endloop
  endfacet
  facet normal 1.952291e-001 -9.807577e-001 -1.991880e-008
    outer loop
      vertex  1.420000e+001 7.990000e-001 1.160000e+001
      vertex  1.593972e+001 1.145309e+000 7.000000e+000
      vertex  1.611400e+001 1.180000e+000 1.160000e+001
    endloop
  endfacet
  facet normal 1.952287e-001 -9.807577e-001 0.000000e+000
    outer loop
      vertex  1.611400e+001 1.180000e+000 7.000000e+000
      vertex  1.611400e+001 1.180000e+000 1.160000e+001
      vertex  1.593972e+001 1.145309e+000 7.000000e+000
    endloop
  endfacet
  facet normal 1.952291e-001 -9.807577e-001 0.000000e+000
    outer loop
      vertex  1.420000e+001 7.990000e-001 1.160000e+001
      vertex  1.420000e+001 7.990000e-001 -1.000000e-003
      vertex  1.593972e+001 1.145309e+000 7.000000e+000
    endloop
  endfacet
  facet normal 1.952292e-001 -9.807577e-001 0.000000e+000
    outer loop
      vertex  1.593972e+001 1.145309e+000 0.000000e+000
      vertex  1.593972e+001 1.145309e+000 7.000000e+000
      vertex  1.420000e+001 7.990000e-001 -1.000000e-003
    endloop
  endfacet
  facet normal 5.556462e-001 -8.314188e-001 0.000000e+000
    outer loop
      vertex  1.611400e+001 1.180000e+000 -1.000000e-003
      vertex  1.773600e+001 2.264000e+000 -1.000000e-003
      vertex  1.773600e+001 2.264000e+000 0.000000e+000
    endloop
  endfacet
  facet normal 5.556462e-001 -8.314188e-001 0.000000e+000
    outer loop
      vertex  1.611400e+001 1.180000e+000 -1.000000e-003
      vertex  1.773600e+001 2.264000e+000 0.000000e+000
      vertex  1.611400e+001 1.180000e+000 0.000000e+000
    endloop
  endfacet
  facet normal 5.556462e-001 -8.314188e-001 0.000000e+000
    outer loop
      vertex  1.773600e+001 2.264000e+000 7.000000e+000
      vertex  1.773600e+001 2.264000e+000 1.160000e+001
      vertex  1.611400e+001 1.180000e+000 7.000000e+000
    endloop
  endfacet
  facet normal 5.556462e-001 -8.314188e-001 0.000000e+000
    outer loop
      vertex  1.773600e+001 2.264000e+000 1.160000e+001
      vertex  1.611400e+001 1.180000e+000 1.160000e+001
      vertex  1.611400e+001 1.180000e+000 7.000000e+000
    endloop
  endfacet
  facet normal 8.313939e-001 -5.556834e-001 3.902921e-006
    outer loop
      vertex  1.859772e+001 3.553406e+000 6.762384e+000
      vertex  1.882000e+001 3.886000e+000 1.160000e+001
      vertex  1.859772e+001 3.553408e+000 7.000000e+000
    endloop
  endfacet
  facet normal 8.314202e-001 -5.556442e-001 0.000000e+000
    outer loop
      vertex  1.882000e+001 3.886000e+000 1.160000e+001
      vertex  1.859772e+001 3.553406e+000 6.762384e+000
      vertex  1.882000e+001 3.886000e+000 -1.000000e-003
    endloop
  endfacet
  facet normal 8.314202e-001 -5.556442e-001 0.000000e+000
    outer loop
      vertex  1.859772e+001 3.553406e+000 0.000000e+000
      vertex  1.882000e+001 3.886000e+000 -1.000000e-003
      vertex  1.859772e+001 3.553406e+000 6.762384e+000
    endloop
  endfacet
  facet normal 8.314186e-001 -5.556465e-001 0.000000e+000
    outer loop
      vertex  1.773600e+001 2.264000e+000 0.000000e+000
      vertex  1.773600e+001 2.264000e+000 -1.000000e-003
      vertex  1.859772e+001 3.553406e+000 0.000000e+000
    endloop
  endfacet
  facet normal 8.314186e-001 -5.556458e-001 -8.860271e-004
    outer loop
      vertex  1.882000e+001 3.886000e+000 -1.000000e-003
      vertex  1.859772e+001 3.553406e+000 0.000000e+000
      vertex  1.773600e+001 2.264000e+000 -1.000000e-003
    endloop
  endfacet
  facet normal 8.314189e-001 -5.556460e-001 0.000000e+000
    outer loop
      vertex  1.773600e+001 2.264000e+000 7.000000e+000
      vertex  1.859772e+001 3.553408e+000 7.000000e+000
      vertex  1.773600e+001 2.264000e+000 1.160000e+001
    endloop
  endfacet
  facet normal 8.314190e-001 -5.556460e-001 -6.641884e-009
    outer loop
      vertex  1.882000e+001 3.886000e+000 1.160000e+001
      vertex  1.773600e+001 2.264000e+000 1.160000e+001
      vertex  1.859772e+001 3.553408e+000 7.000000e+000
    endloop
  endfacet
  facet normal 9.808556e-001 -1.947367e-001 0.000000e+000
    outer loop
      vertex  1.920000e+001 5.800000e+000 -1.000000e-003
      vertex  1.920000e+001 5.800000e+000 1.160000e+001
      vertex  1.882000e+001 3.886000e+000 1.160000e+001
    endloop
  endfacet
  facet normal 9.808556e-001 -1.947367e-001 0.000000e+000
    outer loop
      vertex  1.882000e+001 3.886000e+000 1.160000e+001
      vertex  1.882000e+001 3.886000e+000 -1.000000e-003
      vertex  1.920000e+001 5.800000e+000 -1.000000e-003
    endloop
  endfacet
  facet normal 9.808556e-001 1.947368e-001 0.000000e+000
    outer loop
      vertex  1.882000e+001 7.714000e+000 1.160000e+001
      vertex  1.920000e+001 5.800000e+000 -1.000000e-003
      vertex  1.882000e+001 7.714000e+000 -1.000000e-003
    endloop
  endfacet
  facet normal 9.808556e-001 1.947368e-001 0.000000e+000
    outer loop
      vertex  1.920000e+001 5.800000e+000 1.160000e+001
      vertex  1.920000e+001 5.800000e+000 -1.000000e-003
      vertex  1.882000e+001 7.714000e+000 1.160000e+001
    endloop
  endfacet
  facet normal 8.314190e-001 5.556460e-001 0.000000e+000
    outer loop
      vertex  1.882000e+001 7.714000e+000 -1.000000e-003
      vertex  1.773600e+001 9.336000e+000 -1.000000e-003
      vertex  1.773600e+001 9.336000e+000 1.160000e+001
    endloop
  endfacet
  facet normal 8.314190e-001 5.556460e-001 -0.000000e+000
    outer loop
      vertex  1.882000e+001 7.714000e+000 -1.000000e-003
      vertex  1.773600e+001 9.336000e+000 1.160000e+001
      vertex  1.882000e+001 7.714000e+000 1.160000e+001
    endloop
  endfacet
  facet normal 5.556461e-001 8.314189e-001 0.000000e+000
    outer loop
      vertex  1.773600e+001 9.336000e+000 -1.000000e-003
      vertex  1.611400e+001 1.042000e+001 -1.000000e-003
      vertex  1.611400e+001 1.042000e+001 1.160000e+001
    endloop
  endfacet
  facet normal 5.556461e-001 8.314189e-001 -0.000000e+000
    outer loop
      vertex  1.773600e+001 9.336000e+000 -1.000000e-003
      vertex  1.611400e+001 1.042000e+001 1.160000e+001
      vertex  1.773600e+001 9.336000e+000 1.160000e+001
    endloop
  endfacet
  facet normal 1.952289e-001 9.807577e-001 0.000000e+000
    outer loop
      vertex  1.611400e+001 1.042000e+001 -1.000000e-003
      vertex  1.420000e+001 1.080100e+001 -1.000000e-003
      vertex  1.420000e+001 1.080100e+001 1.160000e+001
    endloop
  endfacet
  facet normal 1.952289e-001 9.807577e-001 -0.000000e+000
    outer loop
      vertex  1.611400e+001 1.042000e+001 -1.000000e-003
      vertex  1.420000e+001 1.080100e+001 1.160000e+001
      vertex  1.611400e+001 1.042000e+001 1.160000e+001
    endloop
  endfacet
  facet normal -1.952290e-001 9.807577e-001 0.000000e+000
    outer loop
      vertex  1.420000e+001 1.080100e+001 -1.000000e-003
      vertex  1.228600e+001 1.042000e+001 -1.000000e-003
      vertex  1.228600e+001 1.042000e+001 1.160000e+001
    endloop
  endfacet
  facet normal -1.952290e-001 9.807577e-001 0.000000e+000
    outer loop
      vertex  1.420000e+001 1.080100e+001 -1.000000e-003
      vertex  1.228600e+001 1.042000e+001 1.160000e+001
      vertex  1.420000e+001 1.080100e+001 1.160000e+001
    endloop
  endfacet
  facet normal 0.000000e+000 0.000000e+000 1.000000e+000
    outer loop
      vertex  4.190000e+001 -5.610000e+000 7.000000e+000
      vertex  1.859772e+001 3.553408e+000 7.000000e+000
      vertex  1.773600e+001 2.264000e+000 7.000000e+000
    endloop
  endfacet
  facet normal 2.518274e-001 9.677722e-001 0.000000e+000
    outer loop
      vertex  1.859772e+001 3.553406e+000 6.762384e+000
      vertex  3.412500e+001 -4.870000e-001 2.000000e+000
      vertex  1.859772e+001 3.553406e+000 0.000000e+000
    endloop
  endfacet
  facet normal 0.000000e+000 -0.000000e+000 1.000000e+000
    outer loop
      vertex  1.636800e+001 7.052000e+000 1.160000e+001
      vertex  1.773600e+001 9.336000e+000 1.160000e+001
      vertex  1.545100e+001 7.968000e+000 1.160000e+001
    endloop
  endfacet
  facet normal 0.000000e+000 0.000000e+000 1.000000e+000
    outer loop
      vertex  1.228600e+001 1.042000e+001 1.160000e+001
      vertex  1.066400e+001 9.336000e+000 1.160000e+001
      vertex  1.294800e+001 7.968000e+000 1.160000e+001
    endloop
  endfacet
  facet normal 0.000000e+000 -0.000000e+000 1.000000e+000
    outer loop
      vertex  1.203200e+001 7.052000e+000 1.160000e+001
      vertex  1.294800e+001 7.968000e+000 1.160000e+001
      vertex  1.066400e+001 9.336000e+000 1.160000e+001
    endloop
  endfacet
  facet normal 0.000000e+000 -0.000000e+000 1.000000e+000
    outer loop
      vertex  1.294800e+001 7.968000e+000 1.160000e+001
      vertex  1.420000e+001 8.303000e+000 1.160000e+001
      vertex  1.228600e+001 1.042000e+001 1.160000e+001
    endloop
  endfacet
  facet normal 0.000000e+000 0.000000e+000 1.000000e+000
    outer loop
      vertex  1.420000e+001 1.080100e+001 1.160000e+001
      vertex  1.228600e+001 1.042000e+001 1.160000e+001
      vertex  1.420000e+001 8.303000e+000 1.160000e+001
    endloop
  endfacet
  facet normal 0.000000e+000 -0.000000e+000 1.000000e+000
    outer loop
      vertex  1.545100e+001 7.968000e+000 1.160000e+001
      vertex  1.611400e+001 1.042000e+001 1.160000e+001
      vertex  1.420000e+001 8.303000e+000 1.160000e+001
    endloop
  endfacet
  facet normal 0.000000e+000 0.000000e+000 1.000000e+000
    outer loop
      vertex  1.420000e+001 1.080100e+001 1.160000e+001
      vertex  1.420000e+001 8.303000e+000 1.160000e+001
      vertex  1.611400e+001 1.042000e+001 1.160000e+001
    endloop
  endfacet
  facet normal 0.000000e+000 0.000000e+000 1.000000e+000
    outer loop
      vertex  1.670300e+001 5.800000e+000 1.160000e+001
      vertex  1.636800e+001 4.549000e+000 1.160000e+001
      vertex  1.882000e+001 3.886000e+000 1.160000e+001
    endloop
  endfacet
  facet normal 0.000000e+000 -0.000000e+000 1.000000e+000
    outer loop
      vertex  1.773600e+001 2.264000e+000 1.160000e+001
      vertex  1.882000e+001 3.886000e+000 1.160000e+001
      vertex  1.636800e+001 4.549000e+000 1.160000e+001
    endloop
  endfacet
  facet normal 0.000000e+000 -0.000000e+000 1.000000e+000
    outer loop
      vertex  1.882000e+001 3.886000e+000 1.160000e+001
      vertex  1.920000e+001 5.800000e+000 1.160000e+001
      vertex  1.670300e+001 5.800000e+000 1.160000e+001
    endloop
  endfacet
  facet normal 0.000000e+000 0.000000e+000 1.000000e+000
    outer loop
      vertex  1.920000e+001 5.800000e+000 1.160000e+001
      vertex  1.882000e+001 7.714000e+000 1.160000e+001
      vertex  1.670300e+001 5.800000e+000 1.160000e+001
    endloop
  endfacet
  facet normal -0.000000e+000 0.000000e+000 1.000000e+000
    outer loop
      vertex  1.636800e+001 7.052000e+000 1.160000e+001
      vertex  1.670300e+001 5.800000e+000 1.160000e+001
      vertex  1.882000e+001 7.714000e+000 1.160000e+001
    endloop
  endfacet
  facet normal 0.000000e+000 0.000000e+000 1.000000e+000
    outer loop
      vertex  1.773600e+001 9.336000e+000 1.160000e+001
      vertex  1.636800e+001 7.052000e+000 1.160000e+001
      vertex  1.882000e+001 7.714000e+000 1.160000e+001
    endloop
  endfacet
  facet normal 0.000000e+000 0.000000e+000 1.000000e+000
    outer loop
      vertex  1.611400e+001 1.042000e+001 1.160000e+001
      vertex  1.545100e+001 7.968000e+000 1.160000e+001
      vertex  1.773600e+001 9.336000e+000 1.160000e+001
    endloop
  endfacet
  facet normal -0.000000e+000 0.000000e+000 1.000000e+000
    outer loop
      vertex  1.545100e+001 3.632000e+000 1.160000e+001
      vertex  1.773600e+001 2.264000e+000 1.160000e+001
      vertex  1.636800e+001 4.549000e+000 1.160000e+001
    endloop
  endfacet
  facet normal 0.000000e+000 0.000000e+000 1.000000e+000
    outer loop
      vertex  1.420000e+001 3.297000e+000 1.160000e+001
      vertex  1.294800e+001 3.632000e+000 1.160000e+001
      vertex  1.228600e+001 1.180000e+000 1.160000e+001
    endloop
  endfacet
  facet normal -0.000000e+000 0.000000e+000 1.000000e+000
    outer loop
      vertex  1.066400e+001 2.264000e+000 1.160000e+001
      vertex  1.228600e+001 1.180000e+000 1.160000e+001
      vertex  1.294800e+001 3.632000e+000 1.160000e+001
    endloop
  endfacet
  facet normal -0.000000e+000 0.000000e+000 1.000000e+000
    outer loop
      vertex  1.228600e+001 1.180000e+000 1.160000e+001
      vertex  1.420000e+001 7.990000e-001 1.160000e+001
      vertex  1.420000e+001 3.297000e+000 1.160000e+001
    endloop
  endfacet
  facet normal -0.000000e+000 0.000000e+000 1.000000e+000
    outer loop
      vertex  1.420000e+001 3.297000e+000 1.160000e+001
      vertex  1.611400e+001 1.180000e+000 1.160000e+001
      vertex  1.545100e+001 3.632000e+000 1.160000e+001
    endloop
  endfacet
  facet normal 0.000000e+000 0.000000e+000 1.000000e+000
    outer loop
      vertex  1.611400e+001 1.180000e+000 1.160000e+001
      vertex  1.420000e+001 3.297000e+000 1.160000e+001
      vertex  1.420000e+001 7.990000e-001 1.160000e+001
    endloop
  endfacet
  facet normal 0.000000e+000 0.000000e+000 1.000000e+000
    outer loop
      vertex  1.773600e+001 2.264000e+000 1.160000e+001
      vertex  1.545100e+001 3.632000e+000 1.160000e+001
      vertex  1.611400e+001 1.180000e+000 1.160000e+001
    endloop
  endfacet
  facet normal 0.000000e+000 0.000000e+000 1.000000e+000
    outer loop
      vertex  1.066400e+001 2.264000e+000 1.160000e+001
      vertex  1.294800e+001 3.632000e+000 1.160000e+001
      vertex  1.203200e+001 4.549000e+000 1.160000e+001
    endloop
  endfacet
  facet normal -0.000000e+000 0.000000e+000 1.000000e+000
    outer loop
      vertex  9.200000e+000 5.800000e+000 1.160000e+001
      vertex  9.580000e+000 3.886000e+000 1.160000e+001
      vertex  1.169700e+001 5.800000e+000 1.160000e+001
    endloop
  endfacet
  facet normal 0.000000e+000 0.000000e+000 1.000000e+000
    outer loop
      vertex  1.066400e+001 9.336000e+000 1.160000e+001
      vertex  9.580000e+000 7.714000e+000 1.160000e+001
      vertex  1.203200e+001 7.052000e+000 1.160000e+001
    endloop
  endfacet
  facet normal 0.000000e+000 -0.000000e+000 1.000000e+000
    outer loop
      vertex  1.169700e+001 5.800000e+000 1.160000e+001
      vertex  1.203200e+001 7.052000e+000 1.160000e+001
      vertex  9.580000e+000 7.714000e+000 1.160000e+001
    endloop
  endfacet
  facet normal 0.000000e+000 0.000000e+000 1.000000e+000
    outer loop
      vertex  9.580000e+000 7.714000e+000 1.160000e+001
      vertex  9.200000e+000 5.800000e+000 1.160000e+001
      vertex  1.169700e+001 5.800000e+000 1.160000e+001
    endloop
  endfacet
  facet normal 0.000000e+000 0.000000e+000 1.000000e+000
    outer loop
      vertex  1.203200e+001 4.549000e+000 1.160000e+001
      vertex  1.169700e+001 5.800000e+000 1.160000e+001
      vertex  9.580000e+000 3.886000e+000 1.160000e+001
    endloop
  endfacet
  facet normal 0.000000e+000 -0.000000e+000 1.000000e+000
    outer loop
      vertex  1.066400e+001 2.264000e+000 1.160000e+001
      vertex  1.203200e+001 4.549000e+000 1.160000e+001
      vertex  9.580000e+000 3.886000e+000 1.160000e+001
    endloop
  endfacet
  facet normal 0.000000e+000 0.000000e+000 1.000000e+000
    outer loop
      vertex  1.066400e+001 2.264000e+000 7.000000e+000
      vertex  9.580000e+000 3.886000e+000 7.000000e+000
      vertex  -2.960000e+001 -5.610000e+000 7.000000e+000
    endloop
  endfacet
  facet normal -9.810548e-001 -1.937303e-001 0.000000e+000
    outer loop
      vertex  9.580000e+000 3.886000e+000 -1.000000e-003
      vertex  9.580000e+000 3.886000e+000 0.000000e+000
      vertex  9.579922e+000 3.886396e+000 0.000000e+000
    endloop
  endfacet
  facet normal -9.808555e-001 -1.947362e-001 4.139562e-004
    outer loop
      vertex  9.580000e+000 3.886000e+000 -1.000000e-003
      vertex  9.579922e+000 3.886396e+000 0.000000e+000
      vertex  9.200000e+000 5.800000e+000 -1.000000e-003
    endloop
  endfacet
  facet normal -9.808556e-001 -1.947362e-001 -9.296369e-008
    outer loop
      vertex  9.200000e+000 5.800000e+000 1.160000e+001
      vertex  9.579922e+000 3.886396e+000 7.000000e+000
      vertex  9.580000e+000 3.886000e+000 1.160000e+001
    endloop
  endfacet
  facet normal -9.810548e-001 -1.937303e-001 0.000000e+000
    outer loop
      vertex  9.580000e+000 3.886000e+000 7.000000e+000
      vertex  9.580000e+000 3.886000e+000 1.160000e+001
      vertex  9.579922e+000 3.886396e+000 7.000000e+000
    endloop
  endfacet
  facet normal -9.808556e-001 -1.947365e-001 -0.000000e+000
    outer loop
      vertex  9.200000e+000 5.800000e+000 1.160000e+001
      vertex  9.200000e+000 5.800000e+000 -1.000000e-003
      vertex  9.579922e+000 3.886396e+000 7.000000e+000
    endloop
  endfacet
  facet normal -9.808556e-001 -1.947365e-001 -0.000000e+000
    outer loop
      vertex  9.579922e+000 3.886396e+000 7.000000e+000
      vertex  9.200000e+000 5.800000e+000 -1.000000e-003
      vertex  9.579922e+000 3.886396e+000 0.000000e+000
    endloop
  endfacet
  facet normal -0.000000e+000 0.000000e+000 -1.000000e+000
    outer loop
      vertex  1.215110e+001 1.270153e+000 0.000000e+000
      vertex  -2.960000e+001 -5.610000e+000 0.000000e+000
      vertex  1.066400e+001 2.264000e+000 0.000000e+000
    endloop
  endfacet
  facet normal 0.000000e+000 -0.000000e+000 -1.000000e+000
    outer loop
      vertex  9.580000e+000 3.886000e+000 0.000000e+000
      vertex  1.066400e+001 2.264000e+000 0.000000e+000
      vertex  -2.960000e+001 -5.610000e+000 0.000000e+000
    endloop
  endfacet
  facet normal 1.625968e-001 -9.866925e-001 0.000000e+000
    outer loop
      vertex  1.215110e+001 1.270153e+000 7.000000e+000
      vertex  -2.960000e+001 -5.610000e+000 7.000000e+000
      vertex  1.215110e+001 1.270153e+000 0.000000e+000
    endloop
  endfacet
  facet normal -8.314189e-001 -5.556460e-001 0.000000e+000
    outer loop
      vertex  9.580000e+000 3.886000e+000 -1.000000e-003
      vertex  1.066400e+001 2.264000e+000 -1.000000e-003
      vertex  1.066400e+001 2.264000e+000 0.000000e+000
    endloop
  endfacet
  facet normal -8.314189e-001 -5.556460e-001 0.000000e+000
    outer loop
      vertex  9.580000e+000 3.886000e+000 -1.000000e-003
      vertex  1.066400e+001 2.264000e+000 0.000000e+000
      vertex  9.580000e+000 3.886000e+000 0.000000e+000
    endloop
  endfacet
  facet normal -8.314190e-001 -5.556460e-001 0.000000e+000
    outer loop
      vertex  9.580000e+000 3.886000e+000 7.000000e+000
      vertex  1.066400e+001 2.264000e+000 1.160000e+001
      vertex  9.580000e+000 3.886000e+000 1.160000e+001
    endloop
  endfacet
  facet normal -8.314190e-001 -5.556460e-001 -0.000000e+000
    outer loop
      vertex  1.066400e+001 2.264000e+000 1.160000e+001
      vertex  9.580000e+000 3.886000e+000 7.000000e+000
      vertex  1.066400e+001 2.264000e+000 7.000000e+000
    endloop
  endfacet
  facet normal 0.000000e+000 0.000000e+000 1.000000e+000
    outer loop
      vertex  -2.960000e+001 -5.610000e+000 7.000000e+000
      vertex  1.215110e+001 1.270153e+000 7.000000e+000
      vertex  1.066400e+001 2.264000e+000 7.000000e+000
    endloop
  endfacet
  facet normal -5.556460e-001 -8.314189e-001 -0.000000e+000
    outer loop
      vertex  1.066400e+001 2.264000e+000 0.000000e+000
      vertex  1.066400e+001 2.264000e+000 -1.000000e-003
      vertex  1.215110e+001 1.270153e+000 0.000000e+000
    endloop
  endfacet
  facet normal -5.556455e-001 -8.314193e-001 0.000000e+000
    outer loop
      vertex  1.215110e+001 1.270153e+000 7.000000e+000
      vertex  1.228600e+001 1.180000e+000 -1.000000e-003
      vertex  1.228600e+001 1.180000e+000 1.160000e+001
    endloop
  endfacet
  facet normal -5.556455e-001 -8.314193e-001 -0.000000e+000
    outer loop
      vertex  1.215110e+001 1.270153e+000 7.000000e+000
      vertex  1.215110e+001 1.270153e+000 0.000000e+000
      vertex  1.228600e+001 1.180000e+000 -1.000000e-003
    endloop
  endfacet
  facet normal -5.556459e-001 -8.314191e-001 -1.069343e-004
    outer loop
      vertex  1.228600e+001 1.180000e+000 -1.000000e-003
      vertex  1.215110e+001 1.270153e+000 0.000000e+000
      vertex  1.066400e+001 2.264000e+000 -1.000000e-003
    endloop
  endfacet
  facet normal -5.556461e-001 -8.314190e-001 0.000000e+000
    outer loop
      vertex  1.066400e+001 2.264000e+000 7.000000e+000
      vertex  1.215110e+001 1.270153e+000 7.000000e+000
      vertex  1.066400e+001 2.264000e+000 1.160000e+001
    endloop
  endfacet
  facet normal -5.556460e-001 -8.314189e-001 2.324659e-008
    outer loop
      vertex  1.228600e+001 1.180000e+000 1.160000e+001
      vertex  1.066400e+001 2.264000e+000 1.160000e+001
      vertex  1.215110e+001 1.270153e+000 7.000000e+000
    endloop
  endfacet
  facet normal -1.952292e-001 -9.807577e-001 -0.000000e+000
    outer loop
      vertex  1.228600e+001 1.180000e+000 1.160000e+001
      vertex  1.228600e+001 1.180000e+000 -1.000000e-003
      vertex  1.420000e+001 7.990000e-001 1.160000e+001
    endloop
  endfacet
  facet normal -1.952292e-001 -9.807577e-001 0.000000e+000
    outer loop
      vertex  1.420000e+001 7.990000e-001 -1.000000e-003
      vertex  1.420000e+001 7.990000e-001 1.160000e+001
      vertex  1.228600e+001 1.180000e+000 -1.000000e-003
    endloop
  endfacet
  facet normal 0.000000e+000 0.000000e+000 -1.000000e+000
    outer loop
      vertex  4.190000e+001 -5.610000e+000 0.000000e+000
      vertex  1.593972e+001 1.145309e+000 0.000000e+000
      vertex  1.611400e+001 1.180000e+000 0.000000e+000
    endloop
  endfacet
  facet normal 0.000000e+000 -0.000000e+000 -1.000000e+000
    outer loop
      vertex  1.773600e+001 2.264000e+000 0.000000e+000
      vertex  3.412500e+001 -4.870000e-001 0.000000e+000
      vertex  1.611400e+001 1.180000e+000 0.000000e+000
    endloop
  endfacet
  facet normal -0.000000e+000 0.000000e+000 1.000000e+000
    outer loop
      vertex  1.611400e+001 1.180000e+000 7.000000e+000
      vertex  4.190000e+001 -5.610000e+000 7.000000e+000
      vertex  1.773600e+001 2.264000e+000 7.000000e+000
    endloop
  endfacet
  facet normal -1.000000e+000 0.000000e+000 -0.000000e+000
    outer loop
      vertex  4.190000e+001 -9.811000e+000 2.176000e+000
      vertex  4.190000e+001 -9.528000e+000 2.063000e+000
      vertex  4.190000e+001 -1.261100e+001 0.000000e+000
    endloop
  endfacet
  facet normal 5.057662e-003 9.693291e-001 -2.457142e-001
    outer loop
      vertex  4.490100e+001 -1.048300e+001 4.094000e+000
      vertex  4.490100e+001 -1.059200e+001 3.664000e+000
      vertex  4.190000e+001 -1.060600e+001 3.547000e+000
    endloop
  endfacet
  facet normal -5.807025e-003 9.058216e-001 4.236194e-001
    outer loop
      vertex  4.490100e+001 -1.053600e+001 3.061000e+000
      vertex  4.490100e+001 -1.034800e+001 2.659000e+000
      vertex  4.190000e+001 -1.044300e+001 2.821000e+000
    endloop
  endfacet
  facet normal -8.249982e-003 9.956815e-001 9.246754e-002
    outer loop
      vertex  4.190000e+001 -1.060600e+001 3.547000e+000
      vertex  4.490100e+001 -1.059200e+001 3.664000e+000
      vertex  4.490100e+001 -1.053600e+001 3.061000e+000
    endloop
  endfacet
  facet normal 1.271672e-002 9.756314e-001 2.190469e-001
    outer loop
      vertex  4.190000e+001 -1.060600e+001 3.547000e+000
      vertex  4.490100e+001 -1.053600e+001 3.061000e+000
      vertex  4.190000e+001 -1.044300e+001 2.821000e+000
    endloop
  endfacet
  facet normal 7.644865e-003 7.943344e-001 6.074327e-001
    outer loop
      vertex  4.190000e+001 -1.044300e+001 2.821000e+000
      vertex  4.490100e+001 -1.034800e+001 2.659000e+000
      vertex  4.190000e+001 -1.013100e+001 2.413000e+000
    endloop
  endfacet
  facet normal 2.457737e-003 5.951660e-001 8.035990e-001
    outer loop
      vertex  4.190000e+001 -9.811000e+000 2.176000e+000
      vertex  4.190000e+001 -1.013100e+001 2.413000e+000
      vertex  4.490100e+001 -9.872000e+000 2.212000e+000
    endloop
  endfacet
  facet normal -1.025507e-002 6.845163e-001 7.289253e-001
    outer loop
      vertex  4.490100e+001 -9.872000e+000 2.212000e+000
      vertex  4.190000e+001 -1.013100e+001 2.413000e+000
      vertex  4.490100e+001 -1.034800e+001 2.659000e+000
    endloop
  endfacet
  facet normal 3.171914e-003 -5.089961e-001 8.607630e-001
    outer loop
      vertex  4.490100e+001 -8.269000e+000 2.262000e+000
      vertex  4.190000e+001 -8.193000e+000 2.318000e+000
      vertex  4.190000e+001 -8.516000e+000 2.127000e+000
    endloop
  endfacet
  facet normal 0.000000e+000 6.952344e-002 9.975803e-001
    outer loop
      vertex  4.190000e+001 -8.911000e+000 2.020000e+000
      vertex  4.190000e+001 -9.528000e+000 2.063000e+000
      vertex  4.490100e+001 -9.528000e+000 2.063000e+000
    endloop
  endfacet
  facet normal -0.000000e+000 6.952344e-002 9.975803e-001
    outer loop
      vertex  4.190000e+001 -8.911000e+000 2.020000e+000
      vertex  4.490100e+001 -9.528000e+000 2.063000e+000
      vertex  4.490100e+001 -8.911000e+000 2.020000e+000
    endloop
  endfacet
  facet normal 0.000000e+000 -2.614629e-001 9.652135e-001
    outer loop
      vertex  4.190000e+001 -8.516000e+000 2.127000e+000
      vertex  4.190000e+001 -8.911000e+000 2.020000e+000
      vertex  4.490100e+001 -8.911000e+000 2.020000e+000
    endloop
  endfacet
  facet normal -1.306172e-002 -3.526902e-001 9.356490e-001
    outer loop
      vertex  4.490100e+001 -8.269000e+000 2.262000e+000
      vertex  4.190000e+001 -8.516000e+000 2.127000e+000
      vertex  4.490100e+001 -8.911000e+000 2.020000e+000
    endloop
  endfacet
  facet normal -0.000000e+000 3.974577e-001 9.176205e-001
    outer loop
      vertex  4.190000e+001 -9.528000e+000 2.063000e+000
      vertex  4.490100e+001 -9.872000e+000 2.212000e+000
      vertex  4.490100e+001 -9.528000e+000 2.063000e+000
    endloop
  endfacet
  facet normal -3.603041e-003 3.708228e-001 9.286966e-001
    outer loop
      vertex  4.190000e+001 -9.528000e+000 2.063000e+000
      vertex  4.190000e+001 -9.811000e+000 2.176000e+000
      vertex  4.490100e+001 -9.872000e+000 2.212000e+000
    endloop
  endfacet
  facet normal 0.000000e+000 -0.000000e+000 1.000000e+000
    outer loop
      vertex  4.190000e+001 -5.610000e+000 7.000000e+000
      vertex  4.490100e+001 -3.291000e+000 7.000000e+000
      vertex  1.859772e+001 3.553408e+000 7.000000e+000
    endloop
  endfacet
  facet normal 2.518254e-001 9.677727e-001 -6.797289e-006
    outer loop
      vertex  1.859772e+001 3.553406e+000 6.762384e+000
      vertex  1.859772e+001 3.553408e+000 7.000000e+000
      vertex  3.412500e+001 -4.870000e-001 2.000000e+000
    endloop
  endfacet
  facet normal -2.518307e-001 -9.677713e-001 -0.000000e+000
    outer loop
      vertex  4.190000e+001 -5.610000e+000 7.000000e+000
      vertex  1.593972e+001 1.145309e+000 7.000000e+000
      vertex  4.190000e+001 -5.610000e+000 0.000000e+000
    endloop
  endfacet
  facet normal 0.000000e+000 0.000000e+000 -1.000000e+000
    outer loop
      vertex  1.420000e+001 8.303000e+000 -1.000000e-003
      vertex  1.611400e+001 1.042000e+001 -1.000000e-003
      vertex  1.545100e+001 7.968000e+000 -1.000000e-003
    endloop
  endfacet
  facet normal 0.000000e+000 0.000000e+000 -1.000000e+000
    outer loop
      vertex  9.200000e+000 5.800000e+000 -1.000000e-003
      vertex  9.580000e+000 7.714000e+000 -1.000000e-003
      vertex  1.169700e+001 5.800000e+000 -1.000000e-003
    endloop
  endfacet
  facet normal -0.000000e+000 0.000000e+000 -1.000000e+000
    outer loop
      vertex  1.420000e+001 3.297000e+000 -1.000000e-003
      vertex  1.228600e+001 1.180000e+000 -1.000000e-003
      vertex  1.294800e+001 3.632000e+000 -1.000000e-003
    endloop
  endfacet
  facet normal 0.000000e+000 -0.000000e+000 -1.000000e+000
    outer loop
      vertex  1.670300e+001 5.800000e+000 -1.000000e-003
      vertex  1.882000e+001 3.886000e+000 -1.000000e-003
      vertex  1.636800e+001 4.549000e+000 -1.000000e-003
    endloop
  endfacet
  facet normal 0.000000e+000 -0.000000e+000 -1.000000e+000
    outer loop
      vertex  1.611400e+001 1.042000e+001 -1.000000e-003
      vertex  1.773600e+001 9.336000e+000 -1.000000e-003
      vertex  1.545100e+001 7.968000e+000 -1.000000e-003
    endloop
  endfacet
  facet normal 0.000000e+000 0.000000e+000 -1.000000e+000
    outer loop
      vertex  1.294800e+001 7.968000e+000 -1.000000e-003
      vertex  1.228600e+001 1.042000e+001 -1.000000e-003
      vertex  1.420000e+001 8.303000e+000 -1.000000e-003
    endloop
  endfacet
  facet normal 0.000000e+000 0.000000e+000 -1.000000e+000
    outer loop
      vertex  1.228600e+001 1.042000e+001 -1.000000e-003
      vertex  1.420000e+001 1.080100e+001 -1.000000e-003
      vertex  1.420000e+001 8.303000e+000 -1.000000e-003
    endloop
  endfacet
  facet normal -0.000000e+000 0.000000e+000 -1.000000e+000
    outer loop
      vertex  1.611400e+001 1.042000e+001 -1.000000e-003
      vertex  1.420000e+001 8.303000e+000 -1.000000e-003
      vertex  1.420000e+001 1.080100e+001 -1.000000e-003
    endloop
  endfacet
  facet normal -0.000000e+000 0.000000e+000 -1.000000e+000
    outer loop
      vertex  1.882000e+001 3.886000e+000 -1.000000e-003
      vertex  1.773600e+001 2.264000e+000 -1.000000e-003
      vertex  1.636800e+001 4.549000e+000 -1.000000e-003
    endloop
  endfacet
  facet normal 0.000000e+000 -0.000000e+000 -1.000000e+000
    outer loop
      vertex  1.773600e+001 9.336000e+000 -1.000000e-003
      vertex  1.882000e+001 7.714000e+000 -1.000000e-003
      vertex  1.636800e+001 7.052000e+000 -1.000000e-003
    endloop
  endfacet
  facet normal 0.000000e+000 0.000000e+000 -1.000000e+000
    outer loop
      vertex  1.636800e+001 7.052000e+000 -1.000000e-003
      vertex  1.545100e+001 7.968000e+000 -1.000000e-003
      vertex  1.773600e+001 9.336000e+000 -1.000000e-003
    endloop
  endfacet
  facet normal 0.000000e+000 0.000000e+000 -1.000000e+000
    outer loop
      vertex  1.636800e+001 7.052000e+000 -1.000000e-003
      vertex  1.882000e+001 7.714000e+000 -1.000000e-003
      vertex  1.670300e+001 5.800000e+000 -1.000000e-003
    endloop
  endfacet
  facet normal 0.000000e+000 0.000000e+000 -1.000000e+000
    outer loop
      vertex  1.920000e+001 5.800000e+000 -1.000000e-003
      vertex  1.670300e+001 5.800000e+000 -1.000000e-003
      vertex  1.882000e+001 7.714000e+000 -1.000000e-003
    endloop
  endfacet
  facet normal 0.000000e+000 0.000000e+000 -1.000000e+000
    outer loop
      vertex  1.882000e+001 3.886000e+000 -1.000000e-003
      vertex  1.670300e+001 5.800000e+000 -1.000000e-003
      vertex  1.920000e+001 5.800000e+000 -1.000000e-003
    endloop
  endfacet
  facet normal -7.834600e-003 -9.954890e-001 -9.455356e-002
    outer loop
      vertex  4.190000e+001 -7.632000e+000 3.734000e+000
      vertex  4.490100e+001 -7.620000e+000 3.359000e+000
      vertex  4.490100e+001 -7.673000e+000 3.917000e+000
    endloop
  endfacet
  facet normal -6.526820e-004 -9.665182e-001 2.565975e-001
    outer loop
      vertex  4.190000e+001 -7.627000e+000 3.325000e+000
      vertex  4.490100e+001 -7.740000e+000 2.907000e+000
      vertex  4.490100e+001 -7.620000e+000 3.359000e+000
    endloop
  endfacet
  facet normal -1.051459e-003 -9.672233e-001 2.539252e-001
    outer loop
      vertex  4.190000e+001 -7.627000e+000 3.325000e+000
      vertex  4.190000e+001 -7.737000e+000 2.906000e+000
      vertex  4.490100e+001 -7.740000e+000 2.907000e+000
    endloop
  endfacet
  facet normal 2.470860e-003 -9.999222e-001 -1.222427e-002
    outer loop
      vertex  4.190000e+001 -7.627000e+000 3.325000e+000
      vertex  4.490100e+001 -7.620000e+000 3.359000e+000
      vertex  4.190000e+001 -7.632000e+000 3.734000e+000
    endloop
  endfacet
  facet normal -1.030057e-003 -8.607669e-001 5.089985e-001
    outer loop
      vertex  4.190000e+001 -7.928000e+000 2.583000e+000
      vertex  4.490100e+001 -7.740000e+000 2.907000e+000
      vertex  4.190000e+001 -7.737000e+000 2.906000e+000
    endloop
  endfacet
  facet normal 1.198264e-003 -8.697158e-001 4.935515e-001
    outer loop
      vertex  4.190000e+001 -7.928000e+000 2.583000e+000
      vertex  4.490100e+001 -7.925000e+000 2.581000e+000
      vertex  4.490100e+001 -7.740000e+000 2.907000e+000
    endloop
  endfacet
  facet normal 1.178032e-003 -7.071063e-001 7.071063e-001
    outer loop
      vertex  4.490100e+001 -7.925000e+000 2.581000e+000
      vertex  4.190000e+001 -7.928000e+000 2.583000e+000
      vertex  4.190000e+001 -8.193000e+000 2.318000e+000
    endloop
  endfacet
  facet normal -3.537207e-003 -6.799563e-001 7.332441e-001
    outer loop
      vertex  4.190000e+001 -8.193000e+000 2.318000e+000
      vertex  4.490100e+001 -8.269000e+000 2.262000e+000
      vertex  4.490100e+001 -7.925000e+000 2.581000e+000
    endloop
  endfacet
  facet normal 2.518949e-001 9.677546e-001 -1.673035e-004
    outer loop
      vertex  4.490100e+001 -3.291000e+000 7.000000e+000
      vertex  3.606900e+001 -9.930000e-001 2.000000e+000
      vertex  3.412500e+001 -4.870000e-001 2.000000e+000
    endloop
  endfacet
  facet normal 2.518253e-001 9.677727e-001 -7.073822e-006
    outer loop
      vertex  3.412500e+001 -4.870000e-001 2.000000e+000
      vertex  1.859772e+001 3.553408e+000 7.000000e+000
      vertex  4.490100e+001 -3.291000e+000 7.000000e+000
    endloop
  endfacet
  facet normal 2.519749e-001 9.677337e-001 0.000000e+000
    outer loop
      vertex  3.994800e+001 -2.003000e+000 2.000000e+000
      vertex  3.994800e+001 -2.003000e+000 0.000000e+000
      vertex  3.606900e+001 -9.930000e-001 0.000000e+000
    endloop
  endfacet
  facet normal 2.519749e-001 9.677337e-001 0.000000e+000
    outer loop
      vertex  3.994800e+001 -2.003000e+000 2.000000e+000
      vertex  3.606900e+001 -9.930000e-001 0.000000e+000
      vertex  3.606900e+001 -9.930000e-001 2.000000e+000
    endloop
  endfacet
  facet normal -1.000000e+000 0.000000e+000 0.000000e+000
    outer loop
      vertex  3.412500e+001 4.360000e+000 0.000000e+000
      vertex  3.412500e+001 -4.870000e-001 0.000000e+000
      vertex  3.412500e+001 -4.870000e-001 2.000000e+000
    endloop
  endfacet
  facet normal 2.518274e-001 9.677722e-001 0.000000e+000
    outer loop
      vertex  1.859772e+001 3.553406e+000 0.000000e+000
      vertex  3.412500e+001 -4.870000e-001 2.000000e+000
      vertex  3.412500e+001 -4.870000e-001 0.000000e+000
    endloop
  endfacet
  facet normal -1.000000e+000 0.000000e+000 0.000000e+000
    outer loop
      vertex  4.190000e+001 -1.261100e+001 7.000000e+000
      vertex  4.190000e+001 -1.002000e+001 4.673000e+000
      vertex  4.190000e+001 -1.039800e+001 4.262000e+000
    endloop
  endfacet
  facet normal -1.000000e+000 0.000000e+000 0.000000e+000
    outer loop
      vertex  4.190000e+001 -1.002000e+001 4.673000e+000
      vertex  4.190000e+001 -1.261100e+001 7.000000e+000
      vertex  4.190000e+001 -9.528000e+000 4.937000e+000
    endloop
  endfacet
  facet normal -1.000000e+000 0.000000e+000 0.000000e+000
    outer loop
      vertex  4.190000e+001 -8.516000e+000 4.873000e+000
      vertex  4.190000e+001 -5.610000e+000 7.000000e+000
      vertex  4.190000e+001 -8.193000e+000 4.682000e+000
    endloop
  endfacet
  facet normal -1.000000e+000 0.000000e+000 0.000000e+000
    outer loop
      vertex  4.190000e+001 -8.516000e+000 4.873000e+000
      vertex  4.190000e+001 -8.876000e+000 4.978000e+000
      vertex  4.190000e+001 -5.610000e+000 7.000000e+000
    endloop
  endfacet
  facet normal -1.000000e+000 0.000000e+000 0.000000e+000
    outer loop
      vertex  4.190000e+001 -9.528000e+000 4.937000e+000
      vertex  4.190000e+001 -1.261100e+001 7.000000e+000
      vertex  4.190000e+001 -8.876000e+000 4.978000e+000
    endloop
  endfacet
  facet normal -1.000000e+000 -0.000000e+000 0.000000e+000
    outer loop
      vertex  4.190000e+001 -5.610000e+000 7.000000e+000
      vertex  4.190000e+001 -8.876000e+000 4.978000e+000
      vertex  4.190000e+001 -1.261100e+001 7.000000e+000
    endloop
  endfacet
  facet normal -1.704608e-002 7.359315e-001 -6.768413e-001
    outer loop
      vertex  4.190000e+001 -1.002000e+001 4.673000e+000
      vertex  4.490100e+001 -1.048300e+001 4.094000e+000
      vertex  4.190000e+001 -1.039800e+001 4.262000e+000
    endloop
  endfacet
  facet normal 3.768763e-003 5.089951e-001 -8.607612e-001
    outer loop
      vertex  4.490100e+001 -9.704000e+000 4.873000e+000
      vertex  4.490100e+001 -1.002700e+001 4.682000e+000
      vertex  4.190000e+001 -1.002000e+001 4.673000e+000
    endloop
  endfacet
  facet normal 3.681118e-003 7.902150e-001 -6.128187e-001
    outer loop
      vertex  4.490100e+001 -1.002700e+001 4.682000e+000
      vertex  4.490100e+001 -1.048300e+001 4.094000e+000
      vertex  4.190000e+001 -1.002000e+001 4.673000e+000
    endloop
  endfacet
  facet normal 8.937378e-003 4.727983e-001 -8.811253e-001
    outer loop
      vertex  4.490100e+001 -9.704000e+000 4.873000e+000
      vertex  4.190000e+001 -1.002000e+001 4.673000e+000
      vertex  4.190000e+001 -9.528000e+000 4.937000e+000
    endloop
  endfacet
  facet normal -7.940046e-003 2.193770e-001 -9.756078e-001
    outer loop
      vertex  4.490100e+001 -9.157000e+000 4.996000e+000
      vertex  4.490100e+001 -9.704000e+000 4.873000e+000
      vertex  4.190000e+001 -9.528000e+000 4.937000e+000
    endloop
  endfacet
  facet normal 1.155844e-002 9.601311e-001 -2.793111e-001
    outer loop
      vertex  4.190000e+001 -1.039800e+001 4.262000e+000
      vertex  4.490100e+001 -1.048300e+001 4.094000e+000
      vertex  4.190000e+001 -1.060600e+001 3.547000e+000
    endloop
  endfacet
  facet normal 1.186178e-002 6.275567e-002 -9.979584e-001
    outer loop
      vertex  4.490100e+001 -9.157000e+000 4.996000e+000
      vertex  4.190000e+001 -9.528000e+000 4.937000e+000
      vertex  4.190000e+001 -8.876000e+000 4.978000e+000
    endloop
  endfacet
  facet normal 0.000000e+000 0.000000e+000 1.000000e+000
    outer loop
      vertex  4.190000e+001 -1.261100e+001 7.000000e+000
      vertex  4.490100e+001 -1.261100e+001 7.000000e+000
      vertex  4.190000e+001 -5.610000e+000 7.000000e+000
    endloop
  endfacet
  facet normal -1.000000e+000 0.000000e+000 0.000000e+000
    outer loop
      vertex  4.190000e+001 -1.060600e+001 3.547000e+000
      vertex  4.190000e+001 -1.261100e+001 7.000000e+000
      vertex  4.190000e+001 -1.039800e+001 4.262000e+000
    endloop
  endfacet
  facet normal -1.000000e+000 -0.000000e+000 0.000000e+000
    outer loop
      vertex  4.190000e+001 -1.044300e+001 2.821000e+000
      vertex  4.190000e+001 -1.261100e+001 0.000000e+000
      vertex  4.190000e+001 -1.060600e+001 3.547000e+000
    endloop
  endfacet
  facet normal -1.000000e+000 -0.000000e+000 0.000000e+000
    outer loop
      vertex  4.190000e+001 -1.013100e+001 2.413000e+000
      vertex  4.190000e+001 -1.261100e+001 0.000000e+000
      vertex  4.190000e+001 -1.044300e+001 2.821000e+000
    endloop
  endfacet
  facet normal -1.000000e+000 0.000000e+000 -0.000000e+000
    outer loop
      vertex  4.190000e+001 -1.013100e+001 2.413000e+000
      vertex  4.190000e+001 -9.811000e+000 2.176000e+000
      vertex  4.190000e+001 -1.261100e+001 0.000000e+000
    endloop
  endfacet
  facet normal -1.000000e+000 0.000000e+000 0.000000e+000
    outer loop
      vertex  4.190000e+001 -1.261100e+001 7.000000e+000
      vertex  4.190000e+001 -1.060600e+001 3.547000e+000
      vertex  4.190000e+001 -1.261100e+001 0.000000e+000
    endloop
  endfacet
  facet normal -1.000000e+000 0.000000e+000 -0.000000e+000
    outer loop
      vertex  4.190000e+001 -8.516000e+000 2.127000e+000
      vertex  4.190000e+001 -5.610000e+000 0.000000e+000
      vertex  4.190000e+001 -8.911000e+000 2.020000e+000
    endloop
  endfacet
  facet normal 1.000000e+000 0.000000e+000 0.000000e+000
    outer loop
      vertex  4.490100e+001 -9.157000e+000 4.996000e+000
      vertex  4.490100e+001 -1.261100e+001 7.000000e+000
      vertex  4.490100e+001 -9.704000e+000 4.873000e+000
    endloop
  endfacet
  facet normal 1.000000e+000 0.000000e+000 -0.000000e+000
    outer loop
      vertex  4.490100e+001 -1.048300e+001 4.094000e+000
      vertex  4.490100e+001 -1.002700e+001 4.682000e+000
      vertex  4.490100e+001 -1.261100e+001 7.000000e+000
    endloop
  endfacet
  facet normal 1.000000e+000 0.000000e+000 0.000000e+000
    outer loop
      vertex  4.490100e+001 -1.261100e+001 0.000000e+000
      vertex  4.490100e+001 -1.059200e+001 3.664000e+000
      vertex  4.490100e+001 -1.261100e+001 7.000000e+000
    endloop
  endfacet
  facet normal 1.000000e+000 0.000000e+000 -0.000000e+000
    outer loop
      vertex  4.490100e+001 -1.002700e+001 4.682000e+000
      vertex  4.490100e+001 -9.704000e+000 4.873000e+000
      vertex  4.490100e+001 -1.261100e+001 7.000000e+000
    endloop
  endfacet
  facet normal 1.000000e+000 0.000000e+000 0.000000e+000
    outer loop
      vertex  4.490100e+001 -1.048300e+001 4.094000e+000
      vertex  4.490100e+001 -1.261100e+001 7.000000e+000
      vertex  4.490100e+001 -1.059200e+001 3.664000e+000
    endloop
  endfacet
  facet normal 1.000000e+000 0.000000e+000 0.000000e+000
    outer loop
      vertex  4.490100e+001 -1.059200e+001 3.664000e+000
      vertex  4.490100e+001 -1.261100e+001 0.000000e+000
      vertex  4.490100e+001 -1.053600e+001 3.061000e+000
    endloop
  endfacet
  facet normal 1.000000e+000 0.000000e+000 0.000000e+000
    outer loop
      vertex  4.490100e+001 -1.034800e+001 2.659000e+000
      vertex  4.490100e+001 -1.053600e+001 3.061000e+000
      vertex  4.490100e+001 -1.261100e+001 0.000000e+000
    endloop
  endfacet
  facet normal 1.000000e+000 0.000000e+000 0.000000e+000
    outer loop
      vertex  4.490100e+001 -3.291000e+000 0.000000e+000
      vertex  4.490100e+001 -8.911000e+000 2.020000e+000
      vertex  4.490100e+001 -1.261100e+001 0.000000e+000
    endloop
  endfacet
  facet normal 1.000000e+000 0.000000e+000 0.000000e+000
    outer loop
      vertex  4.490100e+001 -9.528000e+000 2.063000e+000
      vertex  4.490100e+001 -1.261100e+001 0.000000e+000
      vertex  4.490100e+001 -8.911000e+000 2.020000e+000
    endloop
  endfacet
  facet normal 1.000000e+000 0.000000e+000 0.000000e+000
    outer loop
      vertex  4.490100e+001 -9.872000e+000 2.212000e+000
      vertex  4.490100e+001 -1.261100e+001 0.000000e+000
      vertex  4.490100e+001 -9.528000e+000 2.063000e+000
    endloop
  endfacet
  facet normal 1.000000e+000 0.000000e+000 0.000000e+000
    outer loop
      vertex  4.490100e+001 -9.872000e+000 2.212000e+000
      vertex  4.490100e+001 -1.034800e+001 2.659000e+000
      vertex  4.490100e+001 -1.261100e+001 0.000000e+000
    endloop
  endfacet
  facet normal 0.000000e+000 -0.000000e+000 1.000000e+000
    outer loop
      vertex  3.606900e+001 -9.930000e-001 2.000000e+000
      vertex  3.606900e+001 1.889000e+000 2.000000e+000
      vertex  3.412500e+001 -4.870000e-001 2.000000e+000
    endloop
  endfacet
  facet normal -1.000000e+000 -0.000000e+000 -0.000000e+000
    outer loop
      vertex  3.412500e+001 4.360000e+000 2.000000e+000
      vertex  3.412500e+001 4.360000e+000 0.000000e+000
      vertex  3.412500e+001 -4.870000e-001 2.000000e+000
    endloop
  endfacet
  facet normal 0.000000e+000 -0.000000e+000 1.000000e+000
    outer loop
      vertex  4.490100e+001 -1.261100e+001 7.000000e+000
      vertex  4.490100e+001 -3.291000e+000 7.000000e+000
      vertex  4.190000e+001 -5.610000e+000 7.000000e+000
    endloop
  endfacet
  facet normal -1.000000e+000 0.000000e+000 0.000000e+000
    outer loop
      vertex  4.190000e+001 -8.193000e+000 4.682000e+000
      vertex  4.190000e+001 -5.610000e+000 7.000000e+000
      vertex  4.190000e+001 -7.928000e+000 4.417000e+000
    endloop
  endfacet
  facet normal 2.014755e-002 -8.530084e-001 -5.215082e-001
    outer loop
      vertex  4.490100e+001 -8.060000e+000 4.550000e+000
      vertex  4.190000e+001 -7.632000e+000 3.734000e+000
      vertex  4.490100e+001 -7.673000e+000 3.917000e+000
    endloop
  endfacet
  facet normal -2.272943e-002 -9.173023e-001 -3.975425e-001
    outer loop
      vertex  4.190000e+001 -7.928000e+000 4.417000e+000
      vertex  4.190000e+001 -7.632000e+000 3.734000e+000
      vertex  4.490100e+001 -8.060000e+000 4.550000e+000
    endloop
  endfacet
  facet normal 2.355528e-004 -7.071074e-001 -7.071062e-001
    outer loop
      vertex  4.190000e+001 -8.193000e+000 4.682000e+000
      vertex  4.190000e+001 -7.928000e+000 4.417000e+000
      vertex  4.490100e+001 -8.060000e+000 4.550000e+000
    endloop
  endfacet
  facet normal -2.969613e-002 -3.764600e-001 -9.259568e-001
    outer loop
      vertex  4.190000e+001 -8.876000e+000 4.978000e+000
      vertex  4.490100e+001 -8.060000e+000 4.550000e+000
      vertex  4.490100e+001 -9.157000e+000 4.996000e+000
    endloop
  endfacet
  facet normal -1.530135e-002 -5.089391e-001 -8.606666e-001
    outer loop
      vertex  4.190000e+001 -8.516000e+000 4.873000e+000
      vertex  4.190000e+001 -8.193000e+000 4.682000e+000
      vertex  4.490100e+001 -8.060000e+000 4.550000e+000
    endloop
  endfacet
  facet normal -6.066791e-002 -2.794839e-001 -9.582317e-001
    outer loop
      vertex  4.190000e+001 -8.516000e+000 4.873000e+000
      vertex  4.490100e+001 -8.060000e+000 4.550000e+000
      vertex  4.190000e+001 -8.876000e+000 4.978000e+000
    endloop
  endfacet
  facet normal 2.515554e-001 9.678429e-001 0.000000e+000
    outer loop
      vertex  4.490100e+001 -3.291000e+000 7.000000e+000
      vertex  4.490100e+001 -3.291000e+000 0.000000e+000
      vertex  4.190000e+001 -2.511000e+000 2.000000e+000
    endloop
  endfacet
  facet normal 2.518568e-001 9.677645e-001 -1.931208e-004
    outer loop
      vertex  4.490100e+001 -3.291000e+000 7.000000e+000
      vertex  4.190000e+001 -2.511000e+000 2.000000e+000
      vertex  3.994800e+001 -2.003000e+000 2.000000e+000
    endloop
  endfacet
  facet normal 1.000000e+000 -0.000000e+000 0.000000e+000
    outer loop
      vertex  4.190000e+001 -2.511000e+000 2.000000e+000
      vertex  4.190000e+001 -2.511000e+000 0.000000e+000
      vertex  4.190000e+001 2.477000e+000 2.000000e+000
    endloop
  endfacet
  facet normal 1.000000e+000 0.000000e+000 -0.000000e+000
    outer loop
      vertex  4.190000e+001 2.477000e+000 0.000000e+000
      vertex  4.190000e+001 2.477000e+000 2.000000e+000
      vertex  4.190000e+001 -2.511000e+000 0.000000e+000
    endloop
  endfacet
  facet normal 2.519749e-001 9.677337e-001 -3.181027e-004
    outer loop
      vertex  4.490100e+001 -3.291000e+000 7.000000e+000
      vertex  3.994800e+001 -2.003000e+000 2.000000e+000
      vertex  3.606900e+001 -9.930000e-001 2.000000e+000
    endloop
  endfacet
  facet normal 0.000000e+000 0.000000e+000 1.000000e+000
    outer loop
      vertex  4.190000e+001 2.477000e+000 2.000000e+000
      vertex  3.994800e+001 9.480000e-001 2.000000e+000
      vertex  4.190000e+001 -2.511000e+000 2.000000e+000
    endloop
  endfacet
  facet normal 2.515554e-001 9.678429e-001 0.000000e+000
    outer loop
      vertex  4.490100e+001 -3.291000e+000 0.000000e+000
      vertex  4.190000e+001 -2.511000e+000 0.000000e+000
      vertex  4.190000e+001 -2.511000e+000 2.000000e+000
    endloop
  endfacet
  facet normal -1.000000e+000 0.000000e+000 0.000000e+000
    outer loop
      vertex  4.190000e+001 -7.632000e+000 3.734000e+000
      vertex  4.190000e+001 -5.610000e+000 7.000000e+000
      vertex  4.190000e+001 -7.627000e+000 3.325000e+000
    endloop
  endfacet
  facet normal -1.000000e+000 0.000000e+000 0.000000e+000
    outer loop
      vertex  4.190000e+001 -7.928000e+000 4.417000e+000
      vertex  4.190000e+001 -5.610000e+000 7.000000e+000
      vertex  4.190000e+001 -7.632000e+000 3.734000e+000
    endloop
  endfacet
  facet normal -1.000000e+000 0.000000e+000 0.000000e+000
    outer loop
      vertex  4.190000e+001 -5.610000e+000 0.000000e+000
      vertex  4.190000e+001 -7.627000e+000 3.325000e+000
      vertex  4.190000e+001 -5.610000e+000 7.000000e+000
    endloop
  endfacet
  facet normal -1.000000e+000 0.000000e+000 0.000000e+000
    outer loop
      vertex  4.190000e+001 -7.737000e+000 2.906000e+000
      vertex  4.190000e+001 -7.627000e+000 3.325000e+000
      vertex  4.190000e+001 -5.610000e+000 0.000000e+000
    endloop
  endfacet
  facet normal -1.000000e+000 0.000000e+000 0.000000e+000
    outer loop
      vertex  4.190000e+001 -7.928000e+000 2.583000e+000
      vertex  4.190000e+001 -7.737000e+000 2.906000e+000
      vertex  4.190000e+001 -5.610000e+000 0.000000e+000
    endloop
  endfacet
  facet normal -1.000000e+000 0.000000e+000 -0.000000e+000
    outer loop
      vertex  4.190000e+001 -9.528000e+000 2.063000e+000
      vertex  4.190000e+001 -8.911000e+000 2.020000e+000
      vertex  4.190000e+001 -1.261100e+001 0.000000e+000
    endloop
  endfacet
  facet normal -1.000000e+000 0.000000e+000 0.000000e+000
    outer loop
      vertex  4.190000e+001 -1.261100e+001 0.000000e+000
      vertex  4.190000e+001 -8.911000e+000 2.020000e+000
      vertex  4.190000e+001 -5.610000e+000 0.000000e+000
    endloop
  endfacet
  facet normal -1.000000e+000 0.000000e+000 0.000000e+000
    outer loop
      vertex  4.190000e+001 -8.516000e+000 2.127000e+000
      vertex  4.190000e+001 -8.193000e+000 2.318000e+000
      vertex  4.190000e+001 -5.610000e+000 0.000000e+000
    endloop
  endfacet
  facet normal -1.000000e+000 0.000000e+000 -0.000000e+000
    outer loop
      vertex  4.190000e+001 -7.928000e+000 2.583000e+000
      vertex  4.190000e+001 -5.610000e+000 0.000000e+000
      vertex  4.190000e+001 -8.193000e+000 2.318000e+000
    endloop
  endfacet
  facet normal 0.000000e+000 -8.796927e-002 -9.961232e-001
    outer loop
      vertex  -2.960000e+001 -8.784000e+000 4.960000e+000
      vertex  -2.960000e+001 -9.169000e+000 4.994000e+000
      vertex  -3.260000e+001 -9.169000e+000 4.994000e+000
    endloop
  endfacet
  facet normal 1.000000e+000 -0.000000e+000 0.000000e+000
    outer loop
      vertex  -2.960000e+001 -1.261100e+001 7.000000e+000
      vertex  -2.960000e+001 -9.169000e+000 4.994000e+000
      vertex  -2.960000e+001 -5.610000e+000 7.000000e+000
    endloop
  endfacet
  facet normal 1.000000e+000 -0.000000e+000 0.000000e+000
    outer loop
      vertex  -2.960000e+001 -9.169000e+000 4.994000e+000
      vertex  -2.960000e+001 -8.784000e+000 4.960000e+000
      vertex  -2.960000e+001 -5.610000e+000 7.000000e+000
    endloop
  endfacet
  facet normal 1.000000e+000 0.000000e+000 0.000000e+000
    outer loop
      vertex  -2.960000e+001 -1.039800e+001 2.738000e+000
      vertex  -2.960000e+001 -1.060600e+001 3.453000e+000
      vertex  -2.960000e+001 -1.261100e+001 0.000000e+000
    endloop
  endfacet
  facet normal 1.000000e+000 -0.000000e+000 0.000000e+000
    outer loop
      vertex  -2.960000e+001 -8.969000e+000 2.007000e+000
      vertex  -2.960000e+001 -5.610000e+000 0.000000e+000
      vertex  -2.960000e+001 -8.429000e+000 2.164000e+000
    endloop
  endfacet
  facet normal 1.000000e+000 0.000000e+000 0.000000e+000
    outer loop
      vertex  -2.960000e+001 -8.193000e+000 2.318000e+000
      vertex  -2.960000e+001 -8.429000e+000 2.164000e+000
      vertex  -2.960000e+001 -5.610000e+000 0.000000e+000
    endloop
  endfacet
  facet normal 1.000000e+000 0.000000e+000 0.000000e+000
    outer loop
      vertex  -2.960000e+001 -1.039800e+001 2.738000e+000
      vertex  -2.960000e+001 -1.261100e+001 0.000000e+000
      vertex  -2.960000e+001 -9.872000e+000 2.212000e+000
    endloop
  endfacet
  facet normal 1.000000e+000 0.000000e+000 0.000000e+000
    outer loop
      vertex  -2.960000e+001 -9.181000e+000 2.004000e+000
      vertex  -2.960000e+001 -9.872000e+000 2.212000e+000
      vertex  -2.960000e+001 -1.261100e+001 0.000000e+000
    endloop
  endfacet
  facet normal 1.000000e+000 0.000000e+000 0.000000e+000
    outer loop
      vertex  -2.960000e+001 -1.261100e+001 0.000000e+000
      vertex  -2.960000e+001 -5.610000e+000 0.000000e+000
      vertex  -2.960000e+001 -9.181000e+000 2.004000e+000
    endloop
  endfacet
  facet normal 1.000000e+000 0.000000e+000 0.000000e+000
    outer loop
      vertex  -2.960000e+001 -8.969000e+000 2.007000e+000
      vertex  -2.960000e+001 -9.181000e+000 2.004000e+000
      vertex  -2.960000e+001 -5.610000e+000 0.000000e+000
    endloop
  endfacet
  facet normal -0.000000e+000 9.413965e-001 3.373019e-001
    outer loop
      vertex  -3.260000e+001 -1.039800e+001 2.738000e+000
      vertex  -3.260000e+001 -1.057500e+001 3.232000e+000
      vertex  -2.960000e+001 -1.039800e+001 2.738000e+000
    endloop
  endfacet
  facet normal -5.556458e-001 8.314191e-001 0.000000e+000
    outer loop
      vertex  1.228600e+001 1.042000e+001 1.160000e+001
      vertex  1.228600e+001 1.042000e+001 -1.000000e-003
      vertex  1.066400e+001 9.336000e+000 -1.000000e-003
    endloop
  endfacet
  facet normal -5.556458e-001 8.314191e-001 0.000000e+000
    outer loop
      vertex  1.228600e+001 1.042000e+001 1.160000e+001
      vertex  1.066400e+001 9.336000e+000 -1.000000e-003
      vertex  1.066400e+001 9.336000e+000 1.160000e+001
    endloop
  endfacet
  facet normal -8.314190e-001 5.556460e-001 0.000000e+000
    outer loop
      vertex  1.066400e+001 9.336000e+000 -1.000000e-003
      vertex  9.580000e+000 7.714000e+000 -1.000000e-003
      vertex  9.580000e+000 7.714000e+000 1.160000e+001
    endloop
  endfacet
  facet normal -8.314190e-001 5.556460e-001 0.000000e+000
    outer loop
      vertex  1.066400e+001 9.336000e+000 -1.000000e-003
      vertex  9.580000e+000 7.714000e+000 1.160000e+001
      vertex  1.066400e+001 9.336000e+000 1.160000e+001
    endloop
  endfacet
  facet normal -9.808556e-001 1.947363e-001 0.000000e+000
    outer loop
      vertex  9.200000e+000 5.800000e+000 1.160000e+001
      vertex  9.580000e+000 7.714000e+000 1.160000e+001
      vertex  9.200000e+000 5.800000e+000 -1.000000e-003
    endloop
  endfacet
  facet normal -9.808556e-001 1.947363e-001 0.000000e+000
    outer loop
      vertex  9.580000e+000 7.714000e+000 -1.000000e-003
      vertex  9.200000e+000 5.800000e+000 -1.000000e-003
      vertex  9.580000e+000 7.714000e+000 1.160000e+001
    endloop
  endfacet
  facet normal -9.660171e-001 -2.584783e-001 -0.000000e+000
    outer loop
      vertex  1.636800e+001 7.052000e+000 1.160000e+001
      vertex  1.636800e+001 7.052000e+000 -1.000000e-003
      vertex  1.670300e+001 5.800000e+000 -1.000000e-003
    endloop
  endfacet
  facet normal -9.660171e-001 -2.584783e-001 0.000000e+000
    outer loop
      vertex  1.636800e+001 7.052000e+000 1.160000e+001
      vertex  1.670300e+001 5.800000e+000 -1.000000e-003
      vertex  1.670300e+001 5.800000e+000 1.160000e+001
    endloop
  endfacet
  facet normal -7.067209e-001 -7.074924e-001 0.000000e+000
    outer loop
      vertex  1.636800e+001 7.052000e+000 -1.000000e-003
      vertex  1.636800e+001 7.052000e+000 1.160000e+001
      vertex  1.545100e+001 7.968000e+000 1.160000e+001
    endloop
  endfacet
  facet normal -7.067209e-001 -7.074924e-001 0.000000e+000
    outer loop
      vertex  1.636800e+001 7.052000e+000 -1.000000e-003
      vertex  1.545100e+001 7.968000e+000 1.160000e+001
      vertex  1.545100e+001 7.968000e+000 -1.000000e-003
    endloop
  endfacet
  facet normal -2.586721e-001 -9.659652e-001 0.000000e+000
    outer loop
      vertex  1.545100e+001 7.968000e+000 -1.000000e-003
      vertex  1.545100e+001 7.968000e+000 1.160000e+001
      vertex  1.420000e+001 8.303000e+000 1.160000e+001
    endloop
  endfacet
  facet normal -2.586721e-001 -9.659652e-001 0.000000e+000
    outer loop
      vertex  1.545100e+001 7.968000e+000 -1.000000e-003
      vertex  1.420000e+001 8.303000e+000 1.160000e+001
      vertex  1.420000e+001 8.303000e+000 -1.000000e-003
    endloop
  endfacet
  facet normal 2.584794e-001 -9.660168e-001 0.000000e+000
    outer loop
      vertex  1.420000e+001 8.303000e+000 -1.000000e-003
      vertex  1.420000e+001 8.303000e+000 1.160000e+001
      vertex  1.294800e+001 7.968000e+000 1.160000e+001
    endloop
  endfacet
  facet normal 2.584794e-001 -9.660168e-001 0.000000e+000
    outer loop
      vertex  1.420000e+001 8.303000e+000 -1.000000e-003
      vertex  1.294800e+001 7.968000e+000 1.160000e+001
      vertex  1.294800e+001 7.968000e+000 -1.000000e-003
    endloop
  endfacet
  facet normal 7.071066e-001 -7.071070e-001 0.000000e+000
    outer loop
      vertex  1.294800e+001 7.968000e+000 -1.000000e-003
      vertex  1.294800e+001 7.968000e+000 1.160000e+001
      vertex  1.203200e+001 7.052000e+000 1.160000e+001
    endloop
  endfacet
  facet normal 7.071066e-001 -7.071070e-001 0.000000e+000
    outer loop
      vertex  1.294800e+001 7.968000e+000 -1.000000e-003
      vertex  1.203200e+001 7.052000e+000 1.160000e+001
      vertex  1.203200e+001 7.052000e+000 -1.000000e-003
    endloop
  endfacet
  facet normal 9.660169e-001 -2.584790e-001 0.000000e+000
    outer loop
      vertex  1.203200e+001 7.052000e+000 -1.000000e-003
      vertex  1.203200e+001 7.052000e+000 1.160000e+001
      vertex  1.169700e+001 5.800000e+000 1.160000e+001
    endloop
  endfacet
  facet normal 9.660169e-001 -2.584790e-001 0.000000e+000
    outer loop
      vertex  1.203200e+001 7.052000e+000 -1.000000e-003
      vertex  1.169700e+001 5.800000e+000 1.160000e+001
      vertex  1.169700e+001 5.800000e+000 -1.000000e-003
    endloop
  endfacet
  facet normal 9.659653e-001 2.586717e-001 0.000000e+000
    outer loop
      vertex  1.203200e+001 4.549000e+000 1.160000e+001
      vertex  1.203200e+001 4.549000e+000 -1.000000e-003
      vertex  1.169700e+001 5.800000e+000 -1.000000e-003
    endloop
  endfacet
  facet normal 9.659653e-001 2.586717e-001 0.000000e+000
    outer loop
      vertex  1.203200e+001 4.549000e+000 1.160000e+001
      vertex  1.169700e+001 5.800000e+000 -1.000000e-003
      vertex  1.169700e+001 5.800000e+000 1.160000e+001
    endloop
  endfacet
  facet normal 7.074922e-001 7.067211e-001 0.000000e+000
    outer loop
      vertex  1.294800e+001 3.632000e+000 1.160000e+001
      vertex  1.294800e+001 3.632000e+000 -1.000000e-003
      vertex  1.203200e+001 4.549000e+000 -1.000000e-003
    endloop
  endfacet
  facet normal 7.074922e-001 7.067211e-001 0.000000e+000
    outer loop
      vertex  1.294800e+001 3.632000e+000 1.160000e+001
      vertex  1.203200e+001 4.549000e+000 -1.000000e-003
      vertex  1.203200e+001 4.549000e+000 1.160000e+001
    endloop
  endfacet
  facet normal 2.584790e-001 9.660169e-001 0.000000e+000
    outer loop
      vertex  1.420000e+001 3.297000e+000 1.160000e+001
      vertex  1.420000e+001 3.297000e+000 -1.000000e-003
      vertex  1.294800e+001 3.632000e+000 -1.000000e-003
    endloop
  endfacet
  facet normal 2.584790e-001 9.660169e-001 0.000000e+000
    outer loop
      vertex  1.420000e+001 3.297000e+000 1.160000e+001
      vertex  1.294800e+001 3.632000e+000 -1.000000e-003
      vertex  1.294800e+001 3.632000e+000 1.160000e+001
    endloop
  endfacet
  facet normal -2.586717e-001 9.659653e-001 0.000000e+000
    outer loop
      vertex  1.545100e+001 3.632000e+000 1.160000e+001
      vertex  1.545100e+001 3.632000e+000 -1.000000e-003
      vertex  1.420000e+001 3.297000e+000 -1.000000e-003
    endloop
  endfacet
  facet normal -2.586717e-001 9.659653e-001 0.000000e+000
    outer loop
      vertex  1.545100e+001 3.632000e+000 1.160000e+001
      vertex  1.420000e+001 3.297000e+000 -1.000000e-003
      vertex  1.420000e+001 3.297000e+000 1.160000e+001
    endloop
  endfacet
  facet normal -7.071068e-001 7.071068e-001 0.000000e+000
    outer loop
      vertex  1.636800e+001 4.549000e+000 1.160000e+001
      vertex  1.636800e+001 4.549000e+000 -1.000000e-003
      vertex  1.545100e+001 3.632000e+000 -1.000000e-003
    endloop
  endfacet
  facet normal -7.071068e-001 7.071068e-001 0.000000e+000
    outer loop
      vertex  1.636800e+001 4.549000e+000 1.160000e+001
      vertex  1.545100e+001 3.632000e+000 -1.000000e-003
      vertex  1.545100e+001 3.632000e+000 1.160000e+001
    endloop
  endfacet
  facet normal -9.659655e-001 2.586710e-001 0.000000e+000
    outer loop
      vertex  1.670300e+001 5.800000e+000 1.160000e+001
      vertex  1.670300e+001 5.800000e+000 -1.000000e-003
      vertex  1.636800e+001 4.549000e+000 -1.000000e-003
    endloop
  endfacet
  facet normal -9.659655e-001 2.586710e-001 0.000000e+000
    outer loop
      vertex  1.670300e+001 5.800000e+000 1.160000e+001
      vertex  1.636800e+001 4.549000e+000 -1.000000e-003
      vertex  1.636800e+001 4.549000e+000 1.160000e+001
    endloop
  endfacet
  facet normal -1.625872e-001 9.866942e-001 0.000000e+000
    outer loop
      vertex  -3.260000e+001 -3.064000e+000 7.000000e+000
      vertex  9.579922e+000 3.886396e+000 7.000000e+000
      vertex  -3.260000e+001 -3.064000e+000 0.000000e+000
    endloop
  endfacet
  facet normal 0.000000e+000 0.000000e+000 1.000000e+000
    outer loop
      vertex  -3.260000e+001 -1.261100e+001 7.000000e+000
      vertex  -2.960000e+001 -5.610000e+000 7.000000e+000
      vertex  -3.260000e+001 -3.064000e+000 7.000000e+000
    endloop
  endfacet
  facet normal 1.000000e+000 -0.000000e+000 0.000000e+000
    outer loop
      vertex  -2.960000e+001 -8.431000e+000 4.833000e+000
      vertex  -2.960000e+001 -8.121000e+000 4.622000e+000
      vertex  -2.960000e+001 -5.610000e+000 7.000000e+000
    endloop
  endfacet
  facet normal 1.000000e+000 0.000000e+000 0.000000e+000
    outer loop
      vertex  -2.960000e+001 -5.610000e+000 7.000000e+000
      vertex  -2.960000e+001 -8.121000e+000 4.622000e+000
      vertex  -2.960000e+001 -7.702000e+000 4.007000e+000
    endloop
  endfacet
  facet normal -1.186345e-002 -8.263682e-001 -5.630053e-001
    outer loop
      vertex  -2.960000e+001 -7.702000e+000 4.007000e+000
      vertex  -2.960000e+001 -8.121000e+000 4.622000e+000
      vertex  -3.260000e+001 -7.988000e+000 4.490000e+000
    endloop
  endfacet
  facet normal 3.653638e-003 -6.617055e-001 -7.497549e-001
    outer loop
      vertex  -3.260000e+001 -8.269000e+000 4.738000e+000
      vertex  -3.260000e+001 -7.988000e+000 4.490000e+000
      vertex  -2.960000e+001 -8.121000e+000 4.622000e+000
    endloop
  endfacet
  facet normal -4.206161e-003 -5.626702e-001 -8.266706e-001
    outer loop
      vertex  -2.960000e+001 -8.431000e+000 4.833000e+000
      vertex  -3.260000e+001 -8.269000e+000 4.738000e+000
      vertex  -2.960000e+001 -8.121000e+000 4.622000e+000
    endloop
  endfacet
  facet normal 1.000000e+000 -0.000000e+000 0.000000e+000
    outer loop
      vertex  -2.960000e+001 -8.193000e+000 2.318000e+000
      vertex  -2.960000e+001 -5.610000e+000 0.000000e+000
      vertex  -2.960000e+001 -7.870000e+000 2.657000e+000
    endloop
  endfacet
  facet normal 1.000000e+000 0.000000e+000 0.000000e+000
    outer loop
      vertex  -2.960000e+001 -7.737000e+000 2.906000e+000
      vertex  -2.960000e+001 -7.870000e+000 2.657000e+000
      vertex  -2.960000e+001 -5.610000e+000 0.000000e+000
    endloop
  endfacet
  facet normal 1.000000e+000 -0.000000e+000 0.000000e+000
    outer loop
      vertex  -2.960000e+001 -7.737000e+000 2.906000e+000
      vertex  -2.960000e+001 -5.610000e+000 0.000000e+000
      vertex  -2.960000e+001 -7.618000e+000 3.359000e+000
    endloop
  endfacet
  facet normal 1.000000e+000 0.000000e+000 0.000000e+000
    outer loop
      vertex  -2.960000e+001 -5.610000e+000 7.000000e+000
      vertex  -2.960000e+001 -7.618000e+000 3.359000e+000
      vertex  -2.960000e+001 -5.610000e+000 0.000000e+000
    endloop
  endfacet
  facet normal 1.000000e+000 -0.000000e+000 0.000000e+000
    outer loop
      vertex  -2.960000e+001 -7.702000e+000 4.007000e+000
      vertex  -2.960000e+001 -7.618000e+000 3.359000e+000
      vertex  -2.960000e+001 -5.610000e+000 7.000000e+000
    endloop
  endfacet
  facet normal 7.074345e-004 -9.671848e-001 2.540727e-001
    outer loop
      vertex  -2.960000e+001 -7.737000e+000 2.906000e+000
      vertex  -2.960000e+001 -7.618000e+000 3.359000e+000
      vertex  -3.260000e+001 -7.730000e+000 2.941000e+000
    endloop
  endfacet
  facet normal 3.438495e-003 -8.820534e-001 4.711369e-001
    outer loop
      vertex  -2.960000e+001 -7.870000e+000 2.657000e+000
      vertex  -2.960000e+001 -7.737000e+000 2.906000e+000
      vertex  -3.260000e+001 -7.730000e+000 2.941000e+000
    endloop
  endfacet
  facet normal 8.581219e-003 -8.579879e-001 5.135981e-001
    outer loop
      vertex  -3.260000e+001 -7.988000e+000 2.510000e+000
      vertex  -2.960000e+001 -7.870000e+000 2.657000e+000
      vertex  -3.260000e+001 -7.730000e+000 2.941000e+000
    endloop
  endfacet
  facet normal 5.890827e-003 -9.756742e-001 2.191460e-001
    outer loop
      vertex  -3.260000e+001 -7.730000e+000 2.941000e+000
      vertex  -2.960000e+001 -7.618000e+000 3.359000e+000
      vertex  -3.260000e+001 -7.615000e+000 3.453000e+000
    endloop
  endfacet
  facet normal 1.192184e-002 -8.911195e-001 -4.536120e-001
    outer loop
      vertex  -2.960000e+001 -7.702000e+000 4.007000e+000
      vertex  -3.260000e+001 -7.988000e+000 4.490000e+000
      vertex  -3.260000e+001 -7.650000e+000 3.826000e+000
    endloop
  endfacet
  facet normal -9.433008e-003 -9.916584e-001 -1.285485e-001
    outer loop
      vertex  -2.960000e+001 -7.618000e+000 3.359000e+000
      vertex  -2.960000e+001 -7.702000e+000 4.007000e+000
      vertex  -3.260000e+001 -7.650000e+000 3.826000e+000
    endloop
  endfacet
  facet normal -3.922982e-003 -9.956188e-001 -9.342356e-002
    outer loop
      vertex  -3.260000e+001 -7.615000e+000 3.453000e+000
      vertex  -2.960000e+001 -7.618000e+000 3.359000e+000
      vertex  -3.260000e+001 -7.650000e+000 3.826000e+000
    endloop
  endfacet
  facet normal 0.000000e+000 0.000000e+000 1.000000e+000
    outer loop
      vertex  -3.260000e+001 -1.261100e+001 7.000000e+000
      vertex  -2.960000e+001 -1.261100e+001 7.000000e+000
      vertex  -2.960000e+001 -5.610000e+000 7.000000e+000
    endloop
  endfacet
  facet normal 1.000000e+000 0.000000e+000 0.000000e+000
    outer loop
      vertex  -2.960000e+001 -9.617000e+000 4.908000e+000
      vertex  -2.960000e+001 -1.261100e+001 7.000000e+000
      vertex  -2.960000e+001 -9.951000e+000 4.738000e+000
    endloop
  endfacet
  facet normal 1.000000e+000 0.000000e+000 0.000000e+000
    outer loop
      vertex  -2.960000e+001 -9.951000e+000 4.738000e+000
      vertex  -2.960000e+001 -1.261100e+001 7.000000e+000
      vertex  -2.960000e+001 -1.044300e+001 4.179000e+000
    endloop
  endfacet
  facet normal 1.000000e+000 0.000000e+000 -0.000000e+000
    outer loop
      vertex  -2.960000e+001 -1.060600e+001 3.453000e+000
      vertex  -2.960000e+001 -1.044300e+001 4.179000e+000
      vertex  -2.960000e+001 -1.261100e+001 7.000000e+000
    endloop
  endfacet
  facet normal 1.000000e+000 0.000000e+000 0.000000e+000
    outer loop
      vertex  -2.960000e+001 -1.261100e+001 0.000000e+000
      vertex  -2.960000e+001 -1.060600e+001 3.453000e+000
      vertex  -2.960000e+001 -1.261100e+001 7.000000e+000
    endloop
  endfacet
  facet normal 1.000000e+000 0.000000e+000 0.000000e+000
    outer loop
      vertex  -2.960000e+001 -9.169000e+000 4.994000e+000
      vertex  -2.960000e+001 -1.261100e+001 7.000000e+000
      vertex  -2.960000e+001 -9.617000e+000 4.908000e+000
    endloop
  endfacet
  facet normal 1.000000e+000 -0.000000e+000 0.000000e+000
    outer loop
      vertex  -2.960000e+001 -8.784000e+000 4.960000e+000
      vertex  -2.960000e+001 -8.431000e+000 4.833000e+000
      vertex  -2.960000e+001 -5.610000e+000 7.000000e+000
    endloop
  endfacet
  facet normal 7.679068e-003 9.181297e-001 -3.962056e-001
    outer loop
      vertex  -2.960000e+001 -1.044300e+001 4.179000e+000
      vertex  -3.260000e+001 -1.055600e+001 3.859000e+000
      vertex  -3.260000e+001 -1.034800e+001 4.341000e+000
    endloop
  endfacet
  facet normal -1.198894e-002 7.497073e-001 -6.616609e-001
    outer loop
      vertex  -3.260000e+001 -1.010000e+001 4.622000e+000
      vertex  -2.960000e+001 -1.044300e+001 4.179000e+000
      vertex  -3.260000e+001 -1.034800e+001 4.341000e+000
    endloop
  endfacet
  facet normal 2.849638e-003 4.536037e-001 -8.911990e-001
    outer loop
      vertex  -2.960000e+001 -9.617000e+000 4.908000e+000
      vertex  -2.960000e+001 -9.951000e+000 4.738000e+000
      vertex  -3.260000e+001 -9.551000e+000 4.932000e+000
    endloop
  endfacet
  facet normal -1.173551e-002 7.506088e-001 -6.606427e-001
    outer loop
      vertex  -2.960000e+001 -9.951000e+000 4.738000e+000
      vertex  -2.960000e+001 -1.044300e+001 4.179000e+000
      vertex  -3.260000e+001 -1.010000e+001 4.622000e+000
    endloop
  endfacet
  facet normal 9.248619e-003 4.916698e-001 -8.707326e-001
    outer loop
      vertex  -3.260000e+001 -9.551000e+000 4.932000e+000
      vertex  -2.960000e+001 -9.951000e+000 4.738000e+000
      vertex  -3.260000e+001 -1.010000e+001 4.622000e+000
    endloop
  endfacet
  facet normal -1.338365e-002 9.756230e-001 -2.190450e-001
    outer loop
      vertex  -2.960000e+001 -1.060600e+001 3.453000e+000
      vertex  -3.260000e+001 -1.055600e+001 3.859000e+000
      vertex  -2.960000e+001 -1.044300e+001 4.179000e+000
    endloop
  endfacet
  facet normal -3.709098e-003 1.885208e-001 -9.820622e-001
    outer loop
      vertex  -2.960000e+001 -9.617000e+000 4.908000e+000
      vertex  -3.260000e+001 -9.551000e+000 4.932000e+000
      vertex  -2.960000e+001 -9.169000e+000 4.994000e+000
    endloop
  endfacet
  facet normal 0.000000e+000 1.602068e-001 -9.870834e-001
    outer loop
      vertex  -2.960000e+001 -9.169000e+000 4.994000e+000
      vertex  -3.260000e+001 -9.551000e+000 4.932000e+000
      vertex  -3.260000e+001 -9.169000e+000 4.994000e+000
    endloop
  endfacet
  facet normal 7.325772e-003 -4.014209e-001 -9.158645e-001
    outer loop
      vertex  -3.260000e+001 -8.739000e+000 4.944000e+000
      vertex  -3.260000e+001 -8.269000e+000 4.738000e+000
      vertex  -2.960000e+001 -8.431000e+000 4.833000e+000
    endloop
  endfacet
  facet normal -5.944040e-005 -3.385298e-001 -9.409557e-001
    outer loop
      vertex  -3.260000e+001 -8.739000e+000 4.944000e+000
      vertex  -2.960000e+001 -8.431000e+000 4.833000e+000
      vertex  -2.960000e+001 -8.784000e+000 4.960000e+000
    endloop
  endfacet
  facet normal 3.565183e-003 -1.155007e-001 -9.933010e-001
    outer loop
      vertex  -3.260000e+001 -8.739000e+000 4.944000e+000
      vertex  -2.960000e+001 -8.784000e+000 4.960000e+000
      vertex  -3.260000e+001 -9.169000e+000 4.994000e+000
    endloop
  endfacet
  facet normal -4.094528e-002 5.442791e-001 8.379043e-001
    outer loop
      vertex  -2.960000e+001 -1.039800e+001 2.738000e+000
      vertex  -3.260000e+001 -9.700000e+000 2.138000e+000
      vertex  -3.260000e+001 -1.016800e+001 2.442000e+000
    endloop
  endfacet
  facet normal 2.309268e-002 7.069182e-001 7.069182e-001
    outer loop
      vertex  -2.960000e+001 -1.039800e+001 2.738000e+000
      vertex  -2.960000e+001 -9.872000e+000 2.212000e+000
      vertex  -3.260000e+001 -9.700000e+000 2.138000e+000
    endloop
  endfacet
  facet normal -0.000000e+000 7.896400e-001 6.135704e-001
    outer loop
      vertex  -3.260000e+001 -1.039800e+001 2.738000e+000
      vertex  -2.960000e+001 -1.039800e+001 2.738000e+000
      vertex  -3.260000e+001 -1.016800e+001 2.442000e+000
    endloop
  endfacet
  facet normal 1.255896e-002 9.994624e-001 -3.028683e-002
    outer loop
      vertex  -3.260000e+001 -1.057500e+001 3.232000e+000
      vertex  -3.260000e+001 -1.055600e+001 3.859000e+000
      vertex  -2.960000e+001 -1.060600e+001 3.453000e+000
    endloop
  endfacet
  facet normal -1.065462e-002 9.601408e-001 2.793139e-001
    outer loop
      vertex  -2.960000e+001 -1.039800e+001 2.738000e+000
      vertex  -3.260000e+001 -1.057500e+001 3.232000e+000
      vertex  -2.960000e+001 -1.060600e+001 3.453000e+000
    endloop
  endfacet
  facet normal 1.275301e-002 -5.620805e-001 8.269842e-001
    outer loop
      vertex  -2.960000e+001 -8.429000e+000 2.164000e+000
      vertex  -3.260000e+001 -7.988000e+000 2.510000e+000
      vertex  -3.260000e+001 -8.603000e+000 2.092000e+000
    endloop
  endfacet
  facet normal -5.324111e-003 -7.239754e-001 6.898053e-001
    outer loop
      vertex  -2.960000e+001 -8.193000e+000 2.318000e+000
      vertex  -2.960000e+001 -7.870000e+000 2.657000e+000
      vertex  -3.260000e+001 -7.988000e+000 2.510000e+000
    endloop
  endfacet
  facet normal 1.625280e-002 -5.464121e-001 8.373588e-001
    outer loop
      vertex  -2.960000e+001 -8.193000e+000 2.318000e+000
      vertex  -3.260000e+001 -7.988000e+000 2.510000e+000
      vertex  -2.960000e+001 -8.429000e+000 2.164000e+000
    endloop
  endfacet
  facet normal -6.853123e-003 -2.791741e-001 9.602161e-001
    outer loop
      vertex  -2.960000e+001 -8.429000e+000 2.164000e+000
      vertex  -3.260000e+001 -8.603000e+000 2.092000e+000
      vertex  -2.960000e+001 -8.969000e+000 2.007000e+000
    endloop
  endfacet
  facet normal -7.093958e-003 2.882304e-001 9.575348e-001
    outer loop
      vertex  -2.960000e+001 -9.181000e+000 2.004000e+000
      vertex  -3.260000e+001 -9.700000e+000 2.138000e+000
      vertex  -2.960000e+001 -9.872000e+000 2.212000e+000
    endloop
  endfacet
  facet normal -0.000000e+000 2.499909e-001 9.682482e-001
    outer loop
      vertex  -3.260000e+001 -9.181000e+000 2.004000e+000
      vertex  -3.260000e+001 -9.700000e+000 2.138000e+000
      vertex  -2.960000e+001 -9.181000e+000 2.004000e+000
    endloop
  endfacet
  facet normal 9.647314e-003 -1.505078e-001 9.885617e-001
    outer loop
      vertex  -2.960000e+001 -8.969000e+000 2.007000e+000
      vertex  -3.260000e+001 -8.603000e+000 2.092000e+000
      vertex  -3.260000e+001 -9.181000e+000 2.004000e+000
    endloop
  endfacet
  facet normal 0.000000e+000 -1.414963e-002 9.998999e-001
    outer loop
      vertex  -2.960000e+001 -8.969000e+000 2.007000e+000
      vertex  -3.260000e+001 -9.181000e+000 2.004000e+000
      vertex  -2.960000e+001 -9.181000e+000 2.004000e+000
    endloop
  endfacet
  facet normal 0.000000e+000 -1.000000e+000 0.000000e+000
    outer loop
      vertex  4.190000e+001 -1.261100e+001 7.000000e+000
      vertex  4.190000e+001 -1.261100e+001 0.000000e+000
      vertex  4.490100e+001 -1.261100e+001 0.000000e+000
    endloop
  endfacet
  facet normal -0.000000e+000 -1.000000e+000 -0.000000e+000
    outer loop
      vertex  4.490100e+001 -1.261100e+001 7.000000e+000
      vertex  4.190000e+001 -1.261100e+001 7.000000e+000
      vertex  4.490100e+001 -1.261100e+001 0.000000e+000
    endloop
  endfacet
  facet normal 0.000000e+000 0.000000e+000 -1.000000e+000
    outer loop
      vertex  4.190000e+001 -5.610000e+000 0.000000e+000
      vertex  3.994800e+001 -2.003000e+000 0.000000e+000
      vertex  4.190000e+001 -2.511000e+000 0.000000e+000
    endloop
  endfacet
  facet normal 0.000000e+000 0.000000e+000 -1.000000e+000
    outer loop
      vertex  4.190000e+001 -2.511000e+000 0.000000e+000
      vertex  4.490100e+001 -3.291000e+000 0.000000e+000
      vertex  4.190000e+001 -5.610000e+000 0.000000e+000
    endloop
  endfacet
  facet normal 0.000000e+000 -0.000000e+000 -1.000000e+000
    outer loop
      vertex  4.490100e+001 -3.291000e+000 0.000000e+000
      vertex  4.490100e+001 -1.261100e+001 0.000000e+000
      vertex  4.190000e+001 -5.610000e+000 0.000000e+000
    endloop
  endfacet
  facet normal 0.000000e+000 0.000000e+000 -1.000000e+000
    outer loop
      vertex  3.994800e+001 -2.003000e+000 0.000000e+000
      vertex  3.994800e+001 9.480000e-001 0.000000e+000
      vertex  4.190000e+001 -2.511000e+000 0.000000e+000
    endloop
  endfacet
  facet normal 0.000000e+000 0.000000e+000 -1.000000e+000
    outer loop
      vertex  3.412500e+001 4.360000e+000 0.000000e+000
      vertex  3.606900e+001 1.889000e+000 0.000000e+000
      vertex  3.412500e+001 -4.870000e-001 0.000000e+000
    endloop
  endfacet
  facet normal -0.000000e+000 -0.000000e+000 -1.000000e+000
    outer loop
      vertex  3.606900e+001 -9.930000e-001 0.000000e+000
      vertex  4.190000e+001 -5.610000e+000 0.000000e+000
      vertex  3.412500e+001 -4.870000e-001 0.000000e+000
    endloop
  endfacet
  facet normal 0.000000e+000 0.000000e+000 -1.000000e+000
    outer loop
      vertex  3.606900e+001 -9.930000e-001 0.000000e+000
      vertex  3.994800e+001 -2.003000e+000 0.000000e+000
      vertex  4.190000e+001 -5.610000e+000 0.000000e+000
    endloop
  endfacet
  facet normal 0.000000e+000 0.000000e+000 -1.000000e+000
    outer loop
      vertex  4.190000e+001 -1.261100e+001 0.000000e+000
      vertex  4.190000e+001 -5.610000e+000 0.000000e+000
      vertex  4.490100e+001 -1.261100e+001 0.000000e+000
    endloop
  endfacet
  facet normal 0.000000e+000 0.000000e+000 -1.000000e+000
    outer loop
      vertex  4.190000e+001 -5.610000e+000 0.000000e+000
      vertex  1.611400e+001 1.180000e+000 0.000000e+000
      vertex  3.412500e+001 -4.870000e-001 0.000000e+000
    endloop
  endfacet
  facet normal 1.000000e+000 0.000000e+000 0.000000e+000
    outer loop
      vertex  4.490100e+001 -3.291000e+000 7.000000e+000
      vertex  4.490100e+001 -8.060000e+000 4.550000e+000
      vertex  4.490100e+001 -7.673000e+000 3.917000e+000
    endloop
  endfacet
  facet normal 1.000000e+000 -0.000000e+000 0.000000e+000
    outer loop
      vertex  4.490100e+001 -9.157000e+000 4.996000e+000
      vertex  4.490100e+001 -8.060000e+000 4.550000e+000
      vertex  4.490100e+001 -3.291000e+000 7.000000e+000
    endloop
  endfacet
  facet normal 1.000000e+000 -0.000000e+000 0.000000e+000
    outer loop
      vertex  4.490100e+001 -1.261100e+001 7.000000e+000
      vertex  4.490100e+001 -9.157000e+000 4.996000e+000
      vertex  4.490100e+001 -3.291000e+000 7.000000e+000
    endloop
  endfacet
  facet normal 1.000000e+000 -0.000000e+000 0.000000e+000
    outer loop
      vertex  4.490100e+001 -7.740000e+000 2.907000e+000
      vertex  4.490100e+001 -3.291000e+000 0.000000e+000
      vertex  4.490100e+001 -7.620000e+000 3.359000e+000
    endloop
  endfacet
  facet normal 1.000000e+000 -0.000000e+000 0.000000e+000
    outer loop
      vertex  4.490100e+001 -7.925000e+000 2.581000e+000
      vertex  4.490100e+001 -3.291000e+000 0.000000e+000
      vertex  4.490100e+001 -7.740000e+000 2.907000e+000
    endloop
  endfacet
  facet normal 1.000000e+000 0.000000e+000 -0.000000e+000
    outer loop
      vertex  4.490100e+001 -3.291000e+000 0.000000e+000
      vertex  4.490100e+001 -3.291000e+000 7.000000e+000
      vertex  4.490100e+001 -7.620000e+000 3.359000e+000
    endloop
  endfacet
  facet normal 1.000000e+000 -0.000000e+000 0.000000e+000
    outer loop
      vertex  4.490100e+001 -7.673000e+000 3.917000e+000
      vertex  4.490100e+001 -7.620000e+000 3.359000e+000
      vertex  4.490100e+001 -3.291000e+000 7.000000e+000
    endloop
  endfacet
  facet normal 1.000000e+000 0.000000e+000 0.000000e+000
    outer loop
      vertex  4.490100e+001 -3.291000e+000 0.000000e+000
      vertex  4.490100e+001 -7.925000e+000 2.581000e+000
      vertex  4.490100e+001 -8.269000e+000 2.262000e+000
    endloop
  endfacet
  facet normal 1.000000e+000 0.000000e+000 0.000000e+000
    outer loop
      vertex  4.490100e+001 -8.269000e+000 2.262000e+000
      vertex  4.490100e+001 -8.911000e+000 2.020000e+000
      vertex  4.490100e+001 -3.291000e+000 0.000000e+000
    endloop
  endfacet
  facet normal 0.000000e+000 0.000000e+000 -1.000000e+000
    outer loop
      vertex  1.228600e+001 1.180000e+000 -1.000000e-003
      vertex  1.066400e+001 2.264000e+000 -1.000000e-003
      vertex  1.294800e+001 3.632000e+000 -1.000000e-003
    endloop
  endfacet
  facet normal -0.000000e+000 0.000000e+000 -1.000000e+000
    outer loop
      vertex  1.773600e+001 2.264000e+000 -1.000000e-003
      vertex  1.611400e+001 1.180000e+000 -1.000000e-003
      vertex  1.545100e+001 3.632000e+000 -1.000000e-003
    endloop
  endfacet
  facet normal 0.000000e+000 0.000000e+000 -1.000000e+000
    outer loop
      vertex  1.545100e+001 3.632000e+000 -1.000000e-003
      vertex  1.636800e+001 4.549000e+000 -1.000000e-003
      vertex  1.773600e+001 2.264000e+000 -1.000000e-003
    endloop
  endfacet
  facet normal 0.000000e+000 0.000000e+000 -1.000000e+000
    outer loop
      vertex  1.420000e+001 3.297000e+000 -1.000000e-003
      vertex  1.545100e+001 3.632000e+000 -1.000000e-003
      vertex  1.611400e+001 1.180000e+000 -1.000000e-003
    endloop
  endfacet
  facet normal -0.000000e+000 0.000000e+000 -1.000000e+000
    outer loop
      vertex  1.611400e+001 1.180000e+000 -1.000000e-003
      vertex  1.420000e+001 7.990000e-001 -1.000000e-003
      vertex  1.420000e+001 3.297000e+000 -1.000000e-003
    endloop
  endfacet
  facet normal 0.000000e+000 0.000000e+000 -1.000000e+000
    outer loop
      vertex  1.228600e+001 1.180000e+000 -1.000000e-003
      vertex  1.420000e+001 3.297000e+000 -1.000000e-003
      vertex  1.420000e+001 7.990000e-001 -1.000000e-003
    endloop
  endfacet
  facet normal -0.000000e+000 0.000000e+000 -1.000000e+000
    outer loop
      vertex  1.294800e+001 7.968000e+000 -1.000000e-003
      vertex  1.203200e+001 7.052000e+000 -1.000000e-003
      vertex  1.066400e+001 9.336000e+000 -1.000000e-003
    endloop
  endfacet
  facet normal 0.000000e+000 -0.000000e+000 -1.000000e+000
    outer loop
      vertex  1.228600e+001 1.042000e+001 -1.000000e-003
      vertex  1.294800e+001 7.968000e+000 -1.000000e-003
      vertex  1.066400e+001 9.336000e+000 -1.000000e-003
    endloop
  endfacet
  facet normal 0.000000e+000 0.000000e+000 -1.000000e+000
    outer loop
      vertex  9.580000e+000 7.714000e+000 -1.000000e-003
      vertex  1.066400e+001 9.336000e+000 -1.000000e-003
      vertex  1.203200e+001 7.052000e+000 -1.000000e-003
    endloop
  endfacet
  facet normal -0.000000e+000 0.000000e+000 -1.000000e+000
    outer loop
      vertex  1.203200e+001 7.052000e+000 -1.000000e-003
      vertex  1.169700e+001 5.800000e+000 -1.000000e-003
      vertex  9.580000e+000 7.714000e+000 -1.000000e-003
    endloop
  endfacet
  facet normal -0.000000e+000 0.000000e+000 -1.000000e+000
    outer loop
      vertex  1.203200e+001 4.549000e+000 -1.000000e-003
      vertex  9.580000e+000 3.886000e+000 -1.000000e-003
      vertex  1.169700e+001 5.800000e+000 -1.000000e-003
    endloop
  endfacet
  facet normal 0.000000e+000 -0.000000e+000 -1.000000e+000
    outer loop
      vertex  1.203200e+001 4.549000e+000 -1.000000e-003
      vertex  1.294800e+001 3.632000e+000 -1.000000e-003
      vertex  1.066400e+001 2.264000e+000 -1.000000e-003
    endloop
  endfacet
  facet normal 0.000000e+000 0.000000e+000 -1.000000e+000
    outer loop
      vertex  1.066400e+001 2.264000e+000 -1.000000e-003
      vertex  9.580000e+000 3.886000e+000 -1.000000e-003
      vertex  1.203200e+001 4.549000e+000 -1.000000e-003
    endloop
  endfacet
  facet normal 0.000000e+000 0.000000e+000 -1.000000e+000
    outer loop
      vertex  9.200000e+000 5.800000e+000 -1.000000e-003
      vertex  1.169700e+001 5.800000e+000 -1.000000e-003
      vertex  9.580000e+000 3.886000e+000 -1.000000e-003
    endloop
  endfacet
  facet normal 0.000000e+000 0.000000e+000 -1.000000e+000
    outer loop
      vertex  3.412500e+001 4.360000e+000 0.000000e+000
      vertex  4.190000e+001 2.477000e+000 0.000000e+000
      vertex  3.606900e+001 1.889000e+000 0.000000e+000
    endloop
  endfacet
  facet normal 0.000000e+000 0.000000e+000 -1.000000e+000
    outer loop
      vertex  3.994800e+001 9.480000e-001 0.000000e+000
      vertex  3.606900e+001 1.889000e+000 0.000000e+000
      vertex  4.190000e+001 2.477000e+000 0.000000e+000
    endloop
  endfacet
  facet normal 0.000000e+000 -0.000000e+000 -1.000000e+000
    outer loop
      vertex  4.190000e+001 2.477000e+000 0.000000e+000
      vertex  4.190000e+001 -2.511000e+000 0.000000e+000
      vertex  3.994800e+001 9.480000e-001 0.000000e+000
    endloop
  endfacet
  facet normal 0.000000e+000 0.000000e+000 -1.000000e+000
    outer loop
      vertex  3.606900e+001 -9.930000e-001 0.000000e+000
      vertex  3.412500e+001 -4.870000e-001 0.000000e+000
      vertex  3.606900e+001 1.889000e+000 0.000000e+000
    endloop
  endfacet
  facet normal 0.000000e+000 -0.000000e+000 -1.000000e+000
    outer loop
      vertex  1.859772e+001 3.553406e+000 0.000000e+000
      vertex  3.412500e+001 -4.870000e-001 0.000000e+000
      vertex  1.773600e+001 2.264000e+000 0.000000e+000
    endloop
  endfacet
  facet normal 0.000000e+000 -0.000000e+000 1.000000e+000
    outer loop
      vertex  3.994800e+001 9.480000e-001 2.000000e+000
      vertex  4.190000e+001 2.477000e+000 2.000000e+000
      vertex  3.606900e+001 1.889000e+000 2.000000e+000
    endloop
  endfacet
  facet normal 0.000000e+000 0.000000e+000 1.000000e+000
    outer loop
      vertex  3.412500e+001 4.360000e+000 2.000000e+000
      vertex  3.606900e+001 1.889000e+000 2.000000e+000
      vertex  4.190000e+001 2.477000e+000 2.000000e+000
    endloop
  endfacet
  facet normal -0.000000e+000 0.000000e+000 1.000000e+000
    outer loop
      vertex  3.994800e+001 -2.003000e+000 2.000000e+000
      vertex  4.190000e+001 -2.511000e+000 2.000000e+000
      vertex  3.994800e+001 9.480000e-001 2.000000e+000
    endloop
  endfacet
  facet normal 0.000000e+000 0.000000e+000 1.000000e+000
    outer loop
      vertex  3.412500e+001 4.360000e+000 2.000000e+000
      vertex  3.412500e+001 -4.870000e-001 2.000000e+000
      vertex  3.606900e+001 1.889000e+000 2.000000e+000
    endloop
  endfacet
  facet normal 2.353818e-001 9.719030e-001 0.000000e+000
    outer loop
      vertex  4.190000e+001 2.477000e+000 0.000000e+000
      vertex  3.412500e+001 4.360000e+000 0.000000e+000
      vertex  3.412500e+001 4.360000e+000 2.000000e+000
    endloop
  endfacet
  facet normal -2.357505e-001 -9.718136e-001 0.000000e+000
    outer loop
      vertex  3.994800e+001 9.480000e-001 2.000000e+000
      vertex  3.606900e+001 1.889000e+000 2.000000e+000
      vertex  3.606900e+001 1.889000e+000 0.000000e+000
    endloop
  endfacet
  facet normal -2.357505e-001 -9.718136e-001 -0.000000e+000
    outer loop
      vertex  3.994800e+001 9.480000e-001 2.000000e+000
      vertex  3.606900e+001 1.889000e+000 0.000000e+000
      vertex  3.994800e+001 9.480000e-001 0.000000e+000
    endloop
  endfacet
  facet normal -1.000000e+000 0.000000e+000 -0.000000e+000
    outer loop
      vertex  3.994800e+001 9.480000e-001 2.000000e+000
      vertex  3.994800e+001 9.480000e-001 0.000000e+000
      vertex  3.994800e+001 -2.003000e+000 0.000000e+000
    endloop
  endfacet
  facet normal -1.000000e+000 -0.000000e+000 0.000000e+000
    outer loop
      vertex  3.994800e+001 9.480000e-001 2.000000e+000
      vertex  3.994800e+001 -2.003000e+000 0.000000e+000
      vertex  3.994800e+001 -2.003000e+000 2.000000e+000
    endloop
  endfacet
  facet normal 2.353818e-001 9.719030e-001 -0.000000e+000
    outer loop
      vertex  4.190000e+001 2.477000e+000 0.000000e+000
      vertex  3.412500e+001 4.360000e+000 2.000000e+000
      vertex  4.190000e+001 2.477000e+000 2.000000e+000
    endloop
  endfacet
  facet normal 1.000000e+000 0.000000e+000 0.000000e+000
    outer loop
      vertex  3.606900e+001 -9.930000e-001 2.000000e+000
      vertex  3.606900e+001 -9.930000e-001 0.000000e+000
      vertex  3.606900e+001 1.889000e+000 0.000000e+000
    endloop
  endfacet
  facet normal 1.000000e+000 -0.000000e+000 0.000000e+000
    outer loop
      vertex  3.606900e+001 -9.930000e-001 2.000000e+000
      vertex  3.606900e+001 1.889000e+000 0.000000e+000
      vertex  3.606900e+001 1.889000e+000 2.000000e+000
    endloop
  endfacet
  facet normal -1.000000e+000 0.000000e+000 0.000000e+000
    outer loop
      vertex  -3.260000e+001 -7.988000e+000 4.490000e+000
      vertex  -3.260000e+001 -3.064000e+000 7.000000e+000
      vertex  -3.260000e+001 -7.650000e+000 3.826000e+000
    endloop
  endfacet
  facet normal -1.000000e+000 0.000000e+000 0.000000e+000
    outer loop
      vertex  -3.260000e+001 -3.064000e+000 7.000000e+000
      vertex  -3.260000e+001 -7.988000e+000 4.490000e+000
      vertex  -3.260000e+001 -8.269000e+000 4.738000e+000
    endloop
  endfacet
  facet normal -1.000000e+000 0.000000e+000 0.000000e+000
    outer loop
      vertex  -3.260000e+001 -8.269000e+000 4.738000e+000
      vertex  -3.260000e+001 -8.739000e+000 4.944000e+000
      vertex  -3.260000e+001 -3.064000e+000 7.000000e+000
    endloop
  endfacet
  facet normal -1.000000e+000 0.000000e+000 0.000000e+000
    outer loop
      vertex  -3.260000e+001 -1.261100e+001 0.000000e+000
      vertex  -3.260000e+001 -9.181000e+000 2.004000e+000
      vertex  -3.260000e+001 -3.064000e+000 0.000000e+000
    endloop
  endfacet
  facet normal -1.000000e+000 0.000000e+000 -0.000000e+000
    outer loop
      vertex  -3.260000e+001 -7.988000e+000 2.510000e+000
      vertex  -3.260000e+001 -3.064000e+000 0.000000e+000
      vertex  -3.260000e+001 -8.603000e+000 2.092000e+000
    endloop
  endfacet
  facet normal -1.000000e+000 0.000000e+000 -0.000000e+000
    outer loop
      vertex  -3.260000e+001 -7.730000e+000 2.941000e+000
      vertex  -3.260000e+001 -3.064000e+000 0.000000e+000
      vertex  -3.260000e+001 -7.988000e+000 2.510000e+000
    endloop
  endfacet
  facet normal -1.000000e+000 0.000000e+000 0.000000e+000
    outer loop
      vertex  -3.260000e+001 -3.064000e+000 0.000000e+000
      vertex  -3.260000e+001 -7.730000e+000 2.941000e+000
      vertex  -3.260000e+001 -7.615000e+000 3.453000e+000
    endloop
  endfacet
  facet normal -1.000000e+000 0.000000e+000 0.000000e+000
    outer loop
      vertex  -3.260000e+001 -7.650000e+000 3.826000e+000
      vertex  -3.260000e+001 -3.064000e+000 7.000000e+000
      vertex  -3.260000e+001 -7.615000e+000 3.453000e+000
    endloop
  endfacet
  facet normal -1.000000e+000 0.000000e+000 0.000000e+000
    outer loop
      vertex  -3.260000e+001 -3.064000e+000 0.000000e+000
      vertex  -3.260000e+001 -7.615000e+000 3.453000e+000
      vertex  -3.260000e+001 -3.064000e+000 7.000000e+000
    endloop
  endfacet
  facet normal -1.000000e+000 -0.000000e+000 0.000000e+000
    outer loop
      vertex  -3.260000e+001 -1.010000e+001 4.622000e+000
      vertex  -3.260000e+001 -1.034800e+001 4.341000e+000
      vertex  -3.260000e+001 -1.261100e+001 7.000000e+000
    endloop
  endfacet
  facet normal -1.000000e+000 -0.000000e+000 0.000000e+000
    outer loop
      vertex  -3.260000e+001 -9.551000e+000 4.932000e+000
      vertex  -3.260000e+001 -1.010000e+001 4.622000e+000
      vertex  -3.260000e+001 -1.261100e+001 7.000000e+000
    endloop
  endfacet
  facet normal -1.000000e+000 0.000000e+000 0.000000e+000
    outer loop
      vertex  -3.260000e+001 -1.261100e+001 7.000000e+000
      vertex  -3.260000e+001 -3.064000e+000 7.000000e+000
      vertex  -3.260000e+001 -9.169000e+000 4.994000e+000
    endloop
  endfacet
  facet normal -1.000000e+000 0.000000e+000 0.000000e+000
    outer loop
      vertex  -3.260000e+001 -8.739000e+000 4.944000e+000
      vertex  -3.260000e+001 -9.169000e+000 4.994000e+000
      vertex  -3.260000e+001 -3.064000e+000 7.000000e+000
    endloop
  endfacet
  facet normal -1.000000e+000 -0.000000e+000 0.000000e+000
    outer loop
      vertex  -3.260000e+001 -9.169000e+000 4.994000e+000
      vertex  -3.260000e+001 -9.551000e+000 4.932000e+000
      vertex  -3.260000e+001 -1.261100e+001 7.000000e+000
    endloop
  endfacet
  facet normal -1.000000e+000 0.000000e+000 0.000000e+000
    outer loop
      vertex  -3.260000e+001 -1.057500e+001 3.232000e+000
      vertex  -3.260000e+001 -1.261100e+001 7.000000e+000
      vertex  -3.260000e+001 -1.055600e+001 3.859000e+000
    endloop
  endfacet
  facet normal -1.000000e+000 0.000000e+000 0.000000e+000
    outer loop
      vertex  -3.260000e+001 -1.055600e+001 3.859000e+000
      vertex  -3.260000e+001 -1.261100e+001 7.000000e+000
      vertex  -3.260000e+001 -1.034800e+001 4.341000e+000
    endloop
  endfacet
  facet normal -1.000000e+000 -0.000000e+000 0.000000e+000
    outer loop
      vertex  -3.260000e+001 -1.039800e+001 2.738000e+000
      vertex  -3.260000e+001 -1.261100e+001 0.000000e+000
      vertex  -3.260000e+001 -1.057500e+001 3.232000e+000
    endloop
  endfacet
  facet normal -1.000000e+000 -0.000000e+000 0.000000e+000
    outer loop
      vertex  -3.260000e+001 -1.016800e+001 2.442000e+000
      vertex  -3.260000e+001 -1.261100e+001 0.000000e+000
      vertex  -3.260000e+001 -1.039800e+001 2.738000e+000
    endloop
  endfacet
  facet normal -1.000000e+000 0.000000e+000 0.000000e+000
    outer loop
      vertex  -3.260000e+001 -1.261100e+001 7.000000e+000
      vertex  -3.260000e+001 -1.057500e+001 3.232000e+000
      vertex  -3.260000e+001 -1.261100e+001 0.000000e+000
    endloop
  endfacet
  facet normal -1.000000e+000 -0.000000e+000 0.000000e+000
    outer loop
      vertex  -3.260000e+001 -9.700000e+000 2.138000e+000
      vertex  -3.260000e+001 -1.261100e+001 0.000000e+000
      vertex  -3.260000e+001 -1.016800e+001 2.442000e+000
    endloop
  endfacet
  facet normal -1.000000e+000 0.000000e+000 -0.000000e+000
    outer loop
      vertex  -3.260000e+001 -8.603000e+000 2.092000e+000
      vertex  -3.260000e+001 -3.064000e+000 0.000000e+000
      vertex  -3.260000e+001 -9.181000e+000 2.004000e+000
    endloop
  endfacet
  facet normal -1.000000e+000 0.000000e+000 -0.000000e+000
    outer loop
      vertex  -3.260000e+001 -9.700000e+000 2.138000e+000
      vertex  -3.260000e+001 -9.181000e+000 2.004000e+000
      vertex  -3.260000e+001 -1.261100e+001 0.000000e+000
    endloop
  endfacet
  facet normal 0.000000e+000 -1.000000e+000 0.000000e+000
    outer loop
      vertex  -3.260000e+001 -1.261100e+001 0.000000e+000
      vertex  -2.960000e+001 -1.261100e+001 0.000000e+000
      vertex  -3.260000e+001 -1.261100e+001 7.000000e+000
    endloop
  endfacet
  facet normal -0.000000e+000 -1.000000e+000 -0.000000e+000
    outer loop
      vertex  -2.960000e+001 -1.261100e+001 7.000000e+000
      vertex  -3.260000e+001 -1.261100e+001 7.000000e+000
      vertex  -2.960000e+001 -1.261100e+001 0.000000e+000
    endloop
  endfacet
  facet normal 0.000000e+000 0.000000e+000 -1.000000e+000
    outer loop
      vertex  -3.260000e+001 -3.064000e+000 0.000000e+000
      vertex  9.579922e+000 3.886396e+000 0.000000e+000
      vertex  -2.960000e+001 -5.610000e+000 0.000000e+000
    endloop
  endfacet
  facet normal 0.000000e+000 -0.000000e+000 -1.000000e+000
    outer loop
      vertex  9.579922e+000 3.886396e+000 0.000000e+000
      vertex  9.580000e+000 3.886000e+000 0.000000e+000
      vertex  -2.960000e+001 -5.610000e+000 0.000000e+000
    endloop
  endfacet
  facet normal 0.000000e+000 0.000000e+000 -1.000000e+000
    outer loop
      vertex  -3.260000e+001 -3.064000e+000 0.000000e+000
      vertex  -2.960000e+001 -5.610000e+000 0.000000e+000
      vertex  -3.260000e+001 -1.261100e+001 0.000000e+000
    endloop
  endfacet
  facet normal 0.000000e+000 0.000000e+000 -1.000000e+000
    outer loop
      vertex  -2.960000e+001 -1.261100e+001 0.000000e+000
      vertex  -3.260000e+001 -1.261100e+001 0.000000e+000
      vertex  -2.960000e+001 -5.610000e+000 0.000000e+000
    endloop
  endfacet
  facet normal -1.625872e-001 9.866942e-001 0.000000e+000
    outer loop
      vertex  -3.260000e+001 -3.064000e+000 0.000000e+000
      vertex  9.579922e+000 3.886396e+000 7.000000e+000
      vertex  9.579922e+000 3.886396e+000 0.000000e+000
    endloop
  endfacet
  facet normal 0.000000e+000 0.000000e+000 1.000000e+000
    outer loop
      vertex  9.580000e+000 3.886000e+000 7.000000e+000
      vertex  9.579922e+000 3.886396e+000 7.000000e+000
      vertex  -2.960000e+001 -5.610000e+000 7.000000e+000
    endloop
  endfacet
  facet normal -0.000000e+000 0.000000e+000 1.000000e+000
    outer loop
      vertex  -3.260000e+001 -3.064000e+000 7.000000e+000
      vertex  -2.960000e+001 -5.610000e+000 7.000000e+000
      vertex  9.579922e+000 3.886396e+000 7.000000e+000
    endloop
  endfacet
  facet normal 1.625968e-001 -9.866925e-001 0.000000e+000
    outer loop
      vertex  -2.960000e+001 -5.610000e+000 0.000000e+000
      vertex  1.215110e+001 1.270153e+000 0.000000e+000
      vertex  -2.960000e+001 -5.610000e+000 7.000000e+000
    endloop
  endfacet
endsolid vcg
