solid working_stargate_mk2_rail_l_3
facet normal 0.8195293783296141 0.573037169871795 3.7636560534792434e-14
  outer loop
    vertex 16.044556749185183 1.2891501739147553 -5.991864782117773e-13
    vertex 12.789497398673893 5.944374836823075 2.000000000000284
    vertex 16.0445567491851 1.2891501739146205 1.999999999999265
  endloop
endfacet
facet normal 0.8195293783296141 0.573037169871795 3.7636560534792434e-14
  outer loop
    vertex 12.789497398673893 5.944374836823075 2.000000000000284
    vertex 16.044556749185183 1.2891501739147553 -5.991864782117773e-13
    vertex 12.789497398674008 5.9443748368232345 2.411184141237754e-13
  endloop
endfacet
facet normal 0.843037628036106 -0.5378545878908687 -9.91002070307821e-15
  outer loop
    vertex 16.000377423912692 0.2923329650952002 -1.1406200428609735e-13
    vertex 16.115446087334142 0.4726925181344003 1.9999999999999452
    vertex 16.000377423912667 0.29233296509510814 1.9999999999998657
  endloop
endfacet
facet normal 0.843037628036106 -0.5378545878908687 -9.91002070307821e-15
  outer loop
    vertex 16.115446087334142 0.4726925181344003 1.9999999999999452
    vertex 16.000377423912692 0.2923329650952002 -1.1406200428609735e-13
    vertex 16.115446087334178 0.4726925181344981 -2.281240085721947e-13
  endloop
endfacet
facet normal -0.05849809407658131 -0.9982875202011732 -4.4028842504755146e-14
  outer loop
    vertex -11.863473493001829 2.0863240024482364e-13 -3.7250629247864705e-13
    vertex -12.077546276318344 0.012544331732438371 1.9999999999990976
    vertex -12.077546276318278 0.012544331732556764 -8.706251719559077e-13
  endloop
endfacet
facet normal -0.05849809407658131 -0.9982875202011732 -4.4028842504755146e-14
  outer loop
    vertex -12.077546276318344 0.012544331732438371 1.9999999999990976
    vertex -11.863473493001829 2.0863240024482364e-13 -3.7250629247864705e-13
    vertex -11.863473493001935 6.280629349930678e-14 1.9999999999997733
  endloop
endfacet
facet normal -0.7377218311040035 -0.6751048066134296 -4.0722631885981435e-14
  outer loop
    vertex -12.606333729955017 0.3499085827448563 1.9999999999998557
    vertex -12.46190174124386 0.19208030165707968 -3.4796130421455015e-13
    vertex -12.461901741243906 0.19208030165697285 1.9999999999997227
  endloop
endfacet
facet normal -0.7377218311040035 -0.6751048066134296 -4.0722631885981435e-14
  outer loop
    vertex -12.46190174124386 0.19208030165707968 -3.4796130421455015e-13
    vertex -12.606333729955017 0.3499085827448563 1.9999999999998557
    vertex -12.606333729954967 0.3499085827449675 -2.1368578018154948e-13
  endloop
endfacet
facet normal 0.8873145506739732 0.46116470827920597 3.393986652002664e-14
  outer loop
    vertex 16.14321837222153 1.0993180116924033 -6.497202775790356e-14
    vertex 16.0445567491851 1.2891501739146205 1.999999999999265
    vertex 16.143218372221494 1.0993180116923067 2.0000000000001052
  endloop
endfacet
facet normal 0.8873145506739732 0.46116470827920597 3.393986652002664e-14
  outer loop
    vertex 16.0445567491851 1.2891501739146205 1.999999999999265
    vertex 16.14321837222153 1.0993180116924033 -6.497202775790356e-14
    vertex 16.044556749185183 1.2891501739147553 -5.991864782117773e-13
  endloop
endfacet
facet normal 0.9990192961706701 -0.04427692264215044 1.380158732040564e-14
  outer loop
    vertex 16.186239533130035 0.8194249809723315 -3.450736585364211e-13
    vertex 16.189386003020143 0.8904187164792013 1.9999999999995366
    vertex 16.186239533130024 0.8194249809722478 1.9999999999997358
  endloop
endfacet
facet normal 0.9990192961706701 -0.04427692264215044 1.380158732040564e-14
  outer loop
    vertex 16.189386003020143 0.8904187164792013 1.9999999999995366
    vertex 16.186239533130035 0.8194249809723315 -3.450736585364211e-13
    vertex 16.18938600302026 0.8904187164793497 -4.187086233287118e-13
  endloop
endfacet
facet normal 0.46116470827949796 -0.8873145506738215 -3.1012357429114606e-14
  outer loop
    vertex 15.842549142824083 0.14790097638421848 1.999999999999691
    vertex 15.652716980602298 0.04923935334816113 -2.0646666598622685e-13
    vertex 15.842549142824142 0.14790097638432928 -3.7539393815677614e-13
  endloop
endfacet
facet normal 0.46116470827949796 -0.8873145506738215 -3.1012357429114606e-14
  outer loop
    vertex 15.652716980602298 0.04923935334816113 -2.0646666598622685e-13
    vertex 15.842549142824083 0.14790097638421848 1.999999999999691
    vertex 15.652716980602182 0.04923935334800051 1.9999999999998368
  endloop
endfacet
facet normal 0.22969936305664423 -0.9732616311205184 -3.8344694424927895e-14
  outer loop
    vertex 15.652716980602182 0.04923935334800051 1.9999999999998368
    vertex 15.444084389212067 -2.685510480660014e-13 4.851244739256799e-13
    vertex 15.652716980602298 0.04923935334816113 -2.0646666598622685e-13
  endloop
endfacet
facet normal 0.22969936305664423 -0.9732616311205184 -3.8344694424927895e-14
  outer loop
    vertex 15.444084389212067 -2.685510480660014e-13 4.851244739256799e-13
    vertex 15.652716980602182 0.04923935334800051 1.9999999999998368
    vertex 15.444084389212057 -3.5229277273174373e-13 2.0000000000005675
  endloop
endfacet
facet normal 0.6751048066112463 -0.7377218311060015 -2.1179944767277114e-14
  outer loop
    vertex 16.000377423912692 0.2923329650952002 -1.1406200428609735e-13
    vertex 15.842549142824083 0.14790097638421848 1.999999999999691
    vertex 15.842549142824142 0.14790097638432928 -3.7539393815677614e-13
  endloop
endfacet
facet normal 0.6751048066112463 -0.7377218311060015 -2.1179944767277114e-14
  outer loop
    vertex 15.842549142824083 0.14790097638421848 1.999999999999691
    vertex 16.000377423912692 0.2923329650952002 -1.1406200428609735e-13
    vertex 16.000377423912667 0.29233296509510814 1.9999999999998657
  endloop
endfacet
facet normal 0.9764382499694125 0.21579699719104362 2.4769283318893977e-14
  outer loop
    vertex 16.18938600302026 0.8904187164793497 -4.187086233287118e-13
    vertex 16.143218372221494 1.0993180116923067 2.0000000000001052
    vertex 16.189386003020143 0.8904187164792013 1.9999999999995366
  endloop
endfacet
facet normal 0.9764382499694125 0.21579699719104362 2.4769283318893977e-14
  outer loop
    vertex 16.143218372221494 1.0993180116923067 2.0000000000001052
    vertex 16.18938600302026 0.8904187164793497 -4.187086233287118e-13
    vertex 16.14321837222153 1.0993180116924033 -6.497202775790356e-14
  endloop
endfacet
facet normal 0.9990192961708431 -0.04427692263824907 1.3773831744741386e-14
  outer loop
    vertex 16.179913393836923 0.6766884300210839 -2.1801724869874306e-13
    vertex 16.186239533130024 0.8194249809722478 1.9999999999997358
    vertex 16.179913393836816 0.6766884300209403 1.9999999999997387
  endloop
endfacet
facet normal 0.9990192961708431 -0.04427692263824907 1.3773831744741386e-14
  outer loop
    vertex 16.186239533130024 0.8194249809722478 1.9999999999997358
    vertex 16.179913393836923 0.6766884300210839 -2.1801724869874306e-13
    vertex 16.186239533130035 0.8194249809723315 -3.450736585364211e-13
  endloop
endfacet
facet normal 0.9535188282953216 -0.3013334433585443 2.0439570573505546e-15
  outer loop
    vertex 16.115446087334178 0.4726925181344981 -2.281240085721947e-13
    vertex 16.179913393836816 0.6766884300209403 1.9999999999997387
    vertex 16.115446087334142 0.4726925181344003 1.9999999999999452
  endloop
endfacet
facet normal 0.9535188282953216 -0.3013334433585443 2.0439570573505546e-15
  outer loop
    vertex 16.179913393836816 0.6766884300209403 1.9999999999997387
    vertex 16.115446087334178 0.4726925181344981 -2.281240085721947e-13
    vertex 16.179913393836923 0.6766884300210839 -2.1801724869874306e-13
  endloop
endfacet
facet normal -1.5605700943289187e-14 -4.30887713749854e-14 1.0
  outer loop
    vertex -16.14321837222189 5.4569170149449135 1.9999999999997213
    vertex -16.17991339383722 5.879546596616345 1.9999999999994267
    vertex -16.18938600302031 5.66581631015824 1.9999999999994122
  endloop
endfacet
facet normal -1.5605700943289187e-14 -4.30887713749854e-14 1.0
  outer loop
    vertex -16.17991339383722 5.879546596616345 1.9999999999994267
    vertex -16.14321837222189 5.4569170149449135 1.9999999999997213
    vertex -16.115446087334647 6.083542508502888 2.0000000000000577
  endloop
endfacet
facet normal -1.5605700943289187e-14 -4.30887713749854e-14 1.0
  outer loop
    vertex -16.115446087334647 6.083542508502888 2.0000000000000577
    vertex -16.14321837222189 5.4569170149449135 1.9999999999997213
    vertex -16.044556749185453 5.267084852722629 1.999999999999808
  endloop
endfacet
facet normal -1.5605700943289187e-14 -4.30887713749854e-14 1.0
  outer loop
    vertex -16.115446087334647 6.083542508502888 2.0000000000000577
    vertex -16.044556749185453 5.267084852722629 1.999999999999808
    vertex -16.000377423913292 6.26390206154204 1.9999999999994196
  endloop
endfacet
facet normal -1.5605700943289187e-14 -4.30887713749854e-14 1.0
  outer loop
    vertex -16.000377423913292 6.26390206154204 1.9999999999994196
    vertex -16.044556749185453 5.267084852722629 1.999999999999808
    vertex -12.606333729955017 0.3499085827448563 1.9999999999998557
  endloop
endfacet
facet normal -1.5605700943289187e-14 -4.30887713749854e-14 1.0
  outer loop
    vertex -16.000377423913292 6.26390206154204 1.9999999999994196
    vertex -12.606333729955017 0.3499085827448563 1.9999999999998557
    vertex -15.842549142824806 6.408334050252859 1.9999999999992766
  endloop
endfacet
facet normal -1.5605700943289187e-14 -4.30887713749854e-14 1.0
  outer loop
    vertex -15.842549142824806 6.408334050252859 1.9999999999992766
    vertex -12.606333729955017 0.3499085827448563 1.9999999999998557
    vertex -15.652716980602431 6.506995673289407 2.0000000000000417
  endloop
endfacet
facet normal -1.5605700943289187e-14 -4.30887713749854e-14 1.0
  outer loop
    vertex -15.652716980602431 6.506995673289407 2.0000000000000417
    vertex -12.606333729955017 0.3499085827448563 1.9999999999998557
    vertex -15.0265258832601 5.556235026636956 2.0000000000002554
  endloop
endfacet
facet normal -1.5605700943289187e-14 -4.30887713749854e-14 1.0
  outer loop
    vertex -15.652716980602431 6.506995673289407 2.0000000000000417
    vertex -15.0265258832601 5.556235026636956 2.0000000000002554
    vertex -15.444084389212732 6.556235026637038 1.9999999999995004
  endloop
endfacet
facet normal -1.5605700943289187e-14 -4.30887713749854e-14 1.0
  outer loop
    vertex -15.0265258832601 5.556235026636956 2.0000000000002554
    vertex -12.606333729955017 0.3499085827448563 1.9999999999998557
    vertex -11.840959768980948 1.000396148248745 1.9999999999998932
  endloop
endfacet
facet normal -1.5605700943289187e-14 -4.30887713749854e-14 1.0
  outer loop
    vertex -11.840959768980948 1.000396148248745 1.9999999999998932
    vertex -12.606333729955017 0.3499085827448563 1.9999999999998557
    vertex -12.461901741243906 0.19208030165697285 1.9999999999997227
  endloop
endfacet
facet normal -1.5605700943289187e-14 -4.30887713749854e-14 1.0
  outer loop
    vertex -11.840959768980948 1.000396148248745 1.9999999999998932
    vertex -12.461901741243906 0.19208030165697285 1.9999999999997227
    vertex -12.281542188204812 0.07701163823524845 1.9999999999994542
  endloop
endfacet
facet normal -1.5605700943289187e-14 -4.30887713749854e-14 1.0
  outer loop
    vertex -11.840959768980948 1.000396148248745 1.9999999999998932
    vertex -12.281542188204812 0.07701163823524845 1.9999999999994542
    vertex -12.077546276318344 0.012544331732438371 1.9999999999990976
  endloop
endfacet
facet normal -1.5605700943289187e-14 -4.30887713749854e-14 1.0
  outer loop
    vertex -11.840959768980948 1.000396148248745 1.9999999999998932
    vertex -12.077546276318344 0.012544331732438371 1.9999999999990976
    vertex -11.863473493001935 6.280629349930678e-14 1.9999999999997733
  endloop
endfacet
facet normal -1.5605700943289187e-14 -4.30887713749854e-14 1.0
  outer loop
    vertex -11.840959768980948 1.000396148248745 1.9999999999998932
    vertex -11.863473493001935 6.280629349930678e-14 1.9999999999997733
    vertex -11.83419938029977 1.0000000000002498 1.999999999999418
  endloop
endfacet
facet normal -1.5605700943289187e-14 -4.30887713749854e-14 1.0
  outer loop
    vertex -11.83419938029977 1.0000000000002498 1.999999999999418
    vertex -11.863473493001935 6.280629349930678e-14 1.9999999999997733
    vertex 15.444084389212057 -3.5229277273174373e-13 2.0000000000005675
  endloop
endfacet
facet normal -1.5605700943289187e-14 -4.30887713749854e-14 1.0
  outer loop
    vertex -11.83419938029977 1.0000000000002498 1.999999999999418
    vertex 15.444084389212057 -3.5229277273174373e-13 2.0000000000005675
    vertex 15.026525883259906 0.9999999999999253 2.000000000000036
  endloop
endfacet
facet normal -1.5605700943289187e-14 -4.30887713749854e-14 1.0
  outer loop
    vertex -15.0265258832601 5.556235026636956 2.0000000000002554
    vertex 11.528527297815598 6.556235026636786 2.000000000000384
    vertex -15.444084389212732 6.556235026637038 1.9999999999995004
  endloop
endfacet
facet normal -1.5605700943289187e-14 -4.30887713749854e-14 1.0
  outer loop
    vertex 11.528527297815598 6.556235026636786 2.000000000000384
    vertex -15.0265258832601 5.556235026636956 2.0000000000002554
    vertex 11.834264822851944 5.556235026636944 2.0000000000004965
  endloop
endfacet
facet normal -1.5605700943289187e-14 -4.30887713749854e-14 1.0
  outer loop
    vertex 11.528527297815598 6.556235026636786 2.000000000000384
    vertex 11.834264822851944 5.556235026636944 2.0000000000004965
    vertex 11.863549286036834 6.55623502663707 1.9999999999998181
  endloop
endfacet
facet normal -1.5605700943289187e-14 -4.30887713749854e-14 1.0
  outer loop
    vertex 11.863549286036834 6.55623502663707 1.9999999999998181
    vertex 11.834264822851944 5.556235026636944 2.0000000000004965
    vertex 11.840957074267783 5.555842732232722 2.000000000000433
  endloop
endfacet
facet normal -1.5605700943289187e-14 -4.30887713749854e-14 1.0
  outer loop
    vertex 11.863549286036834 6.55623502663707 1.9999999999998181
    vertex 11.840957074267783 5.555842732232722 2.000000000000433
    vertex 15.026525883259906 0.9999999999999253 2.000000000000036
  endloop
endfacet
facet normal -1.5605700943289187e-14 -4.30887713749854e-14 1.0
  outer loop
    vertex 11.863549286036834 6.55623502663707 1.9999999999998181
    vertex 15.026525883259906 0.9999999999999253 2.000000000000036
    vertex 12.077546276317989 6.543690694904474 1.9999999999998281
  endloop
endfacet
facet normal -1.5605700943289187e-14 -4.30887713749854e-14 1.0
  outer loop
    vertex 12.077546276317989 6.543690694904474 1.9999999999998281
    vertex 15.026525883259906 0.9999999999999253 2.000000000000036
    vertex 12.281542188204794 6.479223388401921 2.0000000000000564
  endloop
endfacet
facet normal -1.5605700943289187e-14 -4.30887713749854e-14 1.0
  outer loop
    vertex 12.281542188204794 6.479223388401921 2.0000000000000564
    vertex 15.026525883259906 0.9999999999999253 2.000000000000036
    vertex 12.461901741243762 6.364154724980169 2.000000000000238
  endloop
endfacet
facet normal -1.5605700943289187e-14 -4.30887713749854e-14 1.0
  outer loop
    vertex 12.461901741243762 6.364154724980169 2.000000000000238
    vertex 15.026525883259906 0.9999999999999253 2.000000000000036
    vertex 12.606333729954523 6.206326443892069 2.000000000000383
  endloop
endfacet
facet normal -1.5605700943289187e-14 -4.30887713749854e-14 1.0
  outer loop
    vertex 12.606333729954523 6.206326443892069 2.000000000000383
    vertex 15.026525883259906 0.9999999999999253 2.000000000000036
    vertex 12.789497398673893 5.944374836823075 2.000000000000284
  endloop
endfacet
facet normal -1.5605700943289187e-14 -4.30887713749854e-14 1.0
  outer loop
    vertex 12.789497398673893 5.944374836823075 2.000000000000284
    vertex 15.026525883259906 0.9999999999999253 2.000000000000036
    vertex 16.0445567491851 1.2891501739146205 1.999999999999265
  endloop
endfacet
facet normal -1.5605700943289187e-14 -4.30887713749854e-14 1.0
  outer loop
    vertex 16.0445567491851 1.2891501739146205 1.999999999999265
    vertex 15.026525883259906 0.9999999999999253 2.000000000000036
    vertex 15.444084389212057 -3.5229277273174373e-13 2.0000000000005675
  endloop
endfacet
facet normal -1.5605700943289187e-14 -4.30887713749854e-14 1.0
  outer loop
    vertex 16.0445567491851 1.2891501739146205 1.999999999999265
    vertex 15.444084389212057 -3.5229277273174373e-13 2.0000000000005675
    vertex 15.652716980602182 0.04923935334800051 1.9999999999998368
  endloop
endfacet
facet normal -1.5605700943289187e-14 -4.30887713749854e-14 1.0
  outer loop
    vertex 16.0445567491851 1.2891501739146205 1.999999999999265
    vertex 15.652716980602182 0.04923935334800051 1.9999999999998368
    vertex 15.842549142824083 0.14790097638421848 1.999999999999691
  endloop
endfacet
facet normal -1.5605700943289187e-14 -4.30887713749854e-14 1.0
  outer loop
    vertex 16.0445567491851 1.2891501739146205 1.999999999999265
    vertex 15.842549142824083 0.14790097638421848 1.999999999999691
    vertex 16.000377423912667 0.29233296509510814 1.9999999999998657
  endloop
endfacet
facet normal -1.5605700943289187e-14 -4.30887713749854e-14 1.0
  outer loop
    vertex 16.0445567491851 1.2891501739146205 1.999999999999265
    vertex 16.000377423912667 0.29233296509510814 1.9999999999998657
    vertex 16.115446087334142 0.4726925181344003 1.9999999999999452
  endloop
endfacet
facet normal -1.5605700943289187e-14 -4.30887713749854e-14 1.0
  outer loop
    vertex 16.0445567491851 1.2891501739146205 1.999999999999265
    vertex 16.115446087334142 0.4726925181344003 1.9999999999999452
    vertex 16.143218372221494 1.0993180116923067 2.0000000000001052
  endloop
endfacet
facet normal -1.5605700943289187e-14 -4.30887713749854e-14 1.0
  outer loop
    vertex 16.143218372221494 1.0993180116923067 2.0000000000001052
    vertex 16.115446087334142 0.4726925181344003 1.9999999999999452
    vertex 16.179913393836816 0.6766884300209403 1.9999999999997387
  endloop
endfacet
facet normal -1.5605700943289187e-14 -4.30887713749854e-14 1.0
  outer loop
    vertex 16.143218372221494 1.0993180116923067 2.0000000000001052
    vertex 16.179913393836816 0.6766884300209403 1.9999999999997387
    vertex 16.186239533130024 0.8194249809722478 1.9999999999997358
  endloop
endfacet
facet normal -1.5605700943289187e-14 -4.30887713749854e-14 1.0
  outer loop
    vertex 16.143218372221494 1.0993180116923067 2.0000000000001052
    vertex 16.186239533130024 0.8194249809722478 1.9999999999997358
    vertex 16.189386003020143 0.8904187164792013 1.9999999999995366
  endloop
endfacet
facet normal -1.7985612998927536e-14 -1.0 -4.3147600396881186e-14
  outer loop
    vertex 15.444084389212067 -2.685510480660014e-13 4.851244739256799e-13
    vertex -11.863473493001935 6.280629349930678e-14 1.9999999999997733
    vertex -11.863473493001829 2.0863240024482364e-13 -3.7250629247864705e-13
  endloop
endfacet
facet normal -1.7985612998927536e-14 -1.0 -4.3147600396881186e-14
  outer loop
    vertex -11.863473493001935 6.280629349930678e-14 1.9999999999997733
    vertex 15.444084389212067 -2.685510480660014e-13 4.851244739256799e-13
    vertex 15.444084389212057 -3.5229277273174373e-13 2.0000000000005675
  endloop
endfacet
facet normal -0.3013334433590013 -0.9535188282951773 -4.595616698010654e-14
  outer loop
    vertex -12.077546276318344 0.012544331732438371 1.9999999999990976
    vertex -12.281542188204766 0.0770116382353553 -6.136247066024225e-13
    vertex -12.077546276318278 0.012544331732556764 -8.706251719559077e-13
  endloop
endfacet
facet normal -0.3013334433590013 -0.9535188282951773 -4.595616698010654e-14
  outer loop
    vertex -12.281542188204766 0.0770116382353553 -6.136247066024225e-13
    vertex -12.077546276318344 0.012544331732438371 1.9999999999990976
    vertex -12.281542188204812 0.07701163823524845 1.9999999999994542
  endloop
endfacet
facet normal -0.5378545878921578 -0.8430376280352836 -4.4841700325098274e-14
  outer loop
    vertex -12.281542188204812 0.07701163823524845 1.9999999999994542
    vertex -12.46190174124386 0.19208030165707968 -3.4796130421455015e-13
    vertex -12.281542188204766 0.0770116382353553 -6.136247066024225e-13
  endloop
endfacet
facet normal -0.5378545878921578 -0.8430376280352836 -4.4841700325098274e-14
  outer loop
    vertex -12.46190174124386 0.19208030165707968 -3.4796130421455015e-13
    vertex -12.281542188204812 0.07701163823524845 1.9999999999994542
    vertex -12.461901741243906 0.19208030165697285 1.9999999999997227
  endloop
endfacet
facet normal -0.9990192961708336 0.044276922638460114 -1.3746076169128382e-14
  outer loop
    vertex -16.17991339383722 5.879546596616345 1.9999999999994267
    vertex -16.18938600302026 5.665816310158352 -6.554955689352937e-13
    vertex -16.18938600302031 5.66581631015824 1.9999999999994122
  endloop
endfacet
facet normal -0.9990192961708336 0.044276922638460114 -1.3746076169128382e-14
  outer loop
    vertex -16.18938600302026 5.665816310158352 -6.554955689352937e-13
    vertex -16.17991339383722 5.879546596616345 1.9999999999994267
    vertex -16.17991339383712 5.879546596616498 -7.204675966931973e-13
  endloop
endfacet
facet normal 1.0380585280245214e-14 1.0 4.3175355972496745e-14
  outer loop
    vertex -15.444084389212732 6.556235026637038 1.9999999999995004
    vertex 11.528527297815621 6.556235026636883 4.057142177771311e-13
    vertex -15.44408438921264 6.556235026637174 -5.587594387179706e-13
  endloop
endfacet
facet normal 1.0380585280245214e-14 1.0 4.3175355972496745e-14
  outer loop
    vertex 11.528527297815621 6.556235026636883 4.057142177771311e-13
    vertex -15.444084389212732 6.556235026637038 1.9999999999995004
    vertex 11.528527297815598 6.556235026636786 2.000000000000384
  endloop
endfacet
facet normal -0.8195293783296457 -0.5730371698717498 -3.76365605347933e-14
  outer loop
    vertex -16.044556749185453 5.267084852722629 1.999999999999808
    vertex -12.606333729954967 0.3499085827449675 -2.1368578018154948e-13
    vertex -12.606333729955017 0.3499085827448563 1.9999999999998557
  endloop
endfacet
facet normal -0.8195293783296457 -0.5730371698717498 -3.76365605347933e-14
  outer loop
    vertex -12.606333729954967 0.3499085827449675 -2.1368578018154948e-13
    vertex -16.044556749185453 5.267084852722629 1.999999999999808
    vertex -16.044556749185404 5.267084852722739 -2.627757567097433e-13
  endloop
endfacet
facet normal 0.3013334433578006 0.9535188282955567 4.5983922555706486e-14
  outer loop
    vertex 12.077546276317989 6.543690694904474 1.9999999999998281
    vertex 12.281542188204748 6.479223388401969 5.486526788445189e-14
    vertex 12.077546276318076 6.543690694904608 -4.042703949380666e-14
  endloop
endfacet
facet normal 0.3013334433578006 0.9535188282955567 4.5983922555706486e-14
  outer loop
    vertex 12.281542188204748 6.479223388401969 5.486526788445189e-14
    vertex 12.077546276317989 6.543690694904474 1.9999999999998281
    vertex 12.281542188204794 6.479223388401921 2.0000000000000564
  endloop
endfacet
facet normal -0.46116470827984246 0.8873145506736425 3.1053990792537255e-14
  outer loop
    vertex -15.842549142824806 6.408334050252859 1.9999999999992766
    vertex -15.652716980602321 6.506995673289556 -1.0251142157358117e-13
    vertex -15.842549142824783 6.408334050252953 -6.988102541072294e-13
  endloop
endfacet
facet normal -0.46116470827984246 0.8873145506736425 3.1053990792537255e-14
  outer loop
    vertex -15.652716980602321 6.506995673289556 -1.0251142157358117e-13
    vertex -15.842549142824806 6.408334050252859 1.9999999999992766
    vertex -15.652716980602431 6.506995673289407 2.0000000000000417
  endloop
endfacet
facet normal -0.22969936305366295 0.9732616311212221 3.837245000056128e-14
  outer loop
    vertex -15.652716980602321 6.506995673289556 -1.0251142157358117e-13
    vertex -15.444084389212732 6.556235026637038 1.9999999999995004
    vertex -15.44408438921264 6.556235026637174 -5.587594387179706e-13
  endloop
endfacet
facet normal -0.22969936305366295 0.9732616311212221 3.837245000056128e-14
  outer loop
    vertex -15.444084389212732 6.556235026637038 1.9999999999995004
    vertex -15.652716980602321 6.506995673289556 -1.0251142157358117e-13
    vertex -15.652716980602431 6.506995673289407 2.0000000000000417
  endloop
endfacet
facet normal -1.4432899320127035e-15 -1.0 -4.3147600396881034e-14
  outer loop
    vertex 11.834264822851985 5.556235026637014 1.0000000000004698
    vertex -15.0265258832601 5.556235026636956 2.0000000000002554
    vertex -15.026525883260073 5.556235026637012 1.0000000000001277
  endloop
endfacet
facet normal -1.4432899320127035e-15 -1.0 -4.3147600396881034e-14
  outer loop
    vertex -15.0265258832601 5.556235026636956 2.0000000000002554
    vertex 11.834264822851985 5.556235026637014 1.0000000000004698
    vertex 11.834264822851944 5.556235026636944 2.0000000000004965
  endloop
endfacet
facet normal 0.8195293783296967 0.5730371698716767 3.76365605347947e-14
  outer loop
    vertex 12.789497398674008 5.9443748368232345 2.411184141237754e-13
    vertex 12.606333729954523 6.206326443892069 2.000000000000383
    vertex 12.789497398673893 5.944374836823075 2.000000000000284
  endloop
endfacet
facet normal 0.8195293783296967 0.5730371698716767 3.76365605347947e-14
  outer loop
    vertex 12.606333729954523 6.206326443892069 2.000000000000383
    vertex 12.789497398674008 5.9443748368232345 2.411184141237754e-13
    vertex 12.606333729954605 6.206326443892203 3.248601387895178e-13
  endloop
endfacet
facet normal -0.9764382499697528 -0.21579699718950396 -2.4769283318916845e-14
  outer loop
    vertex -16.18938600302031 5.66581631015824 1.9999999999994122
    vertex -16.143218372221817 5.456917014945038 -4.374783202365506e-13
    vertex -16.14321837222189 5.4569170149449135 1.9999999999997213
  endloop
endfacet
facet normal -0.9764382499697528 -0.21579699718950396 -2.4769283318916845e-14
  outer loop
    vertex -16.143218372221817 5.456917014945038 -4.374783202365506e-13
    vertex -16.18938600302031 5.66581631015824 1.9999999999994122
    vertex -16.18938600302026 5.665816310158352 -6.554955689352937e-13
  endloop
endfacet
facet normal -0.8873145506737589 -0.46116470827961825 -3.3884355368788145e-14
  outer loop
    vertex -16.14321837222189 5.4569170149449135 1.9999999999997213
    vertex -16.044556749185404 5.267084852722739 -2.627757567097433e-13
    vertex -16.044556749185453 5.267084852722629 1.999999999999808
  endloop
endfacet
facet normal -0.8873145506737589 -0.46116470827961825 -3.3884355368788145e-14
  outer loop
    vertex -16.044556749185404 5.267084852722739 -2.627757567097433e-13
    vertex -16.14321837222189 5.4569170149449135 1.9999999999997213
    vertex -16.143218372221817 5.456917014945038 -4.374783202365506e-13
  endloop
endfacet
facet normal -0.8430376280362197 0.5378545878906906 9.937776278695108e-15
  outer loop
    vertex -16.000377423913292 6.26390206154204 1.9999999999994196
    vertex -16.115446087334576 6.083542508503013 -9.962377589545212e-14
    vertex -16.115446087334647 6.083542508502888 2.0000000000000577
  endloop
endfacet
facet normal -0.8430376280362197 0.5378545878906906 9.937776278695108e-15
  outer loop
    vertex -16.115446087334576 6.083542508503013 -9.962377589545212e-14
    vertex -16.000377423913292 6.26390206154204 1.9999999999994196
    vertex -16.000377423913246 6.263902061542144 -6.497202775790356e-13
  endloop
endfacet
facet normal -6.96720459103517e-13 1.0 4.314760039687476e-14
  outer loop
    vertex 11.528527297815621 6.556235026636883 4.057142177771311e-13
    vertex 11.863549286036834 6.55623502663707 1.9999999999998181
    vertex 11.863549286036823 6.55623502663714 2.1657342585967854e-14
  endloop
endfacet
facet normal -6.96720459103517e-13 1.0 4.314760039687476e-14
  outer loop
    vertex 11.863549286036834 6.55623502663707 1.9999999999998181
    vertex 11.528527297815621 6.556235026636883 4.057142177771311e-13
    vertex 11.528527297815598 6.556235026636786 2.000000000000384
  endloop
endfacet
facet normal -0.6751048066112565 0.7377218311059922 2.1193822555084957e-14
  outer loop
    vertex -16.000377423913246 6.263902061542144 -6.497202775790356e-13
    vertex -15.842549142824806 6.408334050252859 1.9999999999992766
    vertex -15.842549142824783 6.408334050252953 -6.988102541072294e-13
  endloop
endfacet
facet normal -0.6751048066112565 0.7377218311059922 2.1193822555084957e-14
  outer loop
    vertex -15.842549142824806 6.408334050252859 1.9999999999992766
    vertex -16.000377423913246 6.263902061542144 -6.497202775790356e-13
    vertex -16.000377423913292 6.26390206154204 1.9999999999994196
  endloop
endfacet
facet normal -0.058518741894905205 -0.9982863100569084 -5.5242296331671244e-14
  outer loop
    vertex 11.840957074267783 5.555842732232722 2.000000000000433
    vertex 11.834264822851985 5.556235026637014 1.0000000000004698
    vertex 11.840957074267795 5.555842732232768 1.0000000000003935
  endloop
endfacet
facet normal -0.058518741894905205 -0.9982863100569084 -5.5242296331671244e-14
  outer loop
    vertex 11.834264822851985 5.556235026637014 1.0000000000004698
    vertex 11.840957074267783 5.555842732232722 2.000000000000433
    vertex 11.834264822851944 5.556235026636944 2.0000000000004965
  endloop
endfacet
facet normal -0.9535188282955249 0.30133344335790097 -2.0162014817284807e-15
  outer loop
    vertex -16.115446087334647 6.083542508502888 2.0000000000000577
    vertex -16.17991339383712 5.879546596616498 -7.204675966931973e-13
    vertex -16.17991339383722 5.879546596616345 1.9999999999994267
  endloop
endfacet
facet normal -0.9535188282955249 0.30133344335790097 -2.0162014817284807e-15
  outer loop
    vertex -16.17991339383712 5.879546596616498 -7.204675966931973e-13
    vertex -16.115446087334647 6.083542508502888 2.0000000000000577
    vertex -16.115446087334576 6.083542508503013 -9.962377589545212e-14
  endloop
endfacet
facet normal 1.4708173625774407e-14 4.0475767143036846e-14 -1.0
  outer loop
    vertex -16.17991339383712 5.879546596616498 -7.204675966931973e-13
    vertex -16.143218372221817 5.456917014945038 -4.374783202365506e-13
    vertex -16.18938600302026 5.665816310158352 -6.554955689352937e-13
  endloop
endfacet
facet normal 1.4708173625774407e-14 4.0475767143036846e-14 -1.0
  outer loop
    vertex -16.143218372221817 5.456917014945038 -4.374783202365506e-13
    vertex -16.17991339383712 5.879546596616498 -7.204675966931973e-13
    vertex -16.115446087334576 6.083542508503013 -9.962377589545212e-14
  endloop
endfacet
facet normal 1.4708173625774407e-14 4.0475767143036846e-14 -1.0
  outer loop
    vertex -16.143218372221817 5.456917014945038 -4.374783202365506e-13
    vertex -16.115446087334576 6.083542508503013 -9.962377589545212e-14
    vertex -16.044556749185404 5.267084852722739 -2.627757567097433e-13
  endloop
endfacet
facet normal 1.4708173625774407e-14 4.0475767143036846e-14 -1.0
  outer loop
    vertex -16.044556749185404 5.267084852722739 -2.627757567097433e-13
    vertex -16.115446087334576 6.083542508503013 -9.962377589545212e-14
    vertex -16.000377423913246 6.263902061542144 -6.497202775790356e-13
  endloop
endfacet
facet normal 1.4708173625774407e-14 4.0475767143036846e-14 -1.0
  outer loop
    vertex -16.044556749185404 5.267084852722739 -2.627757567097433e-13
    vertex -16.000377423913246 6.263902061542144 -6.497202775790356e-13
    vertex -12.606333729954967 0.3499085827449675 -2.1368578018154948e-13
  endloop
endfacet
facet normal 1.4708173625774407e-14 4.0475767143036846e-14 -1.0
  outer loop
    vertex -12.606333729954967 0.3499085827449675 -2.1368578018154948e-13
    vertex -16.000377423913246 6.263902061542144 -6.497202775790356e-13
    vertex -15.842549142824783 6.408334050252953 -6.988102541072294e-13
  endloop
endfacet
facet normal 1.4708173625774407e-14 4.0475767143036846e-14 -1.0
  outer loop
    vertex -12.606333729954967 0.3499085827449675 -2.1368578018154948e-13
    vertex -15.842549142824783 6.408334050252953 -6.988102541072294e-13
    vertex -15.652716980602321 6.506995673289556 -1.0251142157358117e-13
  endloop
endfacet
facet normal 1.4708173625774407e-14 4.0475767143036846e-14 -1.0
  outer loop
    vertex -12.606333729954967 0.3499085827449675 -2.1368578018154948e-13
    vertex -15.652716980602321 6.506995673289556 -1.0251142157358117e-13
    vertex -15.44408438921264 6.556235026637174 -5.587594387179706e-13
  endloop
endfacet
facet normal 1.4708173625774407e-14 4.0475767143036846e-14 -1.0
  outer loop
    vertex -12.606333729954967 0.3499085827449675 -2.1368578018154948e-13
    vertex -15.44408438921264 6.556235026637174 -5.587594387179706e-13
    vertex 11.528527297815621 6.556235026636883 4.057142177771311e-13
  endloop
endfacet
facet normal 1.4708173625774407e-14 4.0475767143036846e-14 -1.0
  outer loop
    vertex -12.606333729954967 0.3499085827449675 -2.1368578018154948e-13
    vertex 11.528527297815621 6.556235026636883 4.057142177771311e-13
    vertex -12.46190174124386 0.19208030165707968 -3.4796130421455015e-13
  endloop
endfacet
facet normal 1.4708173625774407e-14 4.0475767143036846e-14 -1.0
  outer loop
    vertex -12.46190174124386 0.19208030165707968 -3.4796130421455015e-13
    vertex 11.528527297815621 6.556235026636883 4.057142177771311e-13
    vertex -12.281542188204766 0.0770116382353553 -6.136247066024225e-13
  endloop
endfacet
facet normal 1.4708173625774407e-14 4.0475767143036846e-14 -1.0
  outer loop
    vertex -12.281542188204766 0.0770116382353553 -6.136247066024225e-13
    vertex 11.528527297815621 6.556235026636883 4.057142177771311e-13
    vertex -12.077546276318278 0.012544331732556764 -8.706251719559077e-13
  endloop
endfacet
facet normal 1.4708173625774407e-14 4.0475767143036846e-14 -1.0
  outer loop
    vertex -12.077546276318278 0.012544331732556764 -8.706251719559077e-13
    vertex 11.528527297815621 6.556235026636883 4.057142177771311e-13
    vertex -11.863473493001829 2.0863240024482364e-13 -3.7250629247864705e-13
  endloop
endfacet
facet normal 1.4708173625774407e-14 4.0475767143036846e-14 -1.0
  outer loop
    vertex -11.863473493001829 2.0863240024482364e-13 -3.7250629247864705e-13
    vertex 11.528527297815621 6.556235026636883 4.057142177771311e-13
    vertex 15.444084389212067 -2.685510480660014e-13 4.851244739256799e-13
  endloop
endfacet
facet normal 1.4708173625774407e-14 4.0475767143036846e-14 -1.0
  outer loop
    vertex 15.444084389212067 -2.685510480660014e-13 4.851244739256799e-13
    vertex 11.528527297815621 6.556235026636883 4.057142177771311e-13
    vertex 11.863549286036823 6.55623502663714 2.1657342585967854e-14
  endloop
endfacet
facet normal 1.4708173625774407e-14 4.0475767143036846e-14 -1.0
  outer loop
    vertex 15.444084389212067 -2.685510480660014e-13 4.851244739256799e-13
    vertex 11.863549286036823 6.55623502663714 2.1657342585967854e-14
    vertex 12.077546276318076 6.543690694904608 -4.042703949380666e-14
  endloop
endfacet
facet normal 1.4708173625774407e-14 4.0475767143036846e-14 -1.0
  outer loop
    vertex 15.444084389212067 -2.685510480660014e-13 4.851244739256799e-13
    vertex 12.077546276318076 6.543690694904608 -4.042703949380666e-14
    vertex 12.281542188204748 6.479223388401969 5.486526788445189e-14
  endloop
endfacet
facet normal 1.4708173625774407e-14 4.0475767143036846e-14 -1.0
  outer loop
    vertex 15.444084389212067 -2.685510480660014e-13 4.851244739256799e-13
    vertex 12.281542188204748 6.479223388401969 5.486526788445189e-14
    vertex 12.461901741243809 6.364154724980281 1.7037109500961377e-13
  endloop
endfacet
facet normal 1.4708173625774407e-14 4.0475767143036846e-14 -1.0
  outer loop
    vertex 15.444084389212067 -2.685510480660014e-13 4.851244739256799e-13
    vertex 12.461901741243809 6.364154724980281 1.7037109500961377e-13
    vertex 12.606333729954605 6.206326443892203 3.248601387895178e-13
  endloop
endfacet
facet normal 1.4708173625774407e-14 4.0475767143036846e-14 -1.0
  outer loop
    vertex 15.444084389212067 -2.685510480660014e-13 4.851244739256799e-13
    vertex 12.606333729954605 6.206326443892203 3.248601387895178e-13
    vertex 12.789497398674008 5.9443748368232345 2.411184141237754e-13
  endloop
endfacet
facet normal 1.4708173625774407e-14 4.0475767143036846e-14 -1.0
  outer loop
    vertex 15.444084389212067 -2.685510480660014e-13 4.851244739256799e-13
    vertex 12.789497398674008 5.9443748368232345 2.411184141237754e-13
    vertex 16.044556749185183 1.2891501739147553 -5.991864782117773e-13
  endloop
endfacet
facet normal 1.4708173625774407e-14 4.0475767143036846e-14 -1.0
  outer loop
    vertex 15.444084389212067 -2.685510480660014e-13 4.851244739256799e-13
    vertex 16.044556749185183 1.2891501739147553 -5.991864782117773e-13
    vertex 15.652716980602298 0.04923935334816113 -2.0646666598622685e-13
  endloop
endfacet
facet normal 1.4708173625774407e-14 4.0475767143036846e-14 -1.0
  outer loop
    vertex 15.652716980602298 0.04923935334816113 -2.0646666598622685e-13
    vertex 16.044556749185183 1.2891501739147553 -5.991864782117773e-13
    vertex 15.842549142824142 0.14790097638432928 -3.7539393815677614e-13
  endloop
endfacet
facet normal 1.4708173625774407e-14 4.0475767143036846e-14 -1.0
  outer loop
    vertex 15.842549142824142 0.14790097638432928 -3.7539393815677614e-13
    vertex 16.044556749185183 1.2891501739147553 -5.991864782117773e-13
    vertex 16.000377423912692 0.2923329650952002 -1.1406200428609735e-13
  endloop
endfacet
facet normal 1.4708173625774407e-14 4.0475767143036846e-14 -1.0
  outer loop
    vertex 16.000377423912692 0.2923329650952002 -1.1406200428609735e-13
    vertex 16.044556749185183 1.2891501739147553 -5.991864782117773e-13
    vertex 16.115446087334178 0.4726925181344981 -2.281240085721947e-13
  endloop
endfacet
facet normal 1.4708173625774407e-14 4.0475767143036846e-14 -1.0
  outer loop
    vertex 16.115446087334178 0.4726925181344981 -2.281240085721947e-13
    vertex 16.044556749185183 1.2891501739147553 -5.991864782117773e-13
    vertex 16.14321837222153 1.0993180116924033 -6.497202775790356e-14
  endloop
endfacet
facet normal 1.4708173625774407e-14 4.0475767143036846e-14 -1.0
  outer loop
    vertex 16.115446087334178 0.4726925181344981 -2.281240085721947e-13
    vertex 16.14321837222153 1.0993180116924033 -6.497202775790356e-14
    vertex 16.179913393836923 0.6766884300210839 -2.1801724869874306e-13
  endloop
endfacet
facet normal 1.4708173625774407e-14 4.0475767143036846e-14 -1.0
  outer loop
    vertex 16.179913393836923 0.6766884300210839 -2.1801724869874306e-13
    vertex 16.14321837222153 1.0993180116924033 -6.497202775790356e-14
    vertex 16.186239533130035 0.8194249809723315 -3.450736585364211e-13
  endloop
endfacet
facet normal 1.4708173625774407e-14 4.0475767143036846e-14 -1.0
  outer loop
    vertex 16.186239533130035 0.8194249809723315 -3.450736585364211e-13
    vertex 16.14321837222153 1.0993180116924033 -6.497202775790356e-14
    vertex 16.18938600302026 0.8904187164793497 -4.187086233287118e-13
  endloop
endfacet
facet normal -1.2787624903705895e-14 -9.96715556208837e-14 1.0
  outer loop
    vertex -11.840959768980902 1.0003961482488126 0.9999999999998621
    vertex 11.834264822851985 5.556235026637014 1.0000000000004698
    vertex -15.026525883260073 5.556235026637012 1.0000000000001277
  endloop
endfacet
facet normal -1.2787624903705895e-14 -9.96715556208837e-14 1.0
  outer loop
    vertex 11.834264822851985 5.556235026637014 1.0000000000004698
    vertex -11.840959768980902 1.0003961482488126 0.9999999999998621
    vertex -11.83419938029975 1.0000000000003046 0.9999999999992903
  endloop
endfacet
facet normal -1.2787624903705895e-14 -9.96715556208837e-14 1.0
  outer loop
    vertex 11.834264822851985 5.556235026637014 1.0000000000004698
    vertex -11.83419938029975 1.0000000000003046 0.9999999999992903
    vertex 15.026525883259952 0.9999999999999953 1.000000000000008
  endloop
endfacet
facet normal -1.2787624903705895e-14 -9.96715556208837e-14 1.0
  outer loop
    vertex 11.834264822851985 5.556235026637014 1.0000000000004698
    vertex 15.026525883259952 0.9999999999999953 1.000000000000008
    vertex 11.840957074267795 5.555842732232768 1.0000000000003935
  endloop
endfacet
facet normal -0.8195293783296288 -0.5730371698717739 -5.0709436649754057e-14
  outer loop
    vertex 11.840957074267783 5.555842732232722 2.000000000000433
    vertex 15.026525883259952 0.9999999999999953 1.000000000000008
    vertex 15.026525883259906 0.9999999999999253 2.000000000000036
  endloop
endfacet
facet normal -0.8195293783296288 -0.5730371698717739 -5.0709436649754057e-14
  outer loop
    vertex 15.026525883259952 0.9999999999999953 1.000000000000008
    vertex 11.840957074267783 5.555842732232722 2.000000000000433
    vertex 11.840957074267795 5.555842732232768 1.0000000000003935
  endloop
endfacet
facet normal 1.3933298959045715e-14 1.0 4.311984482126552e-14
  outer loop
    vertex -11.83419938029977 1.0000000000002498 1.999999999999418
    vertex 15.026525883259952 0.9999999999999953 1.000000000000008
    vertex -11.83419938029975 1.0000000000003046 0.9999999999992903
  endloop
endfacet
facet normal 1.3933298959045715e-14 1.0 4.311984482126552e-14
  outer loop
    vertex 15.026525883259952 0.9999999999999953 1.000000000000008
    vertex -11.83419938029977 1.0000000000002498 1.999999999999418
    vertex 15.026525883259906 0.9999999999999253 2.000000000000036
  endloop
endfacet
facet normal 0.058498094013927304 0.9982875202048445 4.400108692852875e-14
  outer loop
    vertex -11.840959768980902 1.0003961482488126 0.9999999999998621
    vertex -11.83419938029977 1.0000000000002498 1.999999999999418
    vertex -11.83419938029975 1.0000000000003046 0.9999999999992903
  endloop
endfacet
facet normal 0.058498094013927304 0.9982875202048445 4.400108692852875e-14
  outer loop
    vertex -11.83419938029977 1.0000000000002498 1.999999999999418
    vertex -11.840959768980902 1.0003961482488126 0.9999999999998621
    vertex -11.840959768980948 1.000396148248745 1.9999999999998932
  endloop
endfacet
facet normal 0.5378545878920333 0.8430376280353631 4.486945590071176e-14
  outer loop
    vertex 12.281542188204794 6.479223388401921 2.0000000000000564
    vertex 12.461901741243809 6.364154724980281 1.7037109500961377e-13
    vertex 12.281542188204748 6.479223388401969 5.486526788445189e-14
  endloop
endfacet
facet normal 0.5378545878920333 0.8430376280353631 4.486945590071176e-14
  outer loop
    vertex 12.461901741243809 6.364154724980281 1.7037109500961377e-13
    vertex 12.281542188204794 6.479223388401921 2.0000000000000564
    vertex 12.461901741243762 6.364154724980169 2.000000000000238
  endloop
endfacet
facet normal 0.8195293783296542 0.5730371698717375 3.766431611040916e-14
  outer loop
    vertex -11.840959768980902 1.0003961482488126 0.9999999999998621
    vertex -15.0265258832601 5.556235026636956 2.0000000000002554
    vertex -11.840959768980948 1.000396148248745 1.9999999999998932
  endloop
endfacet
facet normal 0.8195293783296542 0.5730371698717375 3.766431611040916e-14
  outer loop
    vertex -15.0265258832601 5.556235026636956 2.0000000000002554
    vertex -11.840959768980902 1.0003961482488126 0.9999999999998621
    vertex -15.026525883260073 5.556235026637012 1.0000000000001277
  endloop
endfacet
facet normal 0.058518741880287564 0.9982863100577652 4.4029043782814663e-14
  outer loop
    vertex 11.863549286036823 6.55623502663714 2.1657342585967854e-14
    vertex 12.077546276317989 6.543690694904474 1.9999999999998281
    vertex 12.077546276318076 6.543690694904608 -4.042703949380666e-14
  endloop
endfacet
facet normal 0.058518741880287564 0.9982863100577652 4.4029043782814663e-14
  outer loop
    vertex 12.077546276317989 6.543690694904474 1.9999999999998281
    vertex 11.863549286036823 6.55623502663714 2.1657342585967854e-14
    vertex 11.863549286036834 6.55623502663707 1.9999999999998181
  endloop
endfacet
facet normal 0.7377218311052431 0.675104806612075 4.075038746162564e-14
  outer loop
    vertex 12.606333729954605 6.206326443892203 3.248601387895178e-13
    vertex 12.461901741243762 6.364154724980169 2.000000000000238
    vertex 12.606333729954523 6.206326443892069 2.000000000000383
  endloop
endfacet
facet normal 0.7377218311052431 0.675104806612075 4.075038746162564e-14
  outer loop
    vertex 12.461901741243762 6.364154724980169 2.000000000000238
    vertex 12.606333729954605 6.206326443892203 3.248601387895178e-13
    vertex 12.461901741243809 6.364154724980281 1.7037109500961377e-13
  endloop
endfacet
endsolid Untitled-574de7c7
