solid working_stargate_mk2_rail_l_2
facet normal 1.3594680936535042e-13 1.0 2.1260295352533516e-13
  outer loop
    vertex 11.5285272978158 6.556235026637026 2.8782608296751275e-12
    vertex 11.86354928603602 6.556235026636015 5.00000000000262
    vertex 11.863549286036978 6.556235026637262 2.2444226033258018e-12
  endloop
endfacet
facet normal 1.3594680936535042e-13 1.0 2.1260295352533516e-13
  outer loop
    vertex 11.86354928603602 6.556235026636015 5.00000000000262
    vertex 11.5285272978158 6.556235026637026 2.8782608296751275e-12
    vertex 11.528527297815257 6.5562350266360845 5.000000000002339
  endloop
endfacet
facet normal 0.5378545878915034 0.843037628035701 2.5596990522826707e-13
  outer loop
    vertex 12.281542188204465 6.479223388401232 5.000000000002384
    vertex 12.461901741243986 6.364154724980403 2.534630993977771e-12
    vertex 12.281542188204927 6.479223388402098 2.4176813440135447e-12
  endloop
endfacet
facet normal 0.5378545878915034 0.843037628035701 2.5596990522826707e-13
  outer loop
    vertex 12.461901741243986 6.364154724980403 2.534630993977771e-12
    vertex 12.281542188204465 6.479223388401232 5.000000000002384
    vertex 12.461901741242878 6.364154724979057 5.000000000003054
  endloop
endfacet
facet normal 0.4611647082796927 -0.8873145506737201 -1.225826060026505e-13
  outer loop
    vertex 15.84254914282424 0.14790097638441915 1.7174272670672508e-12
    vertex 15.652716980601646 0.0492393533471602 5.000000000001051
    vertex 15.65271698060239 0.04923935334824018 1.5586067547701532e-12
  endloop
endfacet
facet normal 0.4611647082796927 -0.8873145506737201 -1.225826060026505e-13
  outer loop
    vertex 15.652716980601646 0.0492393533471602 5.000000000001051
    vertex 15.84254914282424 0.14790097638441915 1.7174272670672508e-12
    vertex 15.842549142823403 0.14790097638326988 5.0000000000020375
  endloop
endfacet
facet normal -0.5378545878902432 -0.8430376280365051 -2.554147937160141e-13
  outer loop
    vertex -12.28154218820569 0.07701163823458645 4.999999999998394
    vertex -12.461901741243777 0.19208030165757564 -1.70443286151567e-12
    vertex -12.281542188204849 0.07701163823572997 -1.925337755892542e-12
  endloop
endfacet
facet normal -0.5378545878902432 -0.8430376280365051 -2.554147937160141e-13
  outer loop
    vertex -12.461901741243777 0.19208030165757564 -1.70443286151567e-12
    vertex -12.28154218820569 0.07701163823458645 4.999999999998394
    vertex -12.46190174124446 0.19208030165653608 4.99999999999733
  endloop
endfacet
facet normal -0.8430376280360283 0.5378545878909906 -6.3101807133920145e-15
  outer loop
    vertex -16.000377423913417 6.263902061541891 4.999999999998135
    vertex -16.115446087334387 6.083542508503571 -1.0677069894882152e-12
    vertex -16.115446087335098 6.08354250850252 4.999999999998629
  endloop
endfacet
facet normal -0.8430376280360283 0.5378545878909906 -6.3101807133920145e-15
  outer loop
    vertex -16.115446087334387 6.083542508503571 -1.0677069894882152e-12
    vertex -16.000377423913417 6.263902061541891 4.999999999998135
    vertex -16.000377423913243 6.263902061542579 -1.4416571048059267e-12
  endloop
endfacet
facet normal 0.8195293783295398 0.5730371698719012 2.388922393237253e-13
  outer loop
    vertex 12.78949739867424 5.9443748368233935 2.5028668915183514e-12
    vertex 12.606333729954176 6.206326443891363 5.000000000002222
    vertex 12.789497398673621 5.944374836822412 5.000000000002131
  endloop
endfacet
facet normal 0.8195293783295398 0.5730371698719012 2.388922393237253e-13
  outer loop
    vertex 12.606333729954176 6.206326443891363 5.000000000002222
    vertex 12.78949739867424 5.9443748368233935 2.5028668915183514e-12
    vertex 12.606333729954782 6.206326443892333 2.683344746401417e-12
  endloop
endfacet
facet normal 0.6751048066114086 -0.737721831105853 -6.017419423090888e-14
  outer loop
    vertex 16.00037742391202 0.2923329650941812 5.000000000001503
    vertex 15.84254914282424 0.14790097638441915 1.7174272670672508e-12
    vertex 16.00037742391273 0.2923329650952381 1.6178034911717986e-12
  endloop
endfacet
facet normal 0.6751048066114086 -0.737721831105853 -6.017419423090888e-14
  outer loop
    vertex 15.84254914282424 0.14790097638441915 1.7174272670672508e-12
    vertex 16.00037742391202 0.2923329650941812 5.000000000001503
    vertex 15.842549142823403 0.14790097638326988 5.0000000000020375
  endloop
endfacet
facet normal 0.9990192961709652 -0.04427692263549354 6.411632138300584e-14
  outer loop
    vertex 16.17991339383711 0.6766884300212247 1.6409046565968309e-12
    vertex 16.18938600301929 0.8904187164781636 5.000000000001897
    vertex 16.179913393836124 0.6766884300199772 5.000000000001916
  endloop
endfacet
facet normal 0.9990192961709652 -0.04427692263549354 6.411632138300584e-14
  outer loop
    vertex 16.18938600301929 0.8904187164781636 5.000000000001897
    vertex 16.17991339383711 0.6766884300212247 1.6409046565968309e-12
    vertex 16.18623953313008 0.8194249809723647 1.871916310847155e-12
  endloop
endfacet
facet normal 0.9990192961709652 -0.04427692263549354 6.411632138300584e-14
  outer loop
    vertex 16.18938600301929 0.8904187164781636 5.000000000001897
    vertex 16.18623953313008 0.8194249809723647 1.871916310847155e-12
    vertex 16.189386003020246 0.8904187164797287 1.5672696918045403e-12
  endloop
endfacet
facet normal 0.2296993630558305 -0.9732616311207105 -1.73721998771923e-13
  outer loop
    vertex 15.652716980601646 0.0492393533471602 5.000000000001051
    vertex 15.444084389212057 -2.5411281967535613e-13 2.47687808041519e-12
    vertex 15.65271698060239 0.04923935334824018 1.5586067547701532e-12
  endloop
endfacet
facet normal 0.2296993630558305 -0.9732616311207105 -1.73721998771923e-13
  outer loop
    vertex 15.444084389212057 -2.5411281967535613e-13 2.47687808041519e-12
    vertex 15.652716980601646 0.0492393533471602 5.000000000001051
    vertex 15.444084389211605 -1.1261818144703283e-12 5.000000000001871
  endloop
endfacet
facet normal -0.3013334433591785 -0.9535188282951212 -2.460522361216965e-13
  outer loop
    vertex -12.077546276318964 0.012544331731952525 4.999999999998136
    vertex -12.281542188204849 0.07701163823572997 -1.925337755892542e-12
    vertex -12.077546276318232 0.012544331733015179 -2.2198776150617047e-12
  endloop
endfacet
facet normal -0.3013334433591785 -0.9535188282951212 -2.460522361216965e-13
  outer loop
    vertex -12.281542188204849 0.07701163823572997 -1.925337755892542e-12
    vertex -12.077546276318964 0.012544331731952525 4.999999999998136
    vertex -12.28154218820569 0.07701163823458645 4.999999999998394
  endloop
endfacet
facet normal 1.4183749176039745e-13 2.1306015135925433e-13 -1.0
  outer loop
    vertex 11.83426482285169 5.556235026636398 4.000000000002474
    vertex -11.840959768981008 1.0003961482487398 3.9999999999974856
    vertex -15.026525883260367 5.556235026636797 3.999999999998375
  endloop
endfacet
facet normal 1.4183749176039745e-13 2.1306015135925433e-13 -1.0
  outer loop
    vertex -11.840959768981008 1.0003961482487398 3.9999999999974856
    vertex 11.83426482285169 5.556235026636398 4.000000000002474
    vertex -11.834199380300246 0.9999999999999458 3.999999999998599
  endloop
endfacet
facet normal 1.4183749176039745e-13 2.1306015135925433e-13 -1.0
  outer loop
    vertex -11.834199380300246 0.9999999999999458 3.999999999998599
    vertex 11.83426482285169 5.556235026636398 4.000000000002474
    vertex 15.026525883259264 0.9999999999991257 4.000000000001686
  endloop
endfacet
facet normal 1.4183749176039745e-13 2.1306015135925433e-13 -1.0
  outer loop
    vertex 15.026525883259264 0.9999999999991257 4.000000000001686
    vertex 11.83426482285169 5.556235026636398 4.000000000002474
    vertex 11.840957074267477 5.5558427322321515 4.000000000001917
  endloop
endfacet
facet normal 3.425038030968607e-14 1.0 2.1340786521819087e-13
  outer loop
    vertex -11.834199380300246 0.9999999999999458 3.999999999998599
    vertex 15.026525883259957 1.0000000000000613 2.065388571281801e-12
    vertex -11.834199380299678 1.000000000000795 -1.728977849779767e-12
  endloop
endfacet
facet normal 3.425038030968607e-14 1.0 2.1340786521819087e-13
  outer loop
    vertex 15.026525883259957 1.0000000000000613 2.065388571281801e-12
    vertex -11.834199380300246 0.9999999999999458 3.999999999998599
    vertex 15.026525883259264 0.9999999999991257 4.000000000001686
  endloop
endfacet
facet normal -0.05851874188013628 -0.9982863100577741 -2.2089221275321407e-13
  outer loop
    vertex 11.840957074267477 5.5558427322321515 4.000000000001917
    vertex 11.834264822852118 5.556235026637161 2.9634463771799345e-12
    vertex 11.84095707426787 5.555842732232879 2.7757494081015465e-12
  endloop
endfacet
facet normal -0.05851874188013628 -0.9982863100577741 -2.2089221275321407e-13
  outer loop
    vertex 11.834264822852118 5.556235026637161 2.9634463771799345e-12
    vertex 11.840957074267477 5.5558427322321515 4.000000000001917
    vertex 11.83426482285169 5.556235026636398 4.000000000002474
  endloop
endfacet
facet normal 0.05849809407772931 0.9982875202011058 2.2103154430141844e-13
  outer loop
    vertex -11.8409597689808 1.0003961482493404 -1.3333703918760874e-12
    vertex -11.834199380300246 0.9999999999999458 3.999999999998599
    vertex -11.834199380299678 1.000000000000795 -1.728977849779767e-12
  endloop
endfacet
facet normal 0.05849809407772931 0.9982875202011058 2.2103154430141844e-13
  outer loop
    vertex -11.834199380300246 0.9999999999999458 3.999999999998599
    vertex -11.8409597689808 1.0003961482493404 -1.3333703918760874e-12
    vertex -11.840959768981008 1.0003961482487398 3.9999999999974856
  endloop
endfacet
facet normal -0.05849809407681937 -0.9982875202011591 -2.207262329696709e-13
  outer loop
    vertex -11.863473493001818 6.468326319009065e-13 -1.90223659046751e-12
    vertex -12.077546276318964 0.012544331731952525 4.999999999998136
    vertex -12.077546276318232 0.012544331733015179 -2.2198776150617047e-12
  endloop
endfacet
facet normal -0.05849809407681937 -0.9982875202011591 -2.207262329696709e-13
  outer loop
    vertex -12.077546276318964 0.012544331731952525 4.999999999998136
    vertex -11.863473493001818 6.468326319009065e-13 -1.90223659046751e-12
    vertex -11.863473493002655 -5.024503479944542e-13 4.999999999997658
  endloop
endfacet
facet normal -0.8195293783296523 -0.5730371698717401 -2.338407245616723e-13
  outer loop
    vertex 15.026525883259264 0.9999999999991257 4.000000000001686
    vertex 14.579815818506919 1.6388626094564933 3.0000000000020717
    vertex 15.026525883259957 1.0000000000000613 2.065388571281801e-12
  endloop
endfacet
facet normal -0.8195293783296523 -0.5730371698717401 -2.338407245616723e-13
  outer loop
    vertex 14.579815818506919 1.6388626094564933 3.0000000000020717
    vertex 15.026525883259264 0.9999999999991257 4.000000000001686
    vertex 11.840957074267477 5.5558427322321515 4.000000000001917
  endloop
endfacet
facet normal -0.8195293783296523 -0.5730371698717401 -2.338407245616723e-13
  outer loop
    vertex 14.579815818506919 1.6388626094564933 3.0000000000020717
    vertex 11.840957074267477 5.5558427322321515 4.000000000001917
    vertex 12.287667139019625 4.916980122774876 3.000000000002264
  endloop
endfacet
facet normal -0.8195293783296523 -0.5730371698717401 -2.338407245616723e-13
  outer loop
    vertex 12.287667139019625 4.916980122774876 3.000000000002264
    vertex 11.840957074267477 5.5558427322321515 4.000000000001917
    vertex 12.287667139020439 4.916980122775661 1.0000000000022682
  endloop
endfacet
facet normal -0.8195293783296523 -0.5730371698717401 -2.338407245616723e-13
  outer loop
    vertex 15.026525883259957 1.0000000000000613 2.065388571281801e-12
    vertex 14.579815818507232 1.6388626094569438 1.000000000002967
    vertex 11.84095707426787 5.555842732232879 2.7757494081015465e-12
  endloop
endfacet
facet normal -0.8195293783296523 -0.5730371698717401 -2.338407245616723e-13
  outer loop
    vertex 14.579815818507232 1.6388626094569438 1.000000000002967
    vertex 15.026525883259957 1.0000000000000613 2.065388571281801e-12
    vertex 14.579815818506919 1.6388626094564933 3.0000000000020717
  endloop
endfacet
facet normal -0.8195293783296523 -0.5730371698717401 -2.338407245616723e-13
  outer loop
    vertex 11.84095707426787 5.555842732232879 2.7757494081015465e-12
    vertex 14.579815818507232 1.6388626094569438 1.000000000002967
    vertex 12.287667139020439 4.916980122775661 1.0000000000022682
  endloop
endfacet
facet normal -0.8195293783296523 -0.5730371698717401 -2.338407245616723e-13
  outer loop
    vertex 11.84095707426787 5.555842732232879 2.7757494081015465e-12
    vertex 12.287667139020439 4.916980122775661 1.0000000000022682
    vertex 11.840957074267477 5.5558427322321515 4.000000000001917
  endloop
endfacet
facet normal 0.30133344335786866 0.9535188282955351 2.4591345824366536e-13
  outer loop
    vertex 12.07754627631766 6.54369069490378 5.000000000002521
    vertex 12.281542188204927 6.479223388402098 2.4176813440135447e-12
    vertex 12.077546276318289 6.543690694904767 2.1303605990397045e-12
  endloop
endfacet
facet normal 0.30133344335786866 0.9535188282955351 2.4591345824366536e-13
  outer loop
    vertex 12.281542188204927 6.479223388402098 2.4176813440135447e-12
    vertex 12.07754627631766 6.54369069490378 5.000000000002521
    vertex 12.281542188204465 6.479223388401232 5.000000000002384
  endloop
endfacet
facet normal -2.875477633779155e-14 -1.0 -2.1038250747608744e-13
  outer loop
    vertex 11.834264822852118 5.556235026637161 2.9634463771799345e-12
    vertex -15.026525883260367 5.556235026636797 3.999999999998375
    vertex -15.026525883260044 5.556235026637473 -7.904930043878266e-13
  endloop
endfacet
facet normal -2.875477633779155e-14 -1.0 -2.1038250747608744e-13
  outer loop
    vertex -15.026525883260367 5.556235026636797 3.999999999998375
    vertex 11.834264822852118 5.556235026637161 2.9634463771799345e-12
    vertex 11.83426482285169 5.556235026636398 4.000000000002474
  endloop
endfacet
facet normal 0.9535188282954556 -0.30133344335812023 7.238348222673883e-14
  outer loop
    vertex 16.115446087334156 0.47269251813449414 2.00763565771922e-12
    vertex 16.179913393836124 0.6766884300199772 5.000000000001916
    vertex 16.11544608733382 0.4726925181336971 5.000000000001436
  endloop
endfacet
facet normal 0.9535188282954556 -0.30133344335812023 7.238348222673883e-14
  outer loop
    vertex 16.179913393836124 0.6766884300199772 5.000000000001916
    vertex 16.115446087334156 0.47269251813449414 2.00763565771922e-12
    vertex 16.17991339383711 0.6766884300212247 1.6409046565968309e-12
  endloop
endfacet
facet normal -0.737721831106198 -0.6751048066110314 -2.488576447300467e-13
  outer loop
    vertex -12.606333729955168 0.349908582744704 4.9999999999985505
    vertex -12.461901741243777 0.19208030165757564 -1.70443286151567e-12
    vertex -12.46190174124446 0.19208030165653608 4.99999999999733
  endloop
endfacet
facet normal -0.737721831106198 -0.6751048066110314 -2.488576447300467e-13
  outer loop
    vertex -12.461901741243777 0.19208030165757564 -1.70443286151567e-12
    vertex -12.606333729955168 0.349908582744704 4.9999999999985505
    vertex -12.606333729954898 0.349908582745449 -1.4719773844262817e-12
  endloop
endfacet
facet normal -0.6751048066113983 0.7377218311058624 6.006317192844645e-14
  outer loop
    vertex -16.000377423913243 6.263902061542579 -1.4416571048059267e-12
    vertex -15.842549142825153 6.40833405025256 4.999999999998536
    vertex -15.842549142824696 6.4083340502534325 -1.8112757516064448e-12
  endloop
endfacet
facet normal -0.6751048066113983 0.7377218311058624 6.006317192844645e-14
  outer loop
    vertex -15.842549142825153 6.40833405025256 4.999999999998536
    vertex -16.000377423913243 6.263902061542579 -1.4416571048059267e-12
    vertex -16.000377423913417 6.263902061541891 4.999999999998135
  endloop
endfacet
facet normal -0.9535188282953162 0.3013334433585617 -7.241123780234226e-14
  outer loop
    vertex -16.115446087335098 6.08354250850252 4.999999999998629
    vertex -16.17991339383697 5.879546596617031 -1.740528432492283e-12
    vertex -16.17991339383807 5.879546596615703 4.999999999998881
  endloop
endfacet
facet normal -0.9535188282953162 0.3013334433585617 -7.241123780234226e-14
  outer loop
    vertex -16.17991339383697 5.879546596617031 -1.740528432492283e-12
    vertex -16.115446087335098 6.08354250850252 4.999999999998629
    vertex -16.115446087334387 6.083542508503571 -1.0677069894882152e-12
  endloop
endfacet
facet normal -0.46116470827968453 0.8873145506737246 1.225270948514192e-13
  outer loop
    vertex -15.842549142825153 6.40833405025256 4.999999999998536
    vertex -15.652716980602168 6.506995673290085 -9.608640993974405e-13
    vertex -15.842549142824696 6.4083340502534325 -1.8112757516064448e-12
  endloop
endfacet
facet normal -0.46116470827968453 0.8873145506737246 1.225270948514192e-13
  outer loop
    vertex -15.652716980602168 6.506995673290085 -9.608640993974405e-13
    vertex -15.842549142825153 6.40833405025256 4.999999999998536
    vertex -15.65271698060343 6.506995673288641 4.99999999999894
  endloop
endfacet
facet normal 0.7377218311058245 0.6751048066114399 2.4894091145691724e-13
  outer loop
    vertex 12.606333729954782 6.206326443892333 2.683344746401417e-12
    vertex 12.461901741242878 6.364154724979057 5.000000000003054
    vertex 12.606333729954176 6.206326443891363 5.000000000002222
  endloop
endfacet
facet normal 0.7377218311058245 0.6751048066114399 2.4894091145691724e-13
  outer loop
    vertex 12.461901741242878 6.364154724979057 5.000000000003054
    vertex 12.606333729954782 6.206326443892333 2.683344746401417e-12
    vertex 12.461901741243986 6.364154724980403 2.534630993977771e-12
  endloop
endfacet
facet normal 0.8195293783296362 0.5730371698717633 2.2989943282425424e-13
  outer loop
    vertex -11.8409597689808 1.0003961482493404 -1.3333703918760874e-12
    vertex -12.287668486376807 1.6392568307841717 0.9999999999985417
    vertex -12.287668486376816 1.6392568307841024 2.9999999999980522
  endloop
endfacet
facet normal 0.8195293783296362 0.5730371698717633 2.2989943282425424e-13
  outer loop
    vertex -12.287668486376807 1.6392568307841717 0.9999999999985417
    vertex -11.8409597689808 1.0003961482493404 -1.3333703918760874e-12
    vertex -15.026525883260044 5.556235026637473 -7.904930043878266e-13
  endloop
endfacet
facet normal 0.8195293783296362 0.5730371698717633 2.2989943282425424e-13
  outer loop
    vertex -12.287668486376807 1.6392568307841717 0.9999999999985417
    vertex -15.026525883260044 5.556235026637473 -7.904930043878266e-13
    vertex -14.579817165863998 4.917374344102595 0.9999999999986673
  endloop
endfacet
facet normal 0.8195293783296362 0.5730371698717633 2.2989943282425424e-13
  outer loop
    vertex -14.579817165863998 4.917374344102595 0.9999999999986673
    vertex -15.026525883260044 5.556235026637473 -7.904930043878266e-13
    vertex -14.57981716586382 4.917374344102658 2.9999999999976654
  endloop
endfacet
facet normal 0.8195293783296362 0.5730371698717633 2.2989943282425424e-13
  outer loop
    vertex -14.57981716586382 4.917374344102658 2.9999999999976654
    vertex -15.026525883260044 5.556235026637473 -7.904930043878266e-13
    vertex -15.026525883260367 5.556235026636797 3.999999999998375
  endloop
endfacet
facet normal 0.8195293783296362 0.5730371698717633 2.2989943282425424e-13
  outer loop
    vertex -11.840959768981008 1.0003961482487398 3.9999999999974856
    vertex -12.287668486376816 1.6392568307841024 2.9999999999980522
    vertex -15.026525883260367 5.556235026636797 3.999999999998375
  endloop
endfacet
facet normal 0.8195293783296362 0.5730371698717633 2.2989943282425424e-13
  outer loop
    vertex -12.287668486376816 1.6392568307841024 2.9999999999980522
    vertex -11.840959768981008 1.0003961482487398 3.9999999999974856
    vertex -11.8409597689808 1.0003961482493404 -1.3333703918760874e-12
  endloop
endfacet
facet normal 0.8195293783296362 0.5730371698717633 2.2989943282425424e-13
  outer loop
    vertex -15.026525883260367 5.556235026636797 3.999999999998375
    vertex -12.287668486376816 1.6392568307841024 2.9999999999980522
    vertex -14.57981716586382 4.917374344102658 2.9999999999976654
  endloop
endfacet
facet normal 0.8430376280359362 -0.5378545878911347 6.407325228043887e-15
  outer loop
    vertex 16.00037742391273 0.2923329650952381 1.6178034911717986e-12
    vertex 16.11544608733382 0.4726925181336971 5.000000000001436
    vertex 16.00037742391202 0.2923329650941812 5.000000000001503
  endloop
endfacet
facet normal 0.8430376280359362 -0.5378545878911347 6.407325228043887e-15
  outer loop
    vertex 16.11544608733382 0.4726925181336971 5.000000000001436
    vertex 16.00037742391273 0.2923329650952381 1.6178034911717986e-12
    vertex 16.115446087334156 0.47269251813449414 2.00763565771922e-12
  endloop
endfacet
facet normal -0.8195293783296282 -0.5730371698717748 -2.3891999489933424e-13
  outer loop
    vertex -12.606333729955168 0.349908582744704 4.9999999999985505
    vertex -13.507880996681868 1.639256830784189 2.999999999997563
    vertex -12.606333729954898 0.349908582745449 -1.4719773844262817e-12
  endloop
endfacet
facet normal -0.8195293783296282 -0.5730371698717748 -2.3891999489933424e-13
  outer loop
    vertex -13.507880996681868 1.639256830784189 2.999999999997563
    vertex -12.606333729955168 0.349908582744704 4.9999999999985505
    vertex -16.044556749186032 5.26708485272218 4.999999999998604
  endloop
endfacet
facet normal -0.8195293783296282 -0.5730371698717748 -2.3891999489933424e-13
  outer loop
    vertex -13.507880996681868 1.639256830784189 2.999999999997563
    vertex -16.044556749186032 5.26708485272218 4.999999999998604
    vertex -15.800029676168938 4.917374344102716 2.9999999999976334
  endloop
endfacet
facet normal -0.8195293783296282 -0.5730371698717748 -2.3891999489933424e-13
  outer loop
    vertex -12.606333729954898 0.349908582745449 -1.4719773844262817e-12
    vertex -13.507880996682081 1.6392568307850437 0.9999999999979295
    vertex -16.044556749185283 5.26708485272326 -1.268398364118184e-12
  endloop
endfacet
facet normal -0.8195293783296282 -0.5730371698717748 -2.3891999489933424e-13
  outer loop
    vertex -13.507880996682081 1.6392568307850437 0.9999999999979295
    vertex -12.606333729954898 0.349908582745449 -1.4719773844262817e-12
    vertex -13.507880996681868 1.639256830784189 2.999999999997563
  endloop
endfacet
facet normal -0.8195293783296282 -0.5730371698717748 -2.3891999489933424e-13
  outer loop
    vertex -16.044556749185283 5.26708485272326 -1.268398364118184e-12
    vertex -13.507880996682081 1.6392568307850437 0.9999999999979295
    vertex -15.800029676168233 4.917374344102295 0.9999999999981014
  endloop
endfacet
facet normal -0.8195293783296282 -0.5730371698717748 -2.3891999489933424e-13
  outer loop
    vertex -16.044556749185283 5.26708485272326 -1.268398364118184e-12
    vertex -15.800029676168233 4.917374344102295 0.9999999999981014
    vertex -15.800029676168938 4.917374344102716 2.9999999999976334
  endloop
endfacet
facet normal -0.8195293783296282 -0.5730371698717748 -2.3891999489933424e-13
  outer loop
    vertex -16.044556749185283 5.26708485272326 -1.268398364118184e-12
    vertex -15.800029676168938 4.917374344102716 2.9999999999976334
    vertex -16.044556749186032 5.26708485272218 4.999999999998604
  endloop
endfacet
facet normal -0.9764382499697695 -0.21579699718942835 -1.859821252993721e-13
  outer loop
    vertex -16.189386003020907 5.665816310157776 4.999999999998914
    vertex -16.1432183722217 5.456917014945559 -1.2395219073368934e-12
    vertex -16.143218372222094 5.456917014944728 4.999999999998078
  endloop
endfacet
facet normal -0.9764382499697695 -0.21579699718942835 -1.859821252993721e-13
  outer loop
    vertex -16.1432183722217 5.456917014945559 -1.2395219073368934e-12
    vertex -16.189386003020907 5.665816310157776 4.999999999998914
    vertex -16.189386003020246 5.665816310158792 -1.6538990621484116e-12
  endloop
endfacet
facet normal -0.22969936305434363 0.9732616311210613 1.7365260983285958e-13
  outer loop
    vertex -15.652716980602168 6.506995673290085 -9.608640993974405e-13
    vertex -15.444084389213268 6.5562350266365925 4.999999999998285
    vertex -15.444084389212414 6.556235026637747 -1.362246848657378e-12
  endloop
endfacet
facet normal -0.22969936305434363 0.9732616311210613 1.7365260983285958e-13
  outer loop
    vertex -15.444084389213268 6.5562350266365925 4.999999999998285
    vertex -15.652716980602168 6.506995673290085 -9.608640993974405e-13
    vertex -15.65271698060343 6.506995673288641 4.99999999999894
  endloop
endfacet
facet normal 3.069766663088557e-14 1.0 2.1257519794972208e-13
  outer loop
    vertex -15.444084389213268 6.5562350266365925 4.999999999998285
    vertex 11.5285272978158 6.556235026637026 2.8782608296751275e-12
    vertex -15.444084389212414 6.556235026637747 -1.362246848657378e-12
  endloop
endfacet
facet normal 3.069766663088557e-14 1.0 2.1257519794972208e-13
  outer loop
    vertex 11.5285272978158 6.556235026637026 2.8782608296751275e-12
    vertex -15.444084389213268 6.5562350266365925 4.999999999998285
    vertex 11.528527297815257 6.5562350266360845 5.000000000002339
  endloop
endfacet
facet normal -0.9990192961708645 0.04427692263776261 -1.331166823633815e-13
  outer loop
    vertex -16.17991339383807 5.879546596615703 4.999999999998881
    vertex -16.189386003020246 5.665816310158792 -1.6538990621484116e-12
    vertex -16.189386003020907 5.665816310157776 4.999999999998914
  endloop
endfacet
facet normal -0.9990192961708645 0.04427692263776261 -1.331166823633815e-13
  outer loop
    vertex -16.189386003020246 5.665816310158792 -1.6538990621484116e-12
    vertex -16.17991339383807 5.879546596615703 4.999999999998881
    vertex -16.17991339383697 5.879546596617031 -1.740528432492283e-12
  endloop
endfacet
facet normal -0.8873145506737323 -0.46116470827966954 -2.2459696412132844e-13
  outer loop
    vertex -16.143218372222094 5.456917014944728 4.999999999998078
    vertex -16.044556749185283 5.26708485272326 -1.268398364118184e-12
    vertex -16.044556749186032 5.26708485272218 4.999999999998604
  endloop
endfacet
facet normal -0.8873145506737323 -0.46116470827966954 -2.2459696412132844e-13
  outer loop
    vertex -16.044556749185283 5.26708485272326 -1.268398364118184e-12
    vertex -16.143218372222094 5.456917014944728 4.999999999998078
    vertex -16.1432183722217 5.456917014945559 -1.2395219073368934e-12
  endloop
endfacet
facet normal 0.05851874187935317 0.9982863100578199 2.2022607893845993e-13
  outer loop
    vertex 11.863549286036978 6.556235026637262 2.2444226033258018e-12
    vertex 12.07754627631766 6.54369069490378 5.000000000002521
    vertex 12.077546276318289 6.543690694904767 2.1303605990397045e-12
  endloop
endfacet
facet normal 0.05851874187935317 0.9982863100578199 2.2022607893845993e-13
  outer loop
    vertex 12.07754627631766 6.54369069490378 5.000000000002521
    vertex 11.863549286036978 6.556235026637262 2.2444226033258018e-12
    vertex 11.86354928603602 6.556235026636015 5.00000000000262
  endloop
endfacet
facet normal 3.1197266991966886e-14 1.0 1.4124336861755577e-13
  outer loop
    vertex -0.8547535364339455 1.4033671130074385 7.484052491209296
    vertex 4.145246463566269 1.4033671130076002 5.000000000000596
    vertex -0.8547535364337434 1.4033671130077099 4.9999999999991696
  endloop
endfacet
facet normal 3.1197266991966886e-14 1.0 1.4124336861755577e-13
  outer loop
    vertex 4.145246463566269 1.4033671130076002 5.000000000000596
    vertex -0.8547535364339455 1.4033671130074385 7.484052491209296
    vertex 4.1452464635659885 1.4033671130071903 7.484052491209062
  endloop
endfacet
facet normal -2.2704060853584445e-14 -1.0 -1.3988334541239018e-13
  outer loop
    vertex 5.004802218373975 0.17407304551318648 5.000000000000455
    vertex 0.004802218373728101 0.17407304551293815 7.484052491209423
    vertex 0.004802218374005315 0.17407304551326733 4.999999999999128
  endloop
endfacet
facet normal -2.2704060853584445e-14 -1.0 -1.3988334541239018e-13
  outer loop
    vertex 0.004802218373728101 0.17407304551293815 7.484052491209423
    vertex 5.004802218373975 0.17407304551318648 5.000000000000455
    vertex 5.004802218373975 0.174073045512967 7.48405249120834
  endloop
endfacet
facet normal -1.355595856938681e-13 -1.9244896986716067e-13 1.0
  outer loop
    vertex -0.8547535364337434 1.4033671130077099 4.9999999999991696
    vertex 2.196920086002232 4.189766999328459 5.000000000000654
    vertex -2.8030799139977716 4.1897669993285165 4.999999999999317
  endloop
endfacet
facet normal -1.355595856938681e-13 -1.9244896986716067e-13 1.0
  outer loop
    vertex 2.196920086002232 4.189766999328459 5.000000000000654
    vertex -0.8547535364337434 1.4033671130077099 4.9999999999991696
    vertex 4.145246463566269 1.4033671130076002 5.000000000000596
  endloop
endfacet
facet normal -1.355595856938681e-13 -1.9244896986716067e-13 1.0
  outer loop
    vertex -11.863473493002655 -5.024503479944542e-13 4.999999999997658
    vertex -2.8030799139977716 4.1897669993285165 4.999999999999317
    vertex -3.6626356688052573 5.419061066823098 4.999999999999338
  endloop
endfacet
facet normal -1.355595856938681e-13 -1.9244896986716067e-13 1.0
  outer loop
    vertex -2.8030799139977716 4.1897669993285165 4.999999999999317
    vertex -11.863473493002655 -5.024503479944542e-13 4.999999999997658
    vertex -0.8547535364337434 1.4033671130077099 4.9999999999991696
  endloop
endfacet
facet normal -1.355595856938681e-13 -1.9244896986716067e-13 1.0
  outer loop
    vertex -0.8547535364337434 1.4033671130077099 4.9999999999991696
    vertex -11.863473493002655 -5.024503479944542e-13 4.999999999997658
    vertex 0.004802218374005315 0.17407304551326733 4.999999999999128
  endloop
endfacet
facet normal -1.355595856938681e-13 -1.9244896986716067e-13 1.0
  outer loop
    vertex 0.004802218374005315 0.17407304551326733 4.999999999999128
    vertex -11.863473493002655 -5.024503479944542e-13 4.999999999997658
    vertex 15.444084389211605 -1.1261818144703283e-12 5.000000000001871
  endloop
endfacet
facet normal -1.355595856938681e-13 -1.9244896986716067e-13 1.0
  outer loop
    vertex 0.004802218374005315 0.17407304551326733 4.999999999999128
    vertex 15.444084389211605 -1.1261818144703283e-12 5.000000000001871
    vertex 5.004802218373975 0.17407304551318648 5.000000000000455
  endloop
endfacet
facet normal -1.355595856938681e-13 -1.9244896986716067e-13 1.0
  outer loop
    vertex 5.004802218373975 0.17407304551318648 5.000000000000455
    vertex 15.444084389211605 -1.1261818144703283e-12 5.000000000001871
    vertex 11.528527297815257 6.5562350266360845 5.000000000002339
  endloop
endfacet
facet normal -1.355595856938681e-13 -1.9244896986716067e-13 1.0
  outer loop
    vertex 11.528527297815257 6.5562350266360845 5.000000000002339
    vertex 15.444084389211605 -1.1261818144703283e-12 5.000000000001871
    vertex 11.86354928603602 6.556235026636015 5.00000000000262
  endloop
endfacet
facet normal -1.355595856938681e-13 -1.9244896986716067e-13 1.0
  outer loop
    vertex 11.86354928603602 6.556235026636015 5.00000000000262
    vertex 15.444084389211605 -1.1261818144703283e-12 5.000000000001871
    vertex 12.07754627631766 6.54369069490378 5.000000000002521
  endloop
endfacet
facet normal -1.355595856938681e-13 -1.9244896986716067e-13 1.0
  outer loop
    vertex 12.07754627631766 6.54369069490378 5.000000000002521
    vertex 15.444084389211605 -1.1261818144703283e-12 5.000000000001871
    vertex 12.281542188204465 6.479223388401232 5.000000000002384
  endloop
endfacet
facet normal -1.355595856938681e-13 -1.9244896986716067e-13 1.0
  outer loop
    vertex 12.281542188204465 6.479223388401232 5.000000000002384
    vertex 15.444084389211605 -1.1261818144703283e-12 5.000000000001871
    vertex 12.461901741242878 6.364154724979057 5.000000000003054
  endloop
endfacet
facet normal -1.355595856938681e-13 -1.9244896986716067e-13 1.0
  outer loop
    vertex 12.461901741242878 6.364154724979057 5.000000000003054
    vertex 15.444084389211605 -1.1261818144703283e-12 5.000000000001871
    vertex 12.606333729954176 6.206326443891363 5.000000000002222
  endloop
endfacet
facet normal -1.355595856938681e-13 -1.9244896986716067e-13 1.0
  outer loop
    vertex 12.606333729954176 6.206326443891363 5.000000000002222
    vertex 15.444084389211605 -1.1261818144703283e-12 5.000000000001871
    vertex 12.789497398673621 5.944374836822412 5.000000000002131
  endloop
endfacet
facet normal -1.355595856938681e-13 -1.9244896986716067e-13 1.0
  outer loop
    vertex 12.789497398673621 5.944374836822412 5.000000000002131
    vertex 15.444084389211605 -1.1261818144703283e-12 5.000000000001871
    vertex 16.04455674918442 1.2891501739137308 5.0000000000015365
  endloop
endfacet
facet normal -1.355595856938681e-13 -1.9244896986716067e-13 1.0
  outer loop
    vertex 16.04455674918442 1.2891501739137308 5.0000000000015365
    vertex 15.444084389211605 -1.1261818144703283e-12 5.000000000001871
    vertex 15.652716980601646 0.0492393533471602 5.000000000001051
  endloop
endfacet
facet normal -1.355595856938681e-13 -1.9244896986716067e-13 1.0
  outer loop
    vertex 16.04455674918442 1.2891501739137308 5.0000000000015365
    vertex 15.652716980601646 0.0492393533471602 5.000000000001051
    vertex 15.842549142823403 0.14790097638326988 5.0000000000020375
  endloop
endfacet
facet normal -1.355595856938681e-13 -1.9244896986716067e-13 1.0
  outer loop
    vertex 16.04455674918442 1.2891501739137308 5.0000000000015365
    vertex 15.842549142823403 0.14790097638326988 5.0000000000020375
    vertex 16.00037742391202 0.2923329650941812 5.000000000001503
  endloop
endfacet
facet normal -1.355595856938681e-13 -1.9244896986716067e-13 1.0
  outer loop
    vertex 16.04455674918442 1.2891501739137308 5.0000000000015365
    vertex 16.00037742391202 0.2923329650941812 5.000000000001503
    vertex 16.11544608733382 0.4726925181336971 5.000000000001436
  endloop
endfacet
facet normal -1.355595856938681e-13 -1.9244896986716067e-13 1.0
  outer loop
    vertex 16.04455674918442 1.2891501739137308 5.0000000000015365
    vertex 16.11544608733382 0.4726925181336971 5.000000000001436
    vertex 16.143218372220403 1.0993180116911314 5.000000000002609
  endloop
endfacet
facet normal -1.355595856938681e-13 -1.9244896986716067e-13 1.0
  outer loop
    vertex 16.143218372220403 1.0993180116911314 5.000000000002609
    vertex 16.11544608733382 0.4726925181336971 5.000000000001436
    vertex 16.179913393836124 0.6766884300199772 5.000000000001916
  endloop
endfacet
facet normal -1.355595856938681e-13 -1.9244896986716067e-13 1.0
  outer loop
    vertex 16.143218372220403 1.0993180116911314 5.000000000002609
    vertex 16.179913393836124 0.6766884300199772 5.000000000001916
    vertex 16.18938600301929 0.8904187164781636 5.000000000001897
  endloop
endfacet
facet normal -1.355595856938681e-13 -1.9244896986716067e-13 1.0
  outer loop
    vertex -16.143218372222094 5.456917014944728 4.999999999998078
    vertex -16.17991339383807 5.879546596615703 4.999999999998881
    vertex -16.189386003020907 5.665816310157776 4.999999999998914
  endloop
endfacet
facet normal -1.355595856938681e-13 -1.9244896986716067e-13 1.0
  outer loop
    vertex -16.17991339383807 5.879546596615703 4.999999999998881
    vertex -16.143218372222094 5.456917014944728 4.999999999998078
    vertex -16.115446087335098 6.08354250850252 4.999999999998629
  endloop
endfacet
facet normal -1.355595856938681e-13 -1.9244896986716067e-13 1.0
  outer loop
    vertex -16.115446087335098 6.08354250850252 4.999999999998629
    vertex -16.143218372222094 5.456917014944728 4.999999999998078
    vertex -16.044556749186032 5.26708485272218 4.999999999998604
  endloop
endfacet
facet normal -1.355595856938681e-13 -1.9244896986716067e-13 1.0
  outer loop
    vertex -16.115446087335098 6.08354250850252 4.999999999998629
    vertex -16.044556749186032 5.26708485272218 4.999999999998604
    vertex -16.000377423913417 6.263902061541891 4.999999999998135
  endloop
endfacet
facet normal -1.355595856938681e-13 -1.9244896986716067e-13 1.0
  outer loop
    vertex -16.000377423913417 6.263902061541891 4.999999999998135
    vertex -16.044556749186032 5.26708485272218 4.999999999998604
    vertex -12.606333729955168 0.349908582744704 4.9999999999985505
  endloop
endfacet
facet normal -1.355595856938681e-13 -1.9244896986716067e-13 1.0
  outer loop
    vertex -16.000377423913417 6.263902061541891 4.999999999998135
    vertex -12.606333729955168 0.349908582744704 4.9999999999985505
    vertex -15.842549142825153 6.40833405025256 4.999999999998536
  endloop
endfacet
facet normal -1.355595856938681e-13 -1.9244896986716067e-13 1.0
  outer loop
    vertex -15.842549142825153 6.40833405025256 4.999999999998536
    vertex -12.606333729955168 0.349908582744704 4.9999999999985505
    vertex -15.65271698060343 6.506995673288641 4.99999999999894
  endloop
endfacet
facet normal -1.355595856938681e-13 -1.9244896986716067e-13 1.0
  outer loop
    vertex -15.65271698060343 6.506995673288641 4.99999999999894
    vertex -12.606333729955168 0.349908582744704 4.9999999999985505
    vertex -15.444084389213268 6.5562350266365925 4.999999999998285
  endloop
endfacet
facet normal -1.355595856938681e-13 -1.9244896986716067e-13 1.0
  outer loop
    vertex -15.444084389213268 6.5562350266365925 4.999999999998285
    vertex -12.606333729955168 0.349908582744704 4.9999999999985505
    vertex -3.6626356688052573 5.419061066823098 4.999999999999338
  endloop
endfacet
facet normal -1.355595856938681e-13 -1.9244896986716067e-13 1.0
  outer loop
    vertex -15.444084389213268 6.5562350266365925 4.999999999998285
    vertex -3.6626356688052573 5.419061066823098 4.999999999999338
    vertex 11.528527297815257 6.5562350266360845 5.000000000002339
  endloop
endfacet
facet normal -1.355595856938681e-13 -1.9244896986716067e-13 1.0
  outer loop
    vertex -3.6626356688052573 5.419061066823098 4.999999999999338
    vertex -12.606333729955168 0.349908582744704 4.9999999999985505
    vertex -12.46190174124446 0.19208030165653608 4.99999999999733
  endloop
endfacet
facet normal -1.355595856938681e-13 -1.9244896986716067e-13 1.0
  outer loop
    vertex -3.6626356688052573 5.419061066823098 4.999999999999338
    vertex -12.46190174124446 0.19208030165653608 4.99999999999733
    vertex -12.28154218820569 0.07701163823458645 4.999999999998394
  endloop
endfacet
facet normal -1.355595856938681e-13 -1.9244896986716067e-13 1.0
  outer loop
    vertex -3.6626356688052573 5.419061066823098 4.999999999999338
    vertex -12.28154218820569 0.07701163823458645 4.999999999998394
    vertex -12.077546276318964 0.012544331731952525 4.999999999998136
  endloop
endfacet
facet normal -1.355595856938681e-13 -1.9244896986716067e-13 1.0
  outer loop
    vertex -3.6626356688052573 5.419061066823098 4.999999999999338
    vertex -12.077546276318964 0.012544331731952525 4.999999999998136
    vertex -11.863473493002655 -5.024503479944542e-13 4.999999999997658
  endloop
endfacet
facet normal -1.355595856938681e-13 -1.9244896986716067e-13 1.0
  outer loop
    vertex 11.528527297815257 6.5562350266360845 5.000000000002339
    vertex -3.6626356688052573 5.419061066823098 4.999999999999338
    vertex 1.3373643311945642 5.4190610668229136 5.000000000000618
  endloop
endfacet
facet normal -1.355595856938681e-13 -1.9244896986716067e-13 1.0
  outer loop
    vertex 11.528527297815257 6.5562350266360845 5.000000000002339
    vertex 1.3373643311945642 5.4190610668229136 5.000000000000618
    vertex 2.196920086002232 4.189766999328459 5.000000000000654
  endloop
endfacet
facet normal -1.355595856938681e-13 -1.9244896986716067e-13 1.0
  outer loop
    vertex 11.528527297815257 6.5562350266360845 5.000000000002339
    vertex 2.196920086002232 4.189766999328459 5.000000000000654
    vertex 4.145246463566269 1.4033671130076002 5.000000000000596
  endloop
endfacet
facet normal -1.355595856938681e-13 -1.9244896986716067e-13 1.0
  outer loop
    vertex 11.528527297815257 6.5562350266360845 5.000000000002339
    vertex 4.145246463566269 1.4033671130076002 5.000000000000596
    vertex 5.004802218373975 0.17407304551318648 5.000000000000455
  endloop
endfacet
facet normal -9.992007221626407e-16 1.0 9.142211038750269e-14
  outer loop
    vertex -3.6626356688055637 5.4190610668229136 7.484052491207927
    vertex 1.3373643311945642 5.4190610668229136 5.000000000000618
    vertex -3.6626356688052573 5.419061066823098 4.999999999999338
  endloop
endfacet
facet normal -9.992007221626407e-16 1.0 9.142211038750269e-14
  outer loop
    vertex 1.3373643311945642 5.4190610668229136 5.000000000000618
    vertex -3.6626356688055637 5.4190610668229136 7.484052491207927
    vertex 1.3373643311945989 5.419061066823 7.484052491208462
  endloop
endfacet
facet normal 0.819529378329735 0.5730371698716221 9.153788838033668e-14
  outer loop
    vertex 16.044556749184558 1.2891501739143776 2.1375797132350272e-12
    vertex 15.800028328810743 1.638862609457192 1.000000000002609
    vertex 15.800028328811033 1.638862609456626 3.0000000000019176
  endloop
endfacet
facet normal 0.819529378329735 0.5730371698716221 9.153788838033668e-14
  outer loop
    vertex 15.800028328810743 1.638862609457192 1.000000000002609
    vertex 16.044556749184558 1.2891501739143776 2.1375797132350272e-12
    vertex 12.78949739867424 5.9443748368233935 2.5028668915183514e-12
  endloop
endfacet
facet normal 0.819529378329735 0.5730371698716221 9.153788838033668e-14
  outer loop
    vertex 15.800028328810743 1.638862609457192 1.000000000002609
    vertex 12.78949739867424 5.9443748368233935 2.5028668915183514e-12
    vertex 13.507879649324627 4.916980122775973 1.0000000000020588
  endloop
endfacet
facet normal 0.819529378329735 0.5730371698716221 9.153788838033668e-14
  outer loop
    vertex 13.507879649324627 4.916980122775973 1.0000000000020588
    vertex 12.78949739867424 5.9443748368233935 2.5028668915183514e-12
    vertex 12.789497398673621 5.944374836822412 5.000000000002131
  endloop
endfacet
facet normal 0.819529378329735 0.5730371698716221 9.153788838033668e-14
  outer loop
    vertex 16.04455674918442 1.2891501739137308 5.0000000000015365
    vertex 15.800028328811033 1.638862609456626 3.0000000000019176
    vertex 12.789497398673621 5.944374836822412 5.000000000002131
  endloop
endfacet
facet normal 0.819529378329735 0.5730371698716221 9.153788838033668e-14
  outer loop
    vertex 15.800028328811033 1.638862609456626 3.0000000000019176
    vertex 16.04455674918442 1.2891501739137308 5.0000000000015365
    vertex 16.044556749184558 1.2891501739143776 2.1375797132350272e-12
  endloop
endfacet
facet normal 0.819529378329735 0.5730371698716221 9.153788838033668e-14
  outer loop
    vertex 12.789497398673621 5.944374836822412 5.000000000002131
    vertex 15.800028328811033 1.638862609456626 3.0000000000019176
    vertex 13.507879649325089 4.916980122774992 3.0000000000022986
  endloop
endfacet
facet normal 0.819529378329735 0.5730371698716221 9.153788838033668e-14
  outer loop
    vertex 12.789497398673621 5.944374836822412 5.000000000002131
    vertex 13.507879649325089 4.916980122774992 3.0000000000022986
    vertex 13.507879649324627 4.916980122775973 1.0000000000020588
  endloop
endfacet
facet normal 0.8195293783295982 0.5730371698718179 1.8315904348753805e-13
  outer loop
    vertex 5.004802218373975 0.17407304551318648 5.000000000000455
    vertex 4.1452464635659885 1.4033671130071903 7.484052491209062
    vertex 5.004802218373975 0.174073045512967 7.48405249120834
  endloop
endfacet
facet normal 0.8195293783295982 0.5730371698718179 1.8315904348753805e-13
  outer loop
    vertex 4.1452464635659885 1.4033671130071903 7.484052491209062
    vertex 5.004802218373975 0.17407304551318648 5.000000000000455
    vertex 4.145246463566269 1.4033671130076002 5.000000000000596
  endloop
endfacet
facet normal 1.3357304911967467e-13 1.9378611041076866e-13 -1.0
  outer loop
    vertex 11.5285272978158 6.556235026637026 2.8782608296751275e-12
    vertex -15.026525883260044 5.556235026637473 -7.904930043878266e-13
    vertex -15.444084389212414 6.556235026637747 -1.362246848657378e-12
  endloop
endfacet
facet normal 1.3357304911967467e-13 1.9378611041076866e-13 -1.0
  outer loop
    vertex -15.026525883260044 5.556235026637473 -7.904930043878266e-13
    vertex 11.5285272978158 6.556235026637026 2.8782608296751275e-12
    vertex 11.834264822852118 5.556235026637161 2.9634463771799345e-12
  endloop
endfacet
facet normal 1.3357304911967467e-13 1.9378611041076866e-13 -1.0
  outer loop
    vertex 11.834264822852118 5.556235026637161 2.9634463771799345e-12
    vertex 11.5285272978158 6.556235026637026 2.8782608296751275e-12
    vertex 11.863549286036978 6.556235026637262 2.2444226033258018e-12
  endloop
endfacet
facet normal 1.3357304911967467e-13 1.9378611041076866e-13 -1.0
  outer loop
    vertex 11.834264822852118 5.556235026637161 2.9634463771799345e-12
    vertex 11.863549286036978 6.556235026637262 2.2444226033258018e-12
    vertex 11.84095707426787 5.555842732232879 2.7757494081015465e-12
  endloop
endfacet
facet normal 1.3357304911967467e-13 1.9378611041076866e-13 -1.0
  outer loop
    vertex 11.84095707426787 5.555842732232879 2.7757494081015465e-12
    vertex 11.863549286036978 6.556235026637262 2.2444226033258018e-12
    vertex 15.026525883259957 1.0000000000000613 2.065388571281801e-12
  endloop
endfacet
facet normal 1.3357304911967467e-13 1.9378611041076866e-13 -1.0
  outer loop
    vertex 15.026525883259957 1.0000000000000613 2.065388571281801e-12
    vertex 11.863549286036978 6.556235026637262 2.2444226033258018e-12
    vertex 12.077546276318289 6.543690694904767 2.1303605990397045e-12
  endloop
endfacet
facet normal 1.3357304911967467e-13 1.9378611041076866e-13 -1.0
  outer loop
    vertex 15.026525883259957 1.0000000000000613 2.065388571281801e-12
    vertex 12.077546276318289 6.543690694904767 2.1303605990397045e-12
    vertex 12.281542188204927 6.479223388402098 2.4176813440135447e-12
  endloop
endfacet
facet normal 1.3357304911967467e-13 1.9378611041076866e-13 -1.0
  outer loop
    vertex 15.026525883259957 1.0000000000000613 2.065388571281801e-12
    vertex 12.281542188204927 6.479223388402098 2.4176813440135447e-12
    vertex 12.461901741243986 6.364154724980403 2.534630993977771e-12
  endloop
endfacet
facet normal 1.3357304911967467e-13 1.9378611041076866e-13 -1.0
  outer loop
    vertex 15.026525883259957 1.0000000000000613 2.065388571281801e-12
    vertex 12.461901741243986 6.364154724980403 2.534630993977771e-12
    vertex 12.606333729954782 6.206326443892333 2.683344746401417e-12
  endloop
endfacet
facet normal 1.3357304911967467e-13 1.9378611041076866e-13 -1.0
  outer loop
    vertex 15.026525883259957 1.0000000000000613 2.065388571281801e-12
    vertex 12.606333729954782 6.206326443892333 2.683344746401417e-12
    vertex 12.78949739867424 5.9443748368233935 2.5028668915183514e-12
  endloop
endfacet
facet normal 1.3357304911967467e-13 1.9378611041076866e-13 -1.0
  outer loop
    vertex 15.026525883259957 1.0000000000000613 2.065388571281801e-12
    vertex 12.78949739867424 5.9443748368233935 2.5028668915183514e-12
    vertex 16.044556749184558 1.2891501739143776 2.1375797132350272e-12
  endloop
endfacet
facet normal 1.3357304911967467e-13 1.9378611041076866e-13 -1.0
  outer loop
    vertex 15.026525883259957 1.0000000000000613 2.065388571281801e-12
    vertex 16.044556749184558 1.2891501739143776 2.1375797132350272e-12
    vertex 15.444084389212057 -2.5411281967535613e-13 2.47687808041519e-12
  endloop
endfacet
facet normal 1.3357304911967467e-13 1.9378611041076866e-13 -1.0
  outer loop
    vertex 15.444084389212057 -2.5411281967535613e-13 2.47687808041519e-12
    vertex 16.044556749184558 1.2891501739143776 2.1375797132350272e-12
    vertex 15.65271698060239 0.04923935334824018 1.5586067547701532e-12
  endloop
endfacet
facet normal 1.3357304911967467e-13 1.9378611041076866e-13 -1.0
  outer loop
    vertex 15.65271698060239 0.04923935334824018 1.5586067547701532e-12
    vertex 16.044556749184558 1.2891501739143776 2.1375797132350272e-12
    vertex 15.84254914282424 0.14790097638441915 1.7174272670672508e-12
  endloop
endfacet
facet normal 1.3357304911967467e-13 1.9378611041076866e-13 -1.0
  outer loop
    vertex 15.84254914282424 0.14790097638441915 1.7174272670672508e-12
    vertex 16.044556749184558 1.2891501739143776 2.1375797132350272e-12
    vertex 16.00037742391273 0.2923329650952381 1.6178034911717986e-12
  endloop
endfacet
facet normal 1.3357304911967467e-13 1.9378611041076866e-13 -1.0
  outer loop
    vertex 16.00037742391273 0.2923329650952381 1.6178034911717986e-12
    vertex 16.044556749184558 1.2891501739143776 2.1375797132350272e-12
    vertex 16.115446087334156 0.47269251813449414 2.00763565771922e-12
  endloop
endfacet
facet normal 1.3357304911967467e-13 1.9378611041076866e-13 -1.0
  outer loop
    vertex 16.115446087334156 0.47269251813449414 2.00763565771922e-12
    vertex 16.044556749184558 1.2891501739143776 2.1375797132350272e-12
    vertex 16.14321837222265 1.0993180116931758 1.5730449831607983e-12
  endloop
endfacet
facet normal 1.3357304911967467e-13 1.9378611041076866e-13 -1.0
  outer loop
    vertex 16.115446087334156 0.47269251813449414 2.00763565771922e-12
    vertex 16.14321837222265 1.0993180116931758 1.5730449831607983e-12
    vertex 16.17991339383711 0.6766884300212247 1.6409046565968309e-12
  endloop
endfacet
facet normal 1.3357304911967467e-13 1.9378611041076866e-13 -1.0
  outer loop
    vertex 16.17991339383711 0.6766884300212247 1.6409046565968309e-12
    vertex 16.14321837222265 1.0993180116931758 1.5730449831607983e-12
    vertex 16.18623953313008 0.8194249809723647 1.871916310847155e-12
  endloop
endfacet
facet normal 1.3357304911967467e-13 1.9378611041076866e-13 -1.0
  outer loop
    vertex 16.18623953313008 0.8194249809723647 1.871916310847155e-12
    vertex 16.14321837222265 1.0993180116931758 1.5730449831607983e-12
    vertex 16.189386003020246 0.8904187164797287 1.5672696918045403e-12
  endloop
endfacet
facet normal 1.3357304911967467e-13 1.9378611041076866e-13 -1.0
  outer loop
    vertex -16.17991339383697 5.879546596617031 -1.740528432492283e-12
    vertex -16.1432183722217 5.456917014945559 -1.2395219073368934e-12
    vertex -16.189386003020246 5.665816310158792 -1.6538990621484116e-12
  endloop
endfacet
facet normal 1.3357304911967467e-13 1.9378611041076866e-13 -1.0
  outer loop
    vertex -16.1432183722217 5.456917014945559 -1.2395219073368934e-12
    vertex -16.17991339383697 5.879546596617031 -1.740528432492283e-12
    vertex -16.115446087334387 6.083542508503571 -1.0677069894882152e-12
  endloop
endfacet
facet normal 1.3357304911967467e-13 1.9378611041076866e-13 -1.0
  outer loop
    vertex -16.1432183722217 5.456917014945559 -1.2395219073368934e-12
    vertex -16.115446087334387 6.083542508503571 -1.0677069894882152e-12
    vertex -16.044556749185283 5.26708485272326 -1.268398364118184e-12
  endloop
endfacet
facet normal 1.3357304911967467e-13 1.9378611041076866e-13 -1.0
  outer loop
    vertex -16.044556749185283 5.26708485272326 -1.268398364118184e-12
    vertex -16.115446087334387 6.083542508503571 -1.0677069894882152e-12
    vertex -16.000377423913243 6.263902061542579 -1.4416571048059267e-12
  endloop
endfacet
facet normal 1.3357304911967467e-13 1.9378611041076866e-13 -1.0
  outer loop
    vertex -16.044556749185283 5.26708485272326 -1.268398364118184e-12
    vertex -16.000377423913243 6.263902061542579 -1.4416571048059267e-12
    vertex -12.606333729954898 0.349908582745449 -1.4719773844262817e-12
  endloop
endfacet
facet normal 1.3357304911967467e-13 1.9378611041076866e-13 -1.0
  outer loop
    vertex -12.606333729954898 0.349908582745449 -1.4719773844262817e-12
    vertex -16.000377423913243 6.263902061542579 -1.4416571048059267e-12
    vertex -15.842549142824696 6.4083340502534325 -1.8112757516064448e-12
  endloop
endfacet
facet normal 1.3357304911967467e-13 1.9378611041076866e-13 -1.0
  outer loop
    vertex -12.606333729954898 0.349908582745449 -1.4719773844262817e-12
    vertex -15.842549142824696 6.4083340502534325 -1.8112757516064448e-12
    vertex -15.652716980602168 6.506995673290085 -9.608640993974405e-13
  endloop
endfacet
facet normal 1.3357304911967467e-13 1.9378611041076866e-13 -1.0
  outer loop
    vertex -12.606333729954898 0.349908582745449 -1.4719773844262817e-12
    vertex -15.652716980602168 6.506995673290085 -9.608640993974405e-13
    vertex -15.026525883260044 5.556235026637473 -7.904930043878266e-13
  endloop
endfacet
facet normal 1.3357304911967467e-13 1.9378611041076866e-13 -1.0
  outer loop
    vertex -15.026525883260044 5.556235026637473 -7.904930043878266e-13
    vertex -15.652716980602168 6.506995673290085 -9.608640993974405e-13
    vertex -15.444084389212414 6.556235026637747 -1.362246848657378e-12
  endloop
endfacet
facet normal 1.3357304911967467e-13 1.9378611041076866e-13 -1.0
  outer loop
    vertex -12.606333729954898 0.349908582745449 -1.4719773844262817e-12
    vertex -15.026525883260044 5.556235026637473 -7.904930043878266e-13
    vertex -11.8409597689808 1.0003961482493404 -1.3333703918760874e-12
  endloop
endfacet
facet normal 1.3357304911967467e-13 1.9378611041076866e-13 -1.0
  outer loop
    vertex -12.606333729954898 0.349908582745449 -1.4719773844262817e-12
    vertex -11.8409597689808 1.0003961482493404 -1.3333703918760874e-12
    vertex -12.461901741243777 0.19208030165757564 -1.70443286151567e-12
  endloop
endfacet
facet normal 1.3357304911967467e-13 1.9378611041076866e-13 -1.0
  outer loop
    vertex -12.461901741243777 0.19208030165757564 -1.70443286151567e-12
    vertex -11.8409597689808 1.0003961482493404 -1.3333703918760874e-12
    vertex -12.281542188204849 0.07701163823572997 -1.925337755892542e-12
  endloop
endfacet
facet normal 1.3357304911967467e-13 1.9378611041076866e-13 -1.0
  outer loop
    vertex -12.281542188204849 0.07701163823572997 -1.925337755892542e-12
    vertex -11.8409597689808 1.0003961482493404 -1.3333703918760874e-12
    vertex -12.077546276318232 0.012544331733015179 -2.2198776150617047e-12
  endloop
endfacet
facet normal 1.3357304911967467e-13 1.9378611041076866e-13 -1.0
  outer loop
    vertex -12.077546276318232 0.012544331733015179 -2.2198776150617047e-12
    vertex -11.8409597689808 1.0003961482493404 -1.3333703918760874e-12
    vertex -11.863473493001818 6.468326319009065e-13 -1.90223659046751e-12
  endloop
endfacet
facet normal 1.3357304911967467e-13 1.9378611041076866e-13 -1.0
  outer loop
    vertex -11.863473493001818 6.468326319009065e-13 -1.90223659046751e-12
    vertex -11.8409597689808 1.0003961482493404 -1.3333703918760874e-12
    vertex -11.834199380299678 1.000000000000795 -1.728977849779767e-12
  endloop
endfacet
facet normal 1.3357304911967467e-13 1.9378611041076866e-13 -1.0
  outer loop
    vertex -11.863473493001818 6.468326319009065e-13 -1.90223659046751e-12
    vertex -11.834199380299678 1.000000000000795 -1.728977849779767e-12
    vertex 15.444084389212057 -2.5411281967535613e-13 2.47687808041519e-12
  endloop
endfacet
facet normal 1.3357304911967467e-13 1.9378611041076866e-13 -1.0
  outer loop
    vertex 15.444084389212057 -2.5411281967535613e-13 2.47687808041519e-12
    vertex -11.834199380299678 1.000000000000795 -1.728977849779767e-12
    vertex 15.026525883259957 1.0000000000000613 2.065388571281801e-12
  endloop
endfacet
facet normal 7.525439860325827e-14 3.486725751876687e-14 -1.0
  outer loop
    vertex -14.57981716586382 4.917374344102658 2.9999999999976654
    vertex -13.507880996681868 1.639256830784189 2.999999999997563
    vertex -15.800029676168938 4.917374344102716 2.9999999999976334
  endloop
endfacet
facet normal 7.525439860325827e-14 3.486725751876687e-14 -1.0
  outer loop
    vertex -13.507880996681868 1.639256830784189 2.999999999997563
    vertex -14.57981716586382 4.917374344102658 2.9999999999976654
    vertex -12.287668486376816 1.6392568307841024 2.9999999999980522
  endloop
endfacet
facet normal -4.588129633519431e-14 5.496758871195822e-14 -1.0
  outer loop
    vertex 13.507879649325089 4.916980122774992 3.0000000000022986
    vertex 14.579815818506919 1.6388626094564933 3.0000000000020717
    vertex 12.287667139019625 4.916980122774876 3.000000000002264
  endloop
endfacet
facet normal -4.588129633519431e-14 5.496758871195822e-14 -1.0
  outer loop
    vertex 14.579815818506919 1.6388626094564933 3.0000000000020717
    vertex 13.507879649325089 4.916980122774992 3.0000000000022986
    vertex 15.800028328811033 1.638862609456626 3.0000000000019176
  endloop
endfacet
facet normal -3.486100297322991e-14 -1.0 -2.1265846467656886e-13
  outer loop
    vertex 15.444084389212057 -2.5411281967535613e-13 2.47687808041519e-12
    vertex -11.863473493002655 -5.024503479944542e-13 4.999999999997658
    vertex -11.863473493001818 6.468326319009065e-13 -1.90223659046751e-12
  endloop
endfacet
facet normal -3.486100297322991e-14 -1.0 -2.1265846467656886e-13
  outer loop
    vertex -11.863473493002655 -5.024503479944542e-13 4.999999999997658
    vertex 15.444084389212057 -2.5411281967535613e-13 2.47687808041519e-12
    vertex 15.444084389211605 -1.1261818144703283e-12 5.000000000001871
  endloop
endfacet
facet normal 0.8873145506720641 0.4611647082828792 3.4996889917727896e-13
  outer loop
    vertex 16.14321837222265 1.0993180116931758 1.5730449831607983e-12
    vertex 16.04455674918442 1.2891501739137308 5.0000000000015365
    vertex 16.143218372220403 1.0993180116911314 5.000000000002609
  endloop
endfacet
facet normal 0.8873145506720641 0.4611647082828792 3.4996889917727896e-13
  outer loop
    vertex 16.04455674918442 1.2891501739137308 5.0000000000015365
    vertex 16.14321837222265 1.0993180116931758 1.5730449831607983e-12
    vertex 16.044556749184558 1.2891501739143776 2.1375797132350272e-12
  endloop
endfacet
facet normal 4.996003610813203e-16 -1.0 -9.924918271111003e-14
  outer loop
    vertex 2.196920086002232 4.189766999328459 5.000000000000654
    vertex -2.8030799139980256 4.189766999328384 7.484052491207829
    vertex -2.8030799139977716 4.1897669993285165 4.999999999999317
  endloop
endfacet
facet normal 4.996003610813203e-16 -1.0 -9.924918271111003e-14
  outer loop
    vertex -2.8030799139980256 4.189766999328384 7.484052491207829
    vertex 2.196920086002232 4.189766999328459 5.000000000000654
    vertex 2.196920086002044 4.189766999328396 7.484052491208427
  endloop
endfacet
facet normal -5.037319220495014e-14 4.8103801678911214e-15 1.0
  outer loop
    vertex -2.8030799139980256 4.189766999328384 7.484052491207829
    vertex 1.3373643311945989 5.419061066823 7.484052491208462
    vertex -3.6626356688055637 5.4190610668229136 7.484052491207927
  endloop
endfacet
facet normal -5.037319220495014e-14 4.8103801678911214e-15 1.0
  outer loop
    vertex 1.3373643311945989 5.419061066823 7.484052491208462
    vertex -2.8030799139980256 4.189766999328384 7.484052491207829
    vertex 2.196920086002044 4.189766999328396 7.484052491208427
  endloop
endfacet
facet normal -1.4788170688007078e-13 1.0 2.5046155866505994e-13
  outer loop
    vertex 14.579815818507232 1.6388626094569438 1.000000000002967
    vertex 15.800028328811033 1.638862609456626 3.0000000000019176
    vertex 15.800028328810743 1.638862609457192 1.000000000002609
  endloop
endfacet
facet normal -1.4788170688007078e-13 1.0 2.5046155866505994e-13
  outer loop
    vertex 15.800028328811033 1.638862609456626 3.0000000000019176
    vertex 14.579815818507232 1.6388626094569438 1.000000000002967
    vertex 14.579815818506919 1.6388626094564933 3.0000000000020717
  endloop
endfacet
facet normal 9.247676903959932e-14 -5.5443258329188546e-14 1.0
  outer loop
    vertex 0.004802218373728101 0.17407304551293815 7.484052491209423
    vertex 4.1452464635659885 1.4033671130071903 7.484052491209062
    vertex -0.8547535364339455 1.4033671130074385 7.484052491209296
  endloop
endfacet
facet normal 9.247676903959932e-14 -5.5443258329188546e-14 1.0
  outer loop
    vertex 4.1452464635659885 1.4033671130071903 7.484052491209062
    vertex 0.004802218373728101 0.17407304551293815 7.484052491209423
    vertex 5.004802218373975 0.174073045512967 7.48405249120834
  endloop
endfacet
facet normal 1.590949594287849e-13 -1.0 -4.2512739601421294e-13
  outer loop
    vertex 13.507879649325089 4.916980122774992 3.0000000000022986
    vertex 12.287667139020439 4.916980122775661 1.0000000000022682
    vertex 13.507879649324627 4.916980122775973 1.0000000000020588
  endloop
endfacet
facet normal 1.590949594287849e-13 -1.0 -4.2512739601421294e-13
  outer loop
    vertex 12.287667139020439 4.916980122775661 1.0000000000022682
    vertex 13.507879649325089 4.916980122774992 3.0000000000022986
    vertex 12.287667139019625 4.916980122774876 3.000000000002264
  endloop
endfacet
facet normal -0.819529378329601 -0.5730371698718136 -2.1591062271397994e-13
  outer loop
    vertex -0.8547535364339455 1.4033671130074385 7.484052491209296
    vertex 0.004802218374005315 0.17407304551326733 4.999999999999128
    vertex 0.004802218373728101 0.17407304551293815 7.484052491209423
  endloop
endfacet
facet normal -0.819529378329601 -0.5730371698718136 -2.1591062271397994e-13
  outer loop
    vertex 0.004802218374005315 0.17407304551326733 4.999999999999128
    vertex -0.8547535364339455 1.4033671130074385 7.484052491209296
    vertex -0.8547535364337434 1.4033671130077099 4.9999999999991696
  endloop
endfacet
facet normal 0.8195293783296744 0.5730371698717087 1.4299672557171726e-13
  outer loop
    vertex 2.196920086002232 4.189766999328459 5.000000000000654
    vertex 1.3373643311945989 5.419061066823 7.484052491208462
    vertex 2.196920086002044 4.189766999328396 7.484052491208427
  endloop
endfacet
facet normal 0.8195293783296744 0.5730371698717087 1.4299672557171726e-13
  outer loop
    vertex 1.3373643311945989 5.419061066823 7.484052491208462
    vertex 2.196920086002232 4.189766999328459 5.000000000000654
    vertex 1.3373643311945642 5.4190610668229136 5.000000000000618
  endloop
endfacet
facet normal 0.9764382499699078 0.21579699718880258 3.893749834106752e-13
  outer loop
    vertex 16.189386003020246 0.8904187164797287 1.5672696918045403e-12
    vertex 16.143218372220403 1.0993180116911314 5.000000000002609
    vertex 16.18938600301929 0.8904187164781636 5.000000000001897
  endloop
endfacet
facet normal 0.9764382499699078 0.21579699718880258 3.893749834106752e-13
  outer loop
    vertex 16.143218372220403 1.0993180116911314 5.000000000002609
    vertex 16.189386003020246 0.8904187164797287 1.5672696918045403e-12
    vertex 16.14321837222265 1.0993180116931758 1.5730449831607983e-12
  endloop
endfacet
facet normal 2.0983169488081107e-13 3.2062658891495163e-13 1.0
  outer loop
    vertex 14.579815818507232 1.6388626094569438 1.000000000002967
    vertex 13.507879649324627 4.916980122775973 1.0000000000020588
    vertex 12.287667139020439 4.916980122775661 1.0000000000022682
  endloop
endfacet
facet normal 2.0983169488081107e-13 3.2062658891495163e-13 1.0
  outer loop
    vertex 13.507879649324627 4.916980122775973 1.0000000000020588
    vertex 14.579815818507232 1.6388626094569438 1.000000000002967
    vertex 15.800028328810743 1.638862609457192 1.000000000002609
  endloop
endfacet
facet normal -0.8195293783296743 -0.5730371698717088 -1.8021695247227563e-13
  outer loop
    vertex -3.6626356688055637 5.4190610668229136 7.484052491207927
    vertex -2.8030799139977716 4.1897669993285165 4.999999999999317
    vertex -2.8030799139980256 4.189766999328384 7.484052491207829
  endloop
endfacet
facet normal -0.8195293783296743 -0.5730371698717088 -1.8021695247227563e-13
  outer loop
    vertex -2.8030799139977716 4.1897669993285165 4.999999999999317
    vertex -3.6626356688055637 5.4190610668229136 7.484052491207927
    vertex -3.6626356688052573 5.419061066823098 4.999999999999338
  endloop
endfacet
facet normal 1.4954704141700856e-13 -1.0 1.9988770133628067e-14
  outer loop
    vertex -14.579817165863998 4.917374344102595 0.9999999999986673
    vertex -15.800029676168938 4.917374344102716 2.9999999999976334
    vertex -15.800029676168233 4.917374344102295 0.9999999999981014
  endloop
endfacet
facet normal 1.4954704141700856e-13 -1.0 1.9988770133628067e-14
  outer loop
    vertex -15.800029676168938 4.917374344102716 2.9999999999976334
    vertex -14.579817165863998 4.917374344102595 0.9999999999986673
    vertex -14.57981716586382 4.917374344102658 2.9999999999976654
  endloop
endfacet
facet normal -4.1012944069861556e-13 -3.1054086717972383e-13 1.0
  outer loop
    vertex -13.507880996682081 1.6392568307850437 0.9999999999979295
    vertex -14.579817165863998 4.917374344102595 0.9999999999986673
    vertex -15.800029676168233 4.917374344102295 0.9999999999981014
  endloop
endfacet
facet normal -4.1012944069861556e-13 -3.1054086717972383e-13 1.0
  outer loop
    vertex -14.579817165863998 4.917374344102595 0.9999999999986673
    vertex -13.507880996682081 1.6392568307850437 0.9999999999979295
    vertex -12.287668486376807 1.6392568307841717 0.9999999999985417
  endloop
endfacet
facet normal 3.3933966747667895e-13 1.0 3.1421611585414743e-13
  outer loop
    vertex -13.507880996681868 1.639256830784189 2.999999999997563
    vertex -12.287668486376807 1.6392568307841717 0.9999999999985417
    vertex -13.507880996682081 1.6392568307850437 0.9999999999979295
  endloop
endfacet
facet normal 3.3933966747667895e-13 1.0 3.1421611585414743e-13
  outer loop
    vertex -12.287668486376807 1.6392568307841717 0.9999999999985417
    vertex -13.507880996681868 1.639256830784189 2.999999999997563
    vertex -12.287668486376816 1.6392568307841024 2.9999999999980522
  endloop
endfacet
endsolid working_stargate_mk2_rail_l_2
Working Stargate Mk2
www.glitch.org.uk