solid working_stargate_mk2_rail_r_3
facet normal 1.960576096719967e-14 -1.070617034253612e-14 1.0
  outer loop
    vertex 11.528527297815653 5.775291356258094e-14 1.9999999999999827
    vertex -15.026525883260021 1.000000000000169 2.000000000000846
    vertex -15.444084389212666 9.529230737825855e-14 2.0000000000000475
  endloop
endfacet
facet normal 1.960576096719967e-14 -1.070617034253612e-14 1.0
  outer loop
    vertex -15.026525883260021 1.000000000000169 2.000000000000846
    vertex 11.528527297815653 5.775291356258094e-14 1.9999999999999827
    vertex 11.834264822852017 0.9999999999998961 2.0000000000001386
  endloop
endfacet
facet normal 1.960576096719967e-14 -1.070617034253612e-14 1.0
  outer loop
    vertex 11.834264822852017 0.9999999999998961 2.0000000000001386
    vertex 11.528527297815653 5.775291356258094e-14 1.9999999999999827
    vertex 11.863549286036895 -2.310116542503238e-13 1.999999999999411
  endloop
endfacet
facet normal 1.960576096719967e-14 -1.070617034253612e-14 1.0
  outer loop
    vertex 11.834264822852017 0.9999999999998961 2.0000000000001386
    vertex 11.863549286036895 -2.310116542503238e-13 1.999999999999411
    vertex 11.840957074267866 1.0003922944041141 2.000000000000078
  endloop
endfacet
facet normal 1.960576096719967e-14 -1.070617034253612e-14 1.0
  outer loop
    vertex 11.840957074267866 1.0003922944041141 2.000000000000078
    vertex 11.863549286036895 -2.310116542503238e-13 1.999999999999411
    vertex 15.02652588326003 5.556235026636882 1.999999999999816
  endloop
endfacet
facet normal 1.960576096719967e-14 -1.070617034253612e-14 1.0
  outer loop
    vertex 15.02652588326003 5.556235026636882 1.999999999999816
    vertex 11.863549286036895 -2.310116542503238e-13 1.999999999999411
    vertex 12.077546276318055 0.01254433173236257 1.999999999999408
  endloop
endfacet
facet normal 1.960576096719967e-14 -1.070617034253612e-14 1.0
  outer loop
    vertex 15.02652588326003 5.556235026636882 1.999999999999816
    vertex 12.077546276318055 0.01254433173236257 1.999999999999408
    vertex 12.281542188204849 0.07701163823491493 1.999999999999636
  endloop
endfacet
facet normal 1.960576096719967e-14 -1.070617034253612e-14 1.0
  outer loop
    vertex 15.02652588326003 5.556235026636882 1.999999999999816
    vertex 12.281542188204849 0.07701163823491493 1.999999999999636
    vertex 12.461901741243834 0.19208030165666384 1.9999999999998153
  endloop
endfacet
facet normal 1.960576096719967e-14 -1.070617034253612e-14 1.0
  outer loop
    vertex 15.02652588326003 5.556235026636882 1.999999999999816
    vertex 12.461901741243834 0.19208030165666384 1.9999999999998153
    vertex 12.606333729954589 0.3499085827447625 1.9999999999999625
  endloop
endfacet
facet normal 1.960576096719967e-14 -1.070617034253612e-14 1.0
  outer loop
    vertex 15.02652588326003 5.556235026636882 1.999999999999816
    vertex 12.606333729954589 0.3499085827447625 1.9999999999999625
    vertex 12.789497398673966 0.6118601898137568 1.9999999999998743
  endloop
endfacet
facet normal 1.960576096719967e-14 -1.070617034253612e-14 1.0
  outer loop
    vertex 15.02652588326003 5.556235026636882 1.999999999999816
    vertex 12.789497398673966 0.6118601898137568 1.9999999999998743
    vertex 16.044556749185226 5.267084852722175 1.9999999999989915
  endloop
endfacet
facet normal 1.960576096719967e-14 -1.070617034253612e-14 1.0
  outer loop
    vertex 15.02652588326003 5.556235026636882 1.999999999999816
    vertex 16.044556749185226 5.267084852722175 1.9999999999989915
    vertex 15.444084389212192 6.556235026637156 2.0000000000003832
  endloop
endfacet
facet normal 1.960576096719967e-14 -1.070617034253612e-14 1.0
  outer loop
    vertex 15.444084389212192 6.556235026637156 2.0000000000003832
    vertex 16.044556749185226 5.267084852722175 1.9999999999989915
    vertex 15.65271698060232 6.506995673288802 1.9999999999996427
  endloop
endfacet
facet normal 1.960576096719967e-14 -1.070617034253612e-14 1.0
  outer loop
    vertex 15.65271698060232 6.506995673288802 1.9999999999996427
    vertex 16.044556749185226 5.267084852722175 1.9999999999989915
    vertex 15.842549142824225 6.4083340502525825 1.9999999999994853
  endloop
endfacet
facet normal 1.960576096719967e-14 -1.070617034253612e-14 1.0
  outer loop
    vertex 15.842549142824225 6.4083340502525825 1.9999999999994853
    vertex 16.044556749185226 5.267084852722175 1.9999999999989915
    vertex 16.000377423912802 6.2639020615416925 1.999999999999644
  endloop
endfacet
facet normal 1.960576096719967e-14 -1.070617034253612e-14 1.0
  outer loop
    vertex 16.000377423912802 6.2639020615416925 1.999999999999644
    vertex 16.044556749185226 5.267084852722175 1.9999999999989915
    vertex 16.115446087334274 6.083542508502395 1.9999999999997105
  endloop
endfacet
facet normal 1.960576096719967e-14 -1.070617034253612e-14 1.0
  outer loop
    vertex 16.115446087334274 6.083542508502395 1.9999999999997105
    vertex 16.044556749185226 5.267084852722175 1.9999999999989915
    vertex 16.143218372221618 5.456917014944487 1.9999999999998361
  endloop
endfacet
facet normal 1.960576096719967e-14 -1.070617034253612e-14 1.0
  outer loop
    vertex 16.115446087334274 6.083542508502395 1.9999999999997105
    vertex 16.143218372221618 5.456917014944487 1.9999999999998361
    vertex 16.17991339383694 5.8795465966158575 1.9999999999994895
  endloop
endfacet
facet normal 1.960576096719967e-14 -1.070617034253612e-14 1.0
  outer loop
    vertex 16.17991339383694 5.8795465966158575 1.9999999999994895
    vertex 16.143218372221618 5.456917014944487 1.9999999999998361
    vertex 16.18623953313016 5.736810045664547 1.9999999999994795
  endloop
endfacet
facet normal 1.960576096719967e-14 -1.070617034253612e-14 1.0
  outer loop
    vertex 16.18623953313016 5.736810045664547 1.9999999999994795
    vertex 16.143218372221618 5.456917014944487 1.9999999999998361
    vertex 16.189386003020285 5.665816310157597 1.9999999999992801
  endloop
endfacet
facet normal 1.960576096719967e-14 -1.070617034253612e-14 1.0
  outer loop
    vertex -16.17991339383716 0.6766884300207937 2.000000000000036
    vertex -16.143218372221813 1.0993180116922208 2.0000000000003535
    vertex -16.189386003020232 0.8904187164788949 2.000000000000036
  endloop
endfacet
facet normal 1.960576096719967e-14 -1.070617034253612e-14 1.0
  outer loop
    vertex -16.143218372221813 1.0993180116922208 2.0000000000003535
    vertex -16.17991339383716 0.6766884300207937 2.000000000000036
    vertex -16.115446087334572 0.4726925181342494 2.00000000000066
  endloop
endfacet
facet normal 1.960576096719967e-14 -1.070617034253612e-14 1.0
  outer loop
    vertex -16.143218372221813 1.0993180116922208 2.0000000000003535
    vertex -16.115446087334572 0.4726925181342494 2.00000000000066
    vertex -16.044556749185382 1.2891501739145084 2.0000000000004463
  endloop
endfacet
facet normal 1.960576096719967e-14 -1.070617034253612e-14 1.0
  outer loop
    vertex -16.044556749185382 1.2891501739145084 2.0000000000004463
    vertex -16.115446087334572 0.4726925181342494 2.00000000000066
    vertex -16.000377423913232 0.29233296509510454 2.0000000000000058
  endloop
endfacet
facet normal 1.960576096719967e-14 -1.070617034253612e-14 1.0
  outer loop
    vertex -16.044556749185382 1.2891501739145084 2.0000000000004463
    vertex -16.000377423913232 0.29233296509510454 2.0000000000000058
    vertex -12.606333729954883 6.2063264438922445 2.000000000000636
  endloop
endfacet
facet normal 1.960576096719967e-14 -1.070617034253612e-14 1.0
  outer loop
    vertex -12.606333729954883 6.2063264438922445 2.000000000000636
    vertex -16.000377423913232 0.29233296509510454 2.0000000000000058
    vertex -15.842549142824744 0.1479009763842726 1.9999999999998528
  endloop
endfacet
facet normal 1.960576096719967e-14 -1.070617034253612e-14 1.0
  outer loop
    vertex -12.606333729954883 6.2063264438922445 2.000000000000636
    vertex -15.842549142824744 0.1479009763842726 1.9999999999998528
    vertex -15.652716980602365 0.04923935334772907 2.0000000000006004
  endloop
endfacet
facet normal 1.960576096719967e-14 -1.070617034253612e-14 1.0
  outer loop
    vertex -12.606333729954883 6.2063264438922445 2.000000000000636
    vertex -15.652716980602365 0.04923935334772907 2.0000000000006004
    vertex -15.026525883260021 1.000000000000169 2.000000000000846
  endloop
endfacet
facet normal 1.960576096719967e-14 -1.070617034253612e-14 1.0
  outer loop
    vertex -15.026525883260021 1.000000000000169 2.000000000000846
    vertex -15.652716980602365 0.04923935334772907 2.0000000000006004
    vertex -15.444084389212666 9.529230737825855e-14 2.0000000000000475
  endloop
endfacet
facet normal 1.960576096719967e-14 -1.070617034253612e-14 1.0
  outer loop
    vertex -12.606333729954883 6.2063264438922445 2.000000000000636
    vertex -15.026525883260021 1.000000000000169 2.000000000000846
    vertex -11.840959768980824 5.555838878388348 2.000000000000614
  endloop
endfacet
facet normal 1.960576096719967e-14 -1.070617034253612e-14 1.0
  outer loop
    vertex -12.606333729954883 6.2063264438922445 2.000000000000636
    vertex -11.840959768980824 5.555838878388348 2.000000000000614
    vertex -12.461901741243778 6.364154724980127 2.0000000000005103
  endloop
endfacet
facet normal 1.960576096719967e-14 -1.070617034253612e-14 1.0
  outer loop
    vertex -12.461901741243778 6.364154724980127 2.0000000000005103
    vertex -11.840959768980824 5.555838878388348 2.000000000000614
    vertex -12.281542188204682 6.47922338840185 2.0000000000002434
  endloop
endfacet
facet normal 1.960576096719967e-14 -1.070617034253612e-14 1.0
  outer loop
    vertex -12.281542188204682 6.47922338840185 2.0000000000002434
    vertex -11.840959768980824 5.555838878388348 2.000000000000614
    vertex -12.077546276318216 6.54369069490466 1.9999999999998823
  endloop
endfacet
facet normal 1.960576096719967e-14 -1.070617034253612e-14 1.0
  outer loop
    vertex -12.077546276318216 6.54369069490466 1.9999999999998823
    vertex -11.840959768980824 5.555838878388348 2.000000000000614
    vertex -11.863473493001804 6.556235026637031 2.0000000000005507
  endloop
endfacet
facet normal 1.960576096719967e-14 -1.070617034253612e-14 1.0
  outer loop
    vertex -11.863473493001804 6.556235026637031 2.0000000000005507
    vertex -11.840959768980824 5.555838878388348 2.000000000000614
    vertex -11.83419938029965 5.55623502663684 2.0000000000001408
  endloop
endfacet
facet normal 1.960576096719967e-14 -1.070617034253612e-14 1.0
  outer loop
    vertex -11.863473493001804 6.556235026637031 2.0000000000005507
    vertex -11.83419938029965 5.55623502663684 2.0000000000001408
    vertex 15.444084389212192 6.556235026637156 2.0000000000003832
  endloop
endfacet
facet normal 1.960576096719967e-14 -1.070617034253612e-14 1.0
  outer loop
    vertex 15.444084389212192 6.556235026637156 2.0000000000003832
    vertex -11.83419938029965 5.55623502663684 2.0000000000001408
    vertex 15.02652588326003 5.556235026636882 1.999999999999816
  endloop
endfacet
facet normal 0.9535188282953247 0.30133344335853407 -1.530588425270007e-14
  outer loop
    vertex 16.115446087334238 6.083542508502407 -4.57691839983454e-13
    vertex 16.17991339383694 5.8795465966158575 1.9999999999994895
    vertex 16.179913393836976 5.879546596615818 -4.641890427592443e-13
  endloop
endfacet
facet normal 0.9535188282953247 0.30133344335853407 -1.530588425270007e-14
  outer loop
    vertex 16.17991339383694 5.8795465966158575 1.9999999999994895
    vertex 16.115446087334238 6.083542508502407 -4.57691839983454e-13
    vertex 16.115446087334274 6.083542508502395 1.9999999999997105
  endloop
endfacet
facet normal 0.8195293783296079 -0.5730371698718038 -2.2001126266333635e-14
  outer loop
    vertex 16.044556749185237 5.267084852722147 -8.735128176340367e-13
    vertex 12.789497398673966 0.6118601898137568 1.9999999999998743
    vertex 12.789497398674017 0.6118601898137048 -1.6892727217054926e-13
  endloop
endfacet
facet normal 0.8195293783296079 -0.5730371698718038 -2.2001126266333635e-14
  outer loop
    vertex 12.789497398673966 0.6118601898137568 1.9999999999998743
    vertex 16.044556749185237 5.267084852722147 -8.735128176340367e-13
    vertex 16.044556749185226 5.267084852722175 1.9999999999989915
  endloop
endfacet
facet normal 0.9990192961706706 0.04427692264213974 -1.8999614728805326e-14
  outer loop
    vertex 16.186239533130095 5.736810045664574 -5.999083896313095e-13
    vertex 16.189386003020285 5.665816310157597 1.9999999999992801
    vertex 16.18938600302031 5.665816310157555 -6.749871772626647e-13
  endloop
endfacet
facet normal 0.9990192961706706 0.04427692264213974 -1.8999614728805326e-14
  outer loop
    vertex 16.189386003020285 5.665816310157597 1.9999999999992801
    vertex 16.186239533130095 5.736810045664574 -5.999083896313095e-13
    vertex 16.18623953313016 5.736810045664547 1.9999999999994795
  endloop
endfacet
facet normal 0.8873145506739681 -0.46116470827921563 -2.2079179315686636e-14
  outer loop
    vertex 16.143218372221583 5.4569170149445 -3.3352307582390494e-13
    vertex 16.044556749185226 5.267084852722175 1.9999999999989915
    vertex 16.044556749185237 5.267084852722147 -8.735128176340367e-13
  endloop
endfacet
facet normal 0.8873145506739681 -0.46116470827921563 -2.2079179315686636e-14
  outer loop
    vertex 16.044556749185226 5.267084852722175 1.9999999999989915
    vertex 16.143218372221583 5.4569170149445 -3.3352307582390494e-13
    vertex 16.143218372221618 5.456917014944487 1.9999999999998361
  endloop
endfacet
facet normal 0.9764382499694102 -0.21579699719105402 -2.122931412271733e-14
  outer loop
    vertex 16.143218372221583 5.4569170149445 -3.3352307582390494e-13
    vertex 16.189386003020285 5.665816310157597 1.9999999999992801
    vertex 16.143218372221618 5.456917014944487 1.9999999999998361
  endloop
endfacet
facet normal 0.9764382499694102 -0.21579699719105402 -2.122931412271733e-14
  outer loop
    vertex 16.189386003020285 5.665816310157597 1.9999999999992801
    vertex 16.143218372221583 5.4569170149445 -3.3352307582390494e-13
    vertex 16.18938600302031 5.665816310157555 -6.749871772626647e-13
  endloop
endfacet
facet normal 0.9990192961708436 0.04427692263823845 -1.8971859153312277e-14
  outer loop
    vertex 16.186239533130095 5.736810045664574 -5.999083896313095e-13
    vertex 16.17991339383694 5.8795465966158575 1.9999999999994895
    vertex 16.18623953313016 5.736810045664547 1.9999999999994795
  endloop
endfacet
facet normal 0.9990192961708436 0.04427692263823845 -1.8971859153312277e-14
  outer loop
    vertex 16.17991339383694 5.8795465966158575 1.9999999999994895
    vertex 16.186239533130095 5.736810045664574 -5.999083896313095e-13
    vertex 16.179913393836976 5.879546596615818 -4.641890427592443e-13
  endloop
endfacet
facet normal 0.8430376280361118 0.5378545878908598 -1.065961666882843e-14
  outer loop
    vertex 16.115446087334238 6.083542508502407 -4.57691839983454e-13
    vertex 16.000377423912802 6.2639020615416925 1.999999999999644
    vertex 16.115446087334274 6.083542508502395 1.9999999999997105
  endloop
endfacet
facet normal 0.8430376280361118 0.5378545878908598 -1.065961666882843e-14
  outer loop
    vertex 16.000377423912802 6.2639020615416925 1.999999999999644
    vertex 16.115446087334238 6.083542508502407 -4.57691839983454e-13
    vertex 16.000377423912763 6.263902061541705 -3.342449872434372e-13
  endloop
endfacet
facet normal -0.8873145506737539 0.4611647082796277 2.2134690466936133e-14
  outer loop
    vertex -16.143218372221813 1.0993180116922208 2.0000000000003535
    vertex -16.044556749185404 1.2891501739145068 3.790034952544374e-13
    vertex -16.143218372221813 1.0993180116922134 1.9563799469324294e-13
  endloop
endfacet
facet normal -0.8873145506737539 0.4611647082796277 2.2134690466936133e-14
  outer loop
    vertex -16.044556749185404 1.2891501739145068 3.790034952544374e-13
    vertex -16.143218372221813 1.0993180116922208 2.0000000000003535
    vertex -16.044556749185382 1.2891501739145084 2.0000000000004463
  endloop
endfacet
facet normal -0.05849809407657032 0.9982875202011737 1.1724997645520309e-14
  outer loop
    vertex -12.077546276318216 6.54369069490466 1.9999999999998823
    vertex -11.863473493001763 6.556235026636994 4.064361291966634e-13
    vertex -12.077546276318216 6.543690694904646 -8.590745892433915e-14
  endloop
endfacet
facet normal -0.05849809407657032 0.9982875202011737 1.1724997645520309e-14
  outer loop
    vertex -11.863473493001763 6.556235026636994 4.064361291966634e-13
    vertex -12.077546276318216 6.54369069490466 1.9999999999998823
    vertex -11.863473493001804 6.556235026637031 2.0000000000005507
  endloop
endfacet
facet normal -0.9764382499697504 0.21579699718951445 2.1146047395812785e-14
  outer loop
    vertex -16.143218372221813 1.0993180116922208 2.0000000000003535
    vertex -16.189386003020264 0.8904187164788978 -3.104219103988726e-14
    vertex -16.189386003020232 0.8904187164788949 2.000000000000036
  endloop
endfacet
facet normal -0.9764382499697504 0.21579699718951445 2.1146047395812785e-14
  outer loop
    vertex -16.189386003020264 0.8904187164788978 -3.104219103988726e-14
    vertex -16.143218372221813 1.0993180116922208 2.0000000000003535
    vertex -16.143218372221813 1.0993180116922134 1.9563799469324294e-13
  endloop
endfacet
facet normal -0.6751048066112645 -0.737721831105985 5.280601137929703e-15
  outer loop
    vertex -15.842549142824744 0.1479009763842726 1.9999999999998528
    vertex -16.000377423913253 0.2923329650950973 -6.280629349930678e-14
    vertex -15.84254914282479 0.14790097638429284 -1.2777832125721034e-13
  endloop
endfacet
facet normal -0.6751048066112645 -0.737721831105985 5.280601137929703e-15
  outer loop
    vertex -16.000377423913253 0.2923329650950973 -6.280629349930678e-14
    vertex -15.842549142824744 0.1479009763842726 1.9999999999998528
    vertex -16.000377423913232 0.29233296509510454 2.0000000000000058
  endloop
endfacet
facet normal -7.076041141917953e-13 -1.0 -1.0639303485338261e-14
  outer loop
    vertex 11.863549286036895 -2.310116542503238e-13 1.999999999999411
    vertex 11.528527297815613 6.641585059696808e-14 5.053379936725832e-15
    vertex 11.863549286036815 -1.9347226043464616e-13 -3.8983216654742135e-13
  endloop
endfacet
facet normal -7.076041141917953e-13 -1.0 -1.0639303485338261e-14
  outer loop
    vertex 11.528527297815613 6.641585059696808e-14 5.053379936725832e-15
    vertex 11.863549286036895 -2.310116542503238e-13 1.999999999999411
    vertex 11.528527297815653 5.775291356258094e-14 1.9999999999999827
  endloop
endfacet
facet normal -0.05851874189489404 0.9982863100569089 5.112367562525012e-16
  outer loop
    vertex 11.834264822852028 0.9999999999998831 1.0000000000001126
    vertex 11.840957074267866 1.0003922944041141 2.000000000000078
    vertex 11.840957074267838 1.0003922944041257 1.0000000000000369
  endloop
endfacet
facet normal -0.05851874189489404 0.9982863100569089 5.112367562525012e-16
  outer loop
    vertex 11.840957074267866 1.0003922944041141 2.000000000000078
    vertex 11.834264822852028 0.9999999999998831 1.0000000000001126
    vertex 11.834264822852017 0.9999999999998961 2.0000000000001386
  endloop
endfacet
facet normal 0.6751048066112543 0.7377218311059943 -5.2736622440257254e-15
  outer loop
    vertex 15.842549142824225 6.4083340502525825 1.9999999999994853
    vertex 16.000377423912763 6.263902061541705 -3.342449872434372e-13
    vertex 15.842549142824202 6.40833405025258 -5.840263384015998e-13
  endloop
endfacet
facet normal 0.6751048066112543 0.7377218311059943 -5.2736622440257254e-15
  outer loop
    vertex 16.000377423912763 6.263902061541705 -3.342449872434372e-13
    vertex 15.842549142824225 6.4083340502525825 1.9999999999994853
    vertex 16.000377423912802 6.2639020615416925 1.999999999999644
  endloop
endfacet
facet normal 0.4611647082795076 0.8873145506738165 4.690738729066885e-16
  outer loop
    vertex 15.652716980602365 6.506995673288751 -4.021046606794698e-13
    vertex 15.842549142824225 6.4083340502525825 1.9999999999994853
    vertex 15.842549142824202 6.40833405025258 -5.840263384015998e-13
  endloop
endfacet
facet normal 0.4611647082795076 0.8873145506738165 4.690738729066885e-16
  outer loop
    vertex 15.842549142824225 6.4083340502525825 1.9999999999994853
    vertex 15.652716980602365 6.506995673288751 -4.021046606794698e-13
    vertex 15.65271698060232 6.506995673288802 1.9999999999996427
  endloop
endfacet
facet normal -0.9990192961708342 -0.04427692263844932 1.8944103577690025e-14
  outer loop
    vertex -16.17991339383716 0.6766884300207937 2.000000000000036
    vertex -16.189386003020264 0.8904187164788978 -3.104219103988726e-14
    vertex -16.179913393837126 0.6766884300207547 -1.0828671292983927e-13
  endloop
endfacet
facet normal -0.9990192961708342 -0.04427692263844932 1.8944103577690025e-14
  outer loop
    vertex -16.189386003020264 0.8904187164788978 -3.104219103988726e-14
    vertex -16.17991339383716 0.6766884300207937 2.000000000000036
    vertex -16.189386003020232 0.8904187164788949 2.000000000000036
  endloop
endfacet
facet normal -0.9535188282955281 -0.30133344335789075 1.5305884252716317e-14
  outer loop
    vertex -16.115446087334572 0.4726925181342494 2.00000000000066
    vertex -16.179913393837126 0.6766884300207547 -1.0828671292983927e-13
    vertex -16.115446087334572 0.47269251813423496 5.024503479944542e-13
  endloop
endfacet
facet normal -0.9535188282955281 -0.30133344335789075 1.5305884252716317e-14
  outer loop
    vertex -16.179913393837126 0.6766884300207547 -1.0828671292983927e-13
    vertex -16.115446087334572 0.4726925181342494 2.00000000000066
    vertex -16.17991339383716 0.6766884300207937 2.000000000000036
  endloop
endfacet
facet normal 0.058498094013916306 -0.9982875202048452 -1.17249976470628e-14
  outer loop
    vertex -11.83419938029965 5.55623502663684 2.0000000000001408
    vertex -11.840959768980811 5.555838878388336 1.0000000000005875
    vertex -11.834199380299664 5.556235026636846 1.0000000000000122
  endloop
endfacet
facet normal 0.058498094013916306 -0.9982875202048452 -1.17249976470628e-14
  outer loop
    vertex -11.840959768980811 5.555838878388336 1.0000000000005875
    vertex -11.83419938029965 5.55623502663684 2.0000000000001408
    vertex -11.840959768980824 5.555838878388348 2.000000000000614
  endloop
endfacet
facet normal 0.8195293783296905 -0.5730371698716857 -2.2056637417559178e-14
  outer loop
    vertex 12.789497398674017 0.6118601898137048 -1.6892727217054926e-13
    vertex 12.606333729954589 0.3499085827447625 1.9999999999999625
    vertex 12.606333729954601 0.34990858274473213 -9.312657311966176e-14
  endloop
endfacet
facet normal 0.8195293783296905 -0.5730371698716857 -2.2056637417559178e-14
  outer loop
    vertex 12.606333729954589 0.3499085827447625 1.9999999999999625
    vertex 12.789497398674017 0.6118601898137048 -1.6892727217054926e-13
    vertex 12.789497398673966 0.6118601898137568 1.9999999999998743
  endloop
endfacet
facet normal 0.05851874188027659 -0.9982863100577658 -1.1724489305326467e-14
  outer loop
    vertex 12.077546276318055 0.01254433173236257 1.999999999999408
    vertex 11.863549286036815 -1.9347226043464616e-13 -3.8983216654742135e-13
    vertex 12.077546276318067 0.01254433173233658 -4.555261057248572e-13
  endloop
endfacet
facet normal 0.05851874188027659 -0.9982863100577658 -1.1724489305326467e-14
  outer loop
    vertex 11.863549286036815 -1.9347226043464616e-13 -3.8983216654742135e-13
    vertex 12.077546276318055 0.01254433173236257 1.999999999999408
    vertex 11.863549286036895 -2.310116542503238e-13 1.999999999999411
  endloop
endfacet
facet normal 0.2296993630566549 0.9732616311205159 5.886967934641622e-15
  outer loop
    vertex 15.444084389212128 6.556235026637181 3.0320279620354993e-13
    vertex 15.65271698060232 6.506995673288802 1.9999999999996427
    vertex 15.652716980602365 6.506995673288751 -4.021046606794698e-13
  endloop
endfacet
facet normal 0.2296993630566549 0.9732616311205159 5.886967934641622e-15
  outer loop
    vertex 15.65271698060232 6.506995673288802 1.9999999999996427
    vertex 15.444084389212128 6.556235026637181 3.0320279620354993e-13
    vertex 15.444084389212192 6.556235026637156 2.0000000000003832
  endloop
endfacet
facet normal -0.3013334433589909 0.9535188282951804 1.588626293957299e-14
  outer loop
    vertex -12.281542188204705 6.479223388401851 1.7325874068774283e-13
    vertex -12.077546276318216 6.54369069490466 1.9999999999998823
    vertex -12.077546276318216 6.543690694904646 -8.590745892433915e-14
  endloop
endfacet
facet normal -0.3013334433589909 0.9535188282951804 1.588626293957299e-14
  outer loop
    vertex -12.077546276318216 6.54369069490466 1.9999999999998823
    vertex -12.281542188204705 6.479223388401851 1.7325874068774283e-13
    vertex -12.281542188204682 6.47922338840185 2.0000000000002434
  endloop
endfacet
facet normal -0.46116470827985195 -0.8873145506736374 -4.274405094852674e-16
  outer loop
    vertex -15.65271698060233 0.04923935334768864 4.584137514029862e-13
    vertex -15.842549142824744 0.1479009763842726 1.9999999999998528
    vertex -15.84254914282479 0.14790097638429284 -1.2777832125721034e-13
  endloop
endfacet
facet normal -0.46116470827985195 -0.8873145506736374 -4.274405094852674e-16
  outer loop
    vertex -15.842549142824744 0.1479009763842726 1.9999999999998528
    vertex -15.65271698060233 0.04923935334768864 4.584137514029862e-13
    vertex -15.652716980602365 0.04923935334772907 2.0000000000006004
  endloop
endfacet
facet normal 9.665879208142769e-15 1.0 1.0639303485322408e-14
  outer loop
    vertex -15.026525883260032 1.000000000000166 1.000000000000716
    vertex 11.834264822852017 0.9999999999998961 2.0000000000001386
    vertex 11.834264822852028 0.9999999999998831 1.0000000000001126
  endloop
endfacet
facet normal 9.665879208142769e-15 1.0 1.0639303485322408e-14
  outer loop
    vertex 11.834264822852017 0.9999999999998961 2.0000000000001386
    vertex -15.026525883260032 1.000000000000166 1.000000000000716
    vertex -15.026525883260021 1.000000000000169 2.000000000000846
  endloop
endfacet
facet normal -0.8195293783296393 0.5730371698717587 2.20566374175627e-14
  outer loop
    vertex -16.044556749185382 1.2891501739145084 2.0000000000004463
    vertex -12.606333729954905 6.206326443892245 5.717538442695513e-13
    vertex -16.044556749185404 1.2891501739145068 3.790034952544374e-13
  endloop
endfacet
facet normal -0.8195293783296393 0.5730371698717587 2.20566374175627e-14
  outer loop
    vertex -12.606333729954905 6.206326443892245 5.717538442695513e-13
    vertex -16.044556749185382 1.2891501739145084 2.0000000000004463
    vertex -12.606333729954883 6.2063264438922445 2.000000000000636
  endloop
endfacet
facet normal -2.0429334162982545e-14 1.3238662319936318e-14 -1.0
  outer loop
    vertex -16.143218372221813 1.0993180116922134 1.9563799469324294e-13
    vertex -16.179913393837126 0.6766884300207547 -1.0828671292983927e-13
    vertex -16.189386003020264 0.8904187164788978 -3.104219103988726e-14
  endloop
endfacet
facet normal -2.0429334162982545e-14 1.3238662319936318e-14 -1.0
  outer loop
    vertex -16.179913393837126 0.6766884300207547 -1.0828671292983927e-13
    vertex -16.143218372221813 1.0993180116922134 1.9563799469324294e-13
    vertex -16.115446087334572 0.47269251813423496 5.024503479944542e-13
  endloop
endfacet
facet normal -2.0429334162982545e-14 1.3238662319936318e-14 -1.0
  outer loop
    vertex -16.115446087334572 0.47269251813423496 5.024503479944542e-13
    vertex -16.143218372221813 1.0993180116922134 1.9563799469324294e-13
    vertex -16.044556749185404 1.2891501739145068 3.790034952544374e-13
  endloop
endfacet
facet normal -2.0429334162982545e-14 1.3238662319936318e-14 -1.0
  outer loop
    vertex -16.115446087334572 0.47269251813423496 5.024503479944542e-13
    vertex -16.044556749185404 1.2891501739145068 3.790034952544374e-13
    vertex -16.000377423913253 0.2923329650950973 -6.280629349930678e-14
  endloop
endfacet
facet normal -2.0429334162982545e-14 1.3238662319936318e-14 -1.0
  outer loop
    vertex -16.000377423913253 0.2923329650950973 -6.280629349930678e-14
    vertex -16.044556749185404 1.2891501739145068 3.790034952544374e-13
    vertex -12.606333729954905 6.206326443892245 5.717538442695513e-13
  endloop
endfacet
facet normal -2.0429334162982545e-14 1.3238662319936318e-14 -1.0
  outer loop
    vertex -16.000377423913253 0.2923329650950973 -6.280629349930678e-14
    vertex -12.606333729954905 6.206326443892245 5.717538442695513e-13
    vertex -15.84254914282479 0.14790097638429284 -1.2777832125721034e-13
  endloop
endfacet
facet normal -2.0429334162982545e-14 1.3238662319936318e-14 -1.0
  outer loop
    vertex -15.84254914282479 0.14790097638429284 -1.2777832125721034e-13
    vertex -12.606333729954905 6.206326443892245 5.717538442695513e-13
    vertex -15.65271698060233 0.04923935334768864 4.584137514029862e-13
  endloop
endfacet
facet normal -2.0429334162982545e-14 1.3238662319936318e-14 -1.0
  outer loop
    vertex -15.65271698060233 0.04923935334768864 4.584137514029862e-13
    vertex -12.606333729954905 6.206326443892245 5.717538442695513e-13
    vertex -15.444084389212653 6.352820491883903e-14 -7.219114195322618e-15
  endloop
endfacet
facet normal -2.0429334162982545e-14 1.3238662319936318e-14 -1.0
  outer loop
    vertex -15.444084389212653 6.352820491883903e-14 -7.219114195322618e-15
    vertex -12.606333729954905 6.206326443892245 5.717538442695513e-13
    vertex 11.528527297815613 6.641585059696808e-14 5.053379936725832e-15
  endloop
endfacet
facet normal -2.0429334162982545e-14 1.3238662319936318e-14 -1.0
  outer loop
    vertex 11.528527297815613 6.641585059696808e-14 5.053379936725832e-15
    vertex -12.606333729954905 6.206326443892245 5.717538442695513e-13
    vertex -12.461901741243802 6.364154724980127 4.4253170017327647e-13
  endloop
endfacet
facet normal -2.0429334162982545e-14 1.3238662319936318e-14 -1.0
  outer loop
    vertex 11.528527297815613 6.641585059696808e-14 5.053379936725832e-15
    vertex -12.461901741243802 6.364154724980127 4.4253170017327647e-13
    vertex -12.281542188204705 6.479223388401851 1.7325874068774283e-13
  endloop
endfacet
facet normal -2.0429334162982545e-14 1.3238662319936318e-14 -1.0
  outer loop
    vertex 11.528527297815613 6.641585059696808e-14 5.053379936725832e-15
    vertex -12.281542188204705 6.479223388401851 1.7325874068774283e-13
    vertex -12.077546276318216 6.543690694904646 -8.590745892433915e-14
  endloop
endfacet
facet normal -2.0429334162982545e-14 1.3238662319936318e-14 -1.0
  outer loop
    vertex 11.528527297815613 6.641585059696808e-14 5.053379936725832e-15
    vertex -12.077546276318216 6.543690694904646 -8.590745892433915e-14
    vertex -11.863473493001763 6.556235026636994 4.064361291966634e-13
  endloop
endfacet
facet normal -2.0429334162982545e-14 1.3238662319936318e-14 -1.0
  outer loop
    vertex 11.528527297815613 6.641585059696808e-14 5.053379936725832e-15
    vertex -11.863473493001763 6.556235026636994 4.064361291966634e-13
    vertex 15.444084389212128 6.556235026637181 3.0320279620354993e-13
  endloop
endfacet
facet normal -2.0429334162982545e-14 1.3238662319936318e-14 -1.0
  outer loop
    vertex 11.528527297815613 6.641585059696808e-14 5.053379936725832e-15
    vertex 15.444084389212128 6.556235026637181 3.0320279620354993e-13
    vertex 11.863549286036815 -1.9347226043464616e-13 -3.8983216654742135e-13
  endloop
endfacet
facet normal -2.0429334162982545e-14 1.3238662319936318e-14 -1.0
  outer loop
    vertex 11.863549286036815 -1.9347226043464616e-13 -3.8983216654742135e-13
    vertex 15.444084389212128 6.556235026637181 3.0320279620354993e-13
    vertex 12.077546276318067 0.01254433173233658 -4.555261057248572e-13
  endloop
endfacet
facet normal -2.0429334162982545e-14 1.3238662319936318e-14 -1.0
  outer loop
    vertex 12.077546276318067 0.01254433173233658 -4.555261057248572e-13
    vertex 15.444084389212128 6.556235026637181 3.0320279620354993e-13
    vertex 12.281542188204739 0.07701163823497702 -3.6528717828332445e-13
  endloop
endfacet
facet normal -2.0429334162982545e-14 1.3238662319936318e-14 -1.0
  outer loop
    vertex 12.281542188204739 0.07701163823497702 -3.6528717828332445e-13
    vertex 15.444084389212128 6.556235026637181 3.0320279620354993e-13
    vertex 12.46190174124381 0.19208030165666096 -2.526689968362916e-13
  endloop
endfacet
facet normal -2.0429334162982545e-14 1.3238662319936318e-14 -1.0
  outer loop
    vertex 12.46190174124381 0.19208030165666096 -2.526689968362916e-13
    vertex 15.444084389212128 6.556235026637181 3.0320279620354993e-13
    vertex 12.606333729954601 0.34990858274473213 -9.312657311966176e-14
  endloop
endfacet
facet normal -2.0429334162982545e-14 1.3238662319936318e-14 -1.0
  outer loop
    vertex 12.606333729954601 0.34990858274473213 -9.312657311966176e-14
    vertex 15.444084389212128 6.556235026637181 3.0320279620354993e-13
    vertex 12.789497398674017 0.6118601898137048 -1.6892727217054926e-13
  endloop
endfacet
facet normal -2.0429334162982545e-14 1.3238662319936318e-14 -1.0
  outer loop
    vertex 12.789497398674017 0.6118601898137048 -1.6892727217054926e-13
    vertex 15.444084389212128 6.556235026637181 3.0320279620354993e-13
    vertex 16.044556749185237 5.267084852722147 -8.735128176340367e-13
  endloop
endfacet
facet normal -2.0429334162982545e-14 1.3238662319936318e-14 -1.0
  outer loop
    vertex 16.044556749185237 5.267084852722147 -8.735128176340367e-13
    vertex 15.444084389212128 6.556235026637181 3.0320279620354993e-13
    vertex 15.652716980602365 6.506995673288751 -4.021046606794698e-13
  endloop
endfacet
facet normal -2.0429334162982545e-14 1.3238662319936318e-14 -1.0
  outer loop
    vertex 16.044556749185237 5.267084852722147 -8.735128176340367e-13
    vertex 15.652716980602365 6.506995673288751 -4.021046606794698e-13
    vertex 15.842549142824202 6.40833405025258 -5.840263384015998e-13
  endloop
endfacet
facet normal -2.0429334162982545e-14 1.3238662319936318e-14 -1.0
  outer loop
    vertex 16.044556749185237 5.267084852722147 -8.735128176340367e-13
    vertex 15.842549142824202 6.40833405025258 -5.840263384015998e-13
    vertex 16.000377423912763 6.263902061541705 -3.342449872434372e-13
  endloop
endfacet
facet normal -2.0429334162982545e-14 1.3238662319936318e-14 -1.0
  outer loop
    vertex 16.044556749185237 5.267084852722147 -8.735128176340367e-13
    vertex 16.000377423912763 6.263902061541705 -3.342449872434372e-13
    vertex 16.115446087334238 6.083542508502407 -4.57691839983454e-13
  endloop
endfacet
facet normal -2.0429334162982545e-14 1.3238662319936318e-14 -1.0
  outer loop
    vertex 16.044556749185237 5.267084852722147 -8.735128176340367e-13
    vertex 16.115446087334238 6.083542508502407 -4.57691839983454e-13
    vertex 16.143218372221583 5.4569170149445 -3.3352307582390494e-13
  endloop
endfacet
facet normal -2.0429334162982545e-14 1.3238662319936318e-14 -1.0
  outer loop
    vertex 16.143218372221583 5.4569170149445 -3.3352307582390494e-13
    vertex 16.115446087334238 6.083542508502407 -4.57691839983454e-13
    vertex 16.179913393836976 5.879546596615818 -4.641890427592443e-13
  endloop
endfacet
facet normal -2.0429334162982545e-14 1.3238662319936318e-14 -1.0
  outer loop
    vertex 16.143218372221583 5.4569170149445 -3.3352307582390494e-13
    vertex 16.179913393836976 5.879546596615818 -4.641890427592443e-13
    vertex 16.186239533130095 5.736810045664574 -5.999083896313095e-13
  endloop
endfacet
facet normal -2.0429334162982545e-14 1.3238662319936318e-14 -1.0
  outer loop
    vertex 16.143218372221583 5.4569170149445 -3.3352307582390494e-13
    vertex 16.186239533130095 5.736810045664574 -5.999083896313095e-13
    vertex 16.18938600302031 5.665816310157555 -6.749871772626647e-13
  endloop
endfacet
facet normal -0.8195293783296227 0.5730371698717829 8.9282501513714e-15
  outer loop
    vertex 15.02652588326003 5.556235026636882 1.999999999999816
    vertex 11.840957074267838 1.0003922944041257 1.0000000000000369
    vertex 11.840957074267866 1.0003922944041141 2.000000000000078
  endloop
endfacet
facet normal -0.8195293783296227 0.5730371698717829 8.9282501513714e-15
  outer loop
    vertex 11.840957074267838 1.0003922944041257 1.0000000000000369
    vertex 15.02652588326003 5.556235026636882 1.999999999999816
    vertex 15.026525883260035 5.556235026636868 0.9999999999997871
  endloop
endfacet
facet normal 3.049643870767227e-15 -1.0 -1.0611547909706484e-14
  outer loop
    vertex 15.02652588326003 5.556235026636882 1.999999999999816
    vertex -11.834199380299664 5.556235026636846 1.0000000000000122
    vertex 15.026525883260035 5.556235026636868 0.9999999999997871
  endloop
endfacet
facet normal 3.049643870767227e-15 -1.0 -1.0611547909706484e-14
  outer loop
    vertex -11.834199380299664 5.556235026636846 1.0000000000000122
    vertex 15.02652588326003 5.556235026636882 1.999999999999816
    vertex -11.83419938029965 5.55623502663684 2.0000000000001408
  endloop
endfacet
facet normal 2.2388919925400275e-14 4.5943424222453935e-14 1.0
  outer loop
    vertex 11.834264822852028 0.9999999999998831 1.0000000000001126
    vertex -11.840959768980811 5.555838878388336 1.0000000000005875
    vertex -15.026525883260032 1.000000000000166 1.000000000000716
  endloop
endfacet
facet normal 2.2388919925400275e-14 4.5943424222453935e-14 1.0
  outer loop
    vertex -11.840959768980811 5.555838878388336 1.0000000000005875
    vertex 11.834264822852028 0.9999999999998831 1.0000000000001126
    vertex -11.834199380299664 5.556235026636846 1.0000000000000122
  endloop
endfacet
facet normal 2.2388919925400275e-14 4.5943424222453935e-14 1.0
  outer loop
    vertex -11.834199380299664 5.556235026636846 1.0000000000000122
    vertex 11.834264822852028 0.9999999999998831 1.0000000000001126
    vertex 15.026525883260035 5.556235026636868 0.9999999999997871
  endloop
endfacet
facet normal 2.2388919925400275e-14 4.5943424222453935e-14 1.0
  outer loop
    vertex 15.026525883260035 5.556235026636868 0.9999999999997871
    vertex 11.834264822852028 0.9999999999998831 1.0000000000001126
    vertex 11.840957074267838 1.0003922944041257 1.0000000000000369
  endloop
endfacet
facet normal -0.7377218311039963 0.6751048066134376 2.1479613678633892e-14
  outer loop
    vertex -12.461901741243778 6.364154724980127 2.0000000000005103
    vertex -12.606333729954905 6.206326443892245 5.717538442695513e-13
    vertex -12.606333729954883 6.2063264438922445 2.000000000000636
  endloop
endfacet
facet normal -0.7377218311039963 0.6751048066134376 2.1479613678633892e-14
  outer loop
    vertex -12.606333729954905 6.206326443892245 5.717538442695513e-13
    vertex -12.461901741243778 6.364154724980127 2.0000000000005103
    vertex -12.461901741243802 6.364154724980127 4.4253170017327647e-13
  endloop
endfacet
facet normal -6.140921104957896e-16 -1.0 -1.0583792334090936e-14
  outer loop
    vertex 11.528527297815613 6.641585059696808e-14 5.053379936725832e-15
    vertex -15.444084389212666 9.529230737825855e-14 2.0000000000000475
    vertex -15.444084389212653 6.352820491883903e-14 -7.219114195322618e-15
  endloop
endfacet
facet normal -6.140921104957896e-16 -1.0 -1.0583792334090936e-14
  outer loop
    vertex -15.444084389212666 9.529230737825855e-14 2.0000000000000475
    vertex 11.528527297815613 6.641585059696808e-14 5.053379936725832e-15
    vertex 11.528527297815653 5.775291356258094e-14 1.9999999999999827
  endloop
endfacet
facet normal -0.22969936305367342 -0.9732616311212194 -5.886967934596707e-15
  outer loop
    vertex -15.444084389212666 9.529230737825855e-14 2.0000000000000475
    vertex -15.65271698060233 0.04923935334768864 4.584137514029862e-13
    vertex -15.444084389212653 6.352820491883903e-14 -7.219114195322618e-15
  endloop
endfacet
facet normal -0.22969936305367342 -0.9732616311212194 -5.886967934596707e-15
  outer loop
    vertex -15.65271698060233 0.04923935334768864 4.584137514029862e-13
    vertex -15.444084389212666 9.529230737825855e-14 2.0000000000000475
    vertex -15.652716980602365 0.04923935334772907 2.0000000000006004
  endloop
endfacet
facet normal -7.105427357601e-15 1.0 1.0583792334090769e-14
  outer loop
    vertex -11.863473493001763 6.556235026636994 4.064361291966634e-13
    vertex 15.444084389212192 6.556235026637156 2.0000000000003832
    vertex 15.444084389212128 6.556235026637181 3.0320279620354993e-13
  endloop
endfacet
facet normal -7.105427357601e-15 1.0 1.0583792334090769e-14
  outer loop
    vertex 15.444084389212192 6.556235026637156 2.0000000000003832
    vertex -11.863473493001763 6.556235026636994 4.064361291966634e-13
    vertex -11.863473493001804 6.556235026637031 2.0000000000005507
  endloop
endfacet
facet normal -0.8430376280362255 -0.5378545878906813 1.0645738881023816e-14
  outer loop
    vertex -16.000377423913232 0.29233296509510454 2.0000000000000058
    vertex -16.115446087334572 0.47269251813423496 5.024503479944542e-13
    vertex -16.000377423913253 0.2923329650950973 -6.280629349930678e-14
  endloop
endfacet
facet normal -0.8430376280362255 -0.5378545878906813 1.0645738881023816e-14
  outer loop
    vertex -16.115446087334572 0.47269251813423496 5.024503479944542e-13
    vertex -16.000377423913232 0.29233296509510454 2.0000000000000058
    vertex -16.115446087334572 0.4726925181342494 2.00000000000066
  endloop
endfacet
facet normal 0.5378545878920241 -0.843037628035369 -1.933684961763794e-14
  outer loop
    vertex 12.46190174124381 0.19208030165666096 -2.526689968362916e-13
    vertex 12.281542188204849 0.07701163823491493 1.999999999999636
    vertex 12.281542188204739 0.07701163823497702 -3.6528717828332445e-13
  endloop
endfacet
facet normal 0.5378545878920241 -0.843037628035369 -1.933684961763794e-14
  outer loop
    vertex 12.281542188204849 0.07701163823491493 1.999999999999636
    vertex 12.46190174124381 0.19208030165666096 -2.526689968362916e-13
    vertex 12.461901741243834 0.19208030165666384 1.9999999999998153
  endloop
endfacet
facet normal 0.8195293783296479 -0.5730371698717465 -2.19456151150996e-14
  outer loop
    vertex -11.840959768980811 5.555838878388336 1.0000000000005875
    vertex -15.026525883260021 1.000000000000169 2.000000000000846
    vertex -15.026525883260032 1.000000000000166 1.000000000000716
  endloop
endfacet
facet normal 0.8195293783296479 -0.5730371698717465 -2.19456151150996e-14
  outer loop
    vertex -15.026525883260021 1.000000000000169 2.000000000000846
    vertex -11.840959768980811 5.555838878388336 1.0000000000005875
    vertex -11.840959768980824 5.555838878388348 2.000000000000614
  endloop
endfacet
facet normal 0.7377218311052359 -0.6751048066120829 -2.1479613678561803e-14
  outer loop
    vertex 12.606333729954601 0.34990858274473213 -9.312657311966176e-14
    vertex 12.461901741243834 0.19208030165666384 1.9999999999998153
    vertex 12.46190174124381 0.19208030165666096 -2.526689968362916e-13
  endloop
endfacet
facet normal 0.7377218311052359 -0.6751048066120829 -2.1479613678561803e-14
  outer loop
    vertex 12.461901741243834 0.19208030165666384 1.9999999999998153
    vertex 12.606333729954601 0.34990858274473213 -9.312657311966176e-14
    vertex 12.606333729954589 0.3499085827447625 1.9999999999999625
  endloop
endfacet
facet normal 0.3013334433577902 -0.9535188282955599 -1.5886262939612574e-14
  outer loop
    vertex 12.281542188204739 0.07701163823497702 -3.6528717828332445e-13
    vertex 12.077546276318055 0.01254433173236257 1.999999999999408
    vertex 12.077546276318067 0.01254433173233658 -4.555261057248572e-13
  endloop
endfacet
facet normal 0.3013334433577902 -0.9535188282955599 -1.5886262939612574e-14
  outer loop
    vertex 12.077546276318055 0.01254433173236257 1.999999999999408
    vertex 12.281542188204739 0.07701163823497702 -3.6528717828332445e-13
    vertex 12.281542188204849 0.07701163823491493 1.999999999999636
  endloop
endfacet
facet normal -0.5378545878921486 0.8430376280352895 1.9392360768863806e-14
  outer loop
    vertex -12.461901741243802 6.364154724980127 4.4253170017327647e-13
    vertex -12.281542188204682 6.47922338840185 2.0000000000002434
    vertex -12.281542188204705 6.479223388401851 1.7325874068774283e-13
  endloop
endfacet
facet normal -0.5378545878921486 0.8430376280352895 1.9392360768863806e-14
  outer loop
    vertex -12.281542188204682 6.47922338840185 2.0000000000002434
    vertex -12.461901741243802 6.364154724980127 4.4253170017327647e-13
    vertex -12.461901741243778 6.364154724980127 2.0000000000005103
  endloop
endfacet
endsolid working_stargate_mk2_rail_r_3
Working Stargate Mk2
www.glitch.org.uk