solid working_stargate_mk2_rail_r_2
facet normal -0.9990192961708659 -0.04427692263772969 1.9433724510547304e-14
  outer loop
    vertex -16.17991339383736 0.6766884300213437 5.000000000000518
    vertex -16.189386003020328 0.890418716479068 1.7010037822728917e-14
    vertex -16.17991339383706 0.6766884300208356 -1.0427108065869106e-13
  endloop
endfacet
facet normal -0.9990192961708659 -0.04427692263772969 1.9433724510547304e-14
  outer loop
    vertex -16.189386003020328 0.890418716479068 1.7010037822728917e-14
    vertex -16.17991339383736 0.6766884300213437 5.000000000000518
    vertex -16.189386003020186 0.8904187164792643 5.000000000000587
  endloop
endfacet
facet normal -0.9535188282953261 -0.3013334433585302 3.054833996815958e-14
  outer loop
    vertex -16.11544608733439 0.47269251813452073 5.00000000000022
    vertex -16.17991339383706 0.6766884300208356 -1.0427108065869106e-13
    vertex -16.115446087334483 0.4726925181342955 5.252356771734412e-13
  endloop
endfacet
facet normal -0.9535188282953261 -0.3013334433585302 3.054833996815958e-14
  outer loop
    vertex -16.17991339383706 0.6766884300208356 -1.0427108065869106e-13
    vertex -16.11544608733439 0.47269251813452073 5.00000000000022
    vertex -16.17991339383736 0.6766884300213437 5.000000000000518
  endloop
endfacet
facet normal -0.7377218311061758 0.6751048066110558 -1.964007904707136e-14
  outer loop
    vertex -12.46190174124356 6.364154724980383 4.999999999999307
    vertex -12.606333729954804 6.206326443892296 4.992468660702798e-13
    vertex -12.606333729954274 6.206326443892227 5.000000000000523
  endloop
endfacet
facet normal -0.7377218311061758 0.6751048066110558 -1.964007904707136e-14
  outer loop
    vertex -12.606333729954804 6.206326443892296 4.992468660702798e-13
    vertex -12.46190174124356 6.364154724980383 4.999999999999307
    vertex -12.461901741243677 6.364154724980164 2.740105031762141e-13
  endloop
endfacet
facet normal -0.46116470827971373 -0.8873145506737093 5.020360975315992e-14
  outer loop
    vertex -15.652716980602278 0.04923935334776433 4.848086376796346e-13
    vertex -15.842549142824456 0.14790097638447464 5.000000000000029
    vertex -15.842549142824799 0.14790097638441688 -3.1795686084024054e-13
  endloop
endfacet
facet normal -0.46116470827971373 -0.8873145506737093 5.020360975315992e-14
  outer loop
    vertex -15.842549142824456 0.14790097638447464 5.000000000000029
    vertex -15.652716980602278 0.04923935334776433 4.848086376796346e-13
    vertex -15.652716980602737 0.04923935334838806 5.000000000000387
  endloop
endfacet
facet normal -0.887314550673717 0.46116470827969863 -6.6722066365448936e-15
  outer loop
    vertex -16.143218372221366 1.0993180116923187 4.999999999999778
    vertex -16.044556749185357 1.2891501739146063 4.4438159818582786e-13
    vertex -16.143218372221774 1.0993180116923071 4.617074722546022e-13
  endloop
endfacet
facet normal -0.887314550673717 0.46116470827969863 -6.6722066365448936e-15
  outer loop
    vertex -16.044556749185357 1.2891501739146063 4.4438159818582786e-13
    vertex -16.143218372221366 1.0993180116923187 4.999999999999778
    vertex -16.044556749185297 1.2891501739148605 5.000000000000318
  endloop
endfacet
facet normal -0.8195293783296091 0.5730371698718018 -1.343369859796439e-14
  outer loop
    vertex -12.606333729954274 6.206326443892227 5.000000000000523
    vertex -15.800029676168514 1.638860682534648 2.9999999999993663
    vertex -16.044556749185297 1.2891501739148605 5.000000000000318
  endloop
endfacet
facet normal -0.8195293783296091 0.5730371698718018 -1.343369859796439e-14
  outer loop
    vertex -15.800029676168514 1.638860682534648 2.9999999999993663
    vertex -12.606333729954274 6.206326443892227 5.000000000000523
    vertex -13.507880996681333 4.9169781958531 2.9999999999994675
  endloop
endfacet
facet normal -0.8195293783296091 0.5730371698718018 -1.343369859796439e-14
  outer loop
    vertex -16.044556749185357 1.2891501739146063 4.4438159818582786e-13
    vertex -15.800029676168128 1.6388606825353929 0.9999999999998358
    vertex -12.606333729954804 6.206326443892296 4.992468660702798e-13
  endloop
endfacet
facet normal -0.8195293783296091 0.5730371698718018 -1.343369859796439e-14
  outer loop
    vertex -15.800029676168128 1.6388606825353929 0.9999999999998358
    vertex -16.044556749185357 1.2891501739146063 4.4438159818582786e-13
    vertex -16.044556749185297 1.2891501739148605 5.000000000000318
  endloop
endfacet
facet normal -0.8195293783296091 0.5730371698718018 -1.343369859796439e-14
  outer loop
    vertex -15.800029676168128 1.6388606825353929 0.9999999999998358
    vertex -16.044556749185297 1.2891501739148605 5.000000000000318
    vertex -15.800029676168514 1.638860682534648 2.9999999999993663
  endloop
endfacet
facet normal -0.8195293783296091 0.5730371698718018 -1.343369859796439e-14
  outer loop
    vertex -12.606333729954804 6.206326443892296 4.992468660702798e-13
    vertex -15.800029676168128 1.6388606825353929 0.9999999999998358
    vertex -13.50788099668187 4.916978195852569 0.9999999999998358
  endloop
endfacet
facet normal -0.8195293783296091 0.5730371698718018 -1.343369859796439e-14
  outer loop
    vertex -12.606333729954804 6.206326443892296 4.992468660702798e-13
    vertex -13.50788099668187 4.916978195852569 0.9999999999998358
    vertex -13.507880996681333 4.9169781958531 2.9999999999994675
  endloop
endfacet
facet normal -0.8195293783296091 0.5730371698718018 -1.343369859796439e-14
  outer loop
    vertex -12.606333729954804 6.206326443892296 4.992468660702798e-13
    vertex -13.507880996681333 4.9169781958531 2.9999999999994675
    vertex -12.606333729954274 6.206326443892227 5.000000000000523
  endloop
endfacet
facet normal -0.9764382499697624 0.2157969971894606 5.7968060824504926e-15
  outer loop
    vertex -16.189386003020186 0.8904187164792643 5.000000000000587
    vertex -16.143218372221774 1.0993180116923071 4.617074722546022e-13
    vertex -16.189386003020328 0.890418716479068 1.7010037822728917e-14
  endloop
endfacet
facet normal -0.9764382499697624 0.2157969971894606 5.7968060824504926e-15
  outer loop
    vertex -16.143218372221774 1.0993180116923071 4.617074722546022e-13
    vertex -16.189386003020186 0.8904187164792643 5.000000000000587
    vertex -16.143218372221366 1.0993180116923187 4.999999999999778
  endloop
endfacet
facet normal -0.8430376280360461 -0.5378545878909629 4.0016000552102925e-14
  outer loop
    vertex -16.11544608733439 0.47269251813452073 5.00000000000022
    vertex -16.000377423913342 0.2923329650952878 1.0075176248847128e-13
    vertex -16.00037742391272 0.29233296509514917 4.999999999999678
  endloop
endfacet
facet normal -0.8430376280360461 -0.5378545878909629 4.0016000552102925e-14
  outer loop
    vertex -16.000377423913342 0.2923329650952878 1.0075176248847128e-13
    vertex -16.11544608733439 0.47269251813452073 5.00000000000022
    vertex -16.115446087334483 0.4726925181342955 5.252356771734412e-13
  endloop
endfacet
facet normal -0.6751048066114226 -0.7377218311058402 4.660926271093598e-14
  outer loop
    vertex -15.842549142824456 0.14790097638447464 5.000000000000029
    vertex -16.000377423913342 0.2923329650952878 1.0075176248847128e-13
    vertex -15.842549142824799 0.14790097638441688 -3.1795686084024054e-13
  endloop
endfacet
facet normal -0.6751048066114226 -0.7377218311058402 4.660926271093598e-14
  outer loop
    vertex -16.000377423913342 0.2923329650952878 1.0075176248847128e-13
    vertex -15.842549142824456 0.14790097638447464 5.000000000000029
    vertex -16.00037742391272 0.29233296509514917 4.999999999999678
  endloop
endfacet
facet normal 1.0972096794599538e-13 -1.6948421029541603e-13 1.0
  outer loop
    vertex 1.3373643311957222 1.137173959813059 7.4840524912073665
    vertex -2.803079913996859 2.3664680273078136 7.484052491207601
    vertex -3.6626356688044432 1.1371739598133073 7.484052491207636
  endloop
endfacet
facet normal 1.0972096794599538e-13 -1.6948421029541603e-13 1.0
  outer loop
    vertex -2.803079913996859 2.3664680273078136 7.484052491207601
    vertex 1.3373643311957222 1.137173959813059 7.4840524912073665
    vertex 2.196920086003208 2.366468027307629 7.4840524912073985
  endloop
endfacet
facet normal -0.8195293783296336 0.5730371698717671 -8.354428260304305e-15
  outer loop
    vertex 11.840957074268044 1.0003922944041326 3.999999999999122
    vertex 12.287667139020046 1.6392549038615583 2.999999999999502
    vertex 12.287667139020543 1.6392549038610962 0.9999999999995065
  endloop
endfacet
facet normal -0.8195293783296336 0.5730371698717671 -8.354428260304305e-15
  outer loop
    vertex 12.287667139020046 1.6392549038615583 2.999999999999502
    vertex 11.840957074268044 1.0003922944041326 3.999999999999122
    vertex 15.02652588325998 5.556235026637054 3.999999999999131
  endloop
endfacet
facet normal -0.8195293783296336 0.5730371698717671 -8.354428260304305e-15
  outer loop
    vertex 12.287667139020046 1.6392549038615583 2.999999999999502
    vertex 15.02652588325998 5.556235026637054 3.999999999999131
    vertex 14.57981581850745 4.91737241717986 2.999999999999482
  endloop
endfacet
facet normal -0.8195293783296336 0.5730371698717671 -8.354428260304305e-15
  outer loop
    vertex 14.57981581850745 4.91737241717986 2.999999999999482
    vertex 15.02652588325998 5.556235026637054 3.999999999999131
    vertex 15.026525883260037 5.556235026636777 -4.883279558498543e-13
  endloop
endfacet
facet normal -0.8195293783296336 0.5730371698717671 -8.354428260304305e-15
  outer loop
    vertex 11.840957074267795 1.0003922944040633 -2.0529355992948695e-14
    vertex 12.287667139020543 1.6392549038610962 0.9999999999995065
    vertex 15.026525883260037 5.556235026636777 -4.883279558498543e-13
  endloop
endfacet
facet normal -0.8195293783296336 0.5730371698717671 -8.354428260304305e-15
  outer loop
    vertex 12.287667139020543 1.6392549038610962 0.9999999999995065
    vertex 11.840957074267795 1.0003922944040633 -2.0529355992948695e-14
    vertex 11.840957074268044 1.0003922944041326 3.999999999999122
  endloop
endfacet
facet normal -0.8195293783296336 0.5730371698717671 -8.354428260304305e-15
  outer loop
    vertex 15.026525883260037 5.556235026636777 -4.883279558498543e-13
    vertex 12.287667139020543 1.6392549038610962 0.9999999999995065
    vertex 14.579815818507445 4.917372417179744 1.0000000000003786
  endloop
endfacet
facet normal -0.8195293783296336 0.5730371698717671 -8.354428260304305e-15
  outer loop
    vertex 15.026525883260037 5.556235026636777 -4.883279558498543e-13
    vertex 14.579815818507445 4.917372417179744 1.0000000000003786
    vertex 14.57981581850745 4.91737241717986 2.999999999999482
  endloop
endfacet
facet normal -0.8195293783296556 0.5730371698717357 4.529709940470638e-14
  outer loop
    vertex -2.803079913996859 2.3664680273078136 7.484052491207601
    vertex -3.66263566880453 1.1371739598135382 4.999999999999045
    vertex -3.6626356688044432 1.1371739598133073 7.484052491207636
  endloop
endfacet
facet normal -0.8195293783296556 0.5730371698717357 4.529709940470638e-14
  outer loop
    vertex -3.66263566880453 1.1371739598135382 4.999999999999045
    vertex -2.803079913996859 2.3664680273078136 7.484052491207601
    vertex -2.8030799139970064 2.366468027308079 4.999999999999088
  endloop
endfacet
facet normal -0.2296993630543756 -0.9732616311210539 5.0146339072374084e-14
  outer loop
    vertex -15.444084389212579 4.250902074787177e-13 4.999999999999692
    vertex -15.652716980602278 0.04923935334776433 4.848086376796346e-13
    vertex -15.444084389212524 9.589860017200635e-14 4.299884892589034e-14
  endloop
endfacet
facet normal -0.2296993630543756 -0.9732616311210539 5.0146339072374084e-14
  outer loop
    vertex -15.652716980602278 0.04923935334776433 4.848086376796346e-13
    vertex -15.444084389212579 4.250902074787177e-13 4.999999999999692
    vertex -15.652716980602737 0.04923935334838806 5.000000000000387
  endloop
endfacet
facet normal -0.058518741880103475 0.9982863100577759 -4.7119148176718153e-14
  outer loop
    vertex 11.834264822852044 0.9999999999997761 1.6716761308543937e-13
    vertex 11.840957074268044 1.0003922944041326 3.999999999999122
    vertex 11.840957074267795 1.0003922944040633 -2.0529355992948695e-14
  endloop
endfacet
facet normal -0.058518741880103475 0.9982863100577759 -4.7119148176718153e-14
  outer loop
    vertex 11.840957074268044 1.0003922944041326 3.999999999999122
    vertex 11.834264822852044 0.9999999999997761 1.6716761308543937e-13
    vertex 11.834264822852251 0.99999999999988 3.9999999999996794
  endloop
endfacet
facet normal 1.9201307210892077e-13 1.0 -2.6044559319940457e-13
  outer loop
    vertex 12.287667139020543 1.6392549038610962 0.9999999999995065
    vertex 13.50787964932551 1.6392549038614022 2.9999999999993405
    vertex 13.50787964932473 1.6392549038607496 0.9999999999991023
  endloop
endfacet
facet normal 1.9201307210892077e-13 1.0 -2.6044559319940457e-13
  outer loop
    vertex 13.50787964932551 1.6392549038614022 2.9999999999993405
    vertex 12.287667139020543 1.6392549038610962 0.9999999999995065
    vertex 12.287667139020046 1.6392549038615583 2.999999999999502
  endloop
endfacet
facet normal 0.9535188282954656 0.3013334433580889 -3.057609554377524e-14
  outer loop
    vertex 16.11544608733425 6.08354250850231 -6.355978854344357e-13
    vertex 16.17991339383701 5.8795465966160005 4.99999999999923
    vertex 16.179913393837193 5.879546596615573 -1.0456435717287604e-12
  endloop
endfacet
facet normal 0.9535188282954656 0.3013334433580889 -3.057609554377524e-14
  outer loop
    vertex 16.17991339383701 5.8795465966160005 4.99999999999923
    vertex 16.11544608733425 6.08354250850231 -6.355978854344357e-13
    vertex 16.11544608733471 6.083542508502281 4.999999999998794
  endloop
endfacet
facet normal 1.0308420783644578e-13 -1.0 4.794890628614965e-14
  outer loop
    vertex 11.863549286036713 1.0167389152826444e-13 4.9999999999996545
    vertex 11.52852729781569 -7.158484915947838e-14 -3.2079938705464883e-14
    vertex 11.863549286036875 -3.256976688348345e-13 -7.222272557783071e-13
  endloop
endfacet
facet normal 1.0308420783644578e-13 -1.0 4.794890628614965e-14
  outer loop
    vertex 11.52852729781569 -7.158484915947838e-14 -3.2079938705464883e-14
    vertex 11.863549286036713 1.0167389152826444e-13 4.9999999999996545
    vertex 11.528527297815952 4.39209779656835e-14 4.999999999999429
  endloop
endfacet
facet normal 0.0584980940776965 -0.9982875202011077 4.7313436138239495e-14
  outer loop
    vertex -11.834199380299534 5.556235026637112 4.000000000000341
    vertex -11.840959768980726 5.555838878388382 4.097298500482793e-13
    vertex -11.834199380299603 5.556235026636927 1.412239214459987e-14
  endloop
endfacet
facet normal 0.0584980940776965 -0.9982875202011077 4.7313436138239495e-14
  outer loop
    vertex -11.840959768980726 5.555838878388382 4.097298500482793e-13
    vertex -11.834199380299534 5.556235026637112 4.000000000000341
    vertex -11.840959768980294 5.555838878388318 3.999999999999229
  endloop
endfacet
facet normal -2.275957200481571e-15 -1.0 4.7893395134918394e-14
  outer loop
    vertex 11.528527297815952 4.39209779656835e-14 4.999999999999429
    vertex -15.444084389212524 9.589860017200635e-14 4.299884892589034e-14
    vertex 11.52852729781569 -7.158484915947838e-14 -3.2079938705464883e-14
  endloop
endfacet
facet normal -2.275957200481571e-15 -1.0 4.7893395134918394e-14
  outer loop
    vertex -15.444084389212524 9.589860017200635e-14 4.299884892589034e-14
    vertex 11.528527297815952 4.39209779656835e-14 4.999999999999429
    vertex -15.444084389212579 4.250902074787177e-13 4.999999999999692
  endloop
endfacet
facet normal 0.8195293783296175 -0.5730371698717902 4.413136522884997e-15
  outer loop
    vertex -15.026525883260122 1.0000000000003535 7.129326462518293e-13
    vertex -14.579817165863895 1.638860682535058 1.0000000000002054
    vertex -15.026525883259804 1.0000000000003708 3.9999999999998757
  endloop
endfacet
facet normal 0.8195293783296175 -0.5730371698717902 4.413136522884997e-15
  outer loop
    vertex -14.579817165863895 1.638860682535058 1.0000000000002054
    vertex -15.026525883260122 1.0000000000003535 7.129326462518293e-13
    vertex -11.840959768980726 5.555838878388382 4.097298500482793e-13
  endloop
endfacet
facet normal 0.8195293783296175 -0.5730371698717902 4.413136522884997e-15
  outer loop
    vertex -15.026525883259804 1.0000000000003708 3.9999999999998757
    vertex -14.579817165863895 1.638860682535058 1.0000000000002054
    vertex -14.579817165863393 1.6388606825346652 2.999999999999202
  endloop
endfacet
facet normal 0.8195293783296175 -0.5730371698717902 4.413136522884997e-15
  outer loop
    vertex -14.579817165863895 1.638860682535058 1.0000000000002054
    vertex -11.840959768980726 5.555838878388382 4.097298500482793e-13
    vertex -12.287668486376598 4.9169781958534005 1.0000000000002516
  endloop
endfacet
facet normal 0.8195293783296175 -0.5730371698717902 4.413136522884997e-15
  outer loop
    vertex -12.287668486376598 4.9169781958534005 1.0000000000002516
    vertex -11.840959768980726 5.555838878388382 4.097298500482793e-13
    vertex -11.840959768980294 5.555838878388318 3.999999999999229
  endloop
endfacet
facet normal 0.8195293783296175 -0.5730371698717902 4.413136522884997e-15
  outer loop
    vertex -14.579817165863393 1.6388606825346652 2.999999999999202
    vertex -11.840959768980294 5.555838878388318 3.999999999999229
    vertex -15.026525883259804 1.0000000000003708 3.9999999999998757
  endloop
endfacet
facet normal 0.8195293783296175 -0.5730371698717902 4.413136522884997e-15
  outer loop
    vertex -11.840959768980294 5.555838878388318 3.999999999999229
    vertex -14.579817165863393 1.6388606825346652 2.999999999999202
    vertex -12.287668486376282 4.91697819585314 2.999999999999762
  endloop
endfacet
facet normal 0.8195293783296175 -0.5730371698717902 4.413136522884997e-15
  outer loop
    vertex -11.840959768980294 5.555838878388318 3.999999999999229
    vertex -12.287668486376282 4.91697819585314 2.999999999999762
    vertex -12.287668486376598 4.9169781958534005 1.0000000000002516
  endloop
endfacet
facet normal 0.3013334433578373 -0.9535188282955451 4.069449543211902e-14
  outer loop
    vertex 12.281542188204817 0.07701163823483252 -6.009461372968871e-13
    vertex 12.077546276318353 0.012544331732331413 4.999999999999521
    vertex 12.077546276318179 0.012544331732169704 -8.666095396847595e-13
  endloop
endfacet
facet normal 0.3013334433578373 -0.9535188282955451 4.069449543211902e-14
  outer loop
    vertex 12.077546276318353 0.012544331732331413 4.999999999999521
    vertex 12.281542188204817 0.07701163823483252 -6.009461372968871e-13
    vertex 12.281542188205158 0.07701163823487295 4.999999999999365
  endloop
endfacet
facet normal 0.8195293783297161 -0.5730371698716489 -1.3394840792102509e-13
  outer loop
    vertex 12.789497398674154 0.6118601898135141 -5.114291212748867e-13
    vertex 13.50787964932473 1.6392549038607496 0.9999999999991023
    vertex 12.789497398674326 0.6118601898136758 4.999999999999117
  endloop
endfacet
facet normal 0.8195293783297161 -0.5730371698716489 -1.3394840792102509e-13
  outer loop
    vertex 13.50787964932473 1.6392549038607496 0.9999999999991023
    vertex 12.789497398674154 0.6118601898135141 -5.114291212748867e-13
    vertex 16.044556749184622 5.2670848527224265 -6.298225940781777e-13
  endloop
endfacet
facet normal 0.8195293783297161 -0.5730371698716489 -1.3394840792102509e-13
  outer loop
    vertex 13.50787964932473 1.6392549038607496 0.9999999999991023
    vertex 16.044556749184622 5.2670848527224265 -6.298225940781777e-13
    vertex 15.800028328810956 4.917372417179456 0.9999999999998243
  endloop
endfacet
facet normal 0.8195293783297161 -0.5730371698716489 -1.3394840792102509e-13
  outer loop
    vertex 15.800028328810956 4.917372417179456 0.9999999999998243
    vertex 16.044556749184622 5.2670848527224265 -6.298225940781777e-13
    vertex 15.800028328811564 4.917372417179693 2.9999999999991327
  endloop
endfacet
facet normal 0.8195293783297161 -0.5730371698716489 -1.3394840792102509e-13
  outer loop
    vertex 15.800028328811564 4.917372417179693 2.9999999999991327
    vertex 16.044556749184622 5.2670848527224265 -6.298225940781777e-13
    vertex 16.04455674918528 5.267084852722247 4.999999999998767
  endloop
endfacet
facet normal 0.8195293783297161 -0.5730371698716489 -1.3394840792102509e-13
  outer loop
    vertex 12.789497398674326 0.6118601898136758 4.999999999999117
    vertex 13.50787964932551 1.6392549038614022 2.9999999999993405
    vertex 16.04455674918528 5.267084852722247 4.999999999998767
  endloop
endfacet
facet normal 0.8195293783297161 -0.5730371698716489 -1.3394840792102509e-13
  outer loop
    vertex 13.50787964932551 1.6392549038614022 2.9999999999993405
    vertex 12.789497398674326 0.6118601898136758 4.999999999999117
    vertex 13.50787964932473 1.6392549038607496 0.9999999999991023
  endloop
endfacet
facet normal 0.8195293783297161 -0.5730371698716489 -1.3394840792102509e-13
  outer loop
    vertex 16.04455674918528 5.267084852722247 4.999999999998767
    vertex 13.50787964932551 1.6392549038614022 2.9999999999993405
    vertex 15.800028328811564 4.917372417179693 2.9999999999991327
  endloop
endfacet
facet normal 0.819529378329521 -0.5730371698719282 1.3405943022348751e-14
  outer loop
    vertex 12.789497398674154 0.6118601898135141 -5.114291212748867e-13
    vertex 12.606333729954875 0.3499085827447306 4.999999999999195
    vertex 12.60633372995468 0.3499085827445862 -3.43945671943402e-13
  endloop
endfacet
facet normal 0.819529378329521 -0.5730371698719282 1.3405943022348751e-14
  outer loop
    vertex 12.606333729954875 0.3499085827447306 4.999999999999195
    vertex 12.789497398674154 0.6118601898135141 -5.114291212748867e-13
    vertex 12.789497398674326 0.6118601898136758 4.999999999999117
  endloop
endfacet
facet normal -0.30133344335914725 0.9535188282951312 -4.083327331019726e-14
  outer loop
    vertex -12.281542188204746 6.479223388402004 4.0111203247761296e-14
    vertex -12.077546276318058 6.543690694904955 5.000000000000082
    vertex -12.077546276318127 6.543690694904712 -2.7464217566830486e-13
  endloop
endfacet
facet normal -0.30133344335914725 0.9535188282951312 -4.083327331019726e-14
  outer loop
    vertex -12.077546276318058 6.543690694904955 5.000000000000082
    vertex -12.281542188204746 6.479223388402004 4.0111203247761296e-14
    vertex -12.281542188204789 6.479223388402327 5.0000000000003615
  endloop
endfacet
facet normal -0.8195293783295822 0.5730371698718406 9.57567358739198e-15
  outer loop
    vertex 0.004802218375027542 6.382161981123161 7.484052491209406
    vertex -0.8547535364328829 5.152867913628828 4.999999999999088
    vertex -0.8547535364326894 5.15286791362869 7.484052491209215
  endloop
endfacet
facet normal -0.8195293783295822 0.5730371698718406 9.57567358739198e-15
  outer loop
    vertex -0.8547535364328829 5.152867913628828 4.999999999999088
    vertex 0.004802218375027542 6.382161981123161 7.484052491209406
    vertex 0.00480221837490626 6.382161981123242 4.999999999999111
  endloop
endfacet
facet normal -2.500352805476687e-13 1.4586703705219794e-13 1.0
  outer loop
    vertex -14.579817165863895 1.638860682535058 1.0000000000002054
    vertex -13.50788099668187 4.916978195852569 0.9999999999998358
    vertex -15.800029676168128 1.6388606825353929 0.9999999999998358
  endloop
endfacet
facet normal -2.500352805476687e-13 1.4586703705219794e-13 1.0
  outer loop
    vertex -13.50788099668187 4.916978195852569 0.9999999999998358
    vertex -14.579817165863895 1.638860682535058 1.0000000000002054
    vertex -12.287668486376598 4.9169781958534005 1.0000000000002516
  endloop
endfacet
facet normal 1.0214051826551439e-14 1.0 2.47707018267981e-14
  outer loop
    vertex 0.004802218375027542 6.382161981123161 7.484052491209406
    vertex 5.004802218374875 6.382161981123161 4.999999999999637
    vertex 0.00480221837490626 6.382161981123242 4.999999999999111
  endloop
endfacet
facet normal 1.0214051826551439e-14 1.0 2.47707018267981e-14
  outer loop
    vertex 5.004802218374875 6.382161981123161 4.999999999999637
    vertex 0.004802218375027542 6.382161981123161 7.484052491209406
    vertex 5.0048022183752705 6.38216198112297 7.484052491207523
  endloop
endfacet
facet normal -2.6465599880042652e-14 -2.908452470762598e-14 -1.0
  outer loop
    vertex -16.143218372221774 1.0993180116923071 4.617074722546022e-13
    vertex -16.17991339383706 0.6766884300208356 -1.0427108065869106e-13
    vertex -16.189386003020328 0.890418716479068 1.7010037822728917e-14
  endloop
endfacet
facet normal -2.6465599880042652e-14 -2.908452470762598e-14 -1.0
  outer loop
    vertex -16.17991339383706 0.6766884300208356 -1.0427108065869106e-13
    vertex -16.143218372221774 1.0993180116923071 4.617074722546022e-13
    vertex -16.115446087334483 0.4726925181342955 5.252356771734412e-13
  endloop
endfacet
facet normal -2.6465599880042652e-14 -2.908452470762598e-14 -1.0
  outer loop
    vertex -16.115446087334483 0.4726925181342955 5.252356771734412e-13
    vertex -16.143218372221774 1.0993180116923071 4.617074722546022e-13
    vertex -16.044556749185357 1.2891501739146063 4.4438159818582786e-13
  endloop
endfacet
facet normal -2.6465599880042652e-14 -2.908452470762598e-14 -1.0
  outer loop
    vertex -16.115446087334483 0.4726925181342955 5.252356771734412e-13
    vertex -16.044556749185357 1.2891501739146063 4.4438159818582786e-13
    vertex -16.000377423913342 0.2923329650952878 1.0075176248847128e-13
  endloop
endfacet
facet normal -2.6465599880042652e-14 -2.908452470762598e-14 -1.0
  outer loop
    vertex -16.000377423913342 0.2923329650952878 1.0075176248847128e-13
    vertex -16.044556749185357 1.2891501739146063 4.4438159818582786e-13
    vertex -12.606333729954804 6.206326443892296 4.992468660702798e-13
  endloop
endfacet
facet normal -2.6465599880042652e-14 -2.908452470762598e-14 -1.0
  outer loop
    vertex -16.000377423913342 0.2923329650952878 1.0075176248847128e-13
    vertex -12.606333729954804 6.206326443892296 4.992468660702798e-13
    vertex -15.842549142824799 0.14790097638441688 -3.1795686084024054e-13
  endloop
endfacet
facet normal -2.6465599880042652e-14 -2.908452470762598e-14 -1.0
  outer loop
    vertex -15.842549142824799 0.14790097638441688 -3.1795686084024054e-13
    vertex -12.606333729954804 6.206326443892296 4.992468660702798e-13
    vertex -15.652716980602278 0.04923935334776433 4.848086376796346e-13
  endloop
endfacet
facet normal -2.6465599880042652e-14 -2.908452470762598e-14 -1.0
  outer loop
    vertex -15.652716980602278 0.04923935334776433 4.848086376796346e-13
    vertex -12.606333729954804 6.206326443892296 4.992468660702798e-13
    vertex -15.026525883260122 1.0000000000003535 7.129326462518293e-13
  endloop
endfacet
facet normal -2.6465599880042652e-14 -2.908452470762598e-14 -1.0
  outer loop
    vertex -15.652716980602278 0.04923935334776433 4.848086376796346e-13
    vertex -15.026525883260122 1.0000000000003535 7.129326462518293e-13
    vertex -15.444084389212524 9.589860017200635e-14 4.299884892589034e-14
  endloop
endfacet
facet normal -2.6465599880042652e-14 -2.908452470762598e-14 -1.0
  outer loop
    vertex -15.026525883260122 1.0000000000003535 7.129326462518293e-13
    vertex -12.606333729954804 6.206326443892296 4.992468660702798e-13
    vertex -11.840959768980726 5.555838878388382 4.097298500482793e-13
  endloop
endfacet
facet normal -2.6465599880042652e-14 -2.908452470762598e-14 -1.0
  outer loop
    vertex -11.840959768980726 5.555838878388382 4.097298500482793e-13
    vertex -12.606333729954804 6.206326443892296 4.992468660702798e-13
    vertex -12.461901741243677 6.364154724980164 2.740105031762141e-13
  endloop
endfacet
facet normal -2.6465599880042652e-14 -2.908452470762598e-14 -1.0
  outer loop
    vertex -11.840959768980726 5.555838878388382 4.097298500482793e-13
    vertex -12.461901741243677 6.364154724980164 2.740105031762141e-13
    vertex -12.281542188204746 6.479223388402004 4.0111203247761296e-14
  endloop
endfacet
facet normal -2.6465599880042652e-14 -2.908452470762598e-14 -1.0
  outer loop
    vertex -11.840959768980726 5.555838878388382 4.097298500482793e-13
    vertex -12.281542188204746 6.479223388402004 4.0111203247761296e-14
    vertex -12.077546276318127 6.543690694904712 -2.7464217566830486e-13
  endloop
endfacet
facet normal -2.6465599880042652e-14 -2.908452470762598e-14 -1.0
  outer loop
    vertex -11.840959768980726 5.555838878388382 4.097298500482793e-13
    vertex -12.077546276318127 6.543690694904712 -2.7464217566830486e-13
    vertex -11.863473493001713 6.556235026637075 1.1234746466470823e-14
  endloop
endfacet
facet normal -2.6465599880042652e-14 -2.908452470762598e-14 -1.0
  outer loop
    vertex -11.840959768980726 5.555838878388382 4.097298500482793e-13
    vertex -11.863473493001713 6.556235026637075 1.1234746466470823e-14
    vertex -11.834199380299603 5.556235026636927 1.412239214459987e-14
  endloop
endfacet
facet normal -2.6465599880042652e-14 -2.908452470762598e-14 -1.0
  outer loop
    vertex -11.834199380299603 5.556235026636927 1.412239214459987e-14
    vertex -11.863473493001713 6.556235026637075 1.1234746466470823e-14
    vertex 15.444084389212167 6.556235026637069 1.9897683500857965e-14
  endloop
endfacet
facet normal -2.6465599880042652e-14 -2.908452470762598e-14 -1.0
  outer loop
    vertex -11.834199380299603 5.556235026636927 1.412239214459987e-14
    vertex 15.444084389212167 6.556235026637069 1.9897683500857965e-14
    vertex 15.026525883260037 5.556235026636777 -4.883279558498543e-13
  endloop
endfacet
facet normal -2.6465599880042652e-14 -2.908452470762598e-14 -1.0
  outer loop
    vertex -15.026525883260122 1.0000000000003535 7.129326462518293e-13
    vertex 11.52852729781569 -7.158484915947838e-14 -3.2079938705464883e-14
    vertex -15.444084389212524 9.589860017200635e-14 4.299884892589034e-14
  endloop
endfacet
facet normal -2.6465599880042652e-14 -2.908452470762598e-14 -1.0
  outer loop
    vertex 11.52852729781569 -7.158484915947838e-14 -3.2079938705464883e-14
    vertex -15.026525883260122 1.0000000000003535 7.129326462518293e-13
    vertex 11.834264822852044 0.9999999999997761 1.6716761308543937e-13
  endloop
endfacet
facet normal -2.6465599880042652e-14 -2.908452470762598e-14 -1.0
  outer loop
    vertex 11.52852729781569 -7.158484915947838e-14 -3.2079938705464883e-14
    vertex 11.834264822852044 0.9999999999997761 1.6716761308543937e-13
    vertex 11.863549286036875 -3.256976688348345e-13 -7.222272557783071e-13
  endloop
endfacet
facet normal -2.6465599880042652e-14 -2.908452470762598e-14 -1.0
  outer loop
    vertex 11.863549286036875 -3.256976688348345e-13 -7.222272557783071e-13
    vertex 11.834264822852044 0.9999999999997761 1.6716761308543937e-13
    vertex 11.840957074267795 1.0003922944040633 -2.0529355992948695e-14
  endloop
endfacet
facet normal -2.6465599880042652e-14 -2.908452470762598e-14 -1.0
  outer loop
    vertex 11.863549286036875 -3.256976688348345e-13 -7.222272557783071e-13
    vertex 11.840957074267795 1.0003922944040633 -2.0529355992948695e-14
    vertex 15.026525883260037 5.556235026636777 -4.883279558498543e-13
  endloop
endfacet
facet normal -2.6465599880042652e-14 -2.908452470762598e-14 -1.0
  outer loop
    vertex 11.863549286036875 -3.256976688348345e-13 -7.222272557783071e-13
    vertex 15.026525883260037 5.556235026636777 -4.883279558498543e-13
    vertex 12.077546276318179 0.012544331732169704 -8.666095396847595e-13
  endloop
endfacet
facet normal -2.6465599880042652e-14 -2.908452470762598e-14 -1.0
  outer loop
    vertex 12.077546276318179 0.012544331732169704 -8.666095396847595e-13
    vertex 15.026525883260037 5.556235026636777 -4.883279558498543e-13
    vertex 12.281542188204817 0.07701163823483252 -6.009461372968871e-13
  endloop
endfacet
facet normal -2.6465599880042652e-14 -2.908452470762598e-14 -1.0
  outer loop
    vertex 12.281542188204817 0.07701163823483252 -6.009461372968871e-13
    vertex 15.026525883260037 5.556235026636777 -4.883279558498543e-13
    vertex 12.461901741243883 0.19208030165651646 -4.941032472061124e-13
  endloop
endfacet
facet normal -2.6465599880042652e-14 -2.908452470762598e-14 -1.0
  outer loop
    vertex 12.461901741243883 0.19208030165651646 -4.941032472061124e-13
    vertex 15.026525883260037 5.556235026636777 -4.883279558498543e-13
    vertex 12.60633372995468 0.3499085827445862 -3.43945671943402e-13
  endloop
endfacet
facet normal -2.6465599880042652e-14 -2.908452470762598e-14 -1.0
  outer loop
    vertex 12.60633372995468 0.3499085827445862 -3.43945671943402e-13
    vertex 15.026525883260037 5.556235026636777 -4.883279558498543e-13
    vertex 12.789497398674154 0.6118601898135141 -5.114291212748867e-13
  endloop
endfacet
facet normal -2.6465599880042652e-14 -2.908452470762598e-14 -1.0
  outer loop
    vertex 12.789497398674154 0.6118601898135141 -5.114291212748867e-13
    vertex 15.026525883260037 5.556235026636777 -4.883279558498543e-13
    vertex 16.044556749184622 5.2670848527224265 -6.298225940781777e-13
  endloop
endfacet
facet normal -2.6465599880042652e-14 -2.908452470762598e-14 -1.0
  outer loop
    vertex 16.044556749184622 5.2670848527224265 -6.298225940781777e-13
    vertex 15.026525883260037 5.556235026636777 -4.883279558498543e-13
    vertex 15.444084389212167 6.556235026637069 1.9897683500857965e-14
  endloop
endfacet
facet normal -2.6465599880042652e-14 -2.908452470762598e-14 -1.0
  outer loop
    vertex 16.044556749184622 5.2670848527224265 -6.298225940781777e-13
    vertex 15.444084389212167 6.556235026637069 1.9897683500857965e-14
    vertex 15.652716980602495 6.506995673288575 -9.388006816379857e-13
  endloop
endfacet
facet normal -2.6465599880042652e-14 -2.908452470762598e-14 -1.0
  outer loop
    vertex 16.044556749184622 5.2670848527224265 -6.298225940781777e-13
    vertex 15.652716980602495 6.506995673288575 -9.388006816379857e-13
    vertex 15.842549142824343 6.408334050252391 -8.261825001909529e-13
  endloop
endfacet
facet normal -2.6465599880042652e-14 -2.908452470762598e-14 -1.0
  outer loop
    vertex 16.044556749184622 5.2670848527224265 -6.298225940781777e-13
    vertex 15.842549142824343 6.408334050252391 -8.261825001909529e-13
    vertex 16.00037742391283 6.263902061541572 -9.763400754536632e-13
  endloop
endfacet
facet normal -2.6465599880042652e-14 -2.908452470762598e-14 -1.0
  outer loop
    vertex 16.044556749184622 5.2670848527224265 -6.298225940781777e-13
    vertex 16.00037742391283 6.263902061541572 -9.763400754536632e-13
    vertex 16.11544608733425 6.08354250850231 -6.355978854344357e-13
  endloop
endfacet
facet normal -2.6465599880042652e-14 -2.908452470762598e-14 -1.0
  outer loop
    vertex 16.044556749184622 5.2670848527224265 -6.298225940781777e-13
    vertex 16.11544608733425 6.08354250850231 -6.355978854344357e-13
    vertex 16.143218372222712 5.456917014943628 -1.1784752729226966e-12
  endloop
endfacet
facet normal -2.6465599880042652e-14 -2.908452470762598e-14 -1.0
  outer loop
    vertex 16.143218372222712 5.456917014943628 -1.1784752729226966e-12
    vertex 16.11544608733425 6.08354250850231 -6.355978854344357e-13
    vertex 16.179913393837193 5.879546596615573 -1.0456435717287604e-12
  endloop
endfacet
facet normal -2.6465599880042652e-14 -2.908452470762598e-14 -1.0
  outer loop
    vertex 16.143218372222712 5.456917014943628 -1.1784752729226966e-12
    vertex 16.179913393837193 5.879546596615573 -1.0456435717287604e-12
    vertex 16.186239533130156 5.736810045664433 -8.406207285815981e-13
  endloop
endfacet
facet normal -2.6465599880042652e-14 -2.908452470762598e-14 -1.0
  outer loop
    vertex 16.143218372222712 5.456917014943628 -1.1784752729226966e-12
    vertex 16.186239533130156 5.736810045664433 -8.406207285815981e-13
    vertex 16.189386003020328 5.6658163101570755 -1.1582617531757933e-12
  endloop
endfacet
facet normal 0.9764382499699007 -0.21579699718883483 1.9759605202887823e-13
  outer loop
    vertex 16.189386003020328 5.6658163101570755 -1.1582617531757933e-12
    vertex 16.143218372221273 5.456917014944841 4.999999999999859
    vertex 16.143218372222712 5.456917014943628 -1.1784752729226966e-12
  endloop
endfacet
facet normal 0.9764382499699007 -0.21579699718883483 1.9759605202887823e-13
  outer loop
    vertex 16.143218372221273 5.456917014944841 4.999999999999859
    vertex 16.189386003020328 5.6658163101570755 -1.1582617531757933e-12
    vertex 16.189386003020168 5.6658163101578145 4.999999999999172
  endloop
endfacet
facet normal 2.453457445708044e-14 2.7802895315249304e-14 1.0
  outer loop
    vertex -16.17991339383736 0.6766884300213437 5.000000000000518
    vertex -16.143218372221366 1.0993180116923187 4.999999999999778
    vertex -16.189386003020186 0.8904187164792643 5.000000000000587
  endloop
endfacet
facet normal 2.453457445708044e-14 2.7802895315249304e-14 1.0
  outer loop
    vertex -16.143218372221366 1.0993180116923187 4.999999999999778
    vertex -16.17991339383736 0.6766884300213437 5.000000000000518
    vertex -16.11544608733439 0.47269251813452073 5.00000000000022
  endloop
endfacet
facet normal 2.453457445708044e-14 2.7802895315249304e-14 1.0
  outer loop
    vertex -16.143218372221366 1.0993180116923187 4.999999999999778
    vertex -16.11544608733439 0.47269251813452073 5.00000000000022
    vertex -16.044556749185297 1.2891501739148605 5.000000000000318
  endloop
endfacet
facet normal 2.453457445708044e-14 2.7802895315249304e-14 1.0
  outer loop
    vertex -16.044556749185297 1.2891501739148605 5.000000000000318
    vertex -16.11544608733439 0.47269251813452073 5.00000000000022
    vertex -16.00037742391272 0.29233296509514917 4.999999999999678
  endloop
endfacet
facet normal 2.453457445708044e-14 2.7802895315249304e-14 1.0
  outer loop
    vertex -16.044556749185297 1.2891501739148605 5.000000000000318
    vertex -16.00037742391272 0.29233296509514917 4.999999999999678
    vertex -12.606333729954274 6.206326443892227 5.000000000000523
  endloop
endfacet
facet normal 2.453457445708044e-14 2.7802895315249304e-14 1.0
  outer loop
    vertex -12.606333729954274 6.206326443892227 5.000000000000523
    vertex -16.00037742391272 0.29233296509514917 4.999999999999678
    vertex -15.842549142824456 0.14790097638447464 5.000000000000029
  endloop
endfacet
facet normal 2.453457445708044e-14 2.7802895315249304e-14 1.0
  outer loop
    vertex -12.606333729954274 6.206326443892227 5.000000000000523
    vertex -15.842549142824456 0.14790097638447464 5.000000000000029
    vertex -15.652716980602737 0.04923935334838806 5.000000000000387
  endloop
endfacet
facet normal 2.453457445708044e-14 2.7802895315249304e-14 1.0
  outer loop
    vertex -12.606333729954274 6.206326443892227 5.000000000000523
    vertex -15.652716980602737 0.04923935334838806 5.000000000000387
    vertex -15.444084389212579 4.250902074787177e-13 4.999999999999692
  endloop
endfacet
facet normal 2.453457445708044e-14 2.7802895315249304e-14 1.0
  outer loop
    vertex -12.606333729954274 6.206326443892227 5.000000000000523
    vertex -15.444084389212579 4.250902074787177e-13 4.999999999999692
    vertex -3.66263566880453 1.1371739598135382 4.999999999999045
  endloop
endfacet
facet normal 2.453457445708044e-14 2.7802895315249304e-14 1.0
  outer loop
    vertex -3.66263566880453 1.1371739598135382 4.999999999999045
    vertex -15.444084389212579 4.250902074787177e-13 4.999999999999692
    vertex 11.528527297815952 4.39209779656835e-14 4.999999999999429
  endloop
endfacet
facet normal 2.453457445708044e-14 2.7802895315249304e-14 1.0
  outer loop
    vertex -12.606333729954274 6.206326443892227 5.000000000000523
    vertex -3.66263566880453 1.1371739598135382 4.999999999999045
    vertex -12.46190174124356 6.364154724980383 4.999999999999307
  endloop
endfacet
facet normal 2.453457445708044e-14 2.7802895315249304e-14 1.0
  outer loop
    vertex -12.46190174124356 6.364154724980383 4.999999999999307
    vertex -3.66263566880453 1.1371739598135382 4.999999999999045
    vertex -12.281542188204789 6.479223388402327 5.0000000000003615
  endloop
endfacet
facet normal 2.453457445708044e-14 2.7802895315249304e-14 1.0
  outer loop
    vertex -12.281542188204789 6.479223388402327 5.0000000000003615
    vertex -3.66263566880453 1.1371739598135382 4.999999999999045
    vertex -12.077546276318058 6.543690694904955 5.000000000000082
  endloop
endfacet
facet normal 2.453457445708044e-14 2.7802895315249304e-14 1.0
  outer loop
    vertex -12.077546276318058 6.543690694904955 5.000000000000082
    vertex -3.66263566880453 1.1371739598135382 4.999999999999045
    vertex -11.86347349300175 6.556235026637398 4.99999999999957
  endloop
endfacet
facet normal 2.453457445708044e-14 2.7802895315249304e-14 1.0
  outer loop
    vertex -3.66263566880453 1.1371739598135382 4.999999999999045
    vertex 11.528527297815952 4.39209779656835e-14 4.999999999999429
    vertex 1.3373643311952919 1.1371739598135555 4.999999999999524
  endloop
endfacet
facet normal 2.453457445708044e-14 2.7802895315249304e-14 1.0
  outer loop
    vertex 1.3373643311952919 1.1371739598135555 4.999999999999524
    vertex 11.528527297815952 4.39209779656835e-14 4.999999999999429
    vertex 2.196920086002997 2.3664680273079752 4.999999999999625
  endloop
endfacet
facet normal 2.453457445708044e-14 2.7802895315249304e-14 1.0
  outer loop
    vertex 2.196920086002997 2.3664680273079752 4.999999999999625
    vertex 11.528527297815952 4.39209779656835e-14 4.999999999999429
    vertex 4.14524646356713 5.1528679136287705 4.999999999999715
  endloop
endfacet
facet normal 2.453457445708044e-14 2.7802895315249304e-14 1.0
  outer loop
    vertex 4.14524646356713 5.1528679136287705 4.999999999999715
    vertex 11.528527297815952 4.39209779656835e-14 4.999999999999429
    vertex 5.004802218374875 6.382161981123161 4.999999999999637
  endloop
endfacet
facet normal 2.453457445708044e-14 2.7802895315249304e-14 1.0
  outer loop
    vertex -11.86347349300175 6.556235026637398 4.99999999999957
    vertex 0.00480221837490626 6.382161981123242 4.999999999999111
    vertex 15.444084389212513 6.556235026637121 4.999999999999415
  endloop
endfacet
facet normal 2.453457445708044e-14 2.7802895315249304e-14 1.0
  outer loop
    vertex 0.00480221837490626 6.382161981123242 4.999999999999111
    vertex -11.86347349300175 6.556235026637398 4.99999999999957
    vertex -0.8547535364328829 5.152867913628828 4.999999999999088
  endloop
endfacet
facet normal 2.453457445708044e-14 2.7802895315249304e-14 1.0
  outer loop
    vertex -0.8547535364328829 5.152867913628828 4.999999999999088
    vertex -11.86347349300175 6.556235026637398 4.99999999999957
    vertex -2.8030799139970064 2.366468027308079 4.999999999999088
  endloop
endfacet
facet normal 2.453457445708044e-14 2.7802895315249304e-14 1.0
  outer loop
    vertex -2.8030799139970064 2.366468027308079 4.999999999999088
    vertex -11.86347349300175 6.556235026637398 4.99999999999957
    vertex -3.66263566880453 1.1371739598135382 4.999999999999045
  endloop
endfacet
facet normal 2.453457445708044e-14 2.7802895315249304e-14 1.0
  outer loop
    vertex 15.444084389212513 6.556235026637121 4.999999999999415
    vertex 0.00480221837490626 6.382161981123242 4.999999999999111
    vertex 5.004802218374875 6.382161981123161 4.999999999999637
  endloop
endfacet
facet normal 2.453457445708044e-14 2.7802895315249304e-14 1.0
  outer loop
    vertex 15.444084389212513 6.556235026637121 4.999999999999415
    vertex 5.004802218374875 6.382161981123161 4.999999999999637
    vertex 11.528527297815952 4.39209779656835e-14 4.999999999999429
  endloop
endfacet
facet normal 2.453457445708044e-14 2.7802895315249304e-14 1.0
  outer loop
    vertex 15.444084389212513 6.556235026637121 4.999999999999415
    vertex 11.528527297815952 4.39209779656835e-14 4.999999999999429
    vertex 11.863549286036713 1.0167389152826444e-13 4.9999999999996545
  endloop
endfacet
facet normal 2.453457445708044e-14 2.7802895315249304e-14 1.0
  outer loop
    vertex 15.444084389212513 6.556235026637121 4.999999999999415
    vertex 11.863549286036713 1.0167389152826444e-13 4.9999999999996545
    vertex 12.077546276318353 0.012544331732331413 4.999999999999521
  endloop
endfacet
facet normal 2.453457445708044e-14 2.7802895315249304e-14 1.0
  outer loop
    vertex 15.444084389212513 6.556235026637121 4.999999999999415
    vertex 12.077546276318353 0.012544331732331413 4.999999999999521
    vertex 12.281542188205158 0.07701163823487295 4.999999999999365
  endloop
endfacet
facet normal 2.453457445708044e-14 2.7802895315249304e-14 1.0
  outer loop
    vertex 15.444084389212513 6.556235026637121 4.999999999999415
    vertex 12.281542188205158 0.07701163823487295 4.999999999999365
    vertex 12.46190174124357 0.192080301657042 5.000000000000024
  endloop
endfacet
facet normal 2.453457445708044e-14 2.7802895315249304e-14 1.0
  outer loop
    vertex 15.444084389212513 6.556235026637121 4.999999999999415
    vertex 12.46190174124357 0.192080301657042 5.000000000000024
    vertex 12.606333729954875 0.3499085827447306 4.999999999999195
  endloop
endfacet
facet normal 2.453457445708044e-14 2.7802895315249304e-14 1.0
  outer loop
    vertex 15.444084389212513 6.556235026637121 4.999999999999415
    vertex 12.606333729954875 0.3499085827447306 4.999999999999195
    vertex 12.789497398674326 0.6118601898136758 4.999999999999117
  endloop
endfacet
facet normal 2.453457445708044e-14 2.7802895315249304e-14 1.0
  outer loop
    vertex 15.444084389212513 6.556235026637121 4.999999999999415
    vertex 12.789497398674326 0.6118601898136758 4.999999999999117
    vertex 16.04455674918528 5.267084852722247 4.999999999998767
  endloop
endfacet
facet normal 2.453457445708044e-14 2.7802895315249304e-14 1.0
  outer loop
    vertex 15.444084389212513 6.556235026637121 4.999999999999415
    vertex 16.04455674918528 5.267084852722247 4.999999999998767
    vertex 15.652716980602547 6.506995673288829 4.999999999998551
  endloop
endfacet
facet normal 2.453457445708044e-14 2.7802895315249304e-14 1.0
  outer loop
    vertex 15.652716980602547 6.506995673288829 4.999999999998551
    vertex 16.04455674918528 5.267084852722247 4.999999999998767
    vertex 15.842549142824303 6.408334050252714 4.999999999999493
  endloop
endfacet
facet normal 2.453457445708044e-14 2.7802895315249304e-14 1.0
  outer loop
    vertex 15.842549142824303 6.408334050252714 4.999999999999493
    vertex 16.04455674918528 5.267084852722247 4.999999999998767
    vertex 16.000377423912916 6.263902061541796 4.999999999998909
  endloop
endfacet
facet normal 2.453457445708044e-14 2.7802895315249304e-14 1.0
  outer loop
    vertex 16.000377423912916 6.263902061541796 4.999999999998909
    vertex 16.04455674918528 5.267084852722247 4.999999999998767
    vertex 16.11544608733471 6.083542508502281 4.999999999998794
  endloop
endfacet
facet normal 2.453457445708044e-14 2.7802895315249304e-14 1.0
  outer loop
    vertex 16.11544608733471 6.083542508502281 4.999999999998794
    vertex 16.04455674918528 5.267084852722247 4.999999999998767
    vertex 16.143218372221273 5.456917014944841 4.999999999999859
  endloop
endfacet
facet normal 2.453457445708044e-14 2.7802895315249304e-14 1.0
  outer loop
    vertex 16.11544608733471 6.083542508502281 4.999999999998794
    vertex 16.143218372221273 5.456917014944841 4.999999999999859
    vertex 16.17991339383701 5.8795465966160005 4.99999999999923
  endloop
endfacet
facet normal 2.453457445708044e-14 2.7802895315249304e-14 1.0
  outer loop
    vertex 16.17991339383701 5.8795465966160005 4.99999999999923
    vertex 16.143218372221273 5.456917014944841 4.999999999999859
    vertex 16.189386003020168 5.6658163101578145 4.999999999999172
  endloop
endfacet
facet normal 2.453457445708044e-14 2.7802895315249304e-14 1.0
  outer loop
    vertex 2.196920086002997 2.3664680273079752 4.999999999999625
    vertex -0.8547535364328829 5.152867913628828 4.999999999999088
    vertex -2.8030799139970064 2.366468027308079 4.999999999999088
  endloop
endfacet
facet normal 2.453457445708044e-14 2.7802895315249304e-14 1.0
  outer loop
    vertex -0.8547535364328829 5.152867913628828 4.999999999999088
    vertex 2.196920086002997 2.3664680273079752 4.999999999999625
    vertex 4.14524646356713 5.1528679136287705 4.999999999999715
  endloop
endfacet
facet normal -1.8228912814935786e-14 -4.8358565656111494e-14 -1.0
  outer loop
    vertex -11.840959768980294 5.555838878388318 3.999999999999229
    vertex 11.834264822852251 0.99999999999988 3.9999999999996794
    vertex -15.026525883259804 1.0000000000003708 3.9999999999998757
  endloop
endfacet
facet normal -1.8228912814935786e-14 -4.8358565656111494e-14 -1.0
  outer loop
    vertex 11.834264822852251 0.99999999999988 3.9999999999996794
    vertex -11.840959768980294 5.555838878388318 3.999999999999229
    vertex -11.834199380299534 5.556235026637112 4.000000000000341
  endloop
endfacet
facet normal -1.8228912814935786e-14 -4.8358565656111494e-14 -1.0
  outer loop
    vertex 11.834264822852251 0.99999999999988 3.9999999999996794
    vertex -11.834199380299534 5.556235026637112 4.000000000000341
    vertex 15.02652588325998 5.556235026637054 3.999999999999131
  endloop
endfacet
facet normal -1.8228912814935786e-14 -4.8358565656111494e-14 -1.0
  outer loop
    vertex 11.834264822852251 0.99999999999988 3.9999999999996794
    vertex 15.02652588325998 5.556235026637054 3.999999999999131
    vertex 11.840957074268044 1.0003922944041326 3.999999999999122
  endloop
endfacet
facet normal 0.843037628035954 0.5378545878911069 -3.991885603744821e-14
  outer loop
    vertex 16.11544608733425 6.08354250850231 -6.355978854344357e-13
    vertex 16.000377423912916 6.263902061541796 4.999999999998909
    vertex 16.11544608733471 6.083542508502281 4.999999999998794
  endloop
endfacet
facet normal 0.843037628035954 0.5378545878911069 -3.991885603744821e-14
  outer loop
    vertex 16.000377423912916 6.263902061541796 4.999999999998909
    vertex 16.11544608733425 6.08354250850231 -6.355978854344357e-13
    vertex 16.00037742391283 6.263902061541572 -9.763400754536632e-13
  endloop
endfacet
facet normal 2.5251541803931715e-13 -1.0925832737395447e-13 1.0
  outer loop
    vertex 4.145246463567248 5.1528679136287705 7.484052491208181
    vertex 0.004802218375027542 6.382161981123161 7.484052491209406
    vertex -0.8547535364326894 5.15286791362869 7.484052491209215
  endloop
endfacet
facet normal 2.5251541803931715e-13 -1.0925832737395447e-13 1.0
  outer loop
    vertex 0.004802218375027542 6.382161981123161 7.484052491209406
    vertex 4.145246463567248 5.1528679136287705 7.484052491208181
    vertex 5.0048022183752705 6.38216198112297 7.484052491207523
  endloop
endfacet
facet normal -0.5378545878902156 0.8430376280365228 -3.052702395597578e-14
  outer loop
    vertex -12.461901741243677 6.364154724980164 2.740105031762141e-13
    vertex -12.281542188204789 6.479223388402327 5.0000000000003615
    vertex -12.281542188204746 6.479223388402004 4.0111203247761296e-14
  endloop
endfacet
facet normal -0.5378545878902156 0.8430376280365228 -3.052702395597578e-14
  outer loop
    vertex -12.281542188204789 6.479223388402327 5.0000000000003615
    vertex -12.461901741243677 6.364154724980164 2.740105031762141e-13
    vertex -12.46190174124356 6.364154724980383 4.999999999999307
  endloop
endfacet
facet normal -1.7208456881689922e-15 -1.0 -2.3410678621632282e-14
  outer loop
    vertex 4.14524646356713 5.1528679136287705 4.999999999999715
    vertex -0.8547535364326894 5.15286791362869 7.484052491209215
    vertex -0.8547535364328829 5.152867913628828 4.999999999999088
  endloop
endfacet
facet normal -1.7208456881689922e-15 -1.0 -2.3410678621632282e-14
  outer loop
    vertex -0.8547535364326894 5.15286791362869 7.484052491209215
    vertex 4.14524646356713 5.1528679136287705 4.999999999999715
    vertex 4.145246463567248 5.1528679136287705 7.484052491208181
  endloop
endfacet
facet normal -2.0594770091052702e-13 1.0970624141556865e-13 -1.0
  outer loop
    vertex 14.57981581850745 4.91737241717986 2.999999999999482
    vertex 13.50787964932551 1.6392549038614022 2.9999999999993405
    vertex 12.287667139020046 1.6392549038615583 2.999999999999502
  endloop
endfacet
facet normal -2.0594770091052702e-13 1.0970624141556865e-13 -1.0
  outer loop
    vertex 13.50787964932551 1.6392549038614022 2.9999999999993405
    vertex 14.57981581850745 4.91737241717986 2.999999999999482
    vertex 15.800028328811564 4.917372417179693 2.9999999999991327
  endloop
endfacet
facet normal 0.5378545878914757 -0.8430376280357187 3.108213546828846e-14
  outer loop
    vertex 12.461901741243883 0.19208030165651646 -4.941032472061124e-13
    vertex 12.281542188205158 0.07701163823487295 4.999999999999365
    vertex 12.281542188204817 0.07701163823483252 -6.009461372968871e-13
  endloop
endfacet
facet normal 0.5378545878914757 -0.8430376280357187 3.108213546828846e-14
  outer loop
    vertex 12.281542188205158 0.07701163823487295 4.999999999999365
    vertex 12.461901741243883 0.19208030165651646 -4.941032472061124e-13
    vertex 12.46190174124357 0.192080301657042 5.000000000000024
  endloop
endfacet
facet normal 0.6751048066114329 0.7377218311058308 -4.6720285013398494e-14
  outer loop
    vertex 15.842549142824343 6.408334050252391 -8.261825001909529e-13
    vertex 16.000377423912916 6.263902061541796 4.999999999998909
    vertex 16.00037742391283 6.263902061541572 -9.763400754536632e-13
  endloop
endfacet
facet normal 0.6751048066114329 0.7377218311058308 -4.6720285013398494e-14
  outer loop
    vertex 16.000377423912916 6.263902061541796 4.999999999998909
    vertex 15.842549142824343 6.408334050252391 -8.261825001909529e-13
    vertex 15.842549142824303 6.408334050252714 4.999999999999493
  endloop
endfacet
facet normal 0.8873145506720489 -0.46116470828290834 1.3204414169234037e-13
  outer loop
    vertex 16.044556749184622 5.2670848527224265 -6.298225940781777e-13
    vertex 16.143218372221273 5.456917014944841 4.999999999999859
    vertex 16.04455674918528 5.267084852722247 4.999999999998767
  endloop
endfacet
facet normal 0.8873145506720489 -0.46116470828290834 1.3204414169234037e-13
  outer loop
    vertex 16.143218372221273 5.456917014944841 4.999999999999859
    vertex 16.044556749184622 5.2670848527224265 -6.298225940781777e-13
    vertex 16.143218372222712 5.456917014943628 -1.1784752729226966e-12
  endloop
endfacet
facet normal -1.942890293094024e-15 1.0 -4.797666186176528e-14
  outer loop
    vertex -11.86347349300175 6.556235026637398 4.99999999999957
    vertex 15.444084389212167 6.556235026637069 1.9897683500857965e-14
    vertex -11.863473493001713 6.556235026637075 1.1234746466470823e-14
  endloop
endfacet
facet normal -1.942890293094024e-15 1.0 -4.797666186176528e-14
  outer loop
    vertex 15.444084389212167 6.556235026637069 1.9897683500857965e-14
    vertex -11.86347349300175 6.556235026637398 4.99999999999957
    vertex 15.444084389212513 6.556235026637121 4.999999999999415
  endloop
endfacet
facet normal 1.8252066524837574e-13 1.0 1.8464281737282066e-13
  outer loop
    vertex -15.800029676168514 1.638860682534648 2.9999999999993663
    vertex -14.579817165863895 1.638860682535058 1.0000000000002054
    vertex -15.800029676168128 1.6388606825353929 0.9999999999998358
  endloop
endfacet
facet normal 1.8252066524837574e-13 1.0 1.8464281737282066e-13
  outer loop
    vertex -14.579817165863895 1.638860682535058 1.0000000000002054
    vertex -15.800029676168514 1.638860682534648 2.9999999999993663
    vertex -14.579817165863393 1.6388606825346652 2.999999999999202
  endloop
endfacet
facet normal 3.6989809945613797e-13 -4.852726634668588e-13 1.0
  outer loop
    vertex 13.50787964932473 1.6392549038607496 0.9999999999991023
    vertex 14.579815818507445 4.917372417179744 1.0000000000003786
    vertex 12.287667139020543 1.6392549038610962 0.9999999999995065
  endloop
endfacet
facet normal 3.6989809945613797e-13 -4.852726634668588e-13 1.0
  outer loop
    vertex 14.579815818507445 4.917372417179744 1.0000000000003786
    vertex 13.50787964932473 1.6392549038607496 0.9999999999991023
    vertex 15.800028328810956 4.917372417179456 0.9999999999998243
  endloop
endfacet
facet normal 4.1078251911130784e-15 1.0 -4.57007046612837e-14
  outer loop
    vertex -15.026525883260122 1.0000000000003535 7.129326462518293e-13
    vertex 11.834264822852251 0.99999999999988 3.9999999999996794
    vertex 11.834264822852044 0.9999999999997761 1.6716761308543937e-13
  endloop
endfacet
facet normal 4.1078251911130784e-15 1.0 -4.57007046612837e-14
  outer loop
    vertex 11.834264822852251 0.99999999999988 3.9999999999996794
    vertex -15.026525883260122 1.0000000000003535 7.129326462518293e-13
    vertex -15.026525883259804 1.0000000000003708 3.9999999999998757
  endloop
endfacet
facet normal 0.05851874187932038 -0.9982863100578219 4.650852551317427e-14
  outer loop
    vertex 12.077546276318353 0.012544331732331413 4.999999999999521
    vertex 11.863549286036875 -3.256976688348345e-13 -7.222272557783071e-13
    vertex 12.077546276318179 0.012544331732169704 -8.666095396847595e-13
  endloop
endfacet
facet normal 0.05851874187932038 -0.9982863100578219 4.650852551317427e-14
  outer loop
    vertex 11.863549286036875 -3.256976688348345e-13 -7.222272557783071e-13
    vertex 12.077546276318353 0.012544331732331413 4.999999999999521
    vertex 11.863549286036713 1.0167389152826444e-13 4.9999999999996545
  endloop
endfacet
facet normal -0.05849809407678658 0.9982875202011611 -4.695261365523629e-14
  outer loop
    vertex -12.077546276318058 6.543690694904955 5.000000000000082
    vertex -11.863473493001713 6.556235026637075 1.1234746466470823e-14
    vertex -12.077546276318127 6.543690694904712 -2.7464217566830486e-13
  endloop
endfacet
facet normal -0.05849809407678658 0.9982875202011611 -4.695261365523629e-14
  outer loop
    vertex -11.863473493001713 6.556235026637075 1.1234746466470823e-14
    vertex -12.077546276318058 6.543690694904955 5.000000000000082
    vertex -11.86347349300175 6.556235026637398 4.99999999999957
  endloop
endfacet
facet normal 3.336220188998595e-14 1.0 6.543262010369445e-14
  outer loop
    vertex -2.803079913996859 2.3664680273078136 7.484052491207601
    vertex 2.196920086002997 2.3664680273079752 4.999999999999625
    vertex -2.8030799139970064 2.366468027308079 4.999999999999088
  endloop
endfacet
facet normal 3.336220188998595e-14 1.0 6.543262010369445e-14
  outer loop
    vertex 2.196920086002997 2.3664680273079752 4.999999999999625
    vertex -2.803079913996859 2.3664680273078136 7.484052491207601
    vertex 2.196920086003208 2.366468027307629 7.4840524912073985
  endloop
endfacet
facet normal 0.7377218311058021 -0.6751048066114641 1.97233457739182e-14
  outer loop
    vertex 12.60633372995468 0.3499085827445862 -3.43945671943402e-13
    vertex 12.46190174124357 0.192080301657042 5.000000000000024
    vertex 12.461901741243883 0.19208030165651646 -4.941032472061124e-13
  endloop
endfacet
facet normal 0.7377218311058021 -0.6751048066114641 1.97233457739182e-14
  outer loop
    vertex 12.46190174124357 0.192080301657042 5.000000000000024
    vertex 12.60633372995468 0.3499085827445862 -3.43945671943402e-13
    vertex 12.606333729954875 0.3499085827447306 4.999999999999195
  endloop
endfacet
facet normal -3.391731340229853e-14 -1.0 -7.323193685168619e-14
  outer loop
    vertex 1.3373643311952919 1.1371739598135555 4.999999999999524
    vertex -3.6626356688044432 1.1371739598133073 7.484052491207636
    vertex -3.66263566880453 1.1371739598135382 4.999999999999045
  endloop
endfacet
facet normal -3.391731340229853e-14 -1.0 -7.323193685168619e-14
  outer loop
    vertex -3.6626356688044432 1.1371739598133073 7.484052491207636
    vertex 1.3373643311952919 1.1371739598135555 4.999999999999524
    vertex 1.3373643311957222 1.137173959813059 7.4840524912073665
  endloop
endfacet
facet normal -1.8074430840897543e-13 -1.0 8.577975585025183e-14
  outer loop
    vertex 15.800028328811564 4.917372417179693 2.9999999999991327
    vertex 14.579815818507445 4.917372417179744 1.0000000000003786
    vertex 15.800028328810956 4.917372417179456 0.9999999999998243
  endloop
endfacet
facet normal -1.8074430840897543e-13 -1.0 8.577975585025183e-14
  outer loop
    vertex 14.579815818507445 4.917372417179744 1.0000000000003786
    vertex 15.800028328811564 4.917372417179693 2.9999999999991327
    vertex 14.57981581850745 4.91737241717986 2.999999999999482
  endloop
endfacet
facet normal 0.9990192961709665 0.04427692263546056 -8.843408549100091e-14
  outer loop
    vertex 16.186239533130156 5.736810045664433 -8.406207285815981e-13
    vertex 16.189386003020168 5.6658163101578145 4.999999999999172
    vertex 16.189386003020328 5.6658163101570755 -1.1582617531757933e-12
  endloop
endfacet
facet normal 0.9990192961709665 0.04427692263546056 -8.843408549100091e-14
  outer loop
    vertex 16.189386003020168 5.6658163101578145 4.999999999999172
    vertex 16.186239533130156 5.736810045664433 -8.406207285815981e-13
    vertex 16.17991339383701 5.8795465966160005 4.99999999999923
  endloop
endfacet
facet normal 0.9990192961709665 0.04427692263546056 -8.843408549100091e-14
  outer loop
    vertex 16.17991339383701 5.8795465966160005 4.99999999999923
    vertex 16.186239533130156 5.736810045664433 -8.406207285815981e-13
    vertex 16.179913393837193 5.879546596615573 -1.0456435717287604e-12
  endloop
endfacet
facet normal 0.22969936305586253 0.9732616311207029 -5.02157280114131e-14
  outer loop
    vertex 15.444084389212167 6.556235026637069 1.9897683500857965e-14
    vertex 15.652716980602547 6.506995673288829 4.999999999998551
    vertex 15.652716980602495 6.506995673288575 -9.388006816379857e-13
  endloop
endfacet
facet normal 0.22969936305586253 0.9732616311207029 -5.02157280114131e-14
  outer loop
    vertex 15.652716980602547 6.506995673288829 4.999999999998551
    vertex 15.444084389212167 6.556235026637069 1.9897683500857965e-14
    vertex 15.444084389212513 6.556235026637121 4.999999999999415
  endloop
endfacet
facet normal 3.064770659477744e-13 -1.0 1.4953431303935146e-13
  outer loop
    vertex -12.287668486376598 4.9169781958534005 1.0000000000002516
    vertex -13.507880996681333 4.9169781958531 2.9999999999994675
    vertex -13.50788099668187 4.916978195852569 0.9999999999998358
  endloop
endfacet
facet normal 3.064770659477744e-13 -1.0 1.4953431303935146e-13
  outer loop
    vertex -13.507880996681333 4.9169781958531 2.9999999999994675
    vertex -12.287668486376598 4.9169781958534005 1.0000000000002516
    vertex -12.287668486376282 4.91697819585314 2.999999999999762
  endloop
endfacet
facet normal 1.3877787807814453e-15 -1.0 4.872606240338725e-14
  outer loop
    vertex 15.02652588325998 5.556235026637054 3.999999999999131
    vertex -11.834199380299603 5.556235026636927 1.412239214459987e-14
    vertex 15.026525883260037 5.556235026636777 -4.883279558498543e-13
  endloop
endfacet
facet normal 1.3877787807814453e-15 -1.0 4.872606240338725e-14
  outer loop
    vertex -11.834199380299603 5.556235026636927 1.412239214459987e-14
    vertex 15.02652588325998 5.556235026637054 3.999999999999131
    vertex -11.834199380299534 5.556235026637112 4.000000000000341
  endloop
endfacet
facet normal 0.461164708279722 0.8873145506737051 -5.026605979829509e-14
  outer loop
    vertex 15.652716980602547 6.506995673288829 4.999999999998551
    vertex 15.842549142824343 6.408334050252391 -8.261825001909529e-13
    vertex 15.652716980602495 6.506995673288575 -9.388006816379857e-13
  endloop
endfacet
facet normal 0.461164708279722 0.8873145506737051 -5.026605979829509e-14
  outer loop
    vertex 15.842549142824343 6.408334050252391 -8.261825001909529e-13
    vertex 15.652716980602547 6.506995673288829 4.999999999998551
    vertex 15.842549142824303 6.408334050252714 4.999999999999493
  endloop
endfacet
facet normal -8.481200597207209e-14 1.2980657260875835e-13 -1.0
  outer loop
    vertex -13.507880996681333 4.9169781958531 2.9999999999994675
    vertex -14.579817165863393 1.6388606825346652 2.999999999999202
    vertex -15.800029676168514 1.638860682534648 2.9999999999993663
  endloop
endfacet
facet normal -8.481200597207209e-14 1.2980657260875835e-13 -1.0
  outer loop
    vertex -14.579817165863393 1.6388606825346652 2.999999999999202
    vertex -13.507880996681333 4.9169781958531 2.9999999999994675
    vertex -12.287668486376282 4.91697819585314 2.999999999999762
  endloop
endfacet
facet normal 0.8195293783296554 -0.5730371698717357 -8.248957072964912e-14
  outer loop
    vertex 1.3373643311952919 1.1371739598135555 4.999999999999524
    vertex 2.196920086003208 2.366468027307629 7.4840524912073985
    vertex 1.3373643311957222 1.137173959813059 7.4840524912073665
  endloop
endfacet
facet normal 0.8195293783296554 -0.5730371698717357 -8.248957072964912e-14
  outer loop
    vertex 2.196920086003208 2.366468027307629 7.4840524912073985
    vertex 1.3373643311952919 1.1371739598135555 4.999999999999524
    vertex 2.196920086002997 2.3664680273079752 4.999999999999625
  endloop
endfacet
facet normal 0.8195293783295791 -0.5730371698718448 -4.235500838944972e-14
  outer loop
    vertex 5.004802218374875 6.382161981123161 4.999999999999637
    vertex 4.145246463567248 5.1528679136287705 7.484052491208181
    vertex 4.14524646356713 5.1528679136287705 4.999999999999715
  endloop
endfacet
facet normal 0.8195293783295791 -0.5730371698718448 -4.235500838944972e-14
  outer loop
    vertex 4.145246463567248 5.1528679136287705 7.484052491208181
    vertex 5.004802218374875 6.382161981123161 4.999999999999637
    vertex 5.0048022183752705 6.38216198112297 7.484052491207523
  endloop
endfacet
endsolid working_stargate_mk2_rail_r_2
Working Stargate Mk2
www.glitch.org.uk