solid working_stargate_mk2_ring_2
facet normal -0.9401031064978002 -0.3408902303574949 1.7964080033782455e-15
  outer loop
    vertex -71.46415356265925 -9.564537472092596 2.000000000000105
    vertex -70.44153271511351 -12.384709333688825 9.023892744153272e-14
    vertex -70.44153271511351 -12.384709333688871 1.9999999999994045
  endloop
endfacet
facet normal -0.9401031064978002 -0.3408902303574949 1.7964080033782455e-15
  outer loop
    vertex -70.44153271511351 -12.384709333688825 9.023892744153272e-14
    vertex -71.46415356265925 -9.564537472092596 2.000000000000105
    vertex -71.46415356265925 -9.56453747209278 4.208743575873086e-13
  endloop
endfacet
facet normal 5.36113637567806e-15 2.3578437492347093e-15 1.0
  outer loop
    vertex -70.44153271511351 -12.384709333688871 1.9999999999994045
    vertex -68.7088277637793 -8.57629922072712 2.0000000000002265
    vertex -71.46415356265925 -9.564537472092596 2.000000000000105
  endloop
endfacet
facet normal 5.36113637567806e-15 2.3578437492347093e-15 1.0
  outer loop
    vertex -68.7088277637793 -8.57629922072712 2.0000000000002265
    vertex -70.44153271511351 -12.384709333688871 1.9999999999994045
    vertex -67.72563442587511 -11.410612340391424 1.9999999999998044
  endloop
endfacet
facet normal 5.36113637567806e-15 2.3578437492347093e-15 1.0
  outer loop
    vertex -68.7088277637793 -8.57629922072712 2.0000000000002265
    vertex -67.72563442587511 -11.410612340391424 1.9999999999998044
    vertex -64.54566752925535 -7.180810397961552 2.0000000000002007
  endloop
endfacet
facet normal 5.36113637567806e-15 2.3578437492347093e-15 1.0
  outer loop
    vertex -64.54566752925535 -7.180810397961552 2.0000000000002007
    vertex -67.72563442587511 -11.410612340391424 1.9999999999998044
    vertex -63.62204719733076 -10.035092353630382 1.9999999999997091
  endloop
endfacet
facet normal 5.36113637567806e-15 2.3578437492347093e-15 1.0
  outer loop
    vertex -64.54566752925535 -7.180810397961552 2.0000000000002007
    vertex -63.62204719733076 -10.035092353630382 1.9999999999997091
    vertex -60.35419543169882 -5.872814278628842 2.00000000000029
  endloop
endfacet
facet normal 5.36113637567806e-15 2.3578437492347093e-15 1.0
  outer loop
    vertex -60.35419543169882 -5.872814278628842 2.00000000000029
    vertex -63.62204719733076 -10.035092353630382 1.9999999999997091
    vertex -59.49055323615747 -8.745813087901274 1.999999999999637
  endloop
endfacet
facet normal 5.36113637567806e-15 2.3578437492347093e-15 1.0
  outer loop
    vertex -60.35419543169882 -5.872814278628842 2.00000000000029
    vertex -59.49055323615747 -8.745813087901274 1.999999999999637
    vertex -56.13624998930128 -4.652884593056211 2.0000000000001465
  endloop
endfacet
facet normal 5.36113637567806e-15 2.3578437492347093e-15 1.0
  outer loop
    vertex -56.13624998930128 -4.652884593056211 2.0000000000001465
    vertex -59.49055323615747 -8.745813087901274 1.999999999999637
    vertex -55.332964752153664 -7.543340063700497 1.9999999999995863
  endloop
endfacet
facet normal 5.36113637567806e-15 2.3578437492347093e-15 1.0
  outer loop
    vertex -56.13624998930128 -4.652884593056211 2.0000000000001465
    vertex -55.332964752153664 -7.543340063700497 1.9999999999995863
    vertex -51.893681332338026 -3.5215564427227752 2.000000000000049
  endloop
endfacet
facet normal 5.36113637567806e-15 2.3578437492347093e-15 1.0
  outer loop
    vertex -51.893681332338026 -3.5215564427227752 2.000000000000049
    vertex -55.332964752153664 -7.543340063700497 1.9999999999995863
    vertex -51.15110540103768 -6.428200725439833 1.9999999999996514
  endloop
endfacet
facet normal 5.36113637567806e-15 2.3578437492347093e-15 1.0
  outer loop
    vertex -51.893681332338026 -3.5215564427227752 2.000000000000049
    vertex -51.15110540103768 -6.428200725439833 1.9999999999996514
    vertex -47.62835039164015 -2.4793260655463474 1.9999999999999503
  endloop
endfacet
facet normal 5.36113637567806e-15 2.3578437492347093e-15 1.0
  outer loop
    vertex -47.62835039164015 -2.4793260655463474 1.9999999999999503
    vertex -51.15110540103768 -6.428200725439833 1.9999999999996514
    vertex -46.94680948453267 -5.400884210088039 1.9999999999995979
  endloop
endfacet
facet normal 5.36113637567806e-15 2.3578437492347093e-15 1.0
  outer loop
    vertex -47.62835039164015 -2.4793260655463474 1.9999999999999503
    vertex -46.94680948453267 -5.400884210088039 1.9999999999995979
    vertex -43.34212808232889 -1.5266506182160322 1.9999999999999436
  endloop
endfacet
facet normal 5.36113637567806e-15 2.3578437492347093e-15 1.0
  outer loop
    vertex -43.34212808232889 -1.5266506182160322 1.9999999999999436
    vertex -46.94680948453267 -5.400884210088039 1.9999999999995979
    vertex -42.72192114578158 -4.461841132622151 1.9999999999994766
  endloop
endfacet
facet normal 5.36113637567806e-15 2.3578437492347093e-15 1.0
  outer loop
    vertex -43.34212808232889 -1.5266506182160322 1.9999999999999436
    vertex -42.72192114578158 -4.461841132622151 1.9999999999994766
    vertex -39.036894483169974 -0.6639479756695349 1.999999999999982
  endloop
endfacet
facet normal 5.36113637567806e-15 2.3578437492347093e-15 1.0
  outer loop
    vertex -39.036894483169974 -0.6639479756695349 1.999999999999982
    vertex -42.72192114578158 -4.461841132622151 1.9999999999994766
    vertex -38.478293560443255 -3.6114833883709534 1.9999999999994462
  endloop
endfacet
facet normal 5.36113637567806e-15 2.3578437492347093e-15 1.0
  outer loop
    vertex -39.036894483169974 -0.6639479756695349 1.999999999999982
    vertex -38.478293560443255 -3.6114833883709534 1.9999999999994462
    vertex -34.71453801190924 0.10840345220146337 1.9999999999997884
  endloop
endfacet
facet normal 5.36113637567806e-15 2.3578437492347093e-15 1.0
  outer loop
    vertex -34.71453801190924 0.10840345220146337 1.9999999999997884
    vertex -38.478293560443255 -3.6114833883709534 1.9999999999994462
    vertex -34.21778812383004 -2.850183972345756 1.9999999999994613
  endloop
endfacet
facet normal 5.36113637567806e-15 2.3578437492347093e-15 1.0
  outer loop
    vertex -34.71453801190924 0.10840345220146337 1.9999999999997884
    vertex -34.21778812383004 -2.850183972345756 1.9999999999994613
    vertex -30.37695459695043 0.7900648865349816 2.000000000000125
  endloop
endfacet
facet normal 5.36113637567806e-15 2.3578437492347093e-15 1.0
  outer loop
    vertex -30.37695459695043 0.7900648865349816 2.000000000000125
    vertex -34.21778812383004 -2.850183972345756 1.9999999999994613
    vertex -29.94227363443678 -2.178276815632671 1.999999999999637
  endloop
endfacet
facet normal 5.36113637567806e-15 2.3578437492347093e-15 1.0
  outer loop
    vertex -30.37695459695043 0.7900648865349816 2.000000000000125
    vertex -29.94227363443678 -2.178276815632671 1.999999999999637
    vertex -26.02604684573752 1.3807373280955995 1.9999999999999067
  endloop
endfacet
facet normal 5.36113637567806e-15 2.3578437492347093e-15 1.0
  outer loop
    vertex -26.02604684573752 1.3807373280955995 1.9999999999999067
    vertex -29.94227363443678 -2.178276815632671 1.999999999999637
    vertex -25.653625474226047 -1.5960566389167186 1.999999999999419
  endloop
endfacet
facet normal 5.36113637567806e-15 2.3578437492347093e-15 1.0
  outer loop
    vertex -26.02604684573752 1.3807373280955995 1.9999999999999067
    vertex -25.653625474226047 -1.5960566389167186 1.999999999999419
    vertex -21.66372321020914 1.8801616884294297 2.000000000000103
  endloop
endfacet
facet normal 5.36113637567806e-15 2.3578437492347093e-15 1.0
  outer loop
    vertex -21.66372321020914 1.8801616884294297 2.000000000000103
    vertex -25.653625474226047 -1.5960566389167186 1.999999999999419
    vertex -21.353724786022212 -1.1037788232097372 1.9999999999995934
  endloop
endfacet
facet normal 5.36113637567806e-15 2.3578437492347093e-15 1.0
  outer loop
    vertex -21.66372321020914 1.8801616884294297 2.000000000000103
    vertex -21.353724786022212 -1.1037788232097372 1.9999999999995934
    vertex -17.29189714968809 2.2881189035056346 1.9999999999998823
  endloop
endfacet
facet normal 5.36113637567806e-15 2.3578437492347093e-15 1.0
  outer loop
    vertex -17.29189714968809 2.2881189035056346 1.9999999999998823
    vertex -21.353724786022212 -1.1037788232097372 1.9999999999995934
    vertex -17.044457648380206 -0.7016592978315391 1.9999999999994202
  endloop
endfacet
facet normal 5.36113637567806e-15 2.3578437492347093e-15 1.0
  outer loop
    vertex -17.29189714968809 2.2881189035056346 1.9999999999998823
    vertex -17.044457648380206 -0.7016592978315391 1.9999999999994202
    vertex -12.912486291574716 2.6044300298067413 1.9999999999998939
  endloop
endfacet
facet normal 5.36113637567806e-15 2.3578437492347093e-15 1.0
  outer loop
    vertex -12.912486291574716 2.6044300298067413 1.9999999999998939
    vertex -17.044457648380206 -0.7016592978315391 1.9999999999994202
    vertex -12.727714248288786 -0.3898744456968412 1.999999999999385
  endloop
endfacet
facet normal 5.36113637567806e-15 2.3578437492347093e-15 1.0
  outer loop
    vertex -12.912486291574716 2.6044300298067413 1.9999999999998939
    vertex -12.727714248288786 -0.3898744456968412 1.999999999999385
    vertex -8.527411590211996 2.8289563228178984 1.999999999999696
  endloop
endfacet
facet normal 5.36113637567806e-15 2.3578437492347093e-15 1.0
  outer loop
    vertex -8.527411590211996 2.8289563228178984 1.999999999999696
    vertex -12.727714248288786 -0.3898744456968412 1.999999999999385
    vertex -8.405388052073281 -0.16856102594558142 1.9999999999994642
  endloop
endfacet
facet normal 5.36113637567806e-15 2.3578437492347093e-15 1.0
  outer loop
    vertex -8.527411590211996 2.8289563228178984 1.999999999999696
    vertex -8.405388052073281 -0.16856102594558142 1.9999999999994642
    vertex -4.138596484292588 2.9615992978878696 1.9999999999998432
  endloop
endfacet
facet normal 5.36113637567806e-15 2.3578437492347093e-15 1.0
  outer loop
    vertex -4.138596484292588 2.9615992978878696 1.9999999999998432
    vertex -8.405388052073281 -0.16856102594558142 1.9999999999994642
    vertex -4.079374974857353 -0.037816113958802085 1.9999999999992657
  endloop
endfacet
facet normal 5.36113637567806e-15 2.3578437492347093e-15 1.0
  outer loop
    vertex -4.138596484292588 2.9615992978878696 1.9999999999998432
    vertex -4.079374974857353 -0.037816113958802085 1.9999999999992657
    vertex 0.25203394682717517 3.00230077342188 1.9999999999997595
  endloop
endfacet
facet normal 5.36113637567806e-15 2.3578437492347093e-15 1.0
  outer loop
    vertex 0.25203394682717517 3.00230077342188 1.9999999999997595
    vertex -4.079374974857353 -0.037816113958802085 1.9999999999992657
    vertex 0.2484274510469815 0.0023029412245599815 1.9999999999992744
  endloop
endfacet
facet normal 5.36113637567806e-15 2.3578437492347093e-15 1.0
  outer loop
    vertex 0.25203394682717517 3.00230077342188 1.9999999999997595
    vertex 0.2484274510469815 0.0023029412245599815 1.9999999999992744
    vertex 4.576120908460621 -0.04822145793940799 1.9999999999992362
  endloop
endfacet
facet normal 5.36113637567806e-15 2.3578437492347093e-15 1.0
  outer loop
    vertex 0.25203394682717517 3.00230077342188 1.9999999999997595
    vertex 4.576120908460621 -0.04822145793940799 1.9999999999992362
    vertex 4.642553827527847 2.951042896408915 1.9999999999996745
  endloop
endfacet
facet normal 5.36113637567806e-15 2.3578437492347093e-15 1.0
  outer loop
    vertex 4.642553827527847 2.951042896408915 1.9999999999996745
    vertex 4.576120908460621 -0.04822145793940799 1.9999999999992362
    vertex 8.901807128001838 -0.18936714977941627 1.9999999999991749
  endloop
endfacet
facet normal 5.36113637567806e-15 2.3578437492347093e-15 1.0
  outer loop
    vertex 4.642553827527847 2.951042896408915 1.9999999999996745
    vertex 8.901807128001838 -0.18936714977941627 1.9999999999991749
    vertex 9.031037330682048 2.807848150247237 1.9999999999996585
  endloop
endfacet
facet normal 5.36113637567806e-15 2.3578437492347093e-15 1.0
  outer loop
    vertex 9.031037330682048 2.807848150247237 1.9999999999996585
    vertex 8.901807128001838 -0.18936714977941627 1.9999999999991749
    vertex 13.22358872072884 -0.4210722231297583 1.999999999999343
  endloop
endfacet
facet normal 5.36113637567806e-15 2.3578437492347093e-15 1.0
  outer loop
    vertex 9.031037330682048 2.807848150247237 1.9999999999996585
    vertex 13.22358872072884 -0.4210722231297583 1.999999999999343
    vertex 13.415559522384257 2.5727793448859213 1.999999999999849
  endloop
endfacet
facet normal 5.36113637567806e-15 2.3578437492347093e-15 1.0
  outer loop
    vertex 13.415559522384257 2.5727793448859213 1.999999999999849
    vertex 13.22358872072884 -0.4210722231297583 1.999999999999343
    vertex 17.539570010399675 -0.7432350444879481 1.9999999999993032
  endloop
endfacet
facet normal 5.36113637567806e-15 2.3578437492347093e-15 1.0
  outer loop
    vertex 13.415559522384257 2.5727793448859213 1.999999999999849
    vertex 17.539570010399675 -0.7432350444879481 1.9999999999993032
    vertex 17.79419720629161 2.2459395892715834 1.999999999999901
  endloop
endfacet
facet normal 5.36113637567806e-15 2.3578437492347093e-15 1.0
  outer loop
    vertex 17.79419720629161 2.2459395892715834 1.999999999999901
    vertex 17.539570010399675 -0.7432350444879481 1.9999999999993032
    vertex 21.847857864975495 -1.1557143025925776 1.9999999999992621
  endloop
endfacet
facet normal 5.36113637567806e-15 2.3578437492347093e-15 1.0
  outer loop
    vertex 17.79419720629161 2.2459395892715834 1.999999999999901
    vertex 21.847857864975495 -1.1557143025925776 1.9999999999992621
    vertex 22.165029767200885 1.8274722461225827 1.9999999999997675
  endloop
endfacet
facet normal 5.36113637567806e-15 2.3578437492347093e-15 1.0
  outer loop
    vertex 22.165029767200885 1.8274722461225827 1.9999999999997675
    vertex 21.847857864975495 -1.1557143025925776 1.9999999999992621
    vertex 26.146562527013796 -1.6583290704088713 1.9999999999991749
  endloop
endfacet
facet normal 5.36113637567806e-15 2.3578437492347093e-15 1.0
  outer loop
    vertex 22.165029767200885 1.8274722461225827 1.9999999999997675
    vertex 26.146562527013796 -1.6583290704088713 1.9999999999991749
    vertex 26.52614001349276 1.3175608690476506 1.9999999999997486
  endloop
endfacet
facet normal 5.36113637567806e-15 2.3578437492347093e-15 1.0
  outer loop
    vertex 26.52614001349276 1.3175608690476506 1.9999999999997486
    vertex 26.146562527013796 -1.6583290704088713 1.9999999999991749
    vertex 30.43379844257524 -2.250858884487197 1.999999999999179
  endloop
endfacet
facet normal 5.36113637567806e-15 2.3578437492347093e-15 1.0
  outer loop
    vertex 26.52614001349276 1.3175608690476506 1.9999999999997486
    vertex 30.43379844257524 -2.250858884487197 1.999999999999179
    vertex 30.87561501807752 0.7164291220284867 1.9999999999997524
  endloop
endfacet
facet normal 5.36113637567806e-15 2.3578437492347093e-15 1.0
  outer loop
    vertex 30.87561501807752 0.7164291220284867 1.9999999999997524
    vertex 30.43379844257524 -2.250858884487197 1.999999999999179
    vertex 34.70768508829312 -2.9330438416679154 1.999999999999206
  endloop
endfacet
facet normal 5.36113637567806e-15 2.3578437492347093e-15 1.0
  outer loop
    vertex 30.87561501807752 0.7164291220284867 1.9999999999997524
    vertex 34.70768508829312 -2.9330438416679154 1.999999999999206
    vertex 35.21154695746694 0.024340681316825794 1.9999999999997091
  endloop
endfacet
facet normal 5.36113637567806e-15 2.3578437492347093e-15 1.0
  outer loop
    vertex 35.21154695746694 0.024340681316825794 1.9999999999997091
    vertex 34.70768508829312 -2.9330438416679154 1.999999999999206
    vertex 38.96634779623186 -3.7045847130834146 1.9999999999991402
  endloop
endfacet
facet normal 5.36113637567806e-15 2.3578437492347093e-15 1.0
  outer loop
    vertex 35.21154695746694 0.024340681316825794 1.9999999999997091
    vertex 38.96634779623186 -3.7045847130834146 1.9999999999991402
    vertex 39.53203394860835 -0.7584008802234875 1.9999999999995732
  endloop
endfacet
facet normal 5.36113637567806e-15 2.3578437492347093e-15 1.0
  outer loop
    vertex 39.53203394860835 -0.7584008802234875 1.9999999999995732
    vertex 38.96634779623186 -3.7045847130834146 1.9999999999991402
    vertex 43.20791857617749 -4.5651430754073825 1.9999999999989813
  endloop
endfacet
facet normal 5.36113637567806e-15 2.3578437492347093e-15 1.0
  outer loop
    vertex 39.53203394860835 -0.7584008802234875 1.9999999999995732
    vertex 43.20791857617749 -4.5651430754073825 1.9999999999989813
    vertex 43.83518088311384 -1.6314522262730948 1.9999999999995293
  endloop
endfacet
facet normal 5.36113637567806e-15 2.3578437492347093e-15 1.0
  outer loop
    vertex 43.83518088311384 -1.6314522262730948 1.9999999999995293
    vertex 43.20791857617749 -4.5651430754073825 1.9999999999989813
    vertex 47.4305369350005 -5.514341459300444 1.9999999999989835
  endloop
endfacet
facet normal 5.36113637567806e-15 2.3578437492347093e-15 1.0
  outer loop
    vertex 43.83518088311384 -1.6314522262730948 1.9999999999995293
    vertex 47.4305369350005 -5.514341459300444 1.9999999999989835
    vertex 48.11910025851783 -2.5944304076573634 1.9999999999994846
  endloop
endfacet
facet normal 5.36113637567806e-15 2.3578437492347093e-15 1.0
  outer loop
    vertex 48.11910025851783 -2.5944304076573634 1.9999999999994846
    vertex 47.4305369350005 -5.514341459300444 1.9999999999989835
    vertex 51.63235069273006 -6.551763514979776 1.999999999998985
  endloop
endfacet
facet normal 5.36113637567806e-15 2.3578437492347093e-15 1.0
  outer loop
    vertex 48.11910025851783 -2.5944304076573634 1.9999999999994846
    vertex 51.63235069273006 -6.551763514979776 1.999999999998985
    vertex 52.38191300619724 -3.646913030319397 1.9999999999994398
  endloop
endfacet
facet normal 5.36113637567806e-15 2.3578437492347093e-15 1.0
  outer loop
    vertex 52.38191300619724 -3.646913030319397 1.9999999999994398
    vertex 51.63235069273006 -6.551763514979776 1.999999999998985
    vertex 55.81151679498023 -7.6769541948439795 1.9999999999988247
  endloop
endfacet
facet normal 5.36113637567806e-15 2.3578437492347093e-15 1.0
  outer loop
    vertex 52.38191300619724 -3.646913030319397 1.9999999999994398
    vertex 55.81151679498023 -7.6769541948439795 1.9999999999988247
    vertex 56.62174931559363 -4.788438440595768 1.9999999999993474
  endloop
endfacet
facet normal 5.36113637567806e-15 2.3578437492347093e-15 1.0
  outer loop
    vertex 56.62174931559363 -4.788438440595768 1.9999999999993474
    vertex 55.81151679498023 -7.6769541948439795 1.9999999999988247
    vertex 59.966202121376504 -8.889419953074453 1.9999999999991027
  endloop
endfacet
facet normal 5.36113637567806e-15 2.3578437492347093e-15 1.0
  outer loop
    vertex 56.62174931559363 -4.788438440595768 1.9999999999993474
    vertex 59.966202121376504 -8.889419953074453 1.9999999999991027
    vertex 60.836749454374015 -6.0185059277139 1.999999999999556
  endloop
endfacet
facet normal 5.36113637567806e-15 2.3578437492347093e-15 1.0
  outer loop
    vertex 60.836749454374015 -6.0185059277139 1.999999999999556
    vertex 59.966202121376504 -8.889419953074453 1.9999999999991027
    vertex 64.09458428962049 -10.18862896211604 1.999999999999034
  endloop
endfacet
facet normal 5.36113637567806e-15 2.3578437492347093e-15 1.0
  outer loop
    vertex 60.836749454374015 -6.0185059277139 1.999999999999556
    vertex 64.09458428962049 -10.18862896211604 1.999999999999034
    vertex 65.02506458417056 -7.336575943420203 1.9999999999994167
  endloop
endfacet
facet normal 5.36113637567806e-15 2.3578437492347093e-15 1.0
  outer loop
    vertex 65.02506458417056 -7.336575943420203 1.9999999999994167
    vertex 64.09458428962049 -10.18862896211604 1.999999999999034
    vertex 68.19485245484962 -11.574011345959116 1.999999999998988
  endloop
endfacet
facet normal 5.36113637567806e-15 2.3578437492347093e-15 1.0
  outer loop
    vertex 65.02506458417056 -7.336575943420203 1.9999999999994167
    vertex 68.19485245484962 -11.574011345959116 1.999999999998988
    vertex 69.18485757154178 -8.742070338642552 1.9999999999995084
  endloop
endfacet
facet normal 5.36113637567806e-15 2.3578437492347093e-15 1.0
  outer loop
    vertex 69.18485757154178 -8.742070338642552 1.9999999999995084
    vertex 68.19485245484962 -11.574011345959116 1.999999999998988
    vertex 70.43818732820506 -12.384709333688733 1.9999999999990774
  endloop
endfacet
facet normal 5.36113637567806e-15 2.3578437492347093e-15 1.0
  outer loop
    vertex 69.18485757154178 -8.742070338642552 1.9999999999995084
    vertex 70.43818732820506 -12.384709333688733 1.9999999999990774
    vertex 71.46758584034505 -9.567004340262832 1.9999999999997595
  endloop
endfacet
facet normal 0.053536436159503833 0.9985658966754971 8.888129788856858e-15
  outer loop
    vertex 9.031037330682048 2.807848150247237 1.9999999999996585
    vertex 13.415559522384303 2.5727793448860137 1.191153842228232e-13
    vertex 9.031037330682002 2.8078481502473296 -7.074731911416165e-14
  endloop
endfacet
facet normal 0.053536436159503833 0.9985658966754971 8.888129788856858e-15
  outer loop
    vertex 13.415559522384303 2.5727793448860137 1.191153842228232e-13
    vertex 9.031037330682048 2.807848150247237 1.9999999999996585
    vertex 13.415559522384257 2.5727793448859213 1.999999999999849
  endloop
endfacet
facet normal 0.11613126566849508 0.9932338743388858 8.471497165704024e-15
  outer loop
    vertex 22.16502976720084 1.827472246122814 6.136247066024225e-14
    vertex 26.52614001349276 1.3175608690476506 1.9999999999997486
    vertex 26.526140013492714 1.3175608690476968 4.2592773752403444e-14
  endloop
endfacet
facet normal 0.11613126566849508 0.9932338743388858 8.471497165704024e-15
  outer loop
    vertex 26.52614001349276 1.3175608690476506 1.9999999999997486
    vertex 22.16502976720084 1.827472246122814 6.136247066024225e-14
    vertex 22.165029767200885 1.8274722461225827 1.9999999999997675
  endloop
endfacet
facet normal 0.2801453361486142 0.9599575983522294 7.330969577410387e-15
  outer loop
    vertex 56.62174931559363 -4.788438440595768 1.9999999999993474
    vertex 60.83674945437397 -6.018505927713807 -1.7325874068774283e-13
    vertex 56.621749315593675 -4.788438440595676 -3.5951188692706633e-13
  endloop
endfacet
facet normal 0.2801453361486142 0.9599575983522294 7.330969577410387e-15
  outer loop
    vertex 60.83674945437397 -6.018505927713807 -1.7325874068774283e-13
    vertex 56.62174931559363 -4.788438440595768 1.9999999999993474
    vertex 60.836749454374015 -6.0185059277139 1.999999999999556
  endloop
endfacet
facet normal 0.2397007491085093 0.9708468215309867 7.644948730300898e-15
  outer loop
    vertex 48.11910025851774 -2.594430407657271 -1.9924755179090425e-13
    vertex 52.38191300619724 -3.646913030319397 1.9999999999994398
    vertex 52.381913006197145 -3.646913030319304 -2.8948647923243696e-13
  endloop
endfacet
facet normal 0.2397007491085093 0.9708468215309867 7.644948730300898e-15
  outer loop
    vertex 52.38191300619724 -3.646913030319397 1.9999999999994398
    vertex 48.11910025851774 -2.594430407657271 -1.9924755179090425e-13
    vertex 48.11910025851783 -2.5944304076573634 1.9999999999994846
  endloop
endfacet
facet normal 0.03261230844510343 0.9994680771980071 8.982828813324012e-15
  outer loop
    vertex 4.642553827527708 2.951042896408961 -9.384848453919403e-15
    vertex 9.031037330682048 2.807848150247237 1.9999999999996585
    vertex 9.031037330682002 2.8078481502473296 -7.074731911416165e-14
  endloop
endfacet
facet normal 0.03261230844510343 0.9994680771980071 8.982828813324012e-15
  outer loop
    vertex 9.031037330682048 2.807848150247237 1.9999999999996585
    vertex 4.642553827527708 2.951042896408961 -9.384848453919403e-15
    vertex 4.642553827527847 2.951042896408915 1.9999999999996745
  endloop
endfacet
facet normal 0.15762171661163282 0.987499566811248 8.222767822467401e-15
  outer loop
    vertex 30.875615018077475 0.7164291220285329 4.548041943053249e-14
    vertex 35.21154695746694 0.024340681316825794 1.9999999999997091
    vertex 35.211546957466894 0.0243406813169182 2.165734258596785e-15
  endloop
endfacet
facet normal 0.15762171661163282 0.987499566811248 8.222767822467401e-15
  outer loop
    vertex 35.21154695746694 0.024340681316825794 1.9999999999997091
    vertex 30.875615018077475 0.7164291220285329 4.548041943053249e-14
    vertex 30.87561501807752 0.7164291220284867 1.9999999999997524
  endloop
endfacet
facet normal -0.030209164316488117 0.9995435990447337 9.272245997282754e-15
  outer loop
    vertex -8.527411590211996 2.8289563228178984 1.999999999999696
    vertex -4.13859648429268 2.9615992978878696 1.133400928665651e-13
    vertex -8.527411590211903 2.828956322817945 -1.0828671292983927e-14
  endloop
endfacet
facet normal -0.030209164316488117 0.9995435990447337 9.272245997282754e-15
  outer loop
    vertex -4.13859648429268 2.9615992978878696 1.133400928665651e-13
    vertex -8.527411590211996 2.8289563228178984 1.999999999999696
    vertex -4.138596484292588 2.9615992978878696 1.9999999999998432
  endloop
endfacet
facet normal -4.882088575256947e-15 -8.788807348978966e-16 -1.0
  outer loop
    vertex -68.7088277637793 -8.576299220726936 5.197762220632285e-13
    vertex -70.44153271511351 -12.384709333688825 9.023892744153272e-14
    vertex -71.46415356265925 -9.56453747209278 4.208743575873086e-13
  endloop
endfacet
facet normal -4.882088575256947e-15 -8.788807348978966e-16 -1.0
  outer loop
    vertex -70.44153271511351 -12.384709333688825 9.023892744153272e-14
    vertex -68.7088277637793 -8.576299220726936 5.197762220632285e-13
    vertex -67.72563442587511 -11.410612340391424 5.140009307069703e-13
  endloop
endfacet
facet normal -4.882088575256947e-15 -8.788807348978966e-16 -1.0
  outer loop
    vertex -67.72563442587511 -11.410612340391424 5.140009307069703e-13
    vertex -68.7088277637793 -8.576299220726936 5.197762220632285e-13
    vertex -64.54566752925535 -7.1808103979614595 4.937874109600671e-13
  endloop
endfacet
facet normal -4.882088575256947e-15 -8.788807348978966e-16 -1.0
  outer loop
    vertex -67.72563442587511 -11.410612340391424 5.140009307069703e-13
    vertex -64.54566752925535 -7.1808103979614595 4.937874109600671e-13
    vertex -63.62204719733076 -10.03509235363029 3.9488554648414716e-13
  endloop
endfacet
facet normal -4.882088575256947e-15 -8.788807348978966e-16 -1.0
  outer loop
    vertex -63.62204719733076 -10.03509235363029 3.9488554648414716e-13
    vertex -64.54566752925535 -7.1808103979614595 4.937874109600671e-13
    vertex -60.35419543169891 -5.872814278628842 5.840263384015998e-13
  endloop
endfacet
facet normal -4.882088575256947e-15 -8.788807348978966e-16 -1.0
  outer loop
    vertex -63.62204719733076 -10.03509235363029 3.9488554648414716e-13
    vertex -60.35419543169891 -5.872814278628842 5.840263384015998e-13
    vertex -59.490553236157375 -8.74581308790132 3.22694404530921e-13
  endloop
endfacet
facet normal -4.882088575256947e-15 -8.788807348978966e-16 -1.0
  outer loop
    vertex -59.490553236157375 -8.74581308790132 3.22694404530921e-13
    vertex -60.35419543169891 -5.872814278628842 5.840263384015998e-13
    vertex -56.13624998930132 -4.652884593056072 4.396440544951474e-13
  endloop
endfacet
facet normal -4.882088575256947e-15 -8.788807348978966e-16 -1.0
  outer loop
    vertex -59.490553236157375 -8.74581308790132 3.22694404530921e-13
    vertex -56.13624998930132 -4.652884593056072 4.396440544951474e-13
    vertex -55.332964752153714 -7.543340063700497 2.952617705886951e-13
  endloop
endfacet
facet normal -4.882088575256947e-15 -8.788807348978966e-16 -1.0
  outer loop
    vertex -55.332964752153714 -7.543340063700497 2.952617705886951e-13
    vertex -56.13624998930132 -4.652884593056072 4.396440544951474e-13
    vertex -51.893681332338076 -3.5215564427225905 3.190848474332597e-13
  endloop
endfacet
facet normal -4.882088575256947e-15 -8.788807348978966e-16 -1.0
  outer loop
    vertex -55.332964752153714 -7.543340063700497 2.952617705886951e-13
    vertex -51.893681332338076 -3.5215564427225905 3.190848474332597e-13
    vertex -51.15110540103768 -6.428200725439833 3.378545443410985e-13
  endloop
endfacet
facet normal -4.882088575256947e-15 -8.788807348978966e-16 -1.0
  outer loop
    vertex -51.15110540103768 -6.428200725439833 3.378545443410985e-13
    vertex -51.893681332338076 -3.5215564427225905 3.190848474332597e-13
    vertex -47.62835039164015 -2.479326065546255 2.2018298295733984e-13
  endloop
endfacet
facet normal -4.882088575256947e-15 -8.788807348978966e-16 -1.0
  outer loop
    vertex -51.15110540103768 -6.428200725439833 3.378545443410985e-13
    vertex -47.62835039164015 -2.479326065546255 2.2018298295733984e-13
    vertex -46.94680948453267 -5.400884210088131 2.8587692213477564e-13
  endloop
endfacet
facet normal -4.882088575256947e-15 -8.788807348978966e-16 -1.0
  outer loop
    vertex -46.94680948453267 -5.400884210088131 2.8587692213477564e-13
    vertex -47.62835039164015 -2.479326065546255 2.2018298295733984e-13
    vertex -43.34212808232894 -1.5266506182159398 2.3750885702611414e-13
  endloop
endfacet
facet normal -4.882088575256947e-15 -8.788807348978966e-16 -1.0
  outer loop
    vertex -46.94680948453267 -5.400884210088131 2.8587692213477564e-13
    vertex -43.34212808232894 -1.5266506182159398 2.3750885702611414e-13
    vertex -42.72192114578149 -4.461841132622151 1.624300693947589e-13
  endloop
endfacet
facet normal -4.882088575256947e-15 -8.788807348978966e-16 -1.0
  outer loop
    vertex -42.72192114578149 -4.461841132622151 1.624300693947589e-13
    vertex -43.34212808232894 -1.5266506182159398 2.3750885702611414e-13
    vertex -39.036894483169974 -0.6639479756694425 2.75770162261324e-13
  endloop
endfacet
facet normal -4.882088575256947e-15 -8.788807348978966e-16 -1.0
  outer loop
    vertex -42.72192114578149 -4.461841132622151 1.624300693947589e-13
    vertex -39.036894483169974 -0.6639479756694425 2.75770162261324e-13
    vertex -38.47829356044316 -3.6114833883709534 1.321097897744039e-13
  endloop
endfacet
facet normal -4.882088575256947e-15 -8.788807348978966e-16 -1.0
  outer loop
    vertex -38.47829356044316 -3.6114833883709534 1.321097897744039e-13
    vertex -39.036894483169974 -0.6639479756694425 2.75770162261324e-13
    vertex -34.71453801190924 0.10840345220164817 8.229790182667784e-14
  endloop
endfacet
facet normal -4.882088575256947e-15 -8.788807348978966e-16 -1.0
  outer loop
    vertex -38.47829356044316 -3.6114833883709534 1.321097897744039e-13
    vertex -34.71453801190924 0.10840345220164817 8.229790182667784e-14
    vertex -34.21778812383004 -2.850183972345756 1.2489067557908128e-13
  endloop
endfacet
facet normal -4.882088575256947e-15 -8.788807348978966e-16 -1.0
  outer loop
    vertex -34.21778812383004 -2.850183972345756 1.2489067557908128e-13
    vertex -34.71453801190924 0.10840345220164817 8.229790182667784e-14
    vertex -30.37695459695043 0.790064886535074 4.1798671190917957e-13
  endloop
endfacet
facet normal -4.882088575256947e-15 -8.788807348978966e-16 -1.0
  outer loop
    vertex -34.21778812383004 -2.850183972345756 1.2489067557908128e-13
    vertex -30.37695459695043 0.790064886535074 4.1798671190917957e-13
    vertex -29.94227363443678 -2.178276815632671 3.22694404530921e-13
  endloop
endfacet
facet normal -4.882088575256947e-15 -8.788807348978966e-16 -1.0
  outer loop
    vertex -29.94227363443678 -2.178276815632671 3.22694404530921e-13
    vertex -30.37695459695043 0.790064886535074 4.1798671190917957e-13
    vertex -26.02604684573752 1.380737328095738 1.9996946321043652e-13
  endloop
endfacet
facet normal -4.882088575256947e-15 -8.788807348978966e-16 -1.0
  outer loop
    vertex -29.94227363443678 -2.178276815632671 3.22694404530921e-13
    vertex -26.02604684573752 1.380737328095738 1.9996946321043652e-13
    vertex -25.65362547422614 -1.5960566389167186 1.2777832125721034e-13
  endloop
endfacet
facet normal -4.882088575256947e-15 -8.788807348978966e-16 -1.0
  outer loop
    vertex -25.65362547422614 -1.5960566389167186 1.2777832125721034e-13
    vertex -26.02604684573752 1.380737328095738 1.9996946321043652e-13
    vertex -21.663723210209188 1.8801616884295682 3.7322820389817935e-13
  endloop
endfacet
facet normal -4.882088575256947e-15 -8.788807348978966e-16 -1.0
  outer loop
    vertex -25.65362547422614 -1.5960566389167186 1.2777832125721034e-13
    vertex -21.663723210209188 1.8801616884295682 3.7322820389817935e-13
    vertex -21.353724786022212 -1.1037788232097372 2.8010163077851757e-13
  endloop
endfacet
facet normal -4.882088575256947e-15 -8.788807348978966e-16 -1.0
  outer loop
    vertex -21.353724786022212 -1.1037788232097372 2.8010163077851757e-13
    vertex -21.663723210209188 1.8801616884295682 3.7322820389817935e-13
    vertex -17.291897149688136 2.2881189035056346 1.5376713236037175e-13
  endloop
endfacet
facet normal -4.882088575256947e-15 -8.788807348978966e-16 -1.0
  outer loop
    vertex -21.353724786022212 -1.1037788232097372 2.8010163077851757e-13
    vertex -17.291897149688136 2.2881189035056346 1.5376713236037175e-13
    vertex -17.044457648380206 -0.7016592978315853 1.2994405551580712e-13
  endloop
endfacet
facet normal -4.882088575256947e-15 -8.788807348978966e-16 -1.0
  outer loop
    vertex -17.044457648380206 -0.7016592978315853 1.2994405551580712e-13
    vertex -17.291897149688136 2.2881189035056346 1.5376713236037175e-13
    vertex -12.912486291574716 2.6044300298067875 1.6387389223382341e-13
  endloop
endfacet
facet normal -4.882088575256947e-15 -8.788807348978966e-16 -1.0
  outer loop
    vertex -17.044457648380206 -0.7016592978315853 1.2994405551580712e-13
    vertex -12.912486291574716 2.6044300298067875 1.6387389223382341e-13
    vertex -12.727714248288647 -0.3898744456968874 9.384848453919403e-14
  endloop
endfacet
facet normal -4.882088575256947e-15 -8.788807348978966e-16 -1.0
  outer loop
    vertex -12.727714248288647 -0.3898744456968874 9.384848453919403e-14
    vertex -12.912486291574716 2.6044300298067875 1.6387389223382341e-13
    vertex -8.527411590211903 2.828956322817945 -1.0828671292983927e-14
  endloop
endfacet
facet normal -4.882088575256947e-15 -8.788807348978966e-16 -1.0
  outer loop
    vertex -12.727714248288647 -0.3898744456968874 9.384848453919403e-14
    vertex -8.527411590211903 2.828956322817945 -1.0828671292983927e-14
    vertex -8.405388052073189 -0.16856102594572003 1.5015757526271045e-13
  endloop
endfacet
facet normal -4.882088575256947e-15 -8.788807348978966e-16 -1.0
  outer loop
    vertex -8.405388052073189 -0.16856102594572003 1.5015757526271045e-13
    vertex -8.527411590211903 2.828956322817945 -1.0828671292983927e-14
    vertex -4.13859648429268 2.9615992978878696 1.133400928665651e-13
  endloop
endfacet
facet normal -4.882088575256947e-15 -8.788807348978966e-16 -1.0
  outer loop
    vertex -8.405388052073189 -0.16856102594572003 1.5015757526271045e-13
    vertex -4.13859648429268 2.9615992978878696 1.133400928665651e-13
    vertex -4.079374974857353 -0.037816113958802085 -2.5266899683629163e-14
  endloop
endfacet
facet normal -4.882088575256947e-15 -8.788807348978966e-16 -1.0
  outer loop
    vertex -4.079374974857353 -0.037816113958802085 -2.5266899683629163e-14
    vertex -4.13859648429268 2.9615992978878696 1.133400928665651e-13
    vertex 0.25203394682708274 3.00230077342188 3.0320279620354994e-14
  endloop
endfacet
facet normal -4.882088575256947e-15 -8.788807348978966e-16 -1.0
  outer loop
    vertex -4.079374974857353 -0.037816113958802085 -2.5266899683629163e-14
    vertex 0.25203394682708274 3.00230077342188 3.0320279620354994e-14
    vertex 0.2484274510469815 0.0023029412245599815 6.497202775790356e-15
  endloop
endfacet
facet normal -4.882088575256947e-15 -8.788807348978966e-16 -1.0
  outer loop
    vertex 0.2484274510469815 0.0023029412245599815 6.497202775790356e-15
    vertex 0.25203394682708274 3.00230077342188 3.0320279620354994e-14
    vertex 4.576120908460667 -0.048221457939500396 -7.796643330948427e-14
  endloop
endfacet
facet normal -4.882088575256947e-15 -8.788807348978966e-16 -1.0
  outer loop
    vertex 4.576120908460667 -0.048221457939500396 -7.796643330948427e-14
    vertex 0.25203394682708274 3.00230077342188 3.0320279620354994e-14
    vertex 4.642553827527708 2.951042896408961 -9.384848453919403e-15
  endloop
endfacet
facet normal -4.882088575256947e-15 -8.788807348978966e-16 -1.0
  outer loop
    vertex 4.576120908460667 -0.048221457939500396 -7.796643330948427e-14
    vertex 4.642553827527708 2.951042896408961 -9.384848453919403e-15
    vertex 8.90180712800193 -0.18936714977946248 -1.3932890396972652e-13
  endloop
endfacet
facet normal -4.882088575256947e-15 -8.788807348978966e-16 -1.0
  outer loop
    vertex 8.90180712800193 -0.18936714977946248 -1.3932890396972652e-13
    vertex 4.642553827527708 2.951042896408961 -9.384848453919403e-15
    vertex 9.031037330682002 2.8078481502473296 -7.074731911416165e-14
  endloop
endfacet
facet normal -4.882088575256947e-15 -8.788807348978966e-16 -1.0
  outer loop
    vertex 8.90180712800193 -0.18936714977946248 -1.3932890396972652e-13
    vertex 9.031037330682002 2.8078481502473296 -7.074731911416165e-14
    vertex 13.223588720728793 -0.42107222312961967 5.197762220632285e-14
  endloop
endfacet
facet normal -4.882088575256947e-15 -8.788807348978966e-16 -1.0
  outer loop
    vertex 13.223588720728793 -0.42107222312961967 5.197762220632285e-14
    vertex 9.031037330682002 2.8078481502473296 -7.074731911416165e-14
    vertex 13.415559522384303 2.5727793448860137 1.191153842228232e-13
  endloop
endfacet
facet normal -4.882088575256947e-15 -8.788807348978966e-16 -1.0
  outer loop
    vertex 13.223588720728793 -0.42107222312961967 5.197762220632285e-14
    vertex 13.415559522384303 2.5727793448860137 1.191153842228232e-13
    vertex 17.53957001039972 -0.7432350444879481 1.2994405551580712e-14
  endloop
endfacet
facet normal -4.882088575256947e-15 -8.788807348978966e-16 -1.0
  outer loop
    vertex 17.53957001039972 -0.7432350444879481 1.2994405551580712e-14
    vertex 13.415559522384303 2.5727793448860137 1.191153842228232e-13
    vertex 17.794197206291518 2.245939589271722 1.941941718541784e-13
  endloop
endfacet
facet normal -4.882088575256947e-15 -8.788807348978966e-16 -1.0
  outer loop
    vertex 17.53957001039972 -0.7432350444879481 1.2994405551580712e-14
    vertex 17.794197206291518 2.245939589271722 1.941941718541784e-13
    vertex 21.84785786497554 -1.1557143025925776 -2.887645678129047e-14
  endloop
endfacet
facet normal -4.882088575256947e-15 -8.788807348978966e-16 -1.0
  outer loop
    vertex 21.84785786497554 -1.1557143025925776 -2.887645678129047e-14
    vertex 17.794197206291518 2.245939589271722 1.941941718541784e-13
    vertex 22.16502976720084 1.827472246122814 6.136247066024225e-14
  endloop
endfacet
facet normal -4.882088575256947e-15 -8.788807348978966e-16 -1.0
  outer loop
    vertex 21.84785786497554 -1.1557143025925776 -2.887645678129047e-14
    vertex 22.16502976720084 1.827472246122814 6.136247066024225e-14
    vertex 26.146562527013934 -1.6583290704089637 -1.3932890396972652e-13
  endloop
endfacet
facet normal -4.882088575256947e-15 -8.788807348978966e-16 -1.0
  outer loop
    vertex 26.146562527013934 -1.6583290704089637 -1.3932890396972652e-13
    vertex 22.16502976720084 1.827472246122814 6.136247066024225e-14
    vertex 26.526140013492714 1.3175608690476968 4.2592773752403444e-14
  endloop
endfacet
facet normal -4.882088575256947e-15 -8.788807348978966e-16 -1.0
  outer loop
    vertex 26.146562527013934 -1.6583290704089637 -1.3932890396972652e-13
    vertex 26.526140013492714 1.3175608690476968 4.2592773752403444e-14
    vertex 30.433798442575288 -2.250858884487243 -1.3499743545253294e-13
  endloop
endfacet
facet normal -4.882088575256947e-15 -8.788807348978966e-16 -1.0
  outer loop
    vertex 30.433798442575288 -2.250858884487243 -1.3499743545253294e-13
    vertex 26.526140013492714 1.3175608690476968 4.2592773752403444e-14
    vertex 30.875615018077475 0.7164291220285329 4.548041943053249e-14
  endloop
endfacet
facet normal -4.882088575256947e-15 -8.788807348978966e-16 -1.0
  outer loop
    vertex 30.433798442575288 -2.250858884487243 -1.3499743545253294e-13
    vertex 30.875615018077475 0.7164291220285329 4.548041943053249e-14
    vertex 34.70768508829312 -2.9330438416679154 -8.518554750480689e-14
  endloop
endfacet
facet normal -4.882088575256947e-15 -8.788807348978966e-16 -1.0
  outer loop
    vertex 34.70768508829312 -2.9330438416679154 -8.518554750480689e-14
    vertex 30.875615018077475 0.7164291220285329 4.548041943053249e-14
    vertex 35.211546957466894 0.0243406813169182 2.165734258596785e-15
  endloop
endfacet
facet normal -4.882088575256947e-15 -8.788807348978966e-16 -1.0
  outer loop
    vertex 34.70768508829312 -2.9330438416679154 -8.518554750480689e-14
    vertex 35.211546957466894 0.0243406813169182 2.165734258596785e-15
    vertex 38.96634779623181 -3.7045847130833685 -1.5087948668224272e-13
  endloop
endfacet
facet normal -4.882088575256947e-15 -8.788807348978966e-16 -1.0
  outer loop
    vertex 38.96634779623181 -3.7045847130833685 -1.5087948668224272e-13
    vertex 35.211546957466894 0.0243406813169182 2.165734258596785e-15
    vertex 39.53203394860844 -0.7584008802233951 -1.3355361261346843e-13
  endloop
endfacet
facet normal -4.882088575256947e-15 -8.788807348978966e-16 -1.0
  outer loop
    vertex 38.96634779623181 -3.7045847130833685 -1.5087948668224272e-13
    vertex 39.53203394860844 -0.7584008802233951 -1.3355361261346843e-13
    vertex 43.20791857617745 -4.565143075407475 -3.096999989793403e-13
  endloop
endfacet
facet normal -4.882088575256947e-15 -8.788807348978966e-16 -1.0
  outer loop
    vertex 43.20791857617745 -4.565143075407475 -3.096999989793403e-13
    vertex 39.53203394860844 -0.7584008802233951 -1.3355361261346843e-13
    vertex 43.835180883113885 -1.63145222627291 -2.0069137462996876e-13
  endloop
endfacet
facet normal -4.882088575256947e-15 -8.788807348978966e-16 -1.0
  outer loop
    vertex 43.20791857617745 -4.565143075407475 -3.096999989793403e-13
    vertex 43.835180883113885 -1.63145222627291 -2.0069137462996876e-13
    vertex 47.4305369350005 -5.514341459300305 -3.3063543014577586e-13
  endloop
endfacet
facet normal -4.882088575256947e-15 -8.788807348978966e-16 -1.0
  outer loop
    vertex 47.4305369350005 -5.514341459300305 -3.3063543014577586e-13
    vertex 43.835180883113885 -1.63145222627291 -2.0069137462996876e-13
    vertex 48.11910025851774 -2.594430407657271 -1.9924755179090425e-13
  endloop
endfacet
facet normal -4.882088575256947e-15 -8.788807348978966e-16 -1.0
  outer loop
    vertex 47.4305369350005 -5.514341459300305 -3.3063543014577586e-13
    vertex 48.11910025851774 -2.594430407657271 -1.9924755179090425e-13
    vertex 51.63235069273006 -6.551763514979776 -3.2919160730671137e-13
  endloop
endfacet
facet normal -4.882088575256947e-15 -8.788807348978966e-16 -1.0
  outer loop
    vertex 51.63235069273006 -6.551763514979776 -3.2919160730671137e-13
    vertex 48.11910025851774 -2.594430407657271 -1.9924755179090425e-13
    vertex 52.381913006197145 -3.646913030319304 -2.8948647923243696e-13
  endloop
endfacet
facet normal -4.882088575256947e-15 -8.788807348978966e-16 -1.0
  outer loop
    vertex 51.63235069273006 -6.551763514979776 -3.2919160730671137e-13
    vertex 52.381913006197145 -3.646913030319304 -2.8948647923243696e-13
    vertex 55.81151679498023 -7.676954194844026 -5.125571078679058e-13
  endloop
endfacet
facet normal -4.882088575256947e-15 -8.788807348978966e-16 -1.0
  outer loop
    vertex 55.81151679498023 -7.676954194844026 -5.125571078679058e-13
    vertex 52.381913006197145 -3.646913030319304 -2.8948647923243696e-13
    vertex 56.621749315593675 -4.788438440595676 -3.5951188692706633e-13
  endloop
endfacet
facet normal -4.882088575256947e-15 -8.788807348978966e-16 -1.0
  outer loop
    vertex 55.81151679498023 -7.676954194844026 -5.125571078679058e-13
    vertex 56.621749315593675 -4.788438440595676 -3.5951188692706633e-13
    vertex 59.966202121376504 -8.8894199530745 -2.115200459229527e-13
  endloop
endfacet
facet normal -4.882088575256947e-15 -8.788807348978966e-16 -1.0
  outer loop
    vertex 59.966202121376504 -8.8894199530745 -2.115200459229527e-13
    vertex 56.621749315593675 -4.788438440595676 -3.5951188692706633e-13
    vertex 60.83674945437397 -6.018505927713807 -1.7325874068774283e-13
  endloop
endfacet
facet normal -4.882088575256947e-15 -8.788807348978966e-16 -1.0
  outer loop
    vertex 59.966202121376504 -8.8894199530745 -2.115200459229527e-13
    vertex 60.83674945437397 -6.018505927713807 -1.7325874068774283e-13
    vertex 64.09458428962053 -10.188628962116132 -2.562785539339529e-13
  endloop
endfacet
facet normal -4.882088575256947e-15 -8.788807348978966e-16 -1.0
  outer loop
    vertex 64.09458428962053 -10.188628962116132 -2.562785539339529e-13
    vertex 60.83674945437397 -6.018505927713807 -1.7325874068774283e-13
    vertex 65.02506458417048 -7.336575943420157 -3.133095560770016e-13
  endloop
endfacet
facet normal -4.882088575256947e-15 -8.788807348978966e-16 -1.0
  outer loop
    vertex 64.09458428962053 -10.188628962116132 -2.562785539339529e-13
    vertex 65.02506458417048 -7.336575943420157 -3.133095560770016e-13
    vertex 68.19485245484962 -11.574011345959116 -3.024808847840177e-13
  endloop
endfacet
facet normal -4.882088575256947e-15 -8.788807348978966e-16 -1.0
  outer loop
    vertex 68.19485245484962 -11.574011345959116 -3.024808847840177e-13
    vertex 65.02506458417048 -7.336575943420157 -3.133095560770016e-13
    vertex 69.18485757154168 -8.742070338642414 -2.2162680579640436e-13
  endloop
endfacet
facet normal -4.882088575256947e-15 -8.788807348978966e-16 -1.0
  outer loop
    vertex 68.19485245484962 -11.574011345959116 -3.024808847840177e-13
    vertex 69.18485757154168 -8.742070338642414 -2.2162680579640436e-13
    vertex 70.43818732820502 -12.384709333688779 -2.1368578018154948e-13
  endloop
endfacet
facet normal -4.882088575256947e-15 -8.788807348978966e-16 -1.0
  outer loop
    vertex 70.43818732820502 -12.384709333688779 -2.1368578018154948e-13
    vertex 69.18485757154168 -8.742070338642414 -2.2162680579640436e-13
    vertex 71.46758584034501 -9.567004340262832 5.2699533625855106e-14
  endloop
endfacet
facet normal 0.3001877307419213 0.9538801425294564 7.169727527396763e-15
  outer loop
    vertex 60.83674945437397 -6.018505927713807 -1.7325874068774283e-13
    vertex 65.02506458417056 -7.336575943420203 1.9999999999994167
    vertex 65.02506458417048 -7.336575943420157 -3.133095560770016e-13
  endloop
endfacet
facet normal 0.3001877307419213 0.9538801425294564 7.169727527396763e-15
  outer loop
    vertex 65.02506458417056 -7.336575943420203 1.9999999999994167
    vertex 60.83674945437397 -6.018505927713807 -1.7325874068774283e-13
    vertex 60.836749454374015 -6.0185059277139 1.999999999999556
  endloop
endfacet
facet normal 0.3200984530751481 0.9473842833501606 7.019638406427919e-15
  outer loop
    vertex 65.02506458417056 -7.336575943420203 1.9999999999994167
    vertex 69.18485757154168 -8.742070338642414 -2.2162680579640436e-13
    vertex 65.02506458417048 -7.336575943420157 -3.133095560770016e-13
  endloop
endfacet
facet normal 0.3200984530751481 0.9473842833501606 7.019638406427919e-15
  outer loop
    vertex 69.18485757154168 -8.742070338642414 -2.2162680579640436e-13
    vertex 65.02506458417056 -7.336575943420203 1.9999999999994167
    vertex 69.18485757154178 -8.742070338642552 1.9999999999995084
  endloop
endfacet
facet normal 0.07443708102375624 0.997225712147788 8.762044400573682e-15
  outer loop
    vertex 13.415559522384257 2.5727793448859213 1.999999999999849
    vertex 17.794197206291518 2.245939589271722 1.941941718541784e-13
    vertex 13.415559522384303 2.5727793448860137 1.191153842228232e-13
  endloop
endfacet
facet normal 0.07443708102375624 0.997225712147788 8.762044400573682e-15
  outer loop
    vertex 17.794197206291518 2.245939589271722 1.941941718541784e-13
    vertex 13.415559522384257 2.5727793448859213 1.999999999999849
    vertex 17.79419720629161 2.2459395892715834 1.999999999999901
  endloop
endfacet
facet normal -0.051135400690218616 0.998691729612422 9.407290503769106e-15
  outer loop
    vertex -12.912486291574716 2.6044300298067875 1.6387389223382341e-13
    vertex -8.527411590211996 2.8289563228178984 1.999999999999696
    vertex -8.527411590211903 2.828956322817945 -1.0828671292983927e-14
  endloop
endfacet
facet normal -0.051135400690218616 0.998691729612422 9.407290503769106e-15
  outer loop
    vertex -8.527411590211996 2.8289563228178984 1.999999999999696
    vertex -12.912486291574716 2.6044300298067875 1.6387389223382341e-13
    vertex -12.912486291574716 2.6044300298067413 1.9999999999998939
  endloop
endfacet
facet normal -0.07203920738755604 0.9974018009804138 9.510635703805446e-15
  outer loop
    vertex -17.29189714968809 2.2881189035056346 1.9999999999998823
    vertex -12.912486291574716 2.6044300298067875 1.6387389223382341e-13
    vertex -17.291897149688136 2.2881189035056346 1.5376713236037175e-13
  endloop
endfacet
facet normal -0.07203920738755604 0.9974018009804138 9.510635703805446e-15
  outer loop
    vertex -12.912486291574716 2.6044300298067875 1.6387389223382341e-13
    vertex -17.29189714968809 2.2881189035056346 1.9999999999998823
    vertex -12.912486291574716 2.6044300298067413 1.9999999999998939
  endloop
endfacet
facet normal 0.09530507532423449 0.9954481114640994 8.63239570382143e-15
  outer loop
    vertex 17.794197206291518 2.245939589271722 1.941941718541784e-13
    vertex 22.165029767200885 1.8274722461225827 1.9999999999997675
    vertex 22.16502976720084 1.827472246122814 6.136247066024225e-14
  endloop
endfacet
facet normal 0.09530507532423449 0.9954481114640994 8.63239570382143e-15
  outer loop
    vertex 22.165029767200885 1.8274722461225827 1.9999999999997675
    vertex 17.794197206291518 2.245939589271722 1.941941718541784e-13
    vertex 17.79419720629161 2.2459395892715834 1.999999999999901
  endloop
endfacet
facet normal 0.011673875894138042 0.9999318579891374 9.073831162445949e-15
  outer loop
    vertex 0.25203394682708274 3.00230077342188 3.0320279620354994e-14
    vertex 4.642553827527847 2.951042896408915 1.9999999999996745
    vertex 4.642553827527708 2.951042896408961 -9.384848453919403e-15
  endloop
endfacet
facet normal 0.011673875894138042 0.9999318579891374 9.073831162445949e-15
  outer loop
    vertex 4.642553827527847 2.951042896408915 1.9999999999996745
    vertex 0.25203394682708274 3.00230077342188 3.0320279620354994e-14
    vertex 0.25203394682717517 3.00230077342188 1.9999999999997595
  endloop
endfacet
facet normal 0.13690651700162987 0.9905839720096841 8.362686088481185e-15
  outer loop
    vertex 26.52614001349276 1.3175608690476506 1.9999999999997486
    vertex 30.875615018077475 0.7164291220285329 4.548041943053249e-14
    vertex 26.526140013492714 1.3175608690476968 4.2592773752403444e-14
  endloop
endfacet
facet normal 0.13690651700162987 0.9905839720096841 8.362686088481185e-15
  outer loop
    vertex 30.875615018077475 0.7164291220285329 4.548041943053249e-14
    vertex 26.52614001349276 1.3175608690476506 1.9999999999997486
    vertex 30.87561501807752 0.7164291220284867 1.9999999999997524
  endloop
endfacet
facet normal 0.9392807770285772 -0.34314956200553753 -3.6978930319101734e-14
  outer loop
    vertex 71.46758584034501 -9.567004340262832 5.2699533625855106e-14
    vertex 70.43818732820506 -12.384709333688733 1.9999999999990774
    vertex 70.43818732820502 -12.384709333688779 -2.1368578018154948e-13
  endloop
endfacet
facet normal 0.9392807770285772 -0.34314956200553753 -3.6978930319101734e-14
  outer loop
    vertex 70.43818732820506 -12.384709333688733 1.9999999999990774
    vertex 71.46758584034501 -9.567004340262832 5.2699533625855106e-14
    vertex 71.46758584034505 -9.567004340262832 1.9999999999997595
  endloop
endfacet
facet normal 0.17826777812732245 0.9839820116656339 8.079571490566805e-15
  outer loop
    vertex 35.211546957466894 0.0243406813169182 2.165734258596785e-15
    vertex 39.53203394860835 -0.7584008802234875 1.9999999999995732
    vertex 39.53203394860844 -0.7584008802233951 -1.3355361261346843e-13
  endloop
endfacet
facet normal 0.17826777812732245 0.9839820116656339 8.079571490566805e-15
  outer loop
    vertex 39.53203394860835 -0.7584008802234875 1.9999999999995732
    vertex 35.211546957466894 0.0243406813169182 2.165734258596785e-15
    vertex 35.21154695746694 0.024340681316825794 1.9999999999997091
  endloop
endfacet
facet normal 0.33986876964744295 0.9404728701128668 4.779250476775884e-14
  outer loop
    vertex 69.18485757154178 -8.742070338642552 1.9999999999995084
    vertex 71.46758584034501 -9.567004340262832 5.2699533625855106e-14
    vertex 69.18485757154168 -8.742070338642414 -2.2162680579640436e-13
  endloop
endfacet
facet normal 0.33986876964744295 0.9404728701128668 4.779250476775884e-14
  outer loop
    vertex 71.46758584034501 -9.567004340262832 5.2699533625855106e-14
    vertex 69.18485757154178 -8.742070338642552 1.9999999999995084
    vertex 71.46758584034505 -9.567004340262832 1.9999999999997595
  endloop
endfacet
facet normal 0.2599800605520383 0.9656139850454522 7.475526080246842e-15
  outer loop
    vertex 52.381913006197145 -3.646913030319304 -2.8948647923243696e-13
    vertex 56.62174931559363 -4.788438440595768 1.9999999999993474
    vertex 56.621749315593675 -4.788438440595676 -3.5951188692706633e-13
  endloop
endfacet
facet normal 0.2599800605520383 0.9656139850454522 7.475526080246842e-15
  outer loop
    vertex 56.62174931559363 -4.788438440595768 1.9999999999993474
    vertex 52.381913006197145 -3.646913030319304 -2.8948647923243696e-13
    vertex 52.38191300619724 -3.646913030319397 1.9999999999994398
  endloop
endfacet
facet normal -0.009269677204400917 0.9999570356192942 9.188828146171545e-15
  outer loop
    vertex -4.13859648429268 2.9615992978878696 1.133400928665651e-13
    vertex 0.25203394682717517 3.00230077342188 1.9999999999997595
    vertex 0.25203394682708274 3.00230077342188 3.0320279620354994e-14
  endloop
endfacet
facet normal -0.009269677204400917 0.9999570356192942 9.188828146171545e-15
  outer loop
    vertex 0.25203394682717517 3.00230077342188 1.9999999999997595
    vertex -4.13859648429268 2.9615992978878696 1.133400928665651e-13
    vertex -4.138596484292588 2.9615992978878696 1.9999999999998432
  endloop
endfacet
facet normal 0.21931629699419486 0.9756538125138211 7.797523762519554e-15
  outer loop
    vertex 43.83518088311384 -1.6314522262730948 1.9999999999995293
    vertex 48.11910025851774 -2.594430407657271 -1.9924755179090425e-13
    vertex 43.835180883113885 -1.63145222627291 -2.0069137462996876e-13
  endloop
endfacet
facet normal 0.21931629699419486 0.9756538125138211 7.797523762519554e-15
  outer loop
    vertex 48.11910025851774 -2.594430407657271 -1.9924755179090425e-13
    vertex 43.83518088311384 -1.6314522262730948 1.9999999999995293
    vertex 48.11910025851783 -2.5944304076573634 1.9999999999994846
  endloop
endfacet
facet normal 0.1988356455035436 0.9800328494888267 7.933172077937861e-15
  outer loop
    vertex 39.53203394860844 -0.7584008802233951 -1.3355361261346843e-13
    vertex 43.83518088311384 -1.6314522262730948 1.9999999999995293
    vertex 43.835180883113885 -1.63145222627291 -2.0069137462996876e-13
  endloop
endfacet
facet normal 0.1988356455035436 0.9800328494888267 7.933172077937861e-15
  outer loop
    vertex 43.83518088311384 -1.6314522262730948 1.9999999999995293
    vertex 39.53203394860844 -0.7584008802233951 -1.3355361261346843e-13
    vertex 39.53203394860835 -0.7584008802234875 1.9999999999995732
  endloop
endfacet
facet normal -0.25998006055197664 -0.9656139850454688 -9.890261158807117e-15
  outer loop
    vertex 55.81151679498023 -7.6769541948439795 1.9999999999988247
    vertex 51.63235069273006 -6.551763514979776 -3.2919160730671137e-13
    vertex 55.81151679498023 -7.676954194844026 -5.125571078679058e-13
  endloop
endfacet
facet normal -0.25998006055197664 -0.9656139850454688 -9.890261158807117e-15
  outer loop
    vertex 51.63235069273006 -6.551763514979776 -3.2919160730671137e-13
    vertex 55.81151679498023 -7.6769541948439795 1.9999999999988247
    vertex 51.63235069273006 -6.551763514979776 1.999999999998985
  endloop
endfacet
facet normal 0.1964787495999547 -0.9805080830649172 -1.2931372335692877e-14
  outer loop
    vertex -38.478293560443255 -3.6114833883709534 1.9999999999994462
    vertex -42.72192114578149 -4.461841132622151 1.624300693947589e-13
    vertex -38.47829356044316 -3.6114833883709534 1.321097897744039e-13
  endloop
endfacet
facet normal 0.1964787495999547 -0.9805080830649172 -1.2931372335692877e-14
  outer loop
    vertex -42.72192114578149 -4.461841132622151 1.624300693947589e-13
    vertex -38.478293560443255 -3.6114833883709534 1.9999999999994462
    vertex -42.72192114578158 -4.461841132622151 1.9999999999994766
  endloop
endfacet
facet normal -0.1964787495999198 0.9805080830649242 9.961525744820411e-15
  outer loop
    vertex -43.34212808232889 -1.5266506182160322 1.9999999999999436
    vertex -39.036894483169974 -0.6639479756694425 2.75770162261324e-13
    vertex -43.34212808232894 -1.5266506182159398 2.3750885702611414e-13
  endloop
endfacet
facet normal -0.1964787495999198 0.9805080830649242 9.961525744820411e-15
  outer loop
    vertex -39.036894483169974 -0.6639479756694425 2.75770162261324e-13
    vertex -43.34212808232889 -1.5266506182160322 1.9999999999999436
    vertex -39.036894483169974 -0.6639479756695349 1.999999999999982
  endloop
endfacet
facet normal 0.00926967720451255 -0.9999570356192932 -1.1936630132119564e-14
  outer loop
    vertex 0.2484274510469815 0.0023029412245599815 6.497202775790356e-15
    vertex -4.079374974857353 -0.037816113958802085 1.9999999999992657
    vertex -4.079374974857353 -0.037816113958802085 -2.5266899683629163e-14
  endloop
endfacet
facet normal 0.00926967720451255 -0.9999570356192932 -1.1936630132119564e-14
  outer loop
    vertex -4.079374974857353 -0.037816113958802085 1.9999999999992657
    vertex 0.2484274510469815 0.0023029412245599815 6.497202775790356e-15
    vertex 0.2484274510469815 0.0023029412245599815 1.9999999999992744
  endloop
endfacet
facet normal 0.3178197045604318 -0.9481511669523588 -1.3227351775024324e-14
  outer loop
    vertex -63.62204719733076 -10.035092353630382 1.9999999999997091
    vertex -67.72563442587511 -11.410612340391424 5.140009307069703e-13
    vertex -63.62204719733076 -10.03509235363029 3.9488554648414716e-13
  endloop
endfacet
facet normal 0.3178197045604318 -0.9481511669523588 -1.3227351775024324e-14
  outer loop
    vertex -67.72563442587511 -11.410612340391424 5.140009307069703e-13
    vertex -63.62204719733076 -10.035092353630382 1.9999999999997091
    vertex -67.72563442587511 -11.410612340391424 1.9999999999998044
  endloop
endfacet
facet normal 0.21696987053780326 -0.9761783009669949 -1.2977845652457527e-14
  outer loop
    vertex -42.72192114578158 -4.461841132622151 1.9999999999994766
    vertex -46.94680948453267 -5.400884210088131 2.8587692213477564e-13
    vertex -42.72192114578149 -4.461841132622151 1.624300693947589e-13
  endloop
endfacet
facet normal 0.21696987053780326 -0.9761783009669949 -1.2977845652457527e-14
  outer loop
    vertex -46.94680948453267 -5.400884210088131 2.8587692213477564e-13
    vertex -42.72192114578158 -4.461841132622151 1.9999999999994766
    vertex -46.94680948453267 -5.400884210088039 1.9999999999995979
  endloop
endfacet
facet normal -0.3001877307418395 -0.9538801425294821 -9.50119587911037e-15
  outer loop
    vertex 64.09458428962049 -10.18862896211604 1.999999999999034
    vertex 59.966202121376504 -8.8894199530745 -2.115200459229527e-13
    vertex 64.09458428962053 -10.188628962116132 -2.562785539339529e-13
  endloop
endfacet
facet normal -0.3001877307418395 -0.9538801425294821 -9.50119587911037e-15
  outer loop
    vertex 59.966202121376504 -8.8894199530745 -2.115200459229527e-13
    vertex 64.09458428962049 -10.18862896211604 1.999999999999034
    vertex 59.966202121376504 -8.889419953074453 1.9999999999991027
  endloop
endfacet
facet normal -0.15524698738952603 0.9878756869700136 9.855699989357674e-15
  outer loop
    vertex -34.71453801190924 0.10840345220146337 1.9999999999997884
    vertex -30.37695459695043 0.790064886535074 4.1798671190917957e-13
    vertex -34.71453801190924 0.10840345220164817 8.229790182667784e-14
  endloop
endfacet
facet normal -0.15524698738952603 0.9878756869700136 9.855699989357674e-15
  outer loop
    vertex -30.37695459695043 0.790064886535074 4.1798671190917957e-13
    vertex -34.71453801190924 0.10840345220146337 1.9999999999997884
    vertex -30.37695459695043 0.7900648865349816 2.000000000000125
  endloop
endfacet
facet normal 0.11374286920980453 -0.9935102212377694 -1.25363353587012e-14
  outer loop
    vertex -21.353724786022212 -1.1037788232097372 2.8010163077851757e-13
    vertex -25.653625474226047 -1.5960566389167186 1.999999999999419
    vertex -25.65362547422614 -1.5960566389167186 1.2777832125721034e-13
  endloop
endfacet
facet normal 0.11374286920980453 -0.9935102212377694 -1.25363353587012e-14
  outer loop
    vertex -25.653625474226047 -1.5960566389167186 1.999999999999419
    vertex -21.353724786022212 -1.1037788232097372 2.8010163077851757e-13
    vertex -21.353724786022212 -1.1037788232097372 1.9999999999995934
  endloop
endfacet
facet normal -0.23736582131962652 0.9714203348032504 1.0105630213964225e-14
  outer loop
    vertex -51.893681332338076 -3.5215564427225905 3.190848474332597e-13
    vertex -47.62835039164015 -2.4793260655463474 1.9999999999999503
    vertex -47.62835039164015 -2.479326065546255 2.2018298295733984e-13
  endloop
endfacet
facet normal -0.23736582131962652 0.9714203348032504 1.0105630213964225e-14
  outer loop
    vertex -47.62835039164015 -2.4793260655463474 1.9999999999999503
    vertex -51.893681332338076 -3.5215564427225905 3.190848474332597e-13
    vertex -51.893681332338026 -3.5215564427227752 2.000000000000049
  endloop
endfacet
facet normal -0.19883564550363736 -0.9800328494888076 -1.0458929458959288e-14
  outer loop
    vertex 43.20791857617749 -4.5651430754073825 1.9999999999989813
    vertex 38.96634779623181 -3.7045847130833685 -1.5087948668224272e-13
    vertex 43.20791857617745 -4.565143075407475 -3.096999989793403e-13
  endloop
endfacet
facet normal -0.19883564550363736 -0.9800328494888076 -1.0458929458959288e-14
  outer loop
    vertex 38.96634779623181 -3.7045847130833685 -1.5087948668224272e-13
    vertex 43.20791857617749 -4.5651430754073825 1.9999999999989813
    vertex 38.96634779623186 -3.7045847130834146 1.9999999999991402
  endloop
endfacet
facet normal 0.27783647273149287 -0.9606283851834291 -1.3146487491571577e-14
  outer loop
    vertex -55.332964752153664 -7.543340063700497 1.9999999999995863
    vertex -59.490553236157375 -8.74581308790132 3.22694404530921e-13
    vertex -55.332964752153714 -7.543340063700497 2.952617705886951e-13
  endloop
endfacet
facet normal 0.27783647273149287 -0.9606283851834291 -1.3146487491571577e-14
  outer loop
    vertex -59.490553236157375 -8.74581308790132 3.22694404530921e-13
    vertex -55.332964752153664 -7.543340063700497 1.9999999999995863
    vertex -59.49055323615747 -8.745813087901274 1.999999999999637
  endloop
endfacet
facet normal 0.3376065812984033 -0.9412873080329962 -1.735492685523496e-14
  outer loop
    vertex -67.72563442587511 -11.410612340391424 5.140009307069703e-13
    vertex -70.44153271511351 -12.384709333688871 1.9999999999994045
    vertex -70.44153271511351 -12.384709333688825 9.023892744153272e-14
  endloop
endfacet
facet normal 0.3376065812984033 -0.9412873080329962 -1.735492685523496e-14
  outer loop
    vertex -70.44153271511351 -12.384709333688871 1.9999999999994045
    vertex -67.72563442587511 -11.410612340391424 5.140009307069703e-13
    vertex -67.72563442587511 -11.410612340391424 1.9999999999998044
  endloop
endfacet
facet normal -0.09291141530739655 0.9956743789540718 9.609979667870416e-15
  outer loop
    vertex -21.663723210209188 1.8801616884295682 3.7322820389817935e-13
    vertex -17.29189714968809 2.2881189035056346 1.9999999999998823
    vertex -17.291897149688136 2.2881189035056346 1.5376713236037175e-13
  endloop
endfacet
facet normal -0.09291141530739655 0.9956743789540718 9.609979667870416e-15
  outer loop
    vertex -17.29189714968809 2.2881189035056346 1.9999999999998823
    vertex -21.663723210209188 1.8801616884295682 3.7322820389817935e-13
    vertex -21.66372321020914 1.8801616884294297 2.000000000000103
  endloop
endfacet
facet normal 0.1345244317304912 -0.9909102771026188 -1.2627511380178143e-14
  outer loop
    vertex -25.653625474226047 -1.5960566389167186 1.999999999999419
    vertex -29.94227363443678 -2.178276815632671 3.22694404530921e-13
    vertex -25.65362547422614 -1.5960566389167186 1.2777832125721034e-13
  endloop
endfacet
facet normal 0.1345244317304912 -0.9909102771026188 -1.2627511380178143e-14
  outer loop
    vertex -29.94227363443678 -2.178276815632671 3.22694404530921e-13
    vertex -25.653625474226047 -1.5960566389167186 1.999999999999419
    vertex -29.94227363443678 -2.178276815632671 1.999999999999637
  endloop
endfacet
facet normal 0.2978934215959258 -0.954599135433231 -1.32030539070878e-14
  outer loop
    vertex -59.49055323615747 -8.745813087901274 1.999999999999637
    vertex -63.62204719733076 -10.03509235363029 3.9488554648414716e-13
    vertex -59.490553236157375 -8.74581308790132 3.22694404530921e-13
  endloop
endfacet
facet normal 0.2978934215959258 -0.954599135433231 -1.32030539070878e-14
  outer loop
    vertex -63.62204719733076 -10.03509235363029 3.9488554648414716e-13
    vertex -59.49055323615747 -8.745813087901274 1.999999999999637
    vertex -63.62204719733076 -10.035092353630382 1.9999999999997091
  endloop
endfacet
facet normal -0.05353643615948929 -0.998565896675498 -1.1552665047957336e-14
  outer loop
    vertex 13.223588720728793 -0.42107222312961967 5.197762220632285e-14
    vertex 8.901807128001838 -0.18936714977941627 1.9999999999991749
    vertex 8.90180712800193 -0.18936714977946248 -1.3932890396972652e-13
  endloop
endfacet
facet normal -0.05353643615948929 -0.998565896675498 -1.1552665047957336e-14
  outer loop
    vertex 8.901807128001838 -0.18936714977941627 1.9999999999991749
    vertex 13.223588720728793 -0.42107222312961967 5.197762220632285e-14
    vertex 13.22358872072884 -0.4210722231297583 1.999999999999343
  endloop
endfacet
facet normal -0.011673875894191832 -0.9999318579891368 -1.1821633148392838e-14
  outer loop
    vertex 4.576120908460621 -0.04822145793940799 1.9999999999992362
    vertex 0.2484274510469815 0.0023029412245599815 6.497202775790356e-15
    vertex 4.576120908460667 -0.048221457939500396 -7.796643330948427e-14
  endloop
endfacet
facet normal -0.011673875894191832 -0.9999318579891368 -1.1821633148392838e-14
  outer loop
    vertex 0.2484274510469815 0.0023029412245599815 6.497202775790356e-15
    vertex 4.576120908460621 -0.04822145793940799 1.9999999999992362
    vertex 0.2484274510469815 0.0023029412245599815 1.9999999999992744
  endloop
endfacet
facet normal 0.09291141530744601 -0.9956743789540672 -1.2441048380664864e-14
  outer loop
    vertex -17.044457648380206 -0.7016592978315391 1.9999999999994202
    vertex -21.353724786022212 -1.1037788232097372 2.8010163077851757e-13
    vertex -17.044457648380206 -0.7016592978315853 1.2994405551580712e-13
  endloop
endfacet
facet normal 0.09291141530744601 -0.9956743789540672 -1.2441048380664864e-14
  outer loop
    vertex -21.353724786022212 -1.1037788232097372 2.8010163077851757e-13
    vertex -17.044457648380206 -0.7016592978315391 1.9999999999994202
    vertex -21.353724786022212 -1.1037788232097372 1.9999999999995934
  endloop
endfacet
facet normal -0.13690651700161877 -0.9905839720096856 -1.0971710196350393e-14
  outer loop
    vertex 30.433798442575288 -2.250858884487243 -1.3499743545253294e-13
    vertex 26.146562527013796 -1.6583290704088713 1.9999999999991749
    vertex 26.146562527013934 -1.6583290704089637 -1.3932890396972652e-13
  endloop
endfacet
facet normal -0.13690651700161877 -0.9905839720096856 -1.0971710196350393e-14
  outer loop
    vertex 26.146562527013796 -1.6583290704088713 1.9999999999991749
    vertex 30.433798442575288 -2.250858884487243 -1.3499743545253294e-13
    vertex 30.43379844257524 -2.250858884487197 1.999999999999179
  endloop
endfacet
facet normal -0.21696987053790906 0.9761783009669716 1.006351021281701e-14
  outer loop
    vertex -47.62835039164015 -2.4793260655463474 1.9999999999999503
    vertex -43.34212808232894 -1.5266506182159398 2.3750885702611414e-13
    vertex -47.62835039164015 -2.479326065546255 2.2018298295733984e-13
  endloop
endfacet
facet normal -0.21696987053790906 0.9761783009669716 1.006351021281701e-14
  outer loop
    vertex -43.34212808232894 -1.5266506182159398 2.3750885702611414e-13
    vertex -47.62835039164015 -2.4793260655463474 1.9999999999999503
    vertex -43.34212808232889 -1.5266506182160322 1.9999999999999436
  endloop
endfacet
facet normal -0.17826777812724687 -0.9839820116656477 -1.0605328871589664e-14
  outer loop
    vertex 38.96634779623186 -3.7045847130834146 1.9999999999991402
    vertex 34.70768508829312 -2.9330438416679154 -8.518554750480689e-14
    vertex 38.96634779623181 -3.7045847130833685 -1.5087948668224272e-13
  endloop
endfacet
facet normal -0.17826777812724687 -0.9839820116656477 -1.0605328871589664e-14
  outer loop
    vertex 34.70768508829312 -2.9330438416679154 -8.518554750480689e-14
    vertex 38.96634779623186 -3.7045847130834146 1.9999999999991402
    vertex 34.70768508829312 -2.9330438416679154 1.999999999999206
  endloop
endfacet
facet normal -0.2978934215959483 0.9545991354332239 1.026096289183123e-14
  outer loop
    vertex -64.54566752925535 -7.180810397961552 2.0000000000002007
    vertex -60.35419543169891 -5.872814278628842 5.840263384015998e-13
    vertex -64.54566752925535 -7.1808103979614595 4.937874109600671e-13
  endloop
endfacet
facet normal -0.2978934215959483 0.9545991354332239 1.026096289183123e-14
  outer loop
    vertex -60.35419543169891 -5.872814278628842 5.840263384015998e-13
    vertex -64.54566752925535 -7.180810397961552 2.0000000000002007
    vertex -60.35419543169882 -5.872814278628842 2.00000000000029
  endloop
endfacet
facet normal -0.03261230844501384 -0.9994680771980101 -1.1702875223656282e-14
  outer loop
    vertex 8.901807128001838 -0.18936714977941627 1.9999999999991749
    vertex 4.576120908460667 -0.048221457939500396 -7.796643330948427e-14
    vertex 8.90180712800193 -0.18936714977946248 -1.3932890396972652e-13
  endloop
endfacet
facet normal -0.03261230844501384 -0.9994680771980101 -1.1702875223656282e-14
  outer loop
    vertex 4.576120908460667 -0.048221457939500396 -7.796643330948427e-14
    vertex 8.901807128001838 -0.18936714977941627 1.9999999999991749
    vertex 4.576120908460621 -0.04822145793940799 1.9999999999992362
  endloop
endfacet
facet normal -0.1161312656686504 -0.9932338743388676 -1.1108276849187556e-14
  outer loop
    vertex 26.146562527013796 -1.6583290704088713 1.9999999999991749
    vertex 21.84785786497554 -1.1557143025925776 -2.887645678129047e-14
    vertex 26.146562527013934 -1.6583290704089637 -1.3932890396972652e-13
  endloop
endfacet
facet normal -0.1161312656686504 -0.9932338743388676 -1.1108276849187556e-14
  outer loop
    vertex 21.84785786497554 -1.1557143025925776 -2.887645678129047e-14
    vertex 26.146562527013796 -1.6583290704088713 1.9999999999991749
    vertex 21.847857864975495 -1.1557143025925776 1.9999999999992621
  endloop
endfacet
facet normal -0.21931629699427352 -0.9756538125138032 -1.0281647780117647e-14
  outer loop
    vertex 47.4305369350005 -5.514341459300444 1.9999999999989835
    vertex 43.20791857617745 -4.565143075407475 -3.096999989793403e-13
    vertex 47.4305369350005 -5.514341459300305 -3.3063543014577586e-13
  endloop
endfacet
facet normal -0.21931629699427352 -0.9756538125138032 -1.0281647780117647e-14
  outer loop
    vertex 43.20791857617745 -4.565143075407475 -3.096999989793403e-13
    vertex 47.4305369350005 -5.514341459300444 1.9999999999989835
    vertex 43.20791857617749 -4.5651430754073825 1.9999999999989813
  endloop
endfacet
facet normal -0.17590144658867005 0.9844077819115477 9.910743846195831e-15
  outer loop
    vertex -39.036894483169974 -0.6639479756694425 2.75770162261324e-13
    vertex -34.71453801190924 0.10840345220146337 1.9999999999997884
    vertex -34.71453801190924 0.10840345220164817 8.229790182667784e-14
  endloop
endfacet
facet normal -0.17590144658867005 0.9844077819115477 9.910743846195831e-15
  outer loop
    vertex -34.71453801190924 0.10840345220146337 1.9999999999997884
    vertex -39.036894483169974 -0.6639479756694425 2.75770162261324e-13
    vertex -39.036894483169974 -0.6639479756695349 1.999999999999982
  endloop
endfacet
facet normal 0.07203920738745162 -0.9974018009804213 -1.2313948840983319e-14
  outer loop
    vertex -12.727714248288786 -0.3898744456968412 1.999999999999385
    vertex -17.044457648380206 -0.7016592978315853 1.2994405551580712e-13
    vertex -12.727714248288647 -0.3898744456968874 9.384848453919403e-14
  endloop
endfacet
facet normal 0.07203920738745162 -0.9974018009804213 -1.2313948840983319e-14
  outer loop
    vertex -17.044457648380206 -0.7016592978315853 1.2994405551580712e-13
    vertex -12.727714248288786 -0.3898744456968412 1.999999999999385
    vertex -17.044457648380206 -0.7016592978315391 1.9999999999994202
  endloop
endfacet
facet normal 0.1552469873894011 -0.9878756869700334 -1.2742279853382401e-14
  outer loop
    vertex -29.94227363443678 -2.178276815632671 3.22694404530921e-13
    vertex -34.21778812383004 -2.850183972345756 1.9999999999994613
    vertex -34.21778812383004 -2.850183972345756 1.2489067557908128e-13
  endloop
endfacet
facet normal 0.1552469873894011 -0.9878756869700334 -1.2742279853382401e-14
  outer loop
    vertex -34.21778812383004 -2.850183972345756 1.9999999999994613
    vertex -29.94227363443678 -2.178276815632671 3.22694404530921e-13
    vertex -29.94227363443678 -2.178276815632671 1.999999999999637
  endloop
endfacet
facet normal -0.23970074910856232 -0.9708468215309736 -1.0073561596667953e-14
  outer loop
    vertex 51.63235069273006 -6.551763514979776 -3.2919160730671137e-13
    vertex 47.4305369350005 -5.514341459300444 1.9999999999989835
    vertex 47.4305369350005 -5.514341459300305 -3.3063543014577586e-13
  endloop
endfacet
facet normal -0.23970074910856232 -0.9708468215309736 -1.0073561596667953e-14
  outer loop
    vertex 47.4305369350005 -5.514341459300444 1.9999999999989835
    vertex 51.63235069273006 -6.551763514979776 -3.2919160730671137e-13
    vertex 51.63235069273006 -6.551763514979776 1.999999999998985
  endloop
endfacet
facet normal 0.23736582131961148 -0.9714203348032542 -1.3047721229220823e-14
  outer loop
    vertex -46.94680948453267 -5.400884210088039 1.9999999999995979
    vertex -51.15110540103768 -6.428200725439833 3.378545443410985e-13
    vertex -46.94680948453267 -5.400884210088131 2.8587692213477564e-13
  endloop
endfacet
facet normal 0.23736582131961148 -0.9714203348032542 -1.3047721229220823e-14
  outer loop
    vertex -51.15110540103768 -6.428200725439833 3.378545443410985e-13
    vertex -46.94680948453267 -5.400884210088039 1.9999999999995979
    vertex -51.15110540103768 -6.428200725439833 1.9999999999996514
  endloop
endfacet
facet normal -0.28014533614866477 -0.9599575983522146 -9.70407129254619e-15
  outer loop
    vertex 59.966202121376504 -8.8894199530745 -2.115200459229527e-13
    vertex 55.81151679498023 -7.6769541948439795 1.9999999999988247
    vertex 55.81151679498023 -7.676954194844026 -5.125571078679058e-13
  endloop
endfacet
facet normal -0.28014533614866477 -0.9599575983522146 -9.70407129254619e-15
  outer loop
    vertex 55.81151679498023 -7.6769541948439795 1.9999999999988247
    vertex 59.966202121376504 -8.8894199530745 -2.115200459229527e-13
    vertex 59.966202121376504 -8.889419953074453 1.9999999999991027
  endloop
endfacet
facet normal -0.13452443173052522 0.9909102771026139 9.768687091768554e-15
  outer loop
    vertex -30.37695459695043 0.790064886535074 4.1798671190917957e-13
    vertex -26.02604684573752 1.3807373280955995 1.9999999999999067
    vertex -26.02604684573752 1.380737328095738 1.9996946321043652e-13
  endloop
endfacet
facet normal -0.13452443173052522 0.9909102771026139 9.768687091768554e-15
  outer loop
    vertex -26.02604684573752 1.3807373280955995 1.9999999999999067
    vertex -30.37695459695043 0.790064886535074 4.1798671190917957e-13
    vertex -30.37695459695043 0.7900648865349816 2.000000000000125
  endloop
endfacet
facet normal -0.32009845307514107 -0.9473842833501629 -9.323351182525189e-15
  outer loop
    vertex 68.19485245484962 -11.574011345959116 1.999999999998988
    vertex 64.09458428962053 -10.188628962116132 -2.562785539339529e-13
    vertex 68.19485245484962 -11.574011345959116 -3.024808847840177e-13
  endloop
endfacet
facet normal -0.32009845307514107 -0.9473842833501629 -9.323351182525189e-15
  outer loop
    vertex 64.09458428962053 -10.188628962116132 -2.562785539339529e-13
    vertex 68.19485245484962 -11.574011345959116 1.999999999998988
    vertex 64.09458428962049 -10.18862896211604 1.999999999999034
  endloop
endfacet
facet normal 0.25765765560718124 -0.9662362715749244 -1.3140956241732101e-14
  outer loop
    vertex -51.15110540103768 -6.428200725439833 3.378545443410985e-13
    vertex -55.332964752153664 -7.543340063700497 1.9999999999995863
    vertex -55.332964752153714 -7.543340063700497 2.952617705886951e-13
  endloop
endfacet
facet normal 0.25765765560718124 -0.9662362715749244 -1.3140956241732101e-14
  outer loop
    vertex -55.332964752153664 -7.543340063700497 1.9999999999995863
    vertex -51.15110540103768 -6.428200725439833 3.378545443410985e-13
    vertex -51.15110540103768 -6.428200725439833 1.9999999999996514
  endloop
endfacet
facet normal -0.3178197045604089 0.9481511669523666 1.0257505184151947e-14
  outer loop
    vertex -68.7088277637793 -8.576299220726936 5.197762220632285e-13
    vertex -64.54566752925535 -7.180810397961552 2.0000000000002007
    vertex -64.54566752925535 -7.1808103979614595 4.937874109600671e-13
  endloop
endfacet
facet normal -0.3178197045604089 0.9481511669523666 1.0257505184151947e-14
  outer loop
    vertex -64.54566752925535 -7.180810397961552 2.0000000000002007
    vertex -68.7088277637793 -8.576299220726936 5.197762220632285e-13
    vertex -68.7088277637793 -8.57629922072712 2.0000000000002265
  endloop
endfacet
facet normal -0.15762171661153968 -0.9874995668112627 -1.0748525203490393e-14
  outer loop
    vertex 34.70768508829312 -2.9330438416679154 -8.518554750480689e-14
    vertex 30.43379844257524 -2.250858884487197 1.999999999999179
    vertex 30.433798442575288 -2.250858884487243 -1.3499743545253294e-13
  endloop
endfacet
facet normal -0.15762171661153968 -0.9874995668112627 -1.0748525203490393e-14
  outer loop
    vertex 30.43379844257524 -2.250858884487197 1.999999999999179
    vertex 34.70768508829312 -2.9330438416679154 -8.518554750480689e-14
    vertex 34.70768508829312 -2.9330438416679154 1.999999999999206
  endloop
endfacet
facet normal -0.3398687696475479 -0.940472870112829 -1.039186662569787e-14
  outer loop
    vertex 70.43818732820502 -12.384709333688779 -2.1368578018154948e-13
    vertex 68.19485245484962 -11.574011345959116 1.999999999998988
    vertex 68.19485245484962 -11.574011345959116 -3.024808847840177e-13
  endloop
endfacet
facet normal -0.3398687696475479 -0.940472870112829 -1.039186662569787e-14
  outer loop
    vertex 68.19485245484962 -11.574011345959116 1.999999999998988
    vertex 70.43818732820502 -12.384709333688779 -2.1368578018154948e-13
    vertex 70.43818732820506 -12.384709333688733 1.9999999999990774
  endloop
endfacet
facet normal -0.07443708102382596 -0.9972257121477828 -1.1398824084057911e-14
  outer loop
    vertex 17.539570010399675 -0.7432350444879481 1.9999999999993032
    vertex 13.223588720728793 -0.42107222312961967 5.197762220632285e-14
    vertex 17.53957001039972 -0.7432350444879481 1.2994405551580712e-14
  endloop
endfacet
facet normal -0.07443708102382596 -0.9972257121477828 -1.1398824084057911e-14
  outer loop
    vertex 13.223588720728793 -0.42107222312961967 5.197762220632285e-14
    vertex 17.539570010399675 -0.7432350444879481 1.9999999999993032
    vertex 13.22358872072884 -0.4210722231297583 1.999999999999343
  endloop
endfacet
facet normal -0.2576576556072472 0.9662362715749069 1.0143354075244477e-14
  outer loop
    vertex -56.13624998930132 -4.652884593056072 4.396440544951474e-13
    vertex -51.893681332338026 -3.5215564427227752 2.000000000000049
    vertex -51.893681332338076 -3.5215564427225905 3.190848474332597e-13
  endloop
endfacet
facet normal -0.2576576556072472 0.9662362715749069 1.0143354075244477e-14
  outer loop
    vertex -51.893681332338026 -3.5215564427227752 2.000000000000049
    vertex -56.13624998930132 -4.652884593056072 4.396440544951474e-13
    vertex -56.13624998930128 -4.652884593056211 2.0000000000001465
  endloop
endfacet
facet normal -0.3376065812984229 0.9412873080329891 2.959513570172737e-14
  outer loop
    vertex -71.46415356265925 -9.564537472092596 2.000000000000105
    vertex -68.7088277637793 -8.576299220726936 5.197762220632285e-13
    vertex -71.46415356265925 -9.56453747209278 4.208743575873086e-13
  endloop
endfacet
facet normal -0.3376065812984229 0.9412873080329891 2.959513570172737e-14
  outer loop
    vertex -68.7088277637793 -8.576299220726936 5.197762220632285e-13
    vertex -71.46415356265925 -9.564537472092596 2.000000000000105
    vertex -68.7088277637793 -8.57629922072712 2.0000000000002265
  endloop
endfacet
facet normal 0.17590144658883372 -0.9844077819115185 -1.2852834861453354e-14
  outer loop
    vertex -34.21778812383004 -2.850183972345756 1.9999999999994613
    vertex -38.47829356044316 -3.6114833883709534 1.321097897744039e-13
    vertex -34.21778812383004 -2.850183972345756 1.2489067557908128e-13
  endloop
endfacet
facet normal 0.17590144658883372 -0.9844077819115185 -1.2852834861453354e-14
  outer loop
    vertex -38.47829356044316 -3.6114833883709534 1.321097897744039e-13
    vertex -34.21778812383004 -2.850183972345756 1.9999999999994613
    vertex -38.478293560443255 -3.6114833883709534 1.9999999999994462
  endloop
endfacet
facet normal -0.27783647273136325 0.9606283851834665 1.0204396476314354e-14
  outer loop
    vertex -60.35419543169891 -5.872814278628842 5.840263384015998e-13
    vertex -56.13624998930128 -4.652884593056211 2.0000000000001465
    vertex -56.13624998930132 -4.652884593056072 4.396440544951474e-13
  endloop
endfacet
facet normal -0.27783647273136325 0.9606283851834665 1.0204396476314354e-14
  outer loop
    vertex -56.13624998930128 -4.652884593056211 2.0000000000001465
    vertex -60.35419543169891 -5.872814278628842 5.840263384015998e-13
    vertex -60.35419543169882 -5.872814278628842 2.00000000000029
  endloop
endfacet
facet normal 0.030209164316306436 -0.9995435990447392 -1.2131070285691339e-14
  outer loop
    vertex -4.079374974857353 -0.037816113958802085 1.9999999999992657
    vertex -8.405388052073189 -0.16856102594572003 1.5015757526271045e-13
    vertex -4.079374974857353 -0.037816113958802085 -2.5266899683629163e-14
  endloop
endfacet
facet normal 0.030209164316306436 -0.9995435990447392 -1.2131070285691339e-14
  outer loop
    vertex -8.405388052073189 -0.16856102594572003 1.5015757526271045e-13
    vertex -4.079374974857353 -0.037816113958802085 1.9999999999992657
    vertex -8.405388052073281 -0.16856102594558142 1.9999999999994642
  endloop
endfacet
facet normal 0.05113540069032918 -0.9986917296124163 -1.2210603640948327e-14
  outer loop
    vertex -8.405388052073189 -0.16856102594572003 1.5015757526271045e-13
    vertex -12.727714248288786 -0.3898744456968412 1.999999999999385
    vertex -12.727714248288647 -0.3898744456968874 9.384848453919403e-14
  endloop
endfacet
facet normal 0.05113540069032918 -0.9986917296124163 -1.2210603640948327e-14
  outer loop
    vertex -12.727714248288786 -0.3898744456968412 1.999999999999385
    vertex -8.405388052073189 -0.16856102594572003 1.5015757526271045e-13
    vertex -8.405388052073281 -0.16856102594558142 1.9999999999994642
  endloop
endfacet
facet normal -0.11374286920978921 0.9935102212377711 9.649755494675703e-15
  outer loop
    vertex -26.02604684573752 1.3807373280955995 1.9999999999999067
    vertex -21.663723210209188 1.8801616884295682 3.7322820389817935e-13
    vertex -26.02604684573752 1.380737328095738 1.9996946321043652e-13
  endloop
endfacet
facet normal -0.11374286920978921 0.9935102212377711 9.649755494675703e-15
  outer loop
    vertex -21.663723210209188 1.8801616884295682 3.7322820389817935e-13
    vertex -26.02604684573752 1.3807373280955995 1.9999999999999067
    vertex -21.66372321020914 1.8801616884294297 2.000000000000103
  endloop
endfacet
facet normal -0.09530507532411076 -0.9954481114641114 -1.1296930962922749e-14
  outer loop
    vertex 21.847857864975495 -1.1557143025925776 1.9999999999992621
    vertex 17.53957001039972 -0.7432350444879481 1.2994405551580712e-14
    vertex 21.84785786497554 -1.1557143025925776 -2.887645678129047e-14
  endloop
endfacet
facet normal -0.09530507532411076 -0.9954481114641114 -1.1296930962922749e-14
  outer loop
    vertex 17.53957001039972 -0.7432350444879481 1.2994405551580712e-14
    vertex 21.847857864975495 -1.1557143025925776 1.9999999999992621
    vertex 17.539570010399675 -0.7432350444879481 1.9999999999993032
  endloop
endfacet
endsolid working_stargate_mk2_ring_2
Working Stargate Mk2
www.glitch.org.uk