solid working_stargate_mk2_ring_4
facet normal -0.9897648362421638 0.14270798484500738 1.6929009020890574e-13
  outer loop
    vertex 52.34573230765923 -3.64214873440544 3.6399999999472055
    vertex 51.914645154099254 -6.6319947925115725 2.000000000000128
    vertex 51.91464515410051 -6.631994792510487 3.639999999947546
  endloop
endfacet
facet normal -0.9897648362421638 0.14270798484500738 1.6929009020890574e-13
  outer loop
    vertex 51.914645154099254 -6.6319947925115725 2.000000000000128
    vertex 52.34573230765923 -3.64214873440544 3.6399999999472055
    vertex 52.345732307660235 -3.6421487344034085 2.000000000000457
  endloop
endfacet
facet normal 0.9897648362420715 -0.1427079848456481 -1.0312079794124723e-13
  outer loop
    vertex 53.60538661151891 -7.083540276553616 1.4293846106738782e-13
    vertex 54.03647376508083 -4.093694218447934 3.6399999999472503
    vertex 53.60538661152017 -7.083540276552534 3.639999999947268
  endloop
endfacet
facet normal 0.9897648362420715 -0.1427079848456481 -1.0312079794124723e-13
  outer loop
    vertex 54.03647376508083 -4.093694218447934 3.6399999999472503
    vertex 53.60538661151891 -7.083540276553616 1.4293846106738782e-13
    vertex 54.036473765081496 -4.093694218445734 4.714081569545669e-13
  endloop
endfacet
facet normal -1.6305587217123537e-13 -1.5198059754584334e-13 1.0
  outer loop
    vertex 48.67395081216633 -2.735108159199322 3.6399999999473924
    vertex 49.66060861974067 -6.064975941313437 3.6399999999472703
    vertex 50.373777917169654 -3.1511463943398743 3.6399999999476225
  endloop
endfacet
facet normal -1.6305587217123537e-13 -1.5198059754584334e-13 1.0
  outer loop
    vertex 49.66060861974067 -6.064975941313437 3.6399999999472703
    vertex 48.67395081216633 -2.735108159199322 3.6399999999473924
    vertex 47.960781514738 -5.648937706173235 3.6399999999469945
  endloop
endfacet
facet normal 0.971329774287059 -0.23773613436634133 1.7933878520709488e-13
  outer loop
    vertex 49.66060861974067 -6.064975941313437 3.6399999999472703
    vertex 50.37377791717027 -3.1511463943380096 2.000000000000481
    vertex 50.373777917169654 -3.1511463943398743 3.6399999999476225
  endloop
endfacet
facet normal 0.971329774287059 -0.23773613436634133 1.7933878520709488e-13
  outer loop
    vertex 50.37377791717027 -3.1511463943380096 2.000000000000481
    vertex 49.66060861974067 -6.064975941313437 3.6399999999472703
    vertex 49.660608619740714 -6.064975941315439 2.000000000000314
  endloop
endfacet
facet normal 4.3842681742929955e-14 -7.828488301478864e-14 1.0
  outer loop
    vertex 52.34573230765923 -3.64214873440544 3.6399999999472055
    vertex 53.60538661152017 -7.083540276552534 3.639999999947268
    vertex 54.03647376508083 -4.093694218447934 3.6399999999472503
  endloop
endfacet
facet normal 4.3842681742929955e-14 -7.828488301478864e-14 1.0
  outer loop
    vertex 53.60538661152017 -7.083540276552534 3.639999999947268
    vertex 52.34573230765923 -3.64214873440544 3.6399999999472055
    vertex 51.91464515410051 -6.631994792510487 3.639999999947546
  endloop
endfacet
facet normal 0.03223128326319635 -0.9994804372168611 1.959640046898124e-14
  outer loop
    vertex -8.82309933848536 -0.18673386506702844 1.9999999999996416
    vertex -4.497359624926116 -0.04723724578486932 -2.9670559342775957e-13
    vertex -4.497359624926116 -0.04723724578487365 1.9999999999994102
  endloop
endfacet
facet normal 0.03223128326319635 -0.9994804372168611 1.959640046898124e-14
  outer loop
    vertex -4.497359624926116 -0.04723724578486932 -2.9670559342775957e-13
    vertex -8.82309933848536 -0.18673386506702844 1.9999999999996416
    vertex -8.823099338485024 -0.1867338650671916 4.33146851719357e-15
  endloop
endfacet
facet normal 0.011292675428838049 -0.9999362357078869 1.9563195272428147e-14
  outer loop
    vertex -4.497359624926116 -0.04723724578487365 1.9999999999994102
    vertex -0.16964722079750516 0.0016373221966594314 -1.3571934687206521e-13
    vertex -0.16964722079750516 0.0016373221966551 1.9999999999995943
  endloop
endfacet
facet normal 0.011292675428838049 -0.9999362357078869 1.9563195272428147e-14
  outer loop
    vertex -0.16964722079750516 0.0016373221966594314 -1.3571934687206521e-13
    vertex -4.497359624926116 -0.04723724578487365 1.9999999999994102
    vertex -4.497359624926116 -0.04723724578486932 -2.9670559342775957e-13
  endloop
endfacet
facet normal -0.030590213723954922 -0.9995320099047968 1.9512436004522852e-14
  outer loop
    vertex 4.158139596210704 -0.04013159912465155 1.9999999999998246
    vertex 8.484102515762837 -0.17252568851822192 -2.9887132768635636e-13
    vertex 8.484102515762837 -0.17252568851822625 1.9999999999993152
  endloop
endfacet
facet normal -0.030590213723954922 -0.9995320099047968 1.9512436004522852e-14
  outer loop
    vertex 8.484102515762837 -0.17252568851822192 -2.9887132768635636e-13
    vertex 4.158139596210704 -0.04013159912465155 1.9999999999998246
    vertex 4.158139596211051 -0.040131599124791605 1.4077272680879103e-13
  endloop
endfacet
facet normal -0.07241943724730236 -0.9973742653130689 1.9408502368253458e-14
  outer loop
    vertex 12.806344027550177 -0.3954868735614696 1.9999999999996145
    vertex 17.122968253593083 -0.7089173561095445 -2.45449882640969e-14
    vertex 17.122968253593097 -0.7089173561095287 1.9999999999996596
  endloop
endfacet
facet normal -0.07241943724730236 -0.9973742653130689 1.9408502368253458e-14
  outer loop
    vertex 17.122968253593083 -0.7089173561095445 -2.45449882640969e-14
    vertex 12.806344027550177 -0.3954868735614696 1.9999999999996145
    vertex 12.806344027550187 -0.3954868735614451 -6.930349627509712e-14
  endloop
endfacet
facet normal 0.0949255781005579 -0.9954843718623989 1.9602461792047485e-14
  outer loop
    vertex -21.769517530983606 -1.1481455817690904 1.9999999999995495
    vertex -17.46107274182604 -0.7373087832363979 -1.342755240330007e-13
    vertex -17.461072741826065 -0.7373087832364427 1.9999999999996187
  endloop
endfacet
facet normal 0.0949255781005579 -0.9954843718623989 1.9602461792047485e-14
  outer loop
    vertex -17.46107274182604 -0.7373087832363979 -1.342755240330007e-13
    vertex -21.769517530983606 -1.1481455817690904 1.9999999999995495
    vertex -21.769517530983606 -1.148145581769086 -1.342755240330007e-13
  endloop
endfacet
facet normal -0.009650885746431193 -0.9999534291177312 1.9516704719442517e-14
  outer loop
    vertex 4.158139596210704 -0.04013159912465155 1.9999999999998246
    vertex -0.16964722079750516 0.0016373221966594314 -1.3571934687206521e-13
    vertex 4.158139596211051 -0.040131599124791605 1.4077272680879103e-13
  endloop
endfacet
facet normal -0.009650885746431193 -0.9999534291177312 1.9516704719442517e-14
  outer loop
    vertex -0.16964722079750516 0.0016373221966594314 -1.3571934687206521e-13
    vertex 4.158139596210704 -0.04013159912465155 1.9999999999998246
    vertex -0.16964722079750516 0.0016373221966551 1.9999999999995943
  endloop
endfacet
facet normal 0.1984620174491235 -0.9801085795104663 1.9370279780164857e-14
  outer loop
    vertex -38.88897791293834 -3.6904898005394533 1.9999999999993163
    vertex -43.13087645153641 -4.549431104986973 -3.912759893864859e-13
    vertex -38.88897791293825 -3.6904898005394893 -3.6745291254192123e-13
  endloop
endfacet
facet normal 0.1984620174491235 -0.9801085795104663 1.9370279780164857e-14
  outer loop
    vertex -43.13087645153641 -4.549431104986973 -3.912759893864859e-13
    vertex -38.88897791293834 -3.6904898005394533 1.9999999999993163
    vertex -43.130876451536565 -4.549431104986897 1.9999999999993383
  endloop
endfacet
facet normal -0.051516123822915705 -0.9986721629174723 1.9467118185965527e-14
  outer loop
    vertex 8.484102515762837 -0.17252568851822625 1.9999999999993152
    vertex 12.806344027550187 -0.3954868735614451 -6.930349627509712e-14
    vertex 12.806344027550177 -0.3954868735614696 1.9999999999996145
  endloop
endfacet
facet normal -0.051516123822915705 -0.9986721629174723 1.9467118185965527e-14
  outer loop
    vertex 12.806344027550187 -0.3954868735614451 -6.930349627509712e-14
    vertex 8.484102515762837 -0.17252568851822625 1.9999999999993152
    vertex 8.484102515762837 -0.17252568851822192 -2.9887132768635636e-13
  endloop
endfacet
facet normal 3.511603543239762e-16 -2.0208482216896755e-14 -1.0
  outer loop
    vertex 53.60538661151891 -7.083540276553616 1.4293846106738782e-13
    vertex 51.971114388216094 -3.54209971210967 1.0828671292983927e-14
    vertex 54.036473765081496 -4.093694218445734 4.714081569545669e-13
  endloop
endfacet
facet normal 3.511603543239762e-16 -2.0208482216896755e-14 -1.0
  outer loop
    vertex 51.971114388216094 -3.54209971210967 1.0828671292983927e-14
    vertex 53.60538661151891 -7.083540276553616 1.4293846106738782e-13
    vertex 47.70618108235965 -2.4982433573440708 1.3716316971112973e-14
  endloop
endfacet
facet normal 3.511603543239762e-16 -2.0208482216896755e-14 -1.0
  outer loop
    vertex 47.70618108235965 -2.4982433573440708 1.3716316971112973e-14
    vertex 53.60538661151891 -7.083540276553616 1.4293846106738782e-13
    vertex 43.42032226877685 -1.5439339615929195 -1.227249413204845e-13
  endloop
endfacet
facet normal 3.511603543239762e-16 -2.0208482216896755e-14 -1.0
  outer loop
    vertex 43.42032226877685 -1.5439339615929195 -1.227249413204845e-13
    vertex 53.60538661151891 -7.083540276553616 1.4293846106738782e-13
    vertex 39.115417866792484 -0.6795901164974919 -1.8914079191745258e-13
  endloop
endfacet
facet normal 3.511603543239762e-16 -2.0208482216896755e-14 -1.0
  outer loop
    vertex 39.115417866792484 -0.6795901164974919 -1.8914079191745258e-13
    vertex 53.60538661151891 -7.083540276553616 1.4293846106738782e-13
    vertex 51.22743042367985 -6.448460694659779 -1.3283170119393616e-13
  endloop
endfacet
facet normal 3.511603543239762e-16 -2.0208482216896755e-14 -1.0
  outer loop
    vertex 39.115417866792484 -0.6795901164974919 -1.8914079191745258e-13
    vertex 51.22743042367985 -6.448460694659779 -1.3283170119393616e-13
    vertex 47.023526452036705 -5.419541468749182 7.941025614854879e-15
  endloop
endfacet
facet normal 3.511603543239762e-16 -2.0208482216896755e-14 -1.0
  outer loop
    vertex 39.115417866792484 -0.6795901164974919 -1.8914079191745258e-13
    vertex 47.023526452036705 -5.419541468749182 7.941025614854879e-15
    vertex 34.793356149753215 0.09440904816606652 -7.146923053369391e-14
  endloop
endfacet
facet normal 3.511603543239762e-16 -2.0208482216896755e-14 -1.0
  outer loop
    vertex 34.793356149753215 0.09440904816606652 -7.146923053369391e-14
    vertex 47.023526452036705 -5.419541468749182 7.941025614854879e-15
    vertex 42.79899640754894 -4.478887823950898 2.418403255433077e-13
  endloop
endfacet
facet normal 3.511603543239762e-16 -2.0208482216896755e-14 -1.0
  outer loop
    vertex 34.793356149753215 0.09440904816606652 -7.146923053369391e-14
    vertex 42.79899640754894 -4.478887823950898 2.418403255433077e-13
    vertex 30.456032916777826 0.7777240307812631 -7.219114195322618e-16
  endloop
endfacet
facet normal 3.511603543239762e-16 -2.0208482216896755e-14 -1.0
  outer loop
    vertex 30.456032916777826 0.7777240307812631 -7.219114195322618e-16
    vertex 42.79899640754894 -4.478887823950898 2.418403255433077e-13
    vertex 38.555693308716876 -3.6269123620428325 -1.718149178486783e-13
  endloop
endfacet
facet normal 3.511603543239762e-16 -2.0208482216896755e-14 -1.0
  outer loop
    vertex 30.456032916777826 0.7777240307812631 -7.219114195322618e-16
    vertex 38.555693308716876 -3.6269123620428325 -1.718149178486783e-13
    vertex 26.10535066118223 1.3700551068149092 -3.912759893864859e-13
  endloop
endfacet
facet normal 3.511603543239762e-16 -2.0208482216896755e-14 -1.0
  outer loop
    vertex 26.10535066118223 1.3700551068149092 -3.912759893864859e-13
    vertex 38.555693308716876 -3.6269123620428325 -1.718149178486783e-13
    vertex 34.29547840852092 -2.863988787620361 -4.006608378404053e-13
  endloop
endfacet
facet normal 3.511603543239762e-16 -2.0208482216896755e-14 -1.0
  outer loop
    vertex 26.10535066118223 1.3700551068149092 -3.912759893864859e-13
    vertex 34.29547840852092 -2.863988787620361 -4.006608378404053e-13
    vertex 21.743217735998126 1.8711424602787756 -2.0502284314716234e-13
  endloop
endfacet
facet normal 3.511603543239762e-16 -2.0208482216896755e-14 -1.0
  outer loop
    vertex 21.743217735998126 1.8711424602787756 -2.0502284314716234e-13
    vertex 34.29547840852092 -2.863988787620361 -4.006608378404053e-13
    vertex 30.020220378020678 -2.1904517441791604 -2.829892764566466e-13
  endloop
endfacet
facet normal 3.511603543239762e-16 -2.0208482216896755e-14 -1.0
  outer loop
    vertex 21.743217735998126 1.8711424602787756 -2.0502284314716234e-13
    vertex 30.020220378020678 -2.1904517441791604 -2.829892764566466e-13
    vertex 25.731794486684162 -1.6065966673259247 -2.584442881925497e-13
  endloop
endfacet
facet normal 3.511603543239762e-16 -2.0208482216896755e-14 -1.0
  outer loop
    vertex 21.743217735998126 1.8711424602787756 -2.0502284314716234e-13
    vertex 25.731794486684162 -1.6065966673259247 -2.584442881925497e-13
    vertex 17.37154751689394 2.2807662976996905 -3.883883437083568e-13
  endloop
endfacet
facet normal 3.511603543239762e-16 -2.0208482216896755e-14 -1.0
  outer loop
    vertex 17.37154751689394 2.2807662976996905 -3.883883437083568e-13
    vertex 25.731794486684162 -1.6065966673259247 -2.584442881925497e-13
    vertex 21.432081779841507 -1.1126796551941494 2.021351974690333e-14
  endloop
endfacet
facet normal 3.511603543239762e-16 -2.0208482216896755e-14 -1.0
  outer loop
    vertex 17.37154751689394 2.2807662976996905 -3.883883437083568e-13
    vertex 21.432081779841507 -1.1126796551941494 2.021351974690333e-14
    vertex 12.992257562914196 2.598746944523777 -2.2523636289406566e-13
  endloop
endfacet
facet normal 3.511603543239762e-16 -2.0208482216896755e-14 -1.0
  outer loop
    vertex 12.992257562914196 2.598746944523777 -2.2523636289406566e-13
    vertex 21.432081779841507 -1.1126796551941494 2.021351974690333e-14
    vertex 17.122968253593083 -0.7089173561095445 -2.45449882640969e-14
  endloop
endfacet
facet normal 3.511603543239762e-16 -2.0208482216896755e-14 -1.0
  outer loop
    vertex 12.992257562914196 2.598746944523777 -2.2523636289406566e-13
    vertex 17.122968253593083 -0.7089173561095445 -2.45449882640969e-14
    vertex 8.607268775369375 2.8249449239300293 -4.548041943053249e-13
  endloop
endfacet
facet normal 3.511603543239762e-16 -2.0208482216896755e-14 -1.0
  outer loop
    vertex 8.607268775369375 2.8249449239300293 -4.548041943053249e-13
    vertex 17.122968253593083 -0.7089173561095445 -2.45449882640969e-14
    vertex 12.806344027550187 -0.3954868735614451 -6.930349627509712e-14
  endloop
endfacet
facet normal 3.511603543239762e-16 -2.0208482216896755e-14 -1.0
  outer loop
    vertex 8.607268775369375 2.8249449239300293 -4.548041943053249e-13
    vertex 12.806344027550187 -0.3954868735614451 -6.930349627509712e-14
    vertex 4.2185045552664535 2.9592610180091783 -3.826130523520987e-14
  endloop
endfacet
facet normal 3.511603543239762e-16 -2.0208482216896755e-14 -1.0
  outer loop
    vertex 4.2185045552664535 2.9592610180091783 -3.826130523520987e-14
    vertex 12.806344027550187 -0.3954868735614451 -6.930349627509712e-14
    vertex 8.484102515762837 -0.17252568851822192 -2.9887132768635636e-13
  endloop
endfacet
facet normal 3.511603543239762e-16 -2.0208482216896755e-14 -1.0
  outer loop
    vertex 4.2185045552664535 2.9592610180091783 -3.826130523520987e-14
    vertex 8.484102515762837 -0.17252568851822192 -2.9887132768635636e-13
    vertex -0.17211004035729865 3.0016363112825877 -2.685510480660014e-13
  endloop
endfacet
facet normal 3.511603543239762e-16 -2.0208482216896755e-14 -1.0
  outer loop
    vertex -0.17211004035729865 3.0016363112825877 -2.685510480660014e-13
    vertex 8.484102515762837 -0.17252568851822192 -2.9887132768635636e-13
    vertex 4.158139596211051 -0.040131599124791605 1.4077272680879103e-13
  endloop
endfacet
facet normal 3.511603543239762e-16 -2.0208482216896755e-14 -1.0
  outer loop
    vertex -0.17211004035729865 3.0016363112825877 -2.685510480660014e-13
    vertex 4.158139596211051 -0.040131599124791605 1.4077272680879103e-13
    vertex -4.562649142829242 2.9520522165467287 -1.7542447494633962e-13
  endloop
endfacet
facet normal 3.511603543239762e-16 -2.0208482216896755e-14 -1.0
  outer loop
    vertex -4.562649142829242 2.9520522165467287 -1.7542447494633962e-13
    vertex 4.158139596211051 -0.040131599124791605 1.4077272680879103e-13
    vertex -0.16964722079750516 0.0016373221966594314 -1.3571934687206521e-13
  endloop
endfacet
facet normal 3.511603543239762e-16 -2.0208482216896755e-14 -1.0
  outer loop
    vertex -4.562649142829242 2.9520522165467287 -1.7542447494633962e-13
    vertex -0.16964722079750516 0.0016373221966594314 -1.3571934687206521e-13
    vertex -8.951186916591084 2.810530483024146 -1.7542447494633962e-13
  endloop
endfacet
facet normal 3.511603543239762e-16 -2.0208482216896755e-14 -1.0
  outer loop
    vertex -8.951186916591084 2.810530483024146 -1.7542447494633962e-13
    vertex -0.16964722079750516 0.0016373221966594314 -1.3571934687206521e-13
    vertex -4.497359624926116 -0.04723724578486932 -2.9670559342775957e-13
  endloop
endfacet
facet normal 3.511603543239762e-16 -2.0208482216896755e-14 -1.0
  outer loop
    vertex -8.951186916591084 2.810530483024146 -1.7542447494633962e-13
    vertex -4.497359624926116 -0.04723724578486932 -2.9670559342775957e-13
    vertex -13.335798403929148 2.577133186823168 -3.609557097661309e-14
  endloop
endfacet
facet normal 3.511603543239762e-16 -2.0208482216896755e-14 -1.0
  outer loop
    vertex -13.335798403929148 2.577133186823168 -3.609557097661309e-14
    vertex -4.497359624926116 -0.04723724578486932 -2.9670559342775957e-13
    vertex -8.823099338485024 -0.1867338650671916 4.33146851719357e-15
  endloop
endfacet
facet normal 3.511603543239762e-16 -2.0208482216896755e-14 -1.0
  outer loop
    vertex -13.335798403929148 2.577133186823168 -3.609557097661309e-14
    vertex -8.823099338485024 -0.1867338650671916 4.33146851719357e-15
    vertex -17.71456036933728 2.251962703714031 -1.7470256352680735e-13
  endloop
endfacet
facet normal 3.511603543239762e-16 -2.0208482216896755e-14 -1.0
  outer loop
    vertex -17.71456036933728 2.251962703714031 -1.7470256352680735e-13
    vertex -8.823099338485024 -0.1867338650671916 4.33146851719357e-15
    vertex -13.144968949068481 -0.4167913478229273 1.4293846106738782e-13
  endloop
endfacet
facet normal 3.511603543239762e-16 -2.0208482216896755e-14 -1.0
  outer loop
    vertex -17.71456036933728 2.251962703714031 -1.7470256352680735e-13
    vertex -13.144968949068481 -0.4167913478229273 1.4293846106738782e-13
    vertex -22.085552143094542 1.8351616642158797 1.0251142157358117e-13
  endloop
endfacet
facet normal 3.511603543239762e-16 -2.0208482216896755e-14 -1.0
  outer loop
    vertex -22.085552143094542 1.8351616642158797 1.0251142157358117e-13
    vertex -13.144968949068481 -0.4167913478229273 1.4293846106738782e-13
    vertex -17.46107274182604 -0.7373087832363979 -1.342755240330007e-13
  endloop
endfacet
facet normal 3.511603543239762e-16 -2.0208482216896755e-14 -1.0
  outer loop
    vertex -22.085552143094542 1.8351616642158797 1.0251142157358117e-13
    vertex -17.46107274182604 -0.7373087832363979 -1.342755240330007e-13
    vertex -26.446856463747718 1.3269128910408885 -3.6023379834659863e-13
  endloop
endfacet
facet normal 3.511603543239762e-16 -2.0208482216896755e-14 -1.0
  outer loop
    vertex -26.446856463747718 1.3269128910408885 -3.6023379834659863e-13
    vertex -17.46107274182604 -0.7373087832363979 -1.342755240330007e-13
    vertex -21.769517530983606 -1.148145581769086 -1.342755240330007e-13
  endloop
endfacet
facet normal 3.511603543239762e-16 -2.0208482216896755e-14 -1.0
  outer loop
    vertex -26.446856463747718 1.3269128910408885 -3.6023379834659863e-13
    vertex -21.769517530983606 -1.148145581769086 -1.342755240330007e-13
    vertex -30.796560319079177 0.7274393188984138 -3.6023379834659863e-13
  endloop
endfacet
facet normal 3.511603543239762e-16 -2.0208482216896755e-14 -1.0
  outer loop
    vertex -30.796560319079177 0.7274393188984138 -3.6023379834659863e-13
    vertex -21.769517530983606 -1.148145581769086 -1.342755240330007e-13
    vertex -26.068413490263435 -1.6491215368209637 -4.187086233287118e-14
  endloop
endfacet
facet normal 3.511603543239762e-16 -2.0208482216896755e-14 -1.0
  outer loop
    vertex -30.796560319079177 0.7274393188984138 -3.6023379834659863e-13
    vertex -26.068413490263435 -1.6491215368209637 -4.187086233287118e-14
    vertex -35.132755785219146 0.037003896710366656 8.66293703438714e-15
  endloop
endfacet
facet normal 3.511603543239762e-16 -2.0208482216896755e-14 -1.0
  outer loop
    vertex -35.132755785219146 0.037003896710366656 8.66293703438714e-15
    vertex -26.068413490263435 -1.6491215368209637 -4.187086233287118e-14
    vertex -30.355874981818108 -2.2400169037808366 3.609557097661309e-15
  endloop
endfacet
facet normal 3.511603543239762e-16 -2.0208482216896755e-14 -1.0
  outer loop
    vertex -35.132755785219146 0.037003896710366656 8.66293703438714e-15
    vertex -30.355874981818108 -2.2400169037808366 3.609557097661309e-15
    vertex -34.63002138333307 -2.9205724964126896 -3.205286702723242e-13
  endloop
endfacet
facet normal 3.511603543239762e-16 -2.0208482216896755e-14 -1.0
  outer loop
    vertex -35.132755785219146 0.037003896710366656 8.66293703438714e-15
    vertex -34.63002138333307 -2.9205724964126896 -3.205286702723242e-13
    vertex -39.45354086352357 -0.7440905277283298 -2.6927295948553364e-13
  endloop
endfacet
facet normal 3.511603543239762e-16 -2.0208482216896755e-14 -1.0
  outer loop
    vertex -39.45354086352357 -0.7440905277283298 -2.6927295948553364e-13
    vertex -34.63002138333307 -2.9205724964126896 -3.205286702723242e-13
    vertex -38.88897791293825 -3.6904898005394893 -3.6745291254192123e-13
  endloop
endfacet
facet normal 3.511603543239762e-16 -2.0208482216896755e-14 -1.0
  outer loop
    vertex -39.45354086352357 -0.7440905277283298 -2.6927295948553364e-13
    vertex -38.88897791293825 -3.6904898005394893 -3.6745291254192123e-13
    vertex -43.75702031485253 -1.6155013405879306 -1.775902092049364e-13
  endloop
endfacet
facet normal 3.511603543239762e-16 -2.0208482216896755e-14 -1.0
  outer loop
    vertex -43.75702031485253 -1.6155013405879306 -1.775902092049364e-13
    vertex -38.88897791293825 -3.6904898005394893 -3.6745291254192123e-13
    vertex -43.13087645153641 -4.549431104986973 -3.912759893864859e-13
  endloop
endfacet
facet normal 3.511603543239762e-16 -2.0208482216896755e-14 -1.0
  outer loop
    vertex -43.75702031485253 -1.6155013405879306 -1.775902092049364e-13
    vertex -43.13087645153641 -4.549431104986973 -3.912759893864859e-13
    vertex -48.04130649089024 -2.5768463122843572 -4.562480171443894e-13
  endloop
endfacet
facet normal 3.511603543239762e-16 -2.0208482216896755e-14 -1.0
  outer loop
    vertex -48.04130649089024 -2.5768463122843572 -4.562480171443894e-13
    vertex -43.13087645153641 -4.549431104986973 -3.912759893864859e-13
    vertex -47.35385636223396 -5.497019649710681 -3.003151505254209e-13
  endloop
endfacet
facet normal 3.511603543239762e-16 -2.0208482216896755e-14 -1.0
  outer loop
    vertex -48.04130649089024 -2.5768463122843572 -4.562480171443894e-13
    vertex -47.35385636223396 -5.497019649710681 -3.003151505254209e-13
    vertex -48.97693174102364 -2.8074725119094537 2.829892764566466e-13
  endloop
endfacet
facet normal 3.511603543239762e-16 -2.0208482216896755e-14 -1.0
  outer loop
    vertex -48.97693174102364 -2.8074725119094537 2.829892764566466e-13
    vertex -47.35385636223396 -5.497019649710681 -3.003151505254209e-13
    vertex -49.19623138891322 -2.8577934854871385 2.1368578018154948e-13
  endloop
endfacet
facet normal 3.511603543239762e-16 -2.0208482216896755e-14 -1.0
  outer loop
    vertex -49.19623138891322 -2.8577934854871385 2.1368578018154948e-13
    vertex -47.35385636223396 -5.497019649710681 -3.003151505254209e-13
    vertex -53.45341870618364 -3.932804340532366 4.33146851719357e-15
  endloop
endfacet
facet normal 3.511603543239762e-16 -2.0208482216896755e-14 -1.0
  outer loop
    vertex -53.45341870618364 -3.932804340532366 4.33146851719357e-15
    vertex -47.35385636223396 -5.497019649710681 -3.003151505254209e-13
    vertex -48.269146372947546 -5.722633330717036 0.0
  endloop
endfacet
facet normal 3.511603543239762e-16 -2.0208482216896755e-14 -1.0
  outer loop
    vertex -53.45341870618364 -3.932804340532366 4.33146851719357e-15
    vertex -48.269146372947546 -5.722633330717036 0.0
    vertex -48.49223638509229 -5.774022391898486 -2.772139851003885e-13
  endloop
endfacet
facet normal 3.511603543239762e-16 -2.0208482216896755e-14 -1.0
  outer loop
    vertex -53.45341870618364 -3.932804340532366 4.33146851719357e-15
    vertex -48.49223638509229 -5.774022391898486 -2.772139851003885e-13
    vertex -52.68850520986449 -6.8336503107886815 -2.3245547708938827e-13
  endloop
endfacet
facet normal 3.511603543239762e-16 -2.0208482216896755e-14 -1.0
  outer loop
    vertex -53.45341870618364 -3.932804340532366 4.33146851719357e-15
    vertex -52.68850520986449 -6.8336503107886815 -2.3245547708938827e-13
    vertex -54.382575593124685 -4.188246177533236 6.966445198486326e-13
  endloop
endfacet
facet normal 3.511603543239762e-16 -2.0208482216896755e-14 -1.0
  outer loop
    vertex -54.382575593124685 -4.188246177533236 6.966445198486326e-13
    vertex -52.68850520986449 -6.8336503107886815 -2.3245547708938827e-13
    vertex -53.597467443281744 -7.083540276553616 9.023892744153272e-14
  endloop
endfacet
facet normal 3.511603543239762e-16 -2.0208482216896755e-14 -1.0
  outer loop
    vertex -49.19623138891322 -2.8577934854871385 2.1368578018154948e-13
    vertex -48.97697657198814 -2.8072878662844576 1.4438228390645236e-13
    vertex -48.97693174102364 -2.8074725119094537 2.829892764566466e-13
  endloop
endfacet
facet normal 0.17789264604557156 -0.9840499004028733 1.945712427520174e-14
  outer loop
    vertex -38.88897791293834 -3.6904898005394533 1.9999999999993163
    vertex -34.63002138333307 -2.9205724964126896 -3.205286702723242e-13
    vertex -34.63002138333307 -2.9205724964126936 1.9999999999994094
  endloop
endfacet
facet normal 0.17789264604557156 -0.9840499004028733 1.945712427520174e-14
  outer loop
    vertex -34.63002138333307 -2.9205724964126896 -3.205286702723242e-13
    vertex -38.88897791293834 -3.6904898005394533 1.9999999999993163
    vertex -38.88897791293825 -3.6904898005394893 -3.6745291254192123e-13
  endloop
endfacet
facet normal -0.9713297742871101 0.23773613436613242 -1.793110296314795e-13
  outer loop
    vertex 48.67395081216695 -2.7351081591974573 2.0000000000002975
    vertex 47.960781514738 -5.648937706173235 3.6399999999469945
    vertex 48.67395081216633 -2.735108159199322 3.6399999999473924
  endloop
endfacet
facet normal -0.9713297742871101 0.23773613436613242 -1.793110296314795e-13
  outer loop
    vertex 47.960781514738 -5.648937706173235 3.6399999999469945
    vertex 48.67395081216695 -2.7351081591974573 2.0000000000002975
    vertex 47.96078151473786 -5.648937706175185 2.0000000000000147
  endloop
endfacet
facet normal 0.2189443368526221 -0.9757373506021823 1.9297929250857816e-14
  outer loop
    vertex -43.130876451536565 -4.549431104986897 1.9999999999993383
    vertex -47.35385636223396 -5.497019649710681 -3.003151505254209e-13
    vertex -43.13087645153641 -4.549431104986973 -3.912759893864859e-13
  endloop
endfacet
facet normal 0.2189443368526221 -0.9757373506021823 1.9297929250857816e-14
  outer loop
    vertex -47.35385636223396 -5.497019649710681 -3.003151505254209e-13
    vertex -43.130876451536565 -4.549431104986897 1.9999999999993383
    vertex -47.353856362234204 -5.497019649710558 1.9999999999994065
  endloop
endfacet
facet normal 0.13652887108933923 -0.9906360922957889 1.9466121798450585e-14
  outer loop
    vertex -30.355874981818108 -2.24001690378084 1.9999999999996874
    vertex -26.068413490263435 -1.6491215368209637 -4.187086233287118e-14
    vertex -26.068413490263435 -1.6491215368209673 1.9999999999996185
  endloop
endfacet
facet normal 0.13652887108933923 -0.9906360922957889 1.9466121798450585e-14
  outer loop
    vertex -26.068413490263435 -1.6491215368209637 -4.187086233287118e-14
    vertex -30.355874981818108 -2.24001690378084 1.9999999999996874
    vertex -30.355874981818108 -2.2400169037808366 3.609557097661309e-15
  endloop
endfacet
facet normal 0.15724524504837237 -0.9875595844857551 1.9516827803217566e-14
  outer loop
    vertex -34.63002138333307 -2.9205724964126936 1.9999999999994094
    vertex -30.355874981818108 -2.2400169037808366 3.609557097661309e-15
    vertex -30.355874981818108 -2.24001690378084 1.9999999999996874
  endloop
endfacet
facet normal 0.15724524504837237 -0.9875595844857551 1.9516827803217566e-14
  outer loop
    vertex -30.355874981818108 -2.2400169037808366 3.609557097661309e-15
    vertex -34.63002138333307 -2.9205724964126936 1.9999999999994094
    vertex -34.63002138333307 -2.9205724964126896 -3.205286702723242e-13
  endloop
endfacet
facet normal 0.11575261105539641 -0.9932780743748744 1.9568682121553077e-14
  outer loop
    vertex -26.068413490263435 -1.6491215368209673 1.9999999999996185
    vertex -21.769517530983606 -1.148145581769086 -1.342755240330007e-13
    vertex -21.769517530983606 -1.1481455817690904 1.9999999999995495
  endloop
endfacet
facet normal 0.11575261105539641 -0.9932780743748744 1.9568682121553077e-14
  outer loop
    vertex -21.769517530983606 -1.148145581769086 -1.342755240330007e-13
    vertex -26.068413490263435 -1.6491215368209673 1.9999999999996185
    vertex -26.068413490263435 -1.6491215368209637 -4.187086233287118e-14
  endloop
endfacet
facet normal 0.07405690764948562 -0.997254017003389 1.9567458167566838e-14
  outer loop
    vertex -13.144968949068643 -0.4167913478228508 1.99999999999985
    vertex -17.46107274182604 -0.7373087832363979 -1.342755240330007e-13
    vertex -13.144968949068481 -0.4167913478229273 1.4293846106738782e-13
  endloop
endfacet
facet normal 0.07405690764948562 -0.997254017003389 1.9567458167566838e-14
  outer loop
    vertex -17.46107274182604 -0.7373087832363979 -1.342755240330007e-13
    vertex -13.144968949068643 -0.4167913478228508 1.99999999999985
    vertex -17.461072741826065 -0.7373087832364427 1.9999999999996187
  endloop
endfacet
facet normal 0.05315575339149302 -0.9985862335729362 1.9588568430358584e-14
  outer loop
    vertex -8.82309933848536 -0.18673386506702844 1.9999999999996416
    vertex -13.144968949068481 -0.4167913478229273 1.4293846106738782e-13
    vertex -8.823099338485024 -0.1867338650671916 4.33146851719357e-15
  endloop
endfacet
facet normal 0.05315575339149302 -0.9985862335729362 1.9588568430358584e-14
  outer loop
    vertex -13.144968949068481 -0.4167913478229273 1.4293846106738782e-13
    vertex -8.82309933848536 -0.18673386506702844 1.9999999999996416
    vertex -13.144968949068643 -0.4167913478228508 1.99999999999985
  endloop
endfacet
facet normal -0.05315575339167772 0.9985862335729265 -1.7923233893420783e-14
  outer loop
    vertex -8.951186916591084 2.810530483024146 -1.7542447494633962e-13
    vertex -13.335798403928825 2.577133186823002 1.9999999999999019
    vertex -8.951186916590588 2.8105304830238933 1.9999999999999707
  endloop
endfacet
facet normal -0.05315575339167772 0.9985862335729265 -1.7923233893420783e-14
  outer loop
    vertex -13.335798403928825 2.577133186823002 1.9999999999999019
    vertex -8.951186916591084 2.810530483024146 -1.7542447494633962e-13
    vertex -13.335798403929148 2.577133186823168 -3.609557097661309e-14
  endloop
endfacet
facet normal -0.13652887108944314 0.9906360922957744 -1.7939565139590972e-14
  outer loop
    vertex -26.446856463747718 1.3269128910408885 -3.6023379834659863e-13
    vertex -30.796560319079003 0.7274393188983228 1.9999999999998548
    vertex -26.446856463747196 1.326912891040682 1.9999999999998321
  endloop
endfacet
facet normal -0.13652887108944314 0.9906360922957744 -1.7939565139590972e-14
  outer loop
    vertex -30.796560319079003 0.7274393188983228 1.9999999999998548
    vertex -26.446856463747718 1.3269128910408885 -3.6023379834659863e-13
    vertex -30.796560319079177 0.7274393188984138 -3.6023379834659863e-13
  endloop
endfacet
facet normal -0.21894433685229286 0.975737350602256 -1.7785250379806078e-14
  outer loop
    vertex -43.75702031485253 -1.6155013405879306 -1.775902092049364e-13
    vertex -48.04130649089008 -2.576846312284442 1.9999999999997127
    vertex -43.757020314852305 -1.6155013405880554 1.9999999999998062
  endloop
endfacet
facet normal -0.21894433685229286 0.975737350602256 -1.7785250379806078e-14
  outer loop
    vertex -48.04130649089008 -2.576846312284442 1.9999999999997127
    vertex -43.75702031485253 -1.6155013405879306 -1.775902092049364e-13
    vertex -48.04130649089024 -2.5768463122843572 -4.562480171443894e-13
  endloop
endfacet
facet normal -0.1762767152486043 -0.9843406522445176 1.9040679210152455e-14
  outer loop
    vertex 34.29547840852125 -2.8639887876205288 1.9999999999993525
    vertex 38.555693308716876 -3.6269123620428325 -1.718149178486783e-13
    vertex 38.555693308716876 -3.6269123620428365 1.999999999999535
  endloop
endfacet
facet normal -0.1762767152486043 -0.9843406522445176 1.9040679210152455e-14
  outer loop
    vertex 38.555693308716876 -3.6269123620428325 -1.718149178486783e-13
    vertex 34.29547840852125 -2.8639887876205288 1.9999999999993525
    vertex 34.29547840852092 -2.863988787620361 -4.006608378404053e-13
  endloop
endfacet
facet normal -0.19685253009948858 -0.9804331090867087 1.8943800776801077e-14
  outer loop
    vertex 38.555693308716876 -3.6269123620428365 1.999999999999535
    vertex 42.79899640754894 -4.478887823950898 2.418403255433077e-13
    vertex 42.79899640754911 -4.478887823950984 1.9999999999999718
  endloop
endfacet
facet normal -0.19685253009948858 -0.9804331090867087 1.8943800776801077e-14
  outer loop
    vertex 42.79899640754894 -4.478887823950898 2.418403255433077e-13
    vertex 38.555693308716876 -3.6269123620428365 1.999999999999535
    vertex 38.555693308716876 -3.6269123620428325 -1.718149178486783e-13
  endloop
endfacet
facet normal -0.21734199892463624 -0.9760955155636377 1.8840524943228847e-14
  outer loop
    vertex 47.02352645203638 -5.419541468749022 1.9999999999997613
    vertex 42.79899640754894 -4.478887823950898 2.418403255433077e-13
    vertex 47.023526452036705 -5.419541468749182 7.941025614854879e-15
  endloop
endfacet
facet normal -0.21734199892463624 -0.9760955155636377 1.8840524943228847e-14
  outer loop
    vertex 42.79899640754894 -4.478887823950898 2.418403255433077e-13
    vertex 47.02352645203638 -5.419541468749022 1.9999999999997613
    vertex 42.79899640754911 -4.478887823950984 1.9999999999999718
  endloop
endfacet
facet normal -0.2377361343658192 -0.9713297742871867 5.039538181803748e-13
  outer loop
    vertex 47.960781514738 -5.648937706173235 3.6399999999469945
    vertex 47.96078151473786 -5.648937706175185 2.0000000000000147
    vertex 49.66060861974067 -6.064975941313437 3.6399999999472703
  endloop
endfacet
facet normal -0.2377361343658192 -0.9713297742871867 5.039538181803748e-13
  outer loop
    vertex 49.660608619740714 -6.064975941315439 2.000000000000314
    vertex 51.22743042367985 -6.448460694659779 -1.3283170119393616e-13
    vertex 51.22743042367985 -6.448460694659783 1.9999999999995044
  endloop
endfacet
facet normal -0.2377361343658192 -0.9713297742871867 5.039538181803748e-13
  outer loop
    vertex 51.22743042367985 -6.448460694659779 -1.3283170119393616e-13
    vertex 49.660608619740714 -6.064975941315439 2.000000000000314
    vertex 47.023526452036705 -5.419541468749182 7.941025614854879e-15
  endloop
endfacet
facet normal -0.2377361343658192 -0.9713297742871867 5.039538181803748e-13
  outer loop
    vertex 47.023526452036705 -5.419541468749182 7.941025614854879e-15
    vertex 49.660608619740714 -6.064975941315439 2.000000000000314
    vertex 49.66060861974067 -6.064975941313437 3.6399999999472703
  endloop
endfacet
facet normal -0.2377361343658192 -0.9713297742871867 5.039538181803748e-13
  outer loop
    vertex 47.023526452036705 -5.419541468749182 7.941025614854879e-15
    vertex 49.66060861974067 -6.064975941313437 3.6399999999472703
    vertex 47.96078151473786 -5.648937706175185 2.0000000000000147
  endloop
endfacet
facet normal -0.2377361343658192 -0.9713297742871867 5.039538181803748e-13
  outer loop
    vertex 47.023526452036705 -5.419541468749182 7.941025614854879e-15
    vertex 47.96078151473786 -5.648937706175185 2.0000000000000147
    vertex 47.02352645203638 -5.419541468749022 1.9999999999997613
  endloop
endfacet
facet normal 0.23773613436590468 0.9713297742871658 5.375325234326765e-13
  outer loop
    vertex 51.971114388216094 -3.54209971210967 1.0828671292983927e-14
    vertex 50.37377791717027 -3.1511463943380096 2.000000000000481
    vertex 51.971114388216584 -3.5420997121099305 2.0000000000000644
  endloop
endfacet
facet normal 0.23773613436590468 0.9713297742871658 5.375325234326765e-13
  outer loop
    vertex 50.37377791717027 -3.1511463943380096 2.000000000000481
    vertex 51.971114388216094 -3.54209971210967 1.0828671292983927e-14
    vertex 47.70618108235965 -2.4982433573440708 1.3716316971112973e-14
  endloop
endfacet
facet normal 0.23773613436590468 0.9713297742871658 5.375325234326765e-13
  outer loop
    vertex 50.37377791717027 -3.1511463943380096 2.000000000000481
    vertex 47.70618108235965 -2.4982433573440708 1.3716316971112973e-14
    vertex 48.67395081216695 -2.7351081591974573 2.0000000000002975
  endloop
endfacet
facet normal 0.23773613436590468 0.9713297742871658 5.375325234326765e-13
  outer loop
    vertex 50.37377791717027 -3.1511463943380096 2.000000000000481
    vertex 48.67395081216695 -2.7351081591974573 2.0000000000002975
    vertex 48.67395081216633 -2.735108159199322 3.6399999999473924
  endloop
endfacet
facet normal 0.23773613436590468 0.9713297742871658 5.375325234326765e-13
  outer loop
    vertex 48.67395081216695 -2.7351081591974573 2.0000000000002975
    vertex 47.70618108235965 -2.4982433573440708 1.3716316971112973e-14
    vertex 47.706181082359905 -2.4982433573441973 2.0000000000001132
  endloop
endfacet
facet normal 0.23773613436590468 0.9713297742871658 5.375325234326765e-13
  outer loop
    vertex 48.67395081216633 -2.735108159199322 3.6399999999473924
    vertex 50.373777917169654 -3.1511463943398743 3.6399999999476225
    vertex 50.37377791717027 -3.1511463943380096 2.000000000000481
  endloop
endfacet
facet normal 0.15562357960430262 0.9878164310595079 -1.7458893016409723e-14
  outer loop
    vertex 34.793356149753215 0.09440904816606652 -7.146923053369391e-14
    vertex 30.456032916778323 0.7777240307810017 2.0000000000001688
    vertex 34.79335614975371 0.09440904816580518 2.0000000000000973
  endloop
endfacet
facet normal 0.15562357960430262 0.9878164310595079 -1.7458893016409723e-14
  outer loop
    vertex 30.456032916778323 0.7777240307810017 2.0000000000001688
    vertex 34.793356149753215 0.09440904816606652 -7.146923053369391e-14
    vertex 30.456032916777826 0.7777240307812631 -7.219114195322618e-16
  endloop
endfacet
facet normal 0.1349021823147857 0.9908589209401651 -1.7515239445370893e-14
  outer loop
    vertex 30.456032916777826 0.7777240307812631 -7.219114195322618e-16
    vertex 26.10535066118231 1.3700551068148514 1.999999999999662
    vertex 30.456032916778323 0.7777240307810017 2.0000000000001688
  endloop
endfacet
facet normal 0.1349021823147857 0.9908589209401651 -1.7515239445370893e-14
  outer loop
    vertex 26.10535066118231 1.3700551068148514 1.999999999999662
    vertex 30.456032916777826 0.7777240307812631 -7.219114195322618e-16
    vertex 26.10535066118223 1.3700551068149092 -3.912759893864859e-13
  endloop
endfacet
facet normal 0.11412161246930427 0.9934667873499377 -1.7634595301724733e-14
  outer loop
    vertex 26.10535066118223 1.3700551068149092 -3.912759893864859e-13
    vertex 21.74321773599822 1.8711424602787525 1.9999999999998022
    vertex 26.10535066118231 1.3700551068148514 1.999999999999662
  endloop
endfacet
facet normal 0.11412161246930427 0.9934667873499377 -1.7634595301724733e-14
  outer loop
    vertex 21.74321773599822 1.8711424602787525 1.9999999999998022
    vertex 26.10535066118223 1.3700551068149092 -3.912759893864859e-13
    vertex 21.743217735998126 1.8711424602787756 -2.0502284314716234e-13
  endloop
endfacet
facet normal -0.03223128326308982 0.9994804372168644 -1.78894325686201e-14
  outer loop
    vertex -4.562649142829242 2.9520522165467287 -1.7542447494633962e-13
    vertex -8.951186916590588 2.8105304830238933 1.9999999999999707
    vertex -4.562649142829011 2.9520522165465772 1.9999999999999243
  endloop
endfacet
facet normal -0.03223128326308982 0.9994804372168644 -1.78894325686201e-14
  outer loop
    vertex -8.951186916590588 2.8105304830238933 1.9999999999999707
    vertex -4.562649142829242 2.9520522165467287 -1.7542447494633962e-13
    vertex -8.951186916591084 2.810530483024146 -1.7542447494633962e-13
  endloop
endfacet
facet normal -0.09492557810045046 0.9954843718624091 -1.7895493891686345e-14
  outer loop
    vertex -17.71456036933728 2.251962703714031 -1.7470256352680735e-13
    vertex -22.085552143094706 1.8351616642159563 2.0000000000000173
    vertex -17.714560369336866 2.251962703713807 1.9999999999998326
  endloop
endfacet
facet normal -0.09492557810045046 0.9954843718624091 -1.7895493891686345e-14
  outer loop
    vertex -22.085552143094706 1.8351616642159563 2.0000000000000173
    vertex -17.71456036933728 2.251962703714031 -1.7470256352680735e-13
    vertex -22.085552143094542 1.8351616642158797 1.0251142157358117e-13
  endloop
endfacet
facet normal -0.13490218231473658 -0.9908589209401718 1.921526845182814e-14
  outer loop
    vertex 25.731794486684176 -1.6065966673258965 1.9999999999993792
    vertex 30.020220378020678 -2.1904517441791604 -2.829892764566466e-13
    vertex 30.02022037802084 -2.1904517441792466 1.9999999999994467
  endloop
endfacet
facet normal -0.13490218231473658 -0.9908589209401718 1.921526845182814e-14
  outer loop
    vertex 30.020220378020678 -2.1904517441791604 -2.829892764566466e-13
    vertex 25.731794486684176 -1.6065966673258965 1.9999999999993792
    vertex 25.731794486684162 -1.6065966673259247 -2.584442881925497e-13
  endloop
endfacet
facet normal -0.09329098511306365 -0.9956388863923678 1.935740050765135e-14
  outer loop
    vertex 21.432081779841173 -1.1126796551939893 1.9999999999996811
    vertex 17.122968253593083 -0.7089173561095445 -2.45449882640969e-14
    vertex 21.432081779841507 -1.1126796551941494 2.021351974690333e-14
  endloop
endfacet
facet normal -0.09329098511306365 -0.9956388863923678 1.935740050765135e-14
  outer loop
    vertex 17.122968253593083 -0.7089173561095445 -2.45449882640969e-14
    vertex 21.432081779841173 -1.1126796551939893 1.9999999999996811
    vertex 17.122968253593097 -0.7089173561095287 1.9999999999996596
  endloop
endfacet
facet normal 0.2173419989246596 0.9760955155636325 -1.716825151238722e-14
  outer loop
    vertex 47.70618108235965 -2.4982433573440708 1.3716316971112973e-14
    vertex 43.42032226877718 -1.5439339615930872 2.0000000000000235
    vertex 47.706181082359905 -2.4982433573441973 2.0000000000001132
  endloop
endfacet
facet normal 0.2173419989246596 0.9760955155636325 -1.716825151238722e-14
  outer loop
    vertex 43.42032226877718 -1.5439339615930872 2.0000000000000235
    vertex 47.70618108235965 -2.4982433573440708 1.3716316971112973e-14
    vertex 43.42032226877685 -1.5439339615929195 -1.227249413204845e-13
  endloop
endfacet
facet normal -0.11412161246939209 -0.9934667873499274 1.929299094475861e-14
  outer loop
    vertex 21.432081779841173 -1.1126796551939893 1.9999999999996811
    vertex 25.731794486684162 -1.6065966673259247 -2.584442881925497e-13
    vertex 25.731794486684176 -1.6065966673258965 1.9999999999993792
  endloop
endfacet
facet normal -0.11412161246939209 -0.9934667873499274 1.929299094475861e-14
  outer loop
    vertex 25.731794486684162 -1.6065966673259247 -2.584442881925497e-13
    vertex 21.432081779841173 -1.1126796551939893 1.9999999999996811
    vertex 21.432081779841507 -1.1126796551941494 2.021351974690333e-14
  endloop
endfacet
facet normal -0.2580259908811635 -0.9661379756690004 3.4930856074719896e-13
  outer loop
    vertex 51.91464515410051 -6.631994792510487 3.639999999947546
    vertex 53.60538661151891 -7.083540276553616 1.4293846106738782e-13
    vertex 53.60538661152017 -7.083540276552534 3.639999999947268
  endloop
endfacet
facet normal -0.2580259908811635 -0.9661379756690004 3.4930856074719896e-13
  outer loop
    vertex 53.60538661151891 -7.083540276553616 1.4293846106738782e-13
    vertex 51.91464515410051 -6.631994792510487 3.639999999947546
    vertex 51.914645154099254 -6.6319947925115725 2.000000000000128
  endloop
endfacet
facet normal -0.2580259908811635 -0.9661379756690004 3.4930856074719896e-13
  outer loop
    vertex 53.60538661151891 -7.083540276553616 1.4293846106738782e-13
    vertex 51.914645154099254 -6.6319947925115725 2.000000000000128
    vertex 51.22743042367985 -6.448460694659779 -1.3283170119393616e-13
  endloop
endfacet
facet normal -0.2580259908811635 -0.9661379756690004 3.4930856074719896e-13
  outer loop
    vertex 51.22743042367985 -6.448460694659779 -1.3283170119393616e-13
    vertex 51.914645154099254 -6.6319947925115725 2.000000000000128
    vertex 51.22743042367985 -6.448460694659783 1.9999999999995044
  endloop
endfacet
facet normal 0.1762767152486261 0.9843406522445137 -1.7347589097599104e-14
  outer loop
    vertex 39.115417866792484 -0.6795901164974919 -1.8914079191745258e-13
    vertex 34.79335614975371 0.09440904816580518 2.0000000000000973
    vertex 39.11541786679264 -0.6795901164975873 1.9999999999999332
  endloop
endfacet
facet normal 0.1762767152486261 0.9843406522445137 -1.7347589097599104e-14
  outer loop
    vertex 34.79335614975371 0.09440904816580518 2.0000000000000973
    vertex 39.115417866792484 -0.6795901164974919 -1.8914079191745258e-13
    vertex 34.793356149753215 0.09440904816606652 -7.146923053369391e-14
  endloop
endfacet
facet normal 0.0932909851130077 0.995638886392373 -1.767124928900186e-14
  outer loop
    vertex 21.743217735998126 1.8711424602787756 -2.0502284314716234e-13
    vertex 17.37154751689435 2.280766297699471 1.9999999999997573
    vertex 21.74321773599822 1.8711424602787525 1.9999999999998022
  endloop
endfacet
facet normal 0.0932909851130077 0.995638886392373 -1.767124928900186e-14
  outer loop
    vertex 17.37154751689435 2.280766297699471 1.9999999999997573
    vertex 21.743217735998126 1.8711424602787756 -2.0502284314716234e-13
    vertex 17.37154751689394 2.2807662976996905 -3.883883437083568e-13
  endloop
endfacet
facet normal 0.030590213724060726 0.9995320099047936 -1.7874857043200797e-14
  outer loop
    vertex 8.607268775369375 2.8249449239300293 -4.548041943053249e-13
    vertex 4.218504555266275 2.9592610180092342 1.9999999999998765
    vertex 8.607268775369532 2.8249449239299196 1.9999999999996676
  endloop
endfacet
facet normal 0.030590213724060726 0.9995320099047936 -1.7874857043200797e-14
  outer loop
    vertex 4.218504555266275 2.9592610180092342 1.9999999999998765
    vertex 8.607268775369375 2.8249449239300293 -4.548041943053249e-13
    vertex 4.2185045552664535 2.9592610180091783 -3.826130523520987e-14
  endloop
endfacet
facet normal 0.009650885746331661 0.9999534291177322 -1.7865247970312555e-14
  outer loop
    vertex -0.17211004035729865 3.0016363112825877 -2.685510480660014e-13
    vertex 4.218504555266275 2.9592610180092342 1.9999999999998765
    vertex 4.2185045552664535 2.9592610180091783 -3.826130523520987e-14
  endloop
endfacet
facet normal 0.009650885746331661 0.9999534291177322 -1.7865247970312555e-14
  outer loop
    vertex 4.218504555266275 2.9592610180092342 1.9999999999998765
    vertex -0.17211004035729865 3.0016363112825877 -2.685510480660014e-13
    vertex -0.17211004035706765 3.0016363112824536 1.999999999999831
  endloop
endfacet
facet normal -0.011292675428689945 0.9999362357078887 -1.7897860735490475e-14
  outer loop
    vertex -0.17211004035729865 3.0016363112825877 -2.685510480660014e-13
    vertex -4.562649142829011 2.9520522165465772 1.9999999999999243
    vertex -0.17211004035706765 3.0016363112824536 1.999999999999831
  endloop
endfacet
facet normal -0.011292675428689945 0.9999362357078887 -1.7897860735490475e-14
  outer loop
    vertex -4.562649142829011 2.9520522165465772 1.9999999999999243
    vertex -0.17211004035729865 3.0016363112825877 -2.685510480660014e-13
    vertex -4.562649142829242 2.9520522165467287 -1.7542447494633962e-13
  endloop
endfacet
facet normal -0.07405690764957934 0.9972540170033821 -1.7902123630629072e-14
  outer loop
    vertex -13.335798403929148 2.577133186823168 -3.609557097661309e-14
    vertex -17.714560369336866 2.251962703713807 1.9999999999998326
    vertex -13.335798403928825 2.577133186823002 1.9999999999999019
  endloop
endfacet
facet normal -0.07405690764957934 0.9972540170033821 -1.7902123630629072e-14
  outer loop
    vertex -17.714560369336866 2.251962703713807 1.9999999999998326
    vertex -13.335798403929148 2.577133186823168 -3.609557097661309e-14
    vertex -17.71456036933728 2.251962703714031 -1.7470256352680735e-13
  endloop
endfacet
facet normal -0.11575261105537707 0.9932780743748765 -1.791722537242316e-14
  outer loop
    vertex -26.446856463747718 1.3269128910408885 -3.6023379834659863e-13
    vertex -22.085552143094706 1.8351616642159563 2.0000000000000173
    vertex -22.085552143094542 1.8351616642158797 1.0251142157358117e-13
  endloop
endfacet
facet normal -0.11575261105537707 0.9932780743748765 -1.791722537242316e-14
  outer loop
    vertex -22.085552143094706 1.8351616642159563 2.0000000000000173
    vertex -26.446856463747718 1.3269128910408885 -3.6023379834659863e-13
    vertex -26.446856463747196 1.326912891040682 1.9999999999998321
  endloop
endfacet
facet normal -0.1572452450482756 0.9875595844857705 -1.7865371054087668e-14
  outer loop
    vertex -30.796560319079177 0.7274393188984138 -3.6023379834659863e-13
    vertex -35.132755785218684 0.03700389671007356 2.000000000000039
    vertex -30.796560319079003 0.7274393188983228 1.9999999999998548
  endloop
endfacet
facet normal -0.1572452450482756 0.9875595844857705 -1.7865371054087668e-14
  outer loop
    vertex -35.132755785218684 0.03700389671007356 2.000000000000039
    vertex -30.796560319079177 0.7274393188984138 -3.6023379834659863e-13
    vertex -35.132755785219146 0.037003896710366656 8.66293703438714e-15
  endloop
endfacet
facet normal -0.1778926460456369 0.9840499004028616 -1.786117867730306e-14
  outer loop
    vertex -35.132755785219146 0.037003896710366656 8.66293703438714e-15
    vertex -39.45354086352341 -0.7440905277284151 1.9999999999998535
    vertex -35.132755785218684 0.03700389671007356 2.000000000000039
  endloop
endfacet
facet normal -0.1778926460456369 0.9840499004028616 -1.786117867730306e-14
  outer loop
    vertex -39.45354086352341 -0.7440905277284151 1.9999999999998535
    vertex -35.132755785219146 0.037003896710366656 8.66293703438714e-15
    vertex -39.45354086352357 -0.7440905277283298 -2.6927295948553364e-13
  endloop
endfacet
facet normal -0.15562357960430706 -0.9878164310595072 1.9145044235059183e-14
  outer loop
    vertex 30.02022037802084 -2.1904517441792466 1.9999999999994467
    vertex 34.29547840852092 -2.863988787620361 -4.006608378404053e-13
    vertex 34.29547840852125 -2.8639887876205288 1.9999999999993525
  endloop
endfacet
facet normal -0.15562357960430706 -0.9878164310595072 1.9145044235059183e-14
  outer loop
    vertex 34.29547840852092 -2.863988787620361 -4.006608378404053e-13
    vertex 30.02022037802084 -2.1904517441792466 1.9999999999994467
    vertex 30.020220378020678 -2.1904517441791604 -2.829892764566466e-13
  endloop
endfacet
facet normal -0.19846201744915798 0.9801085795104592 -1.7802089757881814e-14
  outer loop
    vertex -39.45354086352357 -0.7440905277283298 -2.6927295948553364e-13
    vertex -43.757020314852305 -1.6155013405880554 1.9999999999998062
    vertex -39.45354086352341 -0.7440905277284151 1.9999999999998535
  endloop
endfacet
facet normal -0.19846201744915798 0.9801085795104592 -1.7802089757881814e-14
  outer loop
    vertex -43.757020314852305 -1.6155013405880554 1.9999999999998062
    vertex -39.45354086352357 -0.7440905277283298 -2.6927295948553364e-13
    vertex -43.75702031485253 -1.6155013405879306 -1.775902092049364e-13
  endloop
endfacet
facet normal 0.0724194372473168 0.9973742653130679 -1.770153446789229e-14
  outer loop
    vertex 17.37154751689394 2.2807662976996905 -3.883883437083568e-13
    vertex 12.992257562914357 2.5987469445236817 1.9999999999999436
    vertex 17.37154751689435 2.280766297699471 1.9999999999997573
  endloop
endfacet
facet normal 0.0724194372473168 0.9973742653130679 -1.770153446789229e-14
  outer loop
    vertex 12.992257562914357 2.5987469445236817 1.9999999999999436
    vertex 17.37154751689394 2.2807662976996905 -3.883883437083568e-13
    vertex 12.992257562914196 2.598746944523777 -2.2523636289406566e-13
  endloop
endfacet
facet normal 0.25802599088157385 0.9661379756688908 6.0243706600662e-13
  outer loop
    vertex 51.971114388216094 -3.54209971210967 1.0828671292983927e-14
    vertex 52.345732307660235 -3.6421487344034085 2.000000000000457
    vertex 54.036473765081496 -4.093694218445734 4.714081569545669e-13
  endloop
endfacet
facet normal 0.25802599088157385 0.9661379756688908 6.0243706600662e-13
  outer loop
    vertex 52.345732307660235 -3.6421487344034085 2.000000000000457
    vertex 51.971114388216094 -3.54209971210967 1.0828671292983927e-14
    vertex 51.971114388216584 -3.5420997121099305 2.0000000000000644
  endloop
endfacet
facet normal 0.25802599088157385 0.9661379756688908 6.0243706600662e-13
  outer loop
    vertex 54.036473765081496 -4.093694218445734 4.714081569545669e-13
    vertex 52.34573230765923 -3.64214873440544 3.6399999999472055
    vertex 54.03647376508083 -4.093694218447934 3.6399999999472503
  endloop
endfacet
facet normal 0.25802599088157385 0.9661379756688908 6.0243706600662e-13
  outer loop
    vertex 52.34573230765923 -3.64214873440544 3.6399999999472055
    vertex 54.036473765081496 -4.093694218445734 4.714081569545669e-13
    vertex 52.345732307660235 -3.6421487344034085 2.000000000000457
  endloop
endfacet
facet normal 0.19685253009945414 0.9804331090867157 -1.7264588452055503e-14
  outer loop
    vertex 43.42032226877685 -1.5439339615929195 -1.227249413204845e-13
    vertex 39.11541786679264 -0.6795901164975873 1.9999999999999332
    vertex 43.42032226877718 -1.5439339615930872 2.0000000000000235
  endloop
endfacet
facet normal 0.19685253009945414 0.9804331090867157 -1.7264588452055503e-14
  outer loop
    vertex 39.11541786679264 -0.6795901164975873 1.9999999999999332
    vertex 43.42032226877685 -1.5439339615929195 -1.227249413204845e-13
    vertex 39.115417866792484 -0.6795901164974919 -1.8914079191745258e-13
  endloop
endfacet
facet normal 0.05151612382290875 0.9986721629174726 -1.7746272497796534e-14
  outer loop
    vertex 12.992257562914196 2.598746944523777 -2.2523636289406566e-13
    vertex 8.607268775369532 2.8249449239299196 1.9999999999996676
    vertex 12.992257562914357 2.5987469445236817 1.9999999999999436
  endloop
endfacet
facet normal 0.05151612382290875 0.9986721629174726 -1.7746272497796534e-14
  outer loop
    vertex 8.607268775369532 2.8249449239299196 1.9999999999996676
    vertex 12.992257562914196 2.598746944523777 -2.2523636289406566e-13
    vertex 8.607268775369375 2.8249449239300293 -4.548041943053249e-13
  endloop
endfacet
facet normal 6.056711278016091e-14 -1.4938141852900619e-13 1.0
  outer loop
    vertex 51.971114388216584 -3.5420997121099305 2.0000000000000644
    vertex 51.914645154099254 -6.6319947925115725 2.000000000000128
    vertex 52.345732307660235 -3.6421487344034085 2.000000000000457
  endloop
endfacet
facet normal 6.056711278016091e-14 -1.4938141852900619e-13 1.0
  outer loop
    vertex 51.914645154099254 -6.6319947925115725 2.000000000000128
    vertex 51.971114388216584 -3.5420997121099305 2.0000000000000644
    vertex 50.37377791717027 -3.1511463943380096 2.000000000000481
  endloop
endfacet
facet normal 6.056711278016091e-14 -1.4938141852900619e-13 1.0
  outer loop
    vertex 51.914645154099254 -6.6319947925115725 2.000000000000128
    vertex 50.37377791717027 -3.1511463943380096 2.000000000000481
    vertex 51.22743042367985 -6.448460694659783 1.9999999999995044
  endloop
endfacet
facet normal 6.056711278016091e-14 -1.4938141852900619e-13 1.0
  outer loop
    vertex 51.22743042367985 -6.448460694659783 1.9999999999995044
    vertex 50.37377791717027 -3.1511463943380096 2.000000000000481
    vertex 49.660608619740714 -6.064975941315439 2.000000000000314
  endloop
endfacet
facet normal -0.23933062003365735 0.9709381310435312 5.223053322391244e-14
  outer loop
    vertex -48.04130649089024 -2.5768463122843572 -4.562480171443894e-13
    vertex -48.97693174102364 -2.8074725119094572 2.0000000000003824
    vertex -48.04130649089008 -2.576846312284442 1.9999999999997127
  endloop
endfacet
facet normal -0.23933062003365735 0.9709381310435312 5.223053322391244e-14
  outer loop
    vertex -48.97693174102364 -2.8074725119094572 2.0000000000003824
    vertex -48.04130649089024 -2.5768463122843572 -4.562480171443894e-13
    vertex -48.97693174102364 -2.8074725119094537 2.829892764566466e-13
  endloop
endfacet
facet normal -1.8003866676696403e-16 -1.733725290899506e-14 1.0
  outer loop
    vertex -49.19623138891301 -2.857793485487506 2.0000000000000586
    vertex -48.97693174102364 -2.8074725119094572 2.0000000000003824
    vertex -48.97697657198791 -2.8072878662848306 1.9999999999999896
  endloop
endfacet
facet normal -1.8003866676696403e-16 -1.733725290899506e-14 1.0
  outer loop
    vertex 47.706181082359905 -2.4982433573441973 2.0000000000001132
    vertex 47.96078151473786 -5.648937706175185 2.0000000000000147
    vertex 48.67395081216695 -2.7351081591974573 2.0000000000002975
  endloop
endfacet
facet normal -1.8003866676696403e-16 -1.733725290899506e-14 1.0
  outer loop
    vertex 47.96078151473786 -5.648937706175185 2.0000000000000147
    vertex 47.706181082359905 -2.4982433573441973 2.0000000000001132
    vertex 43.42032226877718 -1.5439339615930872 2.0000000000000235
  endloop
endfacet
facet normal -1.8003866676696403e-16 -1.733725290899506e-14 1.0
  outer loop
    vertex 47.96078151473786 -5.648937706175185 2.0000000000000147
    vertex 43.42032226877718 -1.5439339615930872 2.0000000000000235
    vertex 39.11541786679264 -0.6795901164975873 1.9999999999999332
  endloop
endfacet
facet normal -1.8003866676696403e-16 -1.733725290899506e-14 1.0
  outer loop
    vertex 47.96078151473786 -5.648937706175185 2.0000000000000147
    vertex 39.11541786679264 -0.6795901164975873 1.9999999999999332
    vertex 34.79335614975371 0.09440904816580518 2.0000000000000973
  endloop
endfacet
facet normal -1.8003866676696403e-16 -1.733725290899506e-14 1.0
  outer loop
    vertex 47.96078151473786 -5.648937706175185 2.0000000000000147
    vertex 34.79335614975371 0.09440904816580518 2.0000000000000973
    vertex 47.02352645203638 -5.419541468749022 1.9999999999997613
  endloop
endfacet
facet normal -1.8003866676696403e-16 -1.733725290899506e-14 1.0
  outer loop
    vertex 47.02352645203638 -5.419541468749022 1.9999999999997613
    vertex 34.79335614975371 0.09440904816580518 2.0000000000000973
    vertex 42.79899640754911 -4.478887823950984 1.9999999999999718
  endloop
endfacet
facet normal -1.8003866676696403e-16 -1.733725290899506e-14 1.0
  outer loop
    vertex 42.79899640754911 -4.478887823950984 1.9999999999999718
    vertex 34.79335614975371 0.09440904816580518 2.0000000000000973
    vertex 30.456032916778323 0.7777240307810017 2.0000000000001688
  endloop
endfacet
facet normal -1.8003866676696403e-16 -1.733725290899506e-14 1.0
  outer loop
    vertex 42.79899640754911 -4.478887823950984 1.9999999999999718
    vertex 30.456032916778323 0.7777240307810017 2.0000000000001688
    vertex 38.555693308716876 -3.6269123620428365 1.999999999999535
  endloop
endfacet
facet normal -1.8003866676696403e-16 -1.733725290899506e-14 1.0
  outer loop
    vertex 38.555693308716876 -3.6269123620428365 1.999999999999535
    vertex 30.456032916778323 0.7777240307810017 2.0000000000001688
    vertex 26.10535066118231 1.3700551068148514 1.999999999999662
  endloop
endfacet
facet normal -1.8003866676696403e-16 -1.733725290899506e-14 1.0
  outer loop
    vertex 38.555693308716876 -3.6269123620428365 1.999999999999535
    vertex 26.10535066118231 1.3700551068148514 1.999999999999662
    vertex 34.29547840852125 -2.8639887876205288 1.9999999999993525
  endloop
endfacet
facet normal -1.8003866676696403e-16 -1.733725290899506e-14 1.0
  outer loop
    vertex 34.29547840852125 -2.8639887876205288 1.9999999999993525
    vertex 26.10535066118231 1.3700551068148514 1.999999999999662
    vertex 21.74321773599822 1.8711424602787525 1.9999999999998022
  endloop
endfacet
facet normal -1.8003866676696403e-16 -1.733725290899506e-14 1.0
  outer loop
    vertex 34.29547840852125 -2.8639887876205288 1.9999999999993525
    vertex 21.74321773599822 1.8711424602787525 1.9999999999998022
    vertex 30.02022037802084 -2.1904517441792466 1.9999999999994467
  endloop
endfacet
facet normal -1.8003866676696403e-16 -1.733725290899506e-14 1.0
  outer loop
    vertex 30.02022037802084 -2.1904517441792466 1.9999999999994467
    vertex 21.74321773599822 1.8711424602787525 1.9999999999998022
    vertex 25.731794486684176 -1.6065966673258965 1.9999999999993792
  endloop
endfacet
facet normal -1.8003866676696403e-16 -1.733725290899506e-14 1.0
  outer loop
    vertex 25.731794486684176 -1.6065966673258965 1.9999999999993792
    vertex 21.74321773599822 1.8711424602787525 1.9999999999998022
    vertex 17.37154751689435 2.280766297699471 1.9999999999997573
  endloop
endfacet
facet normal -1.8003866676696403e-16 -1.733725290899506e-14 1.0
  outer loop
    vertex 25.731794486684176 -1.6065966673258965 1.9999999999993792
    vertex 17.37154751689435 2.280766297699471 1.9999999999997573
    vertex 21.432081779841173 -1.1126796551939893 1.9999999999996811
  endloop
endfacet
facet normal -1.8003866676696403e-16 -1.733725290899506e-14 1.0
  outer loop
    vertex 21.432081779841173 -1.1126796551939893 1.9999999999996811
    vertex 17.37154751689435 2.280766297699471 1.9999999999997573
    vertex 12.992257562914357 2.5987469445236817 1.9999999999999436
  endloop
endfacet
facet normal -1.8003866676696403e-16 -1.733725290899506e-14 1.0
  outer loop
    vertex 21.432081779841173 -1.1126796551939893 1.9999999999996811
    vertex 12.992257562914357 2.5987469445236817 1.9999999999999436
    vertex 17.122968253593097 -0.7089173561095287 1.9999999999996596
  endloop
endfacet
facet normal -1.8003866676696403e-16 -1.733725290899506e-14 1.0
  outer loop
    vertex 17.122968253593097 -0.7089173561095287 1.9999999999996596
    vertex 12.992257562914357 2.5987469445236817 1.9999999999999436
    vertex 8.607268775369532 2.8249449239299196 1.9999999999996676
  endloop
endfacet
facet normal -1.8003866676696403e-16 -1.733725290899506e-14 1.0
  outer loop
    vertex 17.122968253593097 -0.7089173561095287 1.9999999999996596
    vertex 8.607268775369532 2.8249449239299196 1.9999999999996676
    vertex 12.806344027550177 -0.3954868735614696 1.9999999999996145
  endloop
endfacet
facet normal -1.8003866676696403e-16 -1.733725290899506e-14 1.0
  outer loop
    vertex 12.806344027550177 -0.3954868735614696 1.9999999999996145
    vertex 8.607268775369532 2.8249449239299196 1.9999999999996676
    vertex 4.218504555266275 2.9592610180092342 1.9999999999998765
  endloop
endfacet
facet normal -1.8003866676696403e-16 -1.733725290899506e-14 1.0
  outer loop
    vertex 12.806344027550177 -0.3954868735614696 1.9999999999996145
    vertex 4.218504555266275 2.9592610180092342 1.9999999999998765
    vertex 8.484102515762837 -0.17252568851822625 1.9999999999993152
  endloop
endfacet
facet normal -1.8003866676696403e-16 -1.733725290899506e-14 1.0
  outer loop
    vertex 8.484102515762837 -0.17252568851822625 1.9999999999993152
    vertex 4.218504555266275 2.9592610180092342 1.9999999999998765
    vertex -0.17211004035706765 3.0016363112824536 1.999999999999831
  endloop
endfacet
facet normal -1.8003866676696403e-16 -1.733725290899506e-14 1.0
  outer loop
    vertex 8.484102515762837 -0.17252568851822625 1.9999999999993152
    vertex -0.17211004035706765 3.0016363112824536 1.999999999999831
    vertex 4.158139596210704 -0.04013159912465155 1.9999999999998246
  endloop
endfacet
facet normal -1.8003866676696403e-16 -1.733725290899506e-14 1.0
  outer loop
    vertex 4.158139596210704 -0.04013159912465155 1.9999999999998246
    vertex -0.17211004035706765 3.0016363112824536 1.999999999999831
    vertex -4.562649142829011 2.9520522165465772 1.9999999999999243
  endloop
endfacet
facet normal -1.8003866676696403e-16 -1.733725290899506e-14 1.0
  outer loop
    vertex 4.158139596210704 -0.04013159912465155 1.9999999999998246
    vertex -4.562649142829011 2.9520522165465772 1.9999999999999243
    vertex -0.16964722079750516 0.0016373221966551 1.9999999999995943
  endloop
endfacet
facet normal -1.8003866676696403e-16 -1.733725290899506e-14 1.0
  outer loop
    vertex -0.16964722079750516 0.0016373221966551 1.9999999999995943
    vertex -4.562649142829011 2.9520522165465772 1.9999999999999243
    vertex -8.951186916590588 2.8105304830238933 1.9999999999999707
  endloop
endfacet
facet normal -1.8003866676696403e-16 -1.733725290899506e-14 1.0
  outer loop
    vertex -0.16964722079750516 0.0016373221966551 1.9999999999995943
    vertex -8.951186916590588 2.8105304830238933 1.9999999999999707
    vertex -4.497359624926116 -0.04723724578487365 1.9999999999994102
  endloop
endfacet
facet normal -1.8003866676696403e-16 -1.733725290899506e-14 1.0
  outer loop
    vertex -4.497359624926116 -0.04723724578487365 1.9999999999994102
    vertex -8.951186916590588 2.8105304830238933 1.9999999999999707
    vertex -13.335798403928825 2.577133186823002 1.9999999999999019
  endloop
endfacet
facet normal -1.8003866676696403e-16 -1.733725290899506e-14 1.0
  outer loop
    vertex -4.497359624926116 -0.04723724578487365 1.9999999999994102
    vertex -13.335798403928825 2.577133186823002 1.9999999999999019
    vertex -8.82309933848536 -0.18673386506702844 1.9999999999996416
  endloop
endfacet
facet normal -1.8003866676696403e-16 -1.733725290899506e-14 1.0
  outer loop
    vertex -8.82309933848536 -0.18673386506702844 1.9999999999996416
    vertex -13.335798403928825 2.577133186823002 1.9999999999999019
    vertex -17.714560369336866 2.251962703713807 1.9999999999998326
  endloop
endfacet
facet normal -1.8003866676696403e-16 -1.733725290899506e-14 1.0
  outer loop
    vertex -8.82309933848536 -0.18673386506702844 1.9999999999996416
    vertex -17.714560369336866 2.251962703713807 1.9999999999998326
    vertex -13.144968949068643 -0.4167913478228508 1.99999999999985
  endloop
endfacet
facet normal -1.8003866676696403e-16 -1.733725290899506e-14 1.0
  outer loop
    vertex -13.144968949068643 -0.4167913478228508 1.99999999999985
    vertex -17.714560369336866 2.251962703713807 1.9999999999998326
    vertex -22.085552143094706 1.8351616642159563 2.0000000000000173
  endloop
endfacet
facet normal -1.8003866676696403e-16 -1.733725290899506e-14 1.0
  outer loop
    vertex -13.144968949068643 -0.4167913478228508 1.99999999999985
    vertex -22.085552143094706 1.8351616642159563 2.0000000000000173
    vertex -17.461072741826065 -0.7373087832364427 1.9999999999996187
  endloop
endfacet
facet normal -1.8003866676696403e-16 -1.733725290899506e-14 1.0
  outer loop
    vertex -17.461072741826065 -0.7373087832364427 1.9999999999996187
    vertex -22.085552143094706 1.8351616642159563 2.0000000000000173
    vertex -26.446856463747196 1.326912891040682 1.9999999999998321
  endloop
endfacet
facet normal -1.8003866676696403e-16 -1.733725290899506e-14 1.0
  outer loop
    vertex -17.461072741826065 -0.7373087832364427 1.9999999999996187
    vertex -26.446856463747196 1.326912891040682 1.9999999999998321
    vertex -21.769517530983606 -1.1481455817690904 1.9999999999995495
  endloop
endfacet
facet normal -1.8003866676696403e-16 -1.733725290899506e-14 1.0
  outer loop
    vertex -21.769517530983606 -1.1481455817690904 1.9999999999995495
    vertex -26.446856463747196 1.326912891040682 1.9999999999998321
    vertex -30.796560319079003 0.7274393188983228 1.9999999999998548
  endloop
endfacet
facet normal -1.8003866676696403e-16 -1.733725290899506e-14 1.0
  outer loop
    vertex -21.769517530983606 -1.1481455817690904 1.9999999999995495
    vertex -30.796560319079003 0.7274393188983228 1.9999999999998548
    vertex -26.068413490263435 -1.6491215368209673 1.9999999999996185
  endloop
endfacet
facet normal -1.8003866676696403e-16 -1.733725290899506e-14 1.0
  outer loop
    vertex -26.068413490263435 -1.6491215368209673 1.9999999999996185
    vertex -30.796560319079003 0.7274393188983228 1.9999999999998548
    vertex -35.132755785218684 0.03700389671007356 2.000000000000039
  endloop
endfacet
facet normal -1.8003866676696403e-16 -1.733725290899506e-14 1.0
  outer loop
    vertex -26.068413490263435 -1.6491215368209673 1.9999999999996185
    vertex -35.132755785218684 0.03700389671007356 2.000000000000039
    vertex -30.355874981818108 -2.24001690378084 1.9999999999996874
  endloop
endfacet
facet normal -1.8003866676696403e-16 -1.733725290899506e-14 1.0
  outer loop
    vertex -30.355874981818108 -2.24001690378084 1.9999999999996874
    vertex -35.132755785218684 0.03700389671007356 2.000000000000039
    vertex -34.63002138333307 -2.9205724964126936 1.9999999999994094
  endloop
endfacet
facet normal -1.8003866676696403e-16 -1.733725290899506e-14 1.0
  outer loop
    vertex -34.63002138333307 -2.9205724964126936 1.9999999999994094
    vertex -35.132755785218684 0.03700389671007356 2.000000000000039
    vertex -39.45354086352341 -0.7440905277284151 1.9999999999998535
  endloop
endfacet
facet normal -1.8003866676696403e-16 -1.733725290899506e-14 1.0
  outer loop
    vertex -34.63002138333307 -2.9205724964126936 1.9999999999994094
    vertex -39.45354086352341 -0.7440905277284151 1.9999999999998535
    vertex -38.88897791293834 -3.6904898005394533 1.9999999999993163
  endloop
endfacet
facet normal -1.8003866676696403e-16 -1.733725290899506e-14 1.0
  outer loop
    vertex -38.88897791293834 -3.6904898005394533 1.9999999999993163
    vertex -39.45354086352341 -0.7440905277284151 1.9999999999998535
    vertex -43.757020314852305 -1.6155013405880554 1.9999999999998062
  endloop
endfacet
facet normal -1.8003866676696403e-16 -1.733725290899506e-14 1.0
  outer loop
    vertex -38.88897791293834 -3.6904898005394533 1.9999999999993163
    vertex -43.757020314852305 -1.6155013405880554 1.9999999999998062
    vertex -43.130876451536565 -4.549431104986897 1.9999999999993383
  endloop
endfacet
facet normal -1.8003866676696403e-16 -1.733725290899506e-14 1.0
  outer loop
    vertex -43.130876451536565 -4.549431104986897 1.9999999999993383
    vertex -43.757020314852305 -1.6155013405880554 1.9999999999998062
    vertex -48.04130649089008 -2.576846312284442 1.9999999999997127
  endloop
endfacet
facet normal -1.8003866676696403e-16 -1.733725290899506e-14 1.0
  outer loop
    vertex -43.130876451536565 -4.549431104986897 1.9999999999993383
    vertex -48.04130649089008 -2.576846312284442 1.9999999999997127
    vertex -47.353856362234204 -5.497019649710558 1.9999999999994065
  endloop
endfacet
facet normal -1.8003866676696403e-16 -1.733725290899506e-14 1.0
  outer loop
    vertex -47.353856362234204 -5.497019649710558 1.9999999999994065
    vertex -48.04130649089008 -2.576846312284442 1.9999999999997127
    vertex -48.97693174102364 -2.8074725119094572 2.0000000000003824
  endloop
endfacet
facet normal -1.8003866676696403e-16 -1.733725290899506e-14 1.0
  outer loop
    vertex -47.353856362234204 -5.497019649710558 1.9999999999994065
    vertex -48.97693174102364 -2.8074725119094572 2.0000000000003824
    vertex -49.19623138891301 -2.857793485487506 2.0000000000000586
  endloop
endfacet
facet normal -1.8003866676696403e-16 -1.733725290899506e-14 1.0
  outer loop
    vertex -47.353856362234204 -5.497019649710558 1.9999999999994065
    vertex -49.19623138891301 -2.857793485487506 2.0000000000000586
    vertex -53.453418706183406 -3.9328043405327455 1.9999999999998264
  endloop
endfacet
facet normal -1.8003866676696403e-16 -1.733725290899506e-14 1.0
  outer loop
    vertex -47.353856362234204 -5.497019649710558 1.9999999999994065
    vertex -53.453418706183406 -3.9328043405327455 1.9999999999998264
    vertex -48.269146372947546 -5.7226333307170405 1.9999999999996838
  endloop
endfacet
facet normal -1.8003866676696403e-16 -1.733725290899506e-14 1.0
  outer loop
    vertex -48.269146372947546 -5.7226333307170405 1.9999999999996838
    vertex -53.453418706183406 -3.9328043405327455 1.9999999999998264
    vertex -48.49223638509215 -5.774022391898825 1.9999999999994986
  endloop
endfacet
facet normal -1.8003866676696403e-16 -1.733725290899506e-14 1.0
  outer loop
    vertex -48.49223638509215 -5.774022391898825 1.9999999999994986
    vertex -53.453418706183406 -3.9328043405327455 1.9999999999998264
    vertex -52.68850520986425 -6.833650310789061 1.9999999999995437
  endloop
endfacet
facet normal -1.8003866676696403e-16 -1.733725290899506e-14 1.0
  outer loop
    vertex -52.68850520986425 -6.833650310789061 1.9999999999995437
    vertex -53.453418706183406 -3.9328043405327455 1.9999999999998264
    vertex -54.38257559312454 -4.1882461775335456 2.000000000000519
  endloop
endfacet
facet normal -1.8003866676696403e-16 -1.733725290899506e-14 1.0
  outer loop
    vertex -52.68850520986425 -6.833650310789061 1.9999999999995437
    vertex -54.38257559312454 -4.1882461775335456 2.000000000000519
    vertex -53.59746744328159 -7.083540276553949 1.9999999999998899
  endloop
endfacet
facet normal 0.9717676357875733 0.23593995430157716 -3.3741843678793516e-14
  outer loop
    vertex -48.97693174102364 -2.8074725119094537 2.829892764566466e-13
    vertex -48.97697657198791 -2.8072878662848306 1.9999999999999896
    vertex -48.97693174102364 -2.8074725119094572 2.0000000000003824
  endloop
endfacet
facet normal 0.9717676357875733 0.23593995430157716 -3.3741843678793516e-14
  outer loop
    vertex -48.97697657198791 -2.8072878662848306 1.9999999999999896
    vertex -48.97693174102364 -2.8074725119094537 2.829892764566466e-13
    vertex -48.97697657198814 -2.8072878662844576 1.4438228390645236e-13
  endloop
endfacet
facet normal -0.22447276126175209 0.9744803638101306 1.6379242084898977e-13
  outer loop
    vertex -48.97697657198814 -2.8072878662844576 1.4438228390645236e-13
    vertex -49.19623138891301 -2.857793485487506 2.0000000000000586
    vertex -48.97697657198791 -2.8072878662848306 1.9999999999999896
  endloop
endfacet
facet normal -0.22447276126175209 0.9744803638101306 1.6379242084898977e-13
  outer loop
    vertex -49.19623138891301 -2.857793485487506 2.0000000000000586
    vertex -48.97697657198814 -2.8072878662844576 1.4438228390645236e-13
    vertex -49.19623138891322 -2.8577934854871385 2.1368578018154948e-13
  endloop
endfacet
facet normal -0.2448315076236675 0.9695656413439587 1.6430807577188748e-13
  outer loop
    vertex -49.19623138891322 -2.8577934854871385 2.1368578018154948e-13
    vertex -53.453418706183406 -3.9328043405327455 1.9999999999998264
    vertex -49.19623138891301 -2.857793485487506 2.0000000000000586
  endloop
endfacet
facet normal -0.2448315076236675 0.9695656413439587 1.6430807577188748e-13
  outer loop
    vertex -53.453418706183406 -3.9328043405327455 1.9999999999998264
    vertex -49.19623138891322 -2.8577934854871385 2.1368578018154948e-13
    vertex -53.45341870618364 -3.932804340532366 4.33146851719357e-15
  endloop
endfacet
facet normal -0.2650828627941961 0.9642256353431149 1.647537230188758e-13
  outer loop
    vertex -53.45341870618364 -3.932804340532366 4.33146851719357e-15
    vertex -54.38257559312454 -4.1882461775335456 2.000000000000519
    vertex -53.453418706183406 -3.9328043405327455 1.9999999999998264
  endloop
endfacet
facet normal -0.2650828627941961 0.9642256353431149 1.647537230188758e-13
  outer loop
    vertex -54.38257559312454 -4.1882461775335456 2.000000000000519
    vertex -53.45341870618364 -3.932804340532366 4.33146851719357e-15
    vertex -54.382575593124685 -4.188246177533236 6.966445198486326e-13
  endloop
endfacet
facet normal -0.9651450728160875 -0.26171547225723824 2.0631418109616975e-14
  outer loop
    vertex -54.382575593124685 -4.188246177533236 6.966445198486326e-13
    vertex -53.59746744328159 -7.083540276553949 1.9999999999998899
    vertex -54.38257559312454 -4.1882461775335456 2.000000000000519
  endloop
endfacet
facet normal -0.9651450728160875 -0.26171547225723824 2.0631418109616975e-14
  outer loop
    vertex -53.59746744328159 -7.083540276553949 1.9999999999998899
    vertex -54.382575593124685 -4.188246177533236 6.966445198486326e-13
    vertex -53.597467443281744 -7.083540276553616 9.023892744153272e-14
  endloop
endfacet
facet normal 0.2650828627936771 -0.9642256353432574 -1.6478147859449136e-13
  outer loop
    vertex -53.59746744328159 -7.083540276553949 1.9999999999998899
    vertex -52.68850520986449 -6.8336503107886815 -2.3245547708938827e-13
    vertex -52.68850520986425 -6.833650310789061 1.9999999999995437
  endloop
endfacet
facet normal 0.2650828627936771 -0.9642256353432574 -1.6478147859449136e-13
  outer loop
    vertex -52.68850520986449 -6.8336503107886815 -2.3245547708938827e-13
    vertex -53.59746744328159 -7.083540276553949 1.9999999999998899
    vertex -53.597467443281744 -7.083540276553616 9.023892744153272e-14
  endloop
endfacet
facet normal 0.24483150762401462 -0.9695656413438711 -1.6432195355969532e-13
  outer loop
    vertex -52.68850520986425 -6.833650310789061 1.9999999999995437
    vertex -48.49223638509229 -5.774022391898486 -2.772139851003885e-13
    vertex -48.49223638509215 -5.774022391898825 1.9999999999994986
  endloop
endfacet
facet normal 0.24483150762401462 -0.9695656413438711 -1.6432195355969532e-13
  outer loop
    vertex -48.49223638509229 -5.774022391898486 -2.772139851003885e-13
    vertex -52.68850520986425 -6.833650310789061 1.9999999999995437
    vertex -52.68850520986449 -6.8336503107886815 -2.3245547708938827e-13
  endloop
endfacet
facet normal 0.23933062003324795 -0.970938131043632 3.055047104970082e-14
  outer loop
    vertex -47.353856362234204 -5.497019649710558 1.9999999999994065
    vertex -48.269146372947546 -5.722633330717036 0.0
    vertex -47.35385636223396 -5.497019649710681 -3.003151505254209e-13
  endloop
endfacet
facet normal 0.23933062003324795 -0.970938131043632 3.055047104970082e-14
  outer loop
    vertex -48.269146372947546 -5.722633330717036 0.0
    vertex -47.353856362234204 -5.497019649710558 1.9999999999994065
    vertex -48.269146372947546 -5.7226333307170405 1.9999999999996838
  endloop
endfacet
facet normal 0.22447276126214305 -0.9744803638100406 -8.689559860588992e-14
  outer loop
    vertex -48.49223638509215 -5.774022391898825 1.9999999999994986
    vertex -48.269146372947546 -5.722633330717036 0.0
    vertex -48.269146372947546 -5.7226333307170405 1.9999999999996838
  endloop
endfacet
facet normal 0.22447276126214305 -0.9744803638100406 -8.689559860588992e-14
  outer loop
    vertex -48.269146372947546 -5.722633330717036 0.0
    vertex -48.49223638509215 -5.774022391898825 1.9999999999994986
    vertex -48.49223638509229 -5.774022391898486 -2.772139851003885e-13
  endloop
endfacet
endsolid working_stargate_mk2_ring_4
Working Stargate Mk2
www.glitch.org.uk