solid working_stargate_mk2_ring_1
facet normal 0.9615309949845081 -0.2746964609966826 -6.06725667511406e-14
  outer loop
    vertex -54.31547059413822 -7.272284172672105 3.6399999999464177
    vertex -53.35190627310659 -3.899481490862517 1.9999999999998253
    vertex -53.351906273106636 -3.8994814908633026 3.6399999999471513
  endloop
endfacet
facet normal 0.9615309949845081 -0.2746964609966826 -6.06725667511406e-14
  outer loop
    vertex -53.35190627310659 -3.899481490862517 1.9999999999998253
    vertex -54.31547059413822 -7.272284172672105 3.6399999999464177
    vertex -54.31547059413857 -7.2722841726731335 1.9999999999998304
  endloop
endfacet
facet normal -0.9615309949844588 0.27469646099685524 -2.9588565150885005e-14
  outer loop
    vertex -55.05416369139831 -4.364329207360165 -2.0069137462996876e-13
    vertex -56.01772801243079 -7.737131889169165 3.639999999946607
    vertex -55.0541636913978 -4.364329207363977 3.6399999999471557
  endloop
endfacet
facet normal -0.9615309949844588 0.27469646099685524 -2.9588565150885005e-14
  outer loop
    vertex -56.01772801243079 -7.737131889169165 3.639999999946607
    vertex -55.05416369139831 -4.364329207360165 -2.0069137462996876e-13
    vertex -56.017728012430815 -7.737131889170932 -1.4871375242364593e-13
  endloop
endfacet
facet normal -0.9615309949845596 0.27469646099650274 -5.091216450621051e-13
  outer loop
    vertex -51.418391171823856 -3.409067354528457 1.9999999999999118
    vertex -52.37030946724589 -6.741104987703318 3.680908106231538
    vertex -51.41839117182499 -3.409067354526632 3.6809081062316706
  endloop
endfacet
facet normal -0.9615309949845596 0.27469646099650274 -5.091216450621051e-13
  outer loop
    vertex -52.37030946724589 -6.741104987703318 3.680908106231538
    vertex -51.418391171823856 -3.409067354528457 1.9999999999999118
    vertex -52.37030946724598 -6.741104987703988 1.9999999999998253
  endloop
endfacet
facet normal -7.024019452605561e-14 4.14280938884649e-14 1.0
  outer loop
    vertex -54.31547059413857 -7.2722841726731335 1.9999999999998304
    vertex -53.0977051834833 -3.8300649650345684 1.9999999999993856
    vertex -53.35190627310659 -3.899481490862517 1.9999999999998253
  endloop
endfacet
facet normal -7.024019452605561e-14 4.14280938884649e-14 1.0
  outer loop
    vertex -53.0977051834833 -3.8300649650345684 1.9999999999993856
    vertex -54.31547059413857 -7.2722841726731335 1.9999999999998304
    vertex -51.418391171823856 -3.409067354528457 1.9999999999999118
  endloop
endfacet
facet normal -7.024019452605561e-14 4.14280938884649e-14 1.0
  outer loop
    vertex -51.418391171823856 -3.409067354528457 1.9999999999999118
    vertex -54.31547059413857 -7.2722841726731335 1.9999999999998304
    vertex -52.37030946724598 -6.741104987703988 1.9999999999998253
  endloop
endfacet
facet normal -7.320609034438229e-16 8.149970988023044e-15 1.0
  outer loop
    vertex -50.679551702544174 -6.316509968012118 1.9999999999997509
    vertex -48.83868355714238 -2.7623445057670524 1.9999999999995812
    vertex -49.72785758677039 -2.985257039812757 1.9999999999999538
  endloop
endfacet
facet normal -7.320609034438229e-16 8.149970988023044e-15 1.0
  outer loop
    vertex -48.83868355714238 -2.7623445057670524 1.9999999999995812
    vertex -50.679551702544174 -6.316509968012118 1.9999999999997509
    vertex -44.55823535444834 -1.7840524344311761 1.9999999999994773
  endloop
endfacet
facet normal -7.320609034438229e-16 8.149970988023044e-15 1.0
  outer loop
    vertex -44.55823535444834 -1.7840524344311761 1.9999999999994773
    vertex -50.679551702544174 -6.316509968012118 1.9999999999997509
    vertex -40.25823812145353 -0.8956178622626434 1.9999999999995575
  endloop
endfacet
facet normal -7.320609034438229e-16 8.149970988023044e-15 1.0
  outer loop
    vertex -40.25823812145353 -0.8956178622626434 1.9999999999995575
    vertex -50.679551702544174 -6.316509968012118 1.9999999999997509
    vertex -35.940577979061295 -0.09743048602823665 1.999999999999315
  endloop
endfacet
facet normal -7.320609034438229e-16 8.149970988023044e-15 1.0
  outer loop
    vertex -35.940577979061295 -0.09743048602823665 1.999999999999315
    vertex -50.679551702544174 -6.316509968012118 1.9999999999997509
    vertex -48.13968252214215 -5.679774462607126 1.9999999999997669
  endloop
endfacet
facet normal -7.320609034438229e-16 8.149970988023044e-15 1.0
  outer loop
    vertex -35.940577979061295 -0.09743048602823665 1.999999999999315
    vertex -48.13968252214215 -5.679774462607126 1.9999999999997669
    vertex -31.607148795709815 0.6101595829087169 1.9999999999993958
  endloop
endfacet
facet normal -7.320609034438229e-16 8.149970988023044e-15 1.0
  outer loop
    vertex -31.607148795709815 0.6101595829087169 1.9999999999993958
    vertex -48.13968252214215 -5.679774462607126 1.9999999999997669
    vertex -43.92048566506265 -4.715481323844671 1.99999999999994
  endloop
endfacet
facet normal -7.320609034438229e-16 8.149970988023044e-15 1.0
  outer loop
    vertex -31.607148795709815 0.6101595829087169 1.9999999999993958
    vertex -43.92048566506265 -4.715481323844671 1.99999999999994
    vertex -39.68201951577415 -3.839759862654063 1.9999999999996976
  endloop
endfacet
facet normal -7.320609034438229e-16 8.149970988023044e-15 1.0
  outer loop
    vertex -31.607148795709815 0.6101595829087169 1.9999999999993958
    vertex -39.68201951577415 -3.839759862654063 1.9999999999996976
    vertex -27.25985135665895 1.2268419721584003 1.9999999999995228
  endloop
endfacet
facet normal -7.320609034438229e-16 8.149970988023044e-15 1.0
  outer loop
    vertex -27.25985135665895 1.2268419721584003 1.9999999999995228
    vertex -39.68201951577415 -3.839759862654063 1.9999999999996976
    vertex -35.42614320561255 -3.0529941994111165 1.999999999999478
  endloop
endfacet
facet normal -7.320609034438229e-16 8.149970988023044e-15 1.0
  outer loop
    vertex -27.25985135665895 1.2268419721584003 1.9999999999995228
    vertex -35.42614320561255 -3.0529941994111165 1.999999999999478
    vertex -22.90059253024698 1.752346184442552 1.999999999999465
  endloop
endfacet
facet normal -7.320609034438229e-16 8.149970988023044e-15 1.0
  outer loop
    vertex -22.90059253024698 1.752346184442552 1.999999999999465
    vertex -35.42614320561255 -3.0529941994111165 1.999999999999478
    vertex -31.154723502585135 -2.355529435538699 1.9999999999996514
  endloop
endfacet
facet normal -7.320609034438229e-16 8.149970988023044e-15 1.0
  outer loop
    vertex -22.90059253024698 1.752346184442552 1.999999999999465
    vertex -31.154723502585135 -2.355529435538699 1.9999999999996514
    vertex -18.531284431467956 2.186441716246105 1.9999999999996845
  endloop
endfacet
facet normal -7.320609034438229e-16 8.149970988023044e-15 1.0
  outer loop
    vertex -18.531284431467956 2.186441716246105 1.9999999999996845
    vertex -31.154723502585135 -2.355529435538699 1.9999999999996514
    vertex -26.869633992545975 -1.7476715021334728 1.99999999999994
  endloop
endfacet
facet normal -7.320609034438229e-16 8.149970988023044e-15 1.0
  outer loop
    vertex -18.531284431467956 2.186441716246105 1.9999999999996845
    vertex -26.869633992545975 -1.7476715021334728 1.99999999999994
    vertex -14.15384358326215 2.5289381589217474 1.9999999999996267
  endloop
endfacet
facet normal -7.320609034438229e-16 8.149970988023044e-15 1.0
  outer loop
    vertex -14.15384358326215 2.5289381589217474 1.9999999999996267
    vertex -26.869633992545975 -1.7476715021334728 1.99999999999994
    vertex -22.572754257377508 -1.2296870257752979 1.9999999999997207
  endloop
endfacet
facet normal -7.320609034438229e-16 8.149970988023044e-15 1.0
  outer loop
    vertex -14.15384358326215 2.5289381589217474 1.9999999999996267
    vertex -22.572754257377508 -1.2296870257752979 1.9999999999997207
    vertex -18.265969050544076 -0.8018032115744439 1.9999999999995934
  endloop
endfacet
facet normal -7.320609034438229e-16 8.149970988023044e-15 1.0
  outer loop
    vertex -14.15384358326215 2.5289381589217474 1.9999999999996267
    vertex -18.265969050544076 -0.8018032115744439 1.9999999999995934
    vertex -9.770190075861725 2.77968528220983 1.9999999999997538
  endloop
endfacet
facet normal -7.320609034438229e-16 8.149970988023044e-15 1.0
  outer loop
    vertex -9.770190075861725 2.77968528220983 1.9999999999997538
    vertex -18.265969050544076 -0.8018032115744439 1.9999999999995934
    vertex -13.951167470378552 -0.46420774351373867 1.9999999999994673
  endloop
endfacet
facet normal -7.320609034438229e-16 8.149970988023044e-15 1.0
  outer loop
    vertex -9.770190075861725 2.77968528220983 1.9999999999997538
    vertex -13.951167470378552 -0.46420774351373867 1.9999999999994673
    vertex -5.3822467245755305 2.938573100134891 1.9999999999993265
  endloop
endfacet
facet normal -7.320609034438229e-16 8.149970988023044e-15 1.0
  outer loop
    vertex -5.3822467245755305 2.938573100134891 1.9999999999993265
    vertex -13.951167470378552 -0.46420774351373867 1.9999999999994673
    vertex -9.630242131459845 -0.21704870212346422 1.9999999999993863
  endloop
endfacet
facet normal -7.320609034438229e-16 8.149970988023044e-15 1.0
  outer loop
    vertex -5.3822467245755305 2.938573100134891 1.9999999999993265
    vertex -9.630242131459845 -0.21704870212346422 1.9999999999993863
    vertex -0.9919382263802895 3.005531919248986 1.999999999999592
  endloop
endfacet
facet normal -7.320609034438229e-16 8.149970988023044e-15 1.0
  outer loop
    vertex -0.9919382263802895 3.005531919248986 1.999999999999592
    vertex -9.630242131459845 -0.21704870212346422 1.9999999999993863
    vertex -5.305088334448456 -0.06043449952731416 1.9999999999997913
  endloop
endfacet
facet normal -7.320609034438229e-16 8.149970988023044e-15 1.0
  outer loop
    vertex -0.9919382263802895 3.005531919248986 1.999999999999592
    vertex -5.305088334448456 -0.06043449952731416 1.9999999999997913
    vertex 3.3988096843163818 2.980532369201058 1.9999999999995812
  endloop
endfacet
facet normal -7.320609034438229e-16 8.149970988023044e-15 1.0
  outer loop
    vertex 3.3988096843163818 2.980532369201058 1.9999999999995812
    vertex -5.305088334448456 -0.06043449952731416 1.9999999999997913
    vertex -0.9776032347486441 0.005566168108837792 1.9999999999995026
  endloop
endfacet
facet normal -7.320609034438229e-16 8.149970988023044e-15 1.0
  outer loop
    vertex 3.3988096843163818 2.980532369201058 1.9999999999995812
    vertex -0.9776032347486441 0.005566168108837792 1.9999999999995026
    vertex 7.788071080363472 2.8635854156194944 1.9999999999998708
  endloop
endfacet
facet normal -7.320609034438229e-16 8.149970988023044e-15 1.0
  outer loop
    vertex 7.788071080363472 2.8635854156194944 1.9999999999998708
    vertex -0.9776032347486441 0.005566168108837792 1.9999999999995026
    vertex 3.3503149896503595 -0.019075649289070497 1.9999999999998153
  endloop
endfacet
facet normal -7.320609034438229e-16 8.149970988023044e-15 1.0
  outer loop
    vertex 7.788071080363472 2.8635854156194944 1.9999999999998708
    vertex 3.3503149896503595 -0.019075649289070497 1.9999999999998153
    vertex 12.173920686647515 2.654742355303717 1.9999999999997669
  endloop
endfacet
facet normal -7.320609034438229e-16 8.149970988023044e-15 1.0
  outer loop
    vertex 12.173920686647515 2.654742355303717 1.9999999999997669
    vertex 3.3503149896503595 -0.019075649289070497 1.9999999999998153
    vertex 7.676767970777199 -0.1343491430050987 1.9999999999996427
  endloop
endfacet
facet normal -7.320609034438229e-16 8.149970988023044e-15 1.0
  outer loop
    vertex 12.173920686647515 2.654742355303717 1.9999999999997669
    vertex 7.676767970777199 -0.1343491430050987 1.9999999999996427
    vertex 16.554434724577497 2.354094793722417 1.9999999999998022
  endloop
endfacet
facet normal -7.320609034438229e-16 8.149970988023044e-15 1.0
  outer loop
    vertex 16.554434724577497 2.354094793722417 1.9999999999998022
    vertex 7.676767970777199 -0.1343491430050987 1.9999999999996427
    vertex 11.999857983362972 -0.34020375027565 1.9999999999998859
  endloop
endfacet
facet normal -7.320609034438229e-16 8.149970988023044e-15 1.0
  outer loop
    vertex 16.554434724577497 2.354094793722417 1.9999999999998022
    vertex 11.999857983362972 -0.34020375027565 1.9999999999998859
    vertex 20.92769175591814 1.9617746048318332 1.9999999999997913
  endloop
endfacet
facet normal -7.320609034438229e-16 8.149970988023044e-15 1.0
  outer loop
    vertex 20.92769175591814 1.9617746048318332 1.9999999999997913
    vertex 11.999857983362972 -0.34020375027565 1.9999999999998859
    vertex 16.31768877724867 -0.6365491764661622 1.9999999999998057
  endloop
endfacet
facet normal -7.320609034438229e-16 8.149970988023044e-15 1.0
  outer loop
    vertex 20.92769175591814 1.9617746048318332 1.9999999999997913
    vertex 16.31768877724867 -0.6365491764661622 1.9999999999998057
    vertex 25.291773525598977 1.4779538732339503 1.9999999999998275
  endloop
endfacet
facet normal -7.320609034438229e-16 8.149970988023044e-15 1.0
  outer loop
    vertex 25.291773525598977 1.4779538732339503 1.9999999999998275
    vertex 16.31768877724867 -0.6365491764661622 1.9999999999998057
    vertex 20.6283664091427 -1.0232554346783795 1.9999999999996563
  endloop
endfacet
facet normal -7.320609034438229e-16 8.149970988023044e-15 1.0
  outer loop
    vertex 25.291773525598977 1.4779538732339503 1.9999999999998275
    vertex 20.6283664091427 -1.0232554346783795 1.9999999999996563
    vertex 29.64476580312095 0.9028448186916549 1.9999999999998628
  endloop
endfacet
facet normal -7.320609034438229e-16 8.149970988023044e-15 1.0
  outer loop
    vertex 29.64476580312095 0.9028448186916549 1.9999999999998628
    vertex 20.6283664091427 -1.0232554346783795 1.9999999999996563
    vertex 24.93000007336696 -1.5001529027664546 1.9999999999997387
  endloop
endfacet
facet normal -7.320609034438229e-16 8.149970988023044e-15 1.0
  outer loop
    vertex 29.64476580312095 0.9028448186916549 1.9999999999998628
    vertex 24.93000007336696 -1.5001529027664546 1.9999999999997387
    vertex 33.98475922220374 0.23669970304392746 1.999999999999644
  endloop
endfacet
facet normal -7.320609034438229e-16 8.149970988023044e-15 1.0
  outer loop
    vertex 33.98475922220374 0.23669970304392746 1.999999999999644
    vertex 24.93000007336696 -1.5001529027664546 1.9999999999997387
    vertex 29.220702931224398 -2.0670323977400384 1.9999999999996816
  endloop
endfacet
facet normal -7.320609034438229e-16 8.149970988023044e-15 1.0
  outer loop
    vertex 33.98475922220374 0.23669970304392746 1.999999999999644
    vertex 29.220702931224398 -2.0670323977400384 1.9999999999996816
    vertex 38.30985011829565 -0.5201892804449627 1.9999999999997495
  endloop
endfacet
facet normal -7.320609034438229e-16 8.149970988023044e-15 1.0
  outer loop
    vertex 38.30985011829565 -0.5201892804449627 1.9999999999997495
    vertex 29.220702931224398 -2.0670323977400384 1.9999999999996816
    vertex 33.49859293863469 -2.723645267516033 1.9999999999996485
  endloop
endfacet
facet normal -7.320609034438229e-16 8.149970988023044e-15 1.0
  outer loop
    vertex 38.30985011829565 -0.5201892804449627 1.9999999999997495
    vertex 33.49859293863469 -2.723645267516033 1.9999999999996485
    vertex 42.61814136358377 -1.3674901352521207 1.9999999999996931
  endloop
endfacet
facet normal -7.320609034438229e-16 8.149970988023044e-15 1.0
  outer loop
    vertex 42.61814136358377 -1.3674901352521207 1.9999999999996931
    vertex 33.49859293863469 -2.723645267516033 1.9999999999996485
    vertex 37.76179367165315 -3.4697034999892917 1.9999999999997076
  endloop
endfacet
facet normal -7.320609034438229e-16 8.149970988023044e-15 1.0
  outer loop
    vertex 42.61814136358377 -1.3674901352521207 1.9999999999996931
    vertex 37.76179367165315 -3.4697034999892917 1.9999999999997076
    vertex 42.00843514953954 -4.304879849361348 1.9999999999997438
  endloop
endfacet
facet normal -7.320609034438229e-16 8.149970988023044e-15 1.0
  outer loop
    vertex 42.61814136358377 -1.3674901352521207 1.9999999999996931
    vertex 42.00843514953954 -4.304879849361348 1.9999999999997438
    vertex 46.90774319913809 -2.3048312072183688 1.9999999999995675
  endloop
endfacet
facet normal -7.320609034438229e-16 8.149970988023044e-15 1.0
  outer loop
    vertex 46.90774319913809 -2.3048312072183688 1.9999999999995675
    vertex 42.00843514953954 -4.304879849361348 1.9999999999997438
    vertex 46.23665465498782 -5.228807979682644 1.9999999999996874
  endloop
endfacet
facet normal -7.320609034438229e-16 8.149970988023044e-15 1.0
  outer loop
    vertex 46.90774319913809 -2.3048312072183688 1.9999999999995675
    vertex 46.23665465498782 -5.228807979682644 1.9999999999996874
    vertex 51.176774063819984 -3.3318013475706656 1.999999999999673
  endloop
endfacet
facet normal -7.320609034438229e-16 8.149970988023044e-15 1.0
  outer loop
    vertex 51.176774063819984 -3.3318013475706656 1.999999999999673
    vertex 46.23665465498782 -5.228807979682644 1.9999999999996874
    vertex 50.44459755117936 -6.241082625538929 1.9999999999996088
  endloop
endfacet
facet normal -7.320609034438229e-16 8.149970988023044e-15 1.0
  outer loop
    vertex 51.176774063819984 -3.3318013475706656 1.999999999999673
    vertex 50.44459755117936 -6.241082625538929 1.9999999999996088
    vertex 55.423361419600624 -4.447950093263142 1.9999999999994555
  endloop
endfacet
facet normal -7.320609034438229e-16 8.149970988023044e-15 1.0
  outer loop
    vertex 55.423361419600624 -4.447950093263142 1.9999999999994555
    vertex 50.44459755117936 -6.241082625538929 1.9999999999996088
    vertex 54.63041809528609 -7.341259769814653 1.9999999999995062
  endloop
endfacet
facet normal -7.320609034438229e-16 8.149970988023044e-15 1.0
  outer loop
    vertex 55.423361419600624 -4.447950093263142 1.9999999999994555
    vertex 54.63041809528609 -7.341259769814653 1.9999999999995062
    vertex 56.83081133070164 -4.849569206851369 1.999999999999475
  endloop
endfacet
facet normal -7.320609034438229e-16 8.149970988023044e-15 1.0
  outer loop
    vertex 56.83081133070164 -4.849569206851369 1.999999999999475
    vertex 54.63041809528609 -7.341259769814653 1.9999999999995062
    vertex 56.017728012430304 -7.73713188917099 2.0000000000000115
  endloop
endfacet
facet normal 0.9625678083033884 -0.2710409829121998 3.01080834973368e-14
  outer loop
    vertex 56.017728012430375 -7.737131889170944 3.2774778446764683e-13
    vertex 56.83081133070164 -4.849569206851369 1.999999999999475
    vertex 56.017728012430304 -7.73713188917099 2.0000000000000115
  endloop
endfacet
facet normal 0.9625678083033884 -0.2710409829121998 3.01080834973368e-14
  outer loop
    vertex 56.83081133070164 -4.849569206851369 1.999999999999475
    vertex 56.017728012430375 -7.737131889170944 3.2774778446764683e-13
    vertex 56.830811330701756 -4.8495692068513225 -1.1622773854469413e-13
  endloop
endfacet
facet normal -0.27439932034733916 -0.9616158344125363 -4.706786405330481e-15
  outer loop
    vertex 56.017728012430304 -7.73713188917099 2.0000000000000115
    vertex 54.630418095286075 -7.341259769814653 -1.0828671292983927e-13
    vertex 56.017728012430375 -7.737131889170944 3.2774778446764683e-13
  endloop
endfacet
facet normal -0.27439932034733916 -0.9616158344125363 -4.706786405330481e-15
  outer loop
    vertex 54.630418095286075 -7.341259769814653 -1.0828671292983927e-13
    vertex 56.017728012430304 -7.73713188917099 2.0000000000000115
    vertex 54.63041809528609 -7.341259769814653 1.9999999999995062
  endloop
endfacet
facet normal -0.25420057747118535 -0.9671515219516102 -1.1697783472633601e-14
  outer loop
    vertex 50.44459755117936 -6.241082625538929 1.9999999999996088
    vertex 54.630418095286075 -7.341259769814653 -1.0828671292983927e-13
    vertex 54.63041809528609 -7.341259769814653 1.9999999999995062
  endloop
endfacet
facet normal -0.25420057747118535 -0.9671515219516102 -1.1697783472633601e-14
  outer loop
    vertex 54.630418095286075 -7.341259769814653 -1.0828671292983927e-13
    vertex 50.44459755117936 -6.241082625538929 1.9999999999996088
    vertex 50.444597551179484 -6.241082625538859 -5.775291356258094e-15
  endloop
endfacet
facet normal -0.23389033382028246 -0.9722629848685165 -1.896722555822398e-14
  outer loop
    vertex 50.44459755117936 -6.241082625538929 1.9999999999996088
    vertex 46.2366546549879 -5.228807979682609 4.981188794772606e-14
    vertex 50.444597551179484 -6.241082625538859 -5.775291356258094e-15
  endloop
endfacet
facet normal -0.23389033382028246 -0.9722629848685165 -1.896722555822398e-14
  outer loop
    vertex 46.2366546549879 -5.228807979682609 4.981188794772606e-14
    vertex 50.44459755117936 -6.241082625538929 1.9999999999996088
    vertex 46.23665465498782 -5.228807979682644 1.9999999999996874
  endloop
endfacet
facet normal -0.21347749813885325 -0.9769479811066586 -1.2179340699656246e-14
  outer loop
    vertex 46.23665465498782 -5.228807979682644 1.9999999999996874
    vertex 42.00843514953958 -4.3048798493613365 8.30198132462101e-14
    vertex 46.2366546549879 -5.228807979682609 4.981188794772606e-14
  endloop
endfacet
facet normal -0.21347749813885325 -0.9769479811066586 -1.2179340699656246e-14
  outer loop
    vertex 42.00843514953958 -4.3048798493613365 8.30198132462101e-14
    vertex 46.23665465498782 -5.228807979682644 1.9999999999996874
    vertex 42.00843514953954 -4.304879849361348 1.9999999999997438
  endloop
endfacet
facet normal -0.19297102417119483 -0.9812044556718647 -5.93354413124437e-15
  outer loop
    vertex 42.00843514953954 -4.304879849361348 1.9999999999997438
    vertex 37.76179367165308 -3.4697034999893495 4.692424226959702e-14
    vertex 42.00843514953958 -4.3048798493613365 8.30198132462101e-14
  endloop
endfacet
facet normal -0.19297102417119483 -0.9812044556718647 -5.93354413124437e-15
  outer loop
    vertex 37.76179367165308 -3.4697034999893495 4.692424226959702e-14
    vertex 42.00843514953954 -4.304879849361348 1.9999999999997438
    vertex 37.76179367165315 -3.4697034999892917 1.9999999999997076
  endloop
endfacet
facet normal -0.17237990673465498 -0.9850305415336886 -5.184188186030134e-15
  outer loop
    vertex 33.49859293863469 -2.723645267516033 1.9999999999996485
    vertex 37.76179367165308 -3.4697034999893495 4.692424226959702e-14
    vertex 37.76179367165315 -3.4697034999892917 1.9999999999997076
  endloop
endfacet
facet normal -0.17237990673465498 -0.9850305415336886 -5.184188186030134e-15
  outer loop
    vertex 37.76179367165308 -3.4697034999893495 4.692424226959702e-14
    vertex 33.49859293863469 -2.723645267516033 1.9999999999996485
    vertex 33.49859293863474 -2.72364526751601 -1.227249413204845e-14
  endloop
endfacet
facet normal -0.15171317777369603 -0.9884245604444514 -1.3817035168871315e-14
  outer loop
    vertex 33.49859293863469 -2.723645267516033 1.9999999999996485
    vertex 29.22070293122442 -2.067032397739969 6.713776201650035e-14
    vertex 33.49859293863474 -2.72364526751601 -1.227249413204845e-14
  endloop
endfacet
facet normal -0.15171317777369603 -0.9884245604444514 -1.3817035168871315e-14
  outer loop
    vertex 29.22070293122442 -2.067032397739969 6.713776201650035e-14
    vertex 33.49859293863469 -2.723645267516033 1.9999999999996485
    vertex 29.220702931224398 -2.0670323977400384 1.9999999999996816
  endloop
endfacet
facet normal -0.13097990239901275 -0.9913850236752344 -1.3152564050154207e-14
  outer loop
    vertex 29.220702931224398 -2.0670323977400384 1.9999999999996816
    vertex 24.930000073367005 -1.5001529027664315 1.2416876415954903e-13
    vertex 29.22070293122442 -2.067032397739969 6.713776201650035e-14
  endloop
endfacet
facet normal -0.13097990239901275 -0.9913850236752344 -1.3152564050154207e-14
  outer loop
    vertex 24.930000073367005 -1.5001529027664315 1.2416876415954903e-13
    vertex 29.220702931224398 -2.0670323977400384 1.9999999999996816
    vertex 24.93000007336696 -1.5001529027664546 1.9999999999997387
  endloop
endfacet
facet normal -0.11018917490995536 -0.9939106326690862 -9.324738049851141e-15
  outer loop
    vertex 24.93000007336696 -1.5001529027664546 1.9999999999997387
    vertex 20.628366409142746 -1.0232554346783564 1.8769696907838806e-14
    vertex 24.930000073367005 -1.5001529027664315 1.2416876415954903e-13
  endloop
endfacet
facet normal -0.11018917490995536 -0.9939106326690862 -9.324738049851141e-15
  outer loop
    vertex 20.628366409142746 -1.0232554346783564 1.8769696907838806e-14
    vertex 24.93000007336696 -1.5001529027664546 1.9999999999997387
    vertex 20.6283664091427 -1.0232554346783795 1.9999999999996563
  endloop
endfacet
facet normal -0.08935011480716538 -0.9960002796103757 -6.9132078109996065e-15
  outer loop
    vertex 20.6283664091427 -1.0232554346783795 1.9999999999996563
    vertex 16.31768877724866 -0.636549176466139 1.68205360751017e-13
    vertex 20.628366409142746 -1.0232554346783564 1.8769696907838806e-14
  endloop
endfacet
facet normal -0.08935011480716538 -0.9960002796103757 -6.9132078109996065e-15
  outer loop
    vertex 16.31768877724866 -0.636549176466139 1.68205360751017e-13
    vertex 20.6283664091427 -1.0232554346783795 1.9999999999996563
    vertex 16.31768877724867 -0.6365491764661622 1.9999999999998057
  endloop
endfacet
facet normal -0.06847186279093244 -0.9976530479109158 -2.739940258092724e-15
  outer loop
    vertex 11.999857983362972 -0.34020375027565 1.9999999999998859
    vertex 16.31768877724866 -0.636549176466139 1.68205360751017e-13
    vertex 16.31768877724867 -0.6365491764661622 1.9999999999998057
  endloop
endfacet
facet normal -0.06847186279093244 -0.9976530479109158 -2.739940258092724e-15
  outer loop
    vertex 16.31768877724866 -0.636549176466139 1.68205360751017e-13
    vertex 11.999857983362972 -0.34020375027565 1.9999999999998859
    vertex 11.999857983362972 -0.34020375027565 1.3283170119393616e-13
  endloop
endfacet
facet normal -0.04756357675266239 -0.9988682126119011 -1.3916227765297229e-14
  outer loop
    vertex 7.676767970777199 -0.1343491430050987 1.9999999999996427
    vertex 11.999857983362972 -0.34020375027565 1.3283170119393616e-13
    vertex 11.999857983362972 -0.34020375027565 1.9999999999998859
  endloop
endfacet
facet normal -0.04756357675266239 -0.9988682126119011 -1.3916227765297229e-14
  outer loop
    vertex 11.999857983362972 -0.34020375027565 1.3283170119393616e-13
    vertex 7.676767970777199 -0.1343491430050987 1.9999999999996427
    vertex 7.676767970777257 -0.13434914300504097 5.053379936725832e-15
  endloop
endfacet
facet normal -0.026634427757561085 -0.999645240701934 -2.1082536031262647e-14
  outer loop
    vertex 7.676767970777199 -0.1343491430050987 1.9999999999996427
    vertex 3.35031498965029 -0.01907564928910515 6.208438207977452e-14
    vertex 7.676767970777257 -0.13434914300504097 5.053379936725832e-15
  endloop
endfacet
facet normal -0.026634427757561085 -0.999645240701934 -2.1082536031262647e-14
  outer loop
    vertex 3.35031498965029 -0.01907564928910515 6.208438207977452e-14
    vertex 7.676767970777199 -0.1343491430050987 1.9999999999996427
    vertex 3.3503149896503595 -0.019075649289070497 1.9999999999998153
  endloop
endfacet
facet normal -0.005693596022308733 -0.9999837913508073 -8.307144035495358e-15
  outer loop
    vertex -0.9776032347486441 0.005566168108837792 1.9999999999995026
    vertex 3.35031498965029 -0.01907564928910515 6.208438207977452e-14
    vertex 3.3503149896503595 -0.019075649289070497 1.9999999999998153
  endloop
endfacet
facet normal -0.005693596022308733 -0.9999837913508073 -8.307144035495358e-15
  outer loop
    vertex 3.35031498965029 -0.01907564928910515 6.208438207977452e-14
    vertex -0.9776032347486441 0.005566168108837792 1.9999999999995026
    vertex -0.9776032347486441 0.005566168108837792 -1.3499743545253294e-13
  endloop
endfacet
facet normal 0.015249733112419395 -0.9998837160590226 -1.0645322864783719e-14
  outer loop
    vertex -5.305088334448456 -0.06043449952731416 1.9999999999997913
    vertex -0.9776032347486441 0.005566168108837792 -1.3499743545253294e-13
    vertex -0.9776032347486441 0.005566168108837792 1.9999999999995026
  endloop
endfacet
facet normal 0.015249733112419395 -0.9998837160590226 -1.0645322864783719e-14
  outer loop
    vertex -0.9776032347486441 0.005566168108837792 -1.3499743545253294e-13
    vertex -5.305088334448456 -0.06043449952731416 1.9999999999997913
    vertex -5.305088334448433 -0.06043449952729106 -3.104219103988726e-14
  endloop
endfacet
facet normal 0.036186373210225775 -0.9993450587229069 -1.4469063686647376e-14
  outer loop
    vertex -5.305088334448456 -0.06043449952731416 1.9999999999997913
    vertex -9.630242131459775 -0.21704870212342955 -3.436298356973566e-13
    vertex -5.305088334448433 -0.06043449952729106 -3.104219103988726e-14
  endloop
endfacet
facet normal 0.036186373210225775 -0.9993450587229069 -1.4469063686647376e-14
  outer loop
    vertex -9.630242131459775 -0.21704870212342955 -3.436298356973566e-13
    vertex -5.305088334448456 -0.06043449952731416 1.9999999999997913
    vertex -9.630242131459845 -0.21704870212346422 1.9999999999993863
  endloop
endfacet
facet normal 0.057107140768673126 -0.9983680556153763 -8.863464904879836e-15
  outer loop
    vertex -9.630242131459845 -0.21704870212346422 1.9999999999993863
    vertex -13.951167470378506 -0.464207743513704 -2.627757567097433e-13
    vertex -9.630242131459775 -0.21704870212342955 -3.436298356973566e-13
  endloop
endfacet
facet normal 0.057107140768673126 -0.9983680556153763 -8.863464904879836e-15
  outer loop
    vertex -13.951167470378506 -0.464207743513704 -2.627757567097433e-13
    vertex -9.630242131459845 -0.21704870212346422 1.9999999999993863
    vertex -13.951167470378552 -0.46420774351373867 1.9999999999994673
  endloop
endfacet
facet normal 0.0780028592478858 -0.9969531352822733 -7.740987040725999e-15
  outer loop
    vertex -13.951167470378552 -0.46420774351373867 1.9999999999994673
    vertex -18.265969050544054 -0.8018032115744324 -4.4036596591467966e-14
    vertex -13.951167470378506 -0.464207743513704 -2.627757567097433e-13
  endloop
endfacet
facet normal 0.0780028592478858 -0.9969531352822733 -7.740987040725999e-15
  outer loop
    vertex -18.265969050544054 -0.8018032115744324 -4.4036596591467966e-14
    vertex -13.951167470378552 -0.46420774351373867 1.9999999999994673
    vertex -18.265969050544076 -0.8018032115744439 1.9999999999995934
  endloop
endfacet
facet normal 0.09886436309493796 -0.9951009183544313 -3.635358236305085e-15
  outer loop
    vertex -18.265969050544076 -0.8018032115744439 1.9999999999995934
    vertex -22.572754257377646 -1.2296870257753556 -3.248601387895178e-14
    vertex -18.265969050544054 -0.8018032115744324 -4.4036596591467966e-14
  endloop
endfacet
facet normal 0.09886436309493796 -0.9951009183544313 -3.635358236305085e-15
  outer loop
    vertex -22.572754257377646 -1.2296870257753556 -3.248601387895178e-14
    vertex -18.265969050544076 -0.8018032115744439 1.9999999999995934
    vertex -22.572754257377508 -1.2296870257752979 1.9999999999997207
  endloop
endfacet
facet normal 0.1196825017647965 -0.9928122172754119 -5.711146870781757e-16
  outer loop
    vertex -26.869633992545975 -1.7476715021334728 1.99999999999994
    vertex -22.572754257377646 -1.2296870257753556 -3.248601387895178e-14
    vertex -22.572754257377508 -1.2296870257752979 1.9999999999997207
  endloop
endfacet
facet normal 0.1196825017647965 -0.9928122172754119 -5.711146870781757e-16
  outer loop
    vertex -22.572754257377646 -1.2296870257753556 -3.248601387895178e-14
    vertex -26.869633992545975 -1.7476715021334728 1.99999999999994
    vertex -26.869633992546 -1.7476715021334728 2.1007622308388818e-13
  endloop
endfacet
facet normal 0.1404481437339522 -0.9900880359451311 -6.333672842663181e-15
  outer loop
    vertex -31.154723502585135 -2.355529435538699 1.9999999999996514
    vertex -26.869633992546 -1.7476715021334728 2.1007622308388818e-13
    vertex -26.869633992545975 -1.7476715021334728 1.99999999999994
  endloop
endfacet
facet normal 0.1404481437339522 -0.9900880359451311 -6.333672842663181e-15
  outer loop
    vertex -26.869633992546 -1.7476715021334728 2.1007622308388818e-13
    vertex -31.154723502585135 -2.355529435538699 1.9999999999996514
    vertex -31.154723502585064 -2.355529435538653 -3.248601387895178e-14
  endloop
endfacet
facet normal 0.16115218050532926 -0.9869295692795802 -5.803160143992035e-15
  outer loop
    vertex -31.154723502585135 -2.355529435538699 1.9999999999996514
    vertex -35.42614320561262 -3.052994199411128 -2.7504825084179175e-13
    vertex -31.154723502585064 -2.355529435538653 -3.248601387895178e-14
  endloop
endfacet
facet normal 0.16115218050532926 -0.9869295692795802 -5.803160143992035e-15
  outer loop
    vertex -35.42614320561262 -3.052994199411128 -2.7504825084179175e-13
    vertex -31.154723502585135 -2.355529435538699 1.9999999999996514
    vertex -35.42614320561255 -3.0529941994111165 1.999999999999478
  endloop
endfacet
facet normal 0.18178553060426492 -0.9833382026866067 -3.1012566056205322e-15
  outer loop
    vertex -39.68201951577415 -3.839759862654063 1.9999999999996976
    vertex -35.42614320561262 -3.052994199411128 -2.7504825084179175e-13
    vertex -35.42614320561255 -3.0529941994111165 1.999999999999478
  endloop
endfacet
facet normal 0.18178553060426492 -0.9833382026866067 -3.1012566056205322e-15
  outer loop
    vertex -35.42614320561262 -3.052994199411128 -2.7504825084179175e-13
    vertex -39.68201951577415 -3.839759862654063 1.9999999999996976
    vertex -39.68201951577418 -3.839759862654063 -5.558717930398416e-14
  endloop
endfacet
facet normal 0.2023391435613722 -0.9793155114583098 -2.7867923462112127e-15
  outer loop
    vertex -43.92048566506265 -4.715481323844671 1.99999999999994
    vertex -39.68201951577418 -3.839759862654063 -5.558717930398416e-14
    vertex -39.68201951577415 -3.839759862654063 1.9999999999996976
  endloop
endfacet
facet normal 0.2023391435613722 -0.9793155114583098 -2.7867923462112127e-15
  outer loop
    vertex -39.68201951577418 -3.839759862654063 -5.558717930398416e-14
    vertex -43.92048566506265 -4.715481323844671 1.99999999999994
    vertex -43.92048566506281 -4.715481323844728 1.6387389223382341e-13
  endloop
endfacet
facet normal 0.2228040038827263 -0.9748632600800105 -5.102605274523662e-15
  outer loop
    vertex -48.13968252214215 -5.679774462607126 1.9999999999997669
    vertex -43.92048566506281 -4.715481323844728 1.6387389223382341e-13
    vertex -43.92048566506265 -4.715481323844671 1.99999999999994
  endloop
endfacet
facet normal 0.2228040038827263 -0.9748632600800105 -5.102605274523662e-15
  outer loop
    vertex -43.92048566506281 -4.715481323844728 1.6387389223382341e-13
    vertex -48.13968252214215 -5.679774462607126 1.9999999999997669
    vertex -48.13968252214203 -5.67977446260708 -5.558717930398416e-14
  endloop
endfacet
facet normal 0.2431711350041864 -0.9699834014563219 3.236149804420211e-13
  outer loop
    vertex -52.33775940782565 -6.732216308099359 3.680908106231769
    vertex -50.679551702544174 -6.316509968012118 1.9999999999997509
    vertex -50.679551702544266 -6.316509968010674 3.680908106231995
  endloop
endfacet
facet normal 0.2431711350041864 -0.9699834014563219 3.236149804420211e-13
  outer loop
    vertex -50.679551702544174 -6.316509968012118 1.9999999999997509
    vertex -52.33775940782565 -6.732216308099359 3.680908106231769
    vertex -50.679551702544195 -6.316509968012118 -2.165734258596785e-15
  endloop
endfacet
facet normal 0.2431711350041864 -0.9699834014563219 3.236149804420211e-13
  outer loop
    vertex -50.679551702544195 -6.316509968012118 -2.165734258596785e-15
    vertex -52.33775940782565 -6.732216308099359 3.680908106231769
    vertex -52.337759407825416 -6.73221630810071 -8.951701602200046e-14
  endloop
endfacet
facet normal 0.2431711350041864 -0.9699834014563219 3.236149804420211e-13
  outer loop
    vertex -48.13968252214215 -5.679774462607126 1.9999999999997669
    vertex -50.679551702544195 -6.316509968012118 -2.165734258596785e-15
    vertex -48.13968252214203 -5.67977446260708 -5.558717930398416e-14
  endloop
endfacet
facet normal 0.2431711350041864 -0.9699834014563219 3.236149804420211e-13
  outer loop
    vertex -50.679551702544195 -6.316509968012118 -2.165734258596785e-15
    vertex -48.13968252214215 -5.679774462607126 1.9999999999997669
    vertex -50.679551702544174 -6.316509968012118 1.9999999999997509
  endloop
endfacet
facet normal -0.2228040038827377 0.9748632600800078 1.9139987642128012e-14
  outer loop
    vertex -48.83868355714226 -2.7623445057669485 8.229790182667784e-14
    vertex -44.55823535444834 -1.7840524344311761 1.9999999999994773
    vertex -44.5582353544482 -1.7840524344310953 1.4438228390645235e-15
  endloop
endfacet
facet normal -0.2228040038827377 0.9748632600800078 1.9139987642128012e-14
  outer loop
    vertex -44.55823535444834 -1.7840524344311761 1.9999999999994773
    vertex -48.83868355714226 -2.7623445057669485 8.229790182667784e-14
    vertex -48.83868355714238 -2.7623445057670524 1.9999999999995812
  endloop
endfacet
facet normal -0.20233914356136848 0.9793155114583104 1.4943734465856668e-14
  outer loop
    vertex -44.5582353544482 -1.7840524344310953 1.4438228390645235e-15
    vertex -40.25823812145353 -0.8956178622626434 1.9999999999995575
    vertex -40.25823812145355 -0.8956178622626434 5.84748249821132e-14
  endloop
endfacet
facet normal -0.20233914356136848 0.9793155114583104 1.4943734465856668e-14
  outer loop
    vertex -40.25823812145353 -0.8956178622626434 1.9999999999995575
    vertex -44.5582353544482 -1.7840524344310953 1.4438228390645235e-15
    vertex -44.55823535444834 -1.7840524344311761 1.9999999999994773
  endloop
endfacet
facet normal -0.1817855306042359 0.983338202686612 1.5806371343674594e-14
  outer loop
    vertex -40.25823812145355 -0.8956178622626434 5.84748249821132e-14
    vertex -35.940577979061295 -0.09743048602823665 1.999999999999315
    vertex -35.94057797906118 -0.09743048602816734 -2.302897428307915e-13
  endloop
endfacet
facet normal -0.1817855306042359 0.983338202686612 1.5806371343674594e-14
  outer loop
    vertex -35.940577979061295 -0.09743048602823665 1.999999999999315
    vertex -40.25823812145355 -0.8956178622626434 5.84748249821132e-14
    vertex -40.25823812145353 -0.8956178622626434 1.9999999999995575
  endloop
endfacet
facet normal -0.16115218050531807 0.9869295692795822 2.2629977860967044e-14
  outer loop
    vertex -35.94057797906118 -0.09743048602816734 -2.302897428307915e-13
    vertex -31.607148795709815 0.6101595829087169 1.9999999999993958
    vertex -31.607148795709723 0.6101595829087861 -1.0323333299311343e-13
  endloop
endfacet
facet normal -0.16115218050531807 0.9869295692795822 2.2629977860967044e-14
  outer loop
    vertex -31.607148795709815 0.6101595829087169 1.9999999999993958
    vertex -35.94057797906118 -0.09743048602816734 -2.302897428307915e-13
    vertex -35.940577979061295 -0.09743048602823665 1.999999999999315
  endloop
endfacet
facet normal -0.14044814373397 0.9900880359451285 2.3507435254833617e-14
  outer loop
    vertex -31.607148795709723 0.6101595829087861 -1.0323333299311343e-13
    vertex -27.25985135665895 1.2268419721584003 1.9999999999995228
    vertex -27.25985135665888 1.2268419721584811 -2.2379254005500115e-14
  endloop
endfacet
facet normal -0.14044814373397 0.9900880359451285 2.3507435254833617e-14
  outer loop
    vertex -27.25985135665895 1.2268419721584003 1.9999999999995228
    vertex -31.607148795709723 0.6101595829087861 -1.0323333299311343e-13
    vertex -31.607148795709815 0.6101595829087169 1.9999999999993958
  endloop
endfacet
facet normal -0.1196825017648247 0.9928122172754084 2.1880457865977344e-14
  outer loop
    vertex -27.25985135665888 1.2268419721584811 -2.2379254005500115e-14
    vertex -22.90059253024698 1.752346184442552 1.999999999999465
    vertex -22.900592530246886 1.7523461844425636 -8.013216756808106e-14
  endloop
endfacet
facet normal -0.1196825017648247 0.9928122172754084 2.1880457865977344e-14
  outer loop
    vertex -22.90059253024698 1.752346184442552 1.999999999999465
    vertex -27.25985135665888 1.2268419721584811 -2.2379254005500115e-14
    vertex -27.25985135665895 1.2268419721584003 1.9999999999995228
  endloop
endfacet
facet normal -0.09886436309492769 0.9951009183544323 2.3903867329618072e-14
  outer loop
    vertex -22.900592530246886 1.7523461844425636 -8.013216756808106e-14
    vertex -18.531284431467956 2.186441716246105 1.9999999999996845
    vertex -18.531284431467817 2.1864417162461973 9.312657311966176e-14
  endloop
endfacet
facet normal -0.09886436309492769 0.9951009183544323 2.3903867329618072e-14
  outer loop
    vertex -18.531284431467956 2.186441716246105 1.9999999999996845
    vertex -22.900592530246886 1.7523461844425636 -8.013216756808106e-14
    vertex -22.90059253024698 1.752346184442552 1.999999999999465
  endloop
endfacet
facet normal -0.07800285924787392 0.9969531352822742 2.779439042301786e-14
  outer loop
    vertex -18.531284431467817 2.1864417162461973 9.312657311966176e-14
    vertex -14.15384358326215 2.5289381589217474 1.9999999999996267
    vertex -14.153843583262011 2.52893815892184 1.0467715583217795e-13
  endloop
endfacet
facet normal -0.07800285924787392 0.9969531352822742 2.779439042301786e-14
  outer loop
    vertex -14.15384358326215 2.5289381589217474 1.9999999999996267
    vertex -18.531284431467817 2.1864417162461973 9.312657311966176e-14
    vertex -18.531284431467956 2.186441716246105 1.9999999999996845
  endloop
endfacet
facet normal -0.05710714076868717 0.9983680556153754 2.84727790773217e-14
  outer loop
    vertex -9.770190075861818 2.7796852822098415 1.624300693947589e-13
    vertex -14.15384358326215 2.5289381589217474 1.9999999999996267
    vertex -9.770190075861725 2.77968528220983 1.9999999999997538
  endloop
endfacet
facet normal -0.05710714076868717 0.9983680556153754 2.84727790773217e-14
  outer loop
    vertex -14.15384358326215 2.5289381589217474 1.9999999999996267
    vertex -9.770190075861818 2.7796852822098415 1.624300693947589e-13
    vertex -14.153843583262011 2.52893815892184 1.0467715583217795e-13
  endloop
endfacet
facet normal -0.03618637321016038 0.9993450587229094 2.7930517860227248e-14
  outer loop
    vertex -9.770190075861818 2.7796852822098415 1.624300693947589e-13
    vertex -5.3822467245755305 2.938573100134891 1.9999999999993265
    vertex -5.382246724575438 2.9385731001349717 -1.9563799469324294e-13
  endloop
endfacet
facet normal -0.03618637321016038 0.9993450587229094 2.7930517860227248e-14
  outer loop
    vertex -5.3822467245755305 2.938573100134891 1.9999999999993265
    vertex -9.770190075861818 2.7796852822098415 1.624300693947589e-13
    vertex -9.770190075861725 2.77968528220983 1.9999999999997538
  endloop
endfacet
facet normal -0.015249733112425948 0.9998837160590226 2.3343498708933963e-14
  outer loop
    vertex -0.9919382263803934 3.0055319192489747 9.312657311966176e-14
    vertex -5.3822467245755305 2.938573100134891 1.9999999999993265
    vertex -0.9919382263802895 3.005531919248986 1.999999999999592
  endloop
endfacet
facet normal -0.015249733112425948 0.9998837160590226 2.3343498708933963e-14
  outer loop
    vertex -5.3822467245755305 2.938573100134891 1.9999999999993265
    vertex -0.9919382263803934 3.0055319192489747 9.312657311966176e-14
    vertex -5.382246724575438 2.9385731001349717 -1.9563799469324294e-13
  endloop
endfacet
facet normal 0.005693596022232682 0.9999837913508076 2.8693614325174967e-14
  outer loop
    vertex -0.9919382263803934 3.0055319192489747 9.312657311966176e-14
    vertex 3.3988096843163818 2.980532369201058 1.9999999999995812
    vertex 3.398809684316601 2.980532369201162 -1.0106759873451664e-14
  endloop
endfacet
facet normal 0.005693596022232682 0.9999837913508076 2.8693614325174967e-14
  outer loop
    vertex 3.3988096843163818 2.980532369201058 1.9999999999995812
    vertex -0.9919382263803934 3.0055319192489747 9.312657311966176e-14
    vertex -0.9919382263802895 3.005531919248986 1.999999999999592
  endloop
endfacet
facet normal 0.026634427757629975 0.9996452407019321 4.0164494267007374e-14
  outer loop
    vertex 3.398809684316601 2.980532369201162 -1.0106759873451664e-14
    vertex 7.788071080363472 2.8635854156194944 1.9999999999998708
    vertex 7.788071080363622 2.863585415619587 2.3317738850892056e-13
  endloop
endfacet
facet normal 0.026634427757629975 0.9996452407019321 4.0164494267007374e-14
  outer loop
    vertex 7.788071080363472 2.8635854156194944 1.9999999999998708
    vertex 3.398809684316601 2.980532369201162 -1.0106759873451664e-14
    vertex 3.3988096843163818 2.980532369201058 1.9999999999995812
  endloop
endfacet
facet normal 0.047563576752647996 0.9988682126119016 2.83491270854243e-14
  outer loop
    vertex 7.788071080363622 2.863585415619587 2.3317738850892056e-13
    vertex 12.173920686647515 2.654742355303717 1.9999999999997669
    vertex 12.173920686647515 2.6547423553037284 1.9852564037137198e-13
  endloop
endfacet
facet normal 0.047563576752647996 0.9988682126119016 2.83491270854243e-14
  outer loop
    vertex 12.173920686647515 2.654742355303717 1.9999999999997669
    vertex 7.788071080363622 2.863585415619587 2.3317738850892056e-13
    vertex 7.788071080363472 2.8635854156194944 1.9999999999998708
  endloop
endfacet
facet normal 0.06847186279086354 0.9976530479109205 1.4938515741161783e-14
  outer loop
    vertex 12.173920686647515 2.6547423553037284 1.9852564037137198e-13
    vertex 16.554434724577497 2.354094793722417 1.9999999999998022
    vertex 16.554434724577497 2.354094793722417 2.5700046535348517e-13
  endloop
endfacet
facet normal 0.06847186279086354 0.9976530479109205 1.4938515741161783e-14
  outer loop
    vertex 16.554434724577497 2.354094793722417 1.9999999999998022
    vertex 12.173920686647515 2.6547423553037284 1.9852564037137198e-13
    vertex 12.173920686647515 2.654742355303717 1.9999999999997669
  endloop
endfacet
facet normal 0.08935011480722414 0.9960002796103703 1.7418693181515022e-14
  outer loop
    vertex 16.554434724577497 2.354094793722417 2.5700046535348517e-13
    vertex 20.92769175591814 1.9617746048318332 1.9999999999997913
    vertex 20.92769175591813 1.9617746048318563 2.6927295948553364e-13
  endloop
endfacet
facet normal 0.08935011480722414 0.9960002796103703 1.7418693181515022e-14
  outer loop
    vertex 20.92769175591814 1.9617746048318332 1.9999999999997913
    vertex 16.554434724577497 2.354094793722417 2.5700046535348517e-13
    vertex 16.554434724577497 2.354094793722417 1.9999999999998022
  endloop
endfacet
facet normal 0.11018917490999272 0.9939106326690823 3.7066435877672164e-14
  outer loop
    vertex 20.92769175591813 1.9617746048318563 2.6927295948553364e-13
    vertex 25.291773525598977 1.4779538732339503 1.9999999999998275
    vertex 25.29177352559909 1.4779538732340196 3.284696958871791e-13
  endloop
endfacet
facet normal 0.11018917490999272 0.9939106326690823 3.7066435877672164e-14
  outer loop
    vertex 25.291773525598977 1.4779538732339503 1.9999999999998275
    vertex 20.92769175591813 1.9617746048318563 2.6927295948553364e-13
    vertex 20.92769175591814 1.9617746048318332 1.9999999999997913
  endloop
endfacet
facet normal 0.1309799023989508 0.9913850236752427 3.954811646061743e-14
  outer loop
    vertex 25.29177352559909 1.4779538732340196 3.284696958871791e-13
    vertex 29.64476580312095 0.9028448186916549 1.9999999999998628
    vertex 29.644765803121125 0.9028448186917357 3.638433554442599e-13
  endloop
endfacet
facet normal 0.1309799023989508 0.9913850236752427 3.954811646061743e-14
  outer loop
    vertex 29.64476580312095 0.9028448186916549 1.9999999999998628
    vertex 25.29177352559909 1.4779538732340196 3.284696958871791e-13
    vertex 25.291773525598977 1.4779538732339503 1.9999999999998275
  endloop
endfacet
facet normal 0.15171317777377585 0.9884245604444392 3.07618140822126e-14
  outer loop
    vertex 29.644765803121125 0.9028448186917357 3.638433554442599e-13
    vertex 33.98475922220374 0.23669970304392746 1.999999999999644
    vertex 33.98475922220387 0.2366997030439852 7.580069905088748e-14
  endloop
endfacet
facet normal 0.15171317777377585 0.9884245604444392 3.07618140822126e-14
  outer loop
    vertex 33.98475922220374 0.23669970304392746 1.999999999999644
    vertex 29.644765803121125 0.9028448186917357 3.638433554442599e-13
    vertex 29.64476580312095 0.9028448186916549 1.9999999999998628
  endloop
endfacet
facet normal 0.17237990673460976 0.9850305415336964 2.527922493174556e-14
  outer loop
    vertex 33.98475922220387 0.2366997030439852 7.580069905088748e-14
    vertex 38.30985011829565 -0.5201892804449627 1.9999999999997495
    vertex 38.309850118295664 -0.5201892804449858 2.043009317276301e-13
  endloop
endfacet
facet normal 0.17237990673460976 0.9850305415336964 2.527922493174556e-14
  outer loop
    vertex 38.30985011829565 -0.5201892804449627 1.9999999999997495
    vertex 33.98475922220387 0.2366997030439852 7.580069905088748e-14
    vertex 33.98475922220374 0.23669970304392746 1.999999999999644
  endloop
endfacet
facet normal 0.19297102417126144 0.9812044556718515 1.8992542458397637e-14
  outer loop
    vertex 38.309850118295664 -0.5201892804449858 2.043009317276301e-13
    vertex 42.61814136358377 -1.3674901352521207 1.9999999999996931
    vertex 42.61814136358377 -1.3674901352521207 1.4799184100411366e-13
  endloop
endfacet
facet normal 0.19297102417126144 0.9812044556718515 1.8992542458397637e-14
  outer loop
    vertex 42.61814136358377 -1.3674901352521207 1.9999999999996931
    vertex 38.309850118295664 -0.5201892804449858 2.043009317276301e-13
    vertex 38.30985011829565 -0.5201892804449627 1.9999999999997495
  endloop
endfacet
facet normal 0.21347749813881345 0.9769479811066671 1.8826801059599447e-14
  outer loop
    vertex 42.61814136358377 -1.3674901352521207 1.4799184100411366e-13
    vertex 46.90774319913809 -2.3048312072183688 1.9999999999995675
    vertex 46.907743199138125 -2.3048312072183457 9.168275028059725e-14
  endloop
endfacet
facet normal 0.21347749813881345 0.9769479811066671 1.8826801059599447e-14
  outer loop
    vertex 46.90774319913809 -2.3048312072183688 1.9999999999995675
    vertex 42.61814136358377 -1.3674901352521207 1.4799184100411366e-13
    vertex 42.61814136358377 -1.3674901352521207 1.9999999999996931
  endloop
endfacet
facet normal 0.23389033382032726 0.9722629848685056 1.9383559192458327e-14
  outer loop
    vertex 46.907743199138125 -2.3048312072183457 9.168275028059725e-14
    vertex 51.176774063819984 -3.3318013475706656 1.999999999999673
    vertex 51.17677406381998 -3.3318013475706656 1.2777832125721034e-13
  endloop
endfacet
facet normal 0.23389033382032726 0.9722629848685056 1.9383559192458327e-14
  outer loop
    vertex 51.176774063819984 -3.3318013475706656 1.999999999999673
    vertex 46.907743199138125 -2.3048312072183457 9.168275028059725e-14
    vertex 46.90774319913809 -2.3048312072183688 1.9999999999995675
  endloop
endfacet
facet normal 0.25420057747110203 0.9671515219516322 2.7046616788076546e-14
  outer loop
    vertex 51.17677406381998 -3.3318013475706656 1.2777832125721034e-13
    vertex 55.423361419600624 -4.447950093263142 1.9999999999994555
    vertex 55.42336141960066 -4.447950093263119 -6.641585059696808e-14
  endloop
endfacet
facet normal 0.25420057747110203 0.9671515219516322 2.7046616788076546e-14
  outer loop
    vertex 55.423361419600624 -4.447950093263142 1.9999999999994555
    vertex 51.17677406381998 -3.3318013475706656 1.2777832125721034e-13
    vertex 51.176774063819984 -3.3318013475706656 1.999999999999673
  endloop
endfacet
facet normal 0.2743993203474094 0.9616158344125164 3.579303109483473e-14
  outer loop
    vertex 55.42336141960066 -4.447950093263119 -6.641585059696808e-14
    vertex 56.83081133070164 -4.849569206851369 1.999999999999475
    vertex 56.830811330701756 -4.8495692068513225 -1.1622773854469413e-13
  endloop
endfacet
facet normal 0.2743993203474094 0.9616158344125164 3.579303109483473e-14
  outer loop
    vertex 56.83081133070164 -4.849569206851369 1.999999999999475
    vertex 55.42336141960066 -4.447950093263119 -6.641585059696808e-14
    vertex 55.423361419600624 -4.447950093263142 1.9999999999994555
  endloop
endfacet
facet normal -0.26343160323047066 0.9646780760540917 1.0778150983670875e-12
  outer loop
    vertex -53.35190627310719 -3.8994814908595252 -3.66731001122389e-13
    vertex -53.0977051834833 -3.8300649650345684 1.9999999999993856
    vertex -53.097705183483946 -3.8300649650315886 -6.215657322172774e-13
  endloop
endfacet
facet normal -0.26343160323047066 0.9646780760540917 1.0778150983670875e-12
  outer loop
    vertex -53.0977051834833 -3.8300649650345684 1.9999999999993856
    vertex -53.35190627310719 -3.8994814908595252 -3.66731001122389e-13
    vertex -53.35190627310659 -3.899481490862517 1.9999999999998253
  endloop
endfacet
facet normal -0.26343160323047066 0.9646780760540917 1.0778150983670875e-12
  outer loop
    vertex -53.35190627310659 -3.899481490862517 1.9999999999998253
    vertex -53.35190627310719 -3.8994814908595252 -3.66731001122389e-13
    vertex -55.05416369139831 -4.364329207360165 -2.0069137462996876e-13
  endloop
endfacet
facet normal -0.26343160323047066 0.9646780760540917 1.0778150983670875e-12
  outer loop
    vertex -53.35190627310659 -3.899481490862517 1.9999999999998253
    vertex -55.05416369139831 -4.364329207360165 -2.0069137462996876e-13
    vertex -53.351906273106636 -3.8994814908633026 3.6399999999471513
  endloop
endfacet
facet normal -0.26343160323047066 0.9646780760540917 1.0778150983670875e-12
  outer loop
    vertex -53.351906273106636 -3.8994814908633026 3.6399999999471513
    vertex -55.05416369139831 -4.364329207360165 -2.0069137462996876e-13
    vertex -55.0541636913978 -4.364329207363977 3.6399999999471557
  endloop
endfacet
facet normal -0.2431711350037541 0.9699834014564302 3.4894771953504185e-13
  outer loop
    vertex -53.097705183483946 -3.8300649650315886 -6.215657322172774e-13
    vertex -51.418391171823856 -3.409067354528457 1.9999999999999118
    vertex -51.41839117182437 -3.4090673545254537 -2.338992999284528e-13
  endloop
endfacet
facet normal -0.2431711350037541 0.9699834014564302 3.4894771953504185e-13
  outer loop
    vertex -51.418391171823856 -3.409067354528457 1.9999999999999118
    vertex -53.097705183483946 -3.8300649650315886 -6.215657322172774e-13
    vertex -53.0977051834833 -3.8300649650345684 1.9999999999993856
  endloop
endfacet
facet normal -0.2431711350037541 0.9699834014564302 3.4894771953504185e-13
  outer loop
    vertex -49.72785758677025 -2.9852570398126645 4.548041943053249e-13
    vertex -48.83868355714238 -2.7623445057670524 1.9999999999995812
    vertex -48.83868355714226 -2.7623445057669485 8.229790182667784e-14
  endloop
endfacet
facet normal -0.2431711350037541 0.9699834014564302 3.4894771953504185e-13
  outer loop
    vertex -48.83868355714238 -2.7623445057670524 1.9999999999995812
    vertex -49.72785758677025 -2.9852570398126645 4.548041943053249e-13
    vertex -49.72785758677039 -2.985257039812757 1.9999999999999538
  endloop
endfacet
facet normal -0.2431711350037541 0.9699834014564302 3.4894771953504185e-13
  outer loop
    vertex -49.72785758677039 -2.985257039812757 1.9999999999999538
    vertex -49.72785758677025 -2.9852570398126645 4.548041943053249e-13
    vertex -51.41839117182437 -3.4090673545254537 -2.338992999284528e-13
  endloop
endfacet
facet normal -0.2431711350037541 0.9699834014564302 3.4894771953504185e-13
  outer loop
    vertex -49.72785758677039 -2.985257039812757 1.9999999999999538
    vertex -51.41839117182437 -3.4090673545254537 -2.338992999284528e-13
    vertex -49.7278575867708 -2.9852570398138774 3.6809081062323132
  endloop
endfacet
facet normal -0.2431711350037541 0.9699834014564302 3.4894771953504185e-13
  outer loop
    vertex -49.7278575867708 -2.9852570398138774 3.6809081062323132
    vertex -51.41839117182437 -3.4090673545254537 -2.338992999284528e-13
    vertex -51.41839117182499 -3.409067354526632 3.6809081062316706
  endloop
endfacet
facet normal -0.2431711350037541 0.9699834014564302 3.4894771953504185e-13
  outer loop
    vertex -51.41839117182499 -3.409067354526632 3.6809081062316706
    vertex -51.41839117182437 -3.4090673545254537 -2.338992999284528e-13
    vertex -51.418391171823856 -3.409067354528457 1.9999999999999118
  endloop
endfacet
facet normal 0.2634316032289915 -0.9646780760544957 4.175200073718763e-13
  outer loop
    vertex -56.01772801243079 -7.737131889169165 3.639999999946607
    vertex -54.31547059413857 -7.2722841726731335 1.9999999999998304
    vertex -54.31547059413822 -7.272284172672105 3.6399999999464177
  endloop
endfacet
facet normal 0.2634316032289915 -0.9646780760544957 4.175200073718763e-13
  outer loop
    vertex -54.31547059413857 -7.2722841726731335 1.9999999999998304
    vertex -56.01772801243079 -7.737131889169165 3.639999999946607
    vertex -54.31547059413827 -7.272284172673849 -3.616776211856631e-13
  endloop
endfacet
facet normal 0.2634316032289915 -0.9646780760544957 4.175200073718763e-13
  outer loop
    vertex -54.31547059413827 -7.272284172673849 -3.616776211856631e-13
    vertex -56.01772801243079 -7.737131889169165 3.639999999946607
    vertex -56.017728012430815 -7.737131889170932 -1.4871375242364593e-13
  endloop
endfacet
facet normal 0.2634316032289915 -0.9646780760544957 4.175200073718763e-13
  outer loop
    vertex -52.37030946724589 -6.741104987703318 3.680908106231538
    vertex -52.337759407825416 -6.73221630810071 -8.951701602200046e-14
    vertex -52.33775940782565 -6.732216308099359 3.680908106231769
  endloop
endfacet
facet normal 0.2634316032289915 -0.9646780760544957 4.175200073718763e-13
  outer loop
    vertex -52.337759407825416 -6.73221630810071 -8.951701602200046e-14
    vertex -52.37030946724589 -6.741104987703318 3.680908106231538
    vertex -52.37030946724568 -6.741104987704704 -4.360344973974861e-13
  endloop
endfacet
facet normal 0.2634316032289915 -0.9646780760544957 4.175200073718763e-13
  outer loop
    vertex -52.37030946724568 -6.741104987704704 -4.360344973974861e-13
    vertex -52.37030946724589 -6.741104987703318 3.680908106231538
    vertex -52.37030946724598 -6.741104987703988 1.9999999999998253
  endloop
endfacet
facet normal 0.2634316032289915 -0.9646780760544957 4.175200073718763e-13
  outer loop
    vertex -52.37030946724568 -6.741104987704704 -4.360344973974861e-13
    vertex -52.37030946724598 -6.741104987703988 1.9999999999998253
    vertex -54.31547059413857 -7.2722841726731335 1.9999999999998304
  endloop
endfacet
facet normal 0.2634316032289915 -0.9646780760544957 4.175200073718763e-13
  outer loop
    vertex -52.37030946724568 -6.741104987704704 -4.360344973974861e-13
    vertex -54.31547059413857 -7.2722841726731335 1.9999999999998304
    vertex -54.31547059413827 -7.272284172673849 -3.616776211856631e-13
  endloop
endfacet
facet normal 1.5043748353430487e-15 1.4780736832325842e-14 -1.0
  outer loop
    vertex -53.35190627310719 -3.8994814908595252 -3.66731001122389e-13
    vertex -56.017728012430815 -7.737131889170932 -1.4871375242364593e-13
    vertex -55.05416369139831 -4.364329207360165 -2.0069137462996876e-13
  endloop
endfacet
facet normal 1.5043748353430487e-15 1.4780736832325842e-14 -1.0
  outer loop
    vertex -56.017728012430815 -7.737131889170932 -1.4871375242364593e-13
    vertex -53.35190627310719 -3.8994814908595252 -3.66731001122389e-13
    vertex -53.097705183483946 -3.8300649650315886 -6.215657322172774e-13
  endloop
endfacet
facet normal 1.5043748353430487e-15 1.4780736832325842e-14 -1.0
  outer loop
    vertex -56.017728012430815 -7.737131889170932 -1.4871375242364593e-13
    vertex -53.097705183483946 -3.8300649650315886 -6.215657322172774e-13
    vertex -51.41839117182437 -3.4090673545254537 -2.338992999284528e-13
  endloop
endfacet
facet normal 1.5043748353430487e-15 1.4780736832325842e-14 -1.0
  outer loop
    vertex -56.017728012430815 -7.737131889170932 -1.4871375242364593e-13
    vertex -51.41839117182437 -3.4090673545254537 -2.338992999284528e-13
    vertex -49.72785758677025 -2.9852570398126645 4.548041943053249e-13
  endloop
endfacet
facet normal 1.5043748353430487e-15 1.4780736832325842e-14 -1.0
  outer loop
    vertex -56.017728012430815 -7.737131889170932 -1.4871375242364593e-13
    vertex -49.72785758677025 -2.9852570398126645 4.548041943053249e-13
    vertex -48.83868355714226 -2.7623445057669485 8.229790182667784e-14
  endloop
endfacet
facet normal 1.5043748353430487e-15 1.4780736832325842e-14 -1.0
  outer loop
    vertex -56.017728012430815 -7.737131889170932 -1.4871375242364593e-13
    vertex -48.83868355714226 -2.7623445057669485 8.229790182667784e-14
    vertex -44.5582353544482 -1.7840524344310953 1.4438228390645235e-15
  endloop
endfacet
facet normal 1.5043748353430487e-15 1.4780736832325842e-14 -1.0
  outer loop
    vertex -56.017728012430815 -7.737131889170932 -1.4871375242364593e-13
    vertex -44.5582353544482 -1.7840524344310953 1.4438228390645235e-15
    vertex -40.25823812145355 -0.8956178622626434 5.84748249821132e-14
  endloop
endfacet
facet normal 1.5043748353430487e-15 1.4780736832325842e-14 -1.0
  outer loop
    vertex -56.017728012430815 -7.737131889170932 -1.4871375242364593e-13
    vertex -40.25823812145355 -0.8956178622626434 5.84748249821132e-14
    vertex -54.31547059413827 -7.272284172673849 -3.616776211856631e-13
  endloop
endfacet
facet normal 1.5043748353430487e-15 1.4780736832325842e-14 -1.0
  outer loop
    vertex -54.31547059413827 -7.272284172673849 -3.616776211856631e-13
    vertex -40.25823812145355 -0.8956178622626434 5.84748249821132e-14
    vertex -35.94057797906118 -0.09743048602816734 -2.302897428307915e-13
  endloop
endfacet
facet normal 1.5043748353430487e-15 1.4780736832325842e-14 -1.0
  outer loop
    vertex -54.31547059413827 -7.272284172673849 -3.616776211856631e-13
    vertex -35.94057797906118 -0.09743048602816734 -2.302897428307915e-13
    vertex -52.37030946724568 -6.741104987704704 -4.360344973974861e-13
  endloop
endfacet
facet normal 1.5043748353430487e-15 1.4780736832325842e-14 -1.0
  outer loop
    vertex -52.37030946724568 -6.741104987704704 -4.360344973974861e-13
    vertex -35.94057797906118 -0.09743048602816734 -2.302897428307915e-13
    vertex -52.337759407825416 -6.73221630810071 -8.951701602200046e-14
  endloop
endfacet
facet normal 1.5043748353430487e-15 1.4780736832325842e-14 -1.0
  outer loop
    vertex -52.337759407825416 -6.73221630810071 -8.951701602200046e-14
    vertex -35.94057797906118 -0.09743048602816734 -2.302897428307915e-13
    vertex -50.679551702544195 -6.316509968012118 -2.165734258596785e-15
  endloop
endfacet
facet normal 1.5043748353430487e-15 1.4780736832325842e-14 -1.0
  outer loop
    vertex -50.679551702544195 -6.316509968012118 -2.165734258596785e-15
    vertex -35.94057797906118 -0.09743048602816734 -2.302897428307915e-13
    vertex -48.13968252214203 -5.67977446260708 -5.558717930398416e-14
  endloop
endfacet
facet normal 1.5043748353430487e-15 1.4780736832325842e-14 -1.0
  outer loop
    vertex -48.13968252214203 -5.67977446260708 -5.558717930398416e-14
    vertex -35.94057797906118 -0.09743048602816734 -2.302897428307915e-13
    vertex -31.607148795709723 0.6101595829087861 -1.0323333299311343e-13
  endloop
endfacet
facet normal 1.5043748353430487e-15 1.4780736832325842e-14 -1.0
  outer loop
    vertex -48.13968252214203 -5.67977446260708 -5.558717930398416e-14
    vertex -31.607148795709723 0.6101595829087861 -1.0323333299311343e-13
    vertex -43.92048566506281 -4.715481323844728 1.6387389223382341e-13
  endloop
endfacet
facet normal 1.5043748353430487e-15 1.4780736832325842e-14 -1.0
  outer loop
    vertex -43.92048566506281 -4.715481323844728 1.6387389223382341e-13
    vertex -31.607148795709723 0.6101595829087861 -1.0323333299311343e-13
    vertex -39.68201951577418 -3.839759862654063 -5.558717930398416e-14
  endloop
endfacet
facet normal 1.5043748353430487e-15 1.4780736832325842e-14 -1.0
  outer loop
    vertex -39.68201951577418 -3.839759862654063 -5.558717930398416e-14
    vertex -31.607148795709723 0.6101595829087861 -1.0323333299311343e-13
    vertex -27.25985135665888 1.2268419721584811 -2.2379254005500115e-14
  endloop
endfacet
facet normal 1.5043748353430487e-15 1.4780736832325842e-14 -1.0
  outer loop
    vertex -39.68201951577418 -3.839759862654063 -5.558717930398416e-14
    vertex -27.25985135665888 1.2268419721584811 -2.2379254005500115e-14
    vertex -35.42614320561262 -3.052994199411128 -2.7504825084179175e-13
  endloop
endfacet
facet normal 1.5043748353430487e-15 1.4780736832325842e-14 -1.0
  outer loop
    vertex -35.42614320561262 -3.052994199411128 -2.7504825084179175e-13
    vertex -27.25985135665888 1.2268419721584811 -2.2379254005500115e-14
    vertex -22.900592530246886 1.7523461844425636 -8.013216756808106e-14
  endloop
endfacet
facet normal 1.5043748353430487e-15 1.4780736832325842e-14 -1.0
  outer loop
    vertex -35.42614320561262 -3.052994199411128 -2.7504825084179175e-13
    vertex -22.900592530246886 1.7523461844425636 -8.013216756808106e-14
    vertex -31.154723502585064 -2.355529435538653 -3.248601387895178e-14
  endloop
endfacet
facet normal 1.5043748353430487e-15 1.4780736832325842e-14 -1.0
  outer loop
    vertex -31.154723502585064 -2.355529435538653 -3.248601387895178e-14
    vertex -22.900592530246886 1.7523461844425636 -8.013216756808106e-14
    vertex -18.531284431467817 2.1864417162461973 9.312657311966176e-14
  endloop
endfacet
facet normal 1.5043748353430487e-15 1.4780736832325842e-14 -1.0
  outer loop
    vertex -31.154723502585064 -2.355529435538653 -3.248601387895178e-14
    vertex -18.531284431467817 2.1864417162461973 9.312657311966176e-14
    vertex -26.869633992546 -1.7476715021334728 2.1007622308388818e-13
  endloop
endfacet
facet normal 1.5043748353430487e-15 1.4780736832325842e-14 -1.0
  outer loop
    vertex -26.869633992546 -1.7476715021334728 2.1007622308388818e-13
    vertex -18.531284431467817 2.1864417162461973 9.312657311966176e-14
    vertex -14.153843583262011 2.52893815892184 1.0467715583217795e-13
  endloop
endfacet
facet normal 1.5043748353430487e-15 1.4780736832325842e-14 -1.0
  outer loop
    vertex -26.869633992546 -1.7476715021334728 2.1007622308388818e-13
    vertex -14.153843583262011 2.52893815892184 1.0467715583217795e-13
    vertex -22.572754257377646 -1.2296870257753556 -3.248601387895178e-14
  endloop
endfacet
facet normal 1.5043748353430487e-15 1.4780736832325842e-14 -1.0
  outer loop
    vertex -22.572754257377646 -1.2296870257753556 -3.248601387895178e-14
    vertex -14.153843583262011 2.52893815892184 1.0467715583217795e-13
    vertex -18.265969050544054 -0.8018032115744324 -4.4036596591467966e-14
  endloop
endfacet
facet normal 1.5043748353430487e-15 1.4780736832325842e-14 -1.0
  outer loop
    vertex -18.265969050544054 -0.8018032115744324 -4.4036596591467966e-14
    vertex -14.153843583262011 2.52893815892184 1.0467715583217795e-13
    vertex -9.770190075861818 2.7796852822098415 1.624300693947589e-13
  endloop
endfacet
facet normal 1.5043748353430487e-15 1.4780736832325842e-14 -1.0
  outer loop
    vertex -18.265969050544054 -0.8018032115744324 -4.4036596591467966e-14
    vertex -9.770190075861818 2.7796852822098415 1.624300693947589e-13
    vertex -13.951167470378506 -0.464207743513704 -2.627757567097433e-13
  endloop
endfacet
facet normal 1.5043748353430487e-15 1.4780736832325842e-14 -1.0
  outer loop
    vertex -13.951167470378506 -0.464207743513704 -2.627757567097433e-13
    vertex -9.770190075861818 2.7796852822098415 1.624300693947589e-13
    vertex -5.382246724575438 2.9385731001349717 -1.9563799469324294e-13
  endloop
endfacet
facet normal 1.5043748353430487e-15 1.4780736832325842e-14 -1.0
  outer loop
    vertex -13.951167470378506 -0.464207743513704 -2.627757567097433e-13
    vertex -5.382246724575438 2.9385731001349717 -1.9563799469324294e-13
    vertex -9.630242131459775 -0.21704870212342955 -3.436298356973566e-13
  endloop
endfacet
facet normal 1.5043748353430487e-15 1.4780736832325842e-14 -1.0
  outer loop
    vertex -9.630242131459775 -0.21704870212342955 -3.436298356973566e-13
    vertex -5.382246724575438 2.9385731001349717 -1.9563799469324294e-13
    vertex -0.9919382263803934 3.0055319192489747 9.312657311966176e-14
  endloop
endfacet
facet normal 1.5043748353430487e-15 1.4780736832325842e-14 -1.0
  outer loop
    vertex -9.630242131459775 -0.21704870212342955 -3.436298356973566e-13
    vertex -0.9919382263803934 3.0055319192489747 9.312657311966176e-14
    vertex -5.305088334448433 -0.06043449952729106 -3.104219103988726e-14
  endloop
endfacet
facet normal 1.5043748353430487e-15 1.4780736832325842e-14 -1.0
  outer loop
    vertex -5.305088334448433 -0.06043449952729106 -3.104219103988726e-14
    vertex -0.9919382263803934 3.0055319192489747 9.312657311966176e-14
    vertex 3.398809684316601 2.980532369201162 -1.0106759873451664e-14
  endloop
endfacet
facet normal 1.5043748353430487e-15 1.4780736832325842e-14 -1.0
  outer loop
    vertex -5.305088334448433 -0.06043449952729106 -3.104219103988726e-14
    vertex 3.398809684316601 2.980532369201162 -1.0106759873451664e-14
    vertex -0.9776032347486441 0.005566168108837792 -1.3499743545253294e-13
  endloop
endfacet
facet normal 1.5043748353430487e-15 1.4780736832325842e-14 -1.0
  outer loop
    vertex -0.9776032347486441 0.005566168108837792 -1.3499743545253294e-13
    vertex 3.398809684316601 2.980532369201162 -1.0106759873451664e-14
    vertex 7.788071080363622 2.863585415619587 2.3317738850892056e-13
  endloop
endfacet
facet normal 1.5043748353430487e-15 1.4780736832325842e-14 -1.0
  outer loop
    vertex -0.9776032347486441 0.005566168108837792 -1.3499743545253294e-13
    vertex 7.788071080363622 2.863585415619587 2.3317738850892056e-13
    vertex 3.35031498965029 -0.01907564928910515 6.208438207977452e-14
  endloop
endfacet
facet normal 1.5043748353430487e-15 1.4780736832325842e-14 -1.0
  outer loop
    vertex 3.35031498965029 -0.01907564928910515 6.208438207977452e-14
    vertex 7.788071080363622 2.863585415619587 2.3317738850892056e-13
    vertex 12.173920686647515 2.6547423553037284 1.9852564037137198e-13
  endloop
endfacet
facet normal 1.5043748353430487e-15 1.4780736832325842e-14 -1.0
  outer loop
    vertex 3.35031498965029 -0.01907564928910515 6.208438207977452e-14
    vertex 12.173920686647515 2.6547423553037284 1.9852564037137198e-13
    vertex 7.676767970777257 -0.13434914300504097 5.053379936725832e-15
  endloop
endfacet
facet normal 1.5043748353430487e-15 1.4780736832325842e-14 -1.0
  outer loop
    vertex 7.676767970777257 -0.13434914300504097 5.053379936725832e-15
    vertex 12.173920686647515 2.6547423553037284 1.9852564037137198e-13
    vertex 16.554434724577497 2.354094793722417 2.5700046535348517e-13
  endloop
endfacet
facet normal 1.5043748353430487e-15 1.4780736832325842e-14 -1.0
  outer loop
    vertex 7.676767970777257 -0.13434914300504097 5.053379936725832e-15
    vertex 16.554434724577497 2.354094793722417 2.5700046535348517e-13
    vertex 11.999857983362972 -0.34020375027565 1.3283170119393616e-13
  endloop
endfacet
facet normal 1.5043748353430487e-15 1.4780736832325842e-14 -1.0
  outer loop
    vertex 11.999857983362972 -0.34020375027565 1.3283170119393616e-13
    vertex 16.554434724577497 2.354094793722417 2.5700046535348517e-13
    vertex 20.92769175591813 1.9617746048318563 2.6927295948553364e-13
  endloop
endfacet
facet normal 1.5043748353430487e-15 1.4780736832325842e-14 -1.0
  outer loop
    vertex 11.999857983362972 -0.34020375027565 1.3283170119393616e-13
    vertex 20.92769175591813 1.9617746048318563 2.6927295948553364e-13
    vertex 16.31768877724866 -0.636549176466139 1.68205360751017e-13
  endloop
endfacet
facet normal 1.5043748353430487e-15 1.4780736832325842e-14 -1.0
  outer loop
    vertex 16.31768877724866 -0.636549176466139 1.68205360751017e-13
    vertex 20.92769175591813 1.9617746048318563 2.6927295948553364e-13
    vertex 25.29177352559909 1.4779538732340196 3.284696958871791e-13
  endloop
endfacet
facet normal 1.5043748353430487e-15 1.4780736832325842e-14 -1.0
  outer loop
    vertex 16.31768877724866 -0.636549176466139 1.68205360751017e-13
    vertex 25.29177352559909 1.4779538732340196 3.284696958871791e-13
    vertex 20.628366409142746 -1.0232554346783564 1.8769696907838806e-14
  endloop
endfacet
facet normal 1.5043748353430487e-15 1.4780736832325842e-14 -1.0
  outer loop
    vertex 20.628366409142746 -1.0232554346783564 1.8769696907838806e-14
    vertex 25.29177352559909 1.4779538732340196 3.284696958871791e-13
    vertex 29.644765803121125 0.9028448186917357 3.638433554442599e-13
  endloop
endfacet
facet normal 1.5043748353430487e-15 1.4780736832325842e-14 -1.0
  outer loop
    vertex 20.628366409142746 -1.0232554346783564 1.8769696907838806e-14
    vertex 29.644765803121125 0.9028448186917357 3.638433554442599e-13
    vertex 24.930000073367005 -1.5001529027664315 1.2416876415954903e-13
  endloop
endfacet
facet normal 1.5043748353430487e-15 1.4780736832325842e-14 -1.0
  outer loop
    vertex 24.930000073367005 -1.5001529027664315 1.2416876415954903e-13
    vertex 29.644765803121125 0.9028448186917357 3.638433554442599e-13
    vertex 33.98475922220387 0.2366997030439852 7.580069905088748e-14
  endloop
endfacet
facet normal 1.5043748353430487e-15 1.4780736832325842e-14 -1.0
  outer loop
    vertex 24.930000073367005 -1.5001529027664315 1.2416876415954903e-13
    vertex 33.98475922220387 0.2366997030439852 7.580069905088748e-14
    vertex 29.22070293122442 -2.067032397739969 6.713776201650035e-14
  endloop
endfacet
facet normal 1.5043748353430487e-15 1.4780736832325842e-14 -1.0
  outer loop
    vertex 29.22070293122442 -2.067032397739969 6.713776201650035e-14
    vertex 33.98475922220387 0.2366997030439852 7.580069905088748e-14
    vertex 38.309850118295664 -0.5201892804449858 2.043009317276301e-13
  endloop
endfacet
facet normal 1.5043748353430487e-15 1.4780736832325842e-14 -1.0
  outer loop
    vertex 29.22070293122442 -2.067032397739969 6.713776201650035e-14
    vertex 38.309850118295664 -0.5201892804449858 2.043009317276301e-13
    vertex 33.49859293863474 -2.72364526751601 -1.227249413204845e-14
  endloop
endfacet
facet normal 1.5043748353430487e-15 1.4780736832325842e-14 -1.0
  outer loop
    vertex 33.49859293863474 -2.72364526751601 -1.227249413204845e-14
    vertex 38.309850118295664 -0.5201892804449858 2.043009317276301e-13
    vertex 42.61814136358377 -1.3674901352521207 1.4799184100411366e-13
  endloop
endfacet
facet normal 1.5043748353430487e-15 1.4780736832325842e-14 -1.0
  outer loop
    vertex 33.49859293863474 -2.72364526751601 -1.227249413204845e-14
    vertex 42.61814136358377 -1.3674901352521207 1.4799184100411366e-13
    vertex 37.76179367165308 -3.4697034999893495 4.692424226959702e-14
  endloop
endfacet
facet normal 1.5043748353430487e-15 1.4780736832325842e-14 -1.0
  outer loop
    vertex 37.76179367165308 -3.4697034999893495 4.692424226959702e-14
    vertex 42.61814136358377 -1.3674901352521207 1.4799184100411366e-13
    vertex 42.00843514953958 -4.3048798493613365 8.30198132462101e-14
  endloop
endfacet
facet normal 1.5043748353430487e-15 1.4780736832325842e-14 -1.0
  outer loop
    vertex 42.00843514953958 -4.3048798493613365 8.30198132462101e-14
    vertex 42.61814136358377 -1.3674901352521207 1.4799184100411366e-13
    vertex 46.907743199138125 -2.3048312072183457 9.168275028059725e-14
  endloop
endfacet
facet normal 1.5043748353430487e-15 1.4780736832325842e-14 -1.0
  outer loop
    vertex 42.00843514953958 -4.3048798493613365 8.30198132462101e-14
    vertex 46.907743199138125 -2.3048312072183457 9.168275028059725e-14
    vertex 46.2366546549879 -5.228807979682609 4.981188794772606e-14
  endloop
endfacet
facet normal 1.5043748353430487e-15 1.4780736832325842e-14 -1.0
  outer loop
    vertex 46.2366546549879 -5.228807979682609 4.981188794772606e-14
    vertex 46.907743199138125 -2.3048312072183457 9.168275028059725e-14
    vertex 51.17677406381998 -3.3318013475706656 1.2777832125721034e-13
  endloop
endfacet
facet normal 1.5043748353430487e-15 1.4780736832325842e-14 -1.0
  outer loop
    vertex 46.2366546549879 -5.228807979682609 4.981188794772606e-14
    vertex 51.17677406381998 -3.3318013475706656 1.2777832125721034e-13
    vertex 50.444597551179484 -6.241082625538859 -5.775291356258094e-15
  endloop
endfacet
facet normal 1.5043748353430487e-15 1.4780736832325842e-14 -1.0
  outer loop
    vertex 50.444597551179484 -6.241082625538859 -5.775291356258094e-15
    vertex 51.17677406381998 -3.3318013475706656 1.2777832125721034e-13
    vertex 55.42336141960066 -4.447950093263119 -6.641585059696808e-14
  endloop
endfacet
facet normal 1.5043748353430487e-15 1.4780736832325842e-14 -1.0
  outer loop
    vertex 50.444597551179484 -6.241082625538859 -5.775291356258094e-15
    vertex 55.42336141960066 -4.447950093263119 -6.641585059696808e-14
    vertex 54.630418095286075 -7.341259769814653 -1.0828671292983927e-13
  endloop
endfacet
facet normal 1.5043748353430487e-15 1.4780736832325842e-14 -1.0
  outer loop
    vertex 54.630418095286075 -7.341259769814653 -1.0828671292983927e-13
    vertex 55.42336141960066 -4.447950093263119 -6.641585059696808e-14
    vertex 56.830811330701756 -4.8495692068513225 -1.1622773854469413e-13
  endloop
endfacet
facet normal 1.5043748353430487e-15 1.4780736832325842e-14 -1.0
  outer loop
    vertex 54.630418095286075 -7.341259769814653 -1.0828671292983927e-13
    vertex 56.830811330701756 -4.8495692068513225 -1.1622773854469413e-13
    vertex 56.017728012430375 -7.737131889170944 3.2774778446764683e-13
  endloop
endfacet
facet normal 0.9615309949845174 -0.2746964609966498 1.8180014182699347e-13
  outer loop
    vertex -50.679551702544266 -6.316509968010674 3.680908106231995
    vertex -49.72785758677039 -2.985257039812757 1.9999999999999538
    vertex -49.7278575867708 -2.9852570398138774 3.6809081062323132
  endloop
endfacet
facet normal 0.9615309949845174 -0.2746964609966498 1.8180014182699347e-13
  outer loop
    vertex -49.72785758677039 -2.985257039812757 1.9999999999999538
    vertex -50.679551702544266 -6.316509968010674 3.680908106231995
    vertex -50.679551702544174 -6.316509968012118 1.9999999999997509
  endloop
endfacet
facet normal -2.7644950240530224e-13 4.1404109104047785e-14 1.0
  outer loop
    vertex -52.37030946724589 -6.741104987703318 3.680908106231538
    vertex -49.7278575867708 -2.9852570398138774 3.6809081062323132
    vertex -51.41839117182499 -3.409067354526632 3.6809081062316706
  endloop
endfacet
facet normal -2.7644950240530224e-13 4.1404109104047785e-14 1.0
  outer loop
    vertex -49.7278575867708 -2.9852570398138774 3.6809081062323132
    vertex -52.37030946724589 -6.741104987703318 3.680908106231538
    vertex -52.33775940782565 -6.732216308099359 3.680908106231769
  endloop
endfacet
facet normal -2.7644950240530224e-13 4.1404109104047785e-14 1.0
  outer loop
    vertex -49.7278575867708 -2.9852570398138774 3.6809081062323132
    vertex -52.33775940782565 -6.732216308099359 3.680908106231769
    vertex -50.679551702544266 -6.316509968010674 3.680908106231995
  endloop
endfacet
facet normal 1.3413192852505503e-13 -2.304112897107269e-13 1.0
  outer loop
    vertex -56.01772801243079 -7.737131889169165 3.639999999946607
    vertex -53.351906273106636 -3.8994814908633026 3.6399999999471513
    vertex -55.0541636913978 -4.364329207363977 3.6399999999471557
  endloop
endfacet
facet normal 1.3413192852505503e-13 -2.304112897107269e-13 1.0
  outer loop
    vertex -53.351906273106636 -3.8994814908633026 3.6399999999471513
    vertex -56.01772801243079 -7.737131889169165 3.639999999946607
    vertex -54.31547059413822 -7.272284172672105 3.6399999999464177
  endloop
endfacet
endsolid working_stargate_mk2_ring_1
Working Stargate Mk2
www.glitch.org.uk