solid working_stargate_mk2_ring_6
facet normal -0.6693502888330709 -0.7429469636784881 2.2996693043293794e-13
  outer loop
    vertex -27.041945637447277 5.484935136367155 -2.2451445147453342e-13
    vertex -30.012356423241787 8.161095635874574 3.3399999999990775
    vertex -30.012356423241325 8.161095635874203 -1.2258055903657804e-12
  endloop
endfacet
facet normal -0.6693502888330709 -0.7429469636784881 2.2996693043293794e-13
  outer loop
    vertex -30.012356423241787 8.161095635874574 3.3399999999990775
    vertex -27.041945637447277 5.484935136367155 -2.2451445147453342e-13
    vertex -27.04194563744626 5.48493513636734 0.7999999999995474
  endloop
endfacet
facet normal -0.6693502888330709 -0.7429469636784881 2.2996693043293794e-13
  outer loop
    vertex -30.012356423241787 8.161095635874574 3.3399999999990775
    vertex -27.04194563744626 5.48493513636734 0.7999999999995474
    vertex -27.041945637446492 5.484935136369003 3.3399999999992245
  endloop
endfacet
facet normal -0.5730341453843574 -0.8195314931249557 2.0596244858015683e-14
  outer loop
    vertex -3.859540523231953 -0.07812376625004763 -8.662937034387142e-14
    vertex -9.497258870757774 3.863890838794254 0.8000000000000224
    vertex -9.497258870757681 3.8638908387941617 -4.656328655983088e-13
  endloop
endfacet
facet normal -0.5730341453843574 -0.8195314931249557 2.0596244858015683e-14
  outer loop
    vertex -9.497258870757774 3.863890838794254 0.8000000000000224
    vertex -3.859540523231953 -0.07812376625004763 -8.662937034387142e-14
    vertex -3.859540523232045 -0.07812376625000142 0.8000000000001934
  endloop
endfacet
facet normal 0.5968028815510841 0.8023878866061743 -6.699158365167896e-14
  outer loop
    vertex 6.087302344127625 3.6090081037037267 0.8000000000001147
    vertex 11.982329265857699 -0.7756157327683769 3.717843810591148e-13
    vertex 6.087302344127741 3.609008103703542 1.3499743545253294e-13
  endloop
endfacet
facet normal 0.5968028815510841 0.8023878866061743 -6.699158365167896e-14
  outer loop
    vertex 11.982329265857699 -0.7756157327683769 3.717843810591148e-13
    vertex 6.087302344127625 3.6090081037037267 0.8000000000001147
    vertex 11.982329265857214 -0.7756157327683307 0.8000000000001436
  endloop
endfacet
facet normal 0.5872361252616408 0.8094156739202018 -3.2951035173919886e-13
  outer loop
    vertex -2.2009165658340186 9.622162672897197 -1.3355361261346843e-13
    vertex 2.079162357367735 6.5169386901596065 0.8000000000003797
    vertex 6.087302344127741 3.609008103703542 1.3499743545253294e-13
  endloop
endfacet
facet normal 0.5872361252616408 0.8094156739202018 -3.2951035173919886e-13
  outer loop
    vertex 2.079162357367735 6.5169386901596065 0.8000000000003797
    vertex -2.2009165658340186 9.622162672897197 -1.3355361261346843e-13
    vertex -2.2009165658343424 9.622162672892854 2.4399999999997735
  endloop
endfacet
facet normal 0.5872361252616408 0.8094156739202018 -3.2951035173919886e-13
  outer loop
    vertex 6.087302344127741 3.609008103703542 1.3499743545253294e-13
    vertex 2.079162357367735 6.5169386901596065 0.8000000000003797
    vertex 6.087302344127625 3.6090081037037267 0.8000000000001147
  endloop
endfacet
facet normal 0.5872361252616408 0.8094156739202018 -3.2951035173919886e-13
  outer loop
    vertex 2.079162357367735 6.5169386901596065 0.8000000000003797
    vertex -2.2009165658343424 9.622162672892854 2.4399999999997735
    vertex 2.079162357367435 6.516938690160993 2.440000000000099
  endloop
endfacet
facet normal 5.295306258791241e-14 -1.0 -4.2518020806115484e-13
  outer loop
    vertex -9.521231053857885 -0.07812376625018623 0.8000000000004894
    vertex -12.02327252879313 -0.07812376625009383 -1.811997663025977e-13
    vertex -9.521231053857331 -0.07812376625000142 -2.75770162261324e-13
  endloop
endfacet
facet normal 5.295306258791241e-14 -1.0 -4.2518020806115484e-13
  outer loop
    vertex -12.02327252879313 -0.07812376625009383 -1.811997663025977e-13
    vertex -9.521231053857885 -0.07812376625018623 0.8000000000004894
    vertex -12.023272528792667 -0.07812376625050965 0.800000000000423
  endloop
endfacet
facet normal 0.546659274820009 0.8373551440417992 -2.1344077644049445e-14
  outer loop
    vertex -15.256792534017299 3.666282537024558 0.8000000000000231
    vertex -9.521231053857331 -0.07812376625000142 -2.75770162261324e-13
    vertex -15.256792534016466 3.6662825370247427 -3.7250629247864705e-13
  endloop
endfacet
facet normal 0.546659274820009 0.8373551440417992 -2.1344077644049445e-14
  outer loop
    vertex -9.521231053857331 -0.07812376625000142 -2.75770162261324e-13
    vertex -15.256792534017299 3.666282537024558 0.8000000000000231
    vertex -9.521231053857885 -0.07812376625018623 0.8000000000004894
  endloop
endfacet
facet normal -0.10452846326767783 -0.9945218953682707 3.490551440325514e-14
  outer loop
    vertex 11.982329265857699 -0.7756157327683769 3.717843810591148e-13
    vertex 3.8595405232318374 0.07812376625014003 0.8000000000001805
    vertex 3.859540523231953 0.07812376625004763 8.518554750480689e-14
  endloop
endfacet
facet normal -0.10452846326767783 -0.9945218953682707 3.490551440325514e-14
  outer loop
    vertex 3.8595405232318374 0.07812376625014003 0.8000000000001805
    vertex 11.982329265857699 -0.7756157327683769 3.717843810591148e-13
    vertex 11.982329265857214 -0.7756157327683307 0.8000000000001436
  endloop
endfacet
facet normal -0.10452846326759399 -0.9945218953682796 9.260588666119745e-14
  outer loop
    vertex 20.451956442345125 -1.6658094201377331 3.645652668637922e-13
    vertex 18.077583707325093 -1.416252789587647 0.8000000000004331
    vertex 18.077583707325026 -1.4162527895877395 2.9165221349103375e-13
  endloop
endfacet
facet normal -0.10452846326759399 -0.9945218953682796 9.260588666119745e-14
  outer loop
    vertex 18.077583707325093 -1.416252789587647 0.8000000000004331
    vertex 20.451956442345125 -1.6658094201377331 3.645652668637922e-13
    vertex 20.451956442345196 -1.6658094201376867 0.800000000000483
  endloop
endfacet
facet normal -0.5651657921576521 -0.8249773496131961 -1.473364529237373e-13
  outer loop
    vertex 3.251338666851782 9.481418042212029 -1.0828671292983927e-14
    vertex 7.991184888067987 6.2342998691189555 0.7999999999997047
    vertex 3.2513386668517357 9.481418042210182 2.4399999999999658
  endloop
endfacet
facet normal -0.5651657921576521 -0.8249773496131961 -1.473364529237373e-13
  outer loop
    vertex 7.991184888067987 6.2342998691189555 0.7999999999997047
    vertex 3.251338666851782 9.481418042212029 -1.0828671292983927e-14
    vertex 11.08704779813619 4.11342247193837 -6.497202775790356e-15
  endloop
endfacet
facet normal -0.5651657921576521 -0.8249773496131961 -1.473364529237373e-13
  outer loop
    vertex 7.991184888067987 6.2342998691189555 0.7999999999997047
    vertex 11.08704779813619 4.11342247193837 -6.497202775790356e-15
    vertex 11.08704779813552 4.113422471938463 0.7999999999996961
  endloop
endfacet
facet normal -0.5651657921576521 -0.8249773496131961 -1.473364529237373e-13
  outer loop
    vertex 3.2513386668517357 9.481418042210182 2.4399999999999658
    vertex 7.991184888067987 6.2342998691189555 0.7999999999997047
    vertex 7.991184888067779 6.234299869119417 2.440000000000117
  endloop
endfacet
facet normal 3.3683817200227686e-14 8.04242311499487e-14 1.0
  outer loop
    vertex 1.8596456475095409 7.521908185411494 4.340000000000249
    vertex 6.652793321282185 8.332684424843874 4.339999999999888
    vertex 1.8596456475089864 8.583882650201616 4.34000000000012
  endloop
endfacet
facet normal 3.3683817200227686e-14 8.04242311499487e-14 1.0
  outer loop
    vertex 6.652793321282185 8.332684424843874 4.339999999999888
    vertex 1.8596456475095409 7.521908185411494 4.340000000000249
    vertex 6.652793321282139 7.2707099600538445 4.339999999999971
  endloop
endfacet
facet normal -0.5011558708865254 -0.8653570321410513 -6.119197961097265e-13
  outer loop
    vertex -9.497258870757774 3.863890838794254 0.8000000000000224
    vertex -13.982156471288828 6.461238152503133 0.7999999999986962
    vertex -9.497258870757681 3.8638908387941617 -4.656328655983088e-13
  endloop
endfacet
facet normal -0.5011558708865254 -0.8653570321410513 -6.119197961097265e-13
  outer loop
    vertex -18.72441904509875 9.207633734765622 -5.623689958156319e-13
    vertex -13.982156471288828 6.461238152503133 0.7999999999986962
    vertex -18.724419045099072 9.207633734761279 2.439999999999368
  endloop
endfacet
facet normal -0.5011558708865254 -0.8653570321410513 -6.119197961097265e-13
  outer loop
    vertex -13.982156471288828 6.461238152503133 0.7999999999986962
    vertex -18.72441904509875 9.207633734765622 -5.623689958156319e-13
    vertex -9.497258870757681 3.8638908387941617 -4.656328655983088e-13
  endloop
endfacet
facet normal -0.5011558708865254 -0.8653570321410513 -6.119197961097265e-13
  outer loop
    vertex -18.724419045099072 9.207633734761279 2.439999999999368
    vertex -13.982156471288828 6.461238152503133 0.7999999999986962
    vertex -13.982156471289013 6.461238152504519 2.4399999999983923
  endloop
endfacet
facet normal 1.0 -8.526512829121321e-14 -3.3683817200222063e-14
  outer loop
    vertex 6.652793321282162 8.332684424843967 3.3399999999998844
    vertex 6.652793321282139 7.2707099600538445 4.339999999999971
    vertex 6.6527933212821155 7.2707099600538445 3.3399999999999683
  endloop
endfacet
facet normal 1.0 -8.526512829121321e-14 -3.3683817200222063e-14
  outer loop
    vertex 6.652793321282139 7.2707099600538445 4.339999999999971
    vertex 6.652793321282162 8.332684424843967 3.3399999999998844
    vertex 6.652793321282185 8.332684424843874 4.339999999999888
  endloop
endfacet
facet normal 0.05233595624285579 0.9986295347545786 -8.207581937150246e-14
  outer loop
    vertex 1.8596456475089633 8.583882650201708 3.3399999999999777
    vertex 6.652793321282185 8.332684424843874 4.339999999999888
    vertex 6.652793321282162 8.332684424843967 3.3399999999998844
  endloop
endfacet
facet normal 0.05233595624285579 0.9986295347545786 -8.207581937150246e-14
  outer loop
    vertex 6.652793321282185 8.332684424843874 4.339999999999888
    vertex 1.8596456475089633 8.583882650201708 3.3399999999999777
    vertex 1.8596456475089864 8.583882650201616 4.34000000000012
  endloop
endfacet
facet normal -0.052335956242861824 -0.9986295347545784 8.208102354193028e-14
  outer loop
    vertex 6.652793321282139 7.2707099600538445 4.339999999999971
    vertex 1.8596456475096101 7.521908185411679 3.3400000000001073
    vertex 6.6527933212821155 7.2707099600538445 3.3399999999999683
  endloop
endfacet
facet normal -0.052335956242861824 -0.9986295347545784 8.208102354193028e-14
  outer loop
    vertex 1.8596456475096101 7.521908185411679 3.3400000000001073
    vertex 6.652793321282139 7.2707099600538445 4.339999999999971
    vertex 1.8596456475095409 7.521908185411494 4.340000000000249
  endloop
endfacet
facet normal -7.273105971009297e-14 9.054781621304318e-14 1.0
  outer loop
    vertex -12.663182051998987 7.51825798979971 4.339999999999678
    vertex -7.863456205171594 8.645406452082645 4.339999999999743
    vertex -12.663182051999634 8.59514200316533 4.339999999999362
  endloop
endfacet
facet normal -7.273105971009297e-14 9.054781621304318e-14 1.0
  outer loop
    vertex -7.863456205171594 8.645406452082645 4.339999999999743
    vertex -12.663182051998987 7.51825798979971 4.339999999999678
    vertex -7.863456205171317 7.568522438716102 4.339999999999782
  endloop
endfacet
facet normal 0.01047178411612766 -0.9999451693655135 9.130371537212041e-14
  outer loop
    vertex -7.863456205170947 7.568522438716287 3.339999999999917
    vertex -12.663182051998987 7.51825798979971 4.339999999999678
    vertex -12.663182051998803 7.518257989799433 3.339999999999814
  endloop
endfacet
facet normal 0.01047178411612766 -0.9999451693655135 9.130371537212041e-14
  outer loop
    vertex -12.663182051998987 7.51825798979971 4.339999999999678
    vertex -7.863456205170947 7.568522438716287 3.339999999999917
    vertex -7.863456205171317 7.568522438716102 4.339999999999782
  endloop
endfacet
facet normal 1.0 1.3078427230084607e-13 7.273105971009123e-14
  outer loop
    vertex -7.863456205170947 7.568522438716287 3.339999999999917
    vertex -7.863456205171594 8.645406452082645 4.339999999999743
    vertex -7.863456205171317 7.568522438716102 4.339999999999782
  endloop
endfacet
facet normal 1.0 1.3078427230084607e-13 7.273105971009123e-14
  outer loop
    vertex -7.863456205171594 8.645406452082645 4.339999999999743
    vertex -7.863456205170947 7.568522438716287 3.339999999999917
    vertex -7.863456205171594 8.645406452082645 3.3399999999998085
  endloop
endfacet
facet normal -0.6203926071266312 -0.784291408229506 4.341083278076257e-14
  outer loop
    vertex 18.077583707325026 -1.4162527895877395 2.9165221349103375e-13
    vertex 11.08704779813552 4.113422471938463 0.7999999999996961
    vertex 11.08704779813619 4.11342247193837 -6.497202775790356e-15
  endloop
endfacet
facet normal -0.6203926071266312 -0.784291408229506 4.341083278076257e-14
  outer loop
    vertex 11.08704779813552 4.113422471938463 0.7999999999996961
    vertex 18.077583707325026 -1.4162527895877395 2.9165221349103375e-13
    vertex 18.077583707325093 -1.416252789587647 0.8000000000004331
  endloop
endfacet
facet normal -1.0 -7.022160630752852e-15 3.368381720022546e-14
  outer loop
    vertex 1.8596456475089864 8.583882650201616 4.34000000000012
    vertex 1.8596456475096101 7.521908185411679 3.3400000000001073
    vertex 1.8596456475095409 7.521908185411494 4.340000000000249
  endloop
endfacet
facet normal -1.0 -7.022160630752852e-15 3.368381720022546e-14
  outer loop
    vertex 1.8596456475096101 7.521908185411679 3.3400000000001073
    vertex 1.8596456475089864 8.583882650201616 4.34000000000012
    vertex 1.8596456475089633 8.583882650201708 3.3399999999999777
  endloop
endfacet
facet normal -0.010471784116301102 0.9999451693655117 -9.130414905299232e-14
  outer loop
    vertex -12.663182051999634 8.59514200316533 4.339999999999362
    vertex -7.863456205171594 8.645406452082645 3.3399999999998085
    vertex -12.663182051999264 8.595142003165146 3.3399999999994514
  endloop
endfacet
facet normal -0.010471784116301102 0.9999451693655117 -9.130414905299232e-14
  outer loop
    vertex -7.863456205171594 8.645406452082645 3.3399999999998085
    vertex -12.663182051999634 8.59514200316533 4.339999999999362
    vertex -7.863456205171594 8.645406452082645 4.339999999999743
  endloop
endfacet
facet normal -1.0 1.7283396935851834e-13 -7.273105971010241e-14
  outer loop
    vertex -12.663182051998987 7.51825798979971 4.339999999999678
    vertex -12.663182051999264 8.595142003165146 3.3399999999994514
    vertex -12.663182051998803 7.518257989799433 3.339999999999814
  endloop
endfacet
facet normal -1.0 1.7283396935851834e-13 -7.273105971010241e-14
  outer loop
    vertex -12.663182051999264 8.595142003165146 3.3399999999994514
    vertex -12.663182051998987 7.51825798979971 4.339999999999678
    vertex -12.663182051999634 8.59514200316533 4.339999999999362
  endloop
endfacet
facet normal 0.49941220778133655 0.8663644999184646 -7.582261458553918e-15
  outer loop
    vertex -24.128153520147926 8.780141630426892 -1.2178645647509255e-12
    vertex -19.546937026102874 6.139318462082423 0.7999999999983584
    vertex -15.256792534016466 3.6662825370247427 -3.7250629247864705e-13
  endloop
endfacet
facet normal 0.49941220778133655 0.8663644999184646 -7.582261458553918e-15
  outer loop
    vertex -19.546937026102874 6.139318462082423 0.7999999999983584
    vertex -24.128153520147926 8.780141630426892 -1.2178645647509255e-12
    vertex -24.12815352014834 8.780141630426984 2.439999999999129
  endloop
endfacet
facet normal 0.49941220778133655 0.8663644999184646 -7.582261458553918e-15
  outer loop
    vertex -19.546937026102874 6.139318462082423 0.7999999999983584
    vertex -24.12815352014834 8.780141630426984 2.439999999999129
    vertex -19.54693702610306 6.139318462083901 2.4399999999984012
  endloop
endfacet
facet normal 0.49941220778133655 0.8663644999184646 -7.582261458553918e-15
  outer loop
    vertex -15.256792534017299 3.666282537024558 0.8000000000000231
    vertex -15.256792534016466 3.6662825370247427 -3.7250629247864705e-13
    vertex -19.546937026102874 6.139318462082423 0.7999999999983584
  endloop
endfacet
facet normal -1.9944807270495773e-14 -1.5612354443910072e-13 -1.0
  outer loop
    vertex -27.045568064424167 8.50436476090528 -1.2568477814056676e-12
    vertex -27.041945637447277 5.484935136367155 -2.2451445147453342e-13
    vertex -30.012356423241325 8.161095635874203 -1.2258055903657804e-12
  endloop
endfacet
facet normal -1.9944807270495773e-14 -1.5612354443910072e-13 -1.0
  outer loop
    vertex -27.041945637447277 5.484935136367155 -2.2451445147453342e-13
    vertex -27.045568064424167 8.50436476090528 -1.2568477814056676e-12
    vertex -24.128153520147926 8.780141630426892 -1.2178645647509255e-12
  endloop
endfacet
facet normal -1.9944807270495773e-14 -1.5612354443910072e-13 -1.0
  outer loop
    vertex -27.041945637447277 5.484935136367155 -2.2451445147453342e-13
    vertex -24.128153520147926 8.780141630426892 -1.2178645647509255e-12
    vertex -12.02327252879313 -0.07812376625009383 -1.811997663025977e-13
  endloop
endfacet
facet normal -1.9944807270495773e-14 -1.5612354443910072e-13 -1.0
  outer loop
    vertex -12.02327252879313 -0.07812376625009383 -1.811997663025977e-13
    vertex -24.128153520147926 8.780141630426892 -1.2178645647509255e-12
    vertex -15.256792534016466 3.6662825370247427 -3.7250629247864705e-13
  endloop
endfacet
facet normal -1.9944807270495773e-14 -1.5612354443910072e-13 -1.0
  outer loop
    vertex -12.02327252879313 -0.07812376625009383 -1.811997663025977e-13
    vertex -15.256792534016466 3.6662825370247427 -3.7250629247864705e-13
    vertex -9.521231053857331 -0.07812376625000142 -2.75770162261324e-13
  endloop
endfacet
facet normal 0.020237581641650206 -0.9997951991729594 3.723266610897321e-14
  outer loop
    vertex 3.859540523231953 0.07812376625004763 8.518554750480689e-14
    vertex -3.859540523232045 -0.07812376625000142 0.8000000000001934
    vertex -3.859540523231953 -0.07812376625004763 -8.662937034387142e-14
  endloop
endfacet
facet normal 0.020237581641650206 -0.9997951991729594 3.723266610897321e-14
  outer loop
    vertex -3.859540523232045 -0.07812376625000142 0.8000000000001934
    vertex 3.859540523231953 0.07812376625004763 8.518554750480689e-14
    vertex 3.8595405232318374 0.07812376625014003 0.8000000000001805
  endloop
endfacet
facet normal -1.6192952181062773e-14 -1.1509335954764998e-14 1.0
  outer loop
    vertex -13.784779583498429 6.471582236875592 3.3399999999993244
    vertex -12.663182051998803 7.518257989799433 3.339999999999814
    vertex -12.663182051999264 8.595142003165146 3.3399999999994514
  endloop
endfacet
facet normal -1.6192952181062773e-14 -1.1509335954764998e-14 1.0
  outer loop
    vertex -12.663182051998803 7.518257989799433 3.339999999999814
    vertex -13.784779583498429 6.471582236875592 3.3399999999993244
    vertex -9.458926809255306 6.6075276370230185 3.339999999999301
  endloop
endfacet
facet normal -1.6192952181062773e-14 -1.1509335954764998e-14 1.0
  outer loop
    vertex -12.663182051998803 7.518257989799433 3.339999999999814
    vertex -9.458926809255306 6.6075276370230185 3.339999999999301
    vertex -7.863456205170947 7.568522438716287 3.339999999999917
  endloop
endfacet
facet normal -1.6192952181062773e-14 -1.1509335954764998e-14 1.0
  outer loop
    vertex -7.863456205170947 7.568522438716287 3.339999999999917
    vertex -9.458926809255306 6.6075276370230185 3.339999999999301
    vertex -5.131175740359214 6.65284939694575 3.3399999999994194
  endloop
endfacet
facet normal -1.6192952181062773e-14 -1.1509335954764998e-14 1.0
  outer loop
    vertex -7.863456205170947 7.568522438716287 3.339999999999917
    vertex -5.131175740359214 6.65284939694575 3.3399999999994194
    vertex -5.131175740359629 9.652849396945669 3.339999999999496
  endloop
endfacet
facet normal -1.6192952181062773e-14 -1.1509335954764998e-14 1.0
  outer loop
    vertex -5.131175740359629 9.652849396945669 3.339999999999496
    vertex -5.131175740359214 6.65284939694575 3.3399999999994194
    vertex -0.740597411813042 9.606869687447322 3.3399999999995726
  endloop
endfacet
facet normal -1.6192952181062773e-14 -1.1509335954764998e-14 1.0
  outer loop
    vertex -0.740597411813042 9.606869687447322 3.3399999999995726
    vertex -5.131175740359214 6.65284939694575 3.3399999999994194
    vertex -0.8034246714630291 6.607527637022834 3.3399999999994723
  endloop
endfacet
facet normal -1.6192952181062773e-14 -1.1509335954764998e-14 1.0
  outer loop
    vertex -0.740597411813042 9.606869687447322 3.3399999999995726
    vertex -0.8034246714630291 6.607527637022834 3.3399999999994723
    vertex 1.8596456475096101 7.521908185411679 3.3400000000001073
  endloop
endfacet
facet normal -1.6192952181062773e-14 -1.1509335954764998e-14 1.0
  outer loop
    vertex 1.8596456475096101 7.521908185411679 3.3400000000001073
    vertex -0.8034246714630291 6.607527637022834 3.3399999999994723
    vertex 3.5224281027807165 6.471582236874298 3.339999999999574
  endloop
endfacet
facet normal -1.6192952181062773e-14 -1.1509335954764998e-14 1.0
  outer loop
    vertex -0.740597411813042 9.606869687447322 3.3399999999995726
    vertex 1.8596456475096101 7.521908185411679 3.3400000000001073
    vertex 1.8596456475089633 8.583882650201708 3.3399999999999777
  endloop
endfacet
facet normal -1.6192952181062773e-14 -1.1509335954764998e-14 1.0
  outer loop
    vertex 1.8596456475096101 7.521908185411679 3.3400000000001073
    vertex 3.5224281027807165 6.471582236874298 3.339999999999574
    vertex 6.6527933212821155 7.2707099600538445 3.3399999999999683
  endloop
endfacet
facet normal -1.6192952181062773e-14 -1.1509335954764998e-14 1.0
  outer loop
    vertex 6.6527933212821155 7.2707099600538445 3.3399999999999683
    vertex 3.5224281027807165 6.471582236874298 3.339999999999574
    vertex 7.844485120374203 6.245072826647305 3.3399999999997023
  endloop
endfacet
facet normal -1.6192952181062773e-14 -1.1509335954764998e-14 1.0
  outer loop
    vertex 6.6527933212821155 7.2707099600538445 3.3399999999999683
    vertex 7.844485120374203 6.245072826647305 3.3399999999997023
    vertex 6.652793321282162 8.332684424843967 3.3399999999998844
  endloop
endfacet
facet normal -1.6192952181062773e-14 -1.1509335954764998e-14 1.0
  outer loop
    vertex 1.8596456475089633 8.583882650201708 3.3399999999999777
    vertex 3.648055063968102 9.46895072717083 3.3399999999996988
    vertex -0.740597411813042 9.606869687447322 3.3399999999995726
  endloop
endfacet
facet normal -1.6192952181062773e-14 -1.1509335954764998e-14 1.0
  outer loop
    vertex 3.648055063968102 9.46895072717083 3.3399999999996988
    vertex 1.8596456475089633 8.583882650201708 3.3399999999999777
    vertex 6.652793321282162 8.332684424843967 3.3399999999998844
  endloop
endfacet
facet normal -1.6192952181062773e-14 -1.1509335954764998e-14 1.0
  outer loop
    vertex 3.648055063968102 9.46895072717083 3.3399999999996988
    vertex 6.652793321282162 8.332684424843967 3.3399999999998844
    vertex 8.032856678962073 9.239153011932862 3.339999999999828
  endloop
endfacet
facet normal -1.6192952181062773e-14 -1.1509335954764998e-14 1.0
  outer loop
    vertex 8.032856678962073 9.239153011932862 3.339999999999828
    vertex 6.652793321282162 8.332684424843967 3.3399999999998844
    vertex 7.844485120374203 6.245072826647305 3.3399999999997023
  endloop
endfacet
facet normal -1.6192952181062773e-14 -1.1509335954764998e-14 1.0
  outer loop
    vertex 8.032856678962073 9.239153011932862 3.339999999999828
    vertex 7.844485120374203 6.245072826647305 3.3399999999997023
    vertex 11.745926719576737 5.958568864807898 3.3399999999998036
  endloop
endfacet
facet normal -1.6192952181062773e-14 -1.1509335954764998e-14 1.0
  outer loop
    vertex 8.032856678962073 9.239153011932862 3.339999999999828
    vertex 11.745926719576737 5.958568864807898 3.3399999999998036
    vertex 8.440469980410816 9.209219762185343 3.3399999999999292
  endloop
endfacet
facet normal -1.6192952181062773e-14 -1.1509335954764998e-14 1.0
  outer loop
    vertex 8.440469980410816 9.209219762185343 3.3399999999999292
    vertex 11.745926719576737 5.958568864807898 3.3399999999998036
    vertex 12.411884114262055 8.91757733860322 3.3399999999996837
  endloop
endfacet
facet normal -1.6192952181062773e-14 -1.1509335954764998e-14 1.0
  outer loop
    vertex 12.411884114262055 8.91757733860322 3.3399999999996837
    vertex 11.745926719576737 5.958568864807898 3.3399999999998036
    vertex 12.160850584265187 5.928098760854723 3.33999999999988
  endloop
endfacet
facet normal -1.6192952181062773e-14 -1.1509335954764998e-14 1.0
  outer loop
    vertex 12.411884114262055 8.91757733860322 3.3399999999996837
    vertex 12.160850584265187 5.928098760854723 3.33999999999988
    vertex 16.469631193903528 5.520799074798201 3.3399999999996925
  endloop
endfacet
facet normal -1.6192952181062773e-14 -1.1509335954764998e-14 1.0
  outer loop
    vertex 12.411884114262055 8.91757733860322 3.3399999999996837
    vertex 16.469631193903528 5.520799074798201 3.3399999999996925
    vertex 16.783216583705208 8.504364760902787 3.3399999999997734
  endloop
endfacet
facet normal -1.6192952181062773e-14 -1.1509335954764998e-14 1.0
  outer loop
    vertex 16.783216583705208 8.504364760902787 3.3399999999997734
    vertex 16.469631193903528 5.520799074798201 3.3399999999996925
    vertex 18.057351591921837 5.337093556942985 3.339999999999957
  endloop
endfacet
facet normal -1.6192952181062773e-14 -1.1509335954764998e-14 1.0
  outer loop
    vertex 16.783216583705208 8.504364760902787 3.3399999999997734
    vertex 18.057351591921837 5.337093556942985 3.339999999999957
    vertex 16.94909781931979 8.485171647096942 3.340000000000101
  endloop
endfacet
facet normal -1.6192952181062773e-14 -1.1509335954764998e-14 1.0
  outer loop
    vertex -26.73198267462048 5.520799074800974 3.3399999999991365
    vertex -26.503868871684656 6.3458458207479085 3.3399999999991796
    vertex -26.635620510331034 7.739632571192665 3.339999999999289
  endloop
endfacet
facet normal -1.6192952181062773e-14 -1.1509335954764998e-14 1.0
  outer loop
    vertex -26.503868871684656 6.3458458207479085 3.3399999999991796
    vertex -26.73198267462048 5.520799074800974 3.3399999999991365
    vertex -22.42320206498269 5.928098760857125 3.339999999999288
  endloop
endfacet
facet normal -1.6192952181062773e-14 -1.1509335954764998e-14 1.0
  outer loop
    vertex -26.503868871684656 6.3458458207479085 3.3399999999991796
    vertex -22.42320206498269 5.928098760857125 3.339999999999288
    vertex -21.725171441590632 6.797565724677732 3.339999999999245
  endloop
endfacet
facet normal -1.6192952181062773e-14 -1.1509335954764998e-14 1.0
  outer loop
    vertex -21.725171441590632 6.797565724677732 3.339999999999245
    vertex -22.42320206498269 5.928098760857125 3.339999999999288
    vertex -18.106836601091892 6.245072826649153 3.3399999999994425
  endloop
endfacet
facet normal -1.6192952181062773e-14 -1.1509335954764998e-14 1.0
  outer loop
    vertex -21.725171441590632 6.797565724677732 3.339999999999245
    vertex -18.106836601091892 6.245072826649153 3.3399999999994425
    vertex -18.29520815968034 9.239153011933785 3.3399999999993777
  endloop
endfacet
facet normal -1.6192952181062773e-14 -1.1509335954764998e-14 1.0
  outer loop
    vertex -18.29520815968034 9.239153011933785 3.3399999999993777
    vertex -18.106836601091892 6.245072826649153 3.3399999999994425
    vertex -13.910406544685905 9.46895072717203 3.3399999999993972
  endloop
endfacet
facet normal -1.6192952181062773e-14 -1.1509335954764998e-14 1.0
  outer loop
    vertex -13.910406544685905 9.46895072717203 3.3399999999993972
    vertex -18.106836601091892 6.245072826649153 3.3399999999994425
    vertex -13.784779583498429 6.471582236875592 3.3399999999993244
  endloop
endfacet
facet normal -1.6192952181062773e-14 -1.1509335954764998e-14 1.0
  outer loop
    vertex -13.910406544685905 9.46895072717203 3.3399999999993972
    vertex -13.784779583498429 6.471582236875592 3.3399999999993244
    vertex -12.663182051999264 8.595142003165146 3.3399999999994514
  endloop
endfacet
facet normal -1.6192952181062773e-14 -1.1509335954764998e-14 1.0
  outer loop
    vertex -13.910406544685905 9.46895072717203 3.3399999999993972
    vertex -12.663182051999264 8.595142003165146 3.3399999999994514
    vertex -9.521754068905386 9.606869687447507 3.339999999999515
  endloop
endfacet
facet normal -1.6192952181062773e-14 -1.1509335954764998e-14 1.0
  outer loop
    vertex -9.521754068905386 9.606869687447507 3.339999999999515
    vertex -12.663182051999264 8.595142003165146 3.3399999999994514
    vertex -7.863456205171594 8.645406452082645 3.3399999999998085
  endloop
endfacet
facet normal -1.6192952181062773e-14 -1.1509335954764998e-14 1.0
  outer loop
    vertex -9.521754068905386 9.606869687447507 3.339999999999515
    vertex -7.863456205171594 8.645406452082645 3.3399999999998085
    vertex -5.131175740359629 9.652849396945669 3.339999999999496
  endloop
endfacet
facet normal -1.6192952181062773e-14 -1.1509335954764998e-14 1.0
  outer loop
    vertex -5.131175740359629 9.652849396945669 3.339999999999496
    vertex -7.863456205171594 8.645406452082645 3.3399999999998085
    vertex -7.863456205170947 7.568522438716287 3.339999999999917
  endloop
endfacet
facet normal -1.6192952181062773e-14 -1.1509335954764998e-14 1.0
  outer loop
    vertex -27.041945637446492 5.484935136369003 3.3399999999992245
    vertex -27.04556806442472 8.50436476090565 3.3399999999990464
    vertex -30.012356423241787 8.161095635874574 3.3399999999990775
  endloop
endfacet
facet normal -1.6192952181062773e-14 -1.1509335954764998e-14 1.0
  outer loop
    vertex -27.04556806442472 8.50436476090565 3.3399999999990464
    vertex -27.041945637446492 5.484935136369003 3.3399999999992245
    vertex -26.635620510331034 7.739632571192665 3.339999999999289
  endloop
endfacet
facet normal -1.6192952181062773e-14 -1.1509335954764998e-14 1.0
  outer loop
    vertex -27.04556806442472 8.50436476090565 3.3399999999990464
    vertex -26.635620510331034 7.739632571192665 3.339999999999289
    vertex -22.674235594979997 8.917577338606268 3.339999999999268
  endloop
endfacet
facet normal -1.6192952181062773e-14 -1.1509335954764998e-14 1.0
  outer loop
    vertex -26.635620510331034 7.739632571192665 3.339999999999289
    vertex -27.041945637446492 5.484935136369003 3.3399999999992245
    vertex -26.73198267462048 5.520799074800974 3.3399999999991365
  endloop
endfacet
facet normal -1.6192952181062773e-14 -1.1509335954764998e-14 1.0
  outer loop
    vertex -22.674235594979997 8.917577338606268 3.339999999999268
    vertex -26.635620510331034 7.739632571192665 3.339999999999289
    vertex -21.856923080236825 8.191352475121933 3.339999999999216
  endloop
endfacet
facet normal -1.6192952181062773e-14 -1.1509335954764998e-14 1.0
  outer loop
    vertex -22.674235594979997 8.917577338606268 3.339999999999268
    vertex -21.856923080236825 8.191352475121933 3.339999999999216
    vertex -18.29520815968034 9.239153011933785 3.3399999999993777
  endloop
endfacet
facet normal -1.6192952181062773e-14 -1.1509335954764998e-14 1.0
  outer loop
    vertex -18.29520815968034 9.239153011933785 3.3399999999993777
    vertex -21.856923080236825 8.191352475121933 3.339999999999216
    vertex -21.725171441590632 6.797565724677732 3.339999999999245
  endloop
endfacet
facet normal 0.4767972341547355 -0.879013309058739 4.037586778149722e-14
  outer loop
    vertex 20.48562224292623 -1.6577416210504317 0.8000000000003905
    vertex 20.475242943495562 -1.6633715941236695 4.793491825694218e-13
    vertex 20.48562224292616 -1.6577416210504778 2.952617705886951e-13
  endloop
endfacet
facet normal 0.4767972341547355 -0.879013309058739 4.037586778149722e-14
  outer loop
    vertex 20.475242943495562 -1.6633715941236695 4.793491825694218e-13
    vertex 20.48562224292623 -1.6577416210504317 0.8000000000003905
    vertex 20.475242943495633 -1.6633715941236233 0.8000000000003443
  endloop
endfacet
facet normal 1.9828932586710798e-14 2.2560516656283006e-14 -1.0
  outer loop
    vertex -18.295208159680016 9.239153011937852 -5.327706276148092e-13
    vertex -9.497258870757681 3.8638908387941617 -4.656328655983088e-13
    vertex -18.72441904509875 9.207633734765622 -5.623689958156319e-13
  endloop
endfacet
facet normal 1.9828932586710798e-14 2.2560516656283006e-14 -1.0
  outer loop
    vertex -9.497258870757681 3.8638908387941617 -4.656328655983088e-13
    vertex -18.295208159680016 9.239153011937852 -5.327706276148092e-13
    vertex -13.910406544685582 9.468950727176097 -5.132790192874381e-13
  endloop
endfacet
facet normal 1.9828932586710798e-14 2.2560516656283006e-14 -1.0
  outer loop
    vertex -9.497258870757681 3.8638908387941617 -4.656328655983088e-13
    vertex -13.910406544685582 9.468950727176097 -5.132790192874381e-13
    vertex -9.521754068904693 9.606869687451665 -4.2015244616777636e-13
  endloop
endfacet
facet normal 1.9828932586710798e-14 2.2560516656283006e-14 -1.0
  outer loop
    vertex -9.497258870757681 3.8638908387941617 -4.656328655983088e-13
    vertex -9.521754068904693 9.606869687451665 -4.2015244616777636e-13
    vertex -5.131175740358844 9.652849396949827 -4.620233085006476e-13
  endloop
endfacet
facet normal 1.9828932586710798e-14 2.2560516656283006e-14 -1.0
  outer loop
    vertex -9.497258870757681 3.8638908387941617 -4.656328655983088e-13
    vertex -5.131175740358844 9.652849396949827 -4.620233085006476e-13
    vertex -3.859540523231953 -0.07812376625004763 -8.662937034387142e-14
  endloop
endfacet
facet normal 1.9828932586710798e-14 2.2560516656283006e-14 -1.0
  outer loop
    vertex -3.859540523231953 -0.07812376625004763 -8.662937034387142e-14
    vertex -5.131175740358844 9.652849396949827 -4.620233085006476e-13
    vertex -2.2009165658340186 9.622162672897197 -1.3355361261346843e-13
  endloop
endfacet
facet normal 1.9828932586710798e-14 2.2560516656283006e-14 -1.0
  outer loop
    vertex -3.859540523231953 -0.07812376625004763 -8.662937034387142e-14
    vertex -2.2009165658340186 9.622162672897197 -1.3355361261346843e-13
    vertex 3.859540523231953 0.07812376625004763 8.518554750480689e-14
  endloop
endfacet
facet normal 1.9828932586710798e-14 2.2560516656283006e-14 -1.0
  outer loop
    vertex 3.859540523231953 0.07812376625004763 8.518554750480689e-14
    vertex -2.2009165658340186 9.622162672897197 -1.3355361261346843e-13
    vertex 6.087302344127741 3.609008103703542 1.3499743545253294e-13
  endloop
endfacet
facet normal 1.9828932586710798e-14 2.2560516656283006e-14 -1.0
  outer loop
    vertex 3.859540523231953 0.07812376625004763 8.518554750480689e-14
    vertex 6.087302344127741 3.609008103703542 1.3499743545253294e-13
    vertex 11.982329265857699 -0.7756157327683769 3.717843810591148e-13
  endloop
endfacet
facet normal 0.23304537709211534 -0.972465861722659 3.9829211450124237e-14
  outer loop
    vertex 20.475242943495562 -1.6633715941236695 4.793491825694218e-13
    vertex 20.46376016586203 -1.6661233701489957 0.8000000000003905
    vertex 20.46376016586196 -1.6661233701490419 3.414641014387598e-13
  endloop
endfacet
facet normal 0.23304537709211534 -0.972465861722659 3.9829211450124237e-14
  outer loop
    vertex 20.46376016586203 -1.6661233701489957 0.8000000000003905
    vertex 20.475242943495562 -1.6633715941236695 4.793491825694218e-13
    vertex 20.475242943495633 -1.6633715941236233 0.8000000000003443
  endloop
endfacet
facet normal 0.6880561476556548 -0.7256574520207587 3.829051970407297e-14
  outer loop
    vertex 20.49419073205027 -1.6496171242902444 0.8000000000004599
    vertex 20.48562224292616 -1.6577416210504778 2.952617705886951e-13
    vertex 20.4941907320502 -1.6496171242902906 2.952617705886951e-13
  endloop
endfacet
facet normal 0.6880561476556548 -0.7256574520207587 3.829051970407297e-14
  outer loop
    vertex 20.48562224292616 -1.6577416210504778 2.952617705886951e-13
    vertex 20.49419073205027 -1.6496171242902444 0.8000000000004599
    vertex 20.48562224292623 -1.6577416210504317 0.8000000000003905
  endloop
endfacet
facet normal 0.07323819712784958 0.9973144772244421 3.978760486145761e-13
  outer loop
    vertex 8.440469980411278 9.209219762186915 -1.1983729564235546e-13
    vertex 12.411884114262055 8.91757733860322 3.3399999999996837
    vertex 12.411884114262516 8.91757733860479 -3.645652668637922e-13
  endloop
endfacet
facet normal 0.07323819712784958 0.9973144772244421 3.978760486145761e-13
  outer loop
    vertex 12.411884114262055 8.91757733860322 3.3399999999996837
    vertex 8.440469980411278 9.209219762186915 -1.1983729564235546e-13
    vertex 8.440469980410816 9.209219762185343 3.3399999999999292
  endloop
endfacet
facet normal 0.1149371504930556 0.9933727656003747 5.281323470371581e-13
  outer loop
    vertex 16.783216583705208 8.504364760902787 3.3399999999997734
    vertex 16.94909781932025 8.485171647098605 2.887645678129047e-14
    vertex 16.78321658370567 8.50436476090445 -2.75770162261324e-13
  endloop
endfacet
facet normal 0.1149371504930556 0.9933727656003747 5.281323470371581e-13
  outer loop
    vertex 16.94909781932025 8.485171647098605 2.887645678129047e-14
    vertex 16.783216583705208 8.504364760902787 3.3399999999997734
    vertex 16.94909781931979 8.485171647096942 3.340000000000101
  endloop
endfacet
facet normal -0.0941083133185981 0.9955619646030722 -6.840708944939202e-14
  outer loop
    vertex -27.04556806442472 8.50436476090565 3.3399999999990464
    vertex -24.128153520147926 8.780141630426892 -1.2178645647509255e-12
    vertex -27.045568064424167 8.50436476090528 -1.2568477814056676e-12
  endloop
endfacet
facet normal -0.0941083133185981 0.9955619646030722 -6.840708944939202e-14
  outer loop
    vertex -24.128153520147926 8.780141630426892 -1.2178645647509255e-12
    vertex -27.04556806442472 8.50436476090565 3.3399999999990464
    vertex -24.12815352014834 8.780141630426984 2.439999999999129
  endloop
endfacet
facet normal -0.0941083133185981 0.9955619646030722 -6.840708944939202e-14
  outer loop
    vertex -24.12815352014834 8.780141630426984 2.439999999999129
    vertex -27.04556806442472 8.50436476090565 3.3399999999990464
    vertex -22.674235594980043 8.917577338605991 2.4399999999993107
  endloop
endfacet
facet normal -0.0941083133185981 0.9955619646030722 -6.840708944939202e-14
  outer loop
    vertex -22.674235594980043 8.917577338605991 2.4399999999993107
    vertex -27.04556806442472 8.50436476090565 3.3399999999990464
    vertex -22.674235594979997 8.917577338606268 3.339999999999268
  endloop
endfacet
facet normal 0.852425171762163 -0.5228492388310869 3.362129162908317e-14
  outer loop
    vertex 20.500364482494028 -1.6395517748708195 5.262734248390189e-13
    vertex 20.49419073205027 -1.6496171242902444 0.8000000000004599
    vertex 20.4941907320502 -1.6496171242902906 2.952617705886951e-13
  endloop
endfacet
facet normal 0.852425171762163 -0.5228492388310869 3.362129162908317e-14
  outer loop
    vertex 20.49419073205027 -1.6496171242902444 0.8000000000004599
    vertex 20.500364482494028 -1.6395517748708195 5.262734248390189e-13
    vertex 20.50036448249419 -1.6395517748707733 0.8000000000003674
  endloop
endfacet
facet normal -0.9955619646030511 -0.09410831331881951 3.587354616521845e-15
  outer loop
    vertex -26.635620510331034 7.739632571192388 4.3399999999992
    vertex -26.503868871684656 6.3458458207479085 3.3399999999991796
    vertex -26.503868871684563 6.345845820747816 4.339999999999207
  endloop
endfacet
facet normal -0.9955619646030511 -0.09410831331881951 3.587354616521845e-15
  outer loop
    vertex -26.503868871684656 6.3458458207479085 3.3399999999991796
    vertex -26.635620510331034 7.739632571192388 4.3399999999992
    vertex -26.635620510331034 7.739632571192665 3.339999999999289
  endloop
endfacet
facet normal 0.9432564033303428 0.3320652911345989 2.0754483490678965e-13
  outer loop
    vertex 16.94909781932025 8.485171647098605 2.887645678129047e-14
    vertex 20.50138828154709 -1.6053762494799297 0.8000000000002967
    vertex 20.50138828154711 -1.6053762494799761 4.0932377487479243e-13
  endloop
endfacet
facet normal 0.9432564033303428 0.3320652911345989 2.0754483490678965e-13
  outer loop
    vertex 20.50138828154709 -1.6053762494799297 0.8000000000002967
    vertex 16.94909781932025 8.485171647098605 2.887645678129047e-14
    vertex 18.05735159192262 5.337093556942338 0.7999999999997711
  endloop
endfacet
facet normal 0.9432564033303428 0.3320652911345989 2.0754483490678965e-13
  outer loop
    vertex 18.05735159192262 5.337093556942338 0.7999999999997711
    vertex 16.94909781932025 8.485171647098605 2.887645678129047e-14
    vertex 18.057351591921837 5.337093556942985 3.339999999999957
  endloop
endfacet
facet normal 0.9432564033303428 0.3320652911345989 2.0754483490678965e-13
  outer loop
    vertex 18.057351591921837 5.337093556942985 3.339999999999957
    vertex 16.94909781932025 8.485171647098605 2.887645678129047e-14
    vertex 16.94909781931979 8.485171647096942 3.340000000000101
  endloop
endfacet
facet normal 1.0003458818774417e-14 -4.2200075860013766e-14 -1.0
  outer loop
    vertex 3.6480550639685414 9.4689507271724 -3.039247076230822e-13
    vertex 11.08704779813619 4.11342247193837 -6.497202775790356e-15
    vertex 3.251338666851782 9.481418042212029 -1.0828671292983927e-14
  endloop
endfacet
facet normal 1.0003458818774417e-14 -4.2200075860013766e-14 -1.0
  outer loop
    vertex 11.08704779813619 4.11342247193837 -6.497202775790356e-15
    vertex 3.6480550639685414 9.4689507271724 -3.039247076230822e-13
    vertex 8.032856678962627 9.239153011934432 -1.7398065210727508e-13
  endloop
endfacet
facet normal 1.0003458818774417e-14 -4.2200075860013766e-14 -1.0
  outer loop
    vertex 11.08704779813619 4.11342247193837 -6.497202775790356e-15
    vertex 8.032856678962627 9.239153011934432 -1.7398065210727508e-13
    vertex 8.440469980411278 9.209219762186915 -1.1983729564235546e-13
  endloop
endfacet
facet normal 1.0003458818774417e-14 -4.2200075860013766e-14 -1.0
  outer loop
    vertex 11.08704779813619 4.11342247193837 -6.497202775790356e-15
    vertex 8.440469980411278 9.209219762186915 -1.1983729564235546e-13
    vertex 12.411884114262516 8.91757733860479 -3.645652668637922e-13
  endloop
endfacet
facet normal 1.0003458818774417e-14 -4.2200075860013766e-14 -1.0
  outer loop
    vertex 11.08704779813619 4.11342247193837 -6.497202775790356e-15
    vertex 12.411884114262516 8.91757733860479 -3.645652668637922e-13
    vertex 18.077583707325026 -1.4162527895877395 2.9165221349103375e-13
  endloop
endfacet
facet normal 1.0003458818774417e-14 -4.2200075860013766e-14 -1.0
  outer loop
    vertex 18.077583707325026 -1.4162527895877395 2.9165221349103375e-13
    vertex 12.411884114262516 8.91757733860479 -3.645652668637922e-13
    vertex 16.78321658370567 8.50436476090445 -2.75770162261324e-13
  endloop
endfacet
facet normal 1.0003458818774417e-14 -4.2200075860013766e-14 -1.0
  outer loop
    vertex 18.077583707325026 -1.4162527895877395 2.9165221349103375e-13
    vertex 16.78321658370567 8.50436476090445 -2.75770162261324e-13
    vertex 16.94909781932025 8.485171647098605 2.887645678129047e-14
  endloop
endfacet
facet normal 1.0003458818774417e-14 -4.2200075860013766e-14 -1.0
  outer loop
    vertex 18.077583707325026 -1.4162527895877395 2.9165221349103375e-13
    vertex 16.94909781932025 8.485171647098605 2.887645678129047e-14
    vertex 20.50138828154711 -1.6053762494799761 4.0932377487479243e-13
  endloop
endfacet
facet normal 1.0003458818774417e-14 -4.2200075860013766e-14 -1.0
  outer loop
    vertex 18.077583707325026 -1.4162527895877395 2.9165221349103375e-13
    vertex 20.50138828154711 -1.6053762494799761 4.0932377487479243e-13
    vertex 20.451956442345125 -1.6658094201377331 3.645652668637922e-13
  endloop
endfacet
facet normal 1.0003458818774417e-14 -4.2200075860013766e-14 -1.0
  outer loop
    vertex 20.451956442345125 -1.6658094201377331 3.645652668637922e-13
    vertex 20.50138828154711 -1.6053762494799761 4.0932377487479243e-13
    vertex 20.46376016586196 -1.6661233701490419 3.414641014387598e-13
  endloop
endfacet
facet normal 1.0003458818774417e-14 -4.2200075860013766e-14 -1.0
  outer loop
    vertex 20.46376016586196 -1.6661233701490419 3.414641014387598e-13
    vertex 20.50138828154711 -1.6053762494799761 4.0932377487479243e-13
    vertex 20.475242943495562 -1.6633715941236695 4.793491825694218e-13
  endloop
endfacet
facet normal 1.0003458818774417e-14 -4.2200075860013766e-14 -1.0
  outer loop
    vertex 20.475242943495562 -1.6633715941236695 4.793491825694218e-13
    vertex 20.50138828154711 -1.6053762494799761 4.0932377487479243e-13
    vertex 20.48562224292616 -1.6577416210504778 2.952617705886951e-13
  endloop
endfacet
facet normal 1.0003458818774417e-14 -4.2200075860013766e-14 -1.0
  outer loop
    vertex 20.48562224292616 -1.6577416210504778 2.952617705886951e-13
    vertex 20.50138828154711 -1.6053762494799761 4.0932377487479243e-13
    vertex 20.4941907320502 -1.6496171242902906 2.952617705886951e-13
  endloop
endfacet
facet normal 1.0003458818774417e-14 -4.2200075860013766e-14 -1.0
  outer loop
    vertex 20.4941907320502 -1.6496171242902906 2.952617705886951e-13
    vertex 20.50138828154711 -1.6053762494799761 4.0932377487479243e-13
    vertex 20.500364482494028 -1.6395517748708195 5.262734248390189e-13
  endloop
endfacet
facet normal 1.0003458818774417e-14 -4.2200075860013766e-14 -1.0
  outer loop
    vertex 20.500364482494028 -1.6395517748708195 5.262734248390189e-13
    vertex 20.50138828154711 -1.6053762494799761 4.0932377487479243e-13
    vertex 20.50372276336726 -1.6282315097216828 4.331468517193571e-13
  endloop
endfacet
facet normal 1.0003458818774417e-14 -4.2200075860013766e-14 -1.0
  outer loop
    vertex 20.50372276336726 -1.6282315097216828 4.331468517193571e-13
    vertex 20.50138828154711 -1.6053762494799761 4.0932377487479243e-13
    vertex 20.50403671337866 -1.6164277862046619 4.779053597303573e-13
  endloop
endfacet
facet normal 0.07323819712802195 0.9973144772244295 3.9787951806153147e-13
  outer loop
    vertex 8.032856678962073 9.239153011932862 3.339999999999828
    vertex 8.440469980411278 9.209219762186915 -1.1983729564235546e-13
    vertex 8.032856678962627 9.239153011934432 -1.7398065210727508e-13
  endloop
endfacet
facet normal 0.07323819712802195 0.9973144772244295 3.9787951806153147e-13
  outer loop
    vertex 8.440469980411278 9.209219762186915 -1.1983729564235546e-13
    vertex 8.032856678962073 9.239153011932862 3.339999999999828
    vertex 8.440469980410816 9.209219762185343 3.3399999999999292
  endloop
endfacet
facet normal 0.995561964603063 0.09410831331869414 -3.587354616517015e-15
  outer loop
    vertex -21.725171441590632 6.797565724677732 3.339999999999245
    vertex -21.856923080236456 8.191352475121748 4.339999999998988
    vertex -21.72517144159017 6.797565724677639 4.339999999999179
  endloop
endfacet
facet normal 0.995561964603063 0.09410831331869414 -3.587354616517015e-15
  outer loop
    vertex -21.856923080236456 8.191352475121748 4.339999999998988
    vertex -21.725171441590632 6.797565724677732 3.339999999999245
    vertex -21.856923080236825 8.191352475121933 3.339999999999216
  endloop
endfacet
facet normal 0.0941083133185959 0.9955619646030724 3.975141653064478e-13
  outer loop
    vertex 12.411884114262055 8.91757733860322 3.3399999999996837
    vertex 16.78321658370567 8.50436476090445 -2.75770162261324e-13
    vertex 12.411884114262516 8.91757733860479 -3.645652668637922e-13
  endloop
endfacet
facet normal 0.0941083133185959 0.9955619646030724 3.975141653064478e-13
  outer loop
    vertex 16.78321658370567 8.50436476090445 -2.75770162261324e-13
    vertex 12.411884114262055 8.91757733860322 3.3399999999996837
    vertex 16.783216583705208 8.504364760902787 3.3399999999997734
  endloop
endfacet
facet normal -0.07323819712739861 0.9973144772244754 -1.319934710228021e-13
  outer loop
    vertex -22.674235594979997 8.917577338606268 3.339999999999268
    vertex -18.724419045099072 9.207633734761279 2.439999999999368
    vertex -22.674235594980043 8.917577338605991 2.4399999999993107
  endloop
endfacet
facet normal -0.07323819712739861 0.9973144772244754 -1.319934710228021e-13
  outer loop
    vertex -18.724419045099072 9.207633734761279 2.439999999999368
    vertex -18.295208159680016 9.239153011937852 -5.327706276148092e-13
    vertex -18.72441904509875 9.207633734765622 -5.623689958156319e-13
  endloop
endfacet
facet normal -0.07323819712739861 0.9973144772244754 -1.319934710228021e-13
  outer loop
    vertex -18.295208159680016 9.239153011937852 -5.327706276148092e-13
    vertex -18.724419045099072 9.207633734761279 2.439999999999368
    vertex -18.29520815968034 9.239153011933785 3.3399999999993777
  endloop
endfacet
facet normal -0.07323819712739861 0.9973144772244754 -1.319934710228021e-13
  outer loop
    vertex -18.29520815968034 9.239153011933785 3.3399999999993777
    vertex -18.724419045099072 9.207633734761279 2.439999999999368
    vertex -22.674235594979997 8.917577338606268 3.339999999999268
  endloop
endfacet
facet normal -0.11493715049270274 0.9933727656004154 -8.094439441962323e-14
  outer loop
    vertex -30.012356423241325 8.161095635874203 -1.2258055903657804e-12
    vertex -27.04556806442472 8.50436476090565 3.3399999999990464
    vertex -27.045568064424167 8.50436476090528 -1.2568477814056676e-12
  endloop
endfacet
facet normal -0.11493715049270274 0.9933727656004154 -8.094439441962323e-14
  outer loop
    vertex -27.04556806442472 8.50436476090565 3.3399999999990464
    vertex -30.012356423241325 8.161095635874203 -1.2258055903657804e-12
    vertex -30.012356423241787 8.161095635874574 3.3399999999990775
  endloop
endfacet
facet normal -0.05233595624288021 0.9986295347545773 3.963817109930089e-13
  outer loop
    vertex -18.29520815968034 9.239153011933785 3.3399999999993777
    vertex -13.910406544685582 9.468950727176097 -5.132790192874381e-13
    vertex -18.295208159680016 9.239153011937852 -5.327706276148092e-13
  endloop
endfacet
facet normal -0.05233595624288021 0.9986295347545773 3.963817109930089e-13
  outer loop
    vertex -13.910406544685582 9.468950727176097 -5.132790192874381e-13
    vertex -18.29520815968034 9.239153011933785 3.3399999999993777
    vertex -13.910406544685905 9.46895072717203 3.3399999999993972
  endloop
endfacet
facet normal -0.03141075907806382 0.9995065603657336 3.970679413789978e-13
  outer loop
    vertex -13.910406544685905 9.46895072717203 3.3399999999993972
    vertex -9.521754068904693 9.606869687451665 -4.2015244616777636e-13
    vertex -13.910406544685582 9.468950727176097 -5.132790192874381e-13
  endloop
endfacet
facet normal -0.03141075907806382 0.9995065603657336 3.970679413789978e-13
  outer loop
    vertex -9.521754068904693 9.606869687451665 -4.2015244616777636e-13
    vertex -13.910406544685905 9.46895072717203 3.3399999999993972
    vertex -9.521754068905386 9.606869687447507 3.339999999999515
  endloop
endfacet
facet normal -0.010471784116183202 0.9999451693655129 3.975795240746144e-13
  outer loop
    vertex -9.521754068904693 9.606869687451665 -4.2015244616777636e-13
    vertex -5.131175740359629 9.652849396945669 3.339999999999496
    vertex -5.131175740358844 9.652849396949827 -4.620233085006476e-13
  endloop
endfacet
facet normal -0.010471784116183202 0.9999451693655129 3.975795240746144e-13
  outer loop
    vertex -5.131175740359629 9.652849396945669 3.339999999999496
    vertex -9.521754068904693 9.606869687451665 -4.2015244616777636e-13
    vertex -9.521754068905386 9.606869687447507 3.339999999999515
  endloop
endfacet
facet normal 0.010471784116352856 0.999945169365511 1.3261234726843951e-12
  outer loop
    vertex -5.131175740359629 9.652849396945669 3.339999999999496
    vertex -2.2009165658340186 9.622162672897197 -1.3355361261346843e-13
    vertex -5.131175740358844 9.652849396949827 -4.620233085006476e-13
  endloop
endfacet
facet normal 0.010471784116352856 0.999945169365511 1.3261234726843951e-12
  outer loop
    vertex -2.2009165658340186 9.622162672897197 -1.3355361261346843e-13
    vertex -5.131175740359629 9.652849396945669 3.339999999999496
    vertex -2.2009165658343424 9.622162672892854 2.4399999999997735
  endloop
endfacet
facet normal 0.010471784116352856 0.999945169365511 1.3261234726843951e-12
  outer loop
    vertex -2.2009165658343424 9.622162672892854 2.4399999999997735
    vertex -0.740597411813042 9.606869687447322 3.3399999999995726
    vertex -0.7405974118126724 9.606869687447045 2.439999999999546
  endloop
endfacet
facet normal 0.010471784116352856 0.999945169365511 1.3261234726843951e-12
  outer loop
    vertex -0.740597411813042 9.606869687447322 3.3399999999995726
    vertex -2.2009165658343424 9.622162672892854 2.4399999999997735
    vertex -5.131175740359629 9.652849396945669 3.339999999999496
  endloop
endfacet
facet normal 0.09410831331864555 -0.9955619646030677 -1.1161206946711515e-14
  outer loop
    vertex -21.725171441590632 6.797565724677732 3.339999999999245
    vertex -26.503868871684563 6.345845820747816 4.339999999999207
    vertex -26.503868871684656 6.3458458207479085 3.3399999999991796
  endloop
endfacet
facet normal 0.09410831331864555 -0.9955619646030677 -1.1161206946711515e-14
  outer loop
    vertex -26.503868871684563 6.345845820747816 4.339999999999207
    vertex -21.725171441590632 6.797565724677732 3.339999999999245
    vertex -21.72517144159017 6.797565724677639 4.339999999999179
  endloop
endfacet
facet normal -0.09410831331863466 0.9955619646030687 1.1164676393663633e-14
  outer loop
    vertex -26.635620510331034 7.739632571192665 3.339999999999289
    vertex -21.856923080236456 8.191352475121748 4.339999999998988
    vertex -21.856923080236825 8.191352475121933 3.339999999999216
  endloop
endfacet
facet normal -0.09410831331863466 0.9955619646030687 1.1164676393663633e-14
  outer loop
    vertex -21.856923080236456 8.191352475121748 4.339999999998988
    vertex -26.635620510331034 7.739632571192665 3.339999999999289
    vertex -26.635620510331034 7.739632571192388 4.3399999999992
  endloop
endfacet
facet normal -0.026588137296132595 -0.9996464729868865 3.6457710750989156e-14
  outer loop
    vertex 20.46376016586203 -1.6661233701489957 0.8000000000003905
    vertex 20.451956442345125 -1.6658094201377331 3.645652668637922e-13
    vertex 20.46376016586196 -1.6661233701490419 3.414641014387598e-13
  endloop
endfacet
facet normal -0.026588137296132595 -0.9996464729868865 3.6457710750989156e-14
  outer loop
    vertex 20.451956442345125 -1.6658094201377331 3.645652668637922e-13
    vertex 20.46376016586203 -1.6661233701489957 0.8000000000003905
    vertex 20.451956442345196 -1.6658094201376867 0.800000000000483
  endloop
endfacet
facet normal 0.9587028291116562 -0.2844097140628403 2.654666010717419e-14
  outer loop
    vertex 20.50372276336726 -1.6282315097216828 4.331468517193571e-13
    vertex 20.50036448249419 -1.6395517748707733 0.8000000000003674
    vertex 20.500364482494028 -1.6395517748708195 5.262734248390189e-13
  endloop
endfacet
facet normal 0.9587028291116562 -0.2844097140628403 2.654666010717419e-14
  outer loop
    vertex 20.50036448249419 -1.6395517748707733 0.8000000000003674
    vertex 20.50372276336726 -1.6282315097216828 4.331468517193571e-13
    vertex 20.50372276336733 -1.6282315097216367 0.8000000000004822
  endloop
endfacet
facet normal 0.9996464729868058 -0.02658813729917544 1.7777105991830877e-14
  outer loop
    vertex 20.50403671337866 -1.6164277862046619 4.779053597303573e-13
    vertex 20.50372276336733 -1.6282315097216367 0.8000000000004822
    vertex 20.50372276336726 -1.6282315097216828 4.331468517193571e-13
  endloop
endfacet
facet normal 0.9996464729868058 -0.02658813729917544 1.7777105991830877e-14
  outer loop
    vertex 20.50372276336733 -1.6282315097216367 0.8000000000004822
    vertex 20.50403671337866 -1.6164277862046619 4.779053597303573e-13
    vertex 20.50403671337873 -1.6164277862046157 0.8000000000002959
  endloop
endfacet
facet normal 0.972465861726276 0.23304537707702205 -4.2547485068976935e-14
  outer loop
    vertex 20.50138828154711 -1.6053762494799761 4.0932377487479243e-13
    vertex 20.50403671337873 -1.6164277862046157 0.8000000000002959
    vertex 20.50403671337866 -1.6164277862046619 4.779053597303573e-13
  endloop
endfacet
facet normal 0.972465861726276 0.23304537707702205 -4.2547485068976935e-14
  outer loop
    vertex 20.50403671337873 -1.6164277862046157 0.8000000000002959
    vertex 20.50138828154711 -1.6053762494799761 4.0932377487479243e-13
    vertex 20.50138828154709 -1.6053762494799297 0.8000000000002967
  endloop
endfacet
facet normal 4.6237295306589505e-15 -1.0779421191719128e-14 1.0
  outer loop
    vertex -26.503868871684563 6.345845820747816 4.339999999999207
    vertex -21.856923080236456 8.191352475121748 4.339999999998988
    vertex -26.635620510331034 7.739632571192388 4.3399999999992
  endloop
endfacet
facet normal 4.6237295306589505e-15 -1.0779421191719128e-14 1.0
  outer loop
    vertex -21.856923080236456 8.191352475121748 4.339999999998988
    vertex -26.503868871684563 6.345845820747816 4.339999999999207
    vertex -21.72517144159017 6.797565724677639 4.339999999999179
  endloop
endfacet
facet normal -0.07323819712775319 -0.9973144772244493 5.671344243557605e-14
  outer loop
    vertex 12.16085058426588 5.928098760854076 0.7999999999997423
    vertex 11.745926719576737 5.958568864807898 3.3399999999998036
    vertex 11.74592671957743 5.958568864807251 0.7999999999996866
  endloop
endfacet
facet normal -0.07323819712775319 -0.9973144772244493 5.671344243557605e-14
  outer loop
    vertex 11.745926719576737 5.958568864807898 3.3399999999998036
    vertex 12.16085058426588 5.928098760854076 0.7999999999997423
    vertex 12.160850584265187 5.928098760854723 3.33999999999988
  endloop
endfacet
facet normal -0.03141075907830306 -0.9995065603657262 2.2248395938259452e-14
  outer loop
    vertex 3.5224281027807165 6.471582236874298 3.339999999999574
    vertex 2.079162357367435 6.516938690160993 2.440000000000099
    vertex 3.5224281027813173 6.471582236874113 2.4399999999998934
  endloop
endfacet
facet normal -0.03141075907830306 -0.9995065603657262 2.2248395938259452e-14
  outer loop
    vertex 2.079162357367435 6.516938690160993 2.440000000000099
    vertex 3.5224281027807165 6.471582236874298 3.339999999999574
    vertex -0.8034246714630291 6.607527637022834 3.3399999999994723
  endloop
endfacet
facet normal -0.03141075907830306 -0.9995065603657262 2.2248395938259452e-14
  outer loop
    vertex 2.079162357367735 6.5169386901596065 0.8000000000003797
    vertex -0.8034246714630291 6.607527637022834 3.3399999999994723
    vertex -0.8034246714620589 6.607527637021263 0.8000000000000267
  endloop
endfacet
facet normal -0.03141075907830306 -0.9995065603657262 2.2248395938259452e-14
  outer loop
    vertex -0.8034246714630291 6.607527637022834 3.3399999999994723
    vertex 2.079162357367735 6.5169386901596065 0.8000000000003797
    vertex 2.079162357367435 6.516938690160993 2.440000000000099
  endloop
endfacet
facet normal -0.11493715049302405 -0.9933727656003782 5.5737411060164373e-14
  outer loop
    vertex 18.05735159192262 5.337093556942338 0.7999999999997711
    vertex 16.469631193903528 5.520799074798201 3.3399999999996925
    vertex 16.469631193904313 5.520799074797554 0.7999999999995524
  endloop
endfacet
facet normal -0.11493715049302405 -0.9933727656003782 5.5737411060164373e-14
  outer loop
    vertex 16.469631193903528 5.520799074798201 3.3399999999996925
    vertex 18.05735159192262 5.337093556942338 0.7999999999997711
    vertex 18.057351591921837 5.337093556942985 3.339999999999957
  endloop
endfacet
facet normal 0.05233595624283154 0.9986295347545798 3.980661484797858e-13
  outer loop
    vertex 3.648055063968102 9.46895072717083 3.3399999999996988
    vertex 8.032856678962627 9.239153011934432 -1.7398065210727508e-13
    vertex 3.6480550639685414 9.4689507271724 -3.039247076230822e-13
  endloop
endfacet
facet normal 0.05233595624283154 0.9986295347545798 3.980661484797858e-13
  outer loop
    vertex 8.032856678962627 9.239153011934432 -1.7398065210727508e-13
    vertex 3.648055063968102 9.46895072717083 3.3399999999996988
    vertex 8.032856678962073 9.239153011932862 3.339999999999828
  endloop
endfacet
facet normal -2.6684559763769278e-14 9.547918011777851e-15 1.0
  outer loop
    vertex -9.497258870757774 3.863890838794254 0.8000000000000224
    vertex -13.784779583498105 6.471582236874021 0.8000000000000174
    vertex -13.982156471288828 6.461238152503133 0.7999999999986962
  endloop
endfacet
facet normal -2.6684559763769278e-14 9.547918011777851e-15 1.0
  outer loop
    vertex -13.784779583498105 6.471582236874021 0.8000000000000174
    vertex -9.497258870757774 3.863890838794254 0.8000000000000224
    vertex -9.458926809254429 6.607527637021447 0.7999999999999234
  endloop
endfacet
facet normal -2.6684559763769278e-14 9.547918011777851e-15 1.0
  outer loop
    vertex -9.458926809254429 6.607527637021447 0.7999999999999234
    vertex -9.497258870757774 3.863890838794254 0.8000000000000224
    vertex -3.859540523232045 -0.07812376625000142 0.8000000000001934
  endloop
endfacet
facet normal -2.6684559763769278e-14 9.547918011777851e-15 1.0
  outer loop
    vertex -9.458926809254429 6.607527637021447 0.7999999999999234
    vertex -3.859540523232045 -0.07812376625000142 0.8000000000001934
    vertex -5.131175740358336 6.6528493969441795 0.799999999999974
  endloop
endfacet
facet normal -2.6684559763769278e-14 9.547918011777851e-15 1.0
  outer loop
    vertex -5.131175740358336 6.6528493969441795 0.799999999999974
    vertex -3.859540523232045 -0.07812376625000142 0.8000000000001934
    vertex -0.8034246714620589 6.607527637021263 0.8000000000000267
  endloop
endfacet
facet normal -2.6684559763769278e-14 9.547918011777851e-15 1.0
  outer loop
    vertex -0.8034246714620589 6.607527637021263 0.8000000000000267
    vertex -3.859540523232045 -0.07812376625000142 0.8000000000001934
    vertex 3.8595405232318374 0.07812376625014003 0.8000000000001805
  endloop
endfacet
facet normal -2.6684559763769278e-14 9.547918011777851e-15 1.0
  outer loop
    vertex -0.8034246714620589 6.607527637021263 0.8000000000000267
    vertex 3.8595405232318374 0.07812376625014003 0.8000000000001805
    vertex 2.079162357367735 6.5169386901596065 0.8000000000003797
  endloop
endfacet
facet normal -2.6684559763769278e-14 9.547918011777851e-15 1.0
  outer loop
    vertex 2.079162357367735 6.5169386901596065 0.8000000000003797
    vertex 3.8595405232318374 0.07812376625014003 0.8000000000001805
    vertex 6.087302344127625 3.6090081037037267 0.8000000000001147
  endloop
endfacet
facet normal -2.6684559763769278e-14 9.547918011777851e-15 1.0
  outer loop
    vertex 6.087302344127625 3.6090081037037267 0.8000000000001147
    vertex 3.8595405232318374 0.07812376625014003 0.8000000000001805
    vertex 11.982329265857214 -0.7756157327683307 0.8000000000001436
  endloop
endfacet
facet normal -0.05233595624301355 -0.9986295347545703 5.716172080952055e-14
  outer loop
    vertex 7.844485120374781 6.24507282664712 2.4399999999999755
    vertex 3.5224281027807165 6.471582236874298 3.339999999999574
    vertex 3.5224281027813173 6.471582236874113 2.4399999999998934
  endloop
endfacet
facet normal -0.05233595624301355 -0.9986295347545703 5.716172080952055e-14
  outer loop
    vertex 3.5224281027807165 6.471582236874298 3.339999999999574
    vertex 7.844485120374781 6.24507282664712 2.4399999999999755
    vertex 7.844485120374203 6.245072826647305 3.3399999999997023
  endloop
endfacet
facet normal -0.07323819712768533 -0.9973144772244541 -1.349487028842319e-15
  outer loop
    vertex 11.745926719576737 5.958568864807898 3.3399999999998036
    vertex 7.991184888067987 6.2342998691189555 0.7999999999997047
    vertex 11.74592671957743 5.958568864807251 0.7999999999996866
  endloop
endfacet
facet normal -0.07323819712768533 -0.9973144772244541 -1.349487028842319e-15
  outer loop
    vertex 7.991184888067987 6.2342998691189555 0.7999999999997047
    vertex 11.745926719576737 5.958568864807898 3.3399999999998036
    vertex 7.991184888067779 6.234299869119417 2.440000000000117
  endloop
endfacet
facet normal -0.07323819712768533 -0.9973144772244541 -1.349487028842319e-15
  outer loop
    vertex 7.991184888067779 6.234299869119417 2.440000000000117
    vertex 11.745926719576737 5.958568864807898 3.3399999999998036
    vertex 7.844485120374203 6.245072826647305 3.3399999999997023
  endloop
endfacet
facet normal -0.07323819712768533 -0.9973144772244541 -1.349487028842319e-15
  outer loop
    vertex 7.844485120374203 6.245072826647305 3.3399999999997023
    vertex 7.844485120374781 6.24507282664712 2.4399999999999755
    vertex 7.991184888067779 6.234299869119417 2.440000000000117
  endloop
endfacet
facet normal 0.114937150492616 -0.9933727656004254 5.98605652926e-14
  outer loop
    vertex -26.73198267462048 5.520799074800974 3.3399999999991365
    vertex -27.04194563744626 5.48493513636734 0.7999999999995474
    vertex -26.731982674620248 5.52079907479931 0.79999999999946
  endloop
endfacet
facet normal 0.114937150492616 -0.9933727656004254 5.98605652926e-14
  outer loop
    vertex -27.04194563744626 5.48493513636734 0.7999999999995474
    vertex -26.73198267462048 5.520799074800974 3.3399999999991365
    vertex -27.041945637446492 5.484935136369003 3.3399999999992245
  endloop
endfacet
facet normal -1.1335726448322243e-14 8.302984476669028e-14 1.0
  outer loop
    vertex 11.08704779813552 4.113422471938463 0.7999999999996961
    vertex 11.74592671957743 5.958568864807251 0.7999999999996866
    vertex 7.991184888067987 6.2342998691189555 0.7999999999997047
  endloop
endfacet
facet normal -1.1335726448322243e-14 8.302984476669028e-14 1.0
  outer loop
    vertex 11.74592671957743 5.958568864807251 0.7999999999996866
    vertex 11.08704779813552 4.113422471938463 0.7999999999996961
    vertex 18.077583707325093 -1.416252789587647 0.8000000000004331
  endloop
endfacet
facet normal -1.1335726448322243e-14 8.302984476669028e-14 1.0
  outer loop
    vertex 11.74592671957743 5.958568864807251 0.7999999999996866
    vertex 18.077583707325093 -1.416252789587647 0.8000000000004331
    vertex 12.16085058426588 5.928098760854076 0.7999999999997423
  endloop
endfacet
facet normal -1.1335726448322243e-14 8.302984476669028e-14 1.0
  outer loop
    vertex 12.16085058426588 5.928098760854076 0.7999999999997423
    vertex 18.077583707325093 -1.416252789587647 0.8000000000004331
    vertex 16.469631193904313 5.520799074797554 0.7999999999995524
  endloop
endfacet
facet normal -1.1335726448322243e-14 8.302984476669028e-14 1.0
  outer loop
    vertex 16.469631193904313 5.520799074797554 0.7999999999995524
    vertex 18.077583707325093 -1.416252789587647 0.8000000000004331
    vertex 18.05735159192262 5.337093556942338 0.7999999999997711
  endloop
endfacet
facet normal -1.1335726448322243e-14 8.302984476669028e-14 1.0
  outer loop
    vertex 18.05735159192262 5.337093556942338 0.7999999999997711
    vertex 18.077583707325093 -1.416252789587647 0.8000000000004331
    vertex 20.50138828154709 -1.6053762494799297 0.8000000000002967
  endloop
endfacet
facet normal -1.1335726448322243e-14 8.302984476669028e-14 1.0
  outer loop
    vertex 20.50138828154709 -1.6053762494799297 0.8000000000002967
    vertex 18.077583707325093 -1.416252789587647 0.8000000000004331
    vertex 20.451956442345196 -1.6658094201376867 0.800000000000483
  endloop
endfacet
facet normal -1.1335726448322243e-14 8.302984476669028e-14 1.0
  outer loop
    vertex 20.50138828154709 -1.6053762494799297 0.8000000000002967
    vertex 20.451956442345196 -1.6658094201376867 0.800000000000483
    vertex 20.46376016586203 -1.6661233701489957 0.8000000000003905
  endloop
endfacet
facet normal -1.1335726448322243e-14 8.302984476669028e-14 1.0
  outer loop
    vertex 20.50138828154709 -1.6053762494799297 0.8000000000002967
    vertex 20.46376016586203 -1.6661233701489957 0.8000000000003905
    vertex 20.475242943495633 -1.6633715941236233 0.8000000000003443
  endloop
endfacet
facet normal -1.1335726448322243e-14 8.302984476669028e-14 1.0
  outer loop
    vertex 20.50138828154709 -1.6053762494799297 0.8000000000002967
    vertex 20.475242943495633 -1.6633715941236233 0.8000000000003443
    vertex 20.48562224292623 -1.6577416210504317 0.8000000000003905
  endloop
endfacet
facet normal -1.1335726448322243e-14 8.302984476669028e-14 1.0
  outer loop
    vertex 20.50138828154709 -1.6053762494799297 0.8000000000002967
    vertex 20.48562224292623 -1.6577416210504317 0.8000000000003905
    vertex 20.49419073205027 -1.6496171242902444 0.8000000000004599
  endloop
endfacet
facet normal -1.1335726448322243e-14 8.302984476669028e-14 1.0
  outer loop
    vertex 20.50138828154709 -1.6053762494799297 0.8000000000002967
    vertex 20.49419073205027 -1.6496171242902444 0.8000000000004599
    vertex 20.50036448249419 -1.6395517748707733 0.8000000000003674
  endloop
endfacet
facet normal -1.1335726448322243e-14 8.302984476669028e-14 1.0
  outer loop
    vertex 20.50138828154709 -1.6053762494799297 0.8000000000002967
    vertex 20.50036448249419 -1.6395517748707733 0.8000000000003674
    vertex 20.50372276336733 -1.6282315097216367 0.8000000000004822
  endloop
endfacet
facet normal -1.1335726448322243e-14 8.302984476669028e-14 1.0
  outer loop
    vertex 20.50138828154709 -1.6053762494799297 0.8000000000002967
    vertex 20.50372276336733 -1.6282315097216367 0.8000000000004822
    vertex 20.50403671337873 -1.6164277862046157 0.8000000000002959
  endloop
endfacet
facet normal -0.010471784116220139 -0.9999451693655124 5.799048791361733e-14
  outer loop
    vertex -0.8034246714620589 6.607527637021263 0.8000000000000267
    vertex -5.131175740359214 6.65284939694575 3.3399999999994194
    vertex -5.131175740358336 6.6528493969441795 0.799999999999974
  endloop
endfacet
facet normal -0.010471784116220139 -0.9999451693655124 5.799048791361733e-14
  outer loop
    vertex -5.131175740359214 6.65284939694575 3.3399999999994194
    vertex -0.8034246714620589 6.607527637021263 0.8000000000000267
    vertex -0.8034246714630291 6.607527637022834 3.3399999999994723
  endloop
endfacet
facet normal -0.09410831331854393 -0.9955619646030773 5.623745430480678e-14
  outer loop
    vertex 16.469631193903528 5.520799074798201 3.3399999999996925
    vertex 12.16085058426588 5.928098760854076 0.7999999999997423
    vertex 16.469631193904313 5.520799074797554 0.7999999999995524
  endloop
endfacet
facet normal -0.09410831331854393 -0.9955619646030773 5.623745430480678e-14
  outer loop
    vertex 12.16085058426588 5.928098760854076 0.7999999999997423
    vertex 16.469631193903528 5.520799074798201 3.3399999999996925
    vertex 12.160850584265187 5.928098760854723 3.33999999999988
  endloop
endfacet
facet normal -2.874332474063492e-14 1.067915523637646e-13 -1.0
  outer loop
    vertex -22.674235594980043 8.917577338605991 2.4399999999993107
    vertex -19.54693702610306 6.139318462083901 2.4399999999984012
    vertex -24.12815352014834 8.780141630426984 2.439999999999129
  endloop
endfacet
facet normal -2.874332474063492e-14 1.067915523637646e-13 -1.0
  outer loop
    vertex -19.54693702610306 6.139318462083901 2.4399999999984012
    vertex -22.674235594980043 8.917577338605991 2.4399999999993107
    vertex -18.724419045099072 9.207633734761279 2.439999999999368
  endloop
endfacet
facet normal -2.874332474063492e-14 1.067915523637646e-13 -1.0
  outer loop
    vertex -19.54693702610306 6.139318462083901 2.4399999999984012
    vertex -18.724419045099072 9.207633734761279 2.439999999999368
    vertex -18.106836601091754 6.2450728266489675 2.439999999999786
  endloop
endfacet
facet normal -2.874332474063492e-14 1.067915523637646e-13 -1.0
  outer loop
    vertex -18.106836601091754 6.2450728266489675 2.439999999999786
    vertex -18.724419045099072 9.207633734761279 2.439999999999368
    vertex -13.982156471289013 6.461238152504519 2.4399999999983923
  endloop
endfacet
facet normal 0.09410831331846169 -0.995561964603085 5.960857197923578e-14
  outer loop
    vertex -22.42320206498246 5.9280987608554625 0.7999999999996116
    vertex -26.73198267462048 5.520799074800974 3.3399999999991365
    vertex -26.731982674620248 5.52079907479931 0.79999999999946
  endloop
endfacet
facet normal 0.09410831331846169 -0.995561964603085 5.960857197923578e-14
  outer loop
    vertex -26.73198267462048 5.520799074800974 3.3399999999991365
    vertex -22.42320206498246 5.9280987608554625 0.7999999999996116
    vertex -22.42320206498269 5.928098760857125 3.339999999999288
  endloop
endfacet
facet normal 0.03141075907804267 -0.9995065603657343 5.871503942262408e-14
  outer loop
    vertex -9.458926809255306 6.6075276370230185 3.339999999999301
    vertex -13.784779583498105 6.471582236874021 0.8000000000000174
    vertex -9.458926809254429 6.607527637021447 0.7999999999999234
  endloop
endfacet
facet normal 0.03141075907804267 -0.9995065603657343 5.871503942262408e-14
  outer loop
    vertex -13.784779583498105 6.471582236874021 0.8000000000000174
    vertex -9.458926809255306 6.6075276370230185 3.339999999999301
    vertex -13.784779583498429 6.471582236875592 3.3399999999993244
  endloop
endfacet
facet normal 0.05233595624287724 -0.9986295347545775 4.198291138633021e-14
  outer loop
    vertex -13.784779583498105 6.471582236874021 0.8000000000000174
    vertex -13.982156471289013 6.461238152504519 2.4399999999983923
    vertex -13.982156471288828 6.461238152503133 0.7999999999986962
  endloop
endfacet
facet normal 0.05233595624287724 -0.9986295347545775 4.198291138633021e-14
  outer loop
    vertex -13.982156471289013 6.461238152504519 2.4399999999983923
    vertex -13.784779583498105 6.471582236874021 0.8000000000000174
    vertex -13.784779583498429 6.471582236875592 3.3399999999993244
  endloop
endfacet
facet normal 0.05233595624287724 -0.9986295347545775 4.198291138633021e-14
  outer loop
    vertex -13.982156471289013 6.461238152504519 2.4399999999983923
    vertex -13.784779583498429 6.471582236875592 3.3399999999993244
    vertex -18.106836601091754 6.2450728266489675 2.439999999999786
  endloop
endfacet
facet normal 0.05233595624287724 -0.9986295347545775 4.198291138633021e-14
  outer loop
    vertex -18.106836601091754 6.2450728266489675 2.439999999999786
    vertex -13.784779583498429 6.471582236875592 3.3399999999993244
    vertex -18.106836601091892 6.245072826649153 3.3399999999994425
  endloop
endfacet
facet normal 0.010471784116190054 -0.9999451693655127 5.836587021244633e-14
  outer loop
    vertex -5.131175740358336 6.6528493969441795 0.799999999999974
    vertex -9.458926809255306 6.6075276370230185 3.339999999999301
    vertex -9.458926809254429 6.607527637021447 0.7999999999999234
  endloop
endfacet
facet normal 0.010471784116190054 -0.9999451693655127 5.836587021244633e-14
  outer loop
    vertex -9.458926809255306 6.6075276370230185 3.339999999999301
    vertex -5.131175740358336 6.6528493969441795 0.799999999999974
    vertex -5.131175740359214 6.65284939694575 3.3399999999994194
  endloop
endfacet
facet normal 5.178045250163212e-14 3.2922877464676334e-13 1.0
  outer loop
    vertex -12.023272528792667 -0.07812376625050965 0.800000000000423
    vertex -26.731982674620248 5.52079907479931 0.79999999999946
    vertex -27.04194563744626 5.48493513636734 0.7999999999995474
  endloop
endfacet
facet normal 5.178045250163212e-14 3.2922877464676334e-13 1.0
  outer loop
    vertex -26.731982674620248 5.52079907479931 0.79999999999946
    vertex -12.023272528792667 -0.07812376625050965 0.800000000000423
    vertex -22.42320206498246 5.9280987608554625 0.7999999999996116
  endloop
endfacet
facet normal 5.178045250163212e-14 3.2922877464676334e-13 1.0
  outer loop
    vertex -22.42320206498246 5.9280987608554625 0.7999999999996116
    vertex -12.023272528792667 -0.07812376625050965 0.800000000000423
    vertex -19.546937026102874 6.139318462082423 0.7999999999983584
  endloop
endfacet
facet normal 5.178045250163212e-14 3.2922877464676334e-13 1.0
  outer loop
    vertex -19.546937026102874 6.139318462082423 0.7999999999983584
    vertex -12.023272528792667 -0.07812376625050965 0.800000000000423
    vertex -15.256792534017299 3.666282537024558 0.8000000000000231
  endloop
endfacet
facet normal 5.178045250163212e-14 3.2922877464676334e-13 1.0
  outer loop
    vertex -15.256792534017299 3.666282537024558 0.8000000000000231
    vertex -12.023272528792667 -0.07812376625050965 0.800000000000423
    vertex -9.521231053857885 -0.07812376625018623 0.8000000000004894
  endloop
endfacet
facet normal 0.03141075907829973 0.9995065603657262 -1.1414537207813088e-13
  outer loop
    vertex -0.740597411813042 9.606869687447322 3.3399999999995726
    vertex 3.2513386668517357 9.481418042210182 2.4399999999999658
    vertex -0.7405974118126724 9.606869687447045 2.439999999999546
  endloop
endfacet
facet normal 0.03141075907829973 0.9995065603657262 -1.1414537207813088e-13
  outer loop
    vertex 3.251338666851782 9.481418042212029 -1.0828671292983927e-14
    vertex 3.648055063968102 9.46895072717083 3.3399999999996988
    vertex 3.6480550639685414 9.4689507271724 -3.039247076230822e-13
  endloop
endfacet
facet normal 0.03141075907829973 0.9995065603657262 -1.1414537207813088e-13
  outer loop
    vertex 3.648055063968102 9.46895072717083 3.3399999999996988
    vertex 3.251338666851782 9.481418042212029 -1.0828671292983927e-14
    vertex 3.2513386668517357 9.481418042210182 2.4399999999999658
  endloop
endfacet
facet normal 0.03141075907829973 0.9995065603657262 -1.1414537207813088e-13
  outer loop
    vertex 3.648055063968102 9.46895072717083 3.3399999999996988
    vertex 3.2513386668517357 9.481418042210182 2.4399999999999658
    vertex -0.740597411813042 9.606869687447322 3.3399999999995726
  endloop
endfacet
facet normal 0.07323819712756016 -0.9973144772244634 4.148253894023851e-14
  outer loop
    vertex -19.54693702610306 6.139318462083901 2.4399999999984012
    vertex -22.42320206498246 5.9280987608554625 0.7999999999996116
    vertex -19.546937026102874 6.139318462082423 0.7999999999983584
  endloop
endfacet
facet normal 0.07323819712756016 -0.9973144772244634 4.148253894023851e-14
  outer loop
    vertex -22.42320206498246 5.9280987608554625 0.7999999999996116
    vertex -19.54693702610306 6.139318462083901 2.4399999999984012
    vertex -22.42320206498269 5.928098760857125 3.339999999999288
  endloop
endfacet
facet normal 0.07323819712756016 -0.9973144772244634 4.148253894023851e-14
  outer loop
    vertex -22.42320206498269 5.928098760857125 3.339999999999288
    vertex -19.54693702610306 6.139318462083901 2.4399999999984012
    vertex -18.106836601091754 6.2450728266489675 2.439999999999786
  endloop
endfacet
facet normal 0.07323819712756016 -0.9973144772244634 4.148253894023851e-14
  outer loop
    vertex -22.42320206498269 5.928098760857125 3.339999999999288
    vertex -18.106836601091754 6.2450728266489675 2.439999999999786
    vertex -18.106836601091892 6.245072826649153 3.3399999999994425
  endloop
endfacet
facet normal 2.560209231475797e-14 -4.03448698632341e-14 -1.0
  outer loop
    vertex -0.7405974118126724 9.606869687447045 2.439999999999546
    vertex 2.079162357367435 6.516938690160993 2.440000000000099
    vertex -2.2009165658343424 9.622162672892854 2.4399999999997735
  endloop
endfacet
facet normal 2.560209231475797e-14 -4.03448698632341e-14 -1.0
  outer loop
    vertex 2.079162357367435 6.516938690160993 2.440000000000099
    vertex -0.7405974118126724 9.606869687447045 2.439999999999546
    vertex 3.2513386668517357 9.481418042210182 2.4399999999999658
  endloop
endfacet
facet normal 2.560209231475797e-14 -4.03448698632341e-14 -1.0
  outer loop
    vertex 2.079162357367435 6.516938690160993 2.440000000000099
    vertex 3.2513386668517357 9.481418042210182 2.4399999999999658
    vertex 3.5224281027813173 6.471582236874113 2.4399999999998934
  endloop
endfacet
facet normal 2.560209231475797e-14 -4.03448698632341e-14 -1.0
  outer loop
    vertex 3.5224281027813173 6.471582236874113 2.4399999999998934
    vertex 3.2513386668517357 9.481418042210182 2.4399999999999658
    vertex 7.844485120374781 6.24507282664712 2.4399999999999755
  endloop
endfacet
facet normal 2.560209231475797e-14 -4.03448698632341e-14 -1.0
  outer loop
    vertex 7.844485120374781 6.24507282664712 2.4399999999999755
    vertex 3.2513386668517357 9.481418042210182 2.4399999999999658
    vertex 7.991184888067779 6.234299869119417 2.440000000000117
  endloop
endfacet
facet normal -0.34734660654618293 -0.9377368153809743 8.425364531760256e-14
  outer loop
    vertex -12.02327252879313 -0.07812376625009383 -1.811997663025977e-13
    vertex -27.04194563744626 5.48493513636734 0.7999999999995474
    vertex -27.041945637447277 5.484935136367155 -2.2451445147453342e-13
  endloop
endfacet
facet normal -0.34734660654618293 -0.9377368153809743 8.425364531760256e-14
  outer loop
    vertex -27.04194563744626 5.48493513636734 0.7999999999995474
    vertex -12.02327252879313 -0.07812376625009383 -1.811997663025977e-13
    vertex -12.023272528792667 -0.07812376625050965 0.800000000000423
  endloop
endfacet
endsolid working_stargate_mk2_ring_6
Working Stargate Mk2
www.glitch.org.uk