solid working_stargate_mk2_ring_7
facet normal 0.9999998483510402 -0.0005507247995703526 3.032980957736857e-07
  outer loop
    vertex -9.85415600968806 1.0938920411653006 2.6993979757979623
    vertex -9.855257459454638 -0.9039044527107516 6.700498818797199
    vertex -9.855257459454762 -0.9061073522388211 2.7004994253946406
  endloop
endfacet
facet normal 0.9999998483510402 -0.0005507247995703526 3.032980957736857e-07
  outer loop
    vertex -9.855257459454638 -0.9039044527107516 6.700498818797199
    vertex -9.85415600968806 1.0938920411653006 2.6993979757979623
    vertex -9.854156009688953 1.0960949406935558 6.69939736920036
  endloop
endfacet
facet normal -0.5873396173657215 0.8093404569171173 -0.00044572399528518183
  outer loop
    vertex 3.4737156827517564 -3.4916962420830786 0.0019229642929881093
    vertex 8.300423446129239 0.011437468300216164 0.6999938072551241
    vertex 8.30042344612925 0.011051960882879894 -6.086590606687991e-06
  endloop
endfacet
facet normal -0.5873396173657215 0.8093404569171173 -0.00044572399528518183
  outer loop
    vertex 8.300423446129239 0.011437468300216164 0.6999938072551241
    vertex 3.4737156827517564 -3.4916962420830786 0.0019229642929881093
    vertex 3.4737156827518083 -3.4902092849015673 2.7019225548423322
  endloop
endfacet
facet normal -0.5873396173657215 0.8093404569171173 -0.00044572399528518183
  outer loop
    vertex 8.300423446129239 0.011437468300216164 0.6999938072551241
    vertex 3.4737156827518083 -3.4902092849015673 2.7019225548423322
    vertex 6.681946545942807 -1.162432487320976 1.9006404687265177
  endloop
endfacet
facet normal -0.5873396173657215 0.8093404569171173 -0.00044572399528518183
  outer loop
    vertex 8.300423446129239 0.011437468300216164 0.6999938072551241
    vertex 6.681946545942807 -1.162432487320976 1.9006404687265177
    vertex 9.818983189008987 1.1141191505287809 1.8993867149040344
  endloop
endfacet
facet normal -0.5873396173657215 0.8093404569171173 -0.00044572399528518183
  outer loop
    vertex 6.681946545942807 -1.162432487320976 1.9006404687265177
    vertex 3.4737156827518083 -3.4902092849015673 2.7019225548423322
    vertex 6.681946545942796 -1.1619919074153437 2.700640347407145
  endloop
endfacet
facet normal -0.5873396173657215 0.8093404569171173 -0.00044572399528518183
  outer loop
    vertex 9.818983189008987 1.1141191505287809 1.8993867149040344
    vertex 9.818983189009277 1.1134582806695923 0.6993868968811645
    vertex 8.300423446129239 0.011437468300216164 0.6999938072551241
  endloop
endfacet
facet normal 0.02328303534264238 -0.999728761780792 0.000550575587892166
  outer loop
    vertex 7.504735585173481 -3.9405426481091483 2.702170564668496
    vertex 3.5979798667079863 -4.0330153879912505 0.0022210822609760868
    vertex 7.504735585172875 -3.9420296052905663 0.0021709741189436015
  endloop
endfacet
facet normal 0.02328303534264238 -0.999728761780792 0.000550575587892166
  outer loop
    vertex 3.5979798667079863 -4.0330153879912505 0.0022210822609760868
    vertex 7.504735585173481 -3.9405426481091483 2.702170564668496
    vertex 3.597979866707946 -4.03152843080974 2.702220672810413
  endloop
endfacet
facet normal 1.2593310798378852e-14 -0.0005507248820896811 -0.9999998483510407
  outer loop
    vertex -18.72856798483472 -2.9532804281924645 0.0016264452621434515
    vertex -18.728637876076284 -3.0801881148858397 0.001696336493526695
    vertex -18.736956788680427 -3.0167296708616496 0.0016613883441272234
  endloop
endfacet
facet normal 1.2593310798378852e-14 -0.0005507248820896811 -0.9999998483510407
  outer loop
    vertex -18.728637876076284 -3.0801881148858397 0.001696336493526695
    vertex -18.72856798483472 -2.9532804281924645 0.0016264452621434515
    vertex -18.70417816716876 -3.1393311721750425 0.0017289080516925935
  endloop
endfacet
facet normal 1.2593310798378852e-14 -0.0005507248820896811 -0.9999998483510407
  outer loop
    vertex -18.70417816716876 -3.1393311721750425 0.0017289080516925935
    vertex -18.72856798483472 -2.9532804281924645 0.0016264452621434515
    vertex -18.704043147657632 -2.894164347911679 0.0015938885608210796
  endloop
endfacet
facet normal 1.2593310798378852e-14 -0.0005507248820896811 -0.9999998483510407
  outer loop
    vertex -18.70417816716876 -3.1393311721750425 0.0017289080516925935
    vertex -18.704043147657632 -2.894164347911679 0.0015938885608210796
    vertex -18.66524455069862 -3.190128341113606 0.00175688332080731
  endloop
endfacet
facet normal 1.2593310798378852e-14 -0.0005507248820896811 -0.9999998483510407
  outer loop
    vertex -18.66524455069862 -3.190128341113606 0.00175688332080731
    vertex -18.704043147657632 -2.894164347911679 0.0015938885608210796
    vertex -18.66505360427488 -2.84341009319631 0.001565936925687896
  endloop
endfacet
facet normal 1.2593310798378852e-14 -0.0005507248820896811 -0.9999998483510407
  outer loop
    vertex -18.66524455069862 -3.190128341113606 0.00175688332080731
    vertex -18.66505360427488 -2.84341009319631 0.001565936925687896
    vertex -18.61449028828568 -3.229117878584369 0.0017783558324655955
  endloop
endfacet
facet normal 1.2593310798378852e-14 -0.0005507248820896811 -0.9999998483510407
  outer loop
    vertex -18.61449028828568 -3.229117878584369 0.0017783558324655955
    vertex -18.66505360427488 -2.84341009319631 0.001565936925687896
    vertex -18.61425642763178 -2.8044764826298594 0.0015444952143503655
  endloop
endfacet
facet normal 1.2593310798378852e-14 -0.0005507248820896811 -0.9999998483510407
  outer loop
    vertex -18.61449028828568 -3.229117878584369 0.0017783558324655955
    vertex -18.61425642763178 -2.8044764826298594 0.0015444952143503655
    vertex -18.607063281940526 -3.2321990379785457 0.0017800527041211126
  endloop
endfacet
facet normal 1.2593310798378852e-14 -0.0005507248820896811 -0.9999998483510407
  outer loop
    vertex -18.607063281940526 -3.2321990379785457 0.0017800527041211126
    vertex -18.61425642763178 -2.8044764826298594 0.0015444952143503655
    vertex -11.854155706389829 1.09350653358309 -0.0006022213481744757
  endloop
endfacet
facet normal 1.2593310798378852e-14 -0.0005507248820896811 -0.9999998483510407
  outer loop
    vertex -18.607063281940526 -3.2321990379785457 0.0017800527041211126
    vertex -11.854155706389829 1.09350653358309 -0.0006022213481744757
    vertex -14.472000252634855 -3.569682603681981 0.0019659133289807243
  endloop
endfacet
facet normal 1.2593310798378852e-14 -0.0005507248820896811 -0.9999998483510407
  outer loop
    vertex -14.472000252634855 -3.569682603681981 0.0019659133289807243
    vertex -11.854155706389829 1.09350653358309 -0.0006022213481744757
    vertex -8.30042344612923 -0.011051960882876284 6.086590607048947e-06
  endloop
endfacet
facet normal 1.2593310798378852e-14 -0.0005507248820896811 -0.9999998483510407
  outer loop
    vertex -8.30042344612923 -0.011051960882876284 6.086590607048947e-06
    vertex -11.854155706389829 1.09350653358309 -0.0006022213481744757
    vertex -6.917743423777593 1.0907879285058029 -0.0006007241443675781
  endloop
endfacet
facet normal 1.2593310798378852e-14 -0.0005507248820896811 -0.9999998483510407
  outer loop
    vertex -8.30042344612923 -0.011051960882876284 6.086590607048947e-06
    vertex -6.917743423777593 1.0907879285058029 -0.0006007241443675781
    vertex 8.30042344612925 0.011051960882879894 -6.086590606687991e-06
  endloop
endfacet
facet normal 1.2593310798378852e-14 -0.0005507248820896811 -0.9999998483510407
  outer loop
    vertex 8.30042344612925 0.011051960882879894 -6.086590606687991e-06
    vertex -6.917743423777593 1.0907879285058029 -0.0006007241443675781
    vertex 9.81898318900938 1.113072773252256 -0.000612996964520238
  endloop
endfacet
facet normal 1.2593310798378852e-14 -0.0005507248820896811 -0.9999998483510407
  outer loop
    vertex 3.387019518586224 -3.636000386883038 0.002002436188207679
    vertex 3.3840905213507497 -3.8043195176601436 0.002095133735707651
    vertex 3.3744752013092603 -3.7199671474000104 0.0020486787794551757
  endloop
endfacet
facet normal 1.2593310798378852e-14 -0.0005507248820896811 -0.9999998483510407
  outer loop
    vertex 3.3840905213507497 -3.8043195176601436 0.002095133735707651
    vertex 3.387019518586224 -3.636000386883038 0.002002436188207679
    vertex 3.4152102105407907 -3.8833090230289056 0.002138635228308692
  endloop
endfacet
facet normal 1.2593310798378852e-14 -0.0005507248820896811 -0.9999998483510407
  outer loop
    vertex 3.4152102105407907 -3.8833090230289056 0.002138635228308692
    vertex 3.387019518586224 -3.636000386883038 0.002002436188207679
    vertex 3.4208685986907073 -3.558141432076747 0.001959557317958007
  endloop
endfacet
facet normal 1.2593310798378852e-14 -0.0005507248820896811 -0.9999998483510407
  outer loop
    vertex 3.4152102105407907 -3.8833090230289056 0.002138635228308692
    vertex 3.4208685986907073 -3.558141432076747 0.001959557317958007
    vertex 3.465713513487838 -3.9515526592517687 0.0021762187026795913
  endloop
endfacet
facet normal 1.2593310798378852e-14 -0.0005507248820896811 -0.9999998483510407
  outer loop
    vertex 3.465713513487838 -3.9515526592517687 0.0021762187026795913
    vertex 3.4208685986907073 -3.558141432076747 0.001959557317958007
    vertex 3.4737156827517564 -3.4916962420830786 0.0019229642929881093
  endloop
endfacet
facet normal 1.2593310798378852e-14 -0.0005507248820896811 -0.9999998483510407
  outer loop
    vertex 3.465713513487838 -3.9515526592517687 0.0021762187026795913
    vertex 3.4737156827517564 -3.4916962420830786 0.0019229642929881093
    vertex 3.5321587135572967 -4.0043997352981515 0.0022053229064923643
  endloop
endfacet
facet normal 1.2593310798378852e-14 -0.0005507248820896811 -0.9999998483510407
  outer loop
    vertex 3.5321587135572967 -4.0043997352981515 0.0022053229064923643
    vertex 3.4737156827517564 -3.4916962420830786 0.0019229642929881093
    vertex 8.30042344612925 0.011051960882879894 -6.086590606687991e-06
  endloop
endfacet
facet normal 1.2593310798378852e-14 -0.0005507248820896811 -0.9999998483510407
  outer loop
    vertex 3.5321587135572967 -4.0043997352981515 0.0022053229064923643
    vertex 8.30042344612925 0.011051960882879894 -6.086590606687991e-06
    vertex 3.5979798667079863 -4.0330153879912505 0.0022210822609760868
  endloop
endfacet
facet normal 1.2593310798378852e-14 -0.0005507248820896811 -0.9999998483510407
  outer loop
    vertex 3.5979798667079863 -4.0330153879912505 0.0022210822609760868
    vertex 8.30042344612925 0.011051960882879894 -6.086590606687991e-06
    vertex 7.504735585172875 -3.9420296052905663 0.0021709741189436015
  endloop
endfacet
facet normal 1.2593310798378852e-14 -0.0005507248820896811 -0.9999998483510407
  outer loop
    vertex 7.504735585172875 -3.9420296052905663 0.0021709741189436015
    vertex 8.30042344612925 0.011051960882879894 -6.086590606687991e-06
    vertex 14.412237142595629 1.0707534040369309 -0.0005896906311597746
  endloop
endfacet
facet normal 1.2593310798378852e-14 -0.0005507248820896811 -0.9999998483510407
  outer loop
    vertex 14.412237142595629 1.0707534040369309 -0.0005896906311597746
    vertex 8.30042344612925 0.011051960882879894 -6.086590606687991e-06
    vertex 9.81898318900938 1.113072773252256 -0.000612996964520238
  endloop
endfacet
facet normal 1.2593310798378852e-14 -0.0005507248820896811 -0.9999998483510407
  outer loop
    vertex 14.412237142595629 1.0707534040369309 -0.0005896906311597746
    vertex 9.81898318900938 1.113072773252256 -0.000612996964520238
    vertex 14.334469928390508 1.4620551191081013 -0.0008051902548549662
  endloop
endfacet
facet normal 1.2593310798378852e-14 -0.0005507248820896811 -0.9999998483510407
  outer loop
    vertex 14.412237142595629 1.0707534040369309 -0.0005896906311597746
    vertex 14.334469928390508 1.4620551191081013 -0.0008051902548549662
    vertex 14.373120380985682 1.450518863135061 -0.0007988369507271897
  endloop
endfacet
facet normal 1.2593310798378852e-14 -0.0005507248820896811 -0.9999998483510407
  outer loop
    vertex 14.412237142595629 1.0707534040369309 -0.0005896906311597746
    vertex 14.373120380985682 1.450518863135061 -0.0007988369507271897
    vertex 14.422119172055453 1.4203520469639839 -0.0007822233318832047
  endloop
endfacet
facet normal 1.2593310798378852e-14 -0.0005507248820896811 -0.9999998483510407
  outer loop
    vertex 14.412237142595629 1.0707534040369309 -0.0005896906311597746
    vertex 14.422119172055453 1.4203520469639839 -0.0007822233318832047
    vertex 14.454057874167525 1.1102748480558233 -0.0006114560771476761
  endloop
endfacet
facet normal 1.2593310798378852e-14 -0.0005507248820896811 -0.9999998483510407
  outer loop
    vertex 14.454057874167525 1.1102748480558233 -0.0006114560771476761
    vertex 14.422119172055453 1.4203520469639839 -0.0007822233318832047
    vertex 14.461640622067645 1.3785313217345248 -0.0007591916144673973
  endloop
endfacet
facet normal 1.2593310798378852e-14 -0.0005507248820896811 -0.9999998483510407
  outer loop
    vertex 14.454057874167525 1.1102748480558233 -0.0006114560771476761
    vertex 14.461640622067645 1.3785313217345248 -0.0007591916144673973
    vertex 14.48422469491337 1.1592736316952574 -0.0006384409306717515
  endloop
endfacet
facet normal 1.2593310798378852e-14 -0.0005507248820896811 -0.9999998483510407
  outer loop
    vertex 14.48422469491337 1.1592736316952574 -0.0006384409306717515
    vertex 14.461640622067645 1.3785313217345248 -0.0007591916144673973
    vertex 14.488991409516666 1.3279067007592507 -0.0007313113718237587
  endloop
endfacet
facet normal 1.2593310798378852e-14 -0.0005507248820896811 -0.9999998483510407
  outer loop
    vertex 14.48422469491337 1.1592736316952574 -0.0006384409306717515
    vertex 14.488991409516666 1.3279067007592507 -0.0007313113718237587
    vertex 14.500681785853136 1.2144105688245614 -0.0006688062183807773
  endloop
endfacet
facet normal 1.2593310798378852e-14 -0.0005507248820896811 -0.9999998483510407
  outer loop
    vertex 14.500681785853136 1.2144105688245614 -0.0006688062183807773
    vertex 14.488991409516666 1.3279067007592507 -0.0007313113718237587
    vertex 14.502307623435716 1.2719281682964803 -0.0007004825964612564
  endloop
endfacet
facet normal -0.99999984835104 0.0005507247997516426 -3.032980264013104e-07
  outer loop
    vertex 9.81792364089172 -0.8071522466449331 6.700445534941494
    vertex 9.818983189008977 1.114559730434414 2.6993865935848698
    vertex 9.817923640891877 -0.8093551461731875 2.7004461415393255
  endloop
endfacet
facet normal -0.99999984835104 0.0005507247997516426 -3.032980264013104e-07
  outer loop
    vertex 9.818983189008977 1.114559730434414 2.6993865935848698
    vertex 9.81792364089172 -0.8071522466449331 6.700445534941494
    vertex 9.818983189009005 1.1167626299624835 6.699385986987477
  endloop
endfacet
facet normal 0.5873396173657387 -0.8093404569171047 0.000445723995167852
  outer loop
    vertex 14.412237142596512 1.0722403612184421 2.699409899918277
    vertex 7.504735585172875 -3.9420296052905663 0.0021709741189436015
    vertex 14.412237142595629 1.0707534040369309 -0.0005896906311597746
  endloop
endfacet
facet normal 0.5873396173657387 -0.8093404569171047 0.000445723995167852
  outer loop
    vertex 7.504735585172875 -3.9420296052905663 0.0021709741189436015
    vertex 14.412237142596512 1.0722403612184421 2.699409899918277
    vertex 11.817923337595627 -0.8104565957720277 2.70044674813494
  endloop
endfacet
facet normal 0.5873396173657387 -0.8093404569171047 0.000445723995167852
  outer loop
    vertex 7.504735585172875 -3.9420296052905663 0.0021709741189436015
    vertex 11.817923337595627 -0.8104565957720277 2.70044674813494
    vertex 7.504735585173481 -3.9405426481091483 2.702170564668496
  endloop
endfacet
facet normal -0.0005507248830439599 -0.9999996967021039 0.000550724798502563
  outer loop
    vertex 11.817923337595627 -0.8104565957720277 2.70044674813494
    vertex 9.81792364089172 -0.8071522466449331 6.700445534941494
    vertex 9.817923640891877 -0.8093551461731875 2.7004461415393255
  endloop
endfacet
facet normal -0.0005507248830439599 -0.9999996967021039 0.000550724798502563
  outer loop
    vertex 9.81792364089172 -0.8071522466449331 6.700445534941494
    vertex 11.817923337595627 -0.8104565957720277 2.70044674813494
    vertex 11.817923337594085 -0.8082536962442346 6.700446141537269
  endloop
endfacet
facet normal -1.545727390040773e-14 0.0005507248820299526 0.9999998483510407
  outer loop
    vertex -9.855257459454638 -0.9039044527107516 6.700498818797199
    vertex -11.854155706390666 1.0971963902927646 6.699396762604492
    vertex -11.855257156157645 -0.9028030031115422 6.7004982122012855
  endloop
endfacet
facet normal -1.545727390040773e-14 0.0005507248820299526 0.9999998483510407
  outer loop
    vertex -11.854155706390666 1.0971963902927646 6.699396762604492
    vertex -9.855257459454638 -0.9039044527107516 6.700498818797199
    vertex -9.854156009688953 1.0960949406935558 6.69939736920036
  endloop
endfacet
facet normal -0.000550724883067061 -0.9999996967021039 0.000550724798524564
  outer loop
    vertex -9.855257459454762 -0.9061073522388211 2.7004994253946406
    vertex -11.855257156157645 -0.9028030031115422 6.7004982122012855
    vertex -11.855257156157958 -0.9050059026397959 2.700498818799627
  endloop
endfacet
facet normal -0.000550724883067061 -0.9999996967021039 0.000550724798524564
  outer loop
    vertex -11.855257156157645 -0.9028030031115422 6.7004982122012855
    vertex -9.855257459454762 -0.9061073522388211 2.7004994253946406
    vertex -9.855257459454638 -0.9039044527107516 6.700498818797199
  endloop
endfacet
facet normal -0.9999998483510398 0.0005507248001839129 -3.03297909816137e-07
  outer loop
    vertex -11.855257156157645 -0.9028030031115422 6.7004982122012855
    vertex -11.854155706390054 1.0949934907645094 2.6993973692027406
    vertex -11.855257156157958 -0.9050059026397959 2.700498818799627
  endloop
endfacet
facet normal -0.9999998483510398 0.0005507248001839129 -3.03297909816137e-07
  outer loop
    vertex -11.854155706390054 1.0949934907645094 2.6993973692027406
    vertex -11.855257156157645 -0.9028030031115422 6.7004982122012855
    vertex -11.854155706390666 1.0971963902927646 6.699396762604492
  endloop
endfacet
facet normal 0.28600841892079476 0.9582269594509158 -0.0005277195092168992
  outer loop
    vertex 14.334469928391021 1.4635420762896125 2.6991944002944894
    vertex 14.373120380985682 1.450518863135061 -0.0007988369507271897
    vertex 14.334469928390508 1.4620551191081013 -0.0008051902548549662
  endloop
endfacet
facet normal 0.28600841892079476 0.9582269594509158 -0.0005277195092168992
  outer loop
    vertex 14.373120380985682 1.450518863135061 -0.0007988369507271897
    vertex 14.334469928391021 1.4635420762896125 2.6991944002944894
    vertex 14.373120380986197 1.4520058203165713 2.6992007535986864
  endloop
endfacet
facet normal 3.6499274920845464e-14 0.000550724882076907 0.9999998483510407
  outer loop
    vertex 3.3840905213507093 -3.8028325604786324 2.7020947242852134
    vertex 3.3870195185861838 -3.6345134297015274 2.702002026737714
    vertex 3.374475201309127 -3.718480190218592 2.7020482693288916
  endloop
endfacet
facet normal 3.6499274920845464e-14 0.000550724882076907 0.9999998483510407
  outer loop
    vertex 3.3870195185861838 -3.6345134297015274 2.702002026737714
    vertex 3.3840905213507093 -3.8028325604786324 2.7020947242852134
    vertex 3.4152102105407502 -3.8818220658473943 2.7021382257778606
  endloop
endfacet
facet normal 3.6499274920845464e-14 0.000550724882076907 0.9999998483510407
  outer loop
    vertex 3.3870195185861838 -3.6345134297015274 2.702002026737714
    vertex 3.4152102105407502 -3.8818220658473943 2.7021382257778606
    vertex 3.420868598690667 -3.5566544748952356 2.7019591478675102
  endloop
endfacet
facet normal 3.6499274920845464e-14 0.000550724882076907 0.9999998483510407
  outer loop
    vertex 3.420868598690667 -3.5566544748952356 2.7019591478675102
    vertex 3.4152102105407502 -3.8818220658473943 2.7021382257778606
    vertex 3.4657135134877977 -3.9500657020702574 2.7021758092520005
  endloop
endfacet
facet normal 3.6499274920845464e-14 0.000550724882076907 0.9999998483510407
  outer loop
    vertex 3.420868598690667 -3.5566544748952356 2.7019591478675102
    vertex 3.4657135134877977 -3.9500657020702574 2.7021758092520005
    vertex 3.4737156827518083 -3.4902092849015673 2.7019225548423322
  endloop
endfacet
facet normal 3.6499274920845464e-14 0.000550724882076907 0.9999998483510407
  outer loop
    vertex 3.4737156827518083 -3.4902092849015673 2.7019225548423322
    vertex 3.4657135134877977 -3.9500657020702574 2.7021758092520005
    vertex 3.5321587135573487 -4.002912778116641 2.7022049134559754
  endloop
endfacet
facet normal 3.6499274920845464e-14 0.000550724882076907 0.9999998483510407
  outer loop
    vertex 3.4737156827518083 -3.4902092849015673 2.7019225548423322
    vertex 3.5321587135573487 -4.002912778116641 2.7022049134559754
    vertex 6.681946545942796 -1.1619919074153437 2.700640347407145
  endloop
endfacet
facet normal 3.6499274920845464e-14 0.000550724882076907 0.9999998483510407
  outer loop
    vertex 6.681946545942796 -1.1619919074153437 2.700640347407145
    vertex 3.5321587135573487 -4.002912778116641 2.7022049134559754
    vertex 3.597979866707946 -4.03152843080974 2.702220672810413
  endloop
endfacet
facet normal 3.6499274920845464e-14 0.000550724882076907 0.9999998483510407
  outer loop
    vertex 6.681946545942796 -1.1619919074153437 2.700640347407145
    vertex 3.597979866707946 -4.03152843080974 2.702220672810413
    vertex 7.504735585173481 -3.9405426481091483 2.702170564668496
  endloop
endfacet
facet normal 3.6499274920845464e-14 0.000550724882076907 0.9999998483510407
  outer loop
    vertex 11.817923337595627 -0.8104565957720277 2.70044674813494
    vertex 9.817923640891877 -0.8093551461731875 2.7004461415393255
    vertex 7.504735585173481 -3.9405426481091483 2.702170564668496
  endloop
endfacet
facet normal 3.6499274920845464e-14 0.000550724882076907 0.9999998483510407
  outer loop
    vertex -10.795124212313997 -1.4480496680747692 2.700797886557988
    vertex -11.855257156157958 -0.9050059026397959 2.700498818799627
    vertex -14.472000252635635 -3.5681956465005613 2.7019655038796415
  endloop
endfacet
facet normal 3.6499274920845464e-14 0.000550724882076907 0.9999998483510407
  outer loop
    vertex -11.855257156157958 -0.9050059026397959 2.700498818799627
    vertex -10.795124212313997 -1.4480496680747692 2.700797886557988
    vertex -9.855257459454762 -0.9061073522388211 2.7004994253946406
  endloop
endfacet
facet normal 3.6499274920845464e-14 0.000550724882076907 0.9999998483510407
  outer loop
    vertex -9.855257459454762 -0.9061073522388211 2.7004994253946406
    vertex -10.795124212313997 -1.4480496680747692 2.700797886557988
    vertex 6.681946545942796 -1.1619919074153437 2.700640347407145
  endloop
endfacet
facet normal 3.6499274920845464e-14 0.000550724882076907 0.9999998483510407
  outer loop
    vertex -9.855257459454762 -0.9061073522388211 2.7004994253946406
    vertex 6.681946545942796 -1.1619919074153437 2.700640347407145
    vertex -9.85415600968806 1.0938920411653006 2.6993979757979623
  endloop
endfacet
facet normal 3.6499274920845464e-14 0.000550724882076907 0.9999998483510407
  outer loop
    vertex -9.85415600968806 1.0938920411653006 2.6993979757979623
    vertex 6.681946545942796 -1.1619919074153437 2.700640347407145
    vertex -6.917743423778465 1.0922748856873141 2.6993988664048385
  endloop
endfacet
facet normal 3.6499274920845464e-14 0.000550724882076907 0.9999998483510407
  outer loop
    vertex -6.917743423778465 1.0922748856873141 2.6993988664048385
    vertex 6.681946545942796 -1.1619919074153437 2.700640347407145
    vertex 9.818983189008977 1.114559730434414 2.6993865935848698
  endloop
endfacet
facet normal 3.6499274920845464e-14 0.000550724882076907 0.9999998483510407
  outer loop
    vertex 9.818983189008977 1.114559730434414 2.6993865935848698
    vertex 6.681946545942796 -1.1619919074153437 2.700640347407145
    vertex 7.504735585173481 -3.9405426481091483 2.702170564668496
  endloop
endfacet
facet normal 3.6499274920845464e-14 0.000550724882076907 0.9999998483510407
  outer loop
    vertex 9.818983189008977 1.114559730434414 2.6993865935848698
    vertex 7.504735585173481 -3.9405426481091483 2.702170564668496
    vertex 9.817923640891877 -0.8093551461731875 2.7004461415393255
  endloop
endfacet
facet normal 3.6499274920845464e-14 0.000550724882076907 0.9999998483510407
  outer loop
    vertex -18.728637876076327 -3.0787011577044203 2.7016959270441188
    vertex -18.728567984834942 -2.951793471011045 2.701626035812412
    vertex -18.736956788680285 -3.0152427136802302 2.701660978894742
  endloop
endfacet
facet normal 3.6499274920845464e-14 0.000550724882076907 0.9999998483510407
  outer loop
    vertex -18.728567984834942 -2.951793471011045 2.701626035812412
    vertex -18.728637876076327 -3.0787011577044203 2.7016959270441188
    vertex -18.704178167168987 -3.1378442149937156 2.7017284986023538
  endloop
endfacet
facet normal 3.6499274920845464e-14 0.000550724882076907 0.9999998483510407
  outer loop
    vertex -18.728567984834942 -2.951793471011045 2.701626035812412
    vertex -18.704178167168987 -3.1378442149937156 2.7017284986023538
    vertex -18.70404314765767 -2.8926773907302596 2.7015934791117364
  endloop
endfacet
facet normal 3.6499274920845464e-14 0.000550724882076907 0.9999998483510407
  outer loop
    vertex -18.70404314765767 -2.8926773907302596 2.7015934791117364
    vertex -18.704178167168987 -3.1378442149937156 2.7017284986023538
    vertex -18.665244550698937 -3.1886413839321865 2.701756473871584
  endloop
endfacet
facet normal 3.6499274920845464e-14 0.000550724882076907 0.9999998483510407
  outer loop
    vertex -18.70404314765767 -2.8926773907302596 2.7015934791117364
    vertex -18.665244550698937 -3.1886413839321865 2.701756473871584
    vertex -18.66505360427483 -2.8419231360148913 2.7015655274763954
  endloop
endfacet
facet normal 3.6499274920845464e-14 0.000550724882076907 0.9999998483510407
  outer loop
    vertex -18.66505360427483 -2.8419231360148913 2.7015655274763954
    vertex -18.665244550698937 -3.1886413839321865 2.701756473871584
    vertex -18.614490288285815 -3.2276309214029495 2.7017779463831264
  endloop
endfacet
facet normal 3.6499274920845464e-14 0.000550724882076907 0.9999998483510407
  outer loop
    vertex -18.66505360427483 -2.8419231360148913 2.7015655274763954
    vertex -18.614490288285815 -3.2276309214029495 2.7017779463831264
    vertex -18.614256427632004 -2.8029895254484396 2.701544085765035
  endloop
endfacet
facet normal 3.6499274920845464e-14 0.000550724882076907 0.9999998483510407
  outer loop
    vertex -18.614256427632004 -2.8029895254484396 2.701544085765035
    vertex -18.614490288285815 -3.2276309214029495 2.7017779463831264
    vertex -18.607063281940473 -3.2307120807972187 2.701779643254505
  endloop
endfacet
facet normal 3.6499274920845464e-14 0.000550724882076907 0.9999998483510407
  outer loop
    vertex -18.614256427632004 -2.8029895254484396 2.701544085765035
    vertex -18.607063281940473 -3.2307120807972187 2.701779643254505
    vertex -11.854155706390054 1.0949934907645094 2.6993973692027406
  endloop
endfacet
facet normal 3.6499274920845464e-14 0.000550724882076907 0.9999998483510407
  outer loop
    vertex -11.854155706390054 1.0949934907645094 2.6993973692027406
    vertex -18.607063281940473 -3.2307120807972187 2.701779643254505
    vertex -14.472000252635635 -3.5681956465005613 2.7019655038796415
  endloop
endfacet
facet normal 3.6499274920845464e-14 0.000550724882076907 0.9999998483510407
  outer loop
    vertex -11.854155706390054 1.0949934907645094 2.6993973692027406
    vertex -14.472000252635635 -3.5681956465005613 2.7019655038796415
    vertex -11.855257156157958 -0.9050059026397959 2.700498818799627
  endloop
endfacet
facet normal 0.7268041088642333 0.6868447017015784 -0.00037826252466946394
  outer loop
    vertex 14.422119172055453 1.4203520469639839 -0.0007822233318832047
    vertex 14.46164062206825 1.3800182789159428 2.699240398934785
    vertex 14.461640622067645 1.3785313217345248 -0.0007591916144673973
  endloop
endfacet
facet normal 0.7268041088642333 0.6868447017015784 -0.00037826252466946394
  outer loop
    vertex 14.46164062206825 1.3800182789159428 2.699240398934785
    vertex 14.422119172055453 1.4203520469639839 -0.0007822233318832047
    vertex 14.422119172055973 1.4218390041454025 2.6992173672174378
  endloop
endfacet
facet normal -0.08134463856185355 -0.9966858825559098 0.0005488997983348338
  outer loop
    vertex -14.472000252634855 -3.569682603681981 0.0019659133289807243
    vertex -18.607063281940473 -3.2307120807972187 2.701779643254505
    vertex -18.607063281940526 -3.2321990379785457 0.0017800527041211126
  endloop
endfacet
facet normal -0.08134463856185355 -0.9966858825559098 0.0005488997983348338
  outer loop
    vertex -18.607063281940473 -3.2307120807972187 2.701779643254505
    vertex -14.472000252634855 -3.569682603681981 0.0019659133289807243
    vertex -14.472000252635635 -3.5681956465005613 2.7019655038796415
  endloop
endfacet
facet normal 0.5242703426177557 0.8515517529298149 -0.0004689708097740731
  outer loop
    vertex 14.373120380986197 1.4520058203165713 2.6992007535986864
    vertex 14.422119172055453 1.4203520469639839 -0.0007822233318832047
    vertex 14.373120380985682 1.450518863135061 -0.0007988369507271897
  endloop
endfacet
facet normal 0.5242703426177557 0.8515517529298149 -0.0004689708097740731
  outer loop
    vertex 14.422119172055453 1.4203520469639839 -0.0007822233318832047
    vertex 14.373120380986197 1.4520058203165713 2.6992007535986864
    vertex 14.422119172055973 1.4218390041454025 2.6992173672174378
  endloop
endfacet
facet normal -0.4995229824362223 0.8663005035205685 -0.0004770933149756732
  outer loop
    vertex -18.61425642763178 -2.8044764826298594 0.0015444952143503655
    vertex -11.854155706390054 1.0949934907645094 2.6993973692027406
    vertex -11.854155706389829 1.09350653358309 -0.0006022213481744757
  endloop
endfacet
facet normal -0.4995229824362223 0.8663005035205685 -0.0004770933149756732
  outer loop
    vertex -11.854155706390054 1.0949934907645094 2.6993973692027406
    vertex -18.61425642763178 -2.8044764826298594 0.0015444952143503655
    vertex -18.614256427632004 -2.8029895254484396 2.701544085765035
  endloop
endfacet
facet normal 0.4995229824363208 -0.8663005035205117 0.0004770933149743235
  outer loop
    vertex -6.902950986241053 0.795799557306763 1.8995620214513538
    vertex -8.30042344612924 -0.010666453465540736 0.7000059804362918
    vertex -6.902950986241128 0.7951386874483128 0.6995622034279522
  endloop
endfacet
facet normal 0.4995229824363208 -0.8663005035205117 0.0004770933149743235
  outer loop
    vertex -8.30042344612924 -0.010666453465540736 0.7000059804362918
    vertex -14.472000252634855 -3.569682603681981 0.0019659133289807243
    vertex -8.30042344612923 -0.011051960882876284 6.086590607048947e-06
  endloop
endfacet
facet normal 0.4995229824363208 -0.8663005035205117 0.0004770933149743235
  outer loop
    vertex -14.472000252634855 -3.569682603681981 0.0019659133289807243
    vertex -8.30042344612924 -0.010666453465540736 0.7000059804362918
    vertex -14.472000252635635 -3.5681956465005613 2.7019655038796415
  endloop
endfacet
facet normal 0.4995229824363208 -0.8663005035205117 0.0004770933149743235
  outer loop
    vertex -14.472000252635635 -3.5681956465005613 2.7019655038796415
    vertex -8.30042344612924 -0.010666453465540736 0.7000059804362918
    vertex -10.795124212314077 -1.4484902479804023 1.9007980078770832
  endloop
endfacet
facet normal 0.4995229824363208 -0.8663005035205117 0.0004770933149743235
  outer loop
    vertex -10.795124212314077 -1.4484902479804023 1.9007980078770832
    vertex -8.30042344612924 -0.010666453465540736 0.7000059804362918
    vertex -6.902950986241053 0.795799557306763 1.8995620214513538
  endloop
endfacet
facet normal 0.4995229824363208 -0.8663005035205117 0.0004770933149743235
  outer loop
    vertex -10.795124212314077 -1.4484902479804023 1.9007980078770832
    vertex -6.902950986241053 0.795799557306763 1.8995620214513538
    vertex -9.855257459454752 -0.9065479321444537 1.90049954671399
  endloop
endfacet
facet normal 0.4995229824363208 -0.8663005035205117 0.0004770933149743235
  outer loop
    vertex -14.472000252635635 -3.5681956465005613 2.7019655038796415
    vertex -10.795124212314077 -1.4484902479804023 1.9007980078770832
    vertex -10.795124212313997 -1.4480496680747692 2.700797886557988
  endloop
endfacet
facet normal -2.660013900823684e-14 0.0005507248821073661 0.9999998483510407
  outer loop
    vertex 14.412237142596512 1.0722403612184421 2.699409899918277
    vertex 11.817923337596406 1.2690491271578614 2.6993015124172333
    vertex 11.817923337595627 -0.8104565957720277 2.70044674813494
  endloop
endfacet
facet normal -2.660013900823684e-14 0.0005507248821073661 0.9999998483510407
  outer loop
    vertex 11.817923337596406 1.2690491271578614 2.6993015124172333
    vertex 14.412237142596512 1.0722403612184421 2.699409899918277
    vertex 14.334469928391021 1.4635420762896125 2.6991944002944894
  endloop
endfacet
facet normal -2.660013900823684e-14 0.0005507248821073661 0.9999998483510407
  outer loop
    vertex 14.334469928391021 1.4635420762896125 2.6991944002944894
    vertex 14.412237142596512 1.0722403612184421 2.699409899918277
    vertex 14.373120380986197 1.4520058203165713 2.6992007535986864
  endloop
endfacet
facet normal -2.660013900823684e-14 0.0005507248821073661 0.9999998483510407
  outer loop
    vertex 14.373120380986197 1.4520058203165713 2.6992007535986864
    vertex 14.412237142596512 1.0722403612184421 2.699409899918277
    vertex 14.422119172055973 1.4218390041454025 2.6992173672174378
  endloop
endfacet
facet normal -2.660013900823684e-14 0.0005507248821073661 0.9999998483510407
  outer loop
    vertex 14.422119172055973 1.4218390041454025 2.6992173672174378
    vertex 14.412237142596512 1.0722403612184421 2.699409899918277
    vertex 14.454057874167953 1.1117618052373337 2.699388134472335
  endloop
endfacet
facet normal -2.660013900823684e-14 0.0005507248821073661 0.9999998483510407
  outer loop
    vertex 14.422119172055973 1.4218390041454025 2.6992173672174378
    vertex 14.454057874167953 1.1117618052373337 2.699388134472335
    vertex 14.46164062206825 1.3800182789159428 2.699240398934785
  endloop
endfacet
facet normal -2.660013900823684e-14 0.0005507248821073661 0.9999998483510407
  outer loop
    vertex 14.46164062206825 1.3800182789159428 2.699240398934785
    vertex 14.454057874167953 1.1117618052373337 2.699388134472335
    vertex 14.484224694913607 1.1607605888767687 2.699361149618996
  endloop
endfacet
facet normal -2.660013900823684e-14 0.0005507248821073661 0.9999998483510407
  outer loop
    vertex 14.46164062206825 1.3800182789159428 2.699240398934785
    vertex 14.484224694913607 1.1607605888767687 2.699361149618996
    vertex 14.488991409517087 1.329393657940761 2.69926827917752
  endloop
endfacet
facet normal -2.660013900823684e-14 0.0005507248821073661 0.9999998483510407
  outer loop
    vertex 14.488991409517087 1.329393657940761 2.69926827917752
    vertex 14.484224694913607 1.1607605888767687 2.699361149618996
    vertex 14.50068178585328 1.2158975260060727 2.6993307843311483
  endloop
endfacet
facet normal -2.660013900823684e-14 0.0005507248821073661 0.9999998483510407
  outer loop
    vertex 14.488991409517087 1.329393657940761 2.69926827917752
    vertex 14.50068178585328 1.2158975260060727 2.6993307843311483
    vertex 14.502307623436321 1.2734151254779906 2.6992991079528834
  endloop
endfacet
facet normal -0.622472688323023 -0.782641403526245 0.00043102015998333686
  outer loop
    vertex 3.5321587135572967 -4.0043997352981515 0.0022053229064923643
    vertex 3.4657135134877977 -3.9500657020702574 2.7021758092520005
    vertex 3.465713513487838 -3.9515526592517687 0.0021762187026795913
  endloop
endfacet
facet normal -0.622472688323023 -0.782641403526245 0.00043102015998333686
  outer loop
    vertex 3.4657135134877977 -3.9500657020702574 2.7021758092520005
    vertex 3.5321587135572967 -4.0043997352981515 0.0022053229064923643
    vertex 3.5321587135573487 -4.002912778116641 2.7022049134559754
  endloop
endfacet
facet normal -0.6083244172652673 0.7936883596846883 -0.0004371039945606645
  outer loop
    vertex -18.66505360427488 -2.84341009319631 0.001565936925687896
    vertex -18.614256427632004 -2.8029895254484396 2.701544085765035
    vertex -18.61425642763178 -2.8044764826298594 0.0015444952143503655
  endloop
endfacet
facet normal -0.6083244172652673 0.7936883596846883 -0.0004371039945606645
  outer loop
    vertex -18.614256427632004 -2.8029895254484396 2.701544085765035
    vertex -18.66505360427488 -2.84341009319631 0.001565936925687896
    vertex -18.66505360427483 -2.8419231360148913 2.7015655274763954
  endloop
endfacet
facet normal 0.9728532247817163 0.23142296080598912 -0.00012745040212376973
  outer loop
    vertex 14.488991409516666 1.3279067007592507 -0.0007313113718237587
    vertex 14.502307623436321 1.2734151254779906 2.6992991079528834
    vertex 14.502307623435716 1.2719281682964803 -0.0007004825964612564
  endloop
endfacet
facet normal 0.9728532247817163 0.23142296080598912 -0.00012745040212376973
  outer loop
    vertex 14.502307623436321 1.2734151254779906 2.6992991079528834
    vertex 14.488991409516666 1.3279067007592507 -0.0007313113718237587
    vertex 14.488991409517087 1.329393657940761 2.69926827917752
  endloop
endfacet
facet normal 0.9913728270007216 -0.13107216590094437 7.218471389885023e-05
  outer loop
    vertex -6.819203943602566 0.9400084877736228 0.6994824200123668
    vertex -6.824929578859921 0.8973631571794936 1.8995060878412666
    vertex -6.824929578860365 0.8967022873211365 0.6995062698179346
  endloop
endfacet
facet normal 0.9913728270007216 -0.13107216590094437 7.218471389885023e-05
  outer loop
    vertex -6.824929578859921 0.8973631571794936 1.8995060878412666
    vertex -6.819203943602566 0.9400084877736228 0.6994824200123668
    vertex -6.819203943602398 0.9406693576320729 1.8994822380355143
  endloop
endfacet
facet normal -0.991516595044137 -0.12998013935948402 7.15833077697901e-05
  outer loop
    vertex -18.728637876076327 -3.0787011577044203 2.7016959270441188
    vertex -18.736956788680427 -3.0167296708616496 0.0016613883441272234
    vertex -18.728637876076284 -3.0801881148858397 0.001696336493526695
  endloop
endfacet
facet normal -0.991516595044137 -0.12998013935948402 7.15833077697901e-05
  outer loop
    vertex -18.736956788680427 -3.0167296708616496 0.0016613883441272234
    vertex -18.728637876076327 -3.0787011577044203 2.7016959270441188
    vertex -18.736956788680285 -3.0152427136802302 2.701660978894742
  endloop
endfacet
facet normal -0.9890237844545227 0.14775637773601555 -8.137312603560007e-05
  outer loop
    vertex 3.374475201309127 -3.718480190218592 2.7020482693288916
    vertex 3.387019518586224 -3.636000386883038 0.002002436188207679
    vertex 3.3744752013092603 -3.7199671474000104 0.0020486787794551757
  endloop
endfacet
facet normal -0.9890237844545227 0.14775637773601555 -8.137312603560007e-05
  outer loop
    vertex 3.387019518586224 -3.636000386883038 0.002002436188207679
    vertex 3.374475201309127 -3.718480190218592 2.7020482693288916
    vertex 3.3870195185861838 -3.6345134297015274 2.702002026737714
  endloop
endfacet
facet normal 0.9996007338191457 -0.02825548983968569 1.5561003652264267e-05
  outer loop
    vertex 14.502307623435716 1.2719281682964803 -0.0007004825964612564
    vertex 14.50068178585328 1.2158975260060727 2.6993307843311483
    vertex 14.500681785853136 1.2144105688245614 -0.0006688062183807773
  endloop
endfacet
facet normal 0.9996007338191457 -0.02825548983968569 1.5561003652264267e-05
  outer loop
    vertex 14.50068178585328 1.2158975260060727 2.6993307843311483
    vertex 14.502307623435716 1.2719281682964803 -0.0007004825964612564
    vertex 14.502307623436321 1.2734151254779906 2.6992991079528834
  endloop
endfacet
facet normal 0.6083244172580501 -0.7936883596902199 0.00043710399453152836
  outer loop
    vertex -6.868280238071823 0.822373030410811 1.8995473867762251
    vertex -6.902950986241128 0.7951386874483128 0.6995622034279522
    vertex -6.8682802380716215 0.8217121605523607 0.6995475687530543
  endloop
endfacet
facet normal 0.6083244172580501 -0.7936883596902199 0.00043710399453152836
  outer loop
    vertex -6.902950986241128 0.7951386874483128 0.6995622034279522
    vertex -6.868280238071823 0.822373030410811 1.8995473867762251
    vertex -6.902950986241053 0.795799557306763 1.8995620214513538
  endloop
endfacet
facet normal -0.7930179599132333 0.6091981637319467 -0.0003355006377176597
  outer loop
    vertex -18.70404314765767 -2.8926773907302596 2.7015934791117364
    vertex -18.66505360427488 -2.84341009319631 0.001565936925687896
    vertex -18.704043147657632 -2.894164347911679 0.0015938885608210796
  endloop
endfacet
facet normal -0.7930179599132333 0.6091981637319467 -0.0003355006377176597
  outer loop
    vertex -18.66505360427488 -2.84341009319631 0.001565936925687896
    vertex -18.70404314765767 -2.8926773907302596 2.7015934791117364
    vertex -18.66505360427483 -2.8419231360148913 2.7015655274763954
  endloop
endfacet
facet normal -0.7826415222130797 0.622472593925609 -0.0003428111978625502
  outer loop
    vertex 3.420868598690667 -3.5566544748952356 2.7019591478675102
    vertex 3.4737156827517564 -3.4916962420830786 0.0019229642929881093
    vertex 3.4208685986907073 -3.558141432076747 0.001959557317958007
  endloop
endfacet
facet normal -0.7826415222130797 0.622472593925609 -0.0003428111978625502
  outer loop
    vertex 3.4737156827517564 -3.4916962420830786 0.0019229642929881093
    vertex 3.420868598690667 -3.5566544748952356 2.7019591478675102
    vertex 3.4737156827518083 -3.4902092849015673 2.7019225548423322
  endloop
endfacet
facet normal 0.38319217778585346 0.9236684990411677 -0.0005086873022741908
  outer loop
    vertex -6.917743423778437 1.091228508411436 0.7993991545363063
    vertex -6.9027913686324505 1.0849704433540814 0.6994025858441865
    vertex -6.917743423777697 1.0911734359231384 0.6993991697013866
  endloop
endfacet
facet normal 0.38319217778585346 0.9236684990411677 -0.0005086873022741908
  outer loop
    vertex -6.9027913686324505 1.0849704433540814 0.6994025858441865
    vertex -6.917743423778437 1.091228508411436 0.7993991545363063
    vertex -6.902791368632376 1.0856313132125317 1.8994024038676345
  endloop
endfacet
facet normal 0.38319217778585346 0.9236684990411677 -0.0005086873022741908
  outer loop
    vertex -6.902791368632376 1.0856313132125317 1.8994024038676345
    vertex -6.917743423778437 1.091228508411436 0.7993991545363063
    vertex -6.917743423777992 1.091834305781681 1.8993989877242106
  endloop
endfacet
facet normal -0.8038249772474739 -0.5948657820268917 0.0003276074373051739
  outer loop
    vertex 3.4657135134877977 -3.9500657020702574 2.7021758092520005
    vertex 3.4152102105407907 -3.8833090230289056 0.002138635228308692
    vertex 3.465713513487838 -3.9515526592517687 0.0021762187026795913
  endloop
endfacet
facet normal -0.8038249772474739 -0.5948657820268917 0.0003276074373051739
  outer loop
    vertex 3.4152102105407907 -3.8833090230289056 0.002138635228308692
    vertex 3.4657135134877977 -3.9500657020702574 2.7021758092520005
    vertex 3.4152102105407502 -3.8818220658473943 2.7021382257778606
  endloop
endfacet
facet normal -0.3831921777805695 -0.9236684990433597 0.0005086873023171563
  outer loop
    vertex -18.607063281940526 -3.2321990379785457 0.0017800527041211126
    vertex -18.614490288285815 -3.2276309214029495 2.7017779463831264
    vertex -18.61449028828568 -3.229117878584369 0.0017783558324655955
  endloop
endfacet
facet normal -0.3831921777805695 -0.9236684990433597 0.0005086873023171563
  outer loop
    vertex -18.614490288285815 -3.2276309214029495 2.7017779463831264
    vertex -18.607063281940526 -3.2321990379785457 0.0017800527041211126
    vertex -18.607063281940473 -3.2307120807972187 2.701779643254505
  endloop
endfacet
facet normal 0.7936884800450309 0.6083243250157068 -0.00033501939281159313
  outer loop
    vertex -6.868149910840182 1.0583587982935996 0.6994172415415426
    vertex -6.841576433706589 1.0243489252411584 1.8994361536086168
    vertex -6.841576433705832 1.0236880553827081 0.6994363355852383
  endloop
endfacet
facet normal 0.7936884800450309 0.6083243250157068 -0.00033501939281159313
  outer loop
    vertex -6.841576433706589 1.0243489252411584 1.8994361536086168
    vertex -6.868149910840182 1.0583587982935996 0.6994172415415426
    vertex -6.868149910839829 1.059019668152049 1.899417059564898
  endloop
endfacet
facet normal -0.07705587812444258 0.9970266245940675 -0.0005490874536055587
  outer loop
    vertex 9.81898318900938 1.113072773252256 -0.000612996964520238
    vertex 14.334469928391021 1.4635420762896125 2.6991944002944894
    vertex 14.334469928390508 1.4620551191081013 -0.0008051902548549662
  endloop
endfacet
facet normal -0.07705587812444258 0.9970266245940675 -0.0005490874536055587
  outer loop
    vertex 14.334469928391021 1.4635420762896125 2.6991944002944894
    vertex 9.81898318900938 1.113072773252256 -0.000612996964520238
    vertex 9.818983189009277 1.1134582806695923 0.6993868968811645
  endloop
endfacet
facet normal -0.07705587812444258 0.9970266245940675 -0.0005490874536055587
  outer loop
    vertex 14.334469928391021 1.4635420762896125 2.6991944002944894
    vertex 9.818983189009277 1.1134582806695923 0.6993868968811645
    vertex 9.818983189008987 1.1141191505287809 1.8993867149040344
  endloop
endfacet
facet normal -0.07705587812444258 0.9970266245940675 -0.0005490874536055587
  outer loop
    vertex 14.334469928391021 1.4635420762896125 2.6991944002944894
    vertex 9.818983189008987 1.1141191505287809 1.8993867149040344
    vertex 9.818983189008977 1.114559730434414 2.6993865935848698
  endloop
endfacet
facet normal -0.07705587812444258 0.9970266245940675 -0.0005490874536055587
  outer loop
    vertex 14.334469928391021 1.4635420762896125 2.6991944002944894
    vertex 9.818983189008977 1.114559730434414 2.6993865935848698
    vertex 11.817923337596406 1.2690491271578614 2.6993015124172333
  endloop
endfacet
facet normal -0.07705587812444258 0.9970266245940675 -0.0005490874536055587
  outer loop
    vertex 11.817923337596406 1.2690491271578614 2.6993015124172333
    vertex 9.818983189008977 1.114559730434414 2.6993865935848698
    vertex 11.817923337595055 1.27125202668584 6.699300905819631
  endloop
endfacet
facet normal -0.07705587812444258 0.9970266245940675 -0.0005490874536055587
  outer loop
    vertex 11.817923337595055 1.27125202668584 6.699300905819631
    vertex 9.818983189008977 1.114559730434414 2.6993865935848698
    vertex 9.818983189009005 1.1167626299624835 6.699385986987477
  endloop
endfacet
facet normal 0.95822710476507 -0.28600837554787845 0.0001575119527457974
  outer loop
    vertex 14.500681785853136 1.2144105688245614 -0.0006688062183807773
    vertex 14.484224694913607 1.1607605888767687 2.699361149618996
    vertex 14.48422469491337 1.1592736316952574 -0.0006384409306717515
  endloop
endfacet
facet normal 0.95822710476507 -0.28600837554787845 0.0001575119527457974
  outer loop
    vertex 14.484224694913607 1.1607605888767687 2.699361149618996
    vertex 14.500681785853136 1.2144105688245614 -0.0006688062183807773
    vertex 14.50068178585328 1.2158975260060727 2.6993307843311483
  endloop
endfacet
facet normal 0.8515518820667727 -0.5242702631127024 0.0002887287225599038
  outer loop
    vertex 14.48422469491337 1.1592736316952574 -0.0006384409306717515
    vertex 14.454057874167953 1.1117618052373337 2.699388134472335
    vertex 14.454057874167525 1.1102748480558233 -0.0006114560771476761
  endloop
endfacet
facet normal 0.8515518820667727 -0.5242702631127024 0.0002887287225599038
  outer loop
    vertex 14.454057874167953 1.1117618052373337 2.699388134472335
    vertex 14.48422469491337 1.1592736316952574 -0.0006384409306717515
    vertex 14.484224694913607 1.1607605888767687 2.699361149618996
  endloop
endfacet
facet normal 0.6868448058612248 -0.7268039986448193 0.00040026910711401186
  outer loop
    vertex 14.454057874167953 1.1117618052373337 2.699388134472335
    vertex 14.412237142595629 1.0707534040369309 -0.0005896906311597746
    vertex 14.454057874167525 1.1102748480558233 -0.0006114560771476761
  endloop
endfacet
facet normal 0.6868448058612248 -0.7268039986448193 0.00040026910711401186
  outer loop
    vertex 14.412237142595629 1.0707534040369309 -0.0005896906311597746
    vertex 14.454057874167953 1.1117618052373337 2.699388134472335
    vertex 14.412237142596512 1.0722403612184421 2.699409899918277
  endloop
endfacet
facet normal -0.930397922356157 -0.36655104054460225 0.00020186880917119564
  outer loop
    vertex 3.4152102105407502 -3.8818220658473943 2.7021382257778606
    vertex 3.3840905213507497 -3.8043195176601436 0.002095133735707651
    vertex 3.4152102105407907 -3.8833090230289056 0.002138635228308692
  endloop
endfacet
facet normal -0.930397922356157 -0.36655104054460225 0.00020186880917119564
  outer loop
    vertex 3.3840905213507497 -3.8043195176601436 0.002095133735707651
    vertex 3.4152102105407502 -3.8818220658473943 2.7021382257778606
    vertex 3.3840905213507093 -3.8028325604786324 2.7020947242852134
  endloop
endfacet
facet normal -0.9935657866116637 -0.11325645140271415 6.237315529598192e-05
  outer loop
    vertex 3.3840905213507093 -3.8028325604786324 2.7020947242852134
    vertex 3.3744752013092603 -3.7199671474000104 0.0020486787794551757
    vertex 3.3840905213507497 -3.8043195176601436 0.002095133735707651
  endloop
endfacet
facet normal -0.9935657866116637 -0.11325645140271415 6.237315529598192e-05
  outer loop
    vertex 3.3744752013092603 -3.7199671474000104 0.0020486787794551757
    vertex 3.3840905213507093 -3.8028325604786324 2.7020947242852134
    vertex 3.374475201309127 -3.718480190218592 2.7020482693288916
  endloop
endfacet
facet normal 0.9236686391138453 -0.38319211967687017 0.00021103346667682518
  outer loop
    vertex -6.824929578860365 0.8967022873211365 0.6995062698179346
    vertex -6.841668588975898 0.8570144829491831 1.8995283088636772
    vertex -6.841668588976158 0.856353613090733 0.6995284908401601
  endloop
endfacet
facet normal 0.9236686391138453 -0.38319211967687017 0.00021103346667682518
  outer loop
    vertex -6.841668588975898 0.8570144829491831 1.8995283088636772
    vertex -6.824929578860365 0.8967022873211365 0.6995062698179346
    vertex -6.824929578859921 0.8973631571794936 1.8995060878412666
  endloop
endfacet
facet normal 0.7930179599188073 -0.6091981637246907 0.00033550063770908397
  outer loop
    vertex -6.841668588976158 0.856353613090733 0.6995284908401601
    vertex -6.868280238071823 0.822373030410811 1.8995473867762251
    vertex -6.8682802380716215 0.8217121605523607 0.6995475687530543
  endloop
endfacet
facet normal 0.7930179599188073 -0.6091981637246907 0.00033550063770908397
  outer loop
    vertex -6.868280238071823 0.822373030410811 1.8995473867762251
    vertex -6.841668588976158 0.856353613090733 0.6995284908401601
    vertex -6.841668588975898 0.8570144829491831 1.8995283088636772
  endloop
endfacet
facet normal 0.8798073761914108 0.4753303191175249 -0.0002617762736173381
  outer loop
    vertex 14.461640622067645 1.3785313217345248 -0.0007591916144673973
    vertex 14.488991409517087 1.329393657940761 2.69926827917752
    vertex 14.488991409516666 1.3279067007592507 -0.0007313113718237587
  endloop
endfacet
facet normal 0.8798073761914108 0.4753303191175249 -0.0002617762736173381
  outer loop
    vertex 14.488991409517087 1.329393657940761 2.69926827917752
    vertex 14.461640622067645 1.3785313217345248 -0.0007591916144673973
    vertex 14.46164062206825 1.3800182789159428 2.699240398934785
  endloop
endfacet
facet normal -0.6091982561168074 -0.7930178396524401 0.00043673472240493685
  outer loop
    vertex -18.61449028828568 -3.229117878584369 0.0017783558324655955
    vertex -18.665244550698937 -3.1886413839321865 2.701756473871584
    vertex -18.66524455069862 -3.190128341113606 0.00175688332080731
  endloop
endfacet
facet normal -0.6091982561168074 -0.7930178396524401 0.00043673472240493685
  outer loop
    vertex -18.665244550698937 -3.1886413839321865 2.701756473871584
    vertex -18.61449028828568 -3.229117878584369 0.0017783558324655955
    vertex -18.614490288285815 -3.2276309214029495 2.7017779463831264
  endloop
endfacet
facet normal -0.7936884800463379 -0.6083243250140015 0.00033501939292336944
  outer loop
    vertex -18.665244550698937 -3.1886413839321865 2.701756473871584
    vertex -18.70417816716876 -3.1393311721750425 0.0017289080516925935
    vertex -18.66524455069862 -3.190128341113606 0.00175688332080731
  endloop
endfacet
facet normal -0.7936884800463379 -0.6083243250140015 0.00033501939292336944
  outer loop
    vertex -18.70417816716876 -3.1393311721750425 0.0017289080516925935
    vertex -18.665244550698937 -3.1886413839321865 2.701756473871584
    vertex -18.704178167168987 -3.1378442149937156 2.7017284986023538
  endloop
endfacet
facet normal 0.6091982561108976 0.79301783965698 -0.0004367347224416735
  outer loop
    vertex -6.902791368632376 1.0856313132125317 1.8994024038676345
    vertex -6.868149910840182 1.0583587982935996 0.6994172415415426
    vertex -6.9027913686324505 1.0849704433540814 0.6994025858441865
  endloop
endfacet
facet normal 0.6091982561108976 0.79301783965698 -0.0004367347224416735
  outer loop
    vertex -6.868149910840182 1.0583587982935996 0.6994172415415426
    vertex -6.902791368632376 1.0856313132125317 1.8994024038676345
    vertex -6.868149910839829 1.059019668152049 1.899417059564898
  endloop
endfacet
facet normal -0.9240901456945084 -0.38217451292753585 0.00021047304545878352
  outer loop
    vertex -18.704178167168987 -3.1378442149937156 2.7017284986023538
    vertex -18.728637876076284 -3.0801881148858397 0.001696336493526695
    vertex -18.70417816716876 -3.1393311721750425 0.0017289080516925935
  endloop
endfacet
facet normal -0.9240901456945084 -0.38217451292753585 0.00021047304545878352
  outer loop
    vertex -18.728637876076284 -3.0801881148858397 0.001696336493526695
    vertex -18.704178167168987 -3.1378442149937156 2.7017284986023538
    vertex -18.728637876076327 -3.0787011577044203 2.7016959270441188
  endloop
endfacet
facet normal -0.3986999143739075 -0.9170813067515163 0.0005050595710689577
  outer loop
    vertex 3.5979798667079863 -4.0330153879912505 0.0022210822609760868
    vertex 3.5321587135573487 -4.002912778116641 2.7022049134559754
    vertex 3.5321587135572967 -4.0043997352981515 0.0022053229064923643
  endloop
endfacet
facet normal -0.3986999143739075 -0.9170813067515163 0.0005050595710689577
  outer loop
    vertex 3.5321587135573487 -4.002912778116641 2.7022049134559754
    vertex 3.5979798667079863 -4.0330153879912505 0.0022210822609760868
    vertex 3.597979866707946 -4.03152843080974 2.702220672810413
  endloop
endfacet
facet normal -0.9913728270001522 0.13107216590525086 -7.218471404760484e-05
  outer loop
    vertex -18.736956788680285 -3.0152427136802302 2.701660978894742
    vertex -18.72856798483472 -2.9532804281924645 0.0016264452621434515
    vertex -18.736956788680427 -3.0167296708616496 0.0016613883441272234
  endloop
endfacet
facet normal -0.9913728270001522 0.13107216590525086 -7.218471404760484e-05
  outer loop
    vertex -18.72856798483472 -2.9532804281924645 0.0016264452621434515
    vertex -18.736956788680285 -3.0152427136802302 2.701660978894742
    vertex -18.728567984834942 -2.951793471011045 2.701626035812412
  endloop
endfacet
facet normal -1.9713011259927427e-14 0.0005507248820133679 0.9999998483510407
  outer loop
    vertex 11.817923337594085 -0.8082536962442346 6.700446141537269
    vertex 9.818983189009005 1.1167626299624835 6.699385986987477
    vertex 9.81792364089172 -0.8071522466449331 6.700445534941494
  endloop
endfacet
facet normal -1.9713011259927427e-14 0.0005507248820133679 0.9999998483510407
  outer loop
    vertex 9.818983189009005 1.1167626299624835 6.699385986987477
    vertex 11.817923337594085 -0.8082536962442346 6.700446141537269
    vertex 11.817923337595055 1.27125202668584 6.699300905819631
  endloop
endfacet
facet normal 0.9915165950440765 0.12998013935994523 -7.158330791015426e-05
  outer loop
    vertex -6.824881875783037 0.9833209684545468 0.6994585667477738
    vertex -6.819203943602398 0.9406693576320729 1.8994822380355143
    vertex -6.819203943602566 0.9400084877736228 0.6994824200123668
  endloop
endfacet
facet normal 0.9915165950440765 0.12998013935994523 -7.158330791015426e-05
  outer loop
    vertex -6.819203943602398 0.9406693576320729 1.8994822380355143
    vertex -6.824881875783037 0.9833209684545468 0.6994585667477738
    vertex -6.824881875782592 0.983981838312997 1.899458384771106
  endloop
endfacet
facet normal -0.9236686391174743 0.3831921196681227 -0.00021103346689210948
  outer loop
    vertex -18.728567984834942 -2.951793471011045 2.701626035812412
    vertex -18.704043147657632 -2.894164347911679 0.0015938885608210796
    vertex -18.72856798483472 -2.9532804281924645 0.0016264452621434515
  endloop
endfacet
facet normal -0.9236686391174743 0.3831921196681227 -0.00021103346689210948
  outer loop
    vertex -18.704043147657632 -2.894164347911679 0.0015938885608210796
    vertex -18.728567984834942 -2.951793471011045 2.701626035812412
    vertex -18.70404314765767 -2.8926773907302596 2.7015934791117364
  endloop
endfacet
facet normal 0.9240901456995295 0.38217451291539545 -0.00021047304542040062
  outer loop
    vertex -6.841576433705832 1.0236880553827081 0.6994363355852383
    vertex -6.824881875782592 0.983981838312997 1.899458384771106
    vertex -6.824881875783037 0.9833209684545468 0.6994585667477738
  endloop
endfacet
facet normal 0.9240901456995295 0.38217451291539545 -0.00021047304542040062
  outer loop
    vertex -6.824881875782592 0.983981838312997 1.899458384771106
    vertex -6.841576433705832 1.0236880553827081 0.6994363355852383
    vertex -6.841576433706589 1.0243489252411584 1.8994361536086168
  endloop
endfacet
facet normal -0.9170814458258817 0.39869985391166746 -0.0002195739633036436
  outer loop
    vertex 3.3870195185861838 -3.6345134297015274 2.702002026737714
    vertex 3.4208685986907073 -3.558141432076747 0.001959557317958007
    vertex 3.387019518586224 -3.636000386883038 0.002002436188207679
  endloop
endfacet
facet normal -0.9170814458258817 0.39869985391166746 -0.0002195739633036436
  outer loop
    vertex 3.4208685986907073 -3.558141432076747 0.001959557317958007
    vertex 3.3870195185861838 -3.6345134297015274 2.702002026737714
    vertex 3.420868598690667 -3.5566544748952356 2.7019591478675102
  endloop
endfacet
facet normal 1.0 -4.1968125928315635e-13 5.335734494088898e-13
  outer loop
    vertex 11.817923337596406 1.2690491271578614 2.6993015124172333
    vertex 11.817923337594085 -0.8082536962442346 6.700446141537269
    vertex 11.817923337595627 -0.8104565957720277 2.70044674813494
  endloop
endfacet
facet normal 1.0 -4.1968125928315635e-13 5.335734494088898e-13
  outer loop
    vertex 11.817923337594085 -0.8082536962442346 6.700446141537269
    vertex 11.817923337596406 1.2690491271578614 2.6993015124172333
    vertex 11.817923337595055 1.27125202668584 6.699300905819631
  endloop
endfacet
facet normal -0.001331492644172289 0.9999989619144515 -0.0005507243938588866
  outer loop
    vertex -6.917743423777992 1.091834305781681 1.8993989877242106
    vertex 9.818983189008977 1.114559730434414 2.6993865935848698
    vertex 9.818983189008987 1.1141191505287809 1.8993867149040344
  endloop
endfacet
facet normal -0.001331492644172289 0.9999989619144515 -0.0005507243938588866
  outer loop
    vertex 9.818983189008977 1.114559730434414 2.6993865935848698
    vertex -6.917743423777992 1.091834305781681 1.8993989877242106
    vertex -6.917743423778465 1.0922748856873141 2.6993988664048385
  endloop
endfacet
facet normal 0.0005507248831002901 0.9999996967021036 -0.0005507247985255794
  outer loop
    vertex -11.854155706390666 1.0971963902927646 6.699396762604492
    vertex -9.85415600968806 1.0938920411653006 2.6993979757979623
    vertex -11.854155706390054 1.0949934907645094 2.6993973692027406
  endloop
endfacet
facet normal 0.0005507248831002901 0.9999996967021036 -0.0005507247985255794
  outer loop
    vertex -9.85415600968806 1.0938920411653006 2.6993979757979623
    vertex -11.854155706390666 1.0971963902927646 6.699396762604492
    vertex -9.854156009688953 1.0960949406935558 6.69939736920036
  endloop
endfacet
facet normal 0.0005507248831002901 0.9999996967021036 -0.0005507247985255794
  outer loop
    vertex -11.854155706390054 1.0949934907645094 2.6993973692027406
    vertex -6.917743423777593 1.0907879285058029 -0.0006007241443675781
    vertex -11.854155706389829 1.09350653358309 -0.0006022213481744757
  endloop
endfacet
facet normal 0.0005507248831002901 0.9999996967021036 -0.0005507247985255794
  outer loop
    vertex -6.917743423777593 1.0907879285058029 -0.0006007241443675781
    vertex -11.854155706390054 1.0949934907645094 2.6993973692027406
    vertex -6.917743423777697 1.0911734359231384 0.6993991697013866
  endloop
endfacet
facet normal 0.0005507248831002901 0.9999996967021036 -0.0005507247985255794
  outer loop
    vertex -6.917743423777697 1.0911734359231384 0.6993991697013866
    vertex -11.854155706390054 1.0949934907645094 2.6993973692027406
    vertex -6.917743423778437 1.091228508411436 0.7993991545363063
  endloop
endfacet
facet normal 0.0005507248831002901 0.9999996967021036 -0.0005507247985255794
  outer loop
    vertex -6.917743423778437 1.091228508411436 0.7993991545363063
    vertex -11.854155706390054 1.0949934907645094 2.6993973692027406
    vertex -6.917743423777992 1.091834305781681 1.8993989877242106
  endloop
endfacet
facet normal 0.0005507248831002901 0.9999996967021036 -0.0005507247985255794
  outer loop
    vertex -6.917743423777992 1.091834305781681 1.8993989877242106
    vertex -11.854155706390054 1.0949934907645094 2.6993973692027406
    vertex -6.917743423778465 1.0922748856873141 2.6993988664048385
  endloop
endfacet
facet normal 0.0005507248831002901 0.9999996967021036 -0.0005507247985255794
  outer loop
    vertex -6.917743423778465 1.0922748856873141 2.6993988664048385
    vertex -11.854155706390054 1.0949934907645094 2.6993973692027406
    vertex -9.85415600968806 1.0938920411653006 2.6993979757979623
  endloop
endfacet
facet normal -1.6413759660249685e-14 -0.0005507248820438033 -0.9999998483510407
  outer loop
    vertex 9.818983189008987 1.1141191505287809 1.8993867149040344
    vertex -6.902791368632376 1.0856313132125317 1.8994024038676345
    vertex -6.917743423777992 1.091834305781681 1.8993989877242106
  endloop
endfacet
facet normal -1.6413759660249685e-14 -0.0005507248820438033 -0.9999998483510407
  outer loop
    vertex -6.902791368632376 1.0856313132125317 1.8994024038676345
    vertex 9.818983189008987 1.1141191505287809 1.8993867149040344
    vertex -6.868149910839829 1.059019668152049 1.899417059564898
  endloop
endfacet
facet normal -1.6413759660249685e-14 -0.0005507248820438033 -0.9999998483510407
  outer loop
    vertex -6.868149910839829 1.059019668152049 1.899417059564898
    vertex 9.818983189008987 1.1141191505287809 1.8993867149040344
    vertex -6.841576433706589 1.0243489252411584 1.8994361536086168
  endloop
endfacet
facet normal -1.6413759660249685e-14 -0.0005507248820438033 -0.9999998483510407
  outer loop
    vertex -6.841576433706589 1.0243489252411584 1.8994361536086168
    vertex 9.818983189008987 1.1141191505287809 1.8993867149040344
    vertex -6.824881875782592 0.983981838312997 1.899458384771106
  endloop
endfacet
facet normal -1.6413759660249685e-14 -0.0005507248820438033 -0.9999998483510407
  outer loop
    vertex -6.824881875782592 0.983981838312997 1.899458384771106
    vertex 9.818983189008987 1.1141191505287809 1.8993867149040344
    vertex -6.819203943602398 0.9406693576320729 1.8994822380355143
  endloop
endfacet
facet normal -1.6413759660249685e-14 -0.0005507248820438033 -0.9999998483510407
  outer loop
    vertex -6.819203943602398 0.9406693576320729 1.8994822380355143
    vertex 9.818983189008987 1.1141191505287809 1.8993867149040344
    vertex 6.681946545942807 -1.162432487320976 1.9006404687265177
  endloop
endfacet
facet normal -1.6413759660249685e-14 -0.0005507248820438033 -0.9999998483510407
  outer loop
    vertex -9.855257459454752 -0.9065479321444537 1.90049954671399
    vertex 6.681946545942807 -1.162432487320976 1.9006404687265177
    vertex -10.795124212314077 -1.4484902479804023 1.9007980078770832
  endloop
endfacet
facet normal -1.6413759660249685e-14 -0.0005507248820438033 -0.9999998483510407
  outer loop
    vertex 6.681946545942807 -1.162432487320976 1.9006404687265177
    vertex -9.855257459454752 -0.9065479321444537 1.90049954671399
    vertex -6.902950986241053 0.795799557306763 1.8995620214513538
  endloop
endfacet
facet normal -1.6413759660249685e-14 -0.0005507248820438033 -0.9999998483510407
  outer loop
    vertex 6.681946545942807 -1.162432487320976 1.9006404687265177
    vertex -6.902950986241053 0.795799557306763 1.8995620214513538
    vertex -6.868280238071823 0.822373030410811 1.8995473867762251
  endloop
endfacet
facet normal -1.6413759660249685e-14 -0.0005507248820438033 -0.9999998483510407
  outer loop
    vertex 6.681946545942807 -1.162432487320976 1.9006404687265177
    vertex -6.868280238071823 0.822373030410811 1.8995473867762251
    vertex -6.841668588975898 0.8570144829491831 1.8995283088636772
  endloop
endfacet
facet normal -1.6413759660249685e-14 -0.0005507248820438033 -0.9999998483510407
  outer loop
    vertex 6.681946545942807 -1.162432487320976 1.9006404687265177
    vertex -6.841668588975898 0.8570144829491831 1.8995283088636772
    vertex -6.824929578859921 0.8973631571794936 1.8995060878412666
  endloop
endfacet
facet normal -1.6413759660249685e-14 -0.0005507248820438033 -0.9999998483510407
  outer loop
    vertex 6.681946545942807 -1.162432487320976 1.9006404687265177
    vertex -6.824929578859921 0.8973631571794936 1.8995060878412666
    vertex -6.819203943602398 0.9406693576320729 1.8994822380355143
  endloop
endfacet
facet normal 0.01636541377338682 -0.9998659260197648 0.0005506511276782629
  outer loop
    vertex 6.681946545942796 -1.1619919074153437 2.700640347407145
    vertex -10.795124212314077 -1.4484902479804023 1.9007980078770832
    vertex 6.681946545942807 -1.162432487320976 1.9006404687265177
  endloop
endfacet
facet normal 0.01636541377338682 -0.9998659260197648 0.0005506511276782629
  outer loop
    vertex -10.795124212314077 -1.4484902479804023 1.9007980078770832
    vertex 6.681946545942796 -1.1619919074153437 2.700640347407145
    vertex -10.795124212313997 -1.4480496680747692 2.700797886557988
  endloop
endfacet
facet normal 0.0013314926441702548 -0.9999989619144516 0.0005507243937723639
  outer loop
    vertex 8.300423446129239 0.011437468300216164 0.6999938072551241
    vertex -8.30042344612923 -0.011051960882876284 6.086590607048947e-06
    vertex 8.30042344612925 0.011051960882879894 -6.086590606687991e-06
  endloop
endfacet
facet normal 0.0013314926441702548 -0.9999989619144516 0.0005507243937723639
  outer loop
    vertex -8.30042344612923 -0.011051960882876284 6.086590607048947e-06
    vertex 8.300423446129239 0.011437468300216164 0.6999938072551241
    vertex -8.30042344612924 -0.010666453465540736 0.7000059804362918
  endloop
endfacet
facet normal -1.3693646653109394e-14 0.0005507248819564396 0.9999998483510407
  outer loop
    vertex 8.300423446129239 0.011437468300216164 0.6999938072551241
    vertex -6.902950986241128 0.7951386874483128 0.6995622034279522
    vertex -8.30042344612924 -0.010666453465540736 0.7000059804362918
  endloop
endfacet
facet normal -1.3693646653109394e-14 0.0005507248819564396 0.9999998483510407
  outer loop
    vertex -6.902950986241128 0.7951386874483128 0.6995622034279522
    vertex 8.300423446129239 0.011437468300216164 0.6999938072551241
    vertex -6.8682802380716215 0.8217121605523607 0.6995475687530543
  endloop
endfacet
facet normal -1.3693646653109394e-14 0.0005507248819564396 0.9999998483510407
  outer loop
    vertex -6.8682802380716215 0.8217121605523607 0.6995475687530543
    vertex 8.300423446129239 0.011437468300216164 0.6999938072551241
    vertex -6.841668588976158 0.856353613090733 0.6995284908401601
  endloop
endfacet
facet normal -1.3693646653109394e-14 0.0005507248819564396 0.9999998483510407
  outer loop
    vertex -6.841668588976158 0.856353613090733 0.6995284908401601
    vertex 8.300423446129239 0.011437468300216164 0.6999938072551241
    vertex -6.824929578860365 0.8967022873211365 0.6995062698179346
  endloop
endfacet
facet normal -1.3693646653109394e-14 0.0005507248819564396 0.9999998483510407
  outer loop
    vertex -6.824929578860365 0.8967022873211365 0.6995062698179346
    vertex 8.300423446129239 0.011437468300216164 0.6999938072551241
    vertex -6.819203943602566 0.9400084877736228 0.6994824200123668
  endloop
endfacet
facet normal -1.3693646653109394e-14 0.0005507248819564396 0.9999998483510407
  outer loop
    vertex -6.9027913686324505 1.0849704433540814 0.6994025858441865
    vertex 9.818983189009277 1.1134582806695923 0.6993868968811645
    vertex -6.917743423777697 1.0911734359231384 0.6993991697013866
  endloop
endfacet
facet normal -1.3693646653109394e-14 0.0005507248819564396 0.9999998483510407
  outer loop
    vertex 9.818983189009277 1.1134582806695923 0.6993868968811645
    vertex -6.9027913686324505 1.0849704433540814 0.6994025858441865
    vertex -6.868149910840182 1.0583587982935996 0.6994172415415426
  endloop
endfacet
facet normal -1.3693646653109394e-14 0.0005507248819564396 0.9999998483510407
  outer loop
    vertex 9.818983189009277 1.1134582806695923 0.6993868968811645
    vertex -6.868149910840182 1.0583587982935996 0.6994172415415426
    vertex -6.841576433705832 1.0236880553827081 0.6994363355852383
  endloop
endfacet
facet normal -1.3693646653109394e-14 0.0005507248819564396 0.9999998483510407
  outer loop
    vertex 9.818983189009277 1.1134582806695923 0.6993868968811645
    vertex -6.841576433705832 1.0236880553827081 0.6994363355852383
    vertex -6.824881875783037 0.9833209684545468 0.6994585667477738
  endloop
endfacet
facet normal -1.3693646653109394e-14 0.0005507248819564396 0.9999998483510407
  outer loop
    vertex 9.818983189009277 1.1134582806695923 0.6993868968811645
    vertex -6.824881875783037 0.9833209684545468 0.6994585667477738
    vertex -6.819203943602566 0.9400084877736228 0.6994824200123668
  endloop
endfacet
facet normal -1.3693646653109394e-14 0.0005507248819564396 0.9999998483510407
  outer loop
    vertex 9.818983189009277 1.1134582806695923 0.6993868968811645
    vertex -6.819203943602566 0.9400084877736228 0.6994824200123668
    vertex 8.300423446129239 0.011437468300216164 0.6999938072551241
  endloop
endfacet
facet normal -0.0013314926441447246 0.9999989619144516 -0.0005507243937267101
  outer loop
    vertex -6.917743423777593 1.0907879285058029 -0.0006007241443675781
    vertex 9.818983189009277 1.1134582806695923 0.6993868968811645
    vertex 9.81898318900938 1.113072773252256 -0.000612996964520238
  endloop
endfacet
facet normal -0.0013314926441447246 0.9999989619144516 -0.0005507243937267101
  outer loop
    vertex 9.818983189009277 1.1134582806695923 0.6993868968811645
    vertex -6.917743423777593 1.0907879285058029 -0.0006007241443675781
    vertex -6.917743423777697 1.0911734359231384 0.6993991697013866
  endloop
endfacet
endsolid working_stargate_mk2_ring_7
Working Stargate Mk2
www.glitch.org.uk