solid working_stargate_mk2_ring_5
facet normal -0.08367784333232976 0.9964928592495033 2.081307607550991e-13
  outer loop
    vertex -15.40229411166923 2.1262159045545443 1.5999999999998622
    vertex -11.026874252250328 2.4936301756268784 -1.2327891580874394e-13
    vertex -15.402294111669349 2.126215904554865 -1.8980683456319004e-13
  endloop
endfacet
facet normal -0.08367784333232976 0.9964928592495033 2.081307607550991e-13
  outer loop
    vertex -11.026874252250328 2.4936301756268784 -1.2327891580874394e-13
    vertex -15.40229411166923 2.1262159045545443 1.5999999999998622
    vertex -11.026874252250114 2.4936301756265506 1.5999999999999517
  endloop
endfacet
facet normal 1.5786958216670956e-14 5.905447254163543e-15 1.0
  outer loop
    vertex -6.644719450775521 2.7693319868152506 1.599999999999766
    vertex -2.2189257296179683 2.954013697796004 1.5999999999999286
    vertex -2.2577518651713326 2.9532004061945267 1.5999999999998364
  endloop
endfacet
facet normal 1.5786958216670956e-14 5.905447254163543e-15 1.0
  outer loop
    vertex -1.2348075744154985 12.016647145982187 1.5999999999994934
    vertex 3.075041923945582 13.896350412455204 1.5999999999995742
    vertex -0.19134158652869546 13.858048284049056 1.5999999999995362
  endloop
endfacet
facet normal 1.5786958216670956e-14 5.905447254163543e-15 1.0
  outer loop
    vertex 3.075041923945582 13.896350412455204 1.5999999999995742
    vertex -1.2348075744154985 12.016647145982187 1.5999999999994934
    vertex 4.1614001756409165 12.079923929460591 1.5999999999996262
  endloop
endfacet
facet normal 1.5786958216670956e-14 5.905447254163543e-15 1.0
  outer loop
    vertex 4.1614001756409165 12.079923929460591 1.5999999999996262
    vertex -1.2348075744154985 12.016647145982187 1.5999999999994934
    vertex -2.0662942367221455 10.074846375880837 1.5999999999996817
  endloop
endfacet
facet normal 1.5786958216670956e-14 5.905447254163543e-15 1.0
  outer loop
    vertex 4.1614001756409165 12.079923929460591 1.5999999999996262
    vertex -2.0662942367221455 10.074846375880837 1.5999999999996817
    vertex 5.038191669364369 10.158154698545655 1.5999999999995207
  endloop
endfacet
facet normal 1.5786958216670956e-14 5.905447254163543e-15 1.0
  outer loop
    vertex 5.038191669364369 10.158154698545655 1.5999999999995207
    vertex -2.0662942367221455 10.074846375880837 1.5999999999996817
    vertex -2.525148472079065 8.497293723742002 1.5999999999996273
  endloop
endfacet
facet normal 1.5786958216670956e-14 5.905447254163543e-15 1.0
  outer loop
    vertex 5.038191669364369 10.158154698545655 1.5999999999995207
    vertex -2.525148472079065 8.497293723742002 1.5999999999996273
    vertex 5.533911910683891 8.591795537330396 1.5999999999995267
  endloop
endfacet
facet normal 1.5786958216670956e-14 5.905447254163543e-15 1.0
  outer loop
    vertex 5.533911910683891 8.591795537330396 1.5999999999995267
    vertex -2.525148472079065 8.497293723742002 1.5999999999996273
    vertex -2.7144820394964357 7.339141385213756 1.5999999999997232
  endloop
endfacet
facet normal 1.5786958216670956e-14 5.905447254163543e-15 1.0
  outer loop
    vertex 5.533911910683891 8.591795537330396 1.5999999999995267
    vertex -2.7144820394964357 7.339141385213756 1.5999999999997232
    vertex 5.750351037333709 7.438401353434498 1.5999999999995724
  endloop
endfacet
facet normal 1.5786958216670956e-14 5.905447254163543e-15 1.0
  outer loop
    vertex 5.750351037333709 7.438401353434498 1.5999999999995724
    vertex -2.7144820394964357 7.339141385213756 1.5999999999997232
    vertex -2.744460341274419 6.635653659648584 1.5999999999997387
  endloop
endfacet
facet normal 1.5786958216670956e-14 5.905447254163543e-15 1.0
  outer loop
    vertex 5.750351037333709 7.438401353434498 1.5999999999995724
    vertex -2.744460341274419 6.635653659648584 1.5999999999997387
    vertex 5.796817243909076 6.735810028235799 1.5999999999996333
  endloop
endfacet
facet normal 1.5786958216670956e-14 5.905447254163543e-15 1.0
  outer loop
    vertex 5.796817243909076 6.735810028235799 1.5999999999996333
    vertex -2.744460341274419 6.635653659648584 1.5999999999997387
    vertex -2.2189257296179683 2.954013697796004 1.5999999999999286
  endloop
endfacet
facet normal 1.5786958216670956e-14 5.905447254163543e-15 1.0
  outer loop
    vertex 5.796817243909076 6.735810028235799 1.5999999999996333
    vertex -2.2189257296179683 2.954013697796004 1.5999999999999286
    vertex 5.358031186212778 3.045154782998448 1.6000000000002943
  endloop
endfacet
facet normal 1.5786958216670956e-14 5.905447254163543e-15 1.0
  outer loop
    vertex 5.358031186212778 3.045154782998448 1.6000000000002943
    vertex -2.2189257296179683 2.954013697796004 1.5999999999999286
    vertex -6.644719450775521 2.7693319868152506 1.599999999999766
  endloop
endfacet
facet normal 1.5786958216670956e-14 5.905447254163543e-15 1.0
  outer loop
    vertex 5.358031186212778 3.045154782998448 1.6000000000002943
    vertex -6.644719450775521 2.7693319868152506 1.599999999999766
    vertex -11.026874252250114 2.4936301756265506 1.5999999999999517
  endloop
endfacet
facet normal 1.5786958216670956e-14 5.905447254163543e-15 1.0
  outer loop
    vertex 5.358031186212778 3.045154782998448 1.6000000000002943
    vertex -11.026874252250114 2.4936301756265506 1.5999999999999517
    vertex 6.522923315530262 3.0451547829984467 1.5999999999997752
  endloop
endfacet
facet normal 1.5786958216670956e-14 5.905447254163543e-15 1.0
  outer loop
    vertex 6.522923315530262 3.0451547829984467 1.5999999999997752
    vertex -11.026874252250114 2.4936301756265506 1.5999999999999517
    vertex -15.40229411166923 2.1262159045545443 1.5999999999998622
  endloop
endfacet
facet normal 1.5786958216670956e-14 5.905447254163543e-15 1.0
  outer loop
    vertex 6.522923315530262 3.0451547829984467 1.5999999999997752
    vertex -15.40229411166923 2.1262159045545443 1.5999999999998622
    vertex 10.912779416288977 2.953200406194449 1.5999999999997359
  endloop
endfacet
facet normal 1.5786958216670956e-14 5.905447254163543e-15 1.0
  outer loop
    vertex 10.912779416288977 2.953200406194449 1.5999999999997359
    vertex -15.40229411166923 2.1262159045545443 1.5999999999998622
    vertex -19.76905982527202 1.667250333642007 1.6000000000000747
  endloop
endfacet
facet normal 1.5786958216670956e-14 5.905447254163543e-15 1.0
  outer loop
    vertex 10.912779416288977 2.953200406194449 1.5999999999997359
    vertex -19.76905982527202 1.667250333642007 1.6000000000000747
    vertex 15.299747001892603 2.769331986815164 1.599999999999745
  endloop
endfacet
facet normal 1.5786958216670956e-14 5.905447254163543e-15 1.0
  outer loop
    vertex 15.299747001892603 2.769331986815164 1.599999999999745
    vertex -19.76905982527202 1.667250333642007 1.6000000000000747
    vertex -24.125255985295446 1.1169347803569096 1.5999999999999888
  endloop
endfacet
facet normal 1.5786958216670956e-14 5.905447254163543e-15 1.0
  outer loop
    vertex 15.299747001892603 2.769331986815164 1.599999999999745
    vertex -24.125255985295446 1.1169347803569096 1.5999999999999888
    vertex 19.68190180336726 2.493630175626405 1.5999999999996635
  endloop
endfacet
facet normal 1.5786958216670956e-14 5.905447254163543e-15 1.0
  outer loop
    vertex 19.68190180336726 2.493630175626405 1.5999999999996635
    vertex -24.125255985295446 1.1169347803569096 1.5999999999999888
    vertex -28.4689718201278 0.47551063128944776 1.6000000000001822
  endloop
endfacet
facet normal 1.5786958216670956e-14 5.905447254163543e-15 1.0
  outer loop
    vertex 19.68190180336726 2.493630175626405 1.5999999999996635
    vertex -28.4689718201278 0.47551063128944776 1.6000000000001822
    vertex 24.057321662786098 2.1262159045543827 1.5999999999995842
  endloop
endfacet
facet normal 1.5786958216670956e-14 5.905447254163543e-15 1.0
  outer loop
    vertex 24.057321662786098 2.1262159045543827 1.5999999999995842
    vertex -28.4689718201278 0.47551063128944776 1.6000000000001822
    vertex -32.79830203244481 -0.25674076372973736 1.6000000000000305
  endloop
endfacet
facet normal 1.5786958216670956e-14 5.905447254163543e-15 1.0
  outer loop
    vertex 24.057321662786098 2.1262159045543827 1.5999999999995842
    vertex -32.79830203244481 -0.25674076372973736 1.6000000000000305
    vertex 28.42408737639046 1.667250333641874 1.599999999999784
  endloop
endfacet
facet normal 1.5786958216670956e-14 5.905447254163543e-15 1.0
  outer loop
    vertex 28.42408737639046 1.667250333641874 1.599999999999784
    vertex -32.79830203244481 -0.25674076372973736 1.6000000000000305
    vertex -36.951166754214256 -1.0489420778407341 1.6000000000002714
  endloop
endfacet
facet normal 1.5786958216670956e-14 5.905447254163543e-15 1.0
  outer loop
    vertex 28.42408737639046 1.667250333641874 1.599999999999784
    vertex -36.951166754214256 -1.0489420778407341 1.6000000000002714
    vertex 32.780283536412504 1.1169347803568188 1.5999999999994545
  endloop
endfacet
facet normal 1.5786958216670956e-14 5.905447254163543e-15 1.0
  outer loop
    vertex 32.780283536412504 1.1169347803568188 1.5999999999994545
    vertex -36.951166754214256 -1.0489420778407341 1.6000000000002714
    vertex -2.163519587936585 -0.04531927490262116 1.6000000000000154
  endloop
endfacet
facet normal 1.5786958216670956e-14 5.905447254163543e-15 1.0
  outer loop
    vertex -2.163519587936585 -0.04531927490262116 1.6000000000000154
    vertex -36.951166754214256 -1.0489420778407341 1.6000000000002714
    vertex -6.487711582045812 -0.22655661744834746 1.6000000000000139
  endloop
endfacet
facet normal 1.5786958216670956e-14 5.905447254163543e-15 1.0
  outer loop
    vertex -6.487711582045812 -0.22655661744834746 1.6000000000000139
    vertex -36.951166754214256 -1.0489420778407341 1.6000000000002714
    vertex -10.80715966086683 -0.49831325604680937 1.5999999999998524
  endloop
endfacet
facet normal 1.5786958216670956e-14 5.905447254163543e-15 1.0
  outer loop
    vertex -10.80715966086683 -0.49831325604680937 1.5999999999998524
    vertex -36.951166754214256 -1.0489420778407341 1.6000000000002714
    vertex -15.119969171712588 -0.8604699892545389 1.59999999999997
  endloop
endfacet
facet normal 1.5786958216670956e-14 5.905447254163543e-15 1.0
  outer loop
    vertex -15.119969171712588 -0.8604699892545389 1.59999999999997
    vertex -36.951166754214256 -1.0489420778407341 1.6000000000002714
    vertex -19.42424837379288 -1.3128679631590643 1.5999999999999277
  endloop
endfacet
facet normal 1.5786958216670956e-14 5.905447254163543e-15 1.0
  outer loop
    vertex -19.42424837379288 -1.3128679631590643 1.5999999999999277
    vertex -36.951166754214256 -1.0489420778407341 1.6000000000002714
    vertex -23.71810926799089 -1.85530874105722 1.5999999999999797
  endloop
endfacet
facet normal 1.5786958216670956e-14 5.905447254163543e-15 1.0
  outer loop
    vertex -23.71810926799089 -1.85530874105722 1.5999999999999797
    vertex -36.951166754214256 -1.0489420778407341 1.6000000000002714
    vertex -27.99966842500662 -2.487554390495863 1.6000000000000796
  endloop
endfacet
facet normal 1.5786958216670956e-14 5.905447254163543e-15 1.0
  outer loop
    vertex -27.99966842500662 -2.487554390495863 1.6000000000000796
    vertex -36.951166754214256 -1.0489420778407341 1.6000000000002714
    vertex -32.26704781148491 -3.2093275876372416 1.6000000000002044
  endloop
endfacet
facet normal 1.5786958216670956e-14 5.905447254163543e-15 1.0
  outer loop
    vertex -32.26704781148491 -3.2093275876372416 1.6000000000002044
    vertex -36.951166754214256 -1.0489420778407341 1.6000000000002714
    vertex -34.60322378835975 -3.6549769894040343 1.6000000000003978
  endloop
endfacet
facet normal 1.5786958216670956e-14 5.905447254163543e-15 1.0
  outer loop
    vertex 32.780283536412504 1.1169347803568188 1.5999999999994545
    vertex 2.1635195879369142 0.04531927490197288 1.5999999999998804
    vertex 37.123999371245176 0.4755106312892182 1.5999999999998666
  endloop
endfacet
facet normal 1.5786958216670956e-14 5.905447254163543e-15 1.0
  outer loop
    vertex 2.1635195879369142 0.04531927490197288 1.5999999999998804
    vertex 32.780283536412504 1.1169347803568188 1.5999999999994545
    vertex -2.163519587936585 -0.04531927490262116 1.6000000000000154
  endloop
endfacet
facet normal 1.5786958216670956e-14 5.905447254163543e-15 1.0
  outer loop
    vertex 37.123999371245176 0.4755106312892182 1.5999999999998666
    vertex 2.1635195879369142 0.04531927490197288 1.5999999999998804
    vertex 6.491507963181872 0.045319274901944005 1.5999999999999093
  endloop
endfacet
facet normal 1.5786958216670956e-14 5.905447254163543e-15 1.0
  outer loop
    vertex 37.123999371245176 0.4755106312892182 1.5999999999998666
    vertex 6.491507963181872 0.045319274901944005 1.5999999999999093
    vertex 10.818547139054767 -0.04531927490269624 1.5999999999998014
  endloop
endfacet
facet normal 1.5786958216670956e-14 5.905447254163543e-15 1.0
  outer loop
    vertex 37.123999371245176 0.4755106312892182 1.5999999999998666
    vertex 10.818547139054767 -0.04531927490269624 1.5999999999998014
    vertex 15.14273913316423 -0.2265566174485539 1.5999999999997647
  endloop
endfacet
facet normal 1.5786958216670956e-14 5.905447254163543e-15 1.0
  outer loop
    vertex 37.123999371245176 0.4755106312892182 1.5999999999998666
    vertex 15.14273913316423 -0.2265566174485539 1.5999999999997647
    vertex 41.16961134728084 -0.2087534160063483 1.5999999999968402
  endloop
endfacet
facet normal 1.5786958216670956e-14 5.905447254163543e-15 1.0
  outer loop
    vertex 41.16961134728084 -0.2087534160063483 1.5999999999968402
    vertex 15.14273913316423 -0.2265566174485539 1.5999999999997647
    vertex 19.462187211985658 -0.4983132560469913 1.5999999999995913
  endloop
endfacet
facet normal 1.5786958216670956e-14 5.905447254163543e-15 1.0
  outer loop
    vertex 41.16961134728084 -0.2087534160063483 1.5999999999968402
    vertex 19.462187211985658 -0.4983132560469913 1.5999999999995913
    vertex 23.77499672283145 -0.8604699892548103 1.5999999999997434
  endloop
endfacet
facet normal 1.5786958216670956e-14 5.905447254163543e-15 1.0
  outer loop
    vertex 41.16961134728084 -0.2087534160063483 1.5999999999968402
    vertex 23.77499672283145 -0.8604699892548103 1.5999999999997434
    vertex 28.079275924912356 -1.312867963159356 1.599999999999551
  endloop
endfacet
facet normal 1.5786958216670956e-14 5.905447254163543e-15 1.0
  outer loop
    vertex 41.16961134728084 -0.2087534160063483 1.5999999999968402
    vertex 28.079275924912356 -1.312867963159356 1.599999999999551
    vertex 32.37313681911036 -1.8553087410574771 1.5999999999998227
  endloop
endfacet
facet normal 1.5786958216670956e-14 5.905447254163543e-15 1.0
  outer loop
    vertex 41.16961134728084 -0.2087534160063483 1.5999999999968402
    vertex 32.37313681911036 -1.8553087410574771 1.5999999999998227
    vertex 36.65469597612487 -2.4875543904962125 1.599999999999565
  endloop
endfacet
facet normal 1.5786958216670956e-14 5.905447254163543e-15 1.0
  outer loop
    vertex 41.16961134728084 -0.2087534160063483 1.5999999999968402
    vertex 36.65469597612487 -2.4875543904962125 1.599999999999565
    vertex 40.319335180614196 -3.1073817166943134 1.5999999999974417
  endloop
endfacet
facet normal 0.06279051952930925 0.9980267284282719 1.9623082077195358e-13
  outer loop
    vertex 15.299747001892603 2.769331986815164 1.599999999999745
    vertex 19.681901803367147 2.4936301756267225 -2.4988147153888677e-13
    vertex 15.299747001892303 2.7693319868154904 -3.5327375487053463e-13
  endloop
endfacet
facet normal 0.06279051952930925 0.9980267284282719 1.9623082077195358e-13
  outer loop
    vertex 19.681901803367147 2.4936301756267225 -2.4988147153888677e-13
    vertex 15.299747001892603 2.769331986815164 1.599999999999745
    vertex 19.68190180336726 2.493630175626405 1.5999999999996635
  endloop
endfacet
facet normal -0.0418756537292203 -0.9991228300988575 -1.9818813759295235e-13
  outer loop
    vertex 15.142739133164207 -0.2265566174482074 -2.6428954252424724e-13
    vertex 10.818547139054767 -0.04531927490269624 1.5999999999998014
    vertex 10.818547139054651 -0.04531927490237571 -1.582846203933019e-13
  endloop
endfacet
facet normal -0.0418756537292203 -0.9991228300988575 -1.9818813759295235e-13
  outer loop
    vertex 10.818547139054767 -0.04531927490269624 1.5999999999998014
    vertex 15.142739133164207 -0.2265566174482074 -2.6428954252424724e-13
    vertex 15.14273913316423 -0.2265566174485539 1.5999999999997647
  endloop
endfacet
facet normal 0.0418756537292148 0.9991228300988578 1.9819160703990435e-13
  outer loop
    vertex 10.912779416288977 2.953200406194449 1.5999999999997359
    vertex 15.299747001892303 2.7693319868154904 -3.5327375487053463e-13
    vertex 10.912779416288855 2.9532004061947696 -2.236348617129792e-13
  endloop
endfacet
facet normal 0.0418756537292148 0.9991228300988578 1.9819160703990435e-13
  outer loop
    vertex 15.299747001892303 2.7693319868154904 -3.5327375487053463e-13
    vertex 10.912779416288977 2.953200406194449 1.5999999999997359
    vertex 15.299747001892603 2.769331986815164 1.599999999999745
  endloop
endfacet
facet normal -2.8241298188881448e-15 1.0 2.018618959829797e-13
  outer loop
    vertex 5.358031186212778 3.045154782998448 1.6000000000002943
    vertex 6.52292331553014 3.045154782998779 -2.305997710312517e-13
    vertex 5.35803118621257 3.045154782998764 2.885625100333833e-13
  endloop
endfacet
facet normal -2.8241298188881448e-15 1.0 2.018618959829797e-13
  outer loop
    vertex 6.52292331553014 3.045154782998779 -2.305997710312517e-13
    vertex 5.358031186212778 3.045154782998448 1.6000000000002943
    vertex 6.522923315530262 3.0451547829984467 1.5999999999997752
  endloop
endfacet
facet normal 0.20791169081775346 -0.9781476007338069 -2.147961332323072e-13
  outer loop
    vertex -36.51837561378991 -4.020311738901993 2.5609320699516337e-13
    vertex -38.1905401951646 -4.375741292865712 1.6000000000004007
    vertex -38.19054019516468 -4.3757412928653885 3.949396488564874e-13
  endloop
endfacet
facet normal 0.20791169081775346 -0.9781476007338069 -2.147961332323072e-13
  outer loop
    vertex -38.1905401951646 -4.375741292865712 1.6000000000004007
    vertex -36.51837561378991 -4.020311738901993 2.5609320699516337e-13
    vertex -36.51837561378988 -4.020311738902328 1.6000000000002388
  endloop
endfacet
facet normal 0.0418756537291926 -0.9991228300988588 -2.0517562231987336e-13
  outer loop
    vertex -2.1635195879367988 -0.04531927490229196 5.600275381385822e-14
    vertex -6.487711582045812 -0.22655661744834746 1.6000000000000139
    vertex -6.487711582045934 -0.2265566174480269 5.4294735926241986e-14
  endloop
endfacet
facet normal 0.0418756537291926 -0.9991228300988588 -2.0517562231987336e-13
  outer loop
    vertex -6.487711582045812 -0.22655661744834746 1.6000000000000139
    vertex -2.1635195879367988 -0.04531927490229196 5.600275381385822e-14
    vertex -2.163519587936585 -0.04531927490262116 1.6000000000000154
  endloop
endfacet
facet normal 0.16676874671609968 -0.9859960370705053 -2.1293604111617765e-13
  outer loop
    vertex -27.999668425006735 -2.487554390495531 9.695967807745712e-14
    vertex -32.26704781148491 -3.2093275876372416 1.6000000000002044
    vertex -32.26704781148502 -3.209327587636924 2.6804747619573927e-13
  endloop
endfacet
facet normal 0.16676874671609968 -0.9859960370705053 -2.1293604111617765e-13
  outer loop
    vertex -32.26704781148491 -3.2093275876372416 1.6000000000002044
    vertex -27.999668425006735 -2.487554390495531 9.695967807745712e-14
    vertex -27.99966842500662 -2.487554390495863 1.6000000000000796
  endloop
endfacet
facet normal 0.10452846326763357 -0.9945218953682755 -2.0947003797748798e-13
  outer loop
    vertex -15.11996917171289 -0.8604699892542241 7.966415532801069e-14
    vertex -19.42424837379288 -1.3128679631590643 1.5999999999999277
    vertex -19.424248373793 -1.3128679631587439 -1.2431158830271187e-13
  endloop
endfacet
facet normal 0.10452846326763357 -0.9945218953682755 -2.0947003797748798e-13
  outer loop
    vertex -19.42424837379288 -1.3128679631590643 1.5999999999999277
    vertex -15.11996917171289 -0.8604699892542241 7.966415532801069e-14
    vertex -15.119969171712588 -0.8604699892545389 1.59999999999997
  endloop
endfacet
facet normal -7.611966612588326e-15 -1.0 -2.0186189598297966e-13
  outer loop
    vertex 6.491507963181659 0.04531927490226164 -1.196086692387859e-13
    vertex 2.1635195879369142 0.04531927490197288 1.5999999999998804
    vertex 2.163519587936793 0.045319274902293406 -5.5873991910986526e-14
  endloop
endfacet
facet normal -7.611966612588326e-15 -1.0 -2.0186189598297966e-13
  outer loop
    vertex 2.1635195879369142 0.04531927490197288 1.5999999999998804
    vertex 6.491507963181659 0.04531927490226164 -1.196086692387859e-13
    vertex 6.491507963181872 0.045319274901944005 1.5999999999999093
  endloop
endfacet
facet normal 0.020942419883358036 0.9997806834748456 2.0006808068178016e-13
  outer loop
    vertex 6.522923315530262 3.0451547829984467 1.5999999999997752
    vertex 10.912779416288855 2.9532004061947696 -2.236348617129792e-13
    vertex 6.52292331553014 3.045154782998779 -2.305997710312517e-13
  endloop
endfacet
facet normal 0.020942419883358036 0.9997806834748456 2.0006808068178016e-13
  outer loop
    vertex 10.912779416288855 2.9532004061947696 -2.236348617129792e-13
    vertex 6.522923315530262 3.0451547829984467 1.5999999999997752
    vertex 10.912779416288977 2.953200406194449 1.5999999999997359
  endloop
endfacet
facet normal 0.020942419883342563 -0.9997806834748458 -2.0356082536970083e-13
  outer loop
    vertex 2.163519587936793 0.045319274902293406 -5.5873991910986526e-14
    vertex -2.163519587936585 -0.04531927490262116 1.6000000000000154
    vertex -2.1635195879367988 -0.04531927490229196 5.600275381385822e-14
  endloop
endfacet
facet normal 0.020942419883342563 -0.9997806834748458 -2.0356082536970083e-13
  outer loop
    vertex -2.163519587936585 -0.04531927490262116 1.6000000000000154
    vertex 2.163519587936793 0.045319274902293406 -5.5873991910986526e-14
    vertex 2.1635195879369142 0.04531927490197288 1.5999999999998804
  endloop
endfacet
facet normal 0.12533323356431803 -0.9921147013144762 -2.107226206434994e-13
  outer loop
    vertex -19.424248373793 -1.3128679631587439 -1.2431158830271187e-13
    vertex -23.71810926799089 -1.85530874105722 1.5999999999999797
    vertex -23.718109267991007 -1.8553087410568996 2.006817783016119e-14
  endloop
endfacet
facet normal 0.12533323356431803 -0.9921147013144762 -2.107226206434994e-13
  outer loop
    vertex -23.71810926799089 -1.85530874105722 1.5999999999999797
    vertex -19.424248373793 -1.3128679631587439 -1.2431158830271187e-13
    vertex -19.42424837379288 -1.3128679631590643 1.5999999999999277
  endloop
endfacet
facet normal 0.06279051952931805 -0.9980267284282712 -2.0669806277792161e-13
  outer loop
    vertex -6.487711582045934 -0.2265566174480269 5.4294735926241986e-14
    vertex -10.80715966086683 -0.49831325604680937 1.5999999999998524
    vertex -10.807159660866953 -0.49831325604647725 -8.41187276750784e-14
  endloop
endfacet
facet normal 0.06279051952931805 -0.9980267284282712 -2.0669806277792161e-13
  outer loop
    vertex -10.80715966086683 -0.49831325604680937 1.5999999999998524
    vertex -6.487711582045934 -0.2265566174480269 5.4294735926241986e-14
    vertex -6.487711582045812 -0.22655661744834746 1.6000000000000139
  endloop
endfacet
facet normal -0.0836778433323404 -0.9964928592495024 -1.9417538986847177e-13
  outer loop
    vertex 23.77499672283106 -0.8604699892544754 -1.930983051095901e-13
    vertex 19.462187211985658 -0.4983132560469913 1.5999999999995913
    vertex 19.46218721198545 -0.4983132560466852 -3.683038408981424e-13
  endloop
endfacet
facet normal -0.0836778433323404 -0.9964928592495024 -1.9417538986847177e-13
  outer loop
    vertex 19.462187211985658 -0.4983132560469913 1.5999999999995913
    vertex 23.77499672283106 -0.8604699892544754 -1.930983051095901e-13
    vertex 23.77499672283145 -0.8604699892548103 1.5999999999997434
  endloop
endfacet
facet normal 0.08367784333231228 -0.9964928592495046 -2.081307607550989e-13
  outer loop
    vertex -10.807159660866953 -0.49831325604647725 -8.41187276750784e-14
    vertex -15.119969171712588 -0.8604699892545389 1.59999999999997
    vertex -15.11996917171289 -0.8604699892542241 7.966415532801069e-14
  endloop
endfacet
facet normal 0.08367784333231228 -0.9964928592495046 -2.081307607550989e-13
  outer loop
    vertex -15.119969171712588 -0.8604699892545389 1.59999999999997
    vertex -10.807159660866953 -0.49831325604647725 -8.41187276750784e-14
    vertex -10.80715966086683 -0.49831325604680937 1.5999999999998524
  endloop
endfacet
facet normal 0.14608302856238892 -0.9892723329629917 -2.1187452286725729e-13
  outer loop
    vertex -23.718109267991007 -1.8553087410568996 2.006817783016119e-14
    vertex -27.99966842500662 -2.487554390495863 1.6000000000000796
    vertex -27.999668425006735 -2.487554390495531 9.695967807745712e-14
  endloop
endfacet
facet normal 0.14608302856238892 -0.9892723329629917 -2.1187452286725729e-13
  outer loop
    vertex -27.99966842500662 -2.487554390495863 1.6000000000000796
    vertex -23.718109267991007 -1.8553087410568996 2.006817783016119e-14
    vertex -23.71810926799089 -1.85530874105722 1.5999999999999797
  endloop
endfacet
facet normal 0.1873813145787968 -0.9822872507300103 -7.455911315599335e-13
  outer loop
    vertex -36.3861839406465 -3.995094828601532 5.084227978457808e-13
    vertex -36.38618394064639 -3.9950948286014945 1.5601828590741942
    vertex -36.38618394064595 -3.9950948286067876 1.5399999999511607
  endloop
endfacet
facet normal 0.1873813145787968 -0.9822872507300103 -7.455911315599335e-13
  outer loop
    vertex -36.51837561378991 -4.020311738901993 2.5609320699516337e-13
    vertex -36.51837561378988 -4.020311738902328 1.6000000000002388
    vertex -36.3861839406465 -3.995094828601532 5.084227978457808e-13
  endloop
endfacet
facet normal 0.1873813145787968 -0.9822872507300103 -7.455911315599335e-13
  outer loop
    vertex -36.38618394064638 -3.995094828601853 1.600000000000468
    vertex -36.3861839406465 -3.995094828601532 5.084227978457808e-13
    vertex -36.51837561378988 -4.020311738902328 1.6000000000002388
  endloop
endfacet
facet normal 0.1873813145787968 -0.9822872507300103 -7.455911315599335e-13
  outer loop
    vertex -36.38618394064639 -3.9950948286014945 1.5601828590741942
    vertex -36.3861839406465 -3.995094828601532 5.084227978457808e-13
    vertex -36.38618394064638 -3.995094828601853 1.600000000000468
  endloop
endfacet
facet normal 0.18738131458626536 -0.9822872507285856 3.091966854451251e-14
  outer loop
    vertex -34.60322378835987 -3.6549769894037136 4.15067666083329e-13
    vertex -36.38618394064595 -3.9950948286067876 1.5399999999511607
    vertex -36.3861839406465 -3.995094828601532 5.084227978457808e-13
  endloop
endfacet
facet normal 0.18738131458626536 -0.9822872507285856 3.091966854451251e-14
  outer loop
    vertex -36.38618394064595 -3.9950948286067876 1.5399999999511607
    vertex -36.38618394064638 -3.995094828601853 1.600000000000468
    vertex -36.38618394064639 -3.9950948286014945 1.5601828590741942
  endloop
endfacet
facet normal 0.18738131458626536 -0.9822872507285856 3.091966854451251e-14
  outer loop
    vertex -36.38618394064638 -3.995094828601853 1.600000000000468
    vertex -36.38618394064595 -3.9950948286067876 1.5399999999511607
    vertex -36.38618394064619 -3.995094828601454 3.2401828590736272
  endloop
endfacet
facet normal 0.18738131458626536 -0.9822872507285856 3.091966854451251e-14
  outer loop
    vertex -36.38618394064619 -3.995094828601454 3.2401828590736272
    vertex -36.38618394064595 -3.9950948286067876 1.5399999999511607
    vertex -34.60322378835966 -3.654976989403627 3.2401828590735104
  endloop
endfacet
facet normal 0.18738131458626536 -0.9822872507285856 3.091966854451251e-14
  outer loop
    vertex -34.60322378835966 -3.654976989403627 3.2401828590735104
    vertex -36.38618394064595 -3.9950948286067876 1.5399999999511607
    vertex -34.60322378835987 -3.6549769894037136 4.15067666083329e-13
  endloop
endfacet
facet normal 0.18738131458626536 -0.9822872507285856 3.091966854451251e-14
  outer loop
    vertex -34.60322378835966 -3.654976989403627 3.2401828590735104
    vertex -34.60322378835987 -3.6549769894037136 4.15067666083329e-13
    vertex -34.60322378835975 -3.6549769894040343 1.6000000000003978
  endloop
endfacet
facet normal 0.18738131458571644 -0.9822872507286904 -2.109493562639744e-13
  outer loop
    vertex -32.26704781148502 -3.209327587636924 2.6804747619573927e-13
    vertex -34.60322378835975 -3.6549769894040343 1.6000000000003978
    vertex -34.60322378835987 -3.6549769894037136 4.15067666083329e-13
  endloop
endfacet
facet normal 0.18738131458571644 -0.9822872507286904 -2.109493562639744e-13
  outer loop
    vertex -34.60322378835975 -3.6549769894040343 1.6000000000003978
    vertex -32.26704781148502 -3.209327587636924 2.6804747619573927e-13
    vertex -32.26704781148491 -3.2093275876372416 1.6000000000002044
  endloop
endfacet
facet normal -0.020942419883353505 -0.9997806834748456 -2.000680806817802e-13
  outer loop
    vertex 10.818547139054651 -0.04531927490237571 -1.582846203933019e-13
    vertex 6.491507963181872 0.045319274901944005 1.5999999999999093
    vertex 6.491507963181659 0.04531927490226164 -1.196086692387859e-13
  endloop
endfacet
facet normal -0.020942419883353505 -0.9997806834748456 -2.000680806817802e-13
  outer loop
    vertex 6.491507963181872 0.045319274901944005 1.5999999999999093
    vertex 10.818547139054651 -0.04531927490237571 -1.582846203933019e-13
    vertex 10.818547139054767 -0.04531927490269624 1.5999999999998014
  endloop
endfacet
facet normal -0.7429380185781496 -0.6693602173353099 -7.311340311438865e-14
  outer loop
    vertex -38.1905401951646 -4.375741292865712 1.6000000000004007
    vertex -40.50955871422391 -1.8018102778811387 4.0757693422546187e-13
    vertex -38.19054019516468 -4.3757412928653885 3.949396488564874e-13
  endloop
endfacet
facet normal -0.7429380185781496 -0.6693602173353099 -7.311340311438865e-14
  outer loop
    vertex -40.50955871422391 -1.8018102778811387 4.0757693422546187e-13
    vertex -38.1905401951646 -4.375741292865712 1.6000000000004007
    vertex -40.509558714223836 -1.8018102778814564 1.6000000000004364
  endloop
endfacet
facet normal 8.233709992259805e-15 7.619842386422651e-15 1.0
  outer loop
    vertex -40.509558714223836 -1.8018102778814564 1.6000000000004364
    vertex -36.38618394064638 -3.995094828601853 1.600000000000468
    vertex -38.70738116871883 -1.4187456152899287 1.6000000000003651
  endloop
endfacet
facet normal 8.233709992259805e-15 7.619842386422651e-15 1.0
  outer loop
    vertex -36.38618394064638 -3.995094828601853 1.600000000000468
    vertex -40.509558714223836 -1.8018102778814564 1.6000000000004364
    vertex -36.51837561378988 -4.020311738902328 1.6000000000002388
  endloop
endfacet
facet normal 8.233709992259805e-15 7.619842386422651e-15 1.0
  outer loop
    vertex -36.51837561378988 -4.020311738902328 1.6000000000002388
    vertex -40.509558714223836 -1.8018102778814564 1.6000000000004364
    vertex -38.1905401951646 -4.375741292865712 1.6000000000004007
  endloop
endfacet
facet normal -0.06279051952931822 -0.9980267284282713 -1.9623429021890545e-13
  outer loop
    vertex 19.46218721198545 -0.4983132560466852 -3.683038408981424e-13
    vertex 15.14273913316423 -0.2265566174485539 1.5999999999997647
    vertex 15.142739133164207 -0.2265566174482074 -2.6428954252424724e-13
  endloop
endfacet
facet normal -0.06279051952931822 -0.9980267284282713 -1.9623429021890545e-13
  outer loop
    vertex 15.14273913316423 -0.2265566174485539 1.5999999999997647
    vertex 19.46218721198545 -0.4983132560466852 -3.683038408981424e-13
    vertex 19.462187211985658 -0.4983132560469913 1.5999999999995913
  endloop
endfacet
facet normal -0.20791169081778843 0.9781476007337996 2.1157301701394278e-13
  outer loop
    vertex -40.509558714223836 -1.8018102778814564 1.6000000000004364
    vertex -38.707381168718946 -1.4187456152896083 2.9001689473278673e-13
    vertex -40.50955871422391 -1.8018102778811387 4.0757693422546187e-13
  endloop
endfacet
facet normal -0.20791169081778843 0.9781476007337996 2.1157301701394278e-13
  outer loop
    vertex -38.707381168718946 -1.4187456152896083 2.9001689473278673e-13
    vertex -40.509558714223836 -1.8018102778814564 1.6000000000004364
    vertex -38.70738116871883 -1.4187456152899287 1.6000000000003651
  endloop
endfacet
facet normal -0.2079116908177863 0.9781476007337999 -6.08967641077115e-15
  outer loop
    vertex -37.11134763492797 -1.0794982150368597 3.240182859073479
    vertex -38.70738116871883 -1.4187456152899287 1.6000000000003651
    vertex -38.707381168718825 -1.4187456152895246 3.2401828590733395
  endloop
endfacet
facet normal -0.2079116908177863 0.9781476007337999 -6.08967641077115e-15
  outer loop
    vertex -38.70738116871883 -1.4187456152899287 1.6000000000003651
    vertex -37.11134763492797 -1.0794982150368597 3.240182859073479
    vertex -37.111347634928364 -1.0794982150369552 3.6014360351300615e-13
  endloop
endfacet
facet normal -0.2079116908177863 0.9781476007337999 -6.08967641077115e-15
  outer loop
    vertex -37.111347634928364 -1.0794982150369552 3.6014360351300615e-13
    vertex -38.707381168718946 -1.4187456152896083 2.9001689473278673e-13
    vertex -38.70738116871883 -1.4187456152899287 1.6000000000003651
  endloop
endfacet
facet normal -0.06279051952929798 0.9980267284282727 2.0669860487900768e-13
  outer loop
    vertex -11.026874252250114 2.4936301756265506 1.5999999999999517
    vertex -6.644719450775642 2.769331986815583 -2.3965181448813373e-13
    vertex -11.026874252250328 2.4936301756268784 -1.2327891580874394e-13
  endloop
endfacet
facet normal -0.06279051952929798 0.9980267284282727 2.0669860487900768e-13
  outer loop
    vertex -6.644719450775642 2.769331986815583 -2.3965181448813373e-13
    vertex -11.026874252250114 2.4936301756265506 1.5999999999999517
    vertex -6.644719450775521 2.7693319868152506 1.599999999999766
  endloop
endfacet
facet normal 0.12533323356433876 0.9921147013144735 1.8980516487672806e-13
  outer loop
    vertex 32.780283536412504 1.1169347803568188 1.5999999999994545
    vertex 28.424087376390528 1.6672503336421889 -1.7558443797233884e-13
    vertex 28.42408737639046 1.667250333641874 1.599999999999784
  endloop
endfacet
facet normal 0.12533323356433876 0.9921147013144735 1.8980516487672806e-13
  outer loop
    vertex 28.424087376390528 1.6672503336421889 -1.7558443797233884e-13
    vertex 32.780283536412504 1.1169347803568188 1.5999999999994545
    vertex 32.78028353641221 1.1169347803571334 -5.280677952143932e-13
  endloop
endfacet
facet normal -7.687716069945801e-15 1.6938313958672838e-14 1.0
  outer loop
    vertex -37.11134763492797 -1.0794982150368597 3.240182859073479
    vertex -34.60322378835966 -3.654976989403627 3.2401828590735104
    vertex -36.95116675421407 -1.0489420778403356 3.2401828590735
  endloop
endfacet
facet normal -7.687716069945801e-15 1.6938313958672838e-14 1.0
  outer loop
    vertex -34.60322378835966 -3.654976989403627 3.2401828590735104
    vertex -37.11134763492797 -1.0794982150368597 3.240182859073479
    vertex -38.707381168718825 -1.4187456152895246 3.2401828590733395
  endloop
endfacet
facet normal -7.687716069945801e-15 1.6938313958672838e-14 1.0
  outer loop
    vertex -34.60322378835966 -3.654976989403627 3.2401828590735104
    vertex -38.707381168718825 -1.4187456152895246 3.2401828590733395
    vertex -36.38618394064619 -3.995094828601454 3.2401828590736272
  endloop
endfacet
facet normal -0.1667687467161016 0.9859960370705052 2.129325716692258e-13
  outer loop
    vertex -32.79830203244481 -0.25674076372973736 1.6000000000000305
    vertex -28.46897182012801 0.4755106312897654 2.224717839632121e-13
    vertex -32.79830203244492 -0.25674076372940524 -6.765682628374942e-14
  endloop
endfacet
facet normal -0.1667687467161016 0.9859960370705052 2.129325716692258e-13
  outer loop
    vertex -28.46897182012801 0.4755106312897654 2.224717839632121e-13
    vertex -32.79830203244481 -0.25674076372973736 1.6000000000000305
    vertex -28.4689718201278 0.47551063128944776 1.6000000000001822
  endloop
endfacet
facet normal 0.14608302856240077 0.98927233296299 1.875251970951658e-13
  outer loop
    vertex 32.780283536412504 1.1169347803568188 1.5999999999994545
    vertex 37.12399937124515 0.4755106312895532 -9.303560119269722e-14
    vertex 32.78028353641221 1.1169347803571334 -5.280677952143932e-13
  endloop
endfacet
facet normal 0.14608302856240077 0.98927233296299 1.875251970951658e-13
  outer loop
    vertex 37.12399937124515 0.4755106312895532 -9.303560119269722e-14
    vertex 32.780283536412504 1.1169347803568188 1.5999999999994545
    vertex 37.123999371245176 0.4755106312892182 1.5999999999998666
  endloop
endfacet
facet normal -0.9899650709362194 -0.1413122723837043 5.403233911395995e-14
  outer loop
    vertex -2.218925729617997 2.9540136977963507 1.514107983500669e-14
    vertex -2.744460341274419 6.635653659648584 1.5999999999997387
    vertex -2.7444603412745403 6.635653659648905 -2.438862613642036e-13
  endloop
endfacet
facet normal -0.9899650709362194 -0.1413122723837043 5.403233911395995e-14
  outer loop
    vertex -2.744460341274419 6.635653659648584 1.5999999999997387
    vertex -2.218925729617997 2.9540136977963507 1.514107983500669e-14
    vertex -2.2189257296179683 2.954013697796004 1.5999999999999286
  endloop
endfacet
facet normal 0.9822872507286847 -0.18738131458574545 -1.19953936304735e-13
  outer loop
    vertex 44.787688140311104 -0.8928036762842557 -2.711773014662749e-11
    vertex 44.22557501926293 -3.8395038501710332 1.599999999972818
    vertex 44.22557501926255 -3.8395038501707215 -2.707220242441635e-11
  endloop
endfacet
facet normal 0.9822872507286847 -0.18738131458574545 -1.19953936304735e-13
  outer loop
    vertex 44.22557501926293 -3.8395038501710332 1.599999999972818
    vertex 44.787688140311104 -0.8928036762842557 -2.711773014662749e-11
    vertex 44.78768814031103 -0.8928036762845821 1.5999999999728187
  endloop
endfacet
facet normal -0.04187565372920781 0.999122830098858 2.0517475495813552e-13
  outer loop
    vertex -6.644719450775521 2.7693319868152506 1.599999999999766
    vertex -2.257751865171454 2.953200406194859 -9.998274133021059e-14
    vertex -6.644719450775642 2.769331986815583 -2.3965181448813373e-13
  endloop
endfacet
facet normal -0.04187565372920781 0.999122830098858 2.0517475495813552e-13
  outer loop
    vertex -2.257751865171454 2.953200406194859 -9.998274133021059e-14
    vertex -6.644719450775521 2.7693319868152506 1.599999999999766
    vertex -2.2577518651713326 2.9532004061945267 1.5999999999998364
  endloop
endfacet
facet normal 9.513725917792636e-12 -1.8243751205022817e-12 1.0
  outer loop
    vertex 42.40834360541456 -3.4928484181873376 1.5999999999906618
    vertex 44.78768814031103 -0.8928036762845821 1.5999999999728187
    vertex 42.97045672646248 -0.5461482443010076 1.599999999990801
  endloop
endfacet
facet normal 9.513725917792636e-12 -1.8243751205022817e-12 1.0
  outer loop
    vertex 44.78768814031103 -0.8928036762845821 1.5999999999728187
    vertex 42.40834360541456 -3.4928484181873376 1.5999999999906618
    vertex 44.22557501926293 -3.8395038501710332 1.599999999972818
  endloop
endfacet
facet normal 0.9822872507287715 -0.18738131458529084 -9.190647138543174e-13
  outer loop
    vertex 42.97045672646248 -0.5461482443010076 1.599999999990801
    vertex 42.408343605415965 -3.492848418195928 3.239999999939859
    vertex 42.40834360541456 -3.4928484181873376 1.5999999999906618
  endloop
endfacet
facet normal 0.9822872507287715 -0.18738131458529084 -9.190647138543174e-13
  outer loop
    vertex 42.408343605415965 -3.492848418195928 3.239999999939859
    vertex 42.97045672646248 -0.5461482443010076 1.599999999990801
    vertex 42.970456726487555 -0.546148244197832 3.2399999999387505
  endloop
endfacet
facet normal -0.9868993241779407 0.1613372986544774 1.148813466339895e-13
  outer loop
    vertex -2.7144820394964357 7.339141385213756 1.5999999999997232
    vertex -2.525148472079279 8.497293723742331 -3.552724018625275e-13
    vertex -2.7144820394966493 7.339141385214085 -3.285955779818349e-13
  endloop
endfacet
facet normal -0.9868993241779407 0.1613372986544774 1.148813466339895e-13
  outer loop
    vertex -2.525148472079279 8.497293723742331 -3.552724018625275e-13
    vertex -2.7144820394964357 7.339141385213756 1.5999999999997232
    vertex -2.525148472079065 8.497293723742002 1.5999999999996273
  endloop
endfacet
facet normal -0.8700211030335676 0.49301448282606714 1.7213451166218918e-13
  outer loop
    vertex -1.2348075744154985 12.016647145982187 1.5999999999994934
    vertex -0.19134158652881675 13.858048284049378 -4.69333797308301e-13
    vertex -1.2348075744158105 12.016647145982526 -4.199486645010254e-13
  endloop
endfacet
facet normal -0.8700211030335676 0.49301448282606714 1.7213451166218918e-13
  outer loop
    vertex -0.19134158652881675 13.858048284049378 -4.69333797308301e-13
    vertex -1.2348075744154985 12.016647145982187 1.5999999999994934
    vertex -0.19134158652869546 13.858048284049056 1.5999999999995362
  endloop
endfacet
facet normal -0.16676874671622927 -0.9859960370704836 -2.578083922208243e-12
  outer loop
    vertex 40.92207536260413 -3.2093275876374006 -4.1909187118738426e-13
    vertex 36.65469597612487 -2.4875543904962125 1.599999999999565
    vertex 36.65469597612485 -2.4875543904958777 -4.407472096138032e-13
  endloop
endfacet
facet normal -0.16676874671622927 -0.9859960370704836 -2.578083922208243e-12
  outer loop
    vertex 36.65469597612487 -2.4875543904962125 1.599999999999565
    vertex 40.92207536260413 -3.2093275876374006 -4.1909187118738426e-13
    vertex 40.319335180614196 -3.1073817166943134 1.5999999999974417
  endloop
endfacet
facet normal -0.16676874671622927 -0.9859960370704836 -2.578083922208243e-12
  outer loop
    vertex 40.319335180614196 -3.1073817166943134 1.5999999999974417
    vertex 40.92207536260413 -3.2093275876374006 -4.1909187118738426e-13
    vertex 40.31933518061513 -3.107381716702939 3.239999999946269
  endloop
endfacet
facet normal -0.16676874671622927 -0.9859960370704836 -2.578083922208243e-12
  outer loop
    vertex 40.31933518061513 -3.107381716702939 3.239999999946269
    vertex 40.92207536260413 -3.2093275876374006 -4.1909187118738426e-13
    vertex 40.92207536260536 -3.2093275876463756 3.2399999999488065
  endloop
endfacet
facet normal -0.9602067515722177 0.2792901613647166 1.3655377137380737e-13
  outer loop
    vertex -2.525148472079065 8.497293723742002 1.5999999999996273
    vertex -2.066294236722267 10.074846375881146 -2.5488937808638245e-13
    vertex -2.525148472079279 8.497293723742331 -3.552724018625275e-13
  endloop
endfacet
facet normal -0.9602067515722177 0.2792901613647166 1.3655377137380737e-13
  outer loop
    vertex -2.066294236722267 10.074846375881146 -2.5488937808638245e-13
    vertex -2.525148472079065 8.497293723742002 1.5999999999996273
    vertex -2.0662942367221455 10.074846375880837 1.5999999999996817
  endloop
endfacet
facet normal 0.9828447456609815 0.18443482839908715 -4.4738702060978015e-14
  outer loop
    vertex 5.533911910683891 8.591795537330396 1.5999999999995267
    vertex 5.750351037333588 7.438401353434819 -4.102020429467641e-13
    vertex 5.533911910683769 8.591795537330716 -4.560681210734358e-13
  endloop
endfacet
facet normal 0.9828447456609815 0.18443482839908715 -4.4738702060978015e-14
  outer loop
    vertex 5.750351037333588 7.438401353434819 -4.102020429467641e-13
    vertex 5.533911910683891 8.591795537330396 1.5999999999995267
    vertex 5.750351037333709 7.438401353434498 1.5999999999995724
  endloop
endfacet
facet normal -0.14608302856240346 -0.9892723329629894 -1.87504380413454e-13
  outer loop
    vertex 36.65469597612485 -2.4875543904958777 -4.407472096138032e-13
    vertex 32.37313681911036 -1.8553087410574771 1.5999999999998227
    vertex 32.373136819110336 -1.8553087410571651 -4.4523679402483955e-14
  endloop
endfacet
facet normal -0.14608302856240346 -0.9892723329629894 -1.87504380413454e-13
  outer loop
    vertex 32.37313681911036 -1.8553087410574771 1.5999999999998227
    vertex 36.65469597612485 -2.4875543904958777 -4.407472096138032e-13
    vertex 36.65469597612487 -2.4875543904962125 1.599999999999565
  endloop
endfacet
facet normal 0.18738131458568166 0.982287250728697 1.8330667425871695e-13
  outer loop
    vertex 42.970456726487555 -0.546148244197832 3.2399999999387505
    vertex 42.97045672646248 -0.5461482443010076 1.599999999990801
    vertex 41.4533295835868 -0.2567407636267437 3.2399999999472135
  endloop
endfacet
facet normal 0.18738131458568166 0.982287250728697 1.8330667425871695e-13
  outer loop
    vertex 41.45332958356134 -0.2567407637295626 -6.492657544398513e-13
    vertex 42.97045672646248 -0.5461482443010076 1.599999999990801
    vertex 44.787688140311104 -0.8928036762842557 -2.711773014662749e-11
  endloop
endfacet
facet normal 0.18738131458568166 0.982287250728697 1.8330667425871695e-13
  outer loop
    vertex 42.97045672646248 -0.5461482443010076 1.599999999990801
    vertex 41.45332958356134 -0.2567407637295626 -6.492657544398513e-13
    vertex 41.4533295835868 -0.2567407636267437 3.2399999999472135
  endloop
endfacet
facet normal 0.18738131458568166 0.982287250728697 1.8330667425871695e-13
  outer loop
    vertex 44.787688140311104 -0.8928036762842557 -2.711773014662749e-11
    vertex 42.97045672646248 -0.5461482443010076 1.599999999990801
    vertex 44.78768814031103 -0.8928036762845821 1.5999999999728187
  endloop
endfacet
facet normal -0.10452846326762655 -0.9945218953682762 -1.9202191707375075e-13
  outer loop
    vertex 28.07927592491215 -1.3128679631590383 -4.316935524362721e-13
    vertex 23.77499672283145 -0.8604699892548103 1.5999999999997434
    vertex 23.77499672283106 -0.8604699892544754 -1.930983051095901e-13
  endloop
endfacet
facet normal -0.10452846326762655 -0.9945218953682762 -1.9202191707375075e-13
  outer loop
    vertex 23.77499672283145 -0.8604699892548103 1.5999999999997434
    vertex 28.07927592491215 -1.3128679631590383 -4.316935524362721e-13
    vertex 28.079275924912356 -1.312867963159356 1.599999999999551
  endloop
endfacet
facet normal 0.909784188428585 0.41508159497301395 7.845552848351114e-15
  outer loop
    vertex 4.161400175640795 12.07992392946091 -3.795669351731614e-13
    vertex 5.038191669364369 10.158154698545655 1.5999999999995207
    vertex 5.038191669364155 10.158154698545975 -4.3888704373059914e-13
  endloop
endfacet
facet normal 0.909784188428585 0.41508159497301395 7.845552848351114e-15
  outer loop
    vertex 5.038191669364369 10.158154698545655 1.5999999999995207
    vertex 4.161400175640795 12.07992392946091 -3.795669351731614e-13
    vertex 4.1614001756409165 12.079923929460591 1.5999999999996262
  endloop
endfacet
facet normal -0.9990932657660989 0.04257518409626852 9.197909981240066e-14
  outer loop
    vertex -2.7444603412745403 6.635653659648905 -2.438862613642036e-13
    vertex -2.7144820394964357 7.339141385213756 1.5999999999997232
    vertex -2.7144820394966493 7.339141385214085 -3.285955779818349e-13
  endloop
endfacet
facet normal -0.9990932657660989 0.04257518409626852 9.197909981240066e-14
  outer loop
    vertex -2.7144820394964357 7.339141385213756 1.5999999999997232
    vertex -2.7444603412745403 6.635653659648905 -2.438862613642036e-13
    vertex -2.744460341274419 6.635653659648584 1.5999999999997387
  endloop
endfacet
facet normal -0.011725351671159023 0.9999312557012046 2.028255320348255e-13
  outer loop
    vertex -0.19134158652869546 13.858048284049056 1.5999999999995362
    vertex 3.0750419239454607 13.896350412455526 -4.084191849795067e-13
    vertex -0.19134158652881675 13.858048284049378 -4.69333797308301e-13
  endloop
endfacet
facet normal -0.011725351671159023 0.9999312557012046 2.028255320348255e-13
  outer loop
    vertex 3.0750419239454607 13.896350412455526 -4.084191849795067e-13
    vertex -0.19134158652869546 13.858048284049056 1.5999999999995362
    vertex 3.075041923945582 13.896350412455204 1.5999999999995742
  endloop
endfacet
facet normal -0.14608302856240168 0.9892723329629898 2.1187972703768534e-13
  outer loop
    vertex -28.4689718201278 0.47551063128944776 1.6000000000001822
    vertex -24.12525598529566 1.1169347803572374 6.192400749735059e-15
    vertex -28.46897182012801 0.4755106312897654 2.224717839632121e-13
  endloop
endfacet
facet normal -0.14608302856240168 0.9892723329629898 2.1187972703768534e-13
  outer loop
    vertex -24.12525598529566 1.1169347803572374 6.192400749735059e-15
    vertex -28.4689718201278 0.47551063128944776 1.6000000000001822
    vertex -24.125255985295446 1.1169347803569096 1.5999999999999888
  endloop
endfacet
facet normal -0.12533323356432827 -0.9921147013144748 -1.8983292045234369e-13
  outer loop
    vertex 32.373136819110336 -1.8553087410571651 -4.4523679402483955e-14
    vertex 28.079275924912356 -1.312867963159356 1.599999999999551
    vertex 28.07927592491215 -1.3128679631590383 -4.316935524362721e-13
  endloop
endfacet
facet normal -0.12533323356432827 -0.9921147013144748 -1.8983292045234369e-13
  outer loop
    vertex 28.079275924912356 -1.312867963159356 1.599999999999551
    vertex 32.373136819110336 -1.8553087410571651 -4.4523679402483955e-14
    vertex 32.37313681911036 -1.8553087410574771 1.5999999999998227
  endloop
endfacet
facet normal -8.342411890447239e-14 2.018609233908391e-13 -1.0
  outer loop
    vertex 32.78028353641221 1.1169347803571334 -5.280677952143932e-13
    vertex 2.163519587936793 0.045319274902293406 -5.5873991910986526e-14
    vertex -2.1635195879367988 -0.04531927490229196 5.600275381385822e-14
  endloop
endfacet
facet normal -8.342411890447239e-14 2.018609233908391e-13 -1.0
  outer loop
    vertex 2.163519587936793 0.045319274902293406 -5.5873991910986526e-14
    vertex 32.78028353641221 1.1169347803571334 -5.280677952143932e-13
    vertex 37.12399937124515 0.4755106312895532 -9.303560119269722e-14
  endloop
endfacet
facet normal -8.342411890447239e-14 2.018609233908391e-13 -1.0
  outer loop
    vertex 2.163519587936793 0.045319274902293406 -5.5873991910986526e-14
    vertex 37.12399937124515 0.4755106312895532 -9.303560119269722e-14
    vertex 6.491507963181659 0.04531927490226164 -1.196086692387859e-13
  endloop
endfacet
facet normal -8.342411890447239e-14 2.018609233908391e-13 -1.0
  outer loop
    vertex 6.491507963181659 0.04531927490226164 -1.196086692387859e-13
    vertex 37.12399937124515 0.4755106312895532 -9.303560119269722e-14
    vertex 10.818547139054651 -0.04531927490237571 -1.582846203933019e-13
  endloop
endfacet
facet normal -8.342411890447239e-14 2.018609233908391e-13 -1.0
  outer loop
    vertex 10.818547139054651 -0.04531927490237571 -1.582846203933019e-13
    vertex 37.12399937124515 0.4755106312895532 -9.303560119269722e-14
    vertex 15.142739133164207 -0.2265566174482074 -2.6428954252424724e-13
  endloop
endfacet
facet normal -8.342411890447239e-14 2.018609233908391e-13 -1.0
  outer loop
    vertex 15.142739133164207 -0.2265566174482074 -2.6428954252424724e-13
    vertex 37.12399937124515 0.4755106312895532 -9.303560119269722e-14
    vertex 41.45332958356134 -0.2567407637295626 -6.492657544398513e-13
  endloop
endfacet
facet normal -8.342411890447239e-14 2.018609233908391e-13 -1.0
  outer loop
    vertex 15.142739133164207 -0.2265566174482074 -2.6428954252424724e-13
    vertex 41.45332958356134 -0.2567407637295626 -6.492657544398513e-13
    vertex 19.46218721198545 -0.4983132560466852 -3.683038408981424e-13
  endloop
endfacet
facet normal -8.342411890447239e-14 2.018609233908391e-13 -1.0
  outer loop
    vertex 19.46218721198545 -0.4983132560466852 -3.683038408981424e-13
    vertex 41.45332958356134 -0.2567407637295626 -6.492657544398513e-13
    vertex 23.77499672283106 -0.8604699892544754 -1.930983051095901e-13
  endloop
endfacet
facet normal -8.342411890447239e-14 2.018609233908391e-13 -1.0
  outer loop
    vertex 23.77499672283106 -0.8604699892544754 -1.930983051095901e-13
    vertex 41.45332958356134 -0.2567407637295626 -6.492657544398513e-13
    vertex 44.787688140311104 -0.8928036762842557 -2.711773014662749e-11
  endloop
endfacet
facet normal -8.342411890447239e-14 2.018609233908391e-13 -1.0
  outer loop
    vertex 23.77499672283106 -0.8604699892544754 -1.930983051095901e-13
    vertex 44.787688140311104 -0.8928036762842557 -2.711773014662749e-11
    vertex 28.07927592491215 -1.3128679631590383 -4.316935524362721e-13
  endloop
endfacet
facet normal -8.342411890447239e-14 2.018609233908391e-13 -1.0
  outer loop
    vertex 28.07927592491215 -1.3128679631590383 -4.316935524362721e-13
    vertex 44.787688140311104 -0.8928036762842557 -2.711773014662749e-11
    vertex 32.373136819110336 -1.8553087410571651 -4.4523679402483955e-14
  endloop
endfacet
facet normal -8.342411890447239e-14 2.018609233908391e-13 -1.0
  outer loop
    vertex 32.373136819110336 -1.8553087410571651 -4.4523679402483955e-14
    vertex 44.787688140311104 -0.8928036762842557 -2.711773014662749e-11
    vertex 36.65469597612485 -2.4875543904958777 -4.407472096138032e-13
  endloop
endfacet
facet normal -8.342411890447239e-14 2.018609233908391e-13 -1.0
  outer loop
    vertex 36.65469597612485 -2.4875543904958777 -4.407472096138032e-13
    vertex 44.787688140311104 -0.8928036762842557 -2.711773014662749e-11
    vertex 40.92207536260413 -3.2093275876374006 -4.1909187118738426e-13
  endloop
endfacet
facet normal -8.342411890447239e-14 2.018609233908391e-13 -1.0
  outer loop
    vertex 40.92207536260413 -3.2093275876374006 -4.1909187118738426e-13
    vertex 44.787688140311104 -0.8928036762842557 -2.711773014662749e-11
    vertex 44.22557501926255 -3.8395038501707215 -2.707220242441635e-11
  endloop
endfacet
facet normal -8.342411890447239e-14 2.018609233908391e-13 -1.0
  outer loop
    vertex 3.0750419239454607 13.896350412455526 -4.084191849795067e-13
    vertex -1.2348075744158105 12.016647145982526 -4.199486645010254e-13
    vertex -0.19134158652881675 13.858048284049378 -4.69333797308301e-13
  endloop
endfacet
facet normal -8.342411890447239e-14 2.018609233908391e-13 -1.0
  outer loop
    vertex -1.2348075744158105 12.016647145982526 -4.199486645010254e-13
    vertex 3.0750419239454607 13.896350412455526 -4.084191849795067e-13
    vertex 4.161400175640795 12.07992392946091 -3.795669351731614e-13
  endloop
endfacet
facet normal -8.342411890447239e-14 2.018609233908391e-13 -1.0
  outer loop
    vertex -1.2348075744158105 12.016647145982526 -4.199486645010254e-13
    vertex 4.161400175640795 12.07992392946091 -3.795669351731614e-13
    vertex -2.066294236722267 10.074846375881146 -2.5488937808638245e-13
  endloop
endfacet
facet normal -8.342411890447239e-14 2.018609233908391e-13 -1.0
  outer loop
    vertex -2.066294236722267 10.074846375881146 -2.5488937808638245e-13
    vertex 4.161400175640795 12.07992392946091 -3.795669351731614e-13
    vertex 5.038191669364155 10.158154698545975 -4.3888704373059914e-13
  endloop
endfacet
facet normal -8.342411890447239e-14 2.018609233908391e-13 -1.0
  outer loop
    vertex -2.066294236722267 10.074846375881146 -2.5488937808638245e-13
    vertex 5.038191669364155 10.158154698545975 -4.3888704373059914e-13
    vertex -2.525148472079279 8.497293723742331 -3.552724018625275e-13
  endloop
endfacet
facet normal -8.342411890447239e-14 2.018609233908391e-13 -1.0
  outer loop
    vertex -2.525148472079279 8.497293723742331 -3.552724018625275e-13
    vertex 5.038191669364155 10.158154698545975 -4.3888704373059914e-13
    vertex 5.533911910683769 8.591795537330716 -4.560681210734358e-13
  endloop
endfacet
facet normal -8.342411890447239e-14 2.018609233908391e-13 -1.0
  outer loop
    vertex -2.525148472079279 8.497293723742331 -3.552724018625275e-13
    vertex 5.533911910683769 8.591795537330716 -4.560681210734358e-13
    vertex -2.7144820394966493 7.339141385214085 -3.285955779818349e-13
  endloop
endfacet
facet normal -8.342411890447239e-14 2.018609233908391e-13 -1.0
  outer loop
    vertex -2.7144820394966493 7.339141385214085 -3.285955779818349e-13
    vertex 5.533911910683769 8.591795537330716 -4.560681210734358e-13
    vertex 5.750351037333588 7.438401353434819 -4.102020429467641e-13
  endloop
endfacet
facet normal -8.342411890447239e-14 2.018609233908391e-13 -1.0
  outer loop
    vertex -2.7144820394966493 7.339141385214085 -3.285955779818349e-13
    vertex 5.750351037333588 7.438401353434819 -4.102020429467641e-13
    vertex -2.7444603412745403 6.635653659648905 -2.438862613642036e-13
  endloop
endfacet
facet normal -8.342411890447239e-14 2.018609233908391e-13 -1.0
  outer loop
    vertex -2.7444603412745403 6.635653659648905 -2.438862613642036e-13
    vertex 5.750351037333588 7.438401353434819 -4.102020429467641e-13
    vertex 5.796817243908863 6.735810028236117 -4.4173552795055823e-13
  endloop
endfacet
facet normal -8.342411890447239e-14 2.018609233908391e-13 -1.0
  outer loop
    vertex -2.7444603412745403 6.635653659648905 -2.438862613642036e-13
    vertex 5.796817243908863 6.735810028236117 -4.4173552795055823e-13
    vertex -2.218925729617997 2.9540136977963507 1.514107983500669e-14
  endloop
endfacet
facet normal -8.342411890447239e-14 2.018609233908391e-13 -1.0
  outer loop
    vertex -2.218925729617997 2.9540136977963507 1.514107983500669e-14
    vertex 5.796817243908863 6.735810028236117 -4.4173552795055823e-13
    vertex 5.35803118621257 3.045154782998764 2.885625100333833e-13
  endloop
endfacet
facet normal -8.342411890447239e-14 2.018609233908391e-13 -1.0
  outer loop
    vertex -2.218925729617997 2.9540136977963507 1.514107983500669e-14
    vertex 5.35803118621257 3.045154782998764 2.885625100333833e-13
    vertex -6.644719450775642 2.769331986815583 -2.3965181448813373e-13
  endloop
endfacet
facet normal -8.342411890447239e-14 2.018609233908391e-13 -1.0
  outer loop
    vertex -6.644719450775642 2.769331986815583 -2.3965181448813373e-13
    vertex 5.35803118621257 3.045154782998764 2.885625100333833e-13
    vertex -11.026874252250328 2.4936301756268784 -1.2327891580874394e-13
  endloop
endfacet
facet normal -8.342411890447239e-14 2.018609233908391e-13 -1.0
  outer loop
    vertex -11.026874252250328 2.4936301756268784 -1.2327891580874394e-13
    vertex 5.35803118621257 3.045154782998764 2.885625100333833e-13
    vertex 6.52292331553014 3.045154782998779 -2.305997710312517e-13
  endloop
endfacet
facet normal -8.342411890447239e-14 2.018609233908391e-13 -1.0
  outer loop
    vertex -11.026874252250328 2.4936301756268784 -1.2327891580874394e-13
    vertex 6.52292331553014 3.045154782998779 -2.305997710312517e-13
    vertex -15.402294111669349 2.126215904554865 -1.8980683456319004e-13
  endloop
endfacet
facet normal -8.342411890447239e-14 2.018609233908391e-13 -1.0
  outer loop
    vertex -15.402294111669349 2.126215904554865 -1.8980683456319004e-13
    vertex 6.52292331553014 3.045154782998779 -2.305997710312517e-13
    vertex 10.912779416288855 2.9532004061947696 -2.236348617129792e-13
  endloop
endfacet
facet normal -8.342411890447239e-14 2.018609233908391e-13 -1.0
  outer loop
    vertex -15.402294111669349 2.126215904554865 -1.8980683456319004e-13
    vertex 10.912779416288855 2.9532004061947696 -2.236348617129792e-13
    vertex -19.76905982527214 1.667250333642339 1.3827208154497687e-13
  endloop
endfacet
facet normal -8.342411890447239e-14 2.018609233908391e-13 -1.0
  outer loop
    vertex -19.76905982527214 1.667250333642339 1.3827208154497687e-13
    vertex 10.912779416288855 2.9532004061947696 -2.236348617129792e-13
    vertex 15.299747001892303 2.7693319868154904 -3.5327375487053463e-13
  endloop
endfacet
facet normal -8.342411890447239e-14 2.018609233908391e-13 -1.0
  outer loop
    vertex -19.76905982527214 1.667250333642339 1.3827208154497687e-13
    vertex 15.299747001892303 2.7693319868154904 -3.5327375487053463e-13
    vertex -24.12525598529566 1.1169347803572374 6.192400749735059e-15
  endloop
endfacet
facet normal -8.342411890447239e-14 2.018609233908391e-13 -1.0
  outer loop
    vertex -24.12525598529566 1.1169347803572374 6.192400749735059e-15
    vertex 15.299747001892303 2.7693319868154904 -3.5327375487053463e-13
    vertex 19.681901803367147 2.4936301756267225 -2.4988147153888677e-13
  endloop
endfacet
facet normal -8.342411890447239e-14 2.018609233908391e-13 -1.0
  outer loop
    vertex -24.12525598529566 1.1169347803572374 6.192400749735059e-15
    vertex 19.681901803367147 2.4936301756267225 -2.4988147153888677e-13
    vertex -28.46897182012801 0.4755106312897654 2.224717839632121e-13
  endloop
endfacet
facet normal -8.342411890447239e-14 2.018609233908391e-13 -1.0
  outer loop
    vertex -28.46897182012801 0.4755106312897654 2.224717839632121e-13
    vertex 19.681901803367147 2.4936301756267225 -2.4988147153888677e-13
    vertex 24.057321662785984 2.1262159045547033 -3.5236470845832476e-13
  endloop
endfacet
facet normal -8.342411890447239e-14 2.018609233908391e-13 -1.0
  outer loop
    vertex -28.46897182012801 0.4755106312897654 2.224717839632121e-13
    vertex 24.057321662785984 2.1262159045547033 -3.5236470845832476e-13
    vertex -32.79830203244492 -0.25674076372940524 -6.765682628374942e-14
  endloop
endfacet
facet normal -8.342411890447239e-14 2.018609233908391e-13 -1.0
  outer loop
    vertex -32.79830203244492 -0.25674076372940524 -6.765682628374942e-14
    vertex 24.057321662785984 2.1262159045547033 -3.5236470845832476e-13
    vertex 28.424087376390528 1.6672503336421889 -1.7558443797233884e-13
  endloop
endfacet
facet normal -8.342411890447239e-14 2.018609233908391e-13 -1.0
  outer loop
    vertex -32.79830203244492 -0.25674076372940524 -6.765682628374942e-14
    vertex 28.424087376390528 1.6672503336421889 -1.7558443797233884e-13
    vertex -36.95116675421438 -1.0489420778404135 3.5798280807961326e-13
  endloop
endfacet
facet normal -8.342411890447239e-14 2.018609233908391e-13 -1.0
  outer loop
    vertex -36.95116675421438 -1.0489420778404135 3.5798280807961326e-13
    vertex 28.424087376390528 1.6672503336421889 -1.7558443797233884e-13
    vertex 32.78028353641221 1.1169347803571334 -5.280677952143932e-13
  endloop
endfacet
facet normal -8.342411890447239e-14 2.018609233908391e-13 -1.0
  outer loop
    vertex -36.95116675421438 -1.0489420778404135 3.5798280807961326e-13
    vertex 32.78028353641221 1.1169347803571334 -5.280677952143932e-13
    vertex -37.111347634928364 -1.0794982150369552 3.6014360351300615e-13
  endloop
endfacet
facet normal -8.342411890447239e-14 2.018609233908391e-13 -1.0
  outer loop
    vertex -37.111347634928364 -1.0794982150369552 3.6014360351300615e-13
    vertex 32.78028353641221 1.1169347803571334 -5.280677952143932e-13
    vertex -2.1635195879367988 -0.04531927490229196 5.600275381385822e-14
  endloop
endfacet
facet normal -8.342411890447239e-14 2.018609233908391e-13 -1.0
  outer loop
    vertex -37.111347634928364 -1.0794982150369552 3.6014360351300615e-13
    vertex -2.1635195879367988 -0.04531927490229196 5.600275381385822e-14
    vertex -38.707381168718946 -1.4187456152896083 2.9001689473278673e-13
  endloop
endfacet
facet normal -8.342411890447239e-14 2.018609233908391e-13 -1.0
  outer loop
    vertex -38.707381168718946 -1.4187456152896083 2.9001689473278673e-13
    vertex -2.1635195879367988 -0.04531927490229196 5.600275381385822e-14
    vertex -6.487711582045934 -0.2265566174480269 5.4294735926241986e-14
  endloop
endfacet
facet normal -8.342411890447239e-14 2.018609233908391e-13 -1.0
  outer loop
    vertex -38.707381168718946 -1.4187456152896083 2.9001689473278673e-13
    vertex -6.487711582045934 -0.2265566174480269 5.4294735926241986e-14
    vertex -10.807159660866953 -0.49831325604647725 -8.41187276750784e-14
  endloop
endfacet
facet normal -8.342411890447239e-14 2.018609233908391e-13 -1.0
  outer loop
    vertex -38.707381168718946 -1.4187456152896083 2.9001689473278673e-13
    vertex -10.807159660866953 -0.49831325604647725 -8.41187276750784e-14
    vertex -15.11996917171289 -0.8604699892542241 7.966415532801069e-14
  endloop
endfacet
facet normal -8.342411890447239e-14 2.018609233908391e-13 -1.0
  outer loop
    vertex -38.707381168718946 -1.4187456152896083 2.9001689473278673e-13
    vertex -15.11996917171289 -0.8604699892542241 7.966415532801069e-14
    vertex -40.50955871422391 -1.8018102778811387 4.0757693422546187e-13
  endloop
endfacet
facet normal -8.342411890447239e-14 2.018609233908391e-13 -1.0
  outer loop
    vertex -40.50955871422391 -1.8018102778811387 4.0757693422546187e-13
    vertex -15.11996917171289 -0.8604699892542241 7.966415532801069e-14
    vertex -19.424248373793 -1.3128679631587439 -1.2431158830271187e-13
  endloop
endfacet
facet normal -8.342411890447239e-14 2.018609233908391e-13 -1.0
  outer loop
    vertex -40.50955871422391 -1.8018102778811387 4.0757693422546187e-13
    vertex -19.424248373793 -1.3128679631587439 -1.2431158830271187e-13
    vertex -23.718109267991007 -1.8553087410568996 2.006817783016119e-14
  endloop
endfacet
facet normal -8.342411890447239e-14 2.018609233908391e-13 -1.0
  outer loop
    vertex -40.50955871422391 -1.8018102778811387 4.0757693422546187e-13
    vertex -23.718109267991007 -1.8553087410568996 2.006817783016119e-14
    vertex -27.999668425006735 -2.487554390495531 9.695967807745712e-14
  endloop
endfacet
facet normal -8.342411890447239e-14 2.018609233908391e-13 -1.0
  outer loop
    vertex -40.50955871422391 -1.8018102778811387 4.0757693422546187e-13
    vertex -27.999668425006735 -2.487554390495531 9.695967807745712e-14
    vertex -32.26704781148502 -3.209327587636924 2.6804747619573927e-13
  endloop
endfacet
facet normal -8.342411890447239e-14 2.018609233908391e-13 -1.0
  outer loop
    vertex -40.50955871422391 -1.8018102778811387 4.0757693422546187e-13
    vertex -32.26704781148502 -3.209327587636924 2.6804747619573927e-13
    vertex -36.3861839406465 -3.995094828601532 5.084227978457808e-13
  endloop
endfacet
facet normal -8.342411890447239e-14 2.018609233908391e-13 -1.0
  outer loop
    vertex -40.50955871422391 -1.8018102778811387 4.0757693422546187e-13
    vertex -36.3861839406465 -3.995094828601532 5.084227978457808e-13
    vertex -36.51837561378991 -4.020311738901993 2.5609320699516337e-13
  endloop
endfacet
facet normal -8.342411890447239e-14 2.018609233908391e-13 -1.0
  outer loop
    vertex -40.50955871422391 -1.8018102778811387 4.0757693422546187e-13
    vertex -36.51837561378991 -4.020311738901993 2.5609320699516337e-13
    vertex -38.19054019516468 -4.3757412928653885 3.949396488564874e-13
  endloop
endfacet
facet normal -8.342411890447239e-14 2.018609233908391e-13 -1.0
  outer loop
    vertex -36.3861839406465 -3.995094828601532 5.084227978457808e-13
    vertex -32.26704781148502 -3.209327587636924 2.6804747619573927e-13
    vertex -34.60322378835987 -3.6549769894037136 4.15067666083329e-13
  endloop
endfacet
facet normal -8.342411890447239e-14 2.018609233908391e-13 -1.0
  outer loop
    vertex -6.644719450775642 2.769331986815583 -2.3965181448813373e-13
    vertex -2.257751865171454 2.953200406194859 -9.998274133021059e-14
    vertex -2.218925729617997 2.9540136977963507 1.514107983500669e-14
  endloop
endfacet
facet normal 0.993006506842847 -0.11805963479431449 -1.0674251297824996e-13
  outer loop
    vertex 5.796817243909076 6.735810028235799 1.5999999999996333
    vertex 5.35803118621257 3.045154782998764 2.885625100333833e-13
    vertex 5.796817243908863 6.735810028236117 -4.4173552795055823e-13
  endloop
endfacet
facet normal 0.993006506842847 -0.11805963479431449 -1.0674251297824996e-13
  outer loop
    vertex 5.35803118621257 3.045154782998764 2.885625100333833e-13
    vertex 5.796817243909076 6.735810028235799 1.5999999999996333
    vertex 5.358031186212778 3.045154782998448 1.6000000000002943
  endloop
endfacet
facet normal 0.7429380185783381 0.6693602173351005 -2.2384350039722242e-13
  outer loop
    vertex -36.95116675421407 -1.0489420778403356 3.2401828590735
    vertex -34.60322378835975 -3.6549769894040343 1.6000000000003978
    vertex -36.951166754214256 -1.0489420778407341 1.6000000000002714
  endloop
endfacet
facet normal 0.7429380185783381 0.6693602173351005 -2.2384350039722242e-13
  outer loop
    vertex -34.60322378835975 -3.6549769894040343 1.6000000000003978
    vertex -36.95116675421407 -1.0489420778403356 3.2401828590735
    vertex -34.60322378835966 -3.654976989403627 3.2401828590735104
  endloop
endfacet
facet normal -0.18738131458555288 -0.9822872507287215 -2.5729923458253278e-12
  outer loop
    vertex 40.92207536260413 -3.2093275876374006 -4.1909187118738426e-13
    vertex 42.40834360541456 -3.4928484181873376 1.5999999999906618
    vertex 40.92207536260536 -3.2093275876463756 3.2399999999488065
  endloop
endfacet
facet normal -0.18738131458555288 -0.9822872507287215 -2.5729923458253278e-12
  outer loop
    vertex 42.40834360541456 -3.4928484181873376 1.5999999999906618
    vertex 40.92207536260413 -3.2093275876374006 -4.1909187118738426e-13
    vertex 44.22557501926255 -3.8395038501707215 -2.707220242441635e-11
  endloop
endfacet
facet normal -0.18738131458555288 -0.9822872507287215 -2.5729923458253278e-12
  outer loop
    vertex 42.40834360541456 -3.4928484181873376 1.5999999999906618
    vertex 44.22557501926255 -3.8395038501707215 -2.707220242441635e-11
    vertex 44.22557501926293 -3.8395038501710332 1.599999999972818
  endloop
endfacet
facet normal -0.18738131458555288 -0.9822872507287215 -2.5729923458253278e-12
  outer loop
    vertex 42.408343605415965 -3.492848418195928 3.239999999939859
    vertex 40.92207536260536 -3.2093275876463756 3.2399999999488065
    vertex 42.40834360541456 -3.4928484181873376 1.5999999999906618
  endloop
endfacet
facet normal 0.9533936252119687 0.3017293413063768 -1.8582343058548972e-14
  outer loop
    vertex 5.038191669364155 10.158154698545975 -4.3888704373059914e-13
    vertex 5.533911910683891 8.591795537330396 1.5999999999995267
    vertex 5.533911910683769 8.591795537330716 -4.560681210734358e-13
  endloop
endfacet
facet normal 0.9533936252119687 0.3017293413063768 -1.8582343058548972e-14
  outer loop
    vertex 5.533911910683891 8.591795537330396 1.5999999999995267
    vertex 5.038191669364155 10.158154698545975 -4.3888704373059914e-13
    vertex 5.038191669364369 10.158154698545655 1.5999999999995207
  endloop
endfacet
facet normal -0.9595679207556596 0.2814771846112225 -3.331501996798979e-13
  outer loop
    vertex 40.319335180614196 -3.1073817166943134 1.5999999999974417
    vertex 41.16961134730554 -0.20875341590319438 3.2399999999447666
    vertex 41.16961134728084 -0.2087534160063483 1.5999999999968402
  endloop
endfacet
facet normal -0.9595679207556596 0.2814771846112225 -3.331501996798979e-13
  outer loop
    vertex 41.16961134730554 -0.20875341590319438 3.2399999999447666
    vertex 40.319335180614196 -3.1073817166943134 1.5999999999974417
    vertex 40.31933518061513 -3.107381716702939 3.239999999946269
  endloop
endfacet
facet normal -0.9192673133157785 0.39363384848001876 1.5614152181559948e-13
  outer loop
    vertex -2.066294236722267 10.074846375881146 -2.5488937808638245e-13
    vertex -1.2348075744154985 12.016647145982187 1.5999999999994934
    vertex -1.2348075744158105 12.016647145982526 -4.199486645010254e-13
  endloop
endfacet
facet normal -0.9192673133157785 0.39363384848001876 1.5614152181559948e-13
  outer loop
    vertex -1.2348075744154985 12.016647145982187 1.5999999999994934
    vertex -2.066294236722267 10.074846375881146 -2.5488937808638245e-13
    vertex -2.0662942367221455 10.074846375880837 1.5999999999996817
  endloop
endfacet
facet normal -0.18738131458571564 0.9822872507286905 -7.39681821027438e-15
  outer loop
    vertex -37.11134763492797 -1.0794982150368597 3.240182859073479
    vertex -36.95116675421438 -1.0489420778404135 3.5798280807961326e-13
    vertex -37.111347634928364 -1.0794982150369552 3.6014360351300615e-13
  endloop
endfacet
facet normal -0.18738131458571564 0.9822872507286905 -7.39681821027438e-15
  outer loop
    vertex -36.95116675421438 -1.0489420778404135 3.5798280807961326e-13
    vertex -37.11134763492797 -1.0794982150368597 3.240182859073479
    vertex -36.951166754214256 -1.0489420778407341 1.6000000000002714
  endloop
endfacet
facet normal -0.18738131458571564 0.9822872507286905 -7.39681821027438e-15
  outer loop
    vertex -36.951166754214256 -1.0489420778407341 1.6000000000002714
    vertex -37.11134763492797 -1.0794982150368597 3.240182859073479
    vertex -36.95116675421407 -1.0489420778403356 3.2401828590735
  endloop
endfacet
facet normal -0.18738131458570687 0.982287250728692 2.109216006883586e-13
  outer loop
    vertex -36.951166754214256 -1.0489420778407341 1.6000000000002714
    vertex -32.79830203244492 -0.25674076372940524 -6.765682628374942e-14
    vertex -36.95116675421438 -1.0489420778404135 3.5798280807961326e-13
  endloop
endfacet
facet normal -0.18738131458570687 0.982287250728692 2.109216006883586e-13
  outer loop
    vertex -32.79830203244492 -0.25674076372940524 -6.765682628374942e-14
    vertex -36.951166754214256 -1.0489420778407341 1.6000000000002714
    vertex -32.79830203244481 -0.25674076372973736 1.6000000000000305
  endloop
endfacet
facet normal -0.7429380185783107 -0.6693602173351312 2.3996948982990323e-13
  outer loop
    vertex -36.38618394064638 -3.995094828601853 1.600000000000468
    vertex -38.707381168718825 -1.4187456152895246 3.2401828590733395
    vertex -38.70738116871883 -1.4187456152899287 1.6000000000003651
  endloop
endfacet
facet normal -0.7429380185783107 -0.6693602173351312 2.3996948982990323e-13
  outer loop
    vertex -38.707381168718825 -1.4187456152895246 3.2401828590733395
    vertex -36.38618394064638 -3.995094828601853 1.600000000000468
    vertex -36.38618394064619 -3.995094828601454 3.2401828590736272
  endloop
endfacet
facet normal -0.020942419883193963 0.999780683474849 2.0356256009317534e-13
  outer loop
    vertex -2.2577518651713326 2.9532004061945267 1.5999999999998364
    vertex -2.218925729617997 2.9540136977963507 1.514107983500669e-14
    vertex -2.257751865171454 2.953200406194859 -9.998274133021059e-14
  endloop
endfacet
facet normal -0.020942419883193963 0.999780683474849 2.0356256009317534e-13
  outer loop
    vertex -2.218925729617997 2.9540136977963507 1.514107983500669e-14
    vertex -2.2577518651713326 2.9532004061945267 1.5999999999998364
    vertex -2.2189257296179683 2.954013697796004 1.5999999999999286
  endloop
endfacet
facet normal -0.12533323356431092 0.992114701314477 2.107208859200233e-13
  outer loop
    vertex -24.125255985295446 1.1169347803569096 1.5999999999999888
    vertex -19.76905982527214 1.667250333642339 1.3827208154497687e-13
    vertex -24.12525598529566 1.1169347803572374 6.192400749735059e-15
  endloop
endfacet
facet normal -0.12533323356431092 0.992114701314477 2.107208859200233e-13
  outer loop
    vertex -19.76905982527214 1.667250333642339 1.3827208154497687e-13
    vertex -24.125255985295446 1.1169347803569096 1.5999999999999888
    vertex -19.76905982527202 1.667250333642007 1.6000000000000747
  endloop
endfacet
facet normal 0.10452846326761447 0.9945218953682774 1.920184476267989e-13
  outer loop
    vertex 24.057321662786098 2.1262159045543827 1.5999999999995842
    vertex 28.424087376390528 1.6672503336421889 -1.7558443797233884e-13
    vertex 24.057321662785984 2.1262159045547033 -3.5236470845832476e-13
  endloop
endfacet
facet normal 0.10452846326761447 0.9945218953682774 1.920184476267989e-13
  outer loop
    vertex 28.424087376390528 1.6672503336421889 -1.7558443797233884e-13
    vertex 24.057321662786098 2.1262159045543827 1.5999999999995842
    vertex 28.42408737639046 1.667250333641874 1.599999999999784
  endloop
endfacet
facet normal 1.7307594760664084e-12 2.1390349965329854e-13 1.0
  outer loop
    vertex 40.31933518061513 -3.107381716702939 3.239999999946269
    vertex 41.4533295835868 -0.2567407636267437 3.2399999999472135
    vertex 41.16961134730554 -0.20875341590319438 3.2399999999447666
  endloop
endfacet
facet normal 1.7307594760664084e-12 2.1390349965329854e-13 1.0
  outer loop
    vertex 41.4533295835868 -0.2567407636267437 3.2399999999472135
    vertex 40.31933518061513 -3.107381716702939 3.239999999946269
    vertex 42.970456726487555 -0.546148244197832 3.2399999999387505
  endloop
endfacet
facet normal 1.7307594760664084e-12 2.1390349965329854e-13 1.0
  outer loop
    vertex 42.970456726487555 -0.546148244197832 3.2399999999387505
    vertex 40.31933518061513 -3.107381716702939 3.239999999946269
    vertex 40.92207536260536 -3.2093275876463756 3.2399999999488065
  endloop
endfacet
facet normal 1.7307594760664084e-12 2.1390349965329854e-13 1.0
  outer loop
    vertex 42.970456726487555 -0.546148244197832 3.2399999999387505
    vertex 40.92207536260536 -3.2093275876463756 3.2399999999488065
    vertex 42.408343605415965 -3.492848418195928 3.239999999939859
  endloop
endfacet
facet normal 0.0836778433323382 0.9964928592495025 1.941753898684718e-13
  outer loop
    vertex 19.68190180336726 2.493630175626405 1.5999999999996635
    vertex 24.057321662785984 2.1262159045547033 -3.5236470845832476e-13
    vertex 19.681901803367147 2.4936301756267225 -2.4988147153888677e-13
  endloop
endfacet
facet normal 0.0836778433323382 0.9964928592495025 1.941753898684718e-13
  outer loop
    vertex 24.057321662785984 2.1262159045547033 -3.5236470845832476e-13
    vertex 19.68190180336726 2.493630175626405 1.5999999999996635
    vertex 24.057321662786098 2.1262159045543827 1.5999999999995842
  endloop
endfacet
facet normal 0.9978201979686759 0.06599130644071624 -6.987419358847027e-14
  outer loop
    vertex 5.750351037333588 7.438401353434819 -4.102020429467641e-13
    vertex 5.796817243909076 6.735810028235799 1.5999999999996333
    vertex 5.796817243908863 6.735810028236117 -4.4173552795055823e-13
  endloop
endfacet
facet normal 0.9978201979686759 0.06599130644071624 -6.987419358847027e-14
  outer loop
    vertex 5.796817243909076 6.735810028235799 1.5999999999996333
    vertex 5.750351037333588 7.438401353434819 -4.102020429467641e-13
    vertex 5.750351037333709 7.438401353434498 1.5999999999995724
  endloop
endfacet
facet normal 0.16676874671212893 0.9859960370711771 -3.014115311974775e-11
  outer loop
    vertex 41.16961134728084 -0.2087534160063483 1.5999999999968402
    vertex 37.12399937124515 0.4755106312895532 -9.303560119269722e-14
    vertex 37.123999371245176 0.4755106312892182 1.5999999999998666
  endloop
endfacet
facet normal 0.16676874671212893 0.9859960370711771 -3.014115311974775e-11
  outer loop
    vertex 37.12399937124515 0.4755106312895532 -9.303560119269722e-14
    vertex 41.16961134728084 -0.2087534160063483 1.5999999999968402
    vertex 41.45332958356134 -0.2567407637295626 -6.492657544398513e-13
  endloop
endfacet
facet normal 0.16676874671212893 0.9859960370711771 -3.014115311974775e-11
  outer loop
    vertex 41.45332958356134 -0.2567407637295626 -6.492657544398513e-13
    vertex 41.16961134728084 -0.2087534160063483 1.5999999999968402
    vertex 41.16961134730554 -0.20875341590319438 3.2399999999447666
  endloop
endfacet
facet normal 0.16676874671212893 0.9859960370711771 -3.014115311974775e-11
  outer loop
    vertex 41.45332958356134 -0.2567407637295626 -6.492657544398513e-13
    vertex 41.16961134730554 -0.20875341590319438 3.2399999999447666
    vertex 41.4533295835868 -0.2567407636267437 3.2399999999472135
  endloop
endfacet
facet normal 0.8582211337033483 0.513280123972222 3.205709413319358e-14
  outer loop
    vertex 3.075041923945582 13.896350412455204 1.5999999999995742
    vertex 4.161400175640795 12.07992392946091 -3.795669351731614e-13
    vertex 3.0750419239454607 13.896350412455526 -4.084191849795067e-13
  endloop
endfacet
facet normal 0.8582211337033483 0.513280123972222 3.205709413319358e-14
  outer loop
    vertex 4.161400175640795 12.07992392946091 -3.795669351731614e-13
    vertex 3.075041923945582 13.896350412455204 1.5999999999995742
    vertex 4.1614001756409165 12.079923929460591 1.5999999999996262
  endloop
endfacet
facet normal -0.10452846326763471 0.9945218953682753 2.0947437478617792e-13
  outer loop
    vertex -19.76905982527202 1.667250333642007 1.6000000000000747
    vertex -15.402294111669349 2.126215904554865 -1.8980683456319004e-13
    vertex -19.76905982527214 1.667250333642339 1.3827208154497687e-13
  endloop
endfacet
facet normal -0.10452846326763471 0.9945218953682753 2.0947437478617792e-13
  outer loop
    vertex -15.402294111669349 2.126215904554865 -1.8980683456319004e-13
    vertex -19.76905982527202 1.667250333642007 1.6000000000000747
    vertex -15.40229411166923 2.1262159045545443 1.5999999999998622
  endloop
endfacet
endsolid working_stargate_mk2_ring_5
Working Stargate Mk2
www.glitch.org.uk